%TF.GenerationSoftware,KiCad,Pcbnew,7.0.10*%
%TF.CreationDate,2024-01-24T13:37:03-05:00*%
%TF.ProjectId,MiniBLDC,4d696e69-424c-4444-932e-6b696361645f,rev?*%
%TF.SameCoordinates,Original*%
%TF.FileFunction,Soldermask,Top*%
%TF.FilePolarity,Negative*%
%FSLAX46Y46*%
G04 Gerber Fmt 4.6, Leading zero omitted, Abs format (unit mm)*
G04 Created by KiCad (PCBNEW 7.0.10) date 2024-01-24 13:37:03*
%MOMM*%
%LPD*%
G01*
G04 APERTURE LIST*
G04 Aperture macros list*
%AMRoundRect*
0 Rectangle with rounded corners*
0 $1 Rounding radius*
0 $2 $3 $4 $5 $6 $7 $8 $9 X,Y pos of 4 corners*
0 Add a 4 corners polygon primitive as box body*
4,1,4,$2,$3,$4,$5,$6,$7,$8,$9,$2,$3,0*
0 Add four circle primitives for the rounded corners*
1,1,$1+$1,$2,$3*
1,1,$1+$1,$4,$5*
1,1,$1+$1,$6,$7*
1,1,$1+$1,$8,$9*
0 Add four rect primitives between the rounded corners*
20,1,$1+$1,$2,$3,$4,$5,0*
20,1,$1+$1,$4,$5,$6,$7,0*
20,1,$1+$1,$6,$7,$8,$9,0*
20,1,$1+$1,$8,$9,$2,$3,0*%
%AMFreePoly0*
4,1,17,2.675000,1.605000,1.875000,1.605000,1.875000,0.935000,2.675000,0.935000,2.675000,0.335000,1.875000,0.335000,1.875000,-0.335000,2.675000,-0.335000,2.675000,-0.935000,1.875000,-0.935000,1.875000,-1.605000,2.675000,-1.605000,2.675000,-2.205000,-1.875000,-2.205000,-1.875000,2.205000,2.675000,2.205000,2.675000,1.605000,2.675000,1.605000,$1*%
G04 Aperture macros list end*
%ADD10C,1.400000*%
%ADD11R,3.500000X3.500000*%
%ADD12C,3.500000*%
%ADD13RoundRect,0.150000X0.600000X-0.150000X0.600000X0.150000X-0.600000X0.150000X-0.600000X-0.150000X0*%
%ADD14RoundRect,0.250000X0.650000X-0.350000X0.650000X0.350000X-0.650000X0.350000X-0.650000X-0.350000X0*%
%ADD15C,0.800000*%
%ADD16C,5.000000*%
%ADD17C,3.600000*%
%ADD18C,5.600000*%
%ADD19RoundRect,0.225000X0.225000X0.250000X-0.225000X0.250000X-0.225000X-0.250000X0.225000X-0.250000X0*%
%ADD20FreePoly0,90.000000*%
%ADD21R,0.500000X0.850000*%
%ADD22RoundRect,0.200000X0.200000X0.275000X-0.200000X0.275000X-0.200000X-0.275000X0.200000X-0.275000X0*%
%ADD23RoundRect,0.200000X-0.200000X-0.275000X0.200000X-0.275000X0.200000X0.275000X-0.200000X0.275000X0*%
%ADD24RoundRect,0.140000X0.170000X-0.140000X0.170000X0.140000X-0.170000X0.140000X-0.170000X-0.140000X0*%
%ADD25RoundRect,0.135000X-0.135000X-0.185000X0.135000X-0.185000X0.135000X0.185000X-0.135000X0.185000X0*%
%ADD26RoundRect,0.250000X-0.325000X-0.650000X0.325000X-0.650000X0.325000X0.650000X-0.325000X0.650000X0*%
%ADD27RoundRect,0.200000X0.275000X-0.200000X0.275000X0.200000X-0.275000X0.200000X-0.275000X-0.200000X0*%
%ADD28RoundRect,0.218750X0.218750X0.256250X-0.218750X0.256250X-0.218750X-0.256250X0.218750X-0.256250X0*%
%ADD29RoundRect,0.135000X-0.185000X0.135000X-0.185000X-0.135000X0.185000X-0.135000X0.185000X0.135000X0*%
%ADD30RoundRect,0.225000X-0.250000X0.225000X-0.250000X-0.225000X0.250000X-0.225000X0.250000X0.225000X0*%
%ADD31C,0.600000*%
%ADD32R,3.900000X3.900000*%
%ADD33R,1.500000X0.900000*%
%ADD34R,0.900000X1.500000*%
%ADD35RoundRect,0.135000X0.135000X0.185000X-0.135000X0.185000X-0.135000X-0.185000X0.135000X-0.185000X0*%
%ADD36R,0.900000X1.000000*%
%ADD37FreePoly0,270.000000*%
%ADD38RoundRect,0.200000X-0.275000X0.200000X-0.275000X-0.200000X0.275000X-0.200000X0.275000X0.200000X0*%
%ADD39RoundRect,0.140000X-0.170000X0.140000X-0.170000X-0.140000X0.170000X-0.140000X0.170000X0.140000X0*%
%ADD40RoundRect,0.140000X0.140000X0.170000X-0.140000X0.170000X-0.140000X-0.170000X0.140000X-0.170000X0*%
%ADD41RoundRect,0.218750X-0.218750X-0.256250X0.218750X-0.256250X0.218750X0.256250X-0.218750X0.256250X0*%
%ADD42O,1.000000X1.800000*%
%ADD43O,1.000000X2.100000*%
%ADD44RoundRect,0.150000X0.150000X0.425000X-0.150000X0.425000X-0.150000X-0.425000X0.150000X-0.425000X0*%
%ADD45RoundRect,0.075000X0.075000X0.500000X-0.075000X0.500000X-0.075000X-0.500000X0.075000X-0.500000X0*%
%ADD46C,0.650000*%
%ADD47R,1.000000X0.900000*%
%ADD48RoundRect,0.250000X0.325000X0.650000X-0.325000X0.650000X-0.325000X-0.650000X0.325000X-0.650000X0*%
%ADD49RoundRect,0.135000X0.185000X-0.135000X0.185000X0.135000X-0.185000X0.135000X-0.185000X-0.135000X0*%
G04 APERTURE END LIST*
D10*
%TO.C,J13*%
X134450000Y-116085000D03*
X134450000Y-105085000D03*
D11*
X144450000Y-108085000D03*
D12*
X144450000Y-113085000D03*
%TD*%
D13*
%TO.C,J1*%
X173700000Y-111050000D03*
X173700000Y-110050000D03*
X173700000Y-109050000D03*
X173700000Y-108050000D03*
X173700000Y-107050000D03*
X173700000Y-106050000D03*
D14*
X177600000Y-112350000D03*
X177600000Y-104750000D03*
%TD*%
D13*
%TO.C,J3*%
X173700000Y-117000000D03*
X173700000Y-116000000D03*
D14*
X177600000Y-114700000D03*
X177600000Y-118300000D03*
%TD*%
D12*
%TO.C,J2*%
X144450000Y-126985000D03*
D11*
X144450000Y-121985000D03*
D10*
X134450000Y-118985000D03*
X134450000Y-129985000D03*
%TD*%
D15*
%TO.C,J8*%
X147425000Y-140185000D03*
X146875825Y-141510825D03*
X146875825Y-138859175D03*
X145550000Y-142060000D03*
D16*
X145550000Y-140185000D03*
D15*
X145550000Y-138310000D03*
X144224175Y-141510825D03*
X144224175Y-138859175D03*
X143675000Y-140185000D03*
%TD*%
%TO.C,J7*%
X158225000Y-140185000D03*
X157675825Y-141510825D03*
X157675825Y-138859175D03*
X156350000Y-142060000D03*
D16*
X156350000Y-140185000D03*
D15*
X156350000Y-138310000D03*
X155024175Y-141510825D03*
X155024175Y-138859175D03*
X154475000Y-140185000D03*
%TD*%
%TO.C,J6*%
X169025000Y-140185000D03*
X168475825Y-141510825D03*
X168475825Y-138859175D03*
X167150000Y-142060000D03*
D16*
X167150000Y-140185000D03*
D15*
X167150000Y-138310000D03*
X165824175Y-141510825D03*
X165824175Y-138859175D03*
X165275000Y-140185000D03*
%TD*%
D17*
%TO.C,H4*%
X175850000Y-140485000D03*
D18*
X175850000Y-140485000D03*
%TD*%
%TO.C,H3*%
X135850000Y-140485000D03*
D17*
X135850000Y-140485000D03*
%TD*%
%TO.C,H2*%
X175850000Y-100485000D03*
D18*
X175850000Y-100485000D03*
%TD*%
D17*
%TO.C,H1*%
X135850000Y-100485000D03*
D18*
X135850000Y-100485000D03*
%TD*%
D19*
%TO.C,C30*%
X161960877Y-124564789D03*
X163510877Y-124564789D03*
%TD*%
D20*
%TO.C,Q3*%
X159165000Y-131739061D03*
D21*
X157260000Y-135289061D03*
X158530000Y-135289061D03*
X159800000Y-135289061D03*
X161070000Y-135289061D03*
%TD*%
D22*
%TO.C,R26*%
X161921433Y-126050000D03*
X163571433Y-126050000D03*
%TD*%
D23*
%TO.C,R25*%
X163571754Y-127550000D03*
X161921754Y-127550000D03*
%TD*%
D24*
%TO.C,C45*%
X170920000Y-106455000D03*
X170920000Y-105495000D03*
%TD*%
D25*
%TO.C,R16*%
X174500000Y-122000000D03*
X175520000Y-122000000D03*
%TD*%
D26*
%TO.C,C1*%
X169975000Y-128400000D03*
X172925000Y-128400000D03*
%TD*%
D27*
%TO.C,R2*%
X167050000Y-125525000D03*
X167050000Y-127175000D03*
%TD*%
D28*
%TO.C,D1*%
X147859999Y-106800000D03*
X149434999Y-106800000D03*
%TD*%
D29*
%TO.C,R35*%
X171870000Y-101160000D03*
X171870000Y-102180000D03*
%TD*%
D30*
%TO.C,C35*%
X144650763Y-116799999D03*
X144650763Y-118349999D03*
%TD*%
D27*
%TO.C,R39*%
X148050000Y-125525000D03*
X148050000Y-123875000D03*
%TD*%
D31*
%TO.C,U8*%
X160500000Y-107385000D03*
X160500000Y-105985000D03*
X159800000Y-108085000D03*
X159800000Y-106685000D03*
X159800000Y-105285000D03*
X159100000Y-107385000D03*
D32*
X159100000Y-106685000D03*
D31*
X159100000Y-105985000D03*
X158400000Y-108085000D03*
X158400000Y-106685000D03*
X158400000Y-105285000D03*
X157700000Y-107385000D03*
X157700000Y-105985000D03*
D33*
X169350000Y-98965000D03*
X169350000Y-100235000D03*
X169350000Y-101505000D03*
X169350000Y-102775000D03*
X169350000Y-104045000D03*
X169350000Y-105315000D03*
X169350000Y-106585000D03*
X169350000Y-107855000D03*
X169350000Y-109125000D03*
X169350000Y-110395000D03*
X169350000Y-111665000D03*
X169350000Y-112935000D03*
X169350000Y-114205000D03*
X169350000Y-115475000D03*
D34*
X167585000Y-116725000D03*
X166315000Y-116725000D03*
X165045000Y-116725000D03*
X163775000Y-116725000D03*
X162505000Y-116725000D03*
X161235000Y-116725000D03*
X159965000Y-116725000D03*
X158695000Y-116725000D03*
X157425000Y-116725000D03*
X156155000Y-116725000D03*
X154885000Y-116725000D03*
X153615000Y-116725000D03*
D33*
X151850000Y-115475000D03*
X151850000Y-114205000D03*
X151850000Y-112935000D03*
X151850000Y-111665000D03*
X151850000Y-110395000D03*
X151850000Y-109125000D03*
X151850000Y-107855000D03*
X151850000Y-106585000D03*
X151850000Y-105315000D03*
X151850000Y-104045000D03*
X151850000Y-102775000D03*
X151850000Y-101505000D03*
X151850000Y-100235000D03*
X151850000Y-98965000D03*
%TD*%
D35*
%TO.C,R82*%
X150160000Y-109700000D03*
X149140000Y-109700000D03*
%TD*%
D36*
%TO.C,SW3*%
X167500000Y-120175000D03*
X171600000Y-120175000D03*
X167500000Y-121775000D03*
X171600000Y-121775000D03*
%TD*%
D23*
%TO.C,R9*%
X155575000Y-126500000D03*
X153925000Y-126500000D03*
%TD*%
D26*
%TO.C,C3*%
X150575000Y-128050000D03*
X147625000Y-128050000D03*
%TD*%
D29*
%TO.C,R34*%
X171870000Y-103030000D03*
X171870000Y-104050000D03*
%TD*%
D28*
%TO.C,D4*%
X161757501Y-119900000D03*
X163332501Y-119900000D03*
%TD*%
D27*
%TO.C,R1*%
X165550000Y-127175000D03*
X165550000Y-125525000D03*
%TD*%
D24*
%TO.C,C46*%
X170920000Y-103070000D03*
X170920000Y-104030000D03*
%TD*%
D30*
%TO.C,C22*%
X148050000Y-120425000D03*
X148050000Y-121975000D03*
%TD*%
D29*
%TO.C,R33*%
X171870000Y-106475000D03*
X171870000Y-105455000D03*
%TD*%
D33*
%TO.C,IC3*%
X152450000Y-119650000D03*
X152450000Y-122950000D03*
X157350000Y-122950000D03*
X157350000Y-119650000D03*
%TD*%
D37*
%TO.C,Q4*%
X153465000Y-133795000D03*
D21*
X155370000Y-130245000D03*
X154100000Y-130245000D03*
X152830000Y-130245000D03*
X151560000Y-130245000D03*
%TD*%
%TO.C,Q6*%
X138125000Y-130710000D03*
X139395000Y-130710000D03*
X140665000Y-130710000D03*
X141935000Y-130710000D03*
D37*
X140030000Y-134260000D03*
%TD*%
D20*
%TO.C,Q5*%
X145705000Y-132145000D03*
D21*
X143800000Y-135695000D03*
X145070000Y-135695000D03*
X146340000Y-135695000D03*
X147610000Y-135695000D03*
%TD*%
D28*
%TO.C,D3*%
X163345001Y-123100000D03*
X161770001Y-123100000D03*
%TD*%
D38*
%TO.C,R40*%
X149522772Y-123873824D03*
X149522772Y-125523824D03*
%TD*%
D29*
%TO.C,R36*%
X171950000Y-115999999D03*
X171950000Y-117019999D03*
%TD*%
D20*
%TO.C,Q1*%
X166305000Y-131750000D03*
D21*
X164400000Y-135300000D03*
X165670000Y-135300000D03*
X166940000Y-135300000D03*
X168210000Y-135300000D03*
%TD*%
D39*
%TO.C,C32*%
X170900000Y-107400000D03*
X170900000Y-108360000D03*
%TD*%
D40*
%TO.C,C70*%
X148280000Y-109700000D03*
X147320000Y-109700000D03*
%TD*%
D37*
%TO.C,Q2*%
X172005000Y-133795000D03*
D21*
X173910000Y-130245000D03*
X172640000Y-130245000D03*
X171370000Y-130245000D03*
X170100000Y-130245000D03*
%TD*%
D30*
%TO.C,C36*%
X146130000Y-116800000D03*
X146130000Y-118350000D03*
%TD*%
D41*
%TO.C,D2*%
X174397501Y-123300000D03*
X175972501Y-123300000D03*
%TD*%
D24*
%TO.C,C47*%
X170920000Y-101200000D03*
X170920000Y-102160000D03*
%TD*%
D25*
%TO.C,R32*%
X148200000Y-105475000D03*
X149220000Y-105475000D03*
%TD*%
D42*
%TO.C,J14*%
X140835000Y-99120000D03*
D43*
X140835000Y-103300000D03*
D42*
X149475000Y-99120000D03*
D43*
X149475000Y-103300000D03*
D44*
X148355000Y-103875000D03*
X147555000Y-103875000D03*
D45*
X146905000Y-103875000D03*
X145905000Y-103875000D03*
X144405000Y-103875000D03*
X143405000Y-103875000D03*
D44*
X142755000Y-103875000D03*
X141955000Y-103875000D03*
X141955000Y-103875000D03*
X142755000Y-103875000D03*
D45*
X143905000Y-103875000D03*
X144905000Y-103875000D03*
X145405000Y-103875000D03*
X146405000Y-103875000D03*
D44*
X147555000Y-103875000D03*
X148355000Y-103875000D03*
D46*
X142265000Y-102800000D03*
X148045000Y-102800000D03*
%TD*%
D28*
%TO.C,D5*%
X163332501Y-121500000D03*
X161757501Y-121500000D03*
%TD*%
D47*
%TO.C,SW1*%
X147930000Y-115050000D03*
X147930000Y-110950000D03*
X149530000Y-115050000D03*
X149530000Y-110950000D03*
%TD*%
D35*
%TO.C,R38*%
X159535001Y-119900000D03*
X160555001Y-119900000D03*
%TD*%
D48*
%TO.C,C2*%
X152525000Y-128400000D03*
X155475000Y-128400000D03*
%TD*%
D49*
%TO.C,R30*%
X171875000Y-107365000D03*
X171875000Y-108385000D03*
%TD*%
D35*
%TO.C,R42*%
X160615000Y-121500000D03*
X159595000Y-121500000D03*
%TD*%
%TO.C,R37*%
X160620000Y-123100000D03*
X159600000Y-123100000D03*
%TD*%
D30*
%TO.C,C34*%
X143180000Y-116800000D03*
X143180000Y-118350000D03*
%TD*%
M02*
