%TF.GenerationSoftware,KiCad,Pcbnew,7.0.7*%
%TF.CreationDate,2023-10-21T19:04:04-04:00*%
%TF.ProjectId,xESC2,78455343-322e-46b6-9963-61645f706362,rev?*%
%TF.SameCoordinates,Original*%
%TF.FileFunction,Legend,Top*%
%TF.FilePolarity,Positive*%
%FSLAX46Y46*%
G04 Gerber Fmt 4.6, Leading zero omitted, Abs format (unit mm)*
G04 Created by KiCad (PCBNEW 7.0.7) date 2023-10-21 19:04:04*
%MOMM*%
%LPD*%
G01*
G04 APERTURE LIST*
G04 Aperture macros list*
%AMRoundRect*
0 Rectangle with rounded corners*
0 $1 Rounding radius*
0 $2 $3 $4 $5 $6 $7 $8 $9 X,Y pos of 4 corners*
0 Add a 4 corners polygon primitive as box body*
4,1,4,$2,$3,$4,$5,$6,$7,$8,$9,$2,$3,0*
0 Add four circle primitives for the rounded corners*
1,1,$1+$1,$2,$3*
1,1,$1+$1,$4,$5*
1,1,$1+$1,$6,$7*
1,1,$1+$1,$8,$9*
0 Add four rect primitives between the rounded corners*
20,1,$1+$1,$2,$3,$4,$5,0*
20,1,$1+$1,$4,$5,$6,$7,0*
20,1,$1+$1,$6,$7,$8,$9,0*
20,1,$1+$1,$8,$9,$2,$3,0*%
%AMFreePoly0*
4,1,17,2.675000,1.605000,1.875000,1.605000,1.875000,0.935000,2.675000,0.935000,2.675000,0.335000,1.875000,0.335000,1.875000,-0.335000,2.675000,-0.335000,2.675000,-0.935000,1.875000,-0.935000,1.875000,-1.605000,2.675000,-1.605000,2.675000,-2.205000,-1.875000,-2.205000,-1.875000,2.205000,2.675000,2.205000,2.675000,1.605000,2.675000,1.605000,$1*%
G04 Aperture macros list end*
%ADD10C,0.200000*%
%ADD11C,0.150000*%
%ADD12C,0.120000*%
%ADD13RoundRect,0.250000X0.475000X-0.250000X0.475000X0.250000X-0.475000X0.250000X-0.475000X-0.250000X0*%
%ADD14C,3.800000*%
%ADD15C,2.600000*%
%ADD16RoundRect,0.218750X-0.218750X-0.256250X0.218750X-0.256250X0.218750X0.256250X-0.218750X0.256250X0*%
%ADD17RoundRect,0.200000X0.200000X0.275000X-0.200000X0.275000X-0.200000X-0.275000X0.200000X-0.275000X0*%
%ADD18RoundRect,0.200000X-0.200000X-0.275000X0.200000X-0.275000X0.200000X0.275000X-0.200000X0.275000X0*%
%ADD19RoundRect,0.218750X0.218750X0.256250X-0.218750X0.256250X-0.218750X-0.256250X0.218750X-0.256250X0*%
%ADD20R,1.700000X1.700000*%
%ADD21O,1.700000X1.700000*%
%ADD22R,3.800000X3.800000*%
%ADD23C,4.000000*%
%ADD24RoundRect,0.249999X0.650001X-0.325001X0.650001X0.325001X-0.650001X0.325001X-0.650001X-0.325001X0*%
%ADD25FreePoly0,180.000000*%
%ADD26R,0.850000X0.500000*%
%ADD27R,1.000000X0.900000*%
%ADD28R,0.900000X1.500000*%
%ADD29R,1.500000X0.900000*%
%ADD30R,0.900000X0.900000*%
%ADD31C,0.650000*%
%ADD32R,0.600000X1.150000*%
%ADD33R,0.300000X1.150000*%
%ADD34O,1.000000X2.100000*%
%ADD35O,1.000000X1.800000*%
%ADD36RoundRect,0.200000X0.275000X-0.200000X0.275000X0.200000X-0.275000X0.200000X-0.275000X-0.200000X0*%
%ADD37R,1.050000X0.450000*%
%ADD38R,1.470000X0.895000*%
G04 APERTURE END LIST*
D10*
G36*
X249564265Y-130222314D02*
G01*
X249413178Y-130222314D01*
X249488721Y-129995683D01*
X249564265Y-130222314D01*
G37*
G36*
X252369541Y-130808028D02*
G01*
X248317292Y-130808028D01*
X248317292Y-130579457D01*
X248445863Y-130579457D01*
X248464961Y-130638236D01*
X248514961Y-130674563D01*
X248576765Y-130674563D01*
X248626765Y-130638236D01*
X248636057Y-130609636D01*
X249093383Y-130609636D01*
X249129330Y-130659910D01*
X249187962Y-130679455D01*
X249246884Y-130660803D01*
X249283589Y-130611080D01*
X249346511Y-130422314D01*
X249630931Y-130422314D01*
X249693853Y-130611079D01*
X249730558Y-130660803D01*
X249789480Y-130679454D01*
X249848112Y-130659910D01*
X249884059Y-130609636D01*
X249883589Y-130547834D01*
X249836987Y-130408028D01*
X249988721Y-130408028D01*
X249995844Y-130429951D01*
X249999278Y-130452749D01*
X250042135Y-130538463D01*
X250053508Y-130550010D01*
X250060867Y-130564453D01*
X250103725Y-130607310D01*
X250118166Y-130614668D01*
X250129715Y-130626043D01*
X250215428Y-130668900D01*
X250238226Y-130672333D01*
X250260150Y-130679457D01*
X250431578Y-130679457D01*
X250453501Y-130672333D01*
X250476299Y-130668900D01*
X250562014Y-130626043D01*
X250573562Y-130614668D01*
X250588005Y-130607310D01*
X250615857Y-130579457D01*
X250931578Y-130579457D01*
X250936472Y-130594519D01*
X250936472Y-130610359D01*
X250945781Y-130623172D01*
X250950676Y-130638236D01*
X250963489Y-130647545D01*
X250972799Y-130660359D01*
X250987862Y-130665253D01*
X251000676Y-130674563D01*
X251016515Y-130674563D01*
X251031578Y-130679457D01*
X251460150Y-130679457D01*
X251518929Y-130660359D01*
X251555256Y-130610359D01*
X251555256Y-130548555D01*
X251518929Y-130498555D01*
X251460150Y-130479457D01*
X251131578Y-130479457D01*
X251131578Y-129710359D01*
X251536472Y-129710359D01*
X251572799Y-129760359D01*
X251631578Y-129779457D01*
X251788721Y-129779457D01*
X251788721Y-130579457D01*
X251807819Y-130638236D01*
X251857819Y-130674563D01*
X251919623Y-130674563D01*
X251969623Y-130638236D01*
X251988721Y-130579457D01*
X251988721Y-129779457D01*
X252145864Y-129779457D01*
X252204643Y-129760359D01*
X252240970Y-129710359D01*
X252240970Y-129648555D01*
X252204643Y-129598555D01*
X252145864Y-129579457D01*
X251631578Y-129579457D01*
X251572799Y-129598555D01*
X251536472Y-129648555D01*
X251536472Y-129710359D01*
X251131578Y-129710359D01*
X251131578Y-129679457D01*
X251112480Y-129620678D01*
X251062480Y-129584351D01*
X251000676Y-129584351D01*
X250950676Y-129620678D01*
X250931578Y-129679457D01*
X250931578Y-130579457D01*
X250615857Y-130579457D01*
X250630862Y-130564452D01*
X250638220Y-130550009D01*
X250649593Y-130538463D01*
X250692450Y-130452750D01*
X250695883Y-130429951D01*
X250703007Y-130408028D01*
X250703007Y-129679457D01*
X250683909Y-129620678D01*
X250633909Y-129584351D01*
X250572105Y-129584351D01*
X250522105Y-129620678D01*
X250503007Y-129679457D01*
X250503007Y-130384420D01*
X250477963Y-130434507D01*
X250458056Y-130454414D01*
X250407971Y-130479457D01*
X250283757Y-130479457D01*
X250233671Y-130454414D01*
X250213764Y-130434506D01*
X250188721Y-130384420D01*
X250188721Y-129679457D01*
X250169623Y-129620678D01*
X250119623Y-129584351D01*
X250057819Y-129584351D01*
X250007819Y-129620678D01*
X249988721Y-129679457D01*
X249988721Y-130408028D01*
X249836987Y-130408028D01*
X249583589Y-129647834D01*
X249565666Y-129623555D01*
X249548112Y-129599004D01*
X249547357Y-129598752D01*
X249546884Y-129598111D01*
X249518058Y-129588986D01*
X249489480Y-129579460D01*
X249488722Y-129579699D01*
X249487962Y-129579459D01*
X249459323Y-129589005D01*
X249430558Y-129598111D01*
X249430084Y-129598752D01*
X249429330Y-129599004D01*
X249411763Y-129623571D01*
X249393853Y-129647835D01*
X249093853Y-130547834D01*
X249093383Y-130609636D01*
X248636057Y-130609636D01*
X248645863Y-130579457D01*
X248645863Y-130208028D01*
X248845863Y-130208028D01*
X248904642Y-130188930D01*
X248940969Y-130138930D01*
X248940969Y-130077126D01*
X248904642Y-130027126D01*
X248845863Y-130008028D01*
X248645863Y-130008028D01*
X248645863Y-129779457D01*
X248974435Y-129779457D01*
X249033214Y-129760359D01*
X249069541Y-129710359D01*
X249069541Y-129648555D01*
X249033214Y-129598555D01*
X248974435Y-129579457D01*
X248545863Y-129579457D01*
X248530800Y-129584351D01*
X248514961Y-129584351D01*
X248502147Y-129593660D01*
X248487084Y-129598555D01*
X248477774Y-129611368D01*
X248464961Y-129620678D01*
X248460066Y-129635741D01*
X248450757Y-129648555D01*
X248450756Y-129664394D01*
X248445863Y-129679457D01*
X248445863Y-130579457D01*
X248317292Y-130579457D01*
X248317292Y-129450886D01*
X252369541Y-129450886D01*
X252369541Y-130808028D01*
G37*
G36*
X227238797Y-122507588D02*
G01*
X227302976Y-122571767D01*
X227332780Y-122631374D01*
X227332780Y-122774637D01*
X227302976Y-122834244D01*
X227238796Y-122898424D01*
X227087137Y-122936339D01*
X226778423Y-122936339D01*
X226626764Y-122898424D01*
X226562583Y-122834243D01*
X226532780Y-122774637D01*
X226532780Y-122631374D01*
X226562583Y-122571768D01*
X226626764Y-122507587D01*
X226778423Y-122469673D01*
X227087137Y-122469673D01*
X227238797Y-122507588D01*
G37*
G36*
X227238797Y-121459969D02*
G01*
X227302975Y-121524147D01*
X227332780Y-121583756D01*
X227332780Y-121727018D01*
X227302976Y-121786625D01*
X227238797Y-121850804D01*
X227087137Y-121888720D01*
X226778423Y-121888720D01*
X226626764Y-121850805D01*
X226562583Y-121786624D01*
X226532780Y-121727018D01*
X226532780Y-121583755D01*
X226562583Y-121524149D01*
X226626764Y-121459968D01*
X226778423Y-121422054D01*
X227087137Y-121422054D01*
X227238797Y-121459969D01*
G37*
G36*
X226856589Y-120686779D02*
G01*
X226821568Y-120791844D01*
X226802116Y-120811295D01*
X226742507Y-120841101D01*
X226646864Y-120841101D01*
X226587254Y-120811296D01*
X226562583Y-120786625D01*
X226532780Y-120727018D01*
X226532780Y-120469673D01*
X226856590Y-120469673D01*
X226856589Y-120686779D01*
G37*
G36*
X227332780Y-120679399D02*
G01*
X227302975Y-120739008D01*
X227278306Y-120763676D01*
X227218697Y-120793482D01*
X227170673Y-120793482D01*
X227111063Y-120763677D01*
X227086395Y-120739008D01*
X227056590Y-120679398D01*
X227056590Y-120469673D01*
X227332780Y-120469673D01*
X227332780Y-120679399D01*
G37*
G36*
X227675637Y-124131445D02*
G01*
X226189923Y-124131445D01*
X226189923Y-123638670D01*
X226337674Y-123638670D01*
X226374001Y-123688670D01*
X226432780Y-123707768D01*
X227332780Y-123707768D01*
X227332780Y-123893482D01*
X227351878Y-123952261D01*
X227401878Y-123988588D01*
X227463682Y-123988588D01*
X227513682Y-123952261D01*
X227532780Y-123893482D01*
X227532780Y-123322054D01*
X227513682Y-123263275D01*
X227463682Y-123226948D01*
X227401878Y-123226948D01*
X227351878Y-123263275D01*
X227332780Y-123322054D01*
X227332780Y-123507768D01*
X226432780Y-123507768D01*
X226374001Y-123526866D01*
X226337674Y-123576866D01*
X226337674Y-123638670D01*
X226189923Y-123638670D01*
X226189923Y-122798244D01*
X226332780Y-122798244D01*
X226339904Y-122820170D01*
X226343338Y-122842966D01*
X226390958Y-122938204D01*
X226402330Y-122949750D01*
X226409689Y-122964193D01*
X226504927Y-123059431D01*
X226528735Y-123071561D01*
X226551384Y-123085734D01*
X226741860Y-123133353D01*
X226754276Y-123132492D01*
X226766114Y-123136339D01*
X227099447Y-123136339D01*
X227111284Y-123132492D01*
X227123701Y-123133353D01*
X227314176Y-123085734D01*
X227336824Y-123071562D01*
X227360634Y-123059431D01*
X227455872Y-122964193D01*
X227463230Y-122949750D01*
X227474604Y-122938203D01*
X227522223Y-122842966D01*
X227525656Y-122820167D01*
X227532780Y-122798244D01*
X227532780Y-122607768D01*
X227525656Y-122585844D01*
X227522223Y-122563046D01*
X227474604Y-122467809D01*
X227463230Y-122456261D01*
X227455872Y-122441819D01*
X227360634Y-122346581D01*
X227336824Y-122334449D01*
X227314176Y-122320278D01*
X227123701Y-122272659D01*
X227111284Y-122273519D01*
X227099447Y-122269673D01*
X226766114Y-122269673D01*
X226754276Y-122273519D01*
X226741860Y-122272659D01*
X226551384Y-122320278D01*
X226528735Y-122334450D01*
X226504927Y-122346581D01*
X226409689Y-122441819D01*
X226402330Y-122456261D01*
X226390958Y-122467808D01*
X226343338Y-122563046D01*
X226339904Y-122585841D01*
X226332780Y-122607768D01*
X226332780Y-122798244D01*
X226189923Y-122798244D01*
X226189923Y-121750625D01*
X226332780Y-121750625D01*
X226339904Y-121772551D01*
X226343338Y-121795347D01*
X226390958Y-121890585D01*
X226402330Y-121902131D01*
X226409689Y-121916574D01*
X226504927Y-122011812D01*
X226528735Y-122023942D01*
X226551384Y-122038115D01*
X226741860Y-122085734D01*
X226754276Y-122084873D01*
X226766114Y-122088720D01*
X227099447Y-122088720D01*
X227111284Y-122084873D01*
X227123701Y-122085734D01*
X227314176Y-122038115D01*
X227336824Y-122023943D01*
X227360634Y-122011812D01*
X227455872Y-121916574D01*
X227463230Y-121902131D01*
X227474604Y-121890584D01*
X227522223Y-121795347D01*
X227525656Y-121772548D01*
X227532780Y-121750625D01*
X227532780Y-121560149D01*
X227525656Y-121538225D01*
X227522223Y-121515427D01*
X227474604Y-121420190D01*
X227463230Y-121408642D01*
X227455872Y-121394200D01*
X227360634Y-121298962D01*
X227336824Y-121286830D01*
X227314176Y-121272659D01*
X227123701Y-121225040D01*
X227111284Y-121225900D01*
X227099447Y-121222054D01*
X226766114Y-121222054D01*
X226754276Y-121225900D01*
X226741860Y-121225040D01*
X226551384Y-121272659D01*
X226528735Y-121286831D01*
X226504927Y-121298962D01*
X226409689Y-121394200D01*
X226402330Y-121408642D01*
X226390958Y-121420189D01*
X226343338Y-121515427D01*
X226339904Y-121538222D01*
X226332780Y-121560149D01*
X226332780Y-121750625D01*
X226189923Y-121750625D01*
X226189923Y-120750625D01*
X226332780Y-120750625D01*
X226339904Y-120772551D01*
X226343338Y-120795347D01*
X226390958Y-120890585D01*
X226402330Y-120902131D01*
X226409689Y-120916574D01*
X226457308Y-120964192D01*
X226471749Y-120971550D01*
X226483298Y-120982925D01*
X226578535Y-121030544D01*
X226601333Y-121033977D01*
X226623257Y-121041101D01*
X226766114Y-121041101D01*
X226788037Y-121033977D01*
X226810835Y-121030544D01*
X226906073Y-120982925D01*
X226917620Y-120971551D01*
X226932063Y-120964193D01*
X226979681Y-120916574D01*
X226980166Y-120915622D01*
X226981117Y-120916573D01*
X226995558Y-120923931D01*
X227007107Y-120935306D01*
X227102344Y-120982925D01*
X227125142Y-120986358D01*
X227147066Y-120993482D01*
X227242304Y-120993482D01*
X227264227Y-120986358D01*
X227287025Y-120982925D01*
X227382263Y-120935306D01*
X227393810Y-120923932D01*
X227408253Y-120916574D01*
X227455871Y-120868955D01*
X227463229Y-120854513D01*
X227474604Y-120842965D01*
X227522223Y-120747728D01*
X227525656Y-120724929D01*
X227532780Y-120703006D01*
X227532780Y-120369673D01*
X227527886Y-120354610D01*
X227527886Y-120338771D01*
X227518576Y-120325957D01*
X227513682Y-120310894D01*
X227500868Y-120301584D01*
X227491559Y-120288771D01*
X227476495Y-120283876D01*
X227463682Y-120274567D01*
X227447843Y-120274567D01*
X227432780Y-120269673D01*
X226432780Y-120269673D01*
X226417717Y-120274567D01*
X226401878Y-120274567D01*
X226389064Y-120283876D01*
X226374001Y-120288771D01*
X226364691Y-120301584D01*
X226351878Y-120310894D01*
X226346983Y-120325957D01*
X226337674Y-120338771D01*
X226337674Y-120354610D01*
X226332780Y-120369673D01*
X226332780Y-120750625D01*
X226189923Y-120750625D01*
X226189923Y-120126816D01*
X227675637Y-120126816D01*
X227675637Y-124131445D01*
G37*
G36*
X243698344Y-132608028D02*
G01*
X241874931Y-132608028D01*
X241874931Y-131898078D01*
X242003502Y-131898078D01*
X242009498Y-131925602D01*
X242013905Y-131953427D01*
X242016020Y-131955542D01*
X242016657Y-131958465D01*
X242037687Y-131977209D01*
X242057607Y-131997129D01*
X242060561Y-131997596D01*
X242062794Y-131999587D01*
X242090826Y-132002390D01*
X242118649Y-132006797D01*
X242121313Y-132005439D01*
X242124291Y-132005737D01*
X242148619Y-131991526D01*
X242173717Y-131978739D01*
X242205099Y-131947356D01*
X242255185Y-131922314D01*
X242422256Y-131922314D01*
X242472341Y-131947356D01*
X242492250Y-131967265D01*
X242517292Y-132017349D01*
X242517292Y-132184421D01*
X242492249Y-132234506D01*
X242472341Y-132254414D01*
X242422256Y-132279457D01*
X242255185Y-132279457D01*
X242205100Y-132254415D01*
X242173718Y-132223032D01*
X242118650Y-132194973D01*
X242057608Y-132204640D01*
X242013905Y-132248342D01*
X242004236Y-132309384D01*
X242032294Y-132364452D01*
X242075152Y-132407310D01*
X242089592Y-132414668D01*
X242101142Y-132426043D01*
X242186857Y-132468900D01*
X242209654Y-132472333D01*
X242231578Y-132479457D01*
X242445863Y-132479457D01*
X242467786Y-132472333D01*
X242490584Y-132468900D01*
X242576299Y-132426043D01*
X242587847Y-132414668D01*
X242602290Y-132407310D01*
X242645147Y-132364452D01*
X242652505Y-132350009D01*
X242663878Y-132338463D01*
X242706735Y-132252750D01*
X242710168Y-132229951D01*
X242717292Y-132208028D01*
X242717292Y-131993742D01*
X242710168Y-131971818D01*
X242706735Y-131949020D01*
X242663878Y-131863307D01*
X242652504Y-131851759D01*
X242645146Y-131837317D01*
X242602289Y-131794460D01*
X242587846Y-131787101D01*
X242576299Y-131775728D01*
X242490584Y-131732871D01*
X242467786Y-131729437D01*
X242445863Y-131722314D01*
X242231578Y-131722314D01*
X242221757Y-131725504D01*
X242236362Y-131579457D01*
X242574435Y-131579457D01*
X242633214Y-131560359D01*
X242669541Y-131510359D01*
X242669541Y-131449278D01*
X242779097Y-131449278D01*
X242779567Y-131511080D01*
X243079567Y-132411079D01*
X243097477Y-132435342D01*
X243115044Y-132459910D01*
X243115798Y-132460161D01*
X243116272Y-132460803D01*
X243145037Y-132469908D01*
X243173676Y-132479455D01*
X243174436Y-132479214D01*
X243175194Y-132479454D01*
X243203772Y-132469927D01*
X243232598Y-132460803D01*
X243233071Y-132460161D01*
X243233826Y-132459910D01*
X243251380Y-132435358D01*
X243269303Y-132411080D01*
X243569303Y-131511080D01*
X243569773Y-131449278D01*
X243533826Y-131399004D01*
X243475194Y-131379460D01*
X243416272Y-131398111D01*
X243379567Y-131447835D01*
X243174435Y-132063230D01*
X242969303Y-131447834D01*
X242932598Y-131398111D01*
X242873676Y-131379459D01*
X242815044Y-131399004D01*
X242779097Y-131449278D01*
X242669541Y-131449278D01*
X242669541Y-131448555D01*
X242633214Y-131398555D01*
X242574435Y-131379457D01*
X242145863Y-131379457D01*
X242135462Y-131382836D01*
X242124578Y-131381748D01*
X242106733Y-131392170D01*
X242087084Y-131398555D01*
X242080656Y-131407402D01*
X242071211Y-131412919D01*
X242062901Y-131431839D01*
X242050757Y-131448555D01*
X242050757Y-131459491D01*
X242046359Y-131469506D01*
X242003502Y-131898078D01*
X241874931Y-131898078D01*
X241874931Y-131250886D01*
X243698344Y-131250886D01*
X243698344Y-132608028D01*
G37*
G36*
X243734058Y-130958026D02*
G01*
X241867292Y-130958026D01*
X241867292Y-130729457D01*
X241995863Y-130729457D01*
X242014961Y-130788236D01*
X242064961Y-130824563D01*
X242126765Y-130824563D01*
X242176765Y-130788236D01*
X242195863Y-130729457D01*
X242195863Y-130358028D01*
X242510149Y-130358028D01*
X242510149Y-130729457D01*
X242529247Y-130788236D01*
X242579247Y-130824563D01*
X242641051Y-130824563D01*
X242691051Y-130788236D01*
X242710149Y-130729457D01*
X242710149Y-129829457D01*
X242700343Y-129799278D01*
X242814811Y-129799278D01*
X242815281Y-129861080D01*
X243115281Y-130761079D01*
X243133191Y-130785342D01*
X243150758Y-130809910D01*
X243151512Y-130810161D01*
X243151986Y-130810803D01*
X243180751Y-130819908D01*
X243209390Y-130829455D01*
X243210150Y-130829214D01*
X243210908Y-130829454D01*
X243239486Y-130819927D01*
X243268312Y-130810803D01*
X243268785Y-130810161D01*
X243269540Y-130809910D01*
X243287094Y-130785358D01*
X243305017Y-130761080D01*
X243605017Y-129861080D01*
X243605487Y-129799278D01*
X243569540Y-129749004D01*
X243510908Y-129729460D01*
X243451986Y-129748111D01*
X243415281Y-129797835D01*
X243210149Y-130413230D01*
X243005017Y-129797834D01*
X242968312Y-129748111D01*
X242909390Y-129729459D01*
X242850758Y-129749004D01*
X242814811Y-129799278D01*
X242700343Y-129799278D01*
X242691051Y-129770678D01*
X242641051Y-129734351D01*
X242579247Y-129734351D01*
X242529247Y-129770678D01*
X242510149Y-129829457D01*
X242510149Y-130158028D01*
X242195863Y-130158028D01*
X242195863Y-129829457D01*
X242176765Y-129770678D01*
X242126765Y-129734351D01*
X242064961Y-129734351D01*
X242014961Y-129770678D01*
X241995863Y-129829457D01*
X241995863Y-130729457D01*
X241867292Y-130729457D01*
X241867292Y-129600888D01*
X243734058Y-129600888D01*
X243734058Y-130958026D01*
G37*
G36*
X228617291Y-131008028D02*
G01*
X225717292Y-131008028D01*
X225717292Y-130779457D01*
X225845863Y-130779457D01*
X225864961Y-130838236D01*
X225914961Y-130874563D01*
X225976765Y-130874563D01*
X226026765Y-130838236D01*
X226045863Y-130779457D01*
X226045863Y-130330213D01*
X226155245Y-130564603D01*
X226168339Y-130578636D01*
X226177641Y-130595429D01*
X226188917Y-130600691D01*
X226197408Y-130609791D01*
X226216255Y-130613448D01*
X226233647Y-130621565D01*
X226245860Y-130619194D01*
X226258079Y-130621566D01*
X226275475Y-130613447D01*
X226294318Y-130609791D01*
X226302806Y-130600693D01*
X226314085Y-130595430D01*
X226323387Y-130578635D01*
X226336481Y-130564603D01*
X226445863Y-130330212D01*
X226445863Y-130779457D01*
X226464961Y-130838236D01*
X226514961Y-130874563D01*
X226576765Y-130874563D01*
X226626765Y-130838236D01*
X226645863Y-130779457D01*
X226645863Y-130393742D01*
X226831577Y-130393742D01*
X226835423Y-130405579D01*
X226834563Y-130417995D01*
X226877420Y-130589425D01*
X226883331Y-130598871D01*
X226884991Y-130609892D01*
X226927848Y-130695606D01*
X226939221Y-130707153D01*
X226946580Y-130721596D01*
X227032295Y-130807310D01*
X227052834Y-130817775D01*
X227071383Y-130831468D01*
X227199954Y-130874325D01*
X227216161Y-130874448D01*
X227231577Y-130879457D01*
X227317291Y-130879457D01*
X227332706Y-130874448D01*
X227348914Y-130874325D01*
X227477486Y-130831468D01*
X227496032Y-130817776D01*
X227516575Y-130807310D01*
X227559432Y-130764452D01*
X227587490Y-130709384D01*
X227577821Y-130648342D01*
X227537506Y-130608028D01*
X227774434Y-130608028D01*
X227781557Y-130629951D01*
X227784991Y-130652749D01*
X227827848Y-130738463D01*
X227839221Y-130750010D01*
X227846580Y-130764453D01*
X227889438Y-130807310D01*
X227903879Y-130814668D01*
X227915428Y-130826043D01*
X228001141Y-130868900D01*
X228023939Y-130872333D01*
X228045863Y-130879457D01*
X228217291Y-130879457D01*
X228239214Y-130872333D01*
X228262012Y-130868900D01*
X228347727Y-130826043D01*
X228359275Y-130814668D01*
X228373718Y-130807310D01*
X228416575Y-130764452D01*
X228423933Y-130750009D01*
X228435306Y-130738463D01*
X228478163Y-130652750D01*
X228481596Y-130629951D01*
X228488720Y-130608028D01*
X228488720Y-129879457D01*
X228469622Y-129820678D01*
X228419622Y-129784351D01*
X228357818Y-129784351D01*
X228307818Y-129820678D01*
X228288720Y-129879457D01*
X228288720Y-130584421D01*
X228263677Y-130634507D01*
X228243769Y-130654414D01*
X228193684Y-130679457D01*
X228069470Y-130679457D01*
X228019384Y-130654414D01*
X227999477Y-130634506D01*
X227974434Y-130584420D01*
X227974434Y-129879457D01*
X227955336Y-129820678D01*
X227905336Y-129784351D01*
X227843532Y-129784351D01*
X227793532Y-129820678D01*
X227774434Y-129879457D01*
X227774434Y-130608028D01*
X227537506Y-130608028D01*
X227534118Y-130604640D01*
X227473076Y-130594973D01*
X227418009Y-130623032D01*
X227391844Y-130649196D01*
X227301064Y-130679457D01*
X227247804Y-130679457D01*
X227157024Y-130649197D01*
X227099476Y-130591649D01*
X227068784Y-130530265D01*
X227031577Y-130381433D01*
X227031577Y-130277479D01*
X227068784Y-130128647D01*
X227099477Y-130067262D01*
X227157024Y-130009716D01*
X227247804Y-129979457D01*
X227301064Y-129979457D01*
X227391844Y-130009717D01*
X227418009Y-130035882D01*
X227473077Y-130063940D01*
X227534119Y-130054272D01*
X227577821Y-130010570D01*
X227587489Y-129949528D01*
X227559431Y-129894460D01*
X227516574Y-129851603D01*
X227496032Y-129841136D01*
X227477486Y-129827446D01*
X227348914Y-129784589D01*
X227332706Y-129784465D01*
X227317291Y-129779457D01*
X227231577Y-129779457D01*
X227216161Y-129784465D01*
X227199954Y-129784589D01*
X227071383Y-129827446D01*
X227052836Y-129841137D01*
X227032296Y-129851603D01*
X226946581Y-129937317D01*
X226939222Y-129951758D01*
X226927848Y-129963307D01*
X226884991Y-130049021D01*
X226883331Y-130060041D01*
X226877420Y-130069488D01*
X226834563Y-130240918D01*
X226835423Y-130253333D01*
X226831577Y-130265171D01*
X226831577Y-130393742D01*
X226645863Y-130393742D01*
X226645863Y-129879457D01*
X226642834Y-129870135D01*
X226644032Y-129860405D01*
X226633487Y-129841369D01*
X226626765Y-129820678D01*
X226618835Y-129814916D01*
X226614085Y-129806341D01*
X226594366Y-129797138D01*
X226576765Y-129784351D01*
X226566963Y-129784351D01*
X226558079Y-129780205D01*
X226536717Y-129784351D01*
X226514961Y-129784351D01*
X226507031Y-129790112D01*
X226497408Y-129791980D01*
X226482564Y-129807888D01*
X226464961Y-129820678D01*
X226461931Y-129830001D01*
X226455245Y-129837168D01*
X226245862Y-130285843D01*
X226036481Y-129837168D01*
X226029794Y-129830001D01*
X226026765Y-129820678D01*
X226009161Y-129807888D01*
X225994318Y-129791980D01*
X225984695Y-129790112D01*
X225976765Y-129784351D01*
X225955006Y-129784351D01*
X225933647Y-129780206D01*
X225924765Y-129784351D01*
X225914961Y-129784351D01*
X225897356Y-129797141D01*
X225877641Y-129806342D01*
X225872891Y-129814916D01*
X225864961Y-129820678D01*
X225858237Y-129841370D01*
X225847694Y-129860405D01*
X225848891Y-129870135D01*
X225845863Y-129879457D01*
X225845863Y-130779457D01*
X225717292Y-130779457D01*
X225717292Y-129650886D01*
X228617291Y-129650886D01*
X228617291Y-131008028D01*
G37*
G36*
X228474435Y-132708028D02*
G01*
X225832808Y-132708028D01*
X225832808Y-132409384D01*
X225961379Y-132409384D01*
X225989437Y-132464452D01*
X226032295Y-132507310D01*
X226046736Y-132514668D01*
X226058285Y-132526043D01*
X226143998Y-132568900D01*
X226166796Y-132572333D01*
X226188720Y-132579457D01*
X226445863Y-132579457D01*
X226467786Y-132572333D01*
X226490584Y-132568900D01*
X226576299Y-132526043D01*
X226587847Y-132514668D01*
X226602290Y-132507310D01*
X226645147Y-132464452D01*
X226652505Y-132450009D01*
X226663878Y-132438463D01*
X226706735Y-132352750D01*
X226710168Y-132329951D01*
X226717292Y-132308028D01*
X226717292Y-132093742D01*
X226710168Y-132071818D01*
X226706735Y-132049020D01*
X226663878Y-131963307D01*
X226652504Y-131951759D01*
X226645146Y-131937317D01*
X226602289Y-131894460D01*
X226587846Y-131887101D01*
X226576299Y-131875728D01*
X226516912Y-131846035D01*
X226692550Y-131645307D01*
X226700510Y-131626720D01*
X226712398Y-131610359D01*
X226712398Y-131598966D01*
X226716883Y-131588495D01*
X226712398Y-131568776D01*
X226712398Y-131549278D01*
X226779097Y-131549278D01*
X226779567Y-131611080D01*
X227079567Y-132511079D01*
X227097477Y-132535342D01*
X227115044Y-132559910D01*
X227115798Y-132560161D01*
X227116272Y-132560803D01*
X227145037Y-132569908D01*
X227173676Y-132579455D01*
X227174436Y-132579214D01*
X227175194Y-132579454D01*
X227203772Y-132569927D01*
X227232598Y-132560803D01*
X227233071Y-132560161D01*
X227233826Y-132559910D01*
X227251380Y-132535358D01*
X227269303Y-132511080D01*
X227303202Y-132409384D01*
X227589951Y-132409384D01*
X227618009Y-132464452D01*
X227660867Y-132507310D01*
X227675308Y-132514668D01*
X227686857Y-132526043D01*
X227772570Y-132568900D01*
X227795368Y-132572333D01*
X227817292Y-132579457D01*
X228074435Y-132579457D01*
X228096358Y-132572333D01*
X228119156Y-132568900D01*
X228204871Y-132526043D01*
X228216419Y-132514668D01*
X228230862Y-132507310D01*
X228273719Y-132464452D01*
X228281077Y-132450009D01*
X228292450Y-132438463D01*
X228335307Y-132352750D01*
X228338740Y-132329951D01*
X228345864Y-132308028D01*
X228345864Y-132093742D01*
X228338740Y-132071818D01*
X228335307Y-132049020D01*
X228292450Y-131963307D01*
X228281076Y-131951759D01*
X228273718Y-131937317D01*
X228230861Y-131894460D01*
X228216418Y-131887101D01*
X228204871Y-131875728D01*
X228145484Y-131846035D01*
X228321122Y-131645307D01*
X228329082Y-131626720D01*
X228340970Y-131610359D01*
X228340969Y-131598966D01*
X228345455Y-131588495D01*
X228340970Y-131568776D01*
X228340970Y-131548555D01*
X228334274Y-131539339D01*
X228331748Y-131528231D01*
X228316528Y-131514913D01*
X228304643Y-131498555D01*
X228293809Y-131495035D01*
X228285236Y-131487533D01*
X228265093Y-131485704D01*
X228245864Y-131479457D01*
X227688721Y-131479457D01*
X227629942Y-131498555D01*
X227593615Y-131548555D01*
X227593615Y-131610359D01*
X227629942Y-131660359D01*
X227688721Y-131679457D01*
X228025487Y-131679457D01*
X227870606Y-131856464D01*
X227862644Y-131875051D01*
X227850758Y-131891412D01*
X227850758Y-131902803D01*
X227846273Y-131913275D01*
X227850758Y-131932993D01*
X227850758Y-131953216D01*
X227857453Y-131962431D01*
X227859980Y-131973539D01*
X227875198Y-131986855D01*
X227887085Y-132003216D01*
X227897918Y-132006735D01*
X227906492Y-132014238D01*
X227926634Y-132016065D01*
X227945864Y-132022314D01*
X228050828Y-132022314D01*
X228100913Y-132047356D01*
X228120822Y-132067265D01*
X228145864Y-132117348D01*
X228145864Y-132284421D01*
X228120821Y-132334506D01*
X228100913Y-132354414D01*
X228050828Y-132379457D01*
X227840899Y-132379457D01*
X227790815Y-132354415D01*
X227759433Y-132323032D01*
X227704365Y-132294973D01*
X227643323Y-132304640D01*
X227599620Y-132348342D01*
X227589951Y-132409384D01*
X227303202Y-132409384D01*
X227569303Y-131611080D01*
X227569773Y-131549278D01*
X227533826Y-131499004D01*
X227475194Y-131479460D01*
X227416272Y-131498111D01*
X227379567Y-131547835D01*
X227174435Y-132163230D01*
X226969303Y-131547834D01*
X226932598Y-131498111D01*
X226873676Y-131479459D01*
X226815044Y-131499004D01*
X226779097Y-131549278D01*
X226712398Y-131549278D01*
X226712398Y-131548555D01*
X226705702Y-131539339D01*
X226703176Y-131528231D01*
X226687956Y-131514913D01*
X226676071Y-131498555D01*
X226665237Y-131495035D01*
X226656664Y-131487533D01*
X226636521Y-131485704D01*
X226617292Y-131479457D01*
X226060149Y-131479457D01*
X226001370Y-131498555D01*
X225965043Y-131548555D01*
X225965043Y-131610359D01*
X226001370Y-131660359D01*
X226060149Y-131679457D01*
X226396915Y-131679457D01*
X226242034Y-131856464D01*
X226234072Y-131875051D01*
X226222186Y-131891412D01*
X226222185Y-131902803D01*
X226217701Y-131913275D01*
X226222186Y-131932993D01*
X226222186Y-131953216D01*
X226228881Y-131962431D01*
X226231408Y-131973539D01*
X226246626Y-131986855D01*
X226258513Y-132003216D01*
X226269346Y-132006735D01*
X226277920Y-132014238D01*
X226298062Y-132016065D01*
X226317292Y-132022314D01*
X226422256Y-132022314D01*
X226472341Y-132047356D01*
X226492250Y-132067264D01*
X226517292Y-132117349D01*
X226517292Y-132284420D01*
X226492249Y-132334507D01*
X226472341Y-132354414D01*
X226422256Y-132379457D01*
X226212327Y-132379457D01*
X226162243Y-132354415D01*
X226130861Y-132323032D01*
X226075793Y-132294973D01*
X226014751Y-132304640D01*
X225971048Y-132348342D01*
X225961379Y-132409384D01*
X225832808Y-132409384D01*
X225832808Y-131350886D01*
X228474435Y-131350886D01*
X228474435Y-132708028D01*
G37*
G36*
X208198344Y-130808028D02*
G01*
X206332808Y-130808028D01*
X206332808Y-130509384D01*
X206461379Y-130509384D01*
X206489437Y-130564452D01*
X206532295Y-130607310D01*
X206546736Y-130614668D01*
X206558285Y-130626043D01*
X206643998Y-130668900D01*
X206666796Y-130672333D01*
X206688720Y-130679457D01*
X206945863Y-130679457D01*
X206967786Y-130672333D01*
X206990584Y-130668900D01*
X207076299Y-130626043D01*
X207087847Y-130614668D01*
X207102290Y-130607310D01*
X207145147Y-130564452D01*
X207152505Y-130550009D01*
X207163878Y-130538463D01*
X207206735Y-130452750D01*
X207210168Y-130429951D01*
X207217292Y-130408028D01*
X207217292Y-130193742D01*
X207210168Y-130171818D01*
X207206735Y-130149020D01*
X207163878Y-130063307D01*
X207152504Y-130051759D01*
X207145146Y-130037317D01*
X207102289Y-129994460D01*
X207087846Y-129987101D01*
X207076299Y-129975728D01*
X207016912Y-129946035D01*
X207192550Y-129745307D01*
X207200510Y-129726720D01*
X207212398Y-129710359D01*
X207212398Y-129698966D01*
X207216883Y-129688495D01*
X207212398Y-129668776D01*
X207212398Y-129649278D01*
X207279097Y-129649278D01*
X207279567Y-129711080D01*
X207579567Y-130611079D01*
X207597477Y-130635342D01*
X207615044Y-130659910D01*
X207615798Y-130660161D01*
X207616272Y-130660803D01*
X207645037Y-130669908D01*
X207673676Y-130679455D01*
X207674436Y-130679214D01*
X207675194Y-130679454D01*
X207703772Y-130669927D01*
X207732598Y-130660803D01*
X207733071Y-130660161D01*
X207733826Y-130659910D01*
X207751380Y-130635358D01*
X207769303Y-130611080D01*
X208069303Y-129711080D01*
X208069773Y-129649278D01*
X208033826Y-129599004D01*
X207975194Y-129579460D01*
X207916272Y-129598111D01*
X207879567Y-129647835D01*
X207674435Y-130263230D01*
X207469303Y-129647834D01*
X207432598Y-129598111D01*
X207373676Y-129579459D01*
X207315044Y-129599004D01*
X207279097Y-129649278D01*
X207212398Y-129649278D01*
X207212398Y-129648555D01*
X207205702Y-129639339D01*
X207203176Y-129628231D01*
X207187956Y-129614913D01*
X207176071Y-129598555D01*
X207165237Y-129595035D01*
X207156664Y-129587533D01*
X207136521Y-129585704D01*
X207117292Y-129579457D01*
X206560149Y-129579457D01*
X206501370Y-129598555D01*
X206465043Y-129648555D01*
X206465043Y-129710359D01*
X206501370Y-129760359D01*
X206560149Y-129779457D01*
X206896915Y-129779457D01*
X206742034Y-129956464D01*
X206734072Y-129975051D01*
X206722186Y-129991412D01*
X206722185Y-130002803D01*
X206717701Y-130013275D01*
X206722186Y-130032993D01*
X206722186Y-130053216D01*
X206728881Y-130062431D01*
X206731408Y-130073539D01*
X206746626Y-130086855D01*
X206758513Y-130103216D01*
X206769346Y-130106735D01*
X206777920Y-130114238D01*
X206798062Y-130116065D01*
X206817292Y-130122314D01*
X206922256Y-130122314D01*
X206972341Y-130147356D01*
X206992250Y-130167264D01*
X207017292Y-130217348D01*
X207017292Y-130384421D01*
X206992248Y-130434507D01*
X206972341Y-130454414D01*
X206922256Y-130479457D01*
X206712327Y-130479457D01*
X206662243Y-130454415D01*
X206630861Y-130423032D01*
X206575793Y-130394973D01*
X206514751Y-130404640D01*
X206471048Y-130448342D01*
X206461379Y-130509384D01*
X206332808Y-130509384D01*
X206332808Y-129450886D01*
X208198344Y-129450886D01*
X208198344Y-130808028D01*
G37*
G36*
X203188709Y-130808028D02*
G01*
X201274435Y-130808028D01*
X201274435Y-130193742D01*
X201403006Y-130193742D01*
X201406852Y-130205579D01*
X201405992Y-130217995D01*
X201448849Y-130389425D01*
X201454760Y-130398871D01*
X201456420Y-130409892D01*
X201499277Y-130495606D01*
X201510650Y-130507153D01*
X201518009Y-130521596D01*
X201603724Y-130607310D01*
X201624263Y-130617775D01*
X201642812Y-130631468D01*
X201771383Y-130674325D01*
X201787590Y-130674448D01*
X201803006Y-130679457D01*
X201888720Y-130679457D01*
X201904135Y-130674448D01*
X201920343Y-130674325D01*
X202048915Y-130631468D01*
X202067461Y-130617776D01*
X202088004Y-130607310D01*
X202115856Y-130579457D01*
X202345863Y-130579457D01*
X202364961Y-130638236D01*
X202414961Y-130674563D01*
X202476765Y-130674563D01*
X202526765Y-130638236D01*
X202545863Y-130579457D01*
X202545863Y-130235164D01*
X202563615Y-130217411D01*
X202880149Y-130639457D01*
X202930695Y-130675021D01*
X202992491Y-130674083D01*
X203041934Y-130637000D01*
X203060138Y-130577939D01*
X203040149Y-130519457D01*
X202706472Y-130074554D01*
X203030860Y-129750167D01*
X203058919Y-129695100D01*
X203049250Y-129634058D01*
X203005549Y-129590356D01*
X202944506Y-129580687D01*
X202889439Y-129608746D01*
X202545863Y-129952320D01*
X202545863Y-129679457D01*
X202526765Y-129620678D01*
X202476765Y-129584351D01*
X202414961Y-129584351D01*
X202364961Y-129620678D01*
X202345863Y-129679457D01*
X202345863Y-130579457D01*
X202115856Y-130579457D01*
X202130861Y-130564452D01*
X202158919Y-130509384D01*
X202149250Y-130448342D01*
X202105547Y-130404640D01*
X202044505Y-130394973D01*
X201989438Y-130423032D01*
X201963273Y-130449196D01*
X201872493Y-130479457D01*
X201819233Y-130479457D01*
X201728453Y-130449197D01*
X201670905Y-130391649D01*
X201640213Y-130330265D01*
X201603006Y-130181433D01*
X201603006Y-130077479D01*
X201640213Y-129928647D01*
X201670906Y-129867262D01*
X201728453Y-129809716D01*
X201819233Y-129779457D01*
X201872493Y-129779457D01*
X201963273Y-129809717D01*
X201989438Y-129835882D01*
X202044506Y-129863940D01*
X202105548Y-129854272D01*
X202149250Y-129810570D01*
X202158918Y-129749528D01*
X202130860Y-129694460D01*
X202088003Y-129651603D01*
X202067461Y-129641136D01*
X202048915Y-129627446D01*
X201920343Y-129584589D01*
X201904135Y-129584465D01*
X201888720Y-129579457D01*
X201803006Y-129579457D01*
X201787590Y-129584465D01*
X201771383Y-129584589D01*
X201642812Y-129627446D01*
X201624265Y-129641137D01*
X201603725Y-129651603D01*
X201518010Y-129737317D01*
X201510651Y-129751758D01*
X201499277Y-129763307D01*
X201456420Y-129849021D01*
X201454760Y-129860041D01*
X201448849Y-129869488D01*
X201405992Y-130040918D01*
X201406852Y-130053333D01*
X201403006Y-130065171D01*
X201403006Y-130193742D01*
X201274435Y-130193742D01*
X201274435Y-129450886D01*
X203188709Y-129450886D01*
X203188709Y-130808028D01*
G37*
G36*
X210745863Y-130808028D02*
G01*
X208874435Y-130808028D01*
X208874435Y-130193742D01*
X209003006Y-130193742D01*
X209006852Y-130205579D01*
X209005992Y-130217995D01*
X209048849Y-130389425D01*
X209054760Y-130398871D01*
X209056420Y-130409892D01*
X209099277Y-130495606D01*
X209110650Y-130507153D01*
X209118009Y-130521596D01*
X209203724Y-130607310D01*
X209224263Y-130617775D01*
X209242812Y-130631468D01*
X209371383Y-130674325D01*
X209387590Y-130674448D01*
X209403006Y-130679457D01*
X209488720Y-130679457D01*
X209504135Y-130674448D01*
X209520343Y-130674325D01*
X209648915Y-130631468D01*
X209667461Y-130617776D01*
X209688004Y-130607310D01*
X209730861Y-130564452D01*
X209758919Y-130509384D01*
X209749250Y-130448342D01*
X209705547Y-130404640D01*
X209644505Y-130394973D01*
X209589438Y-130423032D01*
X209563273Y-130449196D01*
X209472493Y-130479457D01*
X209419233Y-130479457D01*
X209328453Y-130449197D01*
X209270905Y-130391649D01*
X209240213Y-130330265D01*
X209203006Y-130181433D01*
X209203006Y-130077479D01*
X209238225Y-129936600D01*
X209903006Y-129936600D01*
X209910129Y-129958523D01*
X209913563Y-129981321D01*
X209956420Y-130067035D01*
X209967793Y-130078582D01*
X209975152Y-130093025D01*
X210018009Y-130135882D01*
X210032451Y-130143240D01*
X210043999Y-130154614D01*
X210129714Y-130197471D01*
X210140734Y-130199130D01*
X210150181Y-130205042D01*
X210310959Y-130245236D01*
X210372341Y-130275927D01*
X210392249Y-130295835D01*
X210417292Y-130345920D01*
X210417292Y-130384421D01*
X210392248Y-130434507D01*
X210372341Y-130454414D01*
X210322256Y-130479457D01*
X210147805Y-130479457D01*
X210034629Y-130441732D01*
X209972827Y-130441262D01*
X209922552Y-130477209D01*
X209903008Y-130535841D01*
X209921660Y-130594763D01*
X209971383Y-130631468D01*
X210099956Y-130674326D01*
X210116164Y-130674449D01*
X210131578Y-130679457D01*
X210345863Y-130679457D01*
X210367786Y-130672333D01*
X210390584Y-130668900D01*
X210476299Y-130626043D01*
X210487847Y-130614668D01*
X210502290Y-130607310D01*
X210545147Y-130564452D01*
X210552505Y-130550009D01*
X210563878Y-130538463D01*
X210606735Y-130452750D01*
X210610168Y-130429951D01*
X210617292Y-130408028D01*
X210617292Y-130322314D01*
X210610168Y-130300390D01*
X210606735Y-130277592D01*
X210563878Y-130191879D01*
X210552505Y-130180332D01*
X210545147Y-130165890D01*
X210502290Y-130123032D01*
X210487847Y-130115673D01*
X210476299Y-130104299D01*
X210390584Y-130061442D01*
X210379563Y-130059782D01*
X210370117Y-130053871D01*
X210209338Y-130013676D01*
X210147956Y-129982985D01*
X210128048Y-129963077D01*
X210103006Y-129912992D01*
X210103006Y-129874492D01*
X210128048Y-129824407D01*
X210147956Y-129804499D01*
X210198042Y-129779457D01*
X210372493Y-129779457D01*
X210485670Y-129817183D01*
X210547472Y-129817652D01*
X210597746Y-129781705D01*
X210617290Y-129723073D01*
X210598638Y-129664151D01*
X210548915Y-129627446D01*
X210420343Y-129584589D01*
X210404135Y-129584465D01*
X210388720Y-129579457D01*
X210174435Y-129579457D01*
X210152511Y-129586580D01*
X210129714Y-129590014D01*
X210043999Y-129632871D01*
X210032451Y-129644244D01*
X210018009Y-129651603D01*
X209975152Y-129694460D01*
X209967793Y-129708902D01*
X209956420Y-129720450D01*
X209913563Y-129806164D01*
X209910129Y-129828961D01*
X209903006Y-129850885D01*
X209903006Y-129936600D01*
X209238225Y-129936600D01*
X209240213Y-129928647D01*
X209270906Y-129867262D01*
X209328453Y-129809716D01*
X209419233Y-129779457D01*
X209472493Y-129779457D01*
X209563273Y-129809717D01*
X209589438Y-129835882D01*
X209644506Y-129863940D01*
X209705548Y-129854272D01*
X209749250Y-129810570D01*
X209758918Y-129749528D01*
X209730860Y-129694460D01*
X209688003Y-129651603D01*
X209667461Y-129641136D01*
X209648915Y-129627446D01*
X209520343Y-129584589D01*
X209504135Y-129584465D01*
X209488720Y-129579457D01*
X209403006Y-129579457D01*
X209387590Y-129584465D01*
X209371383Y-129584589D01*
X209242812Y-129627446D01*
X209224265Y-129641137D01*
X209203725Y-129651603D01*
X209118010Y-129737317D01*
X209110651Y-129751758D01*
X209099277Y-129763307D01*
X209056420Y-129849021D01*
X209054760Y-129860041D01*
X209048849Y-129869488D01*
X209005992Y-130040918D01*
X209006852Y-130053333D01*
X209003006Y-130065171D01*
X209003006Y-130193742D01*
X208874435Y-130193742D01*
X208874435Y-129450886D01*
X210745863Y-129450886D01*
X210745863Y-130808028D01*
G37*
G36*
X205343769Y-129804499D02*
G01*
X205398424Y-129859154D01*
X205431577Y-129991766D01*
X205431577Y-130267146D01*
X205398423Y-130399759D01*
X205343770Y-130454414D01*
X205293684Y-130479457D01*
X205169470Y-130479457D01*
X205119384Y-130454414D01*
X205064730Y-130399759D01*
X205031577Y-130267147D01*
X205031577Y-129991765D01*
X205064729Y-129859153D01*
X205119385Y-129804499D01*
X205169470Y-129779457D01*
X205293684Y-129779457D01*
X205343769Y-129804499D01*
G37*
G36*
X205760148Y-130808028D02*
G01*
X203717292Y-130808028D01*
X203717292Y-130579457D01*
X203845863Y-130579457D01*
X203864961Y-130638236D01*
X203914961Y-130674563D01*
X203976765Y-130674563D01*
X204026765Y-130638236D01*
X204045863Y-130579457D01*
X204045863Y-130130213D01*
X204155245Y-130364603D01*
X204168339Y-130378636D01*
X204177641Y-130395429D01*
X204188917Y-130400691D01*
X204197408Y-130409791D01*
X204216255Y-130413448D01*
X204233647Y-130421565D01*
X204245860Y-130419194D01*
X204258079Y-130421566D01*
X204275475Y-130413447D01*
X204294318Y-130409791D01*
X204302806Y-130400693D01*
X204314085Y-130395430D01*
X204323387Y-130378635D01*
X204336481Y-130364603D01*
X204445863Y-130130212D01*
X204445863Y-130579457D01*
X204464961Y-130638236D01*
X204514961Y-130674563D01*
X204576765Y-130674563D01*
X204626765Y-130638236D01*
X204645863Y-130579457D01*
X204645863Y-130279457D01*
X204831577Y-130279457D01*
X204835423Y-130291294D01*
X204834563Y-130303711D01*
X204877420Y-130475139D01*
X204891592Y-130497787D01*
X204903723Y-130521596D01*
X204989438Y-130607310D01*
X205003879Y-130614668D01*
X205015428Y-130626043D01*
X205101141Y-130668900D01*
X205123939Y-130672333D01*
X205145863Y-130679457D01*
X205317291Y-130679457D01*
X205339214Y-130672333D01*
X205362012Y-130668900D01*
X205447727Y-130626043D01*
X205459276Y-130614668D01*
X205473717Y-130607310D01*
X205559431Y-130521595D01*
X205571561Y-130497788D01*
X205585734Y-130475139D01*
X205628591Y-130303711D01*
X205627730Y-130291294D01*
X205631577Y-130279457D01*
X205631577Y-129979457D01*
X205627730Y-129967619D01*
X205628591Y-129955204D01*
X205585734Y-129783775D01*
X205571561Y-129761124D01*
X205559431Y-129737317D01*
X205473717Y-129651603D01*
X205459274Y-129644244D01*
X205447727Y-129632871D01*
X205362012Y-129590014D01*
X205339214Y-129586580D01*
X205317291Y-129579457D01*
X205145863Y-129579457D01*
X205123939Y-129586580D01*
X205101141Y-129590014D01*
X205015428Y-129632871D01*
X205003880Y-129644244D01*
X204989439Y-129651603D01*
X204903724Y-129737317D01*
X204891596Y-129761118D01*
X204877420Y-129783774D01*
X204834563Y-129955204D01*
X204835423Y-129967619D01*
X204831577Y-129979457D01*
X204831577Y-130279457D01*
X204645863Y-130279457D01*
X204645863Y-129679457D01*
X204642834Y-129670135D01*
X204644032Y-129660405D01*
X204633487Y-129641369D01*
X204626765Y-129620678D01*
X204618835Y-129614916D01*
X204614085Y-129606341D01*
X204594366Y-129597138D01*
X204576765Y-129584351D01*
X204566963Y-129584351D01*
X204558079Y-129580205D01*
X204536717Y-129584351D01*
X204514961Y-129584351D01*
X204507031Y-129590112D01*
X204497408Y-129591980D01*
X204482564Y-129607888D01*
X204464961Y-129620678D01*
X204461931Y-129630001D01*
X204455245Y-129637168D01*
X204245862Y-130085843D01*
X204036481Y-129637168D01*
X204029794Y-129630001D01*
X204026765Y-129620678D01*
X204009161Y-129607888D01*
X203994318Y-129591980D01*
X203984695Y-129590112D01*
X203976765Y-129584351D01*
X203955006Y-129584351D01*
X203933647Y-129580206D01*
X203924765Y-129584351D01*
X203914961Y-129584351D01*
X203897356Y-129597141D01*
X203877641Y-129606342D01*
X203872891Y-129614916D01*
X203864961Y-129620678D01*
X203858237Y-129641370D01*
X203847694Y-129660405D01*
X203848891Y-129670135D01*
X203845863Y-129679457D01*
X203845863Y-130579457D01*
X203717292Y-130579457D01*
X203717292Y-129450886D01*
X205760148Y-129450886D01*
X205760148Y-130808028D01*
G37*
G36*
X197740969Y-130808028D02*
G01*
X196436472Y-130808028D01*
X196436472Y-130610359D01*
X196907900Y-130610359D01*
X196944227Y-130660359D01*
X197003006Y-130679457D01*
X197174435Y-130679457D01*
X197233214Y-130660359D01*
X197269541Y-130610359D01*
X197269541Y-130548555D01*
X197233214Y-130498555D01*
X197174435Y-130479457D01*
X197003006Y-130479457D01*
X196944227Y-130498555D01*
X196907900Y-130548555D01*
X196907900Y-130610359D01*
X196436472Y-130610359D01*
X196436472Y-130353216D01*
X196736472Y-130353216D01*
X196772799Y-130403216D01*
X196831578Y-130422314D01*
X197345863Y-130422314D01*
X197404642Y-130403216D01*
X197440969Y-130353216D01*
X197440969Y-130291412D01*
X197404642Y-130241412D01*
X197345863Y-130222314D01*
X196831578Y-130222314D01*
X196772799Y-130241412D01*
X196736472Y-130291412D01*
X196736472Y-130353216D01*
X196436472Y-130353216D01*
X196436472Y-130096073D01*
X196565043Y-130096073D01*
X196601370Y-130146073D01*
X196660149Y-130165171D01*
X197517292Y-130165171D01*
X197576071Y-130146073D01*
X197612398Y-130096073D01*
X197612398Y-130034269D01*
X197576071Y-129984269D01*
X197517292Y-129965171D01*
X197188720Y-129965171D01*
X197188720Y-129679457D01*
X197169622Y-129620678D01*
X197119622Y-129584351D01*
X197057818Y-129584351D01*
X197007818Y-129620678D01*
X196988720Y-129679457D01*
X196988720Y-129965171D01*
X196660149Y-129965171D01*
X196601370Y-129984269D01*
X196565043Y-130034269D01*
X196565043Y-130096073D01*
X196436472Y-130096073D01*
X196436472Y-129455780D01*
X197740969Y-129455780D01*
X197740969Y-130808028D01*
G37*
G36*
X200403005Y-130803134D02*
G01*
X198917292Y-130803134D01*
X198917292Y-130579457D01*
X199045863Y-130579457D01*
X199064961Y-130638236D01*
X199114961Y-130674563D01*
X199176765Y-130674563D01*
X199226765Y-130638236D01*
X199245863Y-130579457D01*
X199245863Y-130130213D01*
X199355245Y-130364603D01*
X199368339Y-130378636D01*
X199377641Y-130395429D01*
X199388917Y-130400691D01*
X199397408Y-130409791D01*
X199416255Y-130413448D01*
X199433647Y-130421565D01*
X199445860Y-130419194D01*
X199458079Y-130421566D01*
X199475475Y-130413447D01*
X199494318Y-130409791D01*
X199502806Y-130400693D01*
X199514085Y-130395430D01*
X199523387Y-130378635D01*
X199536481Y-130364603D01*
X199645863Y-130130212D01*
X199645863Y-130579457D01*
X199664961Y-130638236D01*
X199714961Y-130674563D01*
X199776765Y-130674563D01*
X199826765Y-130638236D01*
X199845863Y-130579457D01*
X200074434Y-130579457D01*
X200093532Y-130638236D01*
X200143532Y-130674563D01*
X200205336Y-130674563D01*
X200255336Y-130638236D01*
X200274434Y-130579457D01*
X200274434Y-129679457D01*
X200255336Y-129620678D01*
X200205336Y-129584351D01*
X200143532Y-129584351D01*
X200093532Y-129620678D01*
X200074434Y-129679457D01*
X200074434Y-130579457D01*
X199845863Y-130579457D01*
X199845863Y-129679457D01*
X199842834Y-129670135D01*
X199844032Y-129660405D01*
X199833487Y-129641369D01*
X199826765Y-129620678D01*
X199818835Y-129614916D01*
X199814085Y-129606341D01*
X199794366Y-129597138D01*
X199776765Y-129584351D01*
X199766963Y-129584351D01*
X199758079Y-129580205D01*
X199736717Y-129584351D01*
X199714961Y-129584351D01*
X199707031Y-129590112D01*
X199697408Y-129591980D01*
X199682564Y-129607888D01*
X199664961Y-129620678D01*
X199661931Y-129630001D01*
X199655245Y-129637168D01*
X199445862Y-130085843D01*
X199236481Y-129637168D01*
X199229794Y-129630001D01*
X199226765Y-129620678D01*
X199209161Y-129607888D01*
X199194318Y-129591980D01*
X199184695Y-129590112D01*
X199176765Y-129584351D01*
X199155006Y-129584351D01*
X199133647Y-129580206D01*
X199124765Y-129584351D01*
X199114961Y-129584351D01*
X199097356Y-129597141D01*
X199077641Y-129606342D01*
X199072891Y-129614916D01*
X199064961Y-129620678D01*
X199058237Y-129641370D01*
X199047694Y-129660405D01*
X199048891Y-129670135D01*
X199045863Y-129679457D01*
X199045863Y-130579457D01*
X198917292Y-130579457D01*
X198917292Y-129451634D01*
X200403005Y-129451634D01*
X200403005Y-130803134D01*
G37*
G36*
X208198344Y-126008028D02*
G01*
X206332808Y-126008028D01*
X206332808Y-125709384D01*
X206461379Y-125709384D01*
X206489437Y-125764452D01*
X206532295Y-125807310D01*
X206546736Y-125814668D01*
X206558285Y-125826043D01*
X206643998Y-125868900D01*
X206666796Y-125872333D01*
X206688720Y-125879457D01*
X206945863Y-125879457D01*
X206967786Y-125872333D01*
X206990584Y-125868900D01*
X207076299Y-125826043D01*
X207087847Y-125814668D01*
X207102290Y-125807310D01*
X207145147Y-125764452D01*
X207152505Y-125750009D01*
X207163878Y-125738463D01*
X207206735Y-125652750D01*
X207210168Y-125629951D01*
X207217292Y-125608028D01*
X207217292Y-125393742D01*
X207210168Y-125371818D01*
X207206735Y-125349020D01*
X207163878Y-125263307D01*
X207152504Y-125251759D01*
X207145146Y-125237317D01*
X207102289Y-125194460D01*
X207087846Y-125187101D01*
X207076299Y-125175728D01*
X207016912Y-125146035D01*
X207192550Y-124945307D01*
X207200510Y-124926720D01*
X207212398Y-124910359D01*
X207212398Y-124898966D01*
X207216883Y-124888495D01*
X207212398Y-124868776D01*
X207212398Y-124849278D01*
X207279097Y-124849278D01*
X207279567Y-124911080D01*
X207579567Y-125811079D01*
X207597477Y-125835342D01*
X207615044Y-125859910D01*
X207615798Y-125860161D01*
X207616272Y-125860803D01*
X207645037Y-125869908D01*
X207673676Y-125879455D01*
X207674436Y-125879214D01*
X207675194Y-125879454D01*
X207703772Y-125869927D01*
X207732598Y-125860803D01*
X207733071Y-125860161D01*
X207733826Y-125859910D01*
X207751380Y-125835358D01*
X207769303Y-125811080D01*
X208069303Y-124911080D01*
X208069773Y-124849278D01*
X208033826Y-124799004D01*
X207975194Y-124779460D01*
X207916272Y-124798111D01*
X207879567Y-124847835D01*
X207674435Y-125463230D01*
X207469303Y-124847834D01*
X207432598Y-124798111D01*
X207373676Y-124779459D01*
X207315044Y-124799004D01*
X207279097Y-124849278D01*
X207212398Y-124849278D01*
X207212398Y-124848555D01*
X207205702Y-124839339D01*
X207203176Y-124828231D01*
X207187956Y-124814913D01*
X207176071Y-124798555D01*
X207165237Y-124795035D01*
X207156664Y-124787533D01*
X207136521Y-124785704D01*
X207117292Y-124779457D01*
X206560149Y-124779457D01*
X206501370Y-124798555D01*
X206465043Y-124848555D01*
X206465043Y-124910359D01*
X206501370Y-124960359D01*
X206560149Y-124979457D01*
X206896915Y-124979457D01*
X206742034Y-125156464D01*
X206734072Y-125175051D01*
X206722186Y-125191412D01*
X206722185Y-125202803D01*
X206717701Y-125213275D01*
X206722186Y-125232993D01*
X206722186Y-125253216D01*
X206728881Y-125262431D01*
X206731408Y-125273539D01*
X206746626Y-125286855D01*
X206758513Y-125303216D01*
X206769346Y-125306735D01*
X206777920Y-125314238D01*
X206798062Y-125316065D01*
X206817292Y-125322314D01*
X206922256Y-125322314D01*
X206972341Y-125347356D01*
X206992250Y-125367265D01*
X207017292Y-125417348D01*
X207017292Y-125584421D01*
X206992248Y-125634507D01*
X206972341Y-125654414D01*
X206922256Y-125679457D01*
X206712327Y-125679457D01*
X206662243Y-125654415D01*
X206630861Y-125623032D01*
X206575793Y-125594973D01*
X206514751Y-125604640D01*
X206471048Y-125648342D01*
X206461379Y-125709384D01*
X206332808Y-125709384D01*
X206332808Y-124650886D01*
X208198344Y-124650886D01*
X208198344Y-126008028D01*
G37*
G36*
X203188709Y-126008028D02*
G01*
X201274435Y-126008028D01*
X201274435Y-125393742D01*
X201403006Y-125393742D01*
X201406852Y-125405579D01*
X201405992Y-125417995D01*
X201448849Y-125589425D01*
X201454760Y-125598871D01*
X201456420Y-125609892D01*
X201499277Y-125695606D01*
X201510650Y-125707153D01*
X201518009Y-125721596D01*
X201603724Y-125807310D01*
X201624263Y-125817775D01*
X201642812Y-125831468D01*
X201771383Y-125874325D01*
X201787590Y-125874448D01*
X201803006Y-125879457D01*
X201888720Y-125879457D01*
X201904135Y-125874448D01*
X201920343Y-125874325D01*
X202048915Y-125831468D01*
X202067461Y-125817776D01*
X202088004Y-125807310D01*
X202115856Y-125779457D01*
X202345863Y-125779457D01*
X202364961Y-125838236D01*
X202414961Y-125874563D01*
X202476765Y-125874563D01*
X202526765Y-125838236D01*
X202545863Y-125779457D01*
X202545863Y-125435164D01*
X202563615Y-125417411D01*
X202880149Y-125839457D01*
X202930695Y-125875021D01*
X202992491Y-125874083D01*
X203041934Y-125837000D01*
X203060138Y-125777939D01*
X203040149Y-125719457D01*
X202706472Y-125274554D01*
X203030860Y-124950167D01*
X203058919Y-124895100D01*
X203049250Y-124834058D01*
X203005549Y-124790356D01*
X202944506Y-124780687D01*
X202889439Y-124808746D01*
X202545863Y-125152320D01*
X202545863Y-124879457D01*
X202526765Y-124820678D01*
X202476765Y-124784351D01*
X202414961Y-124784351D01*
X202364961Y-124820678D01*
X202345863Y-124879457D01*
X202345863Y-125779457D01*
X202115856Y-125779457D01*
X202130861Y-125764452D01*
X202158919Y-125709384D01*
X202149250Y-125648342D01*
X202105547Y-125604640D01*
X202044505Y-125594973D01*
X201989438Y-125623032D01*
X201963273Y-125649196D01*
X201872493Y-125679457D01*
X201819233Y-125679457D01*
X201728453Y-125649197D01*
X201670905Y-125591649D01*
X201640213Y-125530265D01*
X201603006Y-125381433D01*
X201603006Y-125277479D01*
X201640213Y-125128647D01*
X201670906Y-125067262D01*
X201728453Y-125009716D01*
X201819233Y-124979457D01*
X201872493Y-124979457D01*
X201963273Y-125009717D01*
X201989438Y-125035882D01*
X202044506Y-125063940D01*
X202105548Y-125054272D01*
X202149250Y-125010570D01*
X202158918Y-124949528D01*
X202130860Y-124894460D01*
X202088003Y-124851603D01*
X202067461Y-124841136D01*
X202048915Y-124827446D01*
X201920343Y-124784589D01*
X201904135Y-124784465D01*
X201888720Y-124779457D01*
X201803006Y-124779457D01*
X201787590Y-124784465D01*
X201771383Y-124784589D01*
X201642812Y-124827446D01*
X201624265Y-124841137D01*
X201603725Y-124851603D01*
X201518010Y-124937317D01*
X201510651Y-124951758D01*
X201499277Y-124963307D01*
X201456420Y-125049021D01*
X201454760Y-125060041D01*
X201448849Y-125069488D01*
X201405992Y-125240918D01*
X201406852Y-125253333D01*
X201403006Y-125265171D01*
X201403006Y-125393742D01*
X201274435Y-125393742D01*
X201274435Y-124650886D01*
X203188709Y-124650886D01*
X203188709Y-126008028D01*
G37*
G36*
X210745863Y-126008028D02*
G01*
X208874435Y-126008028D01*
X208874435Y-125393742D01*
X209003006Y-125393742D01*
X209006852Y-125405579D01*
X209005992Y-125417995D01*
X209048849Y-125589425D01*
X209054760Y-125598871D01*
X209056420Y-125609892D01*
X209099277Y-125695606D01*
X209110650Y-125707153D01*
X209118009Y-125721596D01*
X209203724Y-125807310D01*
X209224263Y-125817775D01*
X209242812Y-125831468D01*
X209371383Y-125874325D01*
X209387590Y-125874448D01*
X209403006Y-125879457D01*
X209488720Y-125879457D01*
X209504135Y-125874448D01*
X209520343Y-125874325D01*
X209648915Y-125831468D01*
X209667461Y-125817776D01*
X209688004Y-125807310D01*
X209730861Y-125764452D01*
X209758919Y-125709384D01*
X209749250Y-125648342D01*
X209705547Y-125604640D01*
X209644505Y-125594973D01*
X209589438Y-125623032D01*
X209563273Y-125649196D01*
X209472493Y-125679457D01*
X209419233Y-125679457D01*
X209328453Y-125649197D01*
X209270905Y-125591649D01*
X209240213Y-125530265D01*
X209203006Y-125381433D01*
X209203006Y-125277479D01*
X209238225Y-125136600D01*
X209903006Y-125136600D01*
X209910129Y-125158523D01*
X209913563Y-125181321D01*
X209956420Y-125267035D01*
X209967793Y-125278582D01*
X209975152Y-125293025D01*
X210018009Y-125335882D01*
X210032451Y-125343240D01*
X210043999Y-125354614D01*
X210129714Y-125397471D01*
X210140734Y-125399130D01*
X210150181Y-125405042D01*
X210310959Y-125445236D01*
X210372341Y-125475927D01*
X210392249Y-125495835D01*
X210417292Y-125545920D01*
X210417292Y-125584421D01*
X210392248Y-125634507D01*
X210372341Y-125654414D01*
X210322256Y-125679457D01*
X210147805Y-125679457D01*
X210034629Y-125641732D01*
X209972827Y-125641262D01*
X209922552Y-125677209D01*
X209903008Y-125735841D01*
X209921660Y-125794763D01*
X209971383Y-125831468D01*
X210099956Y-125874326D01*
X210116164Y-125874449D01*
X210131578Y-125879457D01*
X210345863Y-125879457D01*
X210367786Y-125872333D01*
X210390584Y-125868900D01*
X210476299Y-125826043D01*
X210487847Y-125814668D01*
X210502290Y-125807310D01*
X210545147Y-125764452D01*
X210552505Y-125750009D01*
X210563878Y-125738463D01*
X210606735Y-125652750D01*
X210610168Y-125629951D01*
X210617292Y-125608028D01*
X210617292Y-125522314D01*
X210610168Y-125500390D01*
X210606735Y-125477592D01*
X210563878Y-125391879D01*
X210552505Y-125380332D01*
X210545147Y-125365890D01*
X210502290Y-125323032D01*
X210487847Y-125315673D01*
X210476299Y-125304299D01*
X210390584Y-125261442D01*
X210379563Y-125259782D01*
X210370117Y-125253871D01*
X210209338Y-125213676D01*
X210147956Y-125182985D01*
X210128048Y-125163077D01*
X210103006Y-125112992D01*
X210103006Y-125074492D01*
X210128048Y-125024407D01*
X210147956Y-125004499D01*
X210198042Y-124979457D01*
X210372493Y-124979457D01*
X210485670Y-125017183D01*
X210547472Y-125017652D01*
X210597746Y-124981705D01*
X210617290Y-124923073D01*
X210598638Y-124864151D01*
X210548915Y-124827446D01*
X210420343Y-124784589D01*
X210404135Y-124784465D01*
X210388720Y-124779457D01*
X210174435Y-124779457D01*
X210152511Y-124786580D01*
X210129714Y-124790014D01*
X210043999Y-124832871D01*
X210032451Y-124844244D01*
X210018009Y-124851603D01*
X209975152Y-124894460D01*
X209967793Y-124908902D01*
X209956420Y-124920450D01*
X209913563Y-125006164D01*
X209910129Y-125028961D01*
X209903006Y-125050885D01*
X209903006Y-125136600D01*
X209238225Y-125136600D01*
X209240213Y-125128647D01*
X209270906Y-125067262D01*
X209328453Y-125009716D01*
X209419233Y-124979457D01*
X209472493Y-124979457D01*
X209563273Y-125009717D01*
X209589438Y-125035882D01*
X209644506Y-125063940D01*
X209705548Y-125054272D01*
X209749250Y-125010570D01*
X209758918Y-124949528D01*
X209730860Y-124894460D01*
X209688003Y-124851603D01*
X209667461Y-124841136D01*
X209648915Y-124827446D01*
X209520343Y-124784589D01*
X209504135Y-124784465D01*
X209488720Y-124779457D01*
X209403006Y-124779457D01*
X209387590Y-124784465D01*
X209371383Y-124784589D01*
X209242812Y-124827446D01*
X209224265Y-124841137D01*
X209203725Y-124851603D01*
X209118010Y-124937317D01*
X209110651Y-124951758D01*
X209099277Y-124963307D01*
X209056420Y-125049021D01*
X209054760Y-125060041D01*
X209048849Y-125069488D01*
X209005992Y-125240918D01*
X209006852Y-125253333D01*
X209003006Y-125265171D01*
X209003006Y-125393742D01*
X208874435Y-125393742D01*
X208874435Y-124650886D01*
X210745863Y-124650886D01*
X210745863Y-126008028D01*
G37*
G36*
X205343769Y-125004499D02*
G01*
X205398424Y-125059154D01*
X205431577Y-125191766D01*
X205431577Y-125467146D01*
X205398423Y-125599759D01*
X205343770Y-125654414D01*
X205293684Y-125679457D01*
X205169470Y-125679457D01*
X205119384Y-125654414D01*
X205064730Y-125599759D01*
X205031577Y-125467147D01*
X205031577Y-125191765D01*
X205064729Y-125059153D01*
X205119385Y-125004499D01*
X205169470Y-124979457D01*
X205293684Y-124979457D01*
X205343769Y-125004499D01*
G37*
G36*
X205760148Y-126008028D02*
G01*
X203717292Y-126008028D01*
X203717292Y-125779457D01*
X203845863Y-125779457D01*
X203864961Y-125838236D01*
X203914961Y-125874563D01*
X203976765Y-125874563D01*
X204026765Y-125838236D01*
X204045863Y-125779457D01*
X204045863Y-125330213D01*
X204155245Y-125564603D01*
X204168339Y-125578636D01*
X204177641Y-125595429D01*
X204188917Y-125600691D01*
X204197408Y-125609791D01*
X204216255Y-125613448D01*
X204233647Y-125621565D01*
X204245860Y-125619194D01*
X204258079Y-125621566D01*
X204275475Y-125613447D01*
X204294318Y-125609791D01*
X204302806Y-125600693D01*
X204314085Y-125595430D01*
X204323387Y-125578635D01*
X204336481Y-125564603D01*
X204445863Y-125330212D01*
X204445863Y-125779457D01*
X204464961Y-125838236D01*
X204514961Y-125874563D01*
X204576765Y-125874563D01*
X204626765Y-125838236D01*
X204645863Y-125779457D01*
X204645863Y-125479457D01*
X204831577Y-125479457D01*
X204835423Y-125491294D01*
X204834563Y-125503711D01*
X204877420Y-125675139D01*
X204891592Y-125697787D01*
X204903723Y-125721596D01*
X204989438Y-125807310D01*
X205003879Y-125814668D01*
X205015428Y-125826043D01*
X205101141Y-125868900D01*
X205123939Y-125872333D01*
X205145863Y-125879457D01*
X205317291Y-125879457D01*
X205339214Y-125872333D01*
X205362012Y-125868900D01*
X205447727Y-125826043D01*
X205459276Y-125814668D01*
X205473717Y-125807310D01*
X205559431Y-125721595D01*
X205571561Y-125697788D01*
X205585734Y-125675139D01*
X205628591Y-125503711D01*
X205627730Y-125491294D01*
X205631577Y-125479457D01*
X205631577Y-125179457D01*
X205627730Y-125167619D01*
X205628591Y-125155204D01*
X205585734Y-124983775D01*
X205571561Y-124961124D01*
X205559431Y-124937317D01*
X205473717Y-124851603D01*
X205459274Y-124844244D01*
X205447727Y-124832871D01*
X205362012Y-124790014D01*
X205339214Y-124786580D01*
X205317291Y-124779457D01*
X205145863Y-124779457D01*
X205123939Y-124786580D01*
X205101141Y-124790014D01*
X205015428Y-124832871D01*
X205003880Y-124844244D01*
X204989439Y-124851603D01*
X204903724Y-124937317D01*
X204891596Y-124961118D01*
X204877420Y-124983774D01*
X204834563Y-125155204D01*
X204835423Y-125167619D01*
X204831577Y-125179457D01*
X204831577Y-125479457D01*
X204645863Y-125479457D01*
X204645863Y-124879457D01*
X204642834Y-124870135D01*
X204644032Y-124860405D01*
X204633487Y-124841369D01*
X204626765Y-124820678D01*
X204618835Y-124814916D01*
X204614085Y-124806341D01*
X204594366Y-124797138D01*
X204576765Y-124784351D01*
X204566963Y-124784351D01*
X204558079Y-124780205D01*
X204536717Y-124784351D01*
X204514961Y-124784351D01*
X204507031Y-124790112D01*
X204497408Y-124791980D01*
X204482564Y-124807888D01*
X204464961Y-124820678D01*
X204461931Y-124830001D01*
X204455245Y-124837168D01*
X204245862Y-125285843D01*
X204036481Y-124837168D01*
X204029794Y-124830001D01*
X204026765Y-124820678D01*
X204009161Y-124807888D01*
X203994318Y-124791980D01*
X203984695Y-124790112D01*
X203976765Y-124784351D01*
X203955006Y-124784351D01*
X203933647Y-124780206D01*
X203924765Y-124784351D01*
X203914961Y-124784351D01*
X203897356Y-124797141D01*
X203877641Y-124806342D01*
X203872891Y-124814916D01*
X203864961Y-124820678D01*
X203858237Y-124841370D01*
X203847694Y-124860405D01*
X203848891Y-124870135D01*
X203845863Y-124879457D01*
X203845863Y-125779457D01*
X203717292Y-125779457D01*
X203717292Y-124650886D01*
X205760148Y-124650886D01*
X205760148Y-126008028D01*
G37*
G36*
X197740969Y-126008028D02*
G01*
X196436472Y-126008028D01*
X196436472Y-125810359D01*
X196907900Y-125810359D01*
X196944227Y-125860359D01*
X197003006Y-125879457D01*
X197174435Y-125879457D01*
X197233214Y-125860359D01*
X197269541Y-125810359D01*
X197269541Y-125748555D01*
X197233214Y-125698555D01*
X197174435Y-125679457D01*
X197003006Y-125679457D01*
X196944227Y-125698555D01*
X196907900Y-125748555D01*
X196907900Y-125810359D01*
X196436472Y-125810359D01*
X196436472Y-125553216D01*
X196736472Y-125553216D01*
X196772799Y-125603216D01*
X196831578Y-125622314D01*
X197345863Y-125622314D01*
X197404642Y-125603216D01*
X197440969Y-125553216D01*
X197440969Y-125491412D01*
X197404642Y-125441412D01*
X197345863Y-125422314D01*
X196831578Y-125422314D01*
X196772799Y-125441412D01*
X196736472Y-125491412D01*
X196736472Y-125553216D01*
X196436472Y-125553216D01*
X196436472Y-125296073D01*
X196565043Y-125296073D01*
X196601370Y-125346073D01*
X196660149Y-125365171D01*
X197517292Y-125365171D01*
X197576071Y-125346073D01*
X197612398Y-125296073D01*
X197612398Y-125234269D01*
X197576071Y-125184269D01*
X197517292Y-125165171D01*
X197188720Y-125165171D01*
X197188720Y-124879457D01*
X197169622Y-124820678D01*
X197119622Y-124784351D01*
X197057818Y-124784351D01*
X197007818Y-124820678D01*
X196988720Y-124879457D01*
X196988720Y-125165171D01*
X196660149Y-125165171D01*
X196601370Y-125184269D01*
X196565043Y-125234269D01*
X196565043Y-125296073D01*
X196436472Y-125296073D01*
X196436472Y-124655780D01*
X197740969Y-124655780D01*
X197740969Y-126008028D01*
G37*
G36*
X200403005Y-126003134D02*
G01*
X198917292Y-126003134D01*
X198917292Y-125779457D01*
X199045863Y-125779457D01*
X199064961Y-125838236D01*
X199114961Y-125874563D01*
X199176765Y-125874563D01*
X199226765Y-125838236D01*
X199245863Y-125779457D01*
X199245863Y-125330213D01*
X199355245Y-125564603D01*
X199368339Y-125578636D01*
X199377641Y-125595429D01*
X199388917Y-125600691D01*
X199397408Y-125609791D01*
X199416255Y-125613448D01*
X199433647Y-125621565D01*
X199445860Y-125619194D01*
X199458079Y-125621566D01*
X199475475Y-125613447D01*
X199494318Y-125609791D01*
X199502806Y-125600693D01*
X199514085Y-125595430D01*
X199523387Y-125578635D01*
X199536481Y-125564603D01*
X199645863Y-125330212D01*
X199645863Y-125779457D01*
X199664961Y-125838236D01*
X199714961Y-125874563D01*
X199776765Y-125874563D01*
X199826765Y-125838236D01*
X199845863Y-125779457D01*
X200074434Y-125779457D01*
X200093532Y-125838236D01*
X200143532Y-125874563D01*
X200205336Y-125874563D01*
X200255336Y-125838236D01*
X200274434Y-125779457D01*
X200274434Y-124879457D01*
X200255336Y-124820678D01*
X200205336Y-124784351D01*
X200143532Y-124784351D01*
X200093532Y-124820678D01*
X200074434Y-124879457D01*
X200074434Y-125779457D01*
X199845863Y-125779457D01*
X199845863Y-124879457D01*
X199842834Y-124870135D01*
X199844032Y-124860405D01*
X199833487Y-124841369D01*
X199826765Y-124820678D01*
X199818835Y-124814916D01*
X199814085Y-124806341D01*
X199794366Y-124797138D01*
X199776765Y-124784351D01*
X199766963Y-124784351D01*
X199758079Y-124780205D01*
X199736717Y-124784351D01*
X199714961Y-124784351D01*
X199707031Y-124790112D01*
X199697408Y-124791980D01*
X199682564Y-124807888D01*
X199664961Y-124820678D01*
X199661931Y-124830001D01*
X199655245Y-124837168D01*
X199445862Y-125285843D01*
X199236481Y-124837168D01*
X199229794Y-124830001D01*
X199226765Y-124820678D01*
X199209161Y-124807888D01*
X199194318Y-124791980D01*
X199184695Y-124790112D01*
X199176765Y-124784351D01*
X199155006Y-124784351D01*
X199133647Y-124780206D01*
X199124765Y-124784351D01*
X199114961Y-124784351D01*
X199097356Y-124797141D01*
X199077641Y-124806342D01*
X199072891Y-124814916D01*
X199064961Y-124820678D01*
X199058237Y-124841370D01*
X199047694Y-124860405D01*
X199048891Y-124870135D01*
X199045863Y-124879457D01*
X199045863Y-125779457D01*
X198917292Y-125779457D01*
X198917292Y-124651634D01*
X200403005Y-124651634D01*
X200403005Y-126003134D01*
G37*
G36*
X208198344Y-121408028D02*
G01*
X206332808Y-121408028D01*
X206332808Y-121109384D01*
X206461379Y-121109384D01*
X206489437Y-121164452D01*
X206532295Y-121207310D01*
X206546736Y-121214668D01*
X206558285Y-121226043D01*
X206643998Y-121268900D01*
X206666796Y-121272333D01*
X206688720Y-121279457D01*
X206945863Y-121279457D01*
X206967786Y-121272333D01*
X206990584Y-121268900D01*
X207076299Y-121226043D01*
X207087847Y-121214668D01*
X207102290Y-121207310D01*
X207145147Y-121164452D01*
X207152505Y-121150009D01*
X207163878Y-121138463D01*
X207206735Y-121052750D01*
X207210168Y-121029951D01*
X207217292Y-121008028D01*
X207217292Y-120793742D01*
X207210168Y-120771818D01*
X207206735Y-120749020D01*
X207163878Y-120663307D01*
X207152504Y-120651759D01*
X207145146Y-120637317D01*
X207102289Y-120594460D01*
X207087846Y-120587101D01*
X207076299Y-120575728D01*
X207016912Y-120546035D01*
X207192550Y-120345307D01*
X207200510Y-120326720D01*
X207212398Y-120310359D01*
X207212398Y-120298966D01*
X207216883Y-120288495D01*
X207212398Y-120268776D01*
X207212398Y-120249278D01*
X207279097Y-120249278D01*
X207279567Y-120311080D01*
X207579567Y-121211079D01*
X207597477Y-121235342D01*
X207615044Y-121259910D01*
X207615798Y-121260161D01*
X207616272Y-121260803D01*
X207645037Y-121269908D01*
X207673676Y-121279455D01*
X207674436Y-121279214D01*
X207675194Y-121279454D01*
X207703772Y-121269927D01*
X207732598Y-121260803D01*
X207733071Y-121260161D01*
X207733826Y-121259910D01*
X207751380Y-121235358D01*
X207769303Y-121211080D01*
X208069303Y-120311080D01*
X208069773Y-120249278D01*
X208033826Y-120199004D01*
X207975194Y-120179460D01*
X207916272Y-120198111D01*
X207879567Y-120247835D01*
X207674435Y-120863230D01*
X207469303Y-120247834D01*
X207432598Y-120198111D01*
X207373676Y-120179459D01*
X207315044Y-120199004D01*
X207279097Y-120249278D01*
X207212398Y-120249278D01*
X207212398Y-120248555D01*
X207205702Y-120239339D01*
X207203176Y-120228231D01*
X207187956Y-120214913D01*
X207176071Y-120198555D01*
X207165237Y-120195035D01*
X207156664Y-120187533D01*
X207136521Y-120185704D01*
X207117292Y-120179457D01*
X206560149Y-120179457D01*
X206501370Y-120198555D01*
X206465043Y-120248555D01*
X206465043Y-120310359D01*
X206501370Y-120360359D01*
X206560149Y-120379457D01*
X206896915Y-120379457D01*
X206742034Y-120556464D01*
X206734072Y-120575051D01*
X206722186Y-120591412D01*
X206722185Y-120602803D01*
X206717701Y-120613275D01*
X206722186Y-120632993D01*
X206722186Y-120653216D01*
X206728881Y-120662431D01*
X206731408Y-120673539D01*
X206746626Y-120686855D01*
X206758513Y-120703216D01*
X206769346Y-120706735D01*
X206777920Y-120714238D01*
X206798062Y-120716065D01*
X206817292Y-120722314D01*
X206922256Y-120722314D01*
X206972341Y-120747356D01*
X206992250Y-120767265D01*
X207017292Y-120817349D01*
X207017292Y-120984420D01*
X206992248Y-121034507D01*
X206972341Y-121054414D01*
X206922256Y-121079457D01*
X206712327Y-121079457D01*
X206662243Y-121054415D01*
X206630861Y-121023032D01*
X206575793Y-120994973D01*
X206514751Y-121004640D01*
X206471048Y-121048342D01*
X206461379Y-121109384D01*
X206332808Y-121109384D01*
X206332808Y-120050886D01*
X208198344Y-120050886D01*
X208198344Y-121408028D01*
G37*
G36*
X203188709Y-121408028D02*
G01*
X201274435Y-121408028D01*
X201274435Y-120793742D01*
X201403006Y-120793742D01*
X201406852Y-120805579D01*
X201405992Y-120817995D01*
X201448849Y-120989425D01*
X201454760Y-120998871D01*
X201456420Y-121009892D01*
X201499277Y-121095606D01*
X201510650Y-121107153D01*
X201518009Y-121121596D01*
X201603724Y-121207310D01*
X201624263Y-121217775D01*
X201642812Y-121231468D01*
X201771383Y-121274325D01*
X201787590Y-121274448D01*
X201803006Y-121279457D01*
X201888720Y-121279457D01*
X201904135Y-121274448D01*
X201920343Y-121274325D01*
X202048915Y-121231468D01*
X202067461Y-121217776D01*
X202088004Y-121207310D01*
X202115856Y-121179457D01*
X202345863Y-121179457D01*
X202364961Y-121238236D01*
X202414961Y-121274563D01*
X202476765Y-121274563D01*
X202526765Y-121238236D01*
X202545863Y-121179457D01*
X202545863Y-120835164D01*
X202563615Y-120817411D01*
X202880149Y-121239457D01*
X202930695Y-121275021D01*
X202992491Y-121274083D01*
X203041934Y-121237000D01*
X203060138Y-121177939D01*
X203040149Y-121119457D01*
X202706472Y-120674554D01*
X203030860Y-120350167D01*
X203058919Y-120295100D01*
X203049250Y-120234058D01*
X203005549Y-120190356D01*
X202944506Y-120180687D01*
X202889439Y-120208746D01*
X202545863Y-120552320D01*
X202545863Y-120279457D01*
X202526765Y-120220678D01*
X202476765Y-120184351D01*
X202414961Y-120184351D01*
X202364961Y-120220678D01*
X202345863Y-120279457D01*
X202345863Y-121179457D01*
X202115856Y-121179457D01*
X202130861Y-121164452D01*
X202158919Y-121109384D01*
X202149250Y-121048342D01*
X202105547Y-121004640D01*
X202044505Y-120994973D01*
X201989438Y-121023032D01*
X201963273Y-121049196D01*
X201872493Y-121079457D01*
X201819233Y-121079457D01*
X201728453Y-121049197D01*
X201670905Y-120991649D01*
X201640213Y-120930265D01*
X201603006Y-120781433D01*
X201603006Y-120677479D01*
X201640213Y-120528647D01*
X201670906Y-120467262D01*
X201728453Y-120409716D01*
X201819233Y-120379457D01*
X201872493Y-120379457D01*
X201963273Y-120409717D01*
X201989438Y-120435882D01*
X202044506Y-120463940D01*
X202105548Y-120454272D01*
X202149250Y-120410570D01*
X202158918Y-120349528D01*
X202130860Y-120294460D01*
X202088003Y-120251603D01*
X202067461Y-120241136D01*
X202048915Y-120227446D01*
X201920343Y-120184589D01*
X201904135Y-120184465D01*
X201888720Y-120179457D01*
X201803006Y-120179457D01*
X201787590Y-120184465D01*
X201771383Y-120184589D01*
X201642812Y-120227446D01*
X201624265Y-120241137D01*
X201603725Y-120251603D01*
X201518010Y-120337317D01*
X201510651Y-120351758D01*
X201499277Y-120363307D01*
X201456420Y-120449021D01*
X201454760Y-120460041D01*
X201448849Y-120469488D01*
X201405992Y-120640918D01*
X201406852Y-120653333D01*
X201403006Y-120665171D01*
X201403006Y-120793742D01*
X201274435Y-120793742D01*
X201274435Y-120050886D01*
X203188709Y-120050886D01*
X203188709Y-121408028D01*
G37*
G36*
X210745863Y-121408028D02*
G01*
X208874435Y-121408028D01*
X208874435Y-120793742D01*
X209003006Y-120793742D01*
X209006852Y-120805579D01*
X209005992Y-120817995D01*
X209048849Y-120989425D01*
X209054760Y-120998871D01*
X209056420Y-121009892D01*
X209099277Y-121095606D01*
X209110650Y-121107153D01*
X209118009Y-121121596D01*
X209203724Y-121207310D01*
X209224263Y-121217775D01*
X209242812Y-121231468D01*
X209371383Y-121274325D01*
X209387590Y-121274448D01*
X209403006Y-121279457D01*
X209488720Y-121279457D01*
X209504135Y-121274448D01*
X209520343Y-121274325D01*
X209648915Y-121231468D01*
X209667461Y-121217776D01*
X209688004Y-121207310D01*
X209730861Y-121164452D01*
X209758919Y-121109384D01*
X209749250Y-121048342D01*
X209705547Y-121004640D01*
X209644505Y-120994973D01*
X209589438Y-121023032D01*
X209563273Y-121049196D01*
X209472493Y-121079457D01*
X209419233Y-121079457D01*
X209328453Y-121049197D01*
X209270905Y-120991649D01*
X209240213Y-120930265D01*
X209203006Y-120781433D01*
X209203006Y-120677479D01*
X209238225Y-120536600D01*
X209903006Y-120536600D01*
X209910129Y-120558523D01*
X209913563Y-120581321D01*
X209956420Y-120667035D01*
X209967793Y-120678582D01*
X209975152Y-120693025D01*
X210018009Y-120735882D01*
X210032451Y-120743240D01*
X210043999Y-120754614D01*
X210129714Y-120797471D01*
X210140734Y-120799130D01*
X210150181Y-120805042D01*
X210310959Y-120845236D01*
X210372341Y-120875927D01*
X210392249Y-120895835D01*
X210417292Y-120945920D01*
X210417292Y-120984421D01*
X210392248Y-121034507D01*
X210372341Y-121054414D01*
X210322256Y-121079457D01*
X210147805Y-121079457D01*
X210034629Y-121041732D01*
X209972827Y-121041262D01*
X209922552Y-121077209D01*
X209903008Y-121135841D01*
X209921660Y-121194763D01*
X209971383Y-121231468D01*
X210099956Y-121274326D01*
X210116164Y-121274449D01*
X210131578Y-121279457D01*
X210345863Y-121279457D01*
X210367786Y-121272333D01*
X210390584Y-121268900D01*
X210476299Y-121226043D01*
X210487847Y-121214668D01*
X210502290Y-121207310D01*
X210545147Y-121164452D01*
X210552505Y-121150009D01*
X210563878Y-121138463D01*
X210606735Y-121052750D01*
X210610168Y-121029951D01*
X210617292Y-121008028D01*
X210617292Y-120922314D01*
X210610168Y-120900390D01*
X210606735Y-120877592D01*
X210563878Y-120791879D01*
X210552505Y-120780332D01*
X210545147Y-120765890D01*
X210502290Y-120723032D01*
X210487847Y-120715673D01*
X210476299Y-120704299D01*
X210390584Y-120661442D01*
X210379563Y-120659782D01*
X210370117Y-120653871D01*
X210209338Y-120613676D01*
X210147956Y-120582985D01*
X210128048Y-120563077D01*
X210103006Y-120512992D01*
X210103006Y-120474492D01*
X210128048Y-120424407D01*
X210147956Y-120404499D01*
X210198042Y-120379457D01*
X210372493Y-120379457D01*
X210485670Y-120417183D01*
X210547472Y-120417652D01*
X210597746Y-120381705D01*
X210617290Y-120323073D01*
X210598638Y-120264151D01*
X210548915Y-120227446D01*
X210420343Y-120184589D01*
X210404135Y-120184465D01*
X210388720Y-120179457D01*
X210174435Y-120179457D01*
X210152511Y-120186580D01*
X210129714Y-120190014D01*
X210043999Y-120232871D01*
X210032451Y-120244244D01*
X210018009Y-120251603D01*
X209975152Y-120294460D01*
X209967793Y-120308902D01*
X209956420Y-120320450D01*
X209913563Y-120406164D01*
X209910129Y-120428961D01*
X209903006Y-120450885D01*
X209903006Y-120536600D01*
X209238225Y-120536600D01*
X209240213Y-120528647D01*
X209270906Y-120467262D01*
X209328453Y-120409716D01*
X209419233Y-120379457D01*
X209472493Y-120379457D01*
X209563273Y-120409717D01*
X209589438Y-120435882D01*
X209644506Y-120463940D01*
X209705548Y-120454272D01*
X209749250Y-120410570D01*
X209758918Y-120349528D01*
X209730860Y-120294460D01*
X209688003Y-120251603D01*
X209667461Y-120241136D01*
X209648915Y-120227446D01*
X209520343Y-120184589D01*
X209504135Y-120184465D01*
X209488720Y-120179457D01*
X209403006Y-120179457D01*
X209387590Y-120184465D01*
X209371383Y-120184589D01*
X209242812Y-120227446D01*
X209224265Y-120241137D01*
X209203725Y-120251603D01*
X209118010Y-120337317D01*
X209110651Y-120351758D01*
X209099277Y-120363307D01*
X209056420Y-120449021D01*
X209054760Y-120460041D01*
X209048849Y-120469488D01*
X209005992Y-120640918D01*
X209006852Y-120653333D01*
X209003006Y-120665171D01*
X209003006Y-120793742D01*
X208874435Y-120793742D01*
X208874435Y-120050886D01*
X210745863Y-120050886D01*
X210745863Y-121408028D01*
G37*
G36*
X205343769Y-120404499D02*
G01*
X205398424Y-120459154D01*
X205431577Y-120591766D01*
X205431577Y-120867146D01*
X205398423Y-120999759D01*
X205343770Y-121054414D01*
X205293684Y-121079457D01*
X205169470Y-121079457D01*
X205119384Y-121054414D01*
X205064730Y-120999759D01*
X205031577Y-120867147D01*
X205031577Y-120591765D01*
X205064729Y-120459153D01*
X205119385Y-120404499D01*
X205169470Y-120379457D01*
X205293684Y-120379457D01*
X205343769Y-120404499D01*
G37*
G36*
X205760148Y-121408028D02*
G01*
X203717292Y-121408028D01*
X203717292Y-121179457D01*
X203845863Y-121179457D01*
X203864961Y-121238236D01*
X203914961Y-121274563D01*
X203976765Y-121274563D01*
X204026765Y-121238236D01*
X204045863Y-121179457D01*
X204045863Y-120730213D01*
X204155245Y-120964603D01*
X204168339Y-120978636D01*
X204177641Y-120995429D01*
X204188917Y-121000691D01*
X204197408Y-121009791D01*
X204216255Y-121013448D01*
X204233647Y-121021565D01*
X204245860Y-121019194D01*
X204258079Y-121021566D01*
X204275475Y-121013447D01*
X204294318Y-121009791D01*
X204302806Y-121000693D01*
X204314085Y-120995430D01*
X204323387Y-120978635D01*
X204336481Y-120964603D01*
X204445863Y-120730212D01*
X204445863Y-121179457D01*
X204464961Y-121238236D01*
X204514961Y-121274563D01*
X204576765Y-121274563D01*
X204626765Y-121238236D01*
X204645863Y-121179457D01*
X204645863Y-120879457D01*
X204831577Y-120879457D01*
X204835423Y-120891294D01*
X204834563Y-120903711D01*
X204877420Y-121075139D01*
X204891592Y-121097787D01*
X204903723Y-121121596D01*
X204989438Y-121207310D01*
X205003879Y-121214668D01*
X205015428Y-121226043D01*
X205101141Y-121268900D01*
X205123939Y-121272333D01*
X205145863Y-121279457D01*
X205317291Y-121279457D01*
X205339214Y-121272333D01*
X205362012Y-121268900D01*
X205447727Y-121226043D01*
X205459276Y-121214668D01*
X205473717Y-121207310D01*
X205559431Y-121121595D01*
X205571561Y-121097788D01*
X205585734Y-121075139D01*
X205628591Y-120903711D01*
X205627730Y-120891294D01*
X205631577Y-120879457D01*
X205631577Y-120579457D01*
X205627730Y-120567619D01*
X205628591Y-120555204D01*
X205585734Y-120383775D01*
X205571561Y-120361124D01*
X205559431Y-120337317D01*
X205473717Y-120251603D01*
X205459274Y-120244244D01*
X205447727Y-120232871D01*
X205362012Y-120190014D01*
X205339214Y-120186580D01*
X205317291Y-120179457D01*
X205145863Y-120179457D01*
X205123939Y-120186580D01*
X205101141Y-120190014D01*
X205015428Y-120232871D01*
X205003880Y-120244244D01*
X204989439Y-120251603D01*
X204903724Y-120337317D01*
X204891596Y-120361118D01*
X204877420Y-120383774D01*
X204834563Y-120555204D01*
X204835423Y-120567619D01*
X204831577Y-120579457D01*
X204831577Y-120879457D01*
X204645863Y-120879457D01*
X204645863Y-120279457D01*
X204642834Y-120270135D01*
X204644032Y-120260405D01*
X204633487Y-120241369D01*
X204626765Y-120220678D01*
X204618835Y-120214916D01*
X204614085Y-120206341D01*
X204594366Y-120197138D01*
X204576765Y-120184351D01*
X204566963Y-120184351D01*
X204558079Y-120180205D01*
X204536717Y-120184351D01*
X204514961Y-120184351D01*
X204507031Y-120190112D01*
X204497408Y-120191980D01*
X204482564Y-120207888D01*
X204464961Y-120220678D01*
X204461931Y-120230001D01*
X204455245Y-120237168D01*
X204245862Y-120685843D01*
X204036481Y-120237168D01*
X204029794Y-120230001D01*
X204026765Y-120220678D01*
X204009161Y-120207888D01*
X203994318Y-120191980D01*
X203984695Y-120190112D01*
X203976765Y-120184351D01*
X203955006Y-120184351D01*
X203933647Y-120180206D01*
X203924765Y-120184351D01*
X203914961Y-120184351D01*
X203897356Y-120197141D01*
X203877641Y-120206342D01*
X203872891Y-120214916D01*
X203864961Y-120220678D01*
X203858237Y-120241370D01*
X203847694Y-120260405D01*
X203848891Y-120270135D01*
X203845863Y-120279457D01*
X203845863Y-121179457D01*
X203717292Y-121179457D01*
X203717292Y-120050886D01*
X205760148Y-120050886D01*
X205760148Y-121408028D01*
G37*
G36*
X197740969Y-121408028D02*
G01*
X196436472Y-121408028D01*
X196436472Y-121210359D01*
X196907900Y-121210359D01*
X196944227Y-121260359D01*
X197003006Y-121279457D01*
X197174435Y-121279457D01*
X197233214Y-121260359D01*
X197269541Y-121210359D01*
X197269541Y-121148555D01*
X197233214Y-121098555D01*
X197174435Y-121079457D01*
X197003006Y-121079457D01*
X196944227Y-121098555D01*
X196907900Y-121148555D01*
X196907900Y-121210359D01*
X196436472Y-121210359D01*
X196436472Y-120953216D01*
X196736472Y-120953216D01*
X196772799Y-121003216D01*
X196831578Y-121022314D01*
X197345863Y-121022314D01*
X197404642Y-121003216D01*
X197440969Y-120953216D01*
X197440969Y-120891412D01*
X197404642Y-120841412D01*
X197345863Y-120822314D01*
X196831578Y-120822314D01*
X196772799Y-120841412D01*
X196736472Y-120891412D01*
X196736472Y-120953216D01*
X196436472Y-120953216D01*
X196436472Y-120696073D01*
X196565043Y-120696073D01*
X196601370Y-120746073D01*
X196660149Y-120765171D01*
X197517292Y-120765171D01*
X197576071Y-120746073D01*
X197612398Y-120696073D01*
X197612398Y-120634269D01*
X197576071Y-120584269D01*
X197517292Y-120565171D01*
X197188720Y-120565171D01*
X197188720Y-120279457D01*
X197169622Y-120220678D01*
X197119622Y-120184351D01*
X197057818Y-120184351D01*
X197007818Y-120220678D01*
X196988720Y-120279457D01*
X196988720Y-120565171D01*
X196660149Y-120565171D01*
X196601370Y-120584269D01*
X196565043Y-120634269D01*
X196565043Y-120696073D01*
X196436472Y-120696073D01*
X196436472Y-120055780D01*
X197740969Y-120055780D01*
X197740969Y-121408028D01*
G37*
G36*
X200403005Y-121403134D02*
G01*
X198917292Y-121403134D01*
X198917292Y-121179457D01*
X199045863Y-121179457D01*
X199064961Y-121238236D01*
X199114961Y-121274563D01*
X199176765Y-121274563D01*
X199226765Y-121238236D01*
X199245863Y-121179457D01*
X199245863Y-120730213D01*
X199355245Y-120964603D01*
X199368339Y-120978636D01*
X199377641Y-120995429D01*
X199388917Y-121000691D01*
X199397408Y-121009791D01*
X199416255Y-121013448D01*
X199433647Y-121021565D01*
X199445860Y-121019194D01*
X199458079Y-121021566D01*
X199475475Y-121013447D01*
X199494318Y-121009791D01*
X199502806Y-121000693D01*
X199514085Y-120995430D01*
X199523387Y-120978635D01*
X199536481Y-120964603D01*
X199645863Y-120730212D01*
X199645863Y-121179457D01*
X199664961Y-121238236D01*
X199714961Y-121274563D01*
X199776765Y-121274563D01*
X199826765Y-121238236D01*
X199845863Y-121179457D01*
X200074434Y-121179457D01*
X200093532Y-121238236D01*
X200143532Y-121274563D01*
X200205336Y-121274563D01*
X200255336Y-121238236D01*
X200274434Y-121179457D01*
X200274434Y-120279457D01*
X200255336Y-120220678D01*
X200205336Y-120184351D01*
X200143532Y-120184351D01*
X200093532Y-120220678D01*
X200074434Y-120279457D01*
X200074434Y-121179457D01*
X199845863Y-121179457D01*
X199845863Y-120279457D01*
X199842834Y-120270135D01*
X199844032Y-120260405D01*
X199833487Y-120241369D01*
X199826765Y-120220678D01*
X199818835Y-120214916D01*
X199814085Y-120206341D01*
X199794366Y-120197138D01*
X199776765Y-120184351D01*
X199766963Y-120184351D01*
X199758079Y-120180205D01*
X199736717Y-120184351D01*
X199714961Y-120184351D01*
X199707031Y-120190112D01*
X199697408Y-120191980D01*
X199682564Y-120207888D01*
X199664961Y-120220678D01*
X199661931Y-120230001D01*
X199655245Y-120237168D01*
X199445862Y-120685843D01*
X199236481Y-120237168D01*
X199229794Y-120230001D01*
X199226765Y-120220678D01*
X199209161Y-120207888D01*
X199194318Y-120191980D01*
X199184695Y-120190112D01*
X199176765Y-120184351D01*
X199155006Y-120184351D01*
X199133647Y-120180206D01*
X199124765Y-120184351D01*
X199114961Y-120184351D01*
X199097356Y-120197141D01*
X199077641Y-120206342D01*
X199072891Y-120214916D01*
X199064961Y-120220678D01*
X199058237Y-120241370D01*
X199047694Y-120260405D01*
X199048891Y-120270135D01*
X199045863Y-120279457D01*
X199045863Y-121179457D01*
X198917292Y-121179457D01*
X198917292Y-120051634D01*
X200403005Y-120051634D01*
X200403005Y-121403134D01*
G37*
G36*
X208198344Y-116808028D02*
G01*
X206332808Y-116808028D01*
X206332808Y-116509384D01*
X206461379Y-116509384D01*
X206489437Y-116564452D01*
X206532295Y-116607310D01*
X206546736Y-116614668D01*
X206558285Y-116626043D01*
X206643998Y-116668900D01*
X206666796Y-116672333D01*
X206688720Y-116679457D01*
X206945863Y-116679457D01*
X206967786Y-116672333D01*
X206990584Y-116668900D01*
X207076299Y-116626043D01*
X207087847Y-116614668D01*
X207102290Y-116607310D01*
X207145147Y-116564452D01*
X207152505Y-116550009D01*
X207163878Y-116538463D01*
X207206735Y-116452750D01*
X207210168Y-116429951D01*
X207217292Y-116408028D01*
X207217292Y-116193742D01*
X207210168Y-116171818D01*
X207206735Y-116149020D01*
X207163878Y-116063307D01*
X207152504Y-116051759D01*
X207145146Y-116037317D01*
X207102289Y-115994460D01*
X207087846Y-115987101D01*
X207076299Y-115975728D01*
X207016912Y-115946035D01*
X207192550Y-115745307D01*
X207200510Y-115726720D01*
X207212398Y-115710359D01*
X207212398Y-115698966D01*
X207216883Y-115688495D01*
X207212398Y-115668776D01*
X207212398Y-115649278D01*
X207279097Y-115649278D01*
X207279567Y-115711080D01*
X207579567Y-116611079D01*
X207597477Y-116635342D01*
X207615044Y-116659910D01*
X207615798Y-116660161D01*
X207616272Y-116660803D01*
X207645037Y-116669908D01*
X207673676Y-116679455D01*
X207674436Y-116679214D01*
X207675194Y-116679454D01*
X207703772Y-116669927D01*
X207732598Y-116660803D01*
X207733071Y-116660161D01*
X207733826Y-116659910D01*
X207751380Y-116635358D01*
X207769303Y-116611080D01*
X208069303Y-115711080D01*
X208069773Y-115649278D01*
X208033826Y-115599004D01*
X207975194Y-115579460D01*
X207916272Y-115598111D01*
X207879567Y-115647835D01*
X207674435Y-116263230D01*
X207469303Y-115647834D01*
X207432598Y-115598111D01*
X207373676Y-115579459D01*
X207315044Y-115599004D01*
X207279097Y-115649278D01*
X207212398Y-115649278D01*
X207212398Y-115648555D01*
X207205702Y-115639339D01*
X207203176Y-115628231D01*
X207187956Y-115614913D01*
X207176071Y-115598555D01*
X207165237Y-115595035D01*
X207156664Y-115587533D01*
X207136521Y-115585704D01*
X207117292Y-115579457D01*
X206560149Y-115579457D01*
X206501370Y-115598555D01*
X206465043Y-115648555D01*
X206465043Y-115710359D01*
X206501370Y-115760359D01*
X206560149Y-115779457D01*
X206896915Y-115779457D01*
X206742034Y-115956464D01*
X206734072Y-115975051D01*
X206722186Y-115991412D01*
X206722185Y-116002803D01*
X206717701Y-116013275D01*
X206722186Y-116032993D01*
X206722186Y-116053216D01*
X206728881Y-116062431D01*
X206731408Y-116073539D01*
X206746626Y-116086855D01*
X206758513Y-116103216D01*
X206769346Y-116106735D01*
X206777920Y-116114238D01*
X206798062Y-116116065D01*
X206817292Y-116122314D01*
X206922256Y-116122314D01*
X206972341Y-116147356D01*
X206992250Y-116167265D01*
X207017292Y-116217348D01*
X207017292Y-116384421D01*
X206992248Y-116434507D01*
X206972341Y-116454414D01*
X206922256Y-116479457D01*
X206712327Y-116479457D01*
X206662243Y-116454415D01*
X206630861Y-116423032D01*
X206575793Y-116394973D01*
X206514751Y-116404640D01*
X206471048Y-116448342D01*
X206461379Y-116509384D01*
X206332808Y-116509384D01*
X206332808Y-115450886D01*
X208198344Y-115450886D01*
X208198344Y-116808028D01*
G37*
G36*
X203188709Y-116808028D02*
G01*
X201274435Y-116808028D01*
X201274435Y-116193742D01*
X201403006Y-116193742D01*
X201406852Y-116205579D01*
X201405992Y-116217995D01*
X201448849Y-116389425D01*
X201454760Y-116398871D01*
X201456420Y-116409892D01*
X201499277Y-116495606D01*
X201510650Y-116507153D01*
X201518009Y-116521596D01*
X201603724Y-116607310D01*
X201624263Y-116617775D01*
X201642812Y-116631468D01*
X201771383Y-116674325D01*
X201787590Y-116674448D01*
X201803006Y-116679457D01*
X201888720Y-116679457D01*
X201904135Y-116674448D01*
X201920343Y-116674325D01*
X202048915Y-116631468D01*
X202067461Y-116617776D01*
X202088004Y-116607310D01*
X202115856Y-116579457D01*
X202345863Y-116579457D01*
X202364961Y-116638236D01*
X202414961Y-116674563D01*
X202476765Y-116674563D01*
X202526765Y-116638236D01*
X202545863Y-116579457D01*
X202545863Y-116235164D01*
X202563615Y-116217411D01*
X202880149Y-116639457D01*
X202930695Y-116675021D01*
X202992491Y-116674083D01*
X203041934Y-116637000D01*
X203060138Y-116577939D01*
X203040149Y-116519457D01*
X202706472Y-116074554D01*
X203030860Y-115750167D01*
X203058919Y-115695100D01*
X203049250Y-115634058D01*
X203005549Y-115590356D01*
X202944506Y-115580687D01*
X202889439Y-115608746D01*
X202545863Y-115952320D01*
X202545863Y-115679457D01*
X202526765Y-115620678D01*
X202476765Y-115584351D01*
X202414961Y-115584351D01*
X202364961Y-115620678D01*
X202345863Y-115679457D01*
X202345863Y-116579457D01*
X202115856Y-116579457D01*
X202130861Y-116564452D01*
X202158919Y-116509384D01*
X202149250Y-116448342D01*
X202105547Y-116404640D01*
X202044505Y-116394973D01*
X201989438Y-116423032D01*
X201963273Y-116449196D01*
X201872493Y-116479457D01*
X201819233Y-116479457D01*
X201728453Y-116449197D01*
X201670905Y-116391649D01*
X201640213Y-116330265D01*
X201603006Y-116181433D01*
X201603006Y-116077479D01*
X201640213Y-115928647D01*
X201670906Y-115867262D01*
X201728453Y-115809716D01*
X201819233Y-115779457D01*
X201872493Y-115779457D01*
X201963273Y-115809717D01*
X201989438Y-115835882D01*
X202044506Y-115863940D01*
X202105548Y-115854272D01*
X202149250Y-115810570D01*
X202158918Y-115749528D01*
X202130860Y-115694460D01*
X202088003Y-115651603D01*
X202067461Y-115641136D01*
X202048915Y-115627446D01*
X201920343Y-115584589D01*
X201904135Y-115584465D01*
X201888720Y-115579457D01*
X201803006Y-115579457D01*
X201787590Y-115584465D01*
X201771383Y-115584589D01*
X201642812Y-115627446D01*
X201624265Y-115641137D01*
X201603725Y-115651603D01*
X201518010Y-115737317D01*
X201510651Y-115751758D01*
X201499277Y-115763307D01*
X201456420Y-115849021D01*
X201454760Y-115860041D01*
X201448849Y-115869488D01*
X201405992Y-116040918D01*
X201406852Y-116053333D01*
X201403006Y-116065171D01*
X201403006Y-116193742D01*
X201274435Y-116193742D01*
X201274435Y-115450886D01*
X203188709Y-115450886D01*
X203188709Y-116808028D01*
G37*
G36*
X210745863Y-116808028D02*
G01*
X208874435Y-116808028D01*
X208874435Y-116193742D01*
X209003006Y-116193742D01*
X209006852Y-116205579D01*
X209005992Y-116217995D01*
X209048849Y-116389425D01*
X209054760Y-116398871D01*
X209056420Y-116409892D01*
X209099277Y-116495606D01*
X209110650Y-116507153D01*
X209118009Y-116521596D01*
X209203724Y-116607310D01*
X209224263Y-116617775D01*
X209242812Y-116631468D01*
X209371383Y-116674325D01*
X209387590Y-116674448D01*
X209403006Y-116679457D01*
X209488720Y-116679457D01*
X209504135Y-116674448D01*
X209520343Y-116674325D01*
X209648915Y-116631468D01*
X209667461Y-116617776D01*
X209688004Y-116607310D01*
X209730861Y-116564452D01*
X209758919Y-116509384D01*
X209749250Y-116448342D01*
X209705547Y-116404640D01*
X209644505Y-116394973D01*
X209589438Y-116423032D01*
X209563273Y-116449196D01*
X209472493Y-116479457D01*
X209419233Y-116479457D01*
X209328453Y-116449197D01*
X209270905Y-116391649D01*
X209240213Y-116330265D01*
X209203006Y-116181433D01*
X209203006Y-116077479D01*
X209238225Y-115936600D01*
X209903006Y-115936600D01*
X209910129Y-115958523D01*
X209913563Y-115981321D01*
X209956420Y-116067035D01*
X209967793Y-116078582D01*
X209975152Y-116093025D01*
X210018009Y-116135882D01*
X210032451Y-116143240D01*
X210043999Y-116154614D01*
X210129714Y-116197471D01*
X210140734Y-116199130D01*
X210150181Y-116205042D01*
X210310959Y-116245236D01*
X210372341Y-116275927D01*
X210392249Y-116295835D01*
X210417292Y-116345920D01*
X210417292Y-116384421D01*
X210392248Y-116434507D01*
X210372341Y-116454414D01*
X210322256Y-116479457D01*
X210147805Y-116479457D01*
X210034629Y-116441732D01*
X209972827Y-116441262D01*
X209922552Y-116477209D01*
X209903008Y-116535841D01*
X209921660Y-116594763D01*
X209971383Y-116631468D01*
X210099956Y-116674326D01*
X210116164Y-116674449D01*
X210131578Y-116679457D01*
X210345863Y-116679457D01*
X210367786Y-116672333D01*
X210390584Y-116668900D01*
X210476299Y-116626043D01*
X210487847Y-116614668D01*
X210502290Y-116607310D01*
X210545147Y-116564452D01*
X210552505Y-116550009D01*
X210563878Y-116538463D01*
X210606735Y-116452750D01*
X210610168Y-116429951D01*
X210617292Y-116408028D01*
X210617292Y-116322314D01*
X210610168Y-116300390D01*
X210606735Y-116277592D01*
X210563878Y-116191879D01*
X210552505Y-116180332D01*
X210545147Y-116165890D01*
X210502290Y-116123032D01*
X210487847Y-116115673D01*
X210476299Y-116104299D01*
X210390584Y-116061442D01*
X210379563Y-116059782D01*
X210370117Y-116053871D01*
X210209338Y-116013676D01*
X210147956Y-115982985D01*
X210128048Y-115963077D01*
X210103006Y-115912992D01*
X210103006Y-115874492D01*
X210128048Y-115824407D01*
X210147956Y-115804499D01*
X210198042Y-115779457D01*
X210372493Y-115779457D01*
X210485670Y-115817183D01*
X210547472Y-115817652D01*
X210597746Y-115781705D01*
X210617290Y-115723073D01*
X210598638Y-115664151D01*
X210548915Y-115627446D01*
X210420343Y-115584589D01*
X210404135Y-115584465D01*
X210388720Y-115579457D01*
X210174435Y-115579457D01*
X210152511Y-115586580D01*
X210129714Y-115590014D01*
X210043999Y-115632871D01*
X210032451Y-115644244D01*
X210018009Y-115651603D01*
X209975152Y-115694460D01*
X209967793Y-115708902D01*
X209956420Y-115720450D01*
X209913563Y-115806164D01*
X209910129Y-115828961D01*
X209903006Y-115850885D01*
X209903006Y-115936600D01*
X209238225Y-115936600D01*
X209240213Y-115928647D01*
X209270906Y-115867262D01*
X209328453Y-115809716D01*
X209419233Y-115779457D01*
X209472493Y-115779457D01*
X209563273Y-115809717D01*
X209589438Y-115835882D01*
X209644506Y-115863940D01*
X209705548Y-115854272D01*
X209749250Y-115810570D01*
X209758918Y-115749528D01*
X209730860Y-115694460D01*
X209688003Y-115651603D01*
X209667461Y-115641136D01*
X209648915Y-115627446D01*
X209520343Y-115584589D01*
X209504135Y-115584465D01*
X209488720Y-115579457D01*
X209403006Y-115579457D01*
X209387590Y-115584465D01*
X209371383Y-115584589D01*
X209242812Y-115627446D01*
X209224265Y-115641137D01*
X209203725Y-115651603D01*
X209118010Y-115737317D01*
X209110651Y-115751758D01*
X209099277Y-115763307D01*
X209056420Y-115849021D01*
X209054760Y-115860041D01*
X209048849Y-115869488D01*
X209005992Y-116040918D01*
X209006852Y-116053333D01*
X209003006Y-116065171D01*
X209003006Y-116193742D01*
X208874435Y-116193742D01*
X208874435Y-115450886D01*
X210745863Y-115450886D01*
X210745863Y-116808028D01*
G37*
G36*
X205343769Y-115804499D02*
G01*
X205398424Y-115859154D01*
X205431577Y-115991766D01*
X205431577Y-116267146D01*
X205398423Y-116399759D01*
X205343770Y-116454414D01*
X205293684Y-116479457D01*
X205169470Y-116479457D01*
X205119384Y-116454414D01*
X205064730Y-116399759D01*
X205031577Y-116267147D01*
X205031577Y-115991765D01*
X205064729Y-115859153D01*
X205119385Y-115804499D01*
X205169470Y-115779457D01*
X205293684Y-115779457D01*
X205343769Y-115804499D01*
G37*
G36*
X205760148Y-116808028D02*
G01*
X203717292Y-116808028D01*
X203717292Y-116579457D01*
X203845863Y-116579457D01*
X203864961Y-116638236D01*
X203914961Y-116674563D01*
X203976765Y-116674563D01*
X204026765Y-116638236D01*
X204045863Y-116579457D01*
X204045863Y-116130213D01*
X204155245Y-116364603D01*
X204168339Y-116378636D01*
X204177641Y-116395429D01*
X204188917Y-116400691D01*
X204197408Y-116409791D01*
X204216255Y-116413448D01*
X204233647Y-116421565D01*
X204245860Y-116419194D01*
X204258079Y-116421566D01*
X204275475Y-116413447D01*
X204294318Y-116409791D01*
X204302806Y-116400693D01*
X204314085Y-116395430D01*
X204323387Y-116378635D01*
X204336481Y-116364603D01*
X204445863Y-116130212D01*
X204445863Y-116579457D01*
X204464961Y-116638236D01*
X204514961Y-116674563D01*
X204576765Y-116674563D01*
X204626765Y-116638236D01*
X204645863Y-116579457D01*
X204645863Y-116279457D01*
X204831577Y-116279457D01*
X204835423Y-116291294D01*
X204834563Y-116303711D01*
X204877420Y-116475139D01*
X204891592Y-116497787D01*
X204903723Y-116521596D01*
X204989438Y-116607310D01*
X205003879Y-116614668D01*
X205015428Y-116626043D01*
X205101141Y-116668900D01*
X205123939Y-116672333D01*
X205145863Y-116679457D01*
X205317291Y-116679457D01*
X205339214Y-116672333D01*
X205362012Y-116668900D01*
X205447727Y-116626043D01*
X205459276Y-116614668D01*
X205473717Y-116607310D01*
X205559431Y-116521595D01*
X205571561Y-116497788D01*
X205585734Y-116475139D01*
X205628591Y-116303711D01*
X205627730Y-116291294D01*
X205631577Y-116279457D01*
X205631577Y-115979457D01*
X205627730Y-115967619D01*
X205628591Y-115955204D01*
X205585734Y-115783775D01*
X205571561Y-115761124D01*
X205559431Y-115737317D01*
X205473717Y-115651603D01*
X205459274Y-115644244D01*
X205447727Y-115632871D01*
X205362012Y-115590014D01*
X205339214Y-115586580D01*
X205317291Y-115579457D01*
X205145863Y-115579457D01*
X205123939Y-115586580D01*
X205101141Y-115590014D01*
X205015428Y-115632871D01*
X205003880Y-115644244D01*
X204989439Y-115651603D01*
X204903724Y-115737317D01*
X204891596Y-115761118D01*
X204877420Y-115783774D01*
X204834563Y-115955204D01*
X204835423Y-115967619D01*
X204831577Y-115979457D01*
X204831577Y-116279457D01*
X204645863Y-116279457D01*
X204645863Y-115679457D01*
X204642834Y-115670135D01*
X204644032Y-115660405D01*
X204633487Y-115641369D01*
X204626765Y-115620678D01*
X204618835Y-115614916D01*
X204614085Y-115606341D01*
X204594366Y-115597138D01*
X204576765Y-115584351D01*
X204566963Y-115584351D01*
X204558079Y-115580205D01*
X204536717Y-115584351D01*
X204514961Y-115584351D01*
X204507031Y-115590112D01*
X204497408Y-115591980D01*
X204482564Y-115607888D01*
X204464961Y-115620678D01*
X204461931Y-115630001D01*
X204455245Y-115637168D01*
X204245862Y-116085843D01*
X204036481Y-115637168D01*
X204029794Y-115630001D01*
X204026765Y-115620678D01*
X204009161Y-115607888D01*
X203994318Y-115591980D01*
X203984695Y-115590112D01*
X203976765Y-115584351D01*
X203955006Y-115584351D01*
X203933647Y-115580206D01*
X203924765Y-115584351D01*
X203914961Y-115584351D01*
X203897356Y-115597141D01*
X203877641Y-115606342D01*
X203872891Y-115614916D01*
X203864961Y-115620678D01*
X203858237Y-115641370D01*
X203847694Y-115660405D01*
X203848891Y-115670135D01*
X203845863Y-115679457D01*
X203845863Y-116579457D01*
X203717292Y-116579457D01*
X203717292Y-115450886D01*
X205760148Y-115450886D01*
X205760148Y-116808028D01*
G37*
G36*
X197740969Y-116808028D02*
G01*
X196436472Y-116808028D01*
X196436472Y-116610359D01*
X196907900Y-116610359D01*
X196944227Y-116660359D01*
X197003006Y-116679457D01*
X197174435Y-116679457D01*
X197233214Y-116660359D01*
X197269541Y-116610359D01*
X197269541Y-116548555D01*
X197233214Y-116498555D01*
X197174435Y-116479457D01*
X197003006Y-116479457D01*
X196944227Y-116498555D01*
X196907900Y-116548555D01*
X196907900Y-116610359D01*
X196436472Y-116610359D01*
X196436472Y-116353216D01*
X196736472Y-116353216D01*
X196772799Y-116403216D01*
X196831578Y-116422314D01*
X197345863Y-116422314D01*
X197404642Y-116403216D01*
X197440969Y-116353216D01*
X197440969Y-116291412D01*
X197404642Y-116241412D01*
X197345863Y-116222314D01*
X196831578Y-116222314D01*
X196772799Y-116241412D01*
X196736472Y-116291412D01*
X196736472Y-116353216D01*
X196436472Y-116353216D01*
X196436472Y-116096073D01*
X196565043Y-116096073D01*
X196601370Y-116146073D01*
X196660149Y-116165171D01*
X197517292Y-116165171D01*
X197576071Y-116146073D01*
X197612398Y-116096073D01*
X197612398Y-116034269D01*
X197576071Y-115984269D01*
X197517292Y-115965171D01*
X197188720Y-115965171D01*
X197188720Y-115679457D01*
X197169622Y-115620678D01*
X197119622Y-115584351D01*
X197057818Y-115584351D01*
X197007818Y-115620678D01*
X196988720Y-115679457D01*
X196988720Y-115965171D01*
X196660149Y-115965171D01*
X196601370Y-115984269D01*
X196565043Y-116034269D01*
X196565043Y-116096073D01*
X196436472Y-116096073D01*
X196436472Y-115455780D01*
X197740969Y-115455780D01*
X197740969Y-116808028D01*
G37*
G36*
X200403005Y-116803134D02*
G01*
X198917292Y-116803134D01*
X198917292Y-116579457D01*
X199045863Y-116579457D01*
X199064961Y-116638236D01*
X199114961Y-116674563D01*
X199176765Y-116674563D01*
X199226765Y-116638236D01*
X199245863Y-116579457D01*
X199245863Y-116130213D01*
X199355245Y-116364603D01*
X199368339Y-116378636D01*
X199377641Y-116395429D01*
X199388917Y-116400691D01*
X199397408Y-116409791D01*
X199416255Y-116413448D01*
X199433647Y-116421565D01*
X199445860Y-116419194D01*
X199458079Y-116421566D01*
X199475475Y-116413447D01*
X199494318Y-116409791D01*
X199502806Y-116400693D01*
X199514085Y-116395430D01*
X199523387Y-116378635D01*
X199536481Y-116364603D01*
X199645863Y-116130212D01*
X199645863Y-116579457D01*
X199664961Y-116638236D01*
X199714961Y-116674563D01*
X199776765Y-116674563D01*
X199826765Y-116638236D01*
X199845863Y-116579457D01*
X200074434Y-116579457D01*
X200093532Y-116638236D01*
X200143532Y-116674563D01*
X200205336Y-116674563D01*
X200255336Y-116638236D01*
X200274434Y-116579457D01*
X200274434Y-115679457D01*
X200255336Y-115620678D01*
X200205336Y-115584351D01*
X200143532Y-115584351D01*
X200093532Y-115620678D01*
X200074434Y-115679457D01*
X200074434Y-116579457D01*
X199845863Y-116579457D01*
X199845863Y-115679457D01*
X199842834Y-115670135D01*
X199844032Y-115660405D01*
X199833487Y-115641369D01*
X199826765Y-115620678D01*
X199818835Y-115614916D01*
X199814085Y-115606341D01*
X199794366Y-115597138D01*
X199776765Y-115584351D01*
X199766963Y-115584351D01*
X199758079Y-115580205D01*
X199736717Y-115584351D01*
X199714961Y-115584351D01*
X199707031Y-115590112D01*
X199697408Y-115591980D01*
X199682564Y-115607888D01*
X199664961Y-115620678D01*
X199661931Y-115630001D01*
X199655245Y-115637168D01*
X199445862Y-116085843D01*
X199236481Y-115637168D01*
X199229794Y-115630001D01*
X199226765Y-115620678D01*
X199209161Y-115607888D01*
X199194318Y-115591980D01*
X199184695Y-115590112D01*
X199176765Y-115584351D01*
X199155006Y-115584351D01*
X199133647Y-115580206D01*
X199124765Y-115584351D01*
X199114961Y-115584351D01*
X199097356Y-115597141D01*
X199077641Y-115606342D01*
X199072891Y-115614916D01*
X199064961Y-115620678D01*
X199058237Y-115641370D01*
X199047694Y-115660405D01*
X199048891Y-115670135D01*
X199045863Y-115679457D01*
X199045863Y-116579457D01*
X198917292Y-116579457D01*
X198917292Y-115451634D01*
X200403005Y-115451634D01*
X200403005Y-116803134D01*
G37*
G36*
X208198344Y-112208028D02*
G01*
X206332808Y-112208028D01*
X206332808Y-111909384D01*
X206461379Y-111909384D01*
X206489437Y-111964452D01*
X206532295Y-112007310D01*
X206546736Y-112014668D01*
X206558285Y-112026043D01*
X206643998Y-112068900D01*
X206666796Y-112072333D01*
X206688720Y-112079457D01*
X206945863Y-112079457D01*
X206967786Y-112072333D01*
X206990584Y-112068900D01*
X207076299Y-112026043D01*
X207087847Y-112014668D01*
X207102290Y-112007310D01*
X207145147Y-111964452D01*
X207152505Y-111950009D01*
X207163878Y-111938463D01*
X207206735Y-111852750D01*
X207210168Y-111829951D01*
X207217292Y-111808028D01*
X207217292Y-111593742D01*
X207210168Y-111571818D01*
X207206735Y-111549020D01*
X207163878Y-111463307D01*
X207152504Y-111451759D01*
X207145146Y-111437317D01*
X207102289Y-111394460D01*
X207087846Y-111387101D01*
X207076299Y-111375728D01*
X207016912Y-111346035D01*
X207192550Y-111145307D01*
X207200510Y-111126720D01*
X207212398Y-111110359D01*
X207212398Y-111098966D01*
X207216883Y-111088495D01*
X207212398Y-111068776D01*
X207212398Y-111049278D01*
X207279097Y-111049278D01*
X207279567Y-111111080D01*
X207579567Y-112011079D01*
X207597477Y-112035342D01*
X207615044Y-112059910D01*
X207615798Y-112060161D01*
X207616272Y-112060803D01*
X207645037Y-112069908D01*
X207673676Y-112079455D01*
X207674436Y-112079214D01*
X207675194Y-112079454D01*
X207703772Y-112069927D01*
X207732598Y-112060803D01*
X207733071Y-112060161D01*
X207733826Y-112059910D01*
X207751380Y-112035358D01*
X207769303Y-112011080D01*
X208069303Y-111111080D01*
X208069773Y-111049278D01*
X208033826Y-110999004D01*
X207975194Y-110979460D01*
X207916272Y-110998111D01*
X207879567Y-111047835D01*
X207674435Y-111663230D01*
X207469303Y-111047834D01*
X207432598Y-110998111D01*
X207373676Y-110979459D01*
X207315044Y-110999004D01*
X207279097Y-111049278D01*
X207212398Y-111049278D01*
X207212398Y-111048555D01*
X207205702Y-111039339D01*
X207203176Y-111028231D01*
X207187956Y-111014913D01*
X207176071Y-110998555D01*
X207165237Y-110995035D01*
X207156664Y-110987533D01*
X207136521Y-110985704D01*
X207117292Y-110979457D01*
X206560149Y-110979457D01*
X206501370Y-110998555D01*
X206465043Y-111048555D01*
X206465043Y-111110359D01*
X206501370Y-111160359D01*
X206560149Y-111179457D01*
X206896915Y-111179457D01*
X206742034Y-111356464D01*
X206734072Y-111375051D01*
X206722186Y-111391412D01*
X206722185Y-111402803D01*
X206717701Y-111413275D01*
X206722186Y-111432993D01*
X206722186Y-111453216D01*
X206728881Y-111462431D01*
X206731408Y-111473539D01*
X206746626Y-111486855D01*
X206758513Y-111503216D01*
X206769346Y-111506735D01*
X206777920Y-111514238D01*
X206798062Y-111516065D01*
X206817292Y-111522314D01*
X206922256Y-111522314D01*
X206972341Y-111547356D01*
X206992250Y-111567265D01*
X207017292Y-111617348D01*
X207017292Y-111784421D01*
X206992248Y-111834507D01*
X206972341Y-111854414D01*
X206922256Y-111879457D01*
X206712327Y-111879457D01*
X206662243Y-111854415D01*
X206630861Y-111823032D01*
X206575793Y-111794973D01*
X206514751Y-111804640D01*
X206471048Y-111848342D01*
X206461379Y-111909384D01*
X206332808Y-111909384D01*
X206332808Y-110850886D01*
X208198344Y-110850886D01*
X208198344Y-112208028D01*
G37*
G36*
X203188709Y-112208028D02*
G01*
X201274435Y-112208028D01*
X201274435Y-111593742D01*
X201403006Y-111593742D01*
X201406852Y-111605579D01*
X201405992Y-111617995D01*
X201448849Y-111789425D01*
X201454760Y-111798871D01*
X201456420Y-111809892D01*
X201499277Y-111895606D01*
X201510650Y-111907153D01*
X201518009Y-111921596D01*
X201603724Y-112007310D01*
X201624263Y-112017775D01*
X201642812Y-112031468D01*
X201771383Y-112074325D01*
X201787590Y-112074448D01*
X201803006Y-112079457D01*
X201888720Y-112079457D01*
X201904135Y-112074448D01*
X201920343Y-112074325D01*
X202048915Y-112031468D01*
X202067461Y-112017776D01*
X202088004Y-112007310D01*
X202115856Y-111979457D01*
X202345863Y-111979457D01*
X202364961Y-112038236D01*
X202414961Y-112074563D01*
X202476765Y-112074563D01*
X202526765Y-112038236D01*
X202545863Y-111979457D01*
X202545863Y-111635164D01*
X202563615Y-111617411D01*
X202880149Y-112039457D01*
X202930695Y-112075021D01*
X202992491Y-112074083D01*
X203041934Y-112037000D01*
X203060138Y-111977939D01*
X203040149Y-111919457D01*
X202706472Y-111474554D01*
X203030860Y-111150167D01*
X203058919Y-111095100D01*
X203049250Y-111034058D01*
X203005549Y-110990356D01*
X202944506Y-110980687D01*
X202889439Y-111008746D01*
X202545863Y-111352320D01*
X202545863Y-111079457D01*
X202526765Y-111020678D01*
X202476765Y-110984351D01*
X202414961Y-110984351D01*
X202364961Y-111020678D01*
X202345863Y-111079457D01*
X202345863Y-111979457D01*
X202115856Y-111979457D01*
X202130861Y-111964452D01*
X202158919Y-111909384D01*
X202149250Y-111848342D01*
X202105547Y-111804640D01*
X202044505Y-111794973D01*
X201989438Y-111823032D01*
X201963273Y-111849196D01*
X201872493Y-111879457D01*
X201819233Y-111879457D01*
X201728453Y-111849197D01*
X201670905Y-111791649D01*
X201640213Y-111730265D01*
X201603006Y-111581433D01*
X201603006Y-111477479D01*
X201640213Y-111328647D01*
X201670906Y-111267262D01*
X201728453Y-111209716D01*
X201819233Y-111179457D01*
X201872493Y-111179457D01*
X201963273Y-111209717D01*
X201989438Y-111235882D01*
X202044506Y-111263940D01*
X202105548Y-111254272D01*
X202149250Y-111210570D01*
X202158918Y-111149528D01*
X202130860Y-111094460D01*
X202088003Y-111051603D01*
X202067461Y-111041136D01*
X202048915Y-111027446D01*
X201920343Y-110984589D01*
X201904135Y-110984465D01*
X201888720Y-110979457D01*
X201803006Y-110979457D01*
X201787590Y-110984465D01*
X201771383Y-110984589D01*
X201642812Y-111027446D01*
X201624265Y-111041137D01*
X201603725Y-111051603D01*
X201518010Y-111137317D01*
X201510651Y-111151758D01*
X201499277Y-111163307D01*
X201456420Y-111249021D01*
X201454760Y-111260041D01*
X201448849Y-111269488D01*
X201405992Y-111440918D01*
X201406852Y-111453333D01*
X201403006Y-111465171D01*
X201403006Y-111593742D01*
X201274435Y-111593742D01*
X201274435Y-110850886D01*
X203188709Y-110850886D01*
X203188709Y-112208028D01*
G37*
G36*
X210745863Y-112208028D02*
G01*
X208874435Y-112208028D01*
X208874435Y-111593742D01*
X209003006Y-111593742D01*
X209006852Y-111605579D01*
X209005992Y-111617995D01*
X209048849Y-111789425D01*
X209054760Y-111798871D01*
X209056420Y-111809892D01*
X209099277Y-111895606D01*
X209110650Y-111907153D01*
X209118009Y-111921596D01*
X209203724Y-112007310D01*
X209224263Y-112017775D01*
X209242812Y-112031468D01*
X209371383Y-112074325D01*
X209387590Y-112074448D01*
X209403006Y-112079457D01*
X209488720Y-112079457D01*
X209504135Y-112074448D01*
X209520343Y-112074325D01*
X209648915Y-112031468D01*
X209667461Y-112017776D01*
X209688004Y-112007310D01*
X209730861Y-111964452D01*
X209758919Y-111909384D01*
X209749250Y-111848342D01*
X209705547Y-111804640D01*
X209644505Y-111794973D01*
X209589438Y-111823032D01*
X209563273Y-111849196D01*
X209472493Y-111879457D01*
X209419233Y-111879457D01*
X209328453Y-111849197D01*
X209270905Y-111791649D01*
X209240213Y-111730265D01*
X209203006Y-111581433D01*
X209203006Y-111477479D01*
X209238225Y-111336600D01*
X209903006Y-111336600D01*
X209910129Y-111358523D01*
X209913563Y-111381321D01*
X209956420Y-111467035D01*
X209967793Y-111478582D01*
X209975152Y-111493025D01*
X210018009Y-111535882D01*
X210032451Y-111543240D01*
X210043999Y-111554614D01*
X210129714Y-111597471D01*
X210140734Y-111599130D01*
X210150181Y-111605042D01*
X210310959Y-111645236D01*
X210372341Y-111675927D01*
X210392249Y-111695835D01*
X210417292Y-111745920D01*
X210417292Y-111784421D01*
X210392248Y-111834507D01*
X210372341Y-111854414D01*
X210322256Y-111879457D01*
X210147805Y-111879457D01*
X210034629Y-111841732D01*
X209972827Y-111841262D01*
X209922552Y-111877209D01*
X209903008Y-111935841D01*
X209921660Y-111994763D01*
X209971383Y-112031468D01*
X210099956Y-112074326D01*
X210116164Y-112074449D01*
X210131578Y-112079457D01*
X210345863Y-112079457D01*
X210367786Y-112072333D01*
X210390584Y-112068900D01*
X210476299Y-112026043D01*
X210487847Y-112014668D01*
X210502290Y-112007310D01*
X210545147Y-111964452D01*
X210552505Y-111950009D01*
X210563878Y-111938463D01*
X210606735Y-111852750D01*
X210610168Y-111829951D01*
X210617292Y-111808028D01*
X210617292Y-111722314D01*
X210610168Y-111700390D01*
X210606735Y-111677592D01*
X210563878Y-111591879D01*
X210552505Y-111580332D01*
X210545147Y-111565890D01*
X210502290Y-111523032D01*
X210487847Y-111515673D01*
X210476299Y-111504299D01*
X210390584Y-111461442D01*
X210379563Y-111459782D01*
X210370117Y-111453871D01*
X210209338Y-111413676D01*
X210147956Y-111382985D01*
X210128048Y-111363077D01*
X210103006Y-111312992D01*
X210103006Y-111274492D01*
X210128048Y-111224407D01*
X210147956Y-111204499D01*
X210198042Y-111179457D01*
X210372493Y-111179457D01*
X210485670Y-111217183D01*
X210547472Y-111217652D01*
X210597746Y-111181705D01*
X210617290Y-111123073D01*
X210598638Y-111064151D01*
X210548915Y-111027446D01*
X210420343Y-110984589D01*
X210404135Y-110984465D01*
X210388720Y-110979457D01*
X210174435Y-110979457D01*
X210152511Y-110986580D01*
X210129714Y-110990014D01*
X210043999Y-111032871D01*
X210032451Y-111044244D01*
X210018009Y-111051603D01*
X209975152Y-111094460D01*
X209967793Y-111108902D01*
X209956420Y-111120450D01*
X209913563Y-111206164D01*
X209910129Y-111228961D01*
X209903006Y-111250885D01*
X209903006Y-111336600D01*
X209238225Y-111336600D01*
X209240213Y-111328647D01*
X209270906Y-111267262D01*
X209328453Y-111209716D01*
X209419233Y-111179457D01*
X209472493Y-111179457D01*
X209563273Y-111209717D01*
X209589438Y-111235882D01*
X209644506Y-111263940D01*
X209705548Y-111254272D01*
X209749250Y-111210570D01*
X209758918Y-111149528D01*
X209730860Y-111094460D01*
X209688003Y-111051603D01*
X209667461Y-111041136D01*
X209648915Y-111027446D01*
X209520343Y-110984589D01*
X209504135Y-110984465D01*
X209488720Y-110979457D01*
X209403006Y-110979457D01*
X209387590Y-110984465D01*
X209371383Y-110984589D01*
X209242812Y-111027446D01*
X209224265Y-111041137D01*
X209203725Y-111051603D01*
X209118010Y-111137317D01*
X209110651Y-111151758D01*
X209099277Y-111163307D01*
X209056420Y-111249021D01*
X209054760Y-111260041D01*
X209048849Y-111269488D01*
X209005992Y-111440918D01*
X209006852Y-111453333D01*
X209003006Y-111465171D01*
X209003006Y-111593742D01*
X208874435Y-111593742D01*
X208874435Y-110850886D01*
X210745863Y-110850886D01*
X210745863Y-112208028D01*
G37*
G36*
X205343769Y-111204499D02*
G01*
X205398424Y-111259154D01*
X205431577Y-111391766D01*
X205431577Y-111667146D01*
X205398423Y-111799759D01*
X205343770Y-111854414D01*
X205293684Y-111879457D01*
X205169470Y-111879457D01*
X205119384Y-111854414D01*
X205064730Y-111799759D01*
X205031577Y-111667147D01*
X205031577Y-111391765D01*
X205064729Y-111259153D01*
X205119385Y-111204499D01*
X205169470Y-111179457D01*
X205293684Y-111179457D01*
X205343769Y-111204499D01*
G37*
G36*
X205760148Y-112208028D02*
G01*
X203717292Y-112208028D01*
X203717292Y-111979457D01*
X203845863Y-111979457D01*
X203864961Y-112038236D01*
X203914961Y-112074563D01*
X203976765Y-112074563D01*
X204026765Y-112038236D01*
X204045863Y-111979457D01*
X204045863Y-111530213D01*
X204155245Y-111764603D01*
X204168339Y-111778636D01*
X204177641Y-111795429D01*
X204188917Y-111800691D01*
X204197408Y-111809791D01*
X204216255Y-111813448D01*
X204233647Y-111821565D01*
X204245860Y-111819194D01*
X204258079Y-111821566D01*
X204275475Y-111813447D01*
X204294318Y-111809791D01*
X204302806Y-111800693D01*
X204314085Y-111795430D01*
X204323387Y-111778635D01*
X204336481Y-111764603D01*
X204445863Y-111530212D01*
X204445863Y-111979457D01*
X204464961Y-112038236D01*
X204514961Y-112074563D01*
X204576765Y-112074563D01*
X204626765Y-112038236D01*
X204645863Y-111979457D01*
X204645863Y-111679457D01*
X204831577Y-111679457D01*
X204835423Y-111691294D01*
X204834563Y-111703711D01*
X204877420Y-111875139D01*
X204891592Y-111897787D01*
X204903723Y-111921596D01*
X204989438Y-112007310D01*
X205003879Y-112014668D01*
X205015428Y-112026043D01*
X205101141Y-112068900D01*
X205123939Y-112072333D01*
X205145863Y-112079457D01*
X205317291Y-112079457D01*
X205339214Y-112072333D01*
X205362012Y-112068900D01*
X205447727Y-112026043D01*
X205459276Y-112014668D01*
X205473717Y-112007310D01*
X205559431Y-111921595D01*
X205571561Y-111897788D01*
X205585734Y-111875139D01*
X205628591Y-111703711D01*
X205627730Y-111691294D01*
X205631577Y-111679457D01*
X205631577Y-111379457D01*
X205627730Y-111367619D01*
X205628591Y-111355204D01*
X205585734Y-111183775D01*
X205571561Y-111161124D01*
X205559431Y-111137317D01*
X205473717Y-111051603D01*
X205459274Y-111044244D01*
X205447727Y-111032871D01*
X205362012Y-110990014D01*
X205339214Y-110986580D01*
X205317291Y-110979457D01*
X205145863Y-110979457D01*
X205123939Y-110986580D01*
X205101141Y-110990014D01*
X205015428Y-111032871D01*
X205003880Y-111044244D01*
X204989439Y-111051603D01*
X204903724Y-111137317D01*
X204891596Y-111161118D01*
X204877420Y-111183774D01*
X204834563Y-111355204D01*
X204835423Y-111367619D01*
X204831577Y-111379457D01*
X204831577Y-111679457D01*
X204645863Y-111679457D01*
X204645863Y-111079457D01*
X204642834Y-111070135D01*
X204644032Y-111060405D01*
X204633487Y-111041369D01*
X204626765Y-111020678D01*
X204618835Y-111014916D01*
X204614085Y-111006341D01*
X204594366Y-110997138D01*
X204576765Y-110984351D01*
X204566963Y-110984351D01*
X204558079Y-110980205D01*
X204536717Y-110984351D01*
X204514961Y-110984351D01*
X204507031Y-110990112D01*
X204497408Y-110991980D01*
X204482564Y-111007888D01*
X204464961Y-111020678D01*
X204461931Y-111030001D01*
X204455245Y-111037168D01*
X204245862Y-111485843D01*
X204036481Y-111037168D01*
X204029794Y-111030001D01*
X204026765Y-111020678D01*
X204009161Y-111007888D01*
X203994318Y-110991980D01*
X203984695Y-110990112D01*
X203976765Y-110984351D01*
X203955006Y-110984351D01*
X203933647Y-110980206D01*
X203924765Y-110984351D01*
X203914961Y-110984351D01*
X203897356Y-110997141D01*
X203877641Y-111006342D01*
X203872891Y-111014916D01*
X203864961Y-111020678D01*
X203858237Y-111041370D01*
X203847694Y-111060405D01*
X203848891Y-111070135D01*
X203845863Y-111079457D01*
X203845863Y-111979457D01*
X203717292Y-111979457D01*
X203717292Y-110850886D01*
X205760148Y-110850886D01*
X205760148Y-112208028D01*
G37*
G36*
X197740969Y-112208028D02*
G01*
X196436472Y-112208028D01*
X196436472Y-112010359D01*
X196907900Y-112010359D01*
X196944227Y-112060359D01*
X197003006Y-112079457D01*
X197174435Y-112079457D01*
X197233214Y-112060359D01*
X197269541Y-112010359D01*
X197269541Y-111948555D01*
X197233214Y-111898555D01*
X197174435Y-111879457D01*
X197003006Y-111879457D01*
X196944227Y-111898555D01*
X196907900Y-111948555D01*
X196907900Y-112010359D01*
X196436472Y-112010359D01*
X196436472Y-111753216D01*
X196736472Y-111753216D01*
X196772799Y-111803216D01*
X196831578Y-111822314D01*
X197345863Y-111822314D01*
X197404642Y-111803216D01*
X197440969Y-111753216D01*
X197440969Y-111691412D01*
X197404642Y-111641412D01*
X197345863Y-111622314D01*
X196831578Y-111622314D01*
X196772799Y-111641412D01*
X196736472Y-111691412D01*
X196736472Y-111753216D01*
X196436472Y-111753216D01*
X196436472Y-111496073D01*
X196565043Y-111496073D01*
X196601370Y-111546073D01*
X196660149Y-111565171D01*
X197517292Y-111565171D01*
X197576071Y-111546073D01*
X197612398Y-111496073D01*
X197612398Y-111434269D01*
X197576071Y-111384269D01*
X197517292Y-111365171D01*
X197188720Y-111365171D01*
X197188720Y-111079457D01*
X197169622Y-111020678D01*
X197119622Y-110984351D01*
X197057818Y-110984351D01*
X197007818Y-111020678D01*
X196988720Y-111079457D01*
X196988720Y-111365171D01*
X196660149Y-111365171D01*
X196601370Y-111384269D01*
X196565043Y-111434269D01*
X196565043Y-111496073D01*
X196436472Y-111496073D01*
X196436472Y-110855780D01*
X197740969Y-110855780D01*
X197740969Y-112208028D01*
G37*
G36*
X200403005Y-112203134D02*
G01*
X198917292Y-112203134D01*
X198917292Y-111979457D01*
X199045863Y-111979457D01*
X199064961Y-112038236D01*
X199114961Y-112074563D01*
X199176765Y-112074563D01*
X199226765Y-112038236D01*
X199245863Y-111979457D01*
X199245863Y-111530213D01*
X199355245Y-111764603D01*
X199368339Y-111778636D01*
X199377641Y-111795429D01*
X199388917Y-111800691D01*
X199397408Y-111809791D01*
X199416255Y-111813448D01*
X199433647Y-111821565D01*
X199445860Y-111819194D01*
X199458079Y-111821566D01*
X199475475Y-111813447D01*
X199494318Y-111809791D01*
X199502806Y-111800693D01*
X199514085Y-111795430D01*
X199523387Y-111778635D01*
X199536481Y-111764603D01*
X199645863Y-111530212D01*
X199645863Y-111979457D01*
X199664961Y-112038236D01*
X199714961Y-112074563D01*
X199776765Y-112074563D01*
X199826765Y-112038236D01*
X199845863Y-111979457D01*
X200074434Y-111979457D01*
X200093532Y-112038236D01*
X200143532Y-112074563D01*
X200205336Y-112074563D01*
X200255336Y-112038236D01*
X200274434Y-111979457D01*
X200274434Y-111079457D01*
X200255336Y-111020678D01*
X200205336Y-110984351D01*
X200143532Y-110984351D01*
X200093532Y-111020678D01*
X200074434Y-111079457D01*
X200074434Y-111979457D01*
X199845863Y-111979457D01*
X199845863Y-111079457D01*
X199842834Y-111070135D01*
X199844032Y-111060405D01*
X199833487Y-111041369D01*
X199826765Y-111020678D01*
X199818835Y-111014916D01*
X199814085Y-111006341D01*
X199794366Y-110997138D01*
X199776765Y-110984351D01*
X199766963Y-110984351D01*
X199758079Y-110980205D01*
X199736717Y-110984351D01*
X199714961Y-110984351D01*
X199707031Y-110990112D01*
X199697408Y-110991980D01*
X199682564Y-111007888D01*
X199664961Y-111020678D01*
X199661931Y-111030001D01*
X199655245Y-111037168D01*
X199445862Y-111485843D01*
X199236481Y-111037168D01*
X199229794Y-111030001D01*
X199226765Y-111020678D01*
X199209161Y-111007888D01*
X199194318Y-110991980D01*
X199184695Y-110990112D01*
X199176765Y-110984351D01*
X199155006Y-110984351D01*
X199133647Y-110980206D01*
X199124765Y-110984351D01*
X199114961Y-110984351D01*
X199097356Y-110997141D01*
X199077641Y-111006342D01*
X199072891Y-111014916D01*
X199064961Y-111020678D01*
X199058237Y-111041370D01*
X199047694Y-111060405D01*
X199048891Y-111070135D01*
X199045863Y-111079457D01*
X199045863Y-111979457D01*
X198917292Y-111979457D01*
X198917292Y-110851634D01*
X200403005Y-110851634D01*
X200403005Y-112203134D01*
G37*
G36*
X208198344Y-107508028D02*
G01*
X206332808Y-107508028D01*
X206332808Y-107209384D01*
X206461379Y-107209384D01*
X206489437Y-107264452D01*
X206532295Y-107307310D01*
X206546736Y-107314668D01*
X206558285Y-107326043D01*
X206643998Y-107368900D01*
X206666796Y-107372333D01*
X206688720Y-107379457D01*
X206945863Y-107379457D01*
X206967786Y-107372333D01*
X206990584Y-107368900D01*
X207076299Y-107326043D01*
X207087847Y-107314668D01*
X207102290Y-107307310D01*
X207145147Y-107264452D01*
X207152505Y-107250009D01*
X207163878Y-107238463D01*
X207206735Y-107152750D01*
X207210168Y-107129951D01*
X207217292Y-107108028D01*
X207217292Y-106893742D01*
X207210168Y-106871818D01*
X207206735Y-106849020D01*
X207163878Y-106763307D01*
X207152504Y-106751759D01*
X207145146Y-106737317D01*
X207102289Y-106694460D01*
X207087846Y-106687101D01*
X207076299Y-106675728D01*
X207016912Y-106646035D01*
X207192550Y-106445307D01*
X207200510Y-106426720D01*
X207212398Y-106410359D01*
X207212398Y-106398966D01*
X207216883Y-106388495D01*
X207212398Y-106368776D01*
X207212398Y-106349278D01*
X207279097Y-106349278D01*
X207279567Y-106411080D01*
X207579567Y-107311079D01*
X207597477Y-107335342D01*
X207615044Y-107359910D01*
X207615798Y-107360161D01*
X207616272Y-107360803D01*
X207645037Y-107369908D01*
X207673676Y-107379455D01*
X207674436Y-107379214D01*
X207675194Y-107379454D01*
X207703772Y-107369927D01*
X207732598Y-107360803D01*
X207733071Y-107360161D01*
X207733826Y-107359910D01*
X207751380Y-107335358D01*
X207769303Y-107311080D01*
X208069303Y-106411080D01*
X208069773Y-106349278D01*
X208033826Y-106299004D01*
X207975194Y-106279460D01*
X207916272Y-106298111D01*
X207879567Y-106347835D01*
X207674435Y-106963230D01*
X207469303Y-106347834D01*
X207432598Y-106298111D01*
X207373676Y-106279459D01*
X207315044Y-106299004D01*
X207279097Y-106349278D01*
X207212398Y-106349278D01*
X207212398Y-106348555D01*
X207205702Y-106339339D01*
X207203176Y-106328231D01*
X207187956Y-106314913D01*
X207176071Y-106298555D01*
X207165237Y-106295035D01*
X207156664Y-106287533D01*
X207136521Y-106285704D01*
X207117292Y-106279457D01*
X206560149Y-106279457D01*
X206501370Y-106298555D01*
X206465043Y-106348555D01*
X206465043Y-106410359D01*
X206501370Y-106460359D01*
X206560149Y-106479457D01*
X206896915Y-106479457D01*
X206742034Y-106656464D01*
X206734072Y-106675051D01*
X206722186Y-106691412D01*
X206722185Y-106702803D01*
X206717701Y-106713275D01*
X206722186Y-106732993D01*
X206722186Y-106753216D01*
X206728881Y-106762431D01*
X206731408Y-106773539D01*
X206746626Y-106786855D01*
X206758513Y-106803216D01*
X206769346Y-106806735D01*
X206777920Y-106814238D01*
X206798062Y-106816065D01*
X206817292Y-106822314D01*
X206922256Y-106822314D01*
X206972341Y-106847356D01*
X206992250Y-106867265D01*
X207017292Y-106917349D01*
X207017292Y-107084421D01*
X206992249Y-107134506D01*
X206972341Y-107154414D01*
X206922256Y-107179457D01*
X206712327Y-107179457D01*
X206662243Y-107154415D01*
X206630861Y-107123032D01*
X206575793Y-107094973D01*
X206514751Y-107104640D01*
X206471048Y-107148342D01*
X206461379Y-107209384D01*
X206332808Y-107209384D01*
X206332808Y-106150886D01*
X208198344Y-106150886D01*
X208198344Y-107508028D01*
G37*
G36*
X203188709Y-107508028D02*
G01*
X201274435Y-107508028D01*
X201274435Y-106893742D01*
X201403006Y-106893742D01*
X201406852Y-106905579D01*
X201405992Y-106917995D01*
X201448849Y-107089425D01*
X201454760Y-107098871D01*
X201456420Y-107109892D01*
X201499277Y-107195606D01*
X201510650Y-107207153D01*
X201518009Y-107221596D01*
X201603724Y-107307310D01*
X201624263Y-107317775D01*
X201642812Y-107331468D01*
X201771383Y-107374325D01*
X201787590Y-107374448D01*
X201803006Y-107379457D01*
X201888720Y-107379457D01*
X201904135Y-107374448D01*
X201920343Y-107374325D01*
X202048915Y-107331468D01*
X202067461Y-107317776D01*
X202088004Y-107307310D01*
X202115856Y-107279457D01*
X202345863Y-107279457D01*
X202364961Y-107338236D01*
X202414961Y-107374563D01*
X202476765Y-107374563D01*
X202526765Y-107338236D01*
X202545863Y-107279457D01*
X202545863Y-106935164D01*
X202563615Y-106917411D01*
X202880149Y-107339457D01*
X202930695Y-107375021D01*
X202992491Y-107374083D01*
X203041934Y-107337000D01*
X203060138Y-107277939D01*
X203040149Y-107219457D01*
X202706472Y-106774554D01*
X203030860Y-106450167D01*
X203058919Y-106395100D01*
X203049250Y-106334058D01*
X203005549Y-106290356D01*
X202944506Y-106280687D01*
X202889439Y-106308746D01*
X202545863Y-106652320D01*
X202545863Y-106379457D01*
X202526765Y-106320678D01*
X202476765Y-106284351D01*
X202414961Y-106284351D01*
X202364961Y-106320678D01*
X202345863Y-106379457D01*
X202345863Y-107279457D01*
X202115856Y-107279457D01*
X202130861Y-107264452D01*
X202158919Y-107209384D01*
X202149250Y-107148342D01*
X202105547Y-107104640D01*
X202044505Y-107094973D01*
X201989438Y-107123032D01*
X201963273Y-107149196D01*
X201872493Y-107179457D01*
X201819233Y-107179457D01*
X201728453Y-107149197D01*
X201670905Y-107091649D01*
X201640213Y-107030265D01*
X201603006Y-106881433D01*
X201603006Y-106777479D01*
X201640213Y-106628647D01*
X201670906Y-106567262D01*
X201728453Y-106509716D01*
X201819233Y-106479457D01*
X201872493Y-106479457D01*
X201963273Y-106509717D01*
X201989438Y-106535882D01*
X202044506Y-106563940D01*
X202105548Y-106554272D01*
X202149250Y-106510570D01*
X202158918Y-106449528D01*
X202130860Y-106394460D01*
X202088003Y-106351603D01*
X202067461Y-106341136D01*
X202048915Y-106327446D01*
X201920343Y-106284589D01*
X201904135Y-106284465D01*
X201888720Y-106279457D01*
X201803006Y-106279457D01*
X201787590Y-106284465D01*
X201771383Y-106284589D01*
X201642812Y-106327446D01*
X201624265Y-106341137D01*
X201603725Y-106351603D01*
X201518010Y-106437317D01*
X201510651Y-106451758D01*
X201499277Y-106463307D01*
X201456420Y-106549021D01*
X201454760Y-106560041D01*
X201448849Y-106569488D01*
X201405992Y-106740918D01*
X201406852Y-106753333D01*
X201403006Y-106765171D01*
X201403006Y-106893742D01*
X201274435Y-106893742D01*
X201274435Y-106150886D01*
X203188709Y-106150886D01*
X203188709Y-107508028D01*
G37*
G36*
X210745863Y-107508028D02*
G01*
X208874435Y-107508028D01*
X208874435Y-106893742D01*
X209003006Y-106893742D01*
X209006852Y-106905579D01*
X209005992Y-106917995D01*
X209048849Y-107089425D01*
X209054760Y-107098871D01*
X209056420Y-107109892D01*
X209099277Y-107195606D01*
X209110650Y-107207153D01*
X209118009Y-107221596D01*
X209203724Y-107307310D01*
X209224263Y-107317775D01*
X209242812Y-107331468D01*
X209371383Y-107374325D01*
X209387590Y-107374448D01*
X209403006Y-107379457D01*
X209488720Y-107379457D01*
X209504135Y-107374448D01*
X209520343Y-107374325D01*
X209648915Y-107331468D01*
X209667461Y-107317776D01*
X209688004Y-107307310D01*
X209730861Y-107264452D01*
X209758919Y-107209384D01*
X209749250Y-107148342D01*
X209705547Y-107104640D01*
X209644505Y-107094973D01*
X209589438Y-107123032D01*
X209563273Y-107149196D01*
X209472493Y-107179457D01*
X209419233Y-107179457D01*
X209328453Y-107149197D01*
X209270905Y-107091649D01*
X209240213Y-107030265D01*
X209203006Y-106881433D01*
X209203006Y-106777479D01*
X209238225Y-106636600D01*
X209903006Y-106636600D01*
X209910129Y-106658523D01*
X209913563Y-106681321D01*
X209956420Y-106767035D01*
X209967793Y-106778582D01*
X209975152Y-106793025D01*
X210018009Y-106835882D01*
X210032451Y-106843240D01*
X210043999Y-106854614D01*
X210129714Y-106897471D01*
X210140734Y-106899130D01*
X210150181Y-106905042D01*
X210310959Y-106945236D01*
X210372341Y-106975927D01*
X210392249Y-106995835D01*
X210417292Y-107045920D01*
X210417292Y-107084421D01*
X210392249Y-107134506D01*
X210372341Y-107154414D01*
X210322256Y-107179457D01*
X210147805Y-107179457D01*
X210034629Y-107141732D01*
X209972827Y-107141262D01*
X209922552Y-107177209D01*
X209903008Y-107235841D01*
X209921660Y-107294763D01*
X209971383Y-107331468D01*
X210099956Y-107374326D01*
X210116164Y-107374449D01*
X210131578Y-107379457D01*
X210345863Y-107379457D01*
X210367786Y-107372333D01*
X210390584Y-107368900D01*
X210476299Y-107326043D01*
X210487847Y-107314668D01*
X210502290Y-107307310D01*
X210545147Y-107264452D01*
X210552505Y-107250009D01*
X210563878Y-107238463D01*
X210606735Y-107152750D01*
X210610168Y-107129951D01*
X210617292Y-107108028D01*
X210617292Y-107022314D01*
X210610168Y-107000390D01*
X210606735Y-106977592D01*
X210563878Y-106891879D01*
X210552505Y-106880332D01*
X210545147Y-106865890D01*
X210502290Y-106823032D01*
X210487847Y-106815673D01*
X210476299Y-106804299D01*
X210390584Y-106761442D01*
X210379563Y-106759782D01*
X210370117Y-106753871D01*
X210209338Y-106713676D01*
X210147956Y-106682985D01*
X210128048Y-106663077D01*
X210103006Y-106612992D01*
X210103006Y-106574492D01*
X210128048Y-106524407D01*
X210147956Y-106504499D01*
X210198042Y-106479457D01*
X210372493Y-106479457D01*
X210485670Y-106517183D01*
X210547472Y-106517652D01*
X210597746Y-106481705D01*
X210617290Y-106423073D01*
X210598638Y-106364151D01*
X210548915Y-106327446D01*
X210420343Y-106284589D01*
X210404135Y-106284465D01*
X210388720Y-106279457D01*
X210174435Y-106279457D01*
X210152511Y-106286580D01*
X210129714Y-106290014D01*
X210043999Y-106332871D01*
X210032451Y-106344244D01*
X210018009Y-106351603D01*
X209975152Y-106394460D01*
X209967793Y-106408902D01*
X209956420Y-106420450D01*
X209913563Y-106506164D01*
X209910129Y-106528961D01*
X209903006Y-106550885D01*
X209903006Y-106636600D01*
X209238225Y-106636600D01*
X209240213Y-106628647D01*
X209270906Y-106567262D01*
X209328453Y-106509716D01*
X209419233Y-106479457D01*
X209472493Y-106479457D01*
X209563273Y-106509717D01*
X209589438Y-106535882D01*
X209644506Y-106563940D01*
X209705548Y-106554272D01*
X209749250Y-106510570D01*
X209758918Y-106449528D01*
X209730860Y-106394460D01*
X209688003Y-106351603D01*
X209667461Y-106341136D01*
X209648915Y-106327446D01*
X209520343Y-106284589D01*
X209504135Y-106284465D01*
X209488720Y-106279457D01*
X209403006Y-106279457D01*
X209387590Y-106284465D01*
X209371383Y-106284589D01*
X209242812Y-106327446D01*
X209224265Y-106341137D01*
X209203725Y-106351603D01*
X209118010Y-106437317D01*
X209110651Y-106451758D01*
X209099277Y-106463307D01*
X209056420Y-106549021D01*
X209054760Y-106560041D01*
X209048849Y-106569488D01*
X209005992Y-106740918D01*
X209006852Y-106753333D01*
X209003006Y-106765171D01*
X209003006Y-106893742D01*
X208874435Y-106893742D01*
X208874435Y-106150886D01*
X210745863Y-106150886D01*
X210745863Y-107508028D01*
G37*
G36*
X205343769Y-106504499D02*
G01*
X205398424Y-106559154D01*
X205431577Y-106691766D01*
X205431577Y-106967147D01*
X205398423Y-107099759D01*
X205343770Y-107154414D01*
X205293684Y-107179457D01*
X205169470Y-107179457D01*
X205119384Y-107154414D01*
X205064730Y-107099759D01*
X205031577Y-106967147D01*
X205031577Y-106691765D01*
X205064729Y-106559153D01*
X205119385Y-106504499D01*
X205169470Y-106479457D01*
X205293684Y-106479457D01*
X205343769Y-106504499D01*
G37*
G36*
X205760148Y-107508028D02*
G01*
X203717292Y-107508028D01*
X203717292Y-107279457D01*
X203845863Y-107279457D01*
X203864961Y-107338236D01*
X203914961Y-107374563D01*
X203976765Y-107374563D01*
X204026765Y-107338236D01*
X204045863Y-107279457D01*
X204045863Y-106830213D01*
X204155245Y-107064603D01*
X204168339Y-107078636D01*
X204177641Y-107095429D01*
X204188917Y-107100691D01*
X204197408Y-107109791D01*
X204216255Y-107113448D01*
X204233647Y-107121565D01*
X204245860Y-107119194D01*
X204258079Y-107121566D01*
X204275475Y-107113447D01*
X204294318Y-107109791D01*
X204302806Y-107100693D01*
X204314085Y-107095430D01*
X204323387Y-107078635D01*
X204336481Y-107064603D01*
X204445863Y-106830212D01*
X204445863Y-107279457D01*
X204464961Y-107338236D01*
X204514961Y-107374563D01*
X204576765Y-107374563D01*
X204626765Y-107338236D01*
X204645863Y-107279457D01*
X204645863Y-106979457D01*
X204831577Y-106979457D01*
X204835423Y-106991294D01*
X204834563Y-107003711D01*
X204877420Y-107175139D01*
X204891592Y-107197787D01*
X204903723Y-107221596D01*
X204989438Y-107307310D01*
X205003879Y-107314668D01*
X205015428Y-107326043D01*
X205101141Y-107368900D01*
X205123939Y-107372333D01*
X205145863Y-107379457D01*
X205317291Y-107379457D01*
X205339214Y-107372333D01*
X205362012Y-107368900D01*
X205447727Y-107326043D01*
X205459276Y-107314668D01*
X205473717Y-107307310D01*
X205559431Y-107221595D01*
X205571561Y-107197788D01*
X205585734Y-107175139D01*
X205628591Y-107003711D01*
X205627730Y-106991294D01*
X205631577Y-106979457D01*
X205631577Y-106679457D01*
X205627730Y-106667619D01*
X205628591Y-106655204D01*
X205585734Y-106483775D01*
X205571561Y-106461124D01*
X205559431Y-106437317D01*
X205473717Y-106351603D01*
X205459274Y-106344244D01*
X205447727Y-106332871D01*
X205362012Y-106290014D01*
X205339214Y-106286580D01*
X205317291Y-106279457D01*
X205145863Y-106279457D01*
X205123939Y-106286580D01*
X205101141Y-106290014D01*
X205015428Y-106332871D01*
X205003880Y-106344244D01*
X204989439Y-106351603D01*
X204903724Y-106437317D01*
X204891596Y-106461118D01*
X204877420Y-106483774D01*
X204834563Y-106655204D01*
X204835423Y-106667619D01*
X204831577Y-106679457D01*
X204831577Y-106979457D01*
X204645863Y-106979457D01*
X204645863Y-106379457D01*
X204642834Y-106370135D01*
X204644032Y-106360405D01*
X204633487Y-106341369D01*
X204626765Y-106320678D01*
X204618835Y-106314916D01*
X204614085Y-106306341D01*
X204594366Y-106297138D01*
X204576765Y-106284351D01*
X204566963Y-106284351D01*
X204558079Y-106280205D01*
X204536717Y-106284351D01*
X204514961Y-106284351D01*
X204507031Y-106290112D01*
X204497408Y-106291980D01*
X204482564Y-106307888D01*
X204464961Y-106320678D01*
X204461931Y-106330001D01*
X204455245Y-106337168D01*
X204245862Y-106785843D01*
X204036481Y-106337168D01*
X204029794Y-106330001D01*
X204026765Y-106320678D01*
X204009161Y-106307888D01*
X203994318Y-106291980D01*
X203984695Y-106290112D01*
X203976765Y-106284351D01*
X203955006Y-106284351D01*
X203933647Y-106280206D01*
X203924765Y-106284351D01*
X203914961Y-106284351D01*
X203897356Y-106297141D01*
X203877641Y-106306342D01*
X203872891Y-106314916D01*
X203864961Y-106320678D01*
X203858237Y-106341370D01*
X203847694Y-106360405D01*
X203848891Y-106370135D01*
X203845863Y-106379457D01*
X203845863Y-107279457D01*
X203717292Y-107279457D01*
X203717292Y-106150886D01*
X205760148Y-106150886D01*
X205760148Y-107508028D01*
G37*
G36*
X197740969Y-107508028D02*
G01*
X196436472Y-107508028D01*
X196436472Y-107310359D01*
X196907900Y-107310359D01*
X196944227Y-107360359D01*
X197003006Y-107379457D01*
X197174435Y-107379457D01*
X197233214Y-107360359D01*
X197269541Y-107310359D01*
X197269541Y-107248555D01*
X197233214Y-107198555D01*
X197174435Y-107179457D01*
X197003006Y-107179457D01*
X196944227Y-107198555D01*
X196907900Y-107248555D01*
X196907900Y-107310359D01*
X196436472Y-107310359D01*
X196436472Y-107053216D01*
X196736472Y-107053216D01*
X196772799Y-107103216D01*
X196831578Y-107122314D01*
X197345863Y-107122314D01*
X197404642Y-107103216D01*
X197440969Y-107053216D01*
X197440969Y-106991412D01*
X197404642Y-106941412D01*
X197345863Y-106922314D01*
X196831578Y-106922314D01*
X196772799Y-106941412D01*
X196736472Y-106991412D01*
X196736472Y-107053216D01*
X196436472Y-107053216D01*
X196436472Y-106796073D01*
X196565043Y-106796073D01*
X196601370Y-106846073D01*
X196660149Y-106865171D01*
X197517292Y-106865171D01*
X197576071Y-106846073D01*
X197612398Y-106796073D01*
X197612398Y-106734269D01*
X197576071Y-106684269D01*
X197517292Y-106665171D01*
X197188720Y-106665171D01*
X197188720Y-106379457D01*
X197169622Y-106320678D01*
X197119622Y-106284351D01*
X197057818Y-106284351D01*
X197007818Y-106320678D01*
X196988720Y-106379457D01*
X196988720Y-106665171D01*
X196660149Y-106665171D01*
X196601370Y-106684269D01*
X196565043Y-106734269D01*
X196565043Y-106796073D01*
X196436472Y-106796073D01*
X196436472Y-106155780D01*
X197740969Y-106155780D01*
X197740969Y-107508028D01*
G37*
G36*
X200403005Y-107503134D02*
G01*
X198917292Y-107503134D01*
X198917292Y-107279457D01*
X199045863Y-107279457D01*
X199064961Y-107338236D01*
X199114961Y-107374563D01*
X199176765Y-107374563D01*
X199226765Y-107338236D01*
X199245863Y-107279457D01*
X199245863Y-106830213D01*
X199355245Y-107064603D01*
X199368339Y-107078636D01*
X199377641Y-107095429D01*
X199388917Y-107100691D01*
X199397408Y-107109791D01*
X199416255Y-107113448D01*
X199433647Y-107121565D01*
X199445860Y-107119194D01*
X199458079Y-107121566D01*
X199475475Y-107113447D01*
X199494318Y-107109791D01*
X199502806Y-107100693D01*
X199514085Y-107095430D01*
X199523387Y-107078635D01*
X199536481Y-107064603D01*
X199645863Y-106830212D01*
X199645863Y-107279457D01*
X199664961Y-107338236D01*
X199714961Y-107374563D01*
X199776765Y-107374563D01*
X199826765Y-107338236D01*
X199845863Y-107279457D01*
X200074434Y-107279457D01*
X200093532Y-107338236D01*
X200143532Y-107374563D01*
X200205336Y-107374563D01*
X200255336Y-107338236D01*
X200274434Y-107279457D01*
X200274434Y-106379457D01*
X200255336Y-106320678D01*
X200205336Y-106284351D01*
X200143532Y-106284351D01*
X200093532Y-106320678D01*
X200074434Y-106379457D01*
X200074434Y-107279457D01*
X199845863Y-107279457D01*
X199845863Y-106379457D01*
X199842834Y-106370135D01*
X199844032Y-106360405D01*
X199833487Y-106341369D01*
X199826765Y-106320678D01*
X199818835Y-106314916D01*
X199814085Y-106306341D01*
X199794366Y-106297138D01*
X199776765Y-106284351D01*
X199766963Y-106284351D01*
X199758079Y-106280205D01*
X199736717Y-106284351D01*
X199714961Y-106284351D01*
X199707031Y-106290112D01*
X199697408Y-106291980D01*
X199682564Y-106307888D01*
X199664961Y-106320678D01*
X199661931Y-106330001D01*
X199655245Y-106337168D01*
X199445862Y-106785843D01*
X199236481Y-106337168D01*
X199229794Y-106330001D01*
X199226765Y-106320678D01*
X199209161Y-106307888D01*
X199194318Y-106291980D01*
X199184695Y-106290112D01*
X199176765Y-106284351D01*
X199155006Y-106284351D01*
X199133647Y-106280206D01*
X199124765Y-106284351D01*
X199114961Y-106284351D01*
X199097356Y-106297141D01*
X199077641Y-106306342D01*
X199072891Y-106314916D01*
X199064961Y-106320678D01*
X199058237Y-106341370D01*
X199047694Y-106360405D01*
X199048891Y-106370135D01*
X199045863Y-106379457D01*
X199045863Y-107279457D01*
X198917292Y-107279457D01*
X198917292Y-106151634D01*
X200403005Y-106151634D01*
X200403005Y-107503134D01*
G37*
G36*
X218832780Y-114877017D02*
G01*
X218802975Y-114936627D01*
X218778306Y-114961295D01*
X218718697Y-114991101D01*
X218623054Y-114991101D01*
X218563444Y-114961296D01*
X218538776Y-114936627D01*
X218508971Y-114877017D01*
X218508971Y-114619673D01*
X218832780Y-114619673D01*
X218832780Y-114877017D01*
G37*
G36*
X219175637Y-117138588D02*
G01*
X217689923Y-117138588D01*
X217689923Y-116645813D01*
X217837674Y-116645813D01*
X217874001Y-116695813D01*
X217932780Y-116714911D01*
X218832780Y-116714911D01*
X218832780Y-116900625D01*
X218851878Y-116959404D01*
X218901878Y-116995731D01*
X218963682Y-116995731D01*
X219013682Y-116959404D01*
X219032780Y-116900625D01*
X219032780Y-116329197D01*
X219013682Y-116270418D01*
X218963682Y-116234091D01*
X218901878Y-116234091D01*
X218851878Y-116270418D01*
X218832780Y-116329197D01*
X218832780Y-116514911D01*
X217932780Y-116514911D01*
X217874001Y-116534009D01*
X217837674Y-116584009D01*
X217837674Y-116645813D01*
X217689923Y-116645813D01*
X217689923Y-115853006D01*
X217832780Y-115853006D01*
X217839904Y-115874932D01*
X217843338Y-115897728D01*
X217890958Y-115992966D01*
X217902330Y-116004512D01*
X217909689Y-116018955D01*
X217957308Y-116066573D01*
X217971749Y-116073931D01*
X217983298Y-116085306D01*
X218078535Y-116132925D01*
X218101333Y-116136358D01*
X218123257Y-116143482D01*
X218218495Y-116143482D01*
X218240418Y-116136358D01*
X218263216Y-116132925D01*
X218358454Y-116085306D01*
X218370001Y-116073932D01*
X218384444Y-116066574D01*
X218432062Y-116018955D01*
X218439420Y-116004513D01*
X218450795Y-115992965D01*
X218498414Y-115897728D01*
X218500074Y-115886706D01*
X218505985Y-115877260D01*
X218550941Y-115697434D01*
X218586395Y-115626527D01*
X218611063Y-115601858D01*
X218670673Y-115572054D01*
X218718697Y-115572054D01*
X218778306Y-115601859D01*
X218802975Y-115626527D01*
X218832780Y-115686137D01*
X218832780Y-115884398D01*
X218790293Y-116011859D01*
X218789823Y-116073661D01*
X218825770Y-116123935D01*
X218884402Y-116143480D01*
X218943324Y-116124828D01*
X218980029Y-116075105D01*
X219027648Y-115932248D01*
X219027771Y-115916040D01*
X219032780Y-115900625D01*
X219032780Y-115662530D01*
X219025656Y-115640606D01*
X219022223Y-115617808D01*
X218974604Y-115522571D01*
X218963229Y-115511022D01*
X218955871Y-115496581D01*
X218908253Y-115448962D01*
X218893810Y-115441603D01*
X218882263Y-115430230D01*
X218787025Y-115382611D01*
X218764227Y-115379177D01*
X218742304Y-115372054D01*
X218647066Y-115372054D01*
X218625142Y-115379177D01*
X218602344Y-115382611D01*
X218507107Y-115430230D01*
X218495558Y-115441604D01*
X218481117Y-115448963D01*
X218433498Y-115496581D01*
X218426139Y-115511023D01*
X218414766Y-115522571D01*
X218367147Y-115617809D01*
X218365486Y-115628830D01*
X218359576Y-115638277D01*
X218314619Y-115818101D01*
X218279166Y-115889008D01*
X218254497Y-115913676D01*
X218194888Y-115943482D01*
X218146864Y-115943482D01*
X218087254Y-115913677D01*
X218062583Y-115889006D01*
X218032779Y-115829399D01*
X218032779Y-115631138D01*
X218075268Y-115503677D01*
X218075738Y-115441875D01*
X218039792Y-115391601D01*
X217981160Y-115372056D01*
X217922238Y-115390707D01*
X217885532Y-115440430D01*
X217837912Y-115583288D01*
X217837788Y-115599495D01*
X217832780Y-115614911D01*
X217832780Y-115853006D01*
X217689923Y-115853006D01*
X217689923Y-115120325D01*
X217837145Y-115120325D01*
X217872587Y-115170957D01*
X217931021Y-115191086D01*
X217990126Y-115173024D01*
X218319132Y-114942719D01*
X218319528Y-114945346D01*
X218367147Y-115040584D01*
X218378520Y-115052131D01*
X218385879Y-115066574D01*
X218433498Y-115114192D01*
X218447939Y-115121550D01*
X218459488Y-115132925D01*
X218554725Y-115180544D01*
X218577523Y-115183977D01*
X218599447Y-115191101D01*
X218742304Y-115191101D01*
X218764227Y-115183977D01*
X218787025Y-115180544D01*
X218882263Y-115132925D01*
X218893810Y-115121551D01*
X218908253Y-115114193D01*
X218955871Y-115066574D01*
X218963229Y-115052132D01*
X218974604Y-115040584D01*
X219022223Y-114945347D01*
X219025656Y-114922548D01*
X219032780Y-114900625D01*
X219032780Y-114519673D01*
X219027886Y-114504610D01*
X219027886Y-114488771D01*
X219018576Y-114475957D01*
X219013682Y-114460894D01*
X219000868Y-114451584D01*
X218991559Y-114438771D01*
X218976495Y-114433876D01*
X218963682Y-114424567D01*
X218947843Y-114424567D01*
X218932780Y-114419673D01*
X217932780Y-114419673D01*
X217874001Y-114438771D01*
X217837674Y-114488771D01*
X217837674Y-114550575D01*
X217874001Y-114600575D01*
X217932780Y-114619673D01*
X218308971Y-114619673D01*
X218308970Y-114705702D01*
X217875434Y-115009178D01*
X217838232Y-115058531D01*
X217837145Y-115120325D01*
X217689923Y-115120325D01*
X217689923Y-114276816D01*
X219175637Y-114276816D01*
X219175637Y-117138588D01*
G37*
D11*
X256680951Y-133607200D02*
X256823808Y-133654819D01*
X256823808Y-133654819D02*
X257061903Y-133654819D01*
X257061903Y-133654819D02*
X257157141Y-133607200D01*
X257157141Y-133607200D02*
X257204760Y-133559580D01*
X257204760Y-133559580D02*
X257252379Y-133464342D01*
X257252379Y-133464342D02*
X257252379Y-133369104D01*
X257252379Y-133369104D02*
X257204760Y-133273866D01*
X257204760Y-133273866D02*
X257157141Y-133226247D01*
X257157141Y-133226247D02*
X257061903Y-133178628D01*
X257061903Y-133178628D02*
X256871427Y-133131009D01*
X256871427Y-133131009D02*
X256776189Y-133083390D01*
X256776189Y-133083390D02*
X256728570Y-133035771D01*
X256728570Y-133035771D02*
X256680951Y-132940533D01*
X256680951Y-132940533D02*
X256680951Y-132845295D01*
X256680951Y-132845295D02*
X256728570Y-132750057D01*
X256728570Y-132750057D02*
X256776189Y-132702438D01*
X256776189Y-132702438D02*
X256871427Y-132654819D01*
X256871427Y-132654819D02*
X257109522Y-132654819D01*
X257109522Y-132654819D02*
X257252379Y-132702438D01*
X258109522Y-133654819D02*
X258109522Y-133131009D01*
X258109522Y-133131009D02*
X258061903Y-133035771D01*
X258061903Y-133035771D02*
X257966665Y-132988152D01*
X257966665Y-132988152D02*
X257776189Y-132988152D01*
X257776189Y-132988152D02*
X257680951Y-133035771D01*
X258109522Y-133607200D02*
X258014284Y-133654819D01*
X258014284Y-133654819D02*
X257776189Y-133654819D01*
X257776189Y-133654819D02*
X257680951Y-133607200D01*
X257680951Y-133607200D02*
X257633332Y-133511961D01*
X257633332Y-133511961D02*
X257633332Y-133416723D01*
X257633332Y-133416723D02*
X257680951Y-133321485D01*
X257680951Y-133321485D02*
X257776189Y-133273866D01*
X257776189Y-133273866D02*
X258014284Y-133273866D01*
X258014284Y-133273866D02*
X258109522Y-133226247D01*
X258585713Y-133654819D02*
X258585713Y-132988152D01*
X258585713Y-133178628D02*
X258633332Y-133083390D01*
X258633332Y-133083390D02*
X258680951Y-133035771D01*
X258680951Y-133035771D02*
X258776189Y-132988152D01*
X258776189Y-132988152D02*
X258871427Y-132988152D01*
X259633332Y-133654819D02*
X259633332Y-133131009D01*
X259633332Y-133131009D02*
X259585713Y-133035771D01*
X259585713Y-133035771D02*
X259490475Y-132988152D01*
X259490475Y-132988152D02*
X259299999Y-132988152D01*
X259299999Y-132988152D02*
X259204761Y-133035771D01*
X259633332Y-133607200D02*
X259538094Y-133654819D01*
X259538094Y-133654819D02*
X259299999Y-133654819D01*
X259299999Y-133654819D02*
X259204761Y-133607200D01*
X259204761Y-133607200D02*
X259157142Y-133511961D01*
X259157142Y-133511961D02*
X259157142Y-133416723D01*
X259157142Y-133416723D02*
X259204761Y-133321485D01*
X259204761Y-133321485D02*
X259299999Y-133273866D01*
X259299999Y-133273866D02*
X259538094Y-133273866D01*
X259538094Y-133273866D02*
X259633332Y-133226247D01*
X260252380Y-133654819D02*
X260157142Y-133607200D01*
X260157142Y-133607200D02*
X260109523Y-133511961D01*
X260109523Y-133511961D02*
X260109523Y-132654819D01*
X261252381Y-132654819D02*
X261823809Y-132654819D01*
X261538095Y-133654819D02*
X261538095Y-132654819D01*
X262585714Y-133654819D02*
X262585714Y-133131009D01*
X262585714Y-133131009D02*
X262538095Y-133035771D01*
X262538095Y-133035771D02*
X262442857Y-132988152D01*
X262442857Y-132988152D02*
X262252381Y-132988152D01*
X262252381Y-132988152D02*
X262157143Y-133035771D01*
X262585714Y-133607200D02*
X262490476Y-133654819D01*
X262490476Y-133654819D02*
X262252381Y-133654819D01*
X262252381Y-133654819D02*
X262157143Y-133607200D01*
X262157143Y-133607200D02*
X262109524Y-133511961D01*
X262109524Y-133511961D02*
X262109524Y-133416723D01*
X262109524Y-133416723D02*
X262157143Y-133321485D01*
X262157143Y-133321485D02*
X262252381Y-133273866D01*
X262252381Y-133273866D02*
X262490476Y-133273866D01*
X262490476Y-133273866D02*
X262585714Y-133226247D01*
X262966667Y-132988152D02*
X263204762Y-133654819D01*
X263442857Y-132988152D02*
X263204762Y-133654819D01*
X263204762Y-133654819D02*
X263109524Y-133892914D01*
X263109524Y-133892914D02*
X263061905Y-133940533D01*
X263061905Y-133940533D02*
X262966667Y-133988152D01*
X264252381Y-133654819D02*
X264252381Y-133131009D01*
X264252381Y-133131009D02*
X264204762Y-133035771D01*
X264204762Y-133035771D02*
X264109524Y-132988152D01*
X264109524Y-132988152D02*
X263919048Y-132988152D01*
X263919048Y-132988152D02*
X263823810Y-133035771D01*
X264252381Y-133607200D02*
X264157143Y-133654819D01*
X264157143Y-133654819D02*
X263919048Y-133654819D01*
X263919048Y-133654819D02*
X263823810Y-133607200D01*
X263823810Y-133607200D02*
X263776191Y-133511961D01*
X263776191Y-133511961D02*
X263776191Y-133416723D01*
X263776191Y-133416723D02*
X263823810Y-133321485D01*
X263823810Y-133321485D02*
X263919048Y-133273866D01*
X263919048Y-133273866D02*
X264157143Y-133273866D01*
X264157143Y-133273866D02*
X264252381Y-133226247D01*
X264871429Y-133654819D02*
X264776191Y-133607200D01*
X264776191Y-133607200D02*
X264728572Y-133511961D01*
X264728572Y-133511961D02*
X264728572Y-132654819D01*
X266728572Y-132607200D02*
X265871430Y-133892914D01*
X268395239Y-133654819D02*
X268061906Y-133178628D01*
X267823811Y-133654819D02*
X267823811Y-132654819D01*
X267823811Y-132654819D02*
X268204763Y-132654819D01*
X268204763Y-132654819D02*
X268300001Y-132702438D01*
X268300001Y-132702438D02*
X268347620Y-132750057D01*
X268347620Y-132750057D02*
X268395239Y-132845295D01*
X268395239Y-132845295D02*
X268395239Y-132988152D01*
X268395239Y-132988152D02*
X268347620Y-133083390D01*
X268347620Y-133083390D02*
X268300001Y-133131009D01*
X268300001Y-133131009D02*
X268204763Y-133178628D01*
X268204763Y-133178628D02*
X267823811Y-133178628D01*
X268823811Y-133131009D02*
X269157144Y-133131009D01*
X269300001Y-133654819D02*
X268823811Y-133654819D01*
X268823811Y-133654819D02*
X268823811Y-132654819D01*
X268823811Y-132654819D02*
X269300001Y-132654819D01*
X269633335Y-132654819D02*
X270300001Y-133654819D01*
X270300001Y-132654819D02*
X269633335Y-133654819D01*
X271157144Y-133654819D02*
X270680954Y-133654819D01*
X270680954Y-133654819D02*
X270680954Y-132654819D01*
X271442859Y-133369104D02*
X271919049Y-133369104D01*
X271347621Y-133654819D02*
X271680954Y-132654819D01*
X271680954Y-132654819D02*
X272014287Y-133654819D01*
X272680954Y-133131009D02*
X272823811Y-133178628D01*
X272823811Y-133178628D02*
X272871430Y-133226247D01*
X272871430Y-133226247D02*
X272919049Y-133321485D01*
X272919049Y-133321485D02*
X272919049Y-133464342D01*
X272919049Y-133464342D02*
X272871430Y-133559580D01*
X272871430Y-133559580D02*
X272823811Y-133607200D01*
X272823811Y-133607200D02*
X272728573Y-133654819D01*
X272728573Y-133654819D02*
X272347621Y-133654819D01*
X272347621Y-133654819D02*
X272347621Y-132654819D01*
X272347621Y-132654819D02*
X272680954Y-132654819D01*
X272680954Y-132654819D02*
X272776192Y-132702438D01*
X272776192Y-132702438D02*
X272823811Y-132750057D01*
X272823811Y-132750057D02*
X272871430Y-132845295D01*
X272871430Y-132845295D02*
X272871430Y-132940533D01*
X272871430Y-132940533D02*
X272823811Y-133035771D01*
X272823811Y-133035771D02*
X272776192Y-133083390D01*
X272776192Y-133083390D02*
X272680954Y-133131009D01*
X272680954Y-133131009D02*
X272347621Y-133131009D01*
D10*
G36*
X240840969Y-104508028D02*
G01*
X239536472Y-104508028D01*
X239536472Y-104310359D01*
X240007900Y-104310359D01*
X240044227Y-104360359D01*
X240103006Y-104379457D01*
X240274435Y-104379457D01*
X240333214Y-104360359D01*
X240369541Y-104310359D01*
X240369541Y-104248555D01*
X240333214Y-104198555D01*
X240274435Y-104179457D01*
X240103006Y-104179457D01*
X240044227Y-104198555D01*
X240007900Y-104248555D01*
X240007900Y-104310359D01*
X239536472Y-104310359D01*
X239536472Y-104053216D01*
X239836472Y-104053216D01*
X239872799Y-104103216D01*
X239931578Y-104122314D01*
X240445863Y-104122314D01*
X240504642Y-104103216D01*
X240540969Y-104053216D01*
X240540969Y-103991412D01*
X240504642Y-103941412D01*
X240445863Y-103922314D01*
X239931578Y-103922314D01*
X239872799Y-103941412D01*
X239836472Y-103991412D01*
X239836472Y-104053216D01*
X239536472Y-104053216D01*
X239536472Y-103796073D01*
X239665043Y-103796073D01*
X239701370Y-103846073D01*
X239760149Y-103865171D01*
X240617292Y-103865171D01*
X240676071Y-103846073D01*
X240712398Y-103796073D01*
X240712398Y-103734269D01*
X240676071Y-103684269D01*
X240617292Y-103665171D01*
X240288720Y-103665171D01*
X240288720Y-103379457D01*
X240269622Y-103320678D01*
X240219622Y-103284351D01*
X240157818Y-103284351D01*
X240107818Y-103320678D01*
X240088720Y-103379457D01*
X240088720Y-103665171D01*
X239760149Y-103665171D01*
X239701370Y-103684269D01*
X239665043Y-103734269D01*
X239665043Y-103796073D01*
X239536472Y-103796073D01*
X239536472Y-103155780D01*
X240840969Y-103155780D01*
X240840969Y-104508028D01*
G37*
G36*
X248940969Y-104408028D02*
G01*
X247636472Y-104408028D01*
X247636472Y-104210359D01*
X248107900Y-104210359D01*
X248144227Y-104260359D01*
X248203006Y-104279457D01*
X248374435Y-104279457D01*
X248433214Y-104260359D01*
X248469541Y-104210359D01*
X248469541Y-104148555D01*
X248433214Y-104098555D01*
X248374435Y-104079457D01*
X248203006Y-104079457D01*
X248144227Y-104098555D01*
X248107900Y-104148555D01*
X248107900Y-104210359D01*
X247636472Y-104210359D01*
X247636472Y-103953216D01*
X247936472Y-103953216D01*
X247972799Y-104003216D01*
X248031578Y-104022314D01*
X248545863Y-104022314D01*
X248604642Y-104003216D01*
X248640969Y-103953216D01*
X248640969Y-103891412D01*
X248604642Y-103841412D01*
X248545863Y-103822314D01*
X248031578Y-103822314D01*
X247972799Y-103841412D01*
X247936472Y-103891412D01*
X247936472Y-103953216D01*
X247636472Y-103953216D01*
X247636472Y-103696073D01*
X247765043Y-103696073D01*
X247801370Y-103746073D01*
X247860149Y-103765171D01*
X248717292Y-103765171D01*
X248776071Y-103746073D01*
X248812398Y-103696073D01*
X248812398Y-103634269D01*
X248776071Y-103584269D01*
X248717292Y-103565171D01*
X248388720Y-103565171D01*
X248388720Y-103279457D01*
X248369622Y-103220678D01*
X248319622Y-103184351D01*
X248257818Y-103184351D01*
X248207818Y-103220678D01*
X248188720Y-103279457D01*
X248188720Y-103565171D01*
X247860149Y-103565171D01*
X247801370Y-103584269D01*
X247765043Y-103634269D01*
X247765043Y-103696073D01*
X247636472Y-103696073D01*
X247636472Y-103055780D01*
X248940969Y-103055780D01*
X248940969Y-104408028D01*
G37*
X244260149Y-107893742D02*
X244217292Y-107936600D01*
X244217292Y-107936600D02*
X244088720Y-107979457D01*
X244088720Y-107979457D02*
X244003006Y-107979457D01*
X244003006Y-107979457D02*
X243874435Y-107936600D01*
X243874435Y-107936600D02*
X243788720Y-107850885D01*
X243788720Y-107850885D02*
X243745863Y-107765171D01*
X243745863Y-107765171D02*
X243703006Y-107593742D01*
X243703006Y-107593742D02*
X243703006Y-107465171D01*
X243703006Y-107465171D02*
X243745863Y-107293742D01*
X243745863Y-107293742D02*
X243788720Y-107208028D01*
X243788720Y-107208028D02*
X243874435Y-107122314D01*
X243874435Y-107122314D02*
X244003006Y-107079457D01*
X244003006Y-107079457D02*
X244088720Y-107079457D01*
X244088720Y-107079457D02*
X244217292Y-107122314D01*
X244217292Y-107122314D02*
X244260149Y-107165171D01*
X244603006Y-107722314D02*
X245031578Y-107722314D01*
X244517292Y-107979457D02*
X244817292Y-107079457D01*
X244817292Y-107079457D02*
X245117292Y-107979457D01*
X245417292Y-107979457D02*
X245417292Y-107079457D01*
X245417292Y-107079457D02*
X245931578Y-107979457D01*
X245931578Y-107979457D02*
X245931578Y-107079457D01*
X247774435Y-107979457D02*
X247731578Y-107979457D01*
X247731578Y-107979457D02*
X247645863Y-107936600D01*
X247645863Y-107936600D02*
X247517292Y-107808028D01*
X247517292Y-107808028D02*
X247303006Y-107550885D01*
X247303006Y-107550885D02*
X247217292Y-107422314D01*
X247217292Y-107422314D02*
X247174435Y-107293742D01*
X247174435Y-107293742D02*
X247174435Y-107208028D01*
X247174435Y-107208028D02*
X247217292Y-107122314D01*
X247217292Y-107122314D02*
X247303006Y-107079457D01*
X247303006Y-107079457D02*
X247345863Y-107079457D01*
X247345863Y-107079457D02*
X247431578Y-107122314D01*
X247431578Y-107122314D02*
X247474435Y-107208028D01*
X247474435Y-107208028D02*
X247474435Y-107250885D01*
X247474435Y-107250885D02*
X247431578Y-107336600D01*
X247431578Y-107336600D02*
X247388720Y-107379457D01*
X247388720Y-107379457D02*
X247131578Y-107550885D01*
X247131578Y-107550885D02*
X247088720Y-107593742D01*
X247088720Y-107593742D02*
X247045863Y-107679457D01*
X247045863Y-107679457D02*
X247045863Y-107808028D01*
X247045863Y-107808028D02*
X247088720Y-107893742D01*
X247088720Y-107893742D02*
X247131578Y-107936600D01*
X247131578Y-107936600D02*
X247217292Y-107979457D01*
X247217292Y-107979457D02*
X247345863Y-107979457D01*
X247345863Y-107979457D02*
X247431578Y-107936600D01*
X247431578Y-107936600D02*
X247474435Y-107893742D01*
X247474435Y-107893742D02*
X247603006Y-107722314D01*
X247603006Y-107722314D02*
X247645863Y-107593742D01*
X247645863Y-107593742D02*
X247645863Y-107508028D01*
X248845863Y-107979457D02*
X248845863Y-107079457D01*
X248845863Y-107079457D02*
X249188720Y-107079457D01*
X249188720Y-107079457D02*
X249274435Y-107122314D01*
X249274435Y-107122314D02*
X249317292Y-107165171D01*
X249317292Y-107165171D02*
X249360149Y-107250885D01*
X249360149Y-107250885D02*
X249360149Y-107379457D01*
X249360149Y-107379457D02*
X249317292Y-107465171D01*
X249317292Y-107465171D02*
X249274435Y-107508028D01*
X249274435Y-107508028D02*
X249188720Y-107550885D01*
X249188720Y-107550885D02*
X248845863Y-107550885D01*
X249660149Y-107079457D02*
X249874435Y-107979457D01*
X249874435Y-107979457D02*
X250045863Y-107336600D01*
X250045863Y-107336600D02*
X250217292Y-107979457D01*
X250217292Y-107979457D02*
X250431578Y-107079457D01*
X231745863Y-107408028D02*
X232045863Y-107408028D01*
X232174435Y-107879457D02*
X231745863Y-107879457D01*
X231745863Y-107879457D02*
X231745863Y-106979457D01*
X231745863Y-106979457D02*
X232174435Y-106979457D01*
X232560149Y-107279457D02*
X232560149Y-107879457D01*
X232560149Y-107365171D02*
X232603006Y-107322314D01*
X232603006Y-107322314D02*
X232688721Y-107279457D01*
X232688721Y-107279457D02*
X232817292Y-107279457D01*
X232817292Y-107279457D02*
X232903006Y-107322314D01*
X232903006Y-107322314D02*
X232945864Y-107408028D01*
X232945864Y-107408028D02*
X232945864Y-107879457D01*
X233760150Y-107836600D02*
X233674435Y-107879457D01*
X233674435Y-107879457D02*
X233503007Y-107879457D01*
X233503007Y-107879457D02*
X233417292Y-107836600D01*
X233417292Y-107836600D02*
X233374435Y-107793742D01*
X233374435Y-107793742D02*
X233331578Y-107708028D01*
X233331578Y-107708028D02*
X233331578Y-107450885D01*
X233331578Y-107450885D02*
X233374435Y-107365171D01*
X233374435Y-107365171D02*
X233417292Y-107322314D01*
X233417292Y-107322314D02*
X233503007Y-107279457D01*
X233503007Y-107279457D02*
X233674435Y-107279457D01*
X233674435Y-107279457D02*
X233760150Y-107322314D01*
X234274436Y-107879457D02*
X234188721Y-107836600D01*
X234188721Y-107836600D02*
X234145864Y-107793742D01*
X234145864Y-107793742D02*
X234103007Y-107708028D01*
X234103007Y-107708028D02*
X234103007Y-107450885D01*
X234103007Y-107450885D02*
X234145864Y-107365171D01*
X234145864Y-107365171D02*
X234188721Y-107322314D01*
X234188721Y-107322314D02*
X234274436Y-107279457D01*
X234274436Y-107279457D02*
X234403007Y-107279457D01*
X234403007Y-107279457D02*
X234488721Y-107322314D01*
X234488721Y-107322314D02*
X234531579Y-107365171D01*
X234531579Y-107365171D02*
X234574436Y-107450885D01*
X234574436Y-107450885D02*
X234574436Y-107708028D01*
X234574436Y-107708028D02*
X234531579Y-107793742D01*
X234531579Y-107793742D02*
X234488721Y-107836600D01*
X234488721Y-107836600D02*
X234403007Y-107879457D01*
X234403007Y-107879457D02*
X234274436Y-107879457D01*
X235345865Y-107879457D02*
X235345865Y-106979457D01*
X235345865Y-107836600D02*
X235260150Y-107879457D01*
X235260150Y-107879457D02*
X235088722Y-107879457D01*
X235088722Y-107879457D02*
X235003007Y-107836600D01*
X235003007Y-107836600D02*
X234960150Y-107793742D01*
X234960150Y-107793742D02*
X234917293Y-107708028D01*
X234917293Y-107708028D02*
X234917293Y-107450885D01*
X234917293Y-107450885D02*
X234960150Y-107365171D01*
X234960150Y-107365171D02*
X235003007Y-107322314D01*
X235003007Y-107322314D02*
X235088722Y-107279457D01*
X235088722Y-107279457D02*
X235260150Y-107279457D01*
X235260150Y-107279457D02*
X235345865Y-107322314D01*
X236117293Y-107836600D02*
X236031579Y-107879457D01*
X236031579Y-107879457D02*
X235860151Y-107879457D01*
X235860151Y-107879457D02*
X235774436Y-107836600D01*
X235774436Y-107836600D02*
X235731579Y-107750885D01*
X235731579Y-107750885D02*
X235731579Y-107408028D01*
X235731579Y-107408028D02*
X235774436Y-107322314D01*
X235774436Y-107322314D02*
X235860151Y-107279457D01*
X235860151Y-107279457D02*
X236031579Y-107279457D01*
X236031579Y-107279457D02*
X236117293Y-107322314D01*
X236117293Y-107322314D02*
X236160151Y-107408028D01*
X236160151Y-107408028D02*
X236160151Y-107493742D01*
X236160151Y-107493742D02*
X235731579Y-107579457D01*
X236545865Y-107879457D02*
X236545865Y-107279457D01*
X236545865Y-107450885D02*
X236588722Y-107365171D01*
X236588722Y-107365171D02*
X236631580Y-107322314D01*
X236631580Y-107322314D02*
X236717294Y-107279457D01*
X236717294Y-107279457D02*
X236803008Y-107279457D01*
G36*
X246788720Y-104408028D02*
G01*
X244874435Y-104408028D01*
X244874435Y-103793742D01*
X245003006Y-103793742D01*
X245006852Y-103805579D01*
X245005992Y-103817995D01*
X245048849Y-103989425D01*
X245054760Y-103998871D01*
X245056420Y-104009892D01*
X245099277Y-104095606D01*
X245110650Y-104107153D01*
X245118009Y-104121596D01*
X245203724Y-104207310D01*
X245224263Y-104217775D01*
X245242812Y-104231468D01*
X245371383Y-104274325D01*
X245387590Y-104274448D01*
X245403006Y-104279457D01*
X245488720Y-104279457D01*
X245504135Y-104274448D01*
X245520343Y-104274325D01*
X245648915Y-104231468D01*
X245667461Y-104217776D01*
X245688004Y-104207310D01*
X245715856Y-104179457D01*
X245945863Y-104179457D01*
X245964961Y-104238236D01*
X246014961Y-104274563D01*
X246076765Y-104274563D01*
X246126765Y-104238236D01*
X246145863Y-104179457D01*
X246145863Y-103808028D01*
X246460149Y-103808028D01*
X246460149Y-104179457D01*
X246479247Y-104238236D01*
X246529247Y-104274563D01*
X246591051Y-104274563D01*
X246641051Y-104238236D01*
X246660149Y-104179457D01*
X246660149Y-103279457D01*
X246641051Y-103220678D01*
X246591051Y-103184351D01*
X246529247Y-103184351D01*
X246479247Y-103220678D01*
X246460149Y-103279457D01*
X246460149Y-103608028D01*
X246145863Y-103608028D01*
X246145863Y-103279457D01*
X246126765Y-103220678D01*
X246076765Y-103184351D01*
X246014961Y-103184351D01*
X245964961Y-103220678D01*
X245945863Y-103279457D01*
X245945863Y-104179457D01*
X245715856Y-104179457D01*
X245730861Y-104164452D01*
X245758919Y-104109384D01*
X245749250Y-104048342D01*
X245705547Y-104004640D01*
X245644505Y-103994973D01*
X245589438Y-104023032D01*
X245563273Y-104049196D01*
X245472493Y-104079457D01*
X245419233Y-104079457D01*
X245328453Y-104049197D01*
X245270905Y-103991649D01*
X245240213Y-103930265D01*
X245203005Y-103781433D01*
X245203005Y-103677479D01*
X245240213Y-103528647D01*
X245270906Y-103467262D01*
X245328453Y-103409716D01*
X245419233Y-103379457D01*
X245472493Y-103379457D01*
X245563273Y-103409717D01*
X245589438Y-103435882D01*
X245644506Y-103463940D01*
X245705548Y-103454272D01*
X245749250Y-103410570D01*
X245758918Y-103349528D01*
X245730860Y-103294460D01*
X245688003Y-103251603D01*
X245667461Y-103241136D01*
X245648915Y-103227446D01*
X245520343Y-103184589D01*
X245504135Y-103184465D01*
X245488720Y-103179457D01*
X245403006Y-103179457D01*
X245387590Y-103184465D01*
X245371383Y-103184589D01*
X245242812Y-103227446D01*
X245224265Y-103241137D01*
X245203725Y-103251603D01*
X245118010Y-103337317D01*
X245110651Y-103351758D01*
X245099277Y-103363307D01*
X245056420Y-103449021D01*
X245054760Y-103460041D01*
X245048849Y-103469488D01*
X245005992Y-103640918D01*
X245006852Y-103653333D01*
X245003006Y-103665171D01*
X245003006Y-103793742D01*
X244874435Y-103793742D01*
X244874435Y-103050886D01*
X246788720Y-103050886D01*
X246788720Y-104408028D01*
G37*
G36*
X244198112Y-104408028D02*
G01*
X242374435Y-104408028D01*
X242374435Y-103793742D01*
X242503006Y-103793742D01*
X242506852Y-103805579D01*
X242505992Y-103817995D01*
X242548849Y-103989425D01*
X242554760Y-103998871D01*
X242556420Y-104009892D01*
X242599277Y-104095606D01*
X242610650Y-104107153D01*
X242618009Y-104121596D01*
X242703724Y-104207310D01*
X242724263Y-104217775D01*
X242742812Y-104231468D01*
X242871383Y-104274325D01*
X242887590Y-104274448D01*
X242903006Y-104279457D01*
X242988720Y-104279457D01*
X243004135Y-104274448D01*
X243020343Y-104274325D01*
X243148915Y-104231468D01*
X243167461Y-104217776D01*
X243188004Y-104207310D01*
X243215856Y-104179457D01*
X243445863Y-104179457D01*
X243450757Y-104194519D01*
X243450757Y-104210359D01*
X243460066Y-104223172D01*
X243464961Y-104238236D01*
X243477774Y-104247545D01*
X243487084Y-104260359D01*
X243502147Y-104265253D01*
X243514961Y-104274563D01*
X243530800Y-104274563D01*
X243545863Y-104279457D01*
X243974435Y-104279457D01*
X244033214Y-104260359D01*
X244069541Y-104210359D01*
X244069541Y-104148555D01*
X244033214Y-104098555D01*
X243974435Y-104079457D01*
X243645863Y-104079457D01*
X243645863Y-103279457D01*
X243626765Y-103220678D01*
X243576765Y-103184351D01*
X243514961Y-103184351D01*
X243464961Y-103220678D01*
X243445863Y-103279457D01*
X243445863Y-104179457D01*
X243215856Y-104179457D01*
X243230861Y-104164452D01*
X243258919Y-104109384D01*
X243249250Y-104048342D01*
X243205547Y-104004640D01*
X243144505Y-103994973D01*
X243089438Y-104023032D01*
X243063273Y-104049196D01*
X242972493Y-104079457D01*
X242919233Y-104079457D01*
X242828453Y-104049197D01*
X242770905Y-103991649D01*
X242740213Y-103930265D01*
X242703005Y-103781433D01*
X242703005Y-103677479D01*
X242740213Y-103528647D01*
X242770906Y-103467262D01*
X242828453Y-103409716D01*
X242919233Y-103379457D01*
X242972493Y-103379457D01*
X243063273Y-103409717D01*
X243089438Y-103435882D01*
X243144506Y-103463940D01*
X243205548Y-103454272D01*
X243249250Y-103410570D01*
X243258918Y-103349528D01*
X243230860Y-103294460D01*
X243188003Y-103251603D01*
X243167461Y-103241136D01*
X243148915Y-103227446D01*
X243020343Y-103184589D01*
X243004135Y-103184465D01*
X242988720Y-103179457D01*
X242903006Y-103179457D01*
X242887590Y-103184465D01*
X242871383Y-103184589D01*
X242742812Y-103227446D01*
X242724265Y-103241137D01*
X242703725Y-103251603D01*
X242618010Y-103337317D01*
X242610651Y-103351758D01*
X242599277Y-103363307D01*
X242556420Y-103449021D01*
X242554760Y-103460041D01*
X242548849Y-103469488D01*
X242505992Y-103640918D01*
X242506852Y-103653333D01*
X242503006Y-103665171D01*
X242503006Y-103793742D01*
X242374435Y-103793742D01*
X242374435Y-103050886D01*
X244198112Y-103050886D01*
X244198112Y-104408028D01*
G37*
G36*
X251784058Y-104408026D02*
G01*
X249917292Y-104408026D01*
X249917292Y-104179457D01*
X250045863Y-104179457D01*
X250064961Y-104238236D01*
X250114961Y-104274563D01*
X250176765Y-104274563D01*
X250226765Y-104238236D01*
X250245863Y-104179457D01*
X250245863Y-103808028D01*
X250560149Y-103808028D01*
X250560149Y-104179457D01*
X250579247Y-104238236D01*
X250629247Y-104274563D01*
X250691051Y-104274563D01*
X250741051Y-104238236D01*
X250760149Y-104179457D01*
X250760149Y-103279457D01*
X250750343Y-103249278D01*
X250864811Y-103249278D01*
X250865281Y-103311080D01*
X251165281Y-104211079D01*
X251183191Y-104235342D01*
X251200758Y-104259910D01*
X251201512Y-104260161D01*
X251201986Y-104260803D01*
X251230751Y-104269908D01*
X251259390Y-104279455D01*
X251260150Y-104279214D01*
X251260908Y-104279454D01*
X251289486Y-104269927D01*
X251318312Y-104260803D01*
X251318785Y-104260161D01*
X251319540Y-104259910D01*
X251337094Y-104235358D01*
X251355017Y-104211080D01*
X251655017Y-103311080D01*
X251655487Y-103249278D01*
X251619540Y-103199004D01*
X251560908Y-103179460D01*
X251501986Y-103198111D01*
X251465281Y-103247835D01*
X251260149Y-103863230D01*
X251055017Y-103247834D01*
X251018312Y-103198111D01*
X250959390Y-103179459D01*
X250900758Y-103199004D01*
X250864811Y-103249278D01*
X250750343Y-103249278D01*
X250741051Y-103220678D01*
X250691051Y-103184351D01*
X250629247Y-103184351D01*
X250579247Y-103220678D01*
X250560149Y-103279457D01*
X250560149Y-103608028D01*
X250245863Y-103608028D01*
X250245863Y-103279457D01*
X250226765Y-103220678D01*
X250176765Y-103184351D01*
X250114961Y-103184351D01*
X250064961Y-103220678D01*
X250045863Y-103279457D01*
X250045863Y-104179457D01*
X249917292Y-104179457D01*
X249917292Y-103050888D01*
X251784058Y-103050888D01*
X251784058Y-104408026D01*
G37*
G36*
X238588720Y-104408028D02*
G01*
X236717292Y-104408028D01*
X236717292Y-104179457D01*
X236845863Y-104179457D01*
X236864961Y-104238236D01*
X236914961Y-104274563D01*
X236976765Y-104274563D01*
X237026765Y-104238236D01*
X237045863Y-104179457D01*
X237045863Y-103808028D01*
X237360149Y-103808028D01*
X237360149Y-104179457D01*
X237379247Y-104238236D01*
X237429247Y-104274563D01*
X237491051Y-104274563D01*
X237541051Y-104238236D01*
X237560149Y-104179457D01*
X237560149Y-104109384D01*
X237704236Y-104109384D01*
X237732294Y-104164452D01*
X237775152Y-104207310D01*
X237789593Y-104214668D01*
X237801142Y-104226043D01*
X237886855Y-104268900D01*
X237909653Y-104272333D01*
X237931577Y-104279457D01*
X238188720Y-104279457D01*
X238210643Y-104272333D01*
X238233441Y-104268900D01*
X238319156Y-104226043D01*
X238330704Y-104214668D01*
X238345147Y-104207310D01*
X238388004Y-104164452D01*
X238395362Y-104150009D01*
X238406735Y-104138463D01*
X238449592Y-104052750D01*
X238453025Y-104029951D01*
X238460149Y-104008028D01*
X238460149Y-103793742D01*
X238453025Y-103771818D01*
X238449592Y-103749020D01*
X238406735Y-103663307D01*
X238395361Y-103651759D01*
X238388003Y-103637317D01*
X238345146Y-103594460D01*
X238330703Y-103587101D01*
X238319156Y-103575728D01*
X238259769Y-103546035D01*
X238435407Y-103345307D01*
X238443367Y-103326720D01*
X238455255Y-103310359D01*
X238455255Y-103298966D01*
X238459740Y-103288495D01*
X238455255Y-103268776D01*
X238455255Y-103248555D01*
X238448559Y-103239339D01*
X238446033Y-103228231D01*
X238430813Y-103214913D01*
X238418928Y-103198555D01*
X238408094Y-103195035D01*
X238399521Y-103187533D01*
X238379378Y-103185704D01*
X238360149Y-103179457D01*
X237803006Y-103179457D01*
X237744227Y-103198555D01*
X237707900Y-103248555D01*
X237707900Y-103310359D01*
X237744227Y-103360359D01*
X237803006Y-103379457D01*
X238139772Y-103379457D01*
X237984891Y-103556464D01*
X237976929Y-103575051D01*
X237965043Y-103591412D01*
X237965043Y-103602803D01*
X237960558Y-103613275D01*
X237965043Y-103632993D01*
X237965043Y-103653216D01*
X237971738Y-103662431D01*
X237974265Y-103673539D01*
X237989483Y-103686855D01*
X238001370Y-103703216D01*
X238012203Y-103706735D01*
X238020777Y-103714238D01*
X238040919Y-103716065D01*
X238060149Y-103722314D01*
X238165113Y-103722314D01*
X238215198Y-103747356D01*
X238235107Y-103767264D01*
X238260149Y-103817348D01*
X238260149Y-103984421D01*
X238235105Y-104034507D01*
X238215198Y-104054414D01*
X238165113Y-104079457D01*
X237955184Y-104079457D01*
X237905100Y-104054415D01*
X237873718Y-104023032D01*
X237818650Y-103994973D01*
X237757608Y-104004640D01*
X237713905Y-104048342D01*
X237704236Y-104109384D01*
X237560149Y-104109384D01*
X237560149Y-103279457D01*
X237541051Y-103220678D01*
X237491051Y-103184351D01*
X237429247Y-103184351D01*
X237379247Y-103220678D01*
X237360149Y-103279457D01*
X237360149Y-103608028D01*
X237045863Y-103608028D01*
X237045863Y-103279457D01*
X237026765Y-103220678D01*
X236976765Y-103184351D01*
X236914961Y-103184351D01*
X236864961Y-103220678D01*
X236845863Y-103279457D01*
X236845863Y-104179457D01*
X236717292Y-104179457D01*
X236717292Y-103050886D01*
X238588720Y-103050886D01*
X238588720Y-104408028D01*
G37*
G36*
X236088720Y-104408028D02*
G01*
X234217292Y-104408028D01*
X234217292Y-104179457D01*
X234345863Y-104179457D01*
X234364961Y-104238236D01*
X234414961Y-104274563D01*
X234476765Y-104274563D01*
X234526765Y-104238236D01*
X234545863Y-104179457D01*
X234545863Y-103808028D01*
X234860149Y-103808028D01*
X234860149Y-104179457D01*
X234879247Y-104238236D01*
X234929247Y-104274563D01*
X234991051Y-104274563D01*
X235041051Y-104238236D01*
X235060149Y-104179457D01*
X235060149Y-104163814D01*
X235204237Y-104163814D01*
X235207900Y-104186941D01*
X235207900Y-104210359D01*
X235212642Y-104216886D01*
X235213905Y-104224856D01*
X235230461Y-104241412D01*
X235244227Y-104260359D01*
X235251901Y-104262852D01*
X235257607Y-104268558D01*
X235280736Y-104272221D01*
X235303006Y-104279457D01*
X235860149Y-104279457D01*
X235918928Y-104260359D01*
X235955255Y-104210359D01*
X235955255Y-104148555D01*
X235918928Y-104098555D01*
X235860149Y-104079457D01*
X235544428Y-104079457D01*
X235888003Y-103735882D01*
X235898469Y-103715340D01*
X235912160Y-103696794D01*
X235955017Y-103568223D01*
X235955140Y-103552015D01*
X235960149Y-103536600D01*
X235960149Y-103450885D01*
X235953025Y-103428961D01*
X235949592Y-103406163D01*
X235906735Y-103320450D01*
X235895361Y-103308902D01*
X235888003Y-103294460D01*
X235845146Y-103251603D01*
X235830703Y-103244244D01*
X235819156Y-103232871D01*
X235733441Y-103190014D01*
X235710643Y-103186580D01*
X235688720Y-103179457D01*
X235474435Y-103179457D01*
X235452511Y-103186580D01*
X235429714Y-103190014D01*
X235343999Y-103232871D01*
X235332451Y-103244244D01*
X235318009Y-103251603D01*
X235275152Y-103294460D01*
X235247094Y-103349528D01*
X235256762Y-103410570D01*
X235300464Y-103454272D01*
X235361506Y-103463940D01*
X235416574Y-103435882D01*
X235447956Y-103404499D01*
X235498042Y-103379457D01*
X235665113Y-103379457D01*
X235715198Y-103404499D01*
X235735107Y-103424408D01*
X235760149Y-103474492D01*
X235760149Y-103520372D01*
X235729889Y-103611151D01*
X235232295Y-104108746D01*
X235221664Y-104129609D01*
X235207900Y-104148555D01*
X235207899Y-104156624D01*
X235204237Y-104163814D01*
X235060149Y-104163814D01*
X235060149Y-103279457D01*
X235041051Y-103220678D01*
X234991051Y-103184351D01*
X234929247Y-103184351D01*
X234879247Y-103220678D01*
X234860149Y-103279457D01*
X234860149Y-103608028D01*
X234545863Y-103608028D01*
X234545863Y-103279457D01*
X234526765Y-103220678D01*
X234476765Y-103184351D01*
X234414961Y-103184351D01*
X234364961Y-103220678D01*
X234345863Y-103279457D01*
X234345863Y-104179457D01*
X234217292Y-104179457D01*
X234217292Y-103050886D01*
X236088720Y-103050886D01*
X236088720Y-104408028D01*
G37*
G36*
X233583826Y-104408028D02*
G01*
X231717292Y-104408028D01*
X231717292Y-104179457D01*
X231845863Y-104179457D01*
X231864961Y-104238236D01*
X231914961Y-104274563D01*
X231976765Y-104274563D01*
X232026765Y-104238236D01*
X232045863Y-104179457D01*
X232045863Y-103808028D01*
X232360149Y-103808028D01*
X232360149Y-104179457D01*
X232379247Y-104238236D01*
X232429247Y-104274563D01*
X232491051Y-104274563D01*
X232541051Y-104238236D01*
X232560149Y-104179457D01*
X232560149Y-103551494D01*
X232746978Y-103551494D01*
X232774618Y-103606773D01*
X232829471Y-103635248D01*
X232890585Y-103626042D01*
X232976300Y-103583184D01*
X232987847Y-103571810D01*
X233002287Y-103564453D01*
X233003006Y-103563734D01*
X233003006Y-104079457D01*
X232845863Y-104079457D01*
X232787084Y-104098555D01*
X232750757Y-104148555D01*
X232750757Y-104210359D01*
X232787084Y-104260359D01*
X232845863Y-104279457D01*
X233360149Y-104279457D01*
X233418928Y-104260359D01*
X233455255Y-104210359D01*
X233455255Y-104148555D01*
X233418928Y-104098555D01*
X233360149Y-104079457D01*
X233203006Y-104079457D01*
X233203006Y-103279457D01*
X233202355Y-103277454D01*
X233202925Y-103275426D01*
X233192863Y-103248241D01*
X233183908Y-103220678D01*
X233182203Y-103219439D01*
X233181473Y-103217465D01*
X233157362Y-103201391D01*
X233133908Y-103184351D01*
X233131801Y-103184351D01*
X233130049Y-103183183D01*
X233101094Y-103184351D01*
X233072104Y-103184351D01*
X233070399Y-103185589D01*
X233068296Y-103185674D01*
X233045561Y-103203635D01*
X233022104Y-103220678D01*
X233021452Y-103222681D01*
X233019801Y-103223987D01*
X232939579Y-103344319D01*
X232872340Y-103411557D01*
X232801141Y-103447158D01*
X232757109Y-103490527D01*
X232746978Y-103551494D01*
X232560149Y-103551494D01*
X232560149Y-103279457D01*
X232541051Y-103220678D01*
X232491051Y-103184351D01*
X232429247Y-103184351D01*
X232379247Y-103220678D01*
X232360149Y-103279457D01*
X232360149Y-103608028D01*
X232045863Y-103608028D01*
X232045863Y-103279457D01*
X232026765Y-103220678D01*
X231976765Y-103184351D01*
X231914961Y-103184351D01*
X231864961Y-103220678D01*
X231845863Y-103279457D01*
X231845863Y-104179457D01*
X231717292Y-104179457D01*
X231717292Y-103054612D01*
X233583826Y-103054612D01*
X233583826Y-104408028D01*
G37*
G36*
X230960148Y-104403134D02*
G01*
X229093615Y-104403134D01*
X229093615Y-103310359D01*
X229222186Y-103310359D01*
X229258513Y-103360359D01*
X229317292Y-103379457D01*
X229474435Y-103379457D01*
X229474435Y-104179457D01*
X229493533Y-104238236D01*
X229543533Y-104274563D01*
X229605337Y-104274563D01*
X229655337Y-104238236D01*
X229674435Y-104179457D01*
X230031577Y-104179457D01*
X230050675Y-104238236D01*
X230100675Y-104274563D01*
X230162479Y-104274563D01*
X230212479Y-104238236D01*
X230231577Y-104179457D01*
X230231577Y-103730213D01*
X230340959Y-103964603D01*
X230354053Y-103978636D01*
X230363355Y-103995429D01*
X230374631Y-104000691D01*
X230383122Y-104009791D01*
X230401969Y-104013448D01*
X230419361Y-104021565D01*
X230431574Y-104019194D01*
X230443793Y-104021566D01*
X230461189Y-104013447D01*
X230480032Y-104009791D01*
X230488520Y-104000693D01*
X230499799Y-103995430D01*
X230509101Y-103978635D01*
X230522195Y-103964603D01*
X230631577Y-103730212D01*
X230631577Y-104179457D01*
X230650675Y-104238236D01*
X230700675Y-104274563D01*
X230762479Y-104274563D01*
X230812479Y-104238236D01*
X230831577Y-104179457D01*
X230831577Y-103279457D01*
X230828548Y-103270135D01*
X230829746Y-103260405D01*
X230819201Y-103241369D01*
X230812479Y-103220678D01*
X230804549Y-103214916D01*
X230799799Y-103206341D01*
X230780080Y-103197138D01*
X230762479Y-103184351D01*
X230752677Y-103184351D01*
X230743793Y-103180205D01*
X230722431Y-103184351D01*
X230700675Y-103184351D01*
X230692745Y-103190112D01*
X230683122Y-103191980D01*
X230668278Y-103207888D01*
X230650675Y-103220678D01*
X230647645Y-103230001D01*
X230640959Y-103237168D01*
X230431576Y-103685843D01*
X230222195Y-103237168D01*
X230215508Y-103230001D01*
X230212479Y-103220678D01*
X230194875Y-103207888D01*
X230180032Y-103191980D01*
X230170409Y-103190112D01*
X230162479Y-103184351D01*
X230140720Y-103184351D01*
X230119361Y-103180206D01*
X230110479Y-103184351D01*
X230100675Y-103184351D01*
X230083070Y-103197141D01*
X230063355Y-103206342D01*
X230058605Y-103214916D01*
X230050675Y-103220678D01*
X230043951Y-103241370D01*
X230033408Y-103260405D01*
X230034605Y-103270135D01*
X230031577Y-103279457D01*
X230031577Y-104179457D01*
X229674435Y-104179457D01*
X229674435Y-103379457D01*
X229831578Y-103379457D01*
X229890357Y-103360359D01*
X229926684Y-103310359D01*
X229926684Y-103248555D01*
X229890357Y-103198555D01*
X229831578Y-103179457D01*
X229317292Y-103179457D01*
X229258513Y-103198555D01*
X229222186Y-103248555D01*
X229222186Y-103310359D01*
X229093615Y-103310359D01*
X229093615Y-103050886D01*
X230960148Y-103050886D01*
X230960148Y-104403134D01*
G37*
G36*
X228398344Y-104408028D02*
G01*
X226574931Y-104408028D01*
X226574931Y-103698078D01*
X226703502Y-103698078D01*
X226709498Y-103725602D01*
X226713905Y-103753427D01*
X226716020Y-103755542D01*
X226716657Y-103758465D01*
X226737687Y-103777209D01*
X226757607Y-103797129D01*
X226760561Y-103797596D01*
X226762794Y-103799587D01*
X226790826Y-103802390D01*
X226818649Y-103806797D01*
X226821313Y-103805439D01*
X226824291Y-103805737D01*
X226848619Y-103791526D01*
X226873717Y-103778739D01*
X226905099Y-103747356D01*
X226955185Y-103722314D01*
X227122256Y-103722314D01*
X227172341Y-103747356D01*
X227192250Y-103767265D01*
X227217292Y-103817348D01*
X227217292Y-103984420D01*
X227192248Y-104034507D01*
X227172341Y-104054414D01*
X227122256Y-104079457D01*
X226955185Y-104079457D01*
X226905100Y-104054415D01*
X226873718Y-104023032D01*
X226818650Y-103994973D01*
X226757608Y-104004640D01*
X226713905Y-104048342D01*
X226704236Y-104109384D01*
X226732294Y-104164452D01*
X226775152Y-104207310D01*
X226789592Y-104214668D01*
X226801142Y-104226043D01*
X226886857Y-104268900D01*
X226909654Y-104272333D01*
X226931578Y-104279457D01*
X227145863Y-104279457D01*
X227167786Y-104272333D01*
X227190584Y-104268900D01*
X227276299Y-104226043D01*
X227287847Y-104214668D01*
X227302290Y-104207310D01*
X227345147Y-104164452D01*
X227352505Y-104150009D01*
X227363878Y-104138463D01*
X227406735Y-104052750D01*
X227410168Y-104029951D01*
X227417292Y-104008028D01*
X227417292Y-103793742D01*
X227410168Y-103771818D01*
X227406735Y-103749020D01*
X227363878Y-103663307D01*
X227352504Y-103651759D01*
X227345146Y-103637317D01*
X227302289Y-103594460D01*
X227287846Y-103587101D01*
X227276299Y-103575728D01*
X227190584Y-103532871D01*
X227167786Y-103529437D01*
X227145863Y-103522314D01*
X226931578Y-103522314D01*
X226921757Y-103525504D01*
X226936362Y-103379457D01*
X227274435Y-103379457D01*
X227333214Y-103360359D01*
X227369541Y-103310359D01*
X227369541Y-103249278D01*
X227479097Y-103249278D01*
X227479567Y-103311080D01*
X227779567Y-104211079D01*
X227797477Y-104235342D01*
X227815044Y-104259910D01*
X227815798Y-104260161D01*
X227816272Y-104260803D01*
X227845037Y-104269908D01*
X227873676Y-104279455D01*
X227874436Y-104279214D01*
X227875194Y-104279454D01*
X227903772Y-104269927D01*
X227932598Y-104260803D01*
X227933071Y-104260161D01*
X227933826Y-104259910D01*
X227951380Y-104235358D01*
X227969303Y-104211080D01*
X228269303Y-103311080D01*
X228269773Y-103249278D01*
X228233826Y-103199004D01*
X228175194Y-103179460D01*
X228116272Y-103198111D01*
X228079567Y-103247835D01*
X227874435Y-103863230D01*
X227669303Y-103247834D01*
X227632598Y-103198111D01*
X227573676Y-103179459D01*
X227515044Y-103199004D01*
X227479097Y-103249278D01*
X227369541Y-103249278D01*
X227369541Y-103248555D01*
X227333214Y-103198555D01*
X227274435Y-103179457D01*
X226845863Y-103179457D01*
X226835462Y-103182836D01*
X226824578Y-103181748D01*
X226806733Y-103192170D01*
X226787084Y-103198555D01*
X226780656Y-103207402D01*
X226771211Y-103212919D01*
X226762901Y-103231839D01*
X226750757Y-103248555D01*
X226750757Y-103259491D01*
X226746359Y-103269506D01*
X226703502Y-103698078D01*
X226574931Y-103698078D01*
X226574931Y-103050886D01*
X228398344Y-103050886D01*
X228398344Y-104408028D01*
G37*
D11*
X261800000Y-131754819D02*
X261800000Y-130754819D01*
X261800000Y-130754819D02*
X262133333Y-131469104D01*
X262133333Y-131469104D02*
X262466666Y-130754819D01*
X262466666Y-130754819D02*
X262466666Y-131754819D01*
X262942857Y-131754819D02*
X262942857Y-131088152D01*
X262942857Y-130754819D02*
X262895238Y-130802438D01*
X262895238Y-130802438D02*
X262942857Y-130850057D01*
X262942857Y-130850057D02*
X262990476Y-130802438D01*
X262990476Y-130802438D02*
X262942857Y-130754819D01*
X262942857Y-130754819D02*
X262942857Y-130850057D01*
X263419047Y-131088152D02*
X263419047Y-131754819D01*
X263419047Y-131183390D02*
X263466666Y-131135771D01*
X263466666Y-131135771D02*
X263561904Y-131088152D01*
X263561904Y-131088152D02*
X263704761Y-131088152D01*
X263704761Y-131088152D02*
X263799999Y-131135771D01*
X263799999Y-131135771D02*
X263847618Y-131231009D01*
X263847618Y-131231009D02*
X263847618Y-131754819D01*
X264323809Y-131754819D02*
X264323809Y-131088152D01*
X264323809Y-130754819D02*
X264276190Y-130802438D01*
X264276190Y-130802438D02*
X264323809Y-130850057D01*
X264323809Y-130850057D02*
X264371428Y-130802438D01*
X264371428Y-130802438D02*
X264323809Y-130754819D01*
X264323809Y-130754819D02*
X264323809Y-130850057D01*
X265895237Y-131231009D02*
X266038094Y-131278628D01*
X266038094Y-131278628D02*
X266085713Y-131326247D01*
X266085713Y-131326247D02*
X266133332Y-131421485D01*
X266133332Y-131421485D02*
X266133332Y-131564342D01*
X266133332Y-131564342D02*
X266085713Y-131659580D01*
X266085713Y-131659580D02*
X266038094Y-131707200D01*
X266038094Y-131707200D02*
X265942856Y-131754819D01*
X265942856Y-131754819D02*
X265561904Y-131754819D01*
X265561904Y-131754819D02*
X265561904Y-130754819D01*
X265561904Y-130754819D02*
X265895237Y-130754819D01*
X265895237Y-130754819D02*
X265990475Y-130802438D01*
X265990475Y-130802438D02*
X266038094Y-130850057D01*
X266038094Y-130850057D02*
X266085713Y-130945295D01*
X266085713Y-130945295D02*
X266085713Y-131040533D01*
X266085713Y-131040533D02*
X266038094Y-131135771D01*
X266038094Y-131135771D02*
X265990475Y-131183390D01*
X265990475Y-131183390D02*
X265895237Y-131231009D01*
X265895237Y-131231009D02*
X265561904Y-131231009D01*
X267038094Y-131754819D02*
X266561904Y-131754819D01*
X266561904Y-131754819D02*
X266561904Y-130754819D01*
X267371428Y-131754819D02*
X267371428Y-130754819D01*
X267371428Y-130754819D02*
X267609523Y-130754819D01*
X267609523Y-130754819D02*
X267752380Y-130802438D01*
X267752380Y-130802438D02*
X267847618Y-130897676D01*
X267847618Y-130897676D02*
X267895237Y-130992914D01*
X267895237Y-130992914D02*
X267942856Y-131183390D01*
X267942856Y-131183390D02*
X267942856Y-131326247D01*
X267942856Y-131326247D02*
X267895237Y-131516723D01*
X267895237Y-131516723D02*
X267847618Y-131611961D01*
X267847618Y-131611961D02*
X267752380Y-131707200D01*
X267752380Y-131707200D02*
X267609523Y-131754819D01*
X267609523Y-131754819D02*
X267371428Y-131754819D01*
X268942856Y-131659580D02*
X268895237Y-131707200D01*
X268895237Y-131707200D02*
X268752380Y-131754819D01*
X268752380Y-131754819D02*
X268657142Y-131754819D01*
X268657142Y-131754819D02*
X268514285Y-131707200D01*
X268514285Y-131707200D02*
X268419047Y-131611961D01*
X268419047Y-131611961D02*
X268371428Y-131516723D01*
X268371428Y-131516723D02*
X268323809Y-131326247D01*
X268323809Y-131326247D02*
X268323809Y-131183390D01*
X268323809Y-131183390D02*
X268371428Y-130992914D01*
X268371428Y-130992914D02*
X268419047Y-130897676D01*
X268419047Y-130897676D02*
X268514285Y-130802438D01*
X268514285Y-130802438D02*
X268657142Y-130754819D01*
X268657142Y-130754819D02*
X268752380Y-130754819D01*
X268752380Y-130754819D02*
X268895237Y-130802438D01*
X268895237Y-130802438D02*
X268942856Y-130850057D01*
X270038095Y-131088152D02*
X270276190Y-131754819D01*
X270276190Y-131754819D02*
X270514285Y-131088152D01*
X271419047Y-131754819D02*
X270847619Y-131754819D01*
X271133333Y-131754819D02*
X271133333Y-130754819D01*
X271133333Y-130754819D02*
X271038095Y-130897676D01*
X271038095Y-130897676D02*
X270942857Y-130992914D01*
X270942857Y-130992914D02*
X270847619Y-131040533D01*
X271847619Y-131659580D02*
X271895238Y-131707200D01*
X271895238Y-131707200D02*
X271847619Y-131754819D01*
X271847619Y-131754819D02*
X271800000Y-131707200D01*
X271800000Y-131707200D02*
X271847619Y-131659580D01*
X271847619Y-131659580D02*
X271847619Y-131754819D01*
X272514285Y-130754819D02*
X272609523Y-130754819D01*
X272609523Y-130754819D02*
X272704761Y-130802438D01*
X272704761Y-130802438D02*
X272752380Y-130850057D01*
X272752380Y-130850057D02*
X272799999Y-130945295D01*
X272799999Y-130945295D02*
X272847618Y-131135771D01*
X272847618Y-131135771D02*
X272847618Y-131373866D01*
X272847618Y-131373866D02*
X272799999Y-131564342D01*
X272799999Y-131564342D02*
X272752380Y-131659580D01*
X272752380Y-131659580D02*
X272704761Y-131707200D01*
X272704761Y-131707200D02*
X272609523Y-131754819D01*
X272609523Y-131754819D02*
X272514285Y-131754819D01*
X272514285Y-131754819D02*
X272419047Y-131707200D01*
X272419047Y-131707200D02*
X272371428Y-131659580D01*
X272371428Y-131659580D02*
X272323809Y-131564342D01*
X272323809Y-131564342D02*
X272276190Y-131373866D01*
X272276190Y-131373866D02*
X272276190Y-131135771D01*
X272276190Y-131135771D02*
X272323809Y-130945295D01*
X272323809Y-130945295D02*
X272371428Y-130850057D01*
X272371428Y-130850057D02*
X272419047Y-130802438D01*
X272419047Y-130802438D02*
X272514285Y-130754819D01*
X225229580Y-130242857D02*
X225277200Y-130290476D01*
X225277200Y-130290476D02*
X225324819Y-130433333D01*
X225324819Y-130433333D02*
X225324819Y-130528571D01*
X225324819Y-130528571D02*
X225277200Y-130671428D01*
X225277200Y-130671428D02*
X225181961Y-130766666D01*
X225181961Y-130766666D02*
X225086723Y-130814285D01*
X225086723Y-130814285D02*
X224896247Y-130861904D01*
X224896247Y-130861904D02*
X224753390Y-130861904D01*
X224753390Y-130861904D02*
X224562914Y-130814285D01*
X224562914Y-130814285D02*
X224467676Y-130766666D01*
X224467676Y-130766666D02*
X224372438Y-130671428D01*
X224372438Y-130671428D02*
X224324819Y-130528571D01*
X224324819Y-130528571D02*
X224324819Y-130433333D01*
X224324819Y-130433333D02*
X224372438Y-130290476D01*
X224372438Y-130290476D02*
X224420057Y-130242857D01*
X225324819Y-129290476D02*
X225324819Y-129861904D01*
X225324819Y-129576190D02*
X224324819Y-129576190D01*
X224324819Y-129576190D02*
X224467676Y-129671428D01*
X224467676Y-129671428D02*
X224562914Y-129766666D01*
X224562914Y-129766666D02*
X224610533Y-129861904D01*
X225324819Y-128814285D02*
X225324819Y-128623809D01*
X225324819Y-128623809D02*
X225277200Y-128528571D01*
X225277200Y-128528571D02*
X225229580Y-128480952D01*
X225229580Y-128480952D02*
X225086723Y-128385714D01*
X225086723Y-128385714D02*
X224896247Y-128338095D01*
X224896247Y-128338095D02*
X224515295Y-128338095D01*
X224515295Y-128338095D02*
X224420057Y-128385714D01*
X224420057Y-128385714D02*
X224372438Y-128433333D01*
X224372438Y-128433333D02*
X224324819Y-128528571D01*
X224324819Y-128528571D02*
X224324819Y-128719047D01*
X224324819Y-128719047D02*
X224372438Y-128814285D01*
X224372438Y-128814285D02*
X224420057Y-128861904D01*
X224420057Y-128861904D02*
X224515295Y-128909523D01*
X224515295Y-128909523D02*
X224753390Y-128909523D01*
X224753390Y-128909523D02*
X224848628Y-128861904D01*
X224848628Y-128861904D02*
X224896247Y-128814285D01*
X224896247Y-128814285D02*
X224943866Y-128719047D01*
X224943866Y-128719047D02*
X224943866Y-128528571D01*
X224943866Y-128528571D02*
X224896247Y-128433333D01*
X224896247Y-128433333D02*
X224848628Y-128385714D01*
X224848628Y-128385714D02*
X224753390Y-128338095D01*
X221928571Y-110114700D02*
X223071429Y-110114700D01*
X222500000Y-110686128D02*
X222500000Y-109543271D01*
X216928571Y-110114700D02*
X218071429Y-110114700D01*
D12*
%TO.C,C19*%
X227285000Y-129861252D02*
X227285000Y-129338748D01*
X225815000Y-129861252D02*
X225815000Y-129338748D01*
%TO.C,D4*%
X228715000Y-132735000D02*
X231000000Y-132735000D01*
X228715000Y-131265000D02*
X228715000Y-132735000D01*
X231000000Y-131265000D02*
X228715000Y-131265000D01*
%TO.C,R42*%
X237237258Y-132522500D02*
X236762742Y-132522500D01*
X237237258Y-131477500D02*
X236762742Y-131477500D01*
%TO.C,R38*%
X233262742Y-132522500D02*
X233737258Y-132522500D01*
X233262742Y-131477500D02*
X233737258Y-131477500D01*
%TO.C,R37*%
X237237258Y-129777500D02*
X236762742Y-129777500D01*
X237237258Y-130822500D02*
X236762742Y-130822500D01*
%TO.C,D5*%
X239400000Y-132735000D02*
X241685000Y-132735000D01*
X241685000Y-132735000D02*
X241685000Y-131265000D01*
X241685000Y-131265000D02*
X239400000Y-131265000D01*
%TO.C,D3*%
X241685000Y-129565000D02*
X239400000Y-129565000D01*
X241685000Y-131035000D02*
X241685000Y-129565000D01*
X239400000Y-131035000D02*
X241685000Y-131035000D01*
%TO.C,J13*%
X214790000Y-104890000D02*
X216490000Y-103590000D01*
X214790000Y-107710000D02*
X216490000Y-109010000D01*
X214790000Y-104890000D02*
X214790000Y-107710000D01*
X225210000Y-103590000D02*
X225210000Y-109010000D01*
X216490000Y-109010000D02*
X225210000Y-109010000D01*
X216490000Y-103590000D02*
X225210000Y-103590000D01*
%TO.C,R16*%
X253802742Y-131237500D02*
X254277258Y-131237500D01*
X253802742Y-132282500D02*
X254277258Y-132282500D01*
%TO.C,D2*%
X252555000Y-129425000D02*
X252555000Y-130895000D01*
X252555000Y-130895000D02*
X254840000Y-130895000D01*
X254840000Y-129425000D02*
X252555000Y-129425000D01*
%TO.C,R39*%
X255137258Y-106422500D02*
X254662742Y-106422500D01*
X255137258Y-105377500D02*
X254662742Y-105377500D01*
%TO.C,R40*%
X254662742Y-103777500D02*
X255137258Y-103777500D01*
X254662742Y-104822500D02*
X255137258Y-104822500D01*
%TO.C,C1*%
X253090000Y-127111252D02*
X253090000Y-125688748D01*
X254910000Y-127111252D02*
X254910000Y-125688748D01*
%TO.C,C2*%
X253090000Y-119111252D02*
X253090000Y-117688748D01*
X254910000Y-119111252D02*
X254910000Y-117688748D01*
%TO.C,Q1*%
X262060000Y-124065000D02*
X262060000Y-123715000D01*
X255940000Y-129085000D02*
X262060000Y-129085000D01*
X255940000Y-128785000D02*
X255940000Y-129085000D01*
X255940000Y-124015000D02*
X255940000Y-123715000D01*
X255940000Y-123715000D02*
X262060000Y-123715000D01*
%TO.C,Q3*%
X262060000Y-116065000D02*
X262060000Y-115715000D01*
X255940000Y-121085000D02*
X262060000Y-121085000D01*
X255940000Y-120785000D02*
X255940000Y-121085000D01*
X255940000Y-116015000D02*
X255940000Y-115715000D01*
X255940000Y-115715000D02*
X262060000Y-115715000D01*
%TO.C,Q5*%
X262060000Y-108065000D02*
X262060000Y-107715000D01*
X255940000Y-113085000D02*
X262060000Y-113085000D01*
X255940000Y-112785000D02*
X255940000Y-113085000D01*
X255940000Y-108015000D02*
X255940000Y-107715000D01*
X255940000Y-107715000D02*
X262060000Y-107715000D01*
%TO.C,Q6*%
X271060000Y-108065000D02*
X271060000Y-107715000D01*
X264940000Y-113085000D02*
X271060000Y-113085000D01*
X264940000Y-112785000D02*
X264940000Y-113085000D01*
X264940000Y-108015000D02*
X264940000Y-107715000D01*
X264940000Y-107715000D02*
X271060000Y-107715000D01*
%TO.C,Q4*%
X271060000Y-116065000D02*
X271060000Y-115715000D01*
X264940000Y-121085000D02*
X271060000Y-121085000D01*
X264940000Y-120785000D02*
X264940000Y-121085000D01*
X264940000Y-116015000D02*
X264940000Y-115715000D01*
X264940000Y-115715000D02*
X271060000Y-115715000D01*
%TO.C,Q2*%
X271060000Y-124065000D02*
X271060000Y-123715000D01*
X264940000Y-129085000D02*
X271060000Y-129085000D01*
X264940000Y-128785000D02*
X264940000Y-129085000D01*
X264940000Y-124015000D02*
X264940000Y-123715000D01*
X264940000Y-123715000D02*
X271060000Y-123715000D01*
%TO.C,C3*%
X253090000Y-111111252D02*
X253090000Y-109688748D01*
X254910000Y-111111252D02*
X254910000Y-109688748D01*
%TO.C,SW3*%
X224250000Y-119950000D02*
X224350000Y-119950000D01*
X222750000Y-119950000D02*
X222750000Y-124350000D01*
X225850000Y-124350000D02*
X225850000Y-119950000D01*
X224250000Y-124350000D02*
X224350000Y-124350000D01*
%TO.C,U8*%
X229200000Y-128015000D02*
X229200000Y-126915000D01*
X248700000Y-127965000D02*
X247700000Y-127965000D01*
X248700000Y-127965000D02*
X248700000Y-126965000D01*
X229350000Y-127815000D02*
X229850000Y-127815000D01*
X247700000Y-127815000D02*
X248550000Y-127815000D01*
X248550000Y-127815000D02*
X248550000Y-126515000D01*
X229350000Y-109815000D02*
X229350000Y-127815000D01*
X229350000Y-109815000D02*
X229850000Y-109815000D01*
X247800000Y-109815000D02*
X248550000Y-109815000D01*
X248550000Y-109815000D02*
X248550000Y-111165000D01*
X229200000Y-109665000D02*
X229200000Y-110665000D01*
X229850000Y-109665000D02*
X229200000Y-109665000D01*
X247800000Y-109665000D02*
X248700000Y-109665000D01*
X248700000Y-109665000D02*
X248700000Y-110665000D01*
%TO.C,SW1*%
X215750000Y-113500000D02*
X215850000Y-113500000D01*
X214250000Y-113500000D02*
X214250000Y-117900000D01*
X217350000Y-117900000D02*
X217350000Y-113500000D01*
X215750000Y-117900000D02*
X215850000Y-117900000D01*
%TO.C,IC4*%
X220600000Y-112900000D02*
X227900000Y-112900000D01*
X220600000Y-118400000D02*
X227900000Y-118400000D01*
X227900000Y-118400000D02*
X227900000Y-117250000D01*
%TO.C,J14*%
X214940000Y-130755000D02*
X214940000Y-128955000D01*
X214940000Y-132855000D02*
X214940000Y-134005000D01*
X224280000Y-130755000D02*
X224280000Y-128955000D01*
X224280000Y-132855000D02*
X224280000Y-134005000D01*
%TO.C,R31*%
X212227500Y-128137258D02*
X212227500Y-127662742D01*
X213272500Y-128137258D02*
X213272500Y-127662742D01*
D11*
%TO.C,IC1*%
X220390000Y-124882500D02*
X214765000Y-124882500D01*
X219265000Y-119332500D02*
X214765000Y-119332500D01*
D12*
%TO.C,D1*%
X228715000Y-129565000D02*
X228715000Y-131035000D01*
X228715000Y-131035000D02*
X231000000Y-131035000D01*
X231000000Y-129565000D02*
X228715000Y-129565000D01*
%TO.C,R32*%
X233262742Y-129777500D02*
X233737258Y-129777500D01*
X233262742Y-130822500D02*
X233737258Y-130822500D01*
%TD*%
%LPC*%
D13*
%TO.C,C19*%
X226550000Y-130550000D03*
X226550000Y-128650000D03*
%TD*%
D14*
%TO.C,H4*%
X277050000Y-132050000D03*
D15*
X277050000Y-132050000D03*
%TD*%
D14*
%TO.C,H3*%
X277050000Y-104950000D03*
D15*
X277050000Y-104950000D03*
%TD*%
D14*
%TO.C,H2*%
X214300000Y-110350000D03*
D15*
X214300000Y-110350000D03*
%TD*%
D16*
%TO.C,D4*%
X229412500Y-132000000D03*
X230987500Y-132000000D03*
%TD*%
D17*
%TO.C,R42*%
X236175000Y-132000000D03*
X237825000Y-132000000D03*
%TD*%
D18*
%TO.C,R38*%
X232675000Y-132000000D03*
X234325000Y-132000000D03*
%TD*%
D17*
%TO.C,R37*%
X237825000Y-130300000D03*
X236175000Y-130300000D03*
%TD*%
D19*
%TO.C,D5*%
X239412500Y-132000000D03*
X240987500Y-132000000D03*
%TD*%
%TO.C,D3*%
X240987500Y-130300000D03*
X239412500Y-130300000D03*
%TD*%
D20*
%TO.C,J10*%
X197090000Y-113800000D03*
D21*
X199630000Y-113800000D03*
X202170000Y-113800000D03*
X204710000Y-113800000D03*
X207250000Y-113800000D03*
X209790000Y-113800000D03*
%TD*%
D20*
%TO.C,J9*%
X197090000Y-118450000D03*
D21*
X199630000Y-118450000D03*
X202170000Y-118450000D03*
X204710000Y-118450000D03*
X207250000Y-118450000D03*
X209790000Y-118450000D03*
%TD*%
D20*
%TO.C,J4*%
X197090000Y-123100000D03*
D21*
X199630000Y-123100000D03*
X202170000Y-123100000D03*
X204710000Y-123100000D03*
X207250000Y-123100000D03*
X209790000Y-123100000D03*
%TD*%
D20*
%TO.C,J11*%
X197090000Y-109150000D03*
D21*
X199630000Y-109150000D03*
X202170000Y-109150000D03*
X204710000Y-109150000D03*
X207250000Y-109150000D03*
X209790000Y-109150000D03*
%TD*%
D20*
%TO.C,J3*%
X197090000Y-127750000D03*
D21*
X199630000Y-127750000D03*
X202170000Y-127750000D03*
X204710000Y-127750000D03*
X207250000Y-127750000D03*
X209790000Y-127750000D03*
%TD*%
D20*
%TO.C,J2*%
X197090000Y-132400000D03*
D21*
X199630000Y-132400000D03*
X202170000Y-132400000D03*
X204710000Y-132400000D03*
X207250000Y-132400000D03*
X209790000Y-132400000D03*
%TD*%
D20*
%TO.C,J12*%
X197090000Y-104500000D03*
D21*
X199630000Y-104500000D03*
X202170000Y-104500000D03*
X204710000Y-104500000D03*
X207250000Y-104500000D03*
X209790000Y-104500000D03*
%TD*%
D20*
%TO.C,J1*%
X227480000Y-105400000D03*
D21*
X230020000Y-105400000D03*
X232560000Y-105400000D03*
X235100000Y-105400000D03*
X237640000Y-105400000D03*
X240180000Y-105400000D03*
%TD*%
D20*
%TO.C,J15*%
X250840000Y-105400000D03*
D21*
X248300000Y-105400000D03*
X245760000Y-105400000D03*
X243220000Y-105400000D03*
%TD*%
D22*
%TO.C,J13*%
X217500000Y-106300000D03*
D23*
X222500000Y-106300000D03*
%TD*%
D18*
%TO.C,R16*%
X253215000Y-131760000D03*
X254865000Y-131760000D03*
%TD*%
D16*
%TO.C,D2*%
X253252500Y-130160000D03*
X254827500Y-130160000D03*
%TD*%
D17*
%TO.C,R39*%
X255725000Y-105900000D03*
X254075000Y-105900000D03*
%TD*%
D18*
%TO.C,R40*%
X254075000Y-104300000D03*
X255725000Y-104300000D03*
%TD*%
D24*
%TO.C,C1*%
X254000000Y-127875000D03*
X254000000Y-124925000D03*
%TD*%
%TO.C,C2*%
X254000000Y-119875000D03*
X254000000Y-116925000D03*
%TD*%
D25*
%TO.C,Q1*%
X258350000Y-126400000D03*
D26*
X261900000Y-128305000D03*
X261900000Y-127035000D03*
X261900000Y-125765000D03*
X261900000Y-124495000D03*
%TD*%
D25*
%TO.C,Q3*%
X258350000Y-118400000D03*
D26*
X261900000Y-120305000D03*
X261900000Y-119035000D03*
X261900000Y-117765000D03*
X261900000Y-116495000D03*
%TD*%
D25*
%TO.C,Q5*%
X258350000Y-110400000D03*
D26*
X261900000Y-112305000D03*
X261900000Y-111035000D03*
X261900000Y-109765000D03*
X261900000Y-108495000D03*
%TD*%
D25*
%TO.C,Q6*%
X267350000Y-110400000D03*
D26*
X270900000Y-112305000D03*
X270900000Y-111035000D03*
X270900000Y-109765000D03*
X270900000Y-108495000D03*
%TD*%
D25*
%TO.C,Q4*%
X267350000Y-118400000D03*
D26*
X270900000Y-120305000D03*
X270900000Y-119035000D03*
X270900000Y-117765000D03*
X270900000Y-116495000D03*
%TD*%
D25*
%TO.C,Q2*%
X267350000Y-126400000D03*
D26*
X270900000Y-128305000D03*
X270900000Y-127035000D03*
X270900000Y-125765000D03*
X270900000Y-124495000D03*
%TD*%
D24*
%TO.C,C3*%
X254000000Y-111875000D03*
X254000000Y-108925000D03*
%TD*%
D27*
%TO.C,SW3*%
X225100000Y-120100000D03*
X225100000Y-124200000D03*
X223500000Y-120100000D03*
X223500000Y-124200000D03*
%TD*%
D28*
%TO.C,U8*%
X230540000Y-127565000D03*
X231810000Y-127565000D03*
X233080000Y-127565000D03*
X234350000Y-127565000D03*
X235620000Y-127565000D03*
X236890000Y-127565000D03*
X238160000Y-127565000D03*
X239430000Y-127565000D03*
X240700000Y-127565000D03*
X241970000Y-127565000D03*
X243240000Y-127565000D03*
X244510000Y-127565000D03*
X245780000Y-127565000D03*
X247050000Y-127565000D03*
D29*
X248300000Y-125800000D03*
X248300000Y-124530000D03*
X248300000Y-123260000D03*
X248300000Y-121990000D03*
X248300000Y-120720000D03*
X248300000Y-119450000D03*
X248300000Y-118180000D03*
X248300000Y-116910000D03*
X248300000Y-115640000D03*
X248300000Y-114370000D03*
X248300000Y-113100000D03*
X248300000Y-111830000D03*
D28*
X247050000Y-110065000D03*
X245780000Y-110065000D03*
X244510000Y-110065000D03*
X243240000Y-110065000D03*
X241970000Y-110065000D03*
X240700000Y-110065000D03*
X239430000Y-110065000D03*
X238160000Y-110065000D03*
X236890000Y-110065000D03*
X235620000Y-110065000D03*
X234350000Y-110065000D03*
X233080000Y-110065000D03*
X231810000Y-110065000D03*
X230540000Y-110065000D03*
D30*
X236860000Y-121715000D03*
X238260000Y-121715000D03*
X239660000Y-121715000D03*
X236860000Y-120315000D03*
X238260000Y-120315000D03*
X239660000Y-120315000D03*
X236860000Y-118915000D03*
X238260000Y-118915000D03*
X239660000Y-118915000D03*
%TD*%
D27*
%TO.C,SW1*%
X216600000Y-113650000D03*
X216600000Y-117750000D03*
X215000000Y-113650000D03*
X215000000Y-117750000D03*
%TD*%
D29*
%TO.C,IC4*%
X221800000Y-114000000D03*
X221800000Y-117300000D03*
X226700000Y-117300000D03*
X226700000Y-114000000D03*
%TD*%
D31*
%TO.C,J14*%
X216720000Y-128150000D03*
X222500000Y-128150000D03*
D32*
X216410000Y-127075000D03*
X217210000Y-127075000D03*
D33*
X218360000Y-127075000D03*
X219360000Y-127075000D03*
X219860000Y-127075000D03*
X220860000Y-127075000D03*
D32*
X222010000Y-127075000D03*
X222810000Y-127075000D03*
X222810000Y-127075000D03*
X222010000Y-127075000D03*
D33*
X221360000Y-127075000D03*
X220360000Y-127075000D03*
X218860000Y-127075000D03*
X217860000Y-127075000D03*
D32*
X217210000Y-127075000D03*
X216410000Y-127075000D03*
D34*
X215290000Y-127650000D03*
D35*
X215290000Y-131830000D03*
D34*
X223930000Y-127650000D03*
D35*
X223930000Y-131830000D03*
%TD*%
D36*
%TO.C,R31*%
X212750000Y-128725000D03*
X212750000Y-127075000D03*
%TD*%
D37*
%TO.C,IC1*%
X219790000Y-124332500D03*
X219790000Y-123682500D03*
X219790000Y-123032500D03*
X219790000Y-122382500D03*
X219790000Y-121732500D03*
X219790000Y-121082500D03*
X219790000Y-120432500D03*
X219790000Y-119782500D03*
X214240000Y-119782500D03*
X214240000Y-120432500D03*
X214240000Y-121082500D03*
X214240000Y-121732500D03*
X214240000Y-122382500D03*
X214240000Y-123032500D03*
X214240000Y-123682500D03*
X214240000Y-124332500D03*
D38*
X217750000Y-123400000D03*
X217750000Y-122505000D03*
X217750000Y-121610000D03*
X217750000Y-120715000D03*
X216280000Y-123400000D03*
X216280000Y-122505000D03*
X216280000Y-121610000D03*
X216280000Y-120715000D03*
%TD*%
D16*
%TO.C,D1*%
X229412500Y-130300000D03*
X230987500Y-130300000D03*
%TD*%
D18*
%TO.C,R32*%
X232675000Y-130300000D03*
X234325000Y-130300000D03*
%TD*%
D20*
%TO.C,J8*%
X274240000Y-112050000D03*
D21*
X276780000Y-112050000D03*
X274240000Y-109510000D03*
X276780000Y-109510000D03*
%TD*%
D20*
%TO.C,J7*%
X274240000Y-119670000D03*
D21*
X276780000Y-119670000D03*
X274240000Y-117130000D03*
X276780000Y-117130000D03*
%TD*%
D20*
%TO.C,J6*%
X274240000Y-127290000D03*
D21*
X276780000Y-127290000D03*
X274240000Y-124750000D03*
X276780000Y-124750000D03*
%TD*%
%LPD*%
M02*
