%TF.GenerationSoftware,KiCad,Pcbnew,7.0.7*%
%TF.CreationDate,2023-10-21T19:04:04-04:00*%
%TF.ProjectId,xESC2,78455343-322e-46b6-9963-61645f706362,rev?*%
%TF.SameCoordinates,Original*%
%TF.FileFunction,Copper,L3,Inr*%
%TF.FilePolarity,Positive*%
%FSLAX46Y46*%
G04 Gerber Fmt 4.6, Leading zero omitted, Abs format (unit mm)*
G04 Created by KiCad (PCBNEW 7.0.7) date 2023-10-21 19:04:04*
%MOMM*%
%LPD*%
G01*
G04 APERTURE LIST*
%TA.AperFunction,ComponentPad*%
%ADD10C,2.600000*%
%TD*%
%TA.AperFunction,ComponentPad*%
%ADD11R,1.700000X1.700000*%
%TD*%
%TA.AperFunction,ComponentPad*%
%ADD12O,1.700000X1.700000*%
%TD*%
%TA.AperFunction,ComponentPad*%
%ADD13R,3.800000X3.800000*%
%TD*%
%TA.AperFunction,ComponentPad*%
%ADD14C,4.000000*%
%TD*%
%TA.AperFunction,ComponentPad*%
%ADD15O,1.000000X2.100000*%
%TD*%
%TA.AperFunction,ComponentPad*%
%ADD16O,1.000000X1.800000*%
%TD*%
%TA.AperFunction,ComponentPad*%
%ADD17C,0.600000*%
%TD*%
%TA.AperFunction,ViaPad*%
%ADD18C,0.450000*%
%TD*%
%TA.AperFunction,ViaPad*%
%ADD19C,0.500000*%
%TD*%
%TA.AperFunction,Conductor*%
%ADD20C,0.127000*%
%TD*%
%TA.AperFunction,Conductor*%
%ADD21C,1.000000*%
%TD*%
G04 APERTURE END LIST*
D10*
%TO.N,GND*%
%TO.C,H4*%
X277050000Y-132050000D03*
%TD*%
%TO.N,GND*%
%TO.C,H3*%
X277050000Y-104950000D03*
%TD*%
%TO.N,GND*%
%TO.C,H2*%
X214300000Y-110350000D03*
%TD*%
D11*
%TO.N,GND*%
%TO.C,J10*%
X197090000Y-113800000D03*
D12*
%TO.N,/MCU/SPI_MISO*%
X199630000Y-113800000D03*
%TO.N,/MCU/SPI_CLK*%
X202170000Y-113800000D03*
%TO.N,/MCU/SPI_CS3*%
X204710000Y-113800000D03*
%TO.N,+3V3*%
X207250000Y-113800000D03*
%TO.N,/MCU/SPI_CS5*%
X209790000Y-113800000D03*
%TD*%
D11*
%TO.N,GND*%
%TO.C,J9*%
X197090000Y-118450000D03*
D12*
%TO.N,/MCU/SPI_MISO*%
X199630000Y-118450000D03*
%TO.N,/MCU/SPI_CLK*%
X202170000Y-118450000D03*
%TO.N,/MCU/SPI_CS3*%
X204710000Y-118450000D03*
%TO.N,+3V3*%
X207250000Y-118450000D03*
%TO.N,/MCU/SPI_CS4*%
X209790000Y-118450000D03*
%TD*%
D11*
%TO.N,GND*%
%TO.C,J4*%
X197090000Y-123100000D03*
D12*
%TO.N,/MCU/SPI_MISO*%
X199630000Y-123100000D03*
%TO.N,/MCU/SPI_CLK*%
X202170000Y-123100000D03*
%TO.N,/MCU/SPI_CS3*%
X204710000Y-123100000D03*
%TO.N,+3V3*%
X207250000Y-123100000D03*
%TO.N,/MCU/SPI_CS3*%
X209790000Y-123100000D03*
%TD*%
D11*
%TO.N,GND*%
%TO.C,J11*%
X197090000Y-109150000D03*
D12*
%TO.N,/MCU/SPI_MISO*%
X199630000Y-109150000D03*
%TO.N,/MCU/SPI_CLK*%
X202170000Y-109150000D03*
%TO.N,/MCU/SPI_CS3*%
X204710000Y-109150000D03*
%TO.N,+3V3*%
X207250000Y-109150000D03*
%TO.N,/MCU/SPI_CS3*%
X209790000Y-109150000D03*
%TD*%
D11*
%TO.N,GND*%
%TO.C,J3*%
X197090000Y-127750000D03*
D12*
%TO.N,/MCU/SPI_MISO*%
X199630000Y-127750000D03*
%TO.N,/MCU/SPI_CLK*%
X202170000Y-127750000D03*
%TO.N,/MCU/SPI_CS3*%
X204710000Y-127750000D03*
%TO.N,+3V3*%
X207250000Y-127750000D03*
%TO.N,/MCU/SPI_CS2*%
X209790000Y-127750000D03*
%TD*%
D11*
%TO.N,GND*%
%TO.C,J2*%
X197090000Y-132400000D03*
D12*
%TO.N,/MCU/SPI_MISO*%
X199630000Y-132400000D03*
%TO.N,/MCU/SPI_CLK*%
X202170000Y-132400000D03*
%TO.N,/MCU/SPI_CS3*%
X204710000Y-132400000D03*
%TO.N,+3V3*%
X207250000Y-132400000D03*
%TO.N,/MCU/SPI_CS1*%
X209790000Y-132400000D03*
%TD*%
D11*
%TO.N,GND*%
%TO.C,J12*%
X197090000Y-104500000D03*
D12*
%TO.N,/MCU/SPI_MISO*%
X199630000Y-104500000D03*
%TO.N,/MCU/SPI_CLK*%
X202170000Y-104500000D03*
%TO.N,/MCU/SPI_CS3*%
X204710000Y-104500000D03*
%TO.N,+3V3*%
X207250000Y-104500000D03*
%TO.N,/MCU/SPI_CS7*%
X209790000Y-104500000D03*
%TD*%
D11*
%TO.N,+5V*%
%TO.C,J1*%
X227480000Y-105400000D03*
D12*
%TO.N,/TEMP_MOTOR*%
X230020000Y-105400000D03*
%TO.N,/HALL1*%
X232560000Y-105400000D03*
%TO.N,/HALL2*%
X235100000Y-105400000D03*
%TO.N,/HALL3*%
X237640000Y-105400000D03*
%TO.N,GND*%
X240180000Y-105400000D03*
%TD*%
D11*
%TO.N,/VM*%
%TO.C,J15*%
X250840000Y-105400000D03*
D12*
%TO.N,GND*%
X248300000Y-105400000D03*
%TO.N,Net-(J15-Pin_3)*%
X245760000Y-105400000D03*
%TO.N,Net-(J15-Pin_4)*%
X243220000Y-105400000D03*
%TD*%
D13*
%TO.N,GND*%
%TO.C,J13*%
X217500000Y-106300000D03*
D14*
%TO.N,/VM*%
X222500000Y-106300000D03*
%TD*%
D15*
%TO.N,GND*%
%TO.C,J14*%
X215290000Y-127650000D03*
D16*
X215290000Y-131830000D03*
D15*
X223930000Y-127650000D03*
D16*
X223930000Y-131830000D03*
%TD*%
D11*
%TO.N,Net-(J8-Pin_1)*%
%TO.C,J8*%
X274240000Y-112050000D03*
D12*
X276780000Y-112050000D03*
X274240000Y-109510000D03*
X276780000Y-109510000D03*
%TD*%
D11*
%TO.N,Net-(J7-Pin_1)*%
%TO.C,J7*%
X274240000Y-119670000D03*
D12*
X276780000Y-119670000D03*
X274240000Y-117130000D03*
X276780000Y-117130000D03*
%TD*%
D11*
%TO.N,Net-(J6-Pin_1)*%
%TO.C,J6*%
X274240000Y-127290000D03*
D12*
X276780000Y-127290000D03*
X274240000Y-124750000D03*
X276780000Y-124750000D03*
%TD*%
D17*
%TO.N,GND*%
%TO.C,IC2*%
X219830000Y-116285000D03*
X218430000Y-116285000D03*
%TD*%
D18*
%TO.N,+3V3*%
X246450000Y-133350000D03*
%TO.N,GND*%
X246400000Y-124050000D03*
X241900000Y-129350000D03*
X228350000Y-126600000D03*
X228350000Y-128050000D03*
X228350000Y-127350000D03*
X230350000Y-121150000D03*
X233800000Y-121150000D03*
X232250000Y-121150000D03*
%TO.N,/V_M_FILTERED*%
X241000000Y-126200000D03*
X240700000Y-129050000D03*
%TO.N,+3V3*%
X235200000Y-131700000D03*
%TO.N,GND*%
X244100000Y-115300000D03*
X244300000Y-121300000D03*
X240400000Y-115200000D03*
D19*
X272500000Y-114000000D03*
X274500000Y-115000000D03*
X275000000Y-114500000D03*
X274000000Y-114500000D03*
X273000000Y-114500000D03*
X272000000Y-114500000D03*
X272500000Y-115000000D03*
X274500000Y-114000000D03*
X271500000Y-114000000D03*
X273500000Y-114000000D03*
X273500000Y-115000000D03*
X271500000Y-115000000D03*
X271000000Y-114500000D03*
X269500000Y-115000000D03*
X270000000Y-122500000D03*
X269500000Y-123000000D03*
X270500000Y-115000000D03*
X269000000Y-122500000D03*
X271000000Y-122500000D03*
X270500000Y-114000000D03*
X269500000Y-122000000D03*
X270000000Y-114500000D03*
X270500000Y-122000000D03*
X270500000Y-123000000D03*
X274000000Y-122500000D03*
X261315000Y-106764980D03*
X271500000Y-123000000D03*
X274500000Y-123000000D03*
X275000000Y-122500000D03*
X261556308Y-115395181D03*
X273000000Y-122500000D03*
X257000000Y-106900000D03*
X263000000Y-111950000D03*
X272000000Y-122500000D03*
X263300000Y-123700000D03*
X272500000Y-122000000D03*
X219700000Y-118600000D03*
X273500000Y-122000000D03*
X260709490Y-127400000D03*
X273500000Y-123000000D03*
X263650000Y-106850000D03*
X232600000Y-108700000D03*
X254600000Y-107400000D03*
X255050000Y-122900000D03*
X254000000Y-131600000D03*
X254300000Y-115300000D03*
X260775000Y-119425000D03*
X271500000Y-122000000D03*
X274500000Y-122000000D03*
X229900000Y-108300000D03*
X272500000Y-123000000D03*
%TO.N,/Power/LSU*%
X254400000Y-129200000D03*
X252550000Y-127100000D03*
%TO.N,/Power/LSV*%
X253800000Y-121000000D03*
X250239939Y-124817009D03*
%TO.N,/Power/LSW*%
X250900000Y-125400000D03*
X253600000Y-107500000D03*
%TO.N,/Power/VOFS*%
X243600000Y-122100000D03*
X245850000Y-124950000D03*
%TO.N,EN*%
X228900000Y-121600000D03*
X233600000Y-129100000D03*
X228700000Y-125700000D03*
%TO.N,USB_D+*%
X225700000Y-126300000D03*
%TO.N,USB_D-*%
X226700000Y-127200000D03*
%TO.N,MCU_D-*%
X225400000Y-131800000D03*
%TO.N,MCU_D+*%
X225400000Y-132700000D03*
%TO.N,/Power/VOFS*%
X240800000Y-122100000D03*
%TO.N,+3V3*%
X237900000Y-117200000D03*
X223100000Y-114000000D03*
X234700000Y-117400000D03*
X220900000Y-121100000D03*
X241500000Y-115600000D03*
X231800000Y-126400000D03*
X240300000Y-108000000D03*
X221500000Y-115200000D03*
X231535000Y-112150000D03*
X255000000Y-114400000D03*
X213000000Y-115100000D03*
X263000000Y-116799998D03*
X213000000Y-117000000D03*
X214500000Y-124900000D03*
X261700000Y-114300000D03*
X232300000Y-115900000D03*
X245100000Y-133200000D03*
X229400000Y-129100000D03*
%TO.N,+5V*%
X228100000Y-129200000D03*
X235500000Y-129500000D03*
X238100000Y-112200000D03*
%TO.N,/PHASE_U_RAW*%
X267400000Y-123600000D03*
X268400000Y-123600000D03*
X264200000Y-129700000D03*
X262700000Y-129200000D03*
X263200000Y-129700000D03*
X267900000Y-123100000D03*
X266400000Y-123600000D03*
X264700000Y-129200000D03*
X265700000Y-129200000D03*
X266900000Y-123100000D03*
X265200000Y-129700000D03*
X263700000Y-129200000D03*
X265900000Y-123100000D03*
X264900000Y-123100000D03*
X266700000Y-129200000D03*
X266200000Y-129700000D03*
X267200000Y-129700000D03*
X268200000Y-129700000D03*
X267700000Y-129200000D03*
X265400000Y-123600000D03*
X264400000Y-123600000D03*
%TO.N,/PHASE_V_RAW*%
X267200000Y-121900000D03*
X262700000Y-121400000D03*
X266700000Y-121400000D03*
X267400000Y-115600000D03*
X266400000Y-115600000D03*
X265700000Y-121400000D03*
X265400000Y-115600000D03*
X267900000Y-115100000D03*
X264700000Y-121400000D03*
X266900000Y-115100000D03*
X265900000Y-115100000D03*
X263700000Y-121400000D03*
X268200000Y-121900000D03*
X267700000Y-121400000D03*
X264900000Y-115100000D03*
X268400000Y-115600000D03*
X265200000Y-121900000D03*
X263200000Y-121900000D03*
X266200000Y-121900000D03*
X264200000Y-121900000D03*
X264400000Y-115600000D03*
%TO.N,/PHASE_W_RAW*%
X265400000Y-107600000D03*
X264700000Y-113400000D03*
X266700000Y-113400000D03*
X267700000Y-113400000D03*
X265200000Y-113900000D03*
X266900000Y-107100000D03*
X268200000Y-113900000D03*
X265700000Y-113400000D03*
X264900000Y-107100000D03*
X266200000Y-113900000D03*
X267900000Y-107100000D03*
X268400000Y-107600000D03*
X267400000Y-107600000D03*
X267200000Y-113900000D03*
X266400000Y-107600000D03*
X265900000Y-107100000D03*
X264400000Y-107600000D03*
%TO.N,/CUR_U*%
X242725000Y-125575000D03*
%TO.N,/CUR_V*%
X241000000Y-124400000D03*
%TO.N,/CUR_W*%
X237500000Y-124400000D03*
%TO.N,/PHASE_U_FILTERED*%
X263000000Y-128200000D03*
%TO.N,/PHASE_V_FILTERED*%
X253000000Y-112900000D03*
X251700000Y-111800000D03*
X263900000Y-119500000D03*
%TO.N,/PHASE_W_FILTERED*%
X261100000Y-107400000D03*
%TO.N,VBUS*%
X219300000Y-128500000D03*
%TO.N,/MCU/WL*%
X241000000Y-116150000D03*
%TO.N,/MCU/WH*%
X241500000Y-116650000D03*
%TO.N,/MCU/VL*%
X241000000Y-117150000D03*
%TO.N,/MCU/VH*%
X241500000Y-117650000D03*
%TO.N,/MCU/UL*%
X241000000Y-118600000D03*
%TO.N,/MCU/UH*%
X241500000Y-119100001D03*
%TO.N,/MCU/DRV_ENABLE*%
X243600000Y-112300000D03*
%TO.N,Net-(Q1-G)*%
X261300000Y-129550000D03*
%TO.N,Net-(Q2-G)*%
X261550000Y-132175000D03*
%TO.N,/MCU/CAN_TX*%
X240900000Y-112400000D03*
%TO.N,/MCU/CAN_RX*%
X240150000Y-112350000D03*
%TO.N,Net-(Q3-G)*%
X261800000Y-122100000D03*
%TO.N,Net-(Q4-G)*%
X262400001Y-122700000D03*
%TO.N,Net-(Q5-G)*%
X262674996Y-107250000D03*
%TO.N,Net-(Q6-G)*%
X262700000Y-106200000D03*
%TO.N,/TEMP_MOTOR*%
X231500000Y-108643008D03*
%TO.N,/MCU/SPI_CS0*%
X229100000Y-124200000D03*
%TO.N,/MCU/SPI_CLK*%
X241515000Y-120900000D03*
%TO.N,/MCU/SPI_MISO*%
X243350000Y-132950000D03*
X241000000Y-119600000D03*
X242650000Y-129300000D03*
%TO.N,/VM*%
X258400000Y-122900000D03*
X256400000Y-121900000D03*
X260400000Y-122900000D03*
X258500000Y-131900000D03*
X260400000Y-121900000D03*
X259400000Y-122400000D03*
X257000000Y-131900000D03*
X258500000Y-129900000D03*
X257400000Y-122400000D03*
X256400000Y-122900000D03*
X258400000Y-121900000D03*
X257000000Y-129900000D03*
X260000000Y-131900000D03*
X260000000Y-129900000D03*
X260400000Y-114900000D03*
X258400000Y-113900000D03*
X256400000Y-114900000D03*
X258500000Y-104900000D03*
X260000000Y-106900000D03*
X259000000Y-105900000D03*
X260400000Y-113900000D03*
X257500000Y-130900000D03*
X258400000Y-114900000D03*
X257400000Y-114400000D03*
X259000000Y-130900000D03*
X258500000Y-106900000D03*
X259400000Y-114400000D03*
X256400000Y-113900000D03*
X257500000Y-105900000D03*
X257000000Y-104902010D03*
X260000000Y-104900000D03*
X251700000Y-107400000D03*
%TO.N,/PCB_TEMP*%
X263500000Y-115100000D03*
X263000000Y-113900000D03*
X251900000Y-113500000D03*
X253515709Y-113260996D03*
%TO.N,/Power/FAULT*%
X251500000Y-124350000D03*
X244050000Y-112850000D03*
%TO.N,Net-(IC3-DOUT)*%
X221900000Y-118550000D03*
%TO.N,/MCU/IO2*%
X246700000Y-125150000D03*
X241400000Y-123200000D03*
X227900000Y-122200000D03*
%TO.N,BOOT*%
X225100000Y-121000000D03*
X224250000Y-125050000D03*
%TO.N,/MCU/SPI_CS3*%
X217400000Y-133500000D03*
X244050000Y-132700000D03*
X243800000Y-129300000D03*
X241500000Y-120100000D03*
%TD*%
D20*
%TO.N,/MCU/IO2*%
X244750000Y-123200000D02*
X241200000Y-123200000D01*
X246700000Y-125150000D02*
X244750000Y-123200000D01*
%TO.N,/Power/VOFS*%
X240800000Y-122100000D02*
X243600000Y-122100000D01*
%TO.N,+5V*%
X228100000Y-129200000D02*
X228600000Y-129700000D01*
X228600000Y-129700000D02*
X235300000Y-129700000D01*
X235300000Y-129700000D02*
X235500000Y-129500000D01*
X236300000Y-128700000D02*
X236300000Y-114000000D01*
X236300000Y-114000000D02*
X238100000Y-112200000D01*
X235500000Y-129500000D02*
X236300000Y-128700000D01*
%TO.N,+3V3*%
X240900000Y-108600000D02*
X240300000Y-108000000D01*
X255000000Y-114400000D02*
X255000000Y-113500000D01*
X255000000Y-113500000D02*
X250100000Y-108600000D01*
X250100000Y-108600000D02*
X240900000Y-108600000D01*
D21*
%TO.N,/VM*%
X253873000Y-103573000D02*
X252046000Y-105400000D01*
X252046000Y-105400000D02*
X250840000Y-105400000D01*
X222500000Y-106300000D02*
X225227000Y-103573000D01*
X225227000Y-103573000D02*
X253873000Y-103573000D01*
D20*
X252100000Y-107400000D02*
X253900000Y-105600000D01*
X251700000Y-107400000D02*
X252100000Y-107400000D01*
%TD*%
%TA.AperFunction,Conductor*%
%TO.N,/VM*%
G36*
X277602244Y-102825661D02*
G01*
X277683963Y-102831505D01*
X277815093Y-102840883D01*
X277832866Y-102843438D01*
X278034790Y-102887364D01*
X278052022Y-102892423D01*
X278245633Y-102964637D01*
X278261980Y-102972103D01*
X278443332Y-103071129D01*
X278458455Y-103080848D01*
X278623866Y-103204673D01*
X278637452Y-103216446D01*
X278783553Y-103362547D01*
X278795326Y-103376133D01*
X278919151Y-103541544D01*
X278928870Y-103556667D01*
X279027896Y-103738019D01*
X279035365Y-103754372D01*
X279107572Y-103947966D01*
X279112637Y-103965216D01*
X279156559Y-104167122D01*
X279159117Y-104184917D01*
X279174336Y-104397719D01*
X279174496Y-104402285D01*
X279143156Y-132542898D01*
X279143129Y-132543094D01*
X279143129Y-132566375D01*
X279142968Y-132570872D01*
X279127741Y-132783716D01*
X279125182Y-132801508D01*
X279081259Y-133003410D01*
X279076194Y-133020659D01*
X279003987Y-133214249D01*
X278996519Y-133230602D01*
X278897493Y-133411951D01*
X278887776Y-133427071D01*
X278808487Y-133532989D01*
X278763946Y-133592488D01*
X278752173Y-133606073D01*
X278606073Y-133752173D01*
X278592488Y-133763946D01*
X278427075Y-133887774D01*
X278411951Y-133897493D01*
X278230602Y-133996519D01*
X278214249Y-134003987D01*
X278020659Y-134076194D01*
X278003410Y-134081259D01*
X277801508Y-134125182D01*
X277783715Y-134127741D01*
X277570859Y-134142968D01*
X277566362Y-134143129D01*
X277543300Y-134143129D01*
X277543229Y-134143138D01*
X250118061Y-134153856D01*
X250049933Y-134133881D01*
X250003419Y-134080243D01*
X249992013Y-134027788D01*
X249993091Y-132175000D01*
X261040312Y-132175000D01*
X261060958Y-132318596D01*
X261121223Y-132450558D01*
X261216225Y-132560196D01*
X261338268Y-132638629D01*
X261477464Y-132679500D01*
X261622536Y-132679500D01*
X261761732Y-132638629D01*
X261883775Y-132560196D01*
X261978777Y-132450558D01*
X262039042Y-132318596D01*
X262059688Y-132175000D01*
X262041716Y-132050000D01*
X275490693Y-132050000D01*
X275491766Y-132063627D01*
X275509891Y-132293928D01*
X275567010Y-132531850D01*
X275571668Y-132543094D01*
X275660647Y-132757911D01*
X275687363Y-132801508D01*
X275788495Y-132966539D01*
X275788496Y-132966541D01*
X275947402Y-133152597D01*
X276019588Y-133214249D01*
X276133462Y-133311506D01*
X276342089Y-133439353D01*
X276568148Y-133532989D01*
X276806071Y-133590109D01*
X277050000Y-133609307D01*
X277293929Y-133590109D01*
X277531852Y-133532989D01*
X277757911Y-133439353D01*
X277966538Y-133311506D01*
X278152597Y-133152597D01*
X278311506Y-132966538D01*
X278439353Y-132757911D01*
X278532989Y-132531852D01*
X278590109Y-132293929D01*
X278609307Y-132050000D01*
X278590109Y-131806071D01*
X278532989Y-131568148D01*
X278439353Y-131342089D01*
X278311506Y-131133462D01*
X278311503Y-131133458D01*
X278152597Y-130947402D01*
X277966541Y-130788496D01*
X277966539Y-130788495D01*
X277966538Y-130788494D01*
X277757911Y-130660647D01*
X277531852Y-130567011D01*
X277531850Y-130567010D01*
X277369093Y-130527936D01*
X277293929Y-130509891D01*
X277050000Y-130490693D01*
X276806071Y-130509891D01*
X276568149Y-130567010D01*
X276342090Y-130660646D01*
X276133460Y-130788495D01*
X276133458Y-130788496D01*
X275947402Y-130947402D01*
X275788496Y-131133458D01*
X275788495Y-131133460D01*
X275660646Y-131342090D01*
X275567010Y-131568149D01*
X275509891Y-131806071D01*
X275492157Y-132031404D01*
X275490693Y-132050000D01*
X262041716Y-132050000D01*
X262039042Y-132031404D01*
X261978777Y-131899442D01*
X261883775Y-131789804D01*
X261883774Y-131789803D01*
X261811875Y-131743596D01*
X261761732Y-131711371D01*
X261761731Y-131711370D01*
X261761730Y-131711370D01*
X261622536Y-131670500D01*
X261477464Y-131670500D01*
X261338269Y-131711370D01*
X261338266Y-131711372D01*
X261216225Y-131789803D01*
X261121223Y-131899441D01*
X261121223Y-131899442D01*
X261060958Y-132031404D01*
X261040312Y-132175000D01*
X249993091Y-132175000D01*
X249993425Y-131600000D01*
X253490312Y-131600000D01*
X253510958Y-131743596D01*
X253571223Y-131875558D01*
X253666225Y-131985196D01*
X253788268Y-132063629D01*
X253927464Y-132104500D01*
X254072536Y-132104500D01*
X254211732Y-132063629D01*
X254333775Y-131985196D01*
X254428777Y-131875558D01*
X254489042Y-131743596D01*
X254509688Y-131600000D01*
X254489042Y-131456404D01*
X254428777Y-131324442D01*
X254333775Y-131214804D01*
X254333774Y-131214803D01*
X254272753Y-131175587D01*
X254211732Y-131136371D01*
X254211731Y-131136370D01*
X254211730Y-131136370D01*
X254072536Y-131095500D01*
X253927464Y-131095500D01*
X253788269Y-131136370D01*
X253788266Y-131136372D01*
X253666225Y-131214803D01*
X253571223Y-131324441D01*
X253563164Y-131342089D01*
X253510958Y-131456404D01*
X253490312Y-131600000D01*
X249993425Y-131600000D01*
X249994821Y-129200000D01*
X253890312Y-129200000D01*
X253910958Y-129343596D01*
X253971223Y-129475558D01*
X254066225Y-129585196D01*
X254188268Y-129663629D01*
X254327464Y-129704500D01*
X254472536Y-129704500D01*
X254611732Y-129663629D01*
X254733775Y-129585196D01*
X254764273Y-129550000D01*
X260790312Y-129550000D01*
X260810958Y-129693596D01*
X260871223Y-129825558D01*
X260966225Y-129935196D01*
X261088268Y-130013629D01*
X261227464Y-130054500D01*
X261372536Y-130054500D01*
X261511732Y-130013629D01*
X261633775Y-129935196D01*
X261728777Y-129825558D01*
X261789042Y-129693596D01*
X261809688Y-129550000D01*
X261789042Y-129406404D01*
X261728777Y-129274442D01*
X261664273Y-129200000D01*
X262190312Y-129200000D01*
X262210958Y-129343596D01*
X262271223Y-129475558D01*
X262366225Y-129585196D01*
X262488268Y-129663629D01*
X262616062Y-129701152D01*
X262675788Y-129739535D01*
X262705281Y-129804116D01*
X262710956Y-129843589D01*
X262710958Y-129843596D01*
X262771223Y-129975558D01*
X262866225Y-130085196D01*
X262988268Y-130163629D01*
X263127464Y-130204500D01*
X263272536Y-130204500D01*
X263411732Y-130163629D01*
X263533775Y-130085196D01*
X263604776Y-130003256D01*
X263664501Y-129964873D01*
X263735498Y-129964873D01*
X263795222Y-130003255D01*
X263866225Y-130085196D01*
X263988268Y-130163629D01*
X264127464Y-130204500D01*
X264272536Y-130204500D01*
X264411732Y-130163629D01*
X264533775Y-130085196D01*
X264604776Y-130003256D01*
X264664501Y-129964873D01*
X264735498Y-129964873D01*
X264795222Y-130003255D01*
X264866225Y-130085196D01*
X264988268Y-130163629D01*
X265127464Y-130204500D01*
X265272536Y-130204500D01*
X265411732Y-130163629D01*
X265533775Y-130085196D01*
X265604776Y-130003256D01*
X265664501Y-129964873D01*
X265735498Y-129964873D01*
X265795222Y-130003255D01*
X265866225Y-130085196D01*
X265988268Y-130163629D01*
X266127464Y-130204500D01*
X266272536Y-130204500D01*
X266411732Y-130163629D01*
X266533775Y-130085196D01*
X266604776Y-130003256D01*
X266664501Y-129964873D01*
X266735498Y-129964873D01*
X266795222Y-130003255D01*
X266866225Y-130085196D01*
X266988268Y-130163629D01*
X267127464Y-130204500D01*
X267272536Y-130204500D01*
X267411732Y-130163629D01*
X267533775Y-130085196D01*
X267604776Y-130003256D01*
X267664501Y-129964873D01*
X267735498Y-129964873D01*
X267795222Y-130003255D01*
X267866225Y-130085196D01*
X267988268Y-130163629D01*
X268127464Y-130204500D01*
X268272536Y-130204500D01*
X268411732Y-130163629D01*
X268533775Y-130085196D01*
X268628777Y-129975558D01*
X268689042Y-129843596D01*
X268709688Y-129700000D01*
X268689042Y-129556404D01*
X268628777Y-129424442D01*
X268533775Y-129314804D01*
X268533774Y-129314803D01*
X268470970Y-129274441D01*
X268411732Y-129236371D01*
X268411729Y-129236370D01*
X268283937Y-129198847D01*
X268224211Y-129160463D01*
X268194718Y-129095886D01*
X268189042Y-129056404D01*
X268128777Y-128924442D01*
X268033775Y-128814804D01*
X268033774Y-128814803D01*
X267972753Y-128775587D01*
X267911732Y-128736371D01*
X267911731Y-128736370D01*
X267911730Y-128736370D01*
X267772536Y-128695500D01*
X267627464Y-128695500D01*
X267488269Y-128736370D01*
X267488266Y-128736372D01*
X267366225Y-128814803D01*
X267295224Y-128896743D01*
X267235498Y-128935126D01*
X267164501Y-128935126D01*
X267104776Y-128896743D01*
X267033774Y-128814803D01*
X266972753Y-128775587D01*
X266911732Y-128736371D01*
X266911731Y-128736370D01*
X266911730Y-128736370D01*
X266772536Y-128695500D01*
X266627464Y-128695500D01*
X266488269Y-128736370D01*
X266488266Y-128736372D01*
X266366225Y-128814803D01*
X266295224Y-128896743D01*
X266235498Y-128935126D01*
X266164501Y-128935126D01*
X266104776Y-128896743D01*
X266033774Y-128814803D01*
X265972753Y-128775587D01*
X265911732Y-128736371D01*
X265911731Y-128736370D01*
X265911730Y-128736370D01*
X265772536Y-128695500D01*
X265627464Y-128695500D01*
X265488269Y-128736370D01*
X265488266Y-128736372D01*
X265366225Y-128814803D01*
X265295224Y-128896743D01*
X265235498Y-128935126D01*
X265164501Y-128935126D01*
X265104776Y-128896743D01*
X265033774Y-128814803D01*
X264972753Y-128775587D01*
X264911732Y-128736371D01*
X264911731Y-128736370D01*
X264911730Y-128736370D01*
X264772536Y-128695500D01*
X264627464Y-128695500D01*
X264488269Y-128736370D01*
X264488266Y-128736372D01*
X264366225Y-128814803D01*
X264295224Y-128896743D01*
X264235498Y-128935126D01*
X264164501Y-128935126D01*
X264104776Y-128896743D01*
X264033774Y-128814803D01*
X263972753Y-128775587D01*
X263911732Y-128736371D01*
X263911731Y-128736370D01*
X263911730Y-128736370D01*
X263772536Y-128695500D01*
X263627464Y-128695500D01*
X263547993Y-128718834D01*
X263517090Y-128727908D01*
X263446093Y-128727907D01*
X263386368Y-128689522D01*
X263356875Y-128624941D01*
X263366980Y-128554667D01*
X263386366Y-128524501D01*
X263428777Y-128475558D01*
X263489042Y-128343596D01*
X263509688Y-128200000D01*
X263504665Y-128165063D01*
X273135500Y-128165063D01*
X273135501Y-128165073D01*
X273150265Y-128239300D01*
X273206516Y-128323484D01*
X273290697Y-128379733D01*
X273290699Y-128379734D01*
X273364933Y-128394500D01*
X275115066Y-128394499D01*
X275115069Y-128394498D01*
X275115073Y-128394498D01*
X275164326Y-128384701D01*
X275189301Y-128379734D01*
X275273484Y-128323484D01*
X275329734Y-128239301D01*
X275344500Y-128165067D01*
X275344500Y-127290004D01*
X275670768Y-127290004D01*
X275689654Y-127493819D01*
X275689655Y-127493821D01*
X275745672Y-127690701D01*
X275836912Y-127873935D01*
X275836913Y-127873936D01*
X275960266Y-128037284D01*
X276111536Y-128175185D01*
X276285566Y-128282940D01*
X276285568Y-128282940D01*
X276285573Y-128282944D01*
X276476444Y-128356888D01*
X276677653Y-128394500D01*
X276677655Y-128394500D01*
X276882345Y-128394500D01*
X276882347Y-128394500D01*
X277083556Y-128356888D01*
X277274427Y-128282944D01*
X277448462Y-128175186D01*
X277599732Y-128037285D01*
X277723088Y-127873935D01*
X277814328Y-127690701D01*
X277870345Y-127493821D01*
X277889232Y-127290000D01*
X277870345Y-127086179D01*
X277814328Y-126889299D01*
X277723088Y-126706065D01*
X277682538Y-126652368D01*
X277599733Y-126542715D01*
X277448463Y-126404814D01*
X277274433Y-126297059D01*
X277274428Y-126297057D01*
X277274427Y-126297056D01*
X277274422Y-126297054D01*
X277083559Y-126223113D01*
X277083560Y-126223113D01*
X277083557Y-126223112D01*
X277083556Y-126223112D01*
X276882347Y-126185500D01*
X276677653Y-126185500D01*
X276476444Y-126223112D01*
X276476439Y-126223113D01*
X276285577Y-126297054D01*
X276285566Y-126297059D01*
X276111536Y-126404814D01*
X275960266Y-126542715D01*
X275836913Y-126706063D01*
X275745671Y-126889301D01*
X275689654Y-127086180D01*
X275670768Y-127289995D01*
X275670768Y-127290004D01*
X275344500Y-127290004D01*
X275344499Y-126414934D01*
X275344498Y-126414930D01*
X275344498Y-126414926D01*
X275329734Y-126340699D01*
X275273483Y-126256515D01*
X275189302Y-126200266D01*
X275115067Y-126185500D01*
X273364936Y-126185500D01*
X273364926Y-126185501D01*
X273290699Y-126200265D01*
X273206515Y-126256516D01*
X273150266Y-126340697D01*
X273135500Y-126414930D01*
X273135500Y-128165063D01*
X263504665Y-128165063D01*
X263489042Y-128056404D01*
X263428777Y-127924442D01*
X263333775Y-127814804D01*
X263333774Y-127814803D01*
X263272753Y-127775587D01*
X263211732Y-127736371D01*
X263211731Y-127736370D01*
X263211730Y-127736370D01*
X263072536Y-127695500D01*
X262927464Y-127695500D01*
X262788269Y-127736370D01*
X262788266Y-127736372D01*
X262666225Y-127814803D01*
X262571223Y-127924441D01*
X262510958Y-128056403D01*
X262490312Y-128200000D01*
X262510958Y-128343596D01*
X262571223Y-128475558D01*
X262606164Y-128515883D01*
X262635657Y-128580464D01*
X262625552Y-128650738D01*
X262579059Y-128704394D01*
X262546437Y-128719291D01*
X262488270Y-128736370D01*
X262488266Y-128736372D01*
X262366225Y-128814803D01*
X262271223Y-128924441D01*
X262210958Y-129056403D01*
X262206649Y-129086371D01*
X262190312Y-129200000D01*
X261664273Y-129200000D01*
X261633775Y-129164804D01*
X261633774Y-129164803D01*
X261572753Y-129125587D01*
X261511732Y-129086371D01*
X261511731Y-129086370D01*
X261511730Y-129086370D01*
X261372536Y-129045500D01*
X261227464Y-129045500D01*
X261088269Y-129086370D01*
X261088266Y-129086372D01*
X260966225Y-129164803D01*
X260871223Y-129274441D01*
X260810958Y-129406403D01*
X260801015Y-129475558D01*
X260790312Y-129550000D01*
X254764273Y-129550000D01*
X254828777Y-129475558D01*
X254889042Y-129343596D01*
X254909688Y-129200000D01*
X254889042Y-129056404D01*
X254828777Y-128924442D01*
X254733775Y-128814804D01*
X254733774Y-128814803D01*
X254672753Y-128775587D01*
X254611732Y-128736371D01*
X254611731Y-128736370D01*
X254611730Y-128736370D01*
X254472536Y-128695500D01*
X254327464Y-128695500D01*
X254188269Y-128736370D01*
X254188266Y-128736372D01*
X254066225Y-128814803D01*
X253971223Y-128924441D01*
X253910958Y-129056403D01*
X253906649Y-129086371D01*
X253890312Y-129200000D01*
X249994821Y-129200000D01*
X249996043Y-127100000D01*
X252040312Y-127100000D01*
X252060958Y-127243596D01*
X252121223Y-127375558D01*
X252216225Y-127485196D01*
X252338268Y-127563629D01*
X252477464Y-127604500D01*
X252622536Y-127604500D01*
X252761732Y-127563629D01*
X252883775Y-127485196D01*
X252957598Y-127400000D01*
X260199802Y-127400000D01*
X260220448Y-127543596D01*
X260280713Y-127675558D01*
X260375715Y-127785196D01*
X260497758Y-127863629D01*
X260636954Y-127904500D01*
X260782026Y-127904500D01*
X260921222Y-127863629D01*
X261043265Y-127785196D01*
X261138267Y-127675558D01*
X261198532Y-127543596D01*
X261219178Y-127400000D01*
X261198532Y-127256404D01*
X261138267Y-127124442D01*
X261043265Y-127014804D01*
X261043264Y-127014803D01*
X260982243Y-126975587D01*
X260921222Y-126936371D01*
X260921221Y-126936370D01*
X260921220Y-126936370D01*
X260782026Y-126895500D01*
X260636954Y-126895500D01*
X260497759Y-126936370D01*
X260497756Y-126936372D01*
X260375715Y-127014803D01*
X260280713Y-127124441D01*
X260220448Y-127256403D01*
X260215618Y-127290000D01*
X260199802Y-127400000D01*
X252957598Y-127400000D01*
X252978777Y-127375558D01*
X253039042Y-127243596D01*
X253059688Y-127100000D01*
X253039042Y-126956404D01*
X252978777Y-126824442D01*
X252883775Y-126714804D01*
X252883774Y-126714803D01*
X252822753Y-126675587D01*
X252761732Y-126636371D01*
X252761731Y-126636370D01*
X252761730Y-126636370D01*
X252622536Y-126595500D01*
X252477464Y-126595500D01*
X252338269Y-126636370D01*
X252338266Y-126636372D01*
X252216225Y-126714803D01*
X252121223Y-126824441D01*
X252070107Y-126936371D01*
X252060958Y-126956404D01*
X252040312Y-127100000D01*
X249996043Y-127100000D01*
X249997009Y-125439714D01*
X250017050Y-125371610D01*
X250070732Y-125325148D01*
X250141012Y-125315085D01*
X250158499Y-125318894D01*
X250167403Y-125321509D01*
X250167405Y-125321509D01*
X250269847Y-125321509D01*
X250337968Y-125341511D01*
X250384461Y-125395167D01*
X250394564Y-125429577D01*
X250410956Y-125543589D01*
X250410958Y-125543596D01*
X250471223Y-125675558D01*
X250566225Y-125785196D01*
X250688268Y-125863629D01*
X250827464Y-125904500D01*
X250972536Y-125904500D01*
X251111732Y-125863629D01*
X251233775Y-125785196D01*
X251328777Y-125675558D01*
X251389042Y-125543596D01*
X251409688Y-125400000D01*
X251389042Y-125256404D01*
X251328777Y-125124442D01*
X251262383Y-125047819D01*
X251232890Y-124983239D01*
X251242994Y-124912965D01*
X251289487Y-124859309D01*
X251357608Y-124839307D01*
X251393099Y-124844409D01*
X251427464Y-124854500D01*
X251427466Y-124854500D01*
X251572536Y-124854500D01*
X251711732Y-124813629D01*
X251833775Y-124735196D01*
X251928777Y-124625558D01*
X251989042Y-124493596D01*
X252009688Y-124350000D01*
X251989042Y-124206404D01*
X251928777Y-124074442D01*
X251833775Y-123964804D01*
X251833774Y-123964803D01*
X251738005Y-123903256D01*
X251711732Y-123886371D01*
X251711731Y-123886370D01*
X251711730Y-123886370D01*
X251572536Y-123845500D01*
X251427464Y-123845500D01*
X251288269Y-123886370D01*
X251288266Y-123886372D01*
X251166225Y-123964803D01*
X251071223Y-124074441D01*
X251010958Y-124206403D01*
X250990312Y-124350000D01*
X251010958Y-124493596D01*
X251071223Y-124625558D01*
X251137616Y-124702180D01*
X251167109Y-124766761D01*
X251157005Y-124837034D01*
X251110512Y-124890690D01*
X251042391Y-124910692D01*
X251006893Y-124905588D01*
X250972536Y-124895500D01*
X250870092Y-124895500D01*
X250801971Y-124875498D01*
X250755478Y-124821842D01*
X250745375Y-124787432D01*
X250728982Y-124673419D01*
X250728981Y-124673418D01*
X250728981Y-124673413D01*
X250668716Y-124541451D01*
X250573714Y-124431813D01*
X250573713Y-124431812D01*
X250512692Y-124392596D01*
X250451671Y-124353380D01*
X250451670Y-124353379D01*
X250451669Y-124353379D01*
X250312475Y-124312509D01*
X250167403Y-124312509D01*
X250167402Y-124312509D01*
X250159228Y-124314909D01*
X250088231Y-124314907D01*
X250028506Y-124276522D01*
X249999015Y-124211940D01*
X249997734Y-124193953D01*
X249998487Y-122900000D01*
X254540312Y-122900000D01*
X254560958Y-123043596D01*
X254621223Y-123175558D01*
X254716225Y-123285196D01*
X254838268Y-123363629D01*
X254977464Y-123404500D01*
X255122536Y-123404500D01*
X255261732Y-123363629D01*
X255383775Y-123285196D01*
X255478777Y-123175558D01*
X255539042Y-123043596D01*
X255559688Y-122900000D01*
X255539042Y-122756404D01*
X255478777Y-122624442D01*
X255383775Y-122514804D01*
X255383774Y-122514803D01*
X255322753Y-122475587D01*
X255261732Y-122436371D01*
X255261731Y-122436370D01*
X255261730Y-122436370D01*
X255122536Y-122395500D01*
X254977464Y-122395500D01*
X254838269Y-122436370D01*
X254838266Y-122436372D01*
X254716225Y-122514803D01*
X254621223Y-122624441D01*
X254560958Y-122756403D01*
X254546585Y-122856373D01*
X254540312Y-122900000D01*
X249998487Y-122900000D01*
X249998952Y-122100000D01*
X261290312Y-122100000D01*
X261310958Y-122243596D01*
X261371223Y-122375558D01*
X261466225Y-122485196D01*
X261588268Y-122563629D01*
X261727464Y-122604500D01*
X261767403Y-122604500D01*
X261835524Y-122624502D01*
X261882017Y-122678158D01*
X261892119Y-122712563D01*
X261910959Y-122843596D01*
X261971224Y-122975558D01*
X262066226Y-123085196D01*
X262188269Y-123163629D01*
X262327465Y-123204500D01*
X262472537Y-123204500D01*
X262611733Y-123163629D01*
X262733776Y-123085196D01*
X262828778Y-122975558D01*
X262889043Y-122843596D01*
X262909689Y-122700000D01*
X262889043Y-122556404D01*
X262886619Y-122551097D01*
X262876514Y-122480826D01*
X262906005Y-122416244D01*
X262965730Y-122377859D01*
X263036724Y-122377857D01*
X263127464Y-122404500D01*
X263272536Y-122404500D01*
X263411732Y-122363629D01*
X263533775Y-122285196D01*
X263604777Y-122203254D01*
X263664500Y-122164873D01*
X263735496Y-122164873D01*
X263795223Y-122203256D01*
X263866224Y-122285196D01*
X263866225Y-122285196D01*
X263988268Y-122363629D01*
X264127464Y-122404500D01*
X264272536Y-122404500D01*
X264411732Y-122363629D01*
X264533775Y-122285196D01*
X264604776Y-122203256D01*
X264664501Y-122164873D01*
X264735498Y-122164873D01*
X264795222Y-122203255D01*
X264845710Y-122261520D01*
X264866225Y-122285196D01*
X264988070Y-122363502D01*
X265034563Y-122417158D01*
X265044666Y-122487432D01*
X265015173Y-122552013D01*
X264955447Y-122590396D01*
X264919949Y-122595500D01*
X264827464Y-122595500D01*
X264688269Y-122636370D01*
X264688266Y-122636372D01*
X264566225Y-122714803D01*
X264471223Y-122824441D01*
X264410958Y-122956403D01*
X264410956Y-122956410D01*
X264405281Y-122995883D01*
X264375788Y-123060464D01*
X264316063Y-123098847D01*
X264188268Y-123136371D01*
X264188266Y-123136372D01*
X264066225Y-123214803D01*
X263971223Y-123324441D01*
X263971221Y-123324444D01*
X263939084Y-123394814D01*
X263892591Y-123448469D01*
X263824470Y-123468471D01*
X263756349Y-123448468D01*
X263729247Y-123424984D01*
X263642126Y-123324442D01*
X263633775Y-123314804D01*
X263633774Y-123314803D01*
X263572708Y-123275558D01*
X263511732Y-123236371D01*
X263511731Y-123236370D01*
X263511730Y-123236370D01*
X263372536Y-123195500D01*
X263227464Y-123195500D01*
X263088269Y-123236370D01*
X263088266Y-123236372D01*
X262966225Y-123314803D01*
X262871223Y-123424441D01*
X262810958Y-123556403D01*
X262803224Y-123610195D01*
X262790312Y-123700000D01*
X262810958Y-123843596D01*
X262871223Y-123975558D01*
X262966225Y-124085196D01*
X263088268Y-124163629D01*
X263227464Y-124204500D01*
X263372536Y-124204500D01*
X263511732Y-124163629D01*
X263633775Y-124085196D01*
X263728777Y-123975558D01*
X263760914Y-123905186D01*
X263807406Y-123851531D01*
X263875527Y-123831528D01*
X263943648Y-123851530D01*
X263970752Y-123875015D01*
X264048554Y-123964803D01*
X264066225Y-123985196D01*
X264188268Y-124063629D01*
X264327464Y-124104500D01*
X264472536Y-124104500D01*
X264611732Y-124063629D01*
X264733775Y-123985196D01*
X264804777Y-123903254D01*
X264864500Y-123864873D01*
X264935496Y-123864873D01*
X264995223Y-123903256D01*
X265048554Y-123964803D01*
X265066225Y-123985196D01*
X265188268Y-124063629D01*
X265327464Y-124104500D01*
X265472536Y-124104500D01*
X265611732Y-124063629D01*
X265733775Y-123985196D01*
X265804777Y-123903254D01*
X265864500Y-123864873D01*
X265935496Y-123864873D01*
X265995223Y-123903256D01*
X266048554Y-123964803D01*
X266066225Y-123985196D01*
X266188268Y-124063629D01*
X266327464Y-124104500D01*
X266472536Y-124104500D01*
X266611732Y-124063629D01*
X266733775Y-123985196D01*
X266804777Y-123903254D01*
X266864500Y-123864873D01*
X266935496Y-123864873D01*
X266995223Y-123903256D01*
X267048554Y-123964803D01*
X267066225Y-123985196D01*
X267188268Y-124063629D01*
X267327464Y-124104500D01*
X267472536Y-124104500D01*
X267611732Y-124063629D01*
X267733775Y-123985196D01*
X267804776Y-123903256D01*
X267864501Y-123864873D01*
X267935498Y-123864873D01*
X267995222Y-123903255D01*
X268066225Y-123985196D01*
X268188268Y-124063629D01*
X268327464Y-124104500D01*
X268472536Y-124104500D01*
X268611732Y-124063629D01*
X268733775Y-123985196D01*
X268828777Y-123875558D01*
X268889042Y-123743596D01*
X268909688Y-123600000D01*
X268889042Y-123456404D01*
X268875451Y-123426645D01*
X268865349Y-123356373D01*
X268870864Y-123344296D01*
X268814709Y-123308206D01*
X268733777Y-123214805D01*
X268733776Y-123214804D01*
X268705534Y-123196654D01*
X268659042Y-123142997D01*
X268657208Y-123130238D01*
X268590845Y-123130238D01*
X268524808Y-123110848D01*
X268483936Y-123098847D01*
X268424210Y-123060463D01*
X268394718Y-122995885D01*
X268389042Y-122956404D01*
X268375451Y-122926645D01*
X268365349Y-122856373D01*
X268370864Y-122844296D01*
X268314709Y-122808206D01*
X268233777Y-122714805D01*
X268233775Y-122714804D01*
X268111930Y-122636498D01*
X268065437Y-122582842D01*
X268055334Y-122512568D01*
X268084827Y-122447987D01*
X268144553Y-122409604D01*
X268180051Y-122404500D01*
X268272535Y-122404500D01*
X268272536Y-122404500D01*
X268328816Y-122387975D01*
X268399810Y-122387975D01*
X268459536Y-122426358D01*
X268489029Y-122490939D01*
X268489048Y-122491205D01*
X268490312Y-122499998D01*
X268490312Y-122500000D01*
X268502223Y-122582842D01*
X268510958Y-122643596D01*
X268510959Y-122643599D01*
X268524547Y-122673353D01*
X268534650Y-122743627D01*
X268529134Y-122755703D01*
X268585290Y-122791793D01*
X268666222Y-122885194D01*
X268666226Y-122885197D01*
X268694464Y-122903345D01*
X268740956Y-122957001D01*
X268742790Y-122969760D01*
X268809151Y-122969760D01*
X268916064Y-123001152D01*
X268975789Y-123039536D01*
X269005281Y-123104116D01*
X269010956Y-123143589D01*
X269010959Y-123143599D01*
X269024547Y-123173353D01*
X269034650Y-123243627D01*
X269029134Y-123255703D01*
X269085290Y-123291793D01*
X269166222Y-123385194D01*
X269166224Y-123385195D01*
X269166225Y-123385196D01*
X269288268Y-123463629D01*
X269427464Y-123504500D01*
X269572536Y-123504500D01*
X269711732Y-123463629D01*
X269833775Y-123385196D01*
X269904776Y-123303256D01*
X269964501Y-123264873D01*
X270035498Y-123264873D01*
X270095222Y-123303255D01*
X270166225Y-123385196D01*
X270288268Y-123463629D01*
X270427464Y-123504500D01*
X270572536Y-123504500D01*
X270711732Y-123463629D01*
X270833775Y-123385196D01*
X270904776Y-123303256D01*
X270964501Y-123264873D01*
X271035498Y-123264873D01*
X271095222Y-123303255D01*
X271166225Y-123385196D01*
X271288268Y-123463629D01*
X271427464Y-123504500D01*
X271572536Y-123504500D01*
X271711732Y-123463629D01*
X271833775Y-123385196D01*
X271904776Y-123303256D01*
X271964501Y-123264873D01*
X272035498Y-123264873D01*
X272095222Y-123303255D01*
X272166225Y-123385196D01*
X272288268Y-123463629D01*
X272427464Y-123504500D01*
X272572536Y-123504500D01*
X272711732Y-123463629D01*
X272833775Y-123385196D01*
X272904776Y-123303256D01*
X272964501Y-123264873D01*
X273035498Y-123264873D01*
X273095222Y-123303255D01*
X273166225Y-123385196D01*
X273288268Y-123463629D01*
X273427464Y-123504500D01*
X273572536Y-123504500D01*
X273711732Y-123463629D01*
X273833775Y-123385196D01*
X273904776Y-123303256D01*
X273964501Y-123264873D01*
X274035498Y-123264873D01*
X274095222Y-123303255D01*
X274166225Y-123385196D01*
X274196262Y-123404500D01*
X274210270Y-123413502D01*
X274256763Y-123467158D01*
X274266867Y-123537432D01*
X274237373Y-123602012D01*
X274177647Y-123640396D01*
X274142149Y-123645500D01*
X274137653Y-123645500D01*
X273969018Y-123677023D01*
X273936439Y-123683113D01*
X273745577Y-123757054D01*
X273745566Y-123757059D01*
X273571536Y-123864814D01*
X273420266Y-124002715D01*
X273296913Y-124166063D01*
X273205671Y-124349301D01*
X273149654Y-124546180D01*
X273130768Y-124749995D01*
X273130768Y-124750004D01*
X273149654Y-124953819D01*
X273198200Y-125124441D01*
X273205672Y-125150701D01*
X273296912Y-125333935D01*
X273296913Y-125333936D01*
X273420266Y-125497284D01*
X273571536Y-125635185D01*
X273745566Y-125742940D01*
X273745568Y-125742940D01*
X273745573Y-125742944D01*
X273936444Y-125816888D01*
X274137653Y-125854500D01*
X274137655Y-125854500D01*
X274342345Y-125854500D01*
X274342347Y-125854500D01*
X274543556Y-125816888D01*
X274734427Y-125742944D01*
X274908462Y-125635186D01*
X275059732Y-125497285D01*
X275183088Y-125333935D01*
X275274328Y-125150701D01*
X275330345Y-124953821D01*
X275339549Y-124854500D01*
X275349232Y-124750004D01*
X275670768Y-124750004D01*
X275689654Y-124953819D01*
X275738200Y-125124441D01*
X275745672Y-125150701D01*
X275836912Y-125333935D01*
X275836913Y-125333936D01*
X275960266Y-125497284D01*
X276111536Y-125635185D01*
X276285566Y-125742940D01*
X276285568Y-125742940D01*
X276285573Y-125742944D01*
X276476444Y-125816888D01*
X276677653Y-125854500D01*
X276677655Y-125854500D01*
X276882345Y-125854500D01*
X276882347Y-125854500D01*
X277083556Y-125816888D01*
X277274427Y-125742944D01*
X277448462Y-125635186D01*
X277599732Y-125497285D01*
X277723088Y-125333935D01*
X277814328Y-125150701D01*
X277870345Y-124953821D01*
X277879549Y-124854500D01*
X277889232Y-124750004D01*
X277889232Y-124749995D01*
X277870345Y-124546180D01*
X277870345Y-124546179D01*
X277814328Y-124349299D01*
X277723088Y-124166065D01*
X277645731Y-124063627D01*
X277599733Y-124002715D01*
X277448463Y-123864814D01*
X277274433Y-123757059D01*
X277274428Y-123757057D01*
X277274427Y-123757056D01*
X277083559Y-123683113D01*
X277083560Y-123683113D01*
X277083557Y-123683112D01*
X277083556Y-123683112D01*
X276882347Y-123645500D01*
X276677653Y-123645500D01*
X276509018Y-123677023D01*
X276476439Y-123683113D01*
X276285577Y-123757054D01*
X276285566Y-123757059D01*
X276111536Y-123864814D01*
X275960266Y-124002715D01*
X275836913Y-124166063D01*
X275745671Y-124349301D01*
X275689654Y-124546180D01*
X275670768Y-124749995D01*
X275670768Y-124750004D01*
X275349232Y-124750004D01*
X275349232Y-124749995D01*
X275330345Y-124546180D01*
X275330345Y-124546179D01*
X275274328Y-124349299D01*
X275183088Y-124166065D01*
X275105731Y-124063627D01*
X275059733Y-124002715D01*
X274908463Y-123864814D01*
X274734433Y-123757059D01*
X274734428Y-123757057D01*
X274734427Y-123757056D01*
X274639503Y-123720282D01*
X274583208Y-123677023D01*
X274559238Y-123610195D01*
X274575202Y-123541017D01*
X274626033Y-123491451D01*
X274649520Y-123481895D01*
X274711732Y-123463629D01*
X274833775Y-123385196D01*
X274928777Y-123275558D01*
X274989042Y-123143596D01*
X274994718Y-123104115D01*
X275024209Y-123039537D01*
X275083935Y-123001153D01*
X275083938Y-123001152D01*
X275101883Y-122995883D01*
X275211732Y-122963629D01*
X275333775Y-122885196D01*
X275428777Y-122775558D01*
X275489042Y-122643596D01*
X275509688Y-122500000D01*
X275489042Y-122356404D01*
X275428777Y-122224442D01*
X275333775Y-122114804D01*
X275333774Y-122114803D01*
X275222963Y-122043589D01*
X275211732Y-122036371D01*
X275211729Y-122036370D01*
X275083937Y-121998847D01*
X275024211Y-121960463D01*
X274994718Y-121895886D01*
X274989042Y-121856404D01*
X274928777Y-121724442D01*
X274833775Y-121614804D01*
X274833774Y-121614803D01*
X274722974Y-121543596D01*
X274711732Y-121536371D01*
X274711731Y-121536370D01*
X274711730Y-121536370D01*
X274572536Y-121495500D01*
X274427464Y-121495500D01*
X274288269Y-121536370D01*
X274288266Y-121536372D01*
X274166225Y-121614803D01*
X274095224Y-121696743D01*
X274035498Y-121735126D01*
X273964501Y-121735126D01*
X273904776Y-121696743D01*
X273842126Y-121624442D01*
X273833775Y-121614804D01*
X273833774Y-121614803D01*
X273722974Y-121543596D01*
X273711732Y-121536371D01*
X273711731Y-121536370D01*
X273711730Y-121536370D01*
X273572536Y-121495500D01*
X273427464Y-121495500D01*
X273288269Y-121536370D01*
X273288266Y-121536372D01*
X273166225Y-121614803D01*
X273095224Y-121696743D01*
X273035498Y-121735126D01*
X272964501Y-121735126D01*
X272904776Y-121696743D01*
X272842126Y-121624442D01*
X272833775Y-121614804D01*
X272833774Y-121614803D01*
X272722974Y-121543596D01*
X272711732Y-121536371D01*
X272711731Y-121536370D01*
X272711730Y-121536370D01*
X272572536Y-121495500D01*
X272427464Y-121495500D01*
X272288269Y-121536370D01*
X272288266Y-121536372D01*
X272166225Y-121614803D01*
X272095224Y-121696743D01*
X272035498Y-121735126D01*
X271964501Y-121735126D01*
X271904776Y-121696743D01*
X271842126Y-121624442D01*
X271833775Y-121614804D01*
X271833774Y-121614803D01*
X271722974Y-121543596D01*
X271711732Y-121536371D01*
X271711731Y-121536370D01*
X271711730Y-121536370D01*
X271572536Y-121495500D01*
X271427464Y-121495500D01*
X271288269Y-121536370D01*
X271288266Y-121536372D01*
X271166225Y-121614803D01*
X271095224Y-121696743D01*
X271035498Y-121735126D01*
X270964501Y-121735126D01*
X270904776Y-121696743D01*
X270842126Y-121624442D01*
X270833775Y-121614804D01*
X270833774Y-121614803D01*
X270722974Y-121543596D01*
X270711732Y-121536371D01*
X270711731Y-121536370D01*
X270711730Y-121536370D01*
X270572536Y-121495500D01*
X270427464Y-121495500D01*
X270288269Y-121536370D01*
X270288266Y-121536372D01*
X270166225Y-121614803D01*
X270095224Y-121696743D01*
X270035498Y-121735126D01*
X269964501Y-121735126D01*
X269904776Y-121696743D01*
X269842126Y-121624442D01*
X269833775Y-121614804D01*
X269833774Y-121614803D01*
X269722974Y-121543596D01*
X269711732Y-121536371D01*
X269711731Y-121536370D01*
X269711730Y-121536370D01*
X269572536Y-121495500D01*
X269427464Y-121495500D01*
X269288269Y-121536370D01*
X269288266Y-121536372D01*
X269166225Y-121614803D01*
X269071223Y-121724441D01*
X269010958Y-121856403D01*
X269010956Y-121856410D01*
X269005281Y-121895883D01*
X268975788Y-121960464D01*
X268916063Y-121998847D01*
X268871187Y-122012024D01*
X268800190Y-122012024D01*
X268740464Y-121973641D01*
X268710971Y-121909060D01*
X268710952Y-121908795D01*
X268709687Y-121900001D01*
X268709688Y-121900000D01*
X268689042Y-121756404D01*
X268628777Y-121624442D01*
X268533775Y-121514804D01*
X268533774Y-121514803D01*
X268454143Y-121463627D01*
X268411732Y-121436371D01*
X268411729Y-121436370D01*
X268283937Y-121398847D01*
X268224211Y-121360463D01*
X268194718Y-121295886D01*
X268189042Y-121256404D01*
X268128777Y-121124442D01*
X268033775Y-121014804D01*
X268033774Y-121014803D01*
X267972753Y-120975587D01*
X267911732Y-120936371D01*
X267911731Y-120936370D01*
X267911730Y-120936370D01*
X267772536Y-120895500D01*
X267627464Y-120895500D01*
X267488269Y-120936370D01*
X267488266Y-120936372D01*
X267366225Y-121014803D01*
X267295224Y-121096743D01*
X267235498Y-121135126D01*
X267164501Y-121135126D01*
X267104776Y-121096743D01*
X267033774Y-121014803D01*
X266972753Y-120975587D01*
X266911732Y-120936371D01*
X266911731Y-120936370D01*
X266911730Y-120936370D01*
X266772536Y-120895500D01*
X266627464Y-120895500D01*
X266488269Y-120936370D01*
X266488266Y-120936372D01*
X266366225Y-121014803D01*
X266295224Y-121096743D01*
X266235498Y-121135126D01*
X266164501Y-121135126D01*
X266104776Y-121096743D01*
X266033774Y-121014803D01*
X265972753Y-120975587D01*
X265911732Y-120936371D01*
X265911731Y-120936370D01*
X265911730Y-120936370D01*
X265772536Y-120895500D01*
X265627464Y-120895500D01*
X265488269Y-120936370D01*
X265488266Y-120936372D01*
X265366225Y-121014803D01*
X265295224Y-121096743D01*
X265235498Y-121135126D01*
X265164501Y-121135126D01*
X265104776Y-121096743D01*
X265033774Y-121014803D01*
X264972753Y-120975587D01*
X264911732Y-120936371D01*
X264911731Y-120936370D01*
X264911730Y-120936370D01*
X264772536Y-120895500D01*
X264627464Y-120895500D01*
X264488269Y-120936370D01*
X264488266Y-120936372D01*
X264366225Y-121014803D01*
X264295224Y-121096743D01*
X264235498Y-121135126D01*
X264164501Y-121135126D01*
X264104776Y-121096743D01*
X264033774Y-121014803D01*
X263972753Y-120975587D01*
X263911732Y-120936371D01*
X263911731Y-120936370D01*
X263911730Y-120936370D01*
X263772536Y-120895500D01*
X263627464Y-120895500D01*
X263488269Y-120936370D01*
X263488266Y-120936372D01*
X263366225Y-121014803D01*
X263295223Y-121096743D01*
X263235496Y-121135126D01*
X263164499Y-121135126D01*
X263104775Y-121096743D01*
X263033775Y-121014804D01*
X263033774Y-121014803D01*
X262972753Y-120975587D01*
X262911732Y-120936371D01*
X262911731Y-120936370D01*
X262911730Y-120936370D01*
X262772536Y-120895500D01*
X262627464Y-120895500D01*
X262488269Y-120936370D01*
X262488266Y-120936372D01*
X262366225Y-121014803D01*
X262271223Y-121124441D01*
X262210958Y-121256403D01*
X262190312Y-121400000D01*
X262206673Y-121513793D01*
X262196568Y-121584067D01*
X262150075Y-121637722D01*
X262081955Y-121657724D01*
X262020175Y-121639583D01*
X262019932Y-121640116D01*
X262016230Y-121638425D01*
X262013834Y-121637722D01*
X262013833Y-121637721D01*
X262011735Y-121636372D01*
X262011730Y-121636370D01*
X261872536Y-121595500D01*
X261727464Y-121595500D01*
X261588269Y-121636370D01*
X261588266Y-121636372D01*
X261466225Y-121714803D01*
X261371223Y-121824441D01*
X261310958Y-121956403D01*
X261299461Y-122036370D01*
X261290312Y-122100000D01*
X249998952Y-122100000D01*
X249999592Y-121000000D01*
X253290312Y-121000000D01*
X253310958Y-121143596D01*
X253371223Y-121275558D01*
X253466225Y-121385196D01*
X253588268Y-121463629D01*
X253727464Y-121504500D01*
X253872536Y-121504500D01*
X254011732Y-121463629D01*
X254133775Y-121385196D01*
X254228777Y-121275558D01*
X254289042Y-121143596D01*
X254309688Y-121000000D01*
X254289042Y-120856404D01*
X254228777Y-120724442D01*
X254133775Y-120614804D01*
X254133774Y-120614803D01*
X254025263Y-120545067D01*
X254025257Y-120545063D01*
X273135500Y-120545063D01*
X273135501Y-120545073D01*
X273150265Y-120619300D01*
X273206516Y-120703484D01*
X273290697Y-120759733D01*
X273290699Y-120759734D01*
X273364933Y-120774500D01*
X275115066Y-120774499D01*
X275115069Y-120774498D01*
X275115073Y-120774498D01*
X275164326Y-120764701D01*
X275189301Y-120759734D01*
X275273484Y-120703484D01*
X275329734Y-120619301D01*
X275344500Y-120545067D01*
X275344500Y-119670004D01*
X275670768Y-119670004D01*
X275689654Y-119873819D01*
X275693868Y-119888629D01*
X275745672Y-120070701D01*
X275836912Y-120253935D01*
X275836913Y-120253936D01*
X275960266Y-120417284D01*
X276111536Y-120555185D01*
X276285566Y-120662940D01*
X276285568Y-120662940D01*
X276285573Y-120662944D01*
X276476444Y-120736888D01*
X276677653Y-120774500D01*
X276677655Y-120774500D01*
X276882345Y-120774500D01*
X276882347Y-120774500D01*
X277083556Y-120736888D01*
X277274427Y-120662944D01*
X277448462Y-120555186D01*
X277599732Y-120417285D01*
X277723088Y-120253935D01*
X277814328Y-120070701D01*
X277870345Y-119873821D01*
X277879451Y-119775558D01*
X277889232Y-119670004D01*
X277889232Y-119669995D01*
X277870345Y-119466180D01*
X277870345Y-119466179D01*
X277814328Y-119269299D01*
X277723088Y-119086065D01*
X277654697Y-118995500D01*
X277599733Y-118922715D01*
X277448463Y-118784814D01*
X277274433Y-118677059D01*
X277274428Y-118677057D01*
X277274427Y-118677056D01*
X277274422Y-118677054D01*
X277083559Y-118603113D01*
X277083560Y-118603113D01*
X277083557Y-118603112D01*
X277083556Y-118603112D01*
X276882347Y-118565500D01*
X276677653Y-118565500D01*
X276476444Y-118603112D01*
X276476439Y-118603113D01*
X276285577Y-118677054D01*
X276285566Y-118677059D01*
X276111536Y-118784814D01*
X275960266Y-118922715D01*
X275836913Y-119086063D01*
X275745671Y-119269301D01*
X275689654Y-119466180D01*
X275670768Y-119669995D01*
X275670768Y-119670004D01*
X275344500Y-119670004D01*
X275344499Y-118794934D01*
X275344498Y-118794930D01*
X275344498Y-118794926D01*
X275329734Y-118720699D01*
X275273483Y-118636515D01*
X275189302Y-118580266D01*
X275115067Y-118565500D01*
X273364936Y-118565500D01*
X273364926Y-118565501D01*
X273290699Y-118580265D01*
X273206515Y-118636516D01*
X273150266Y-118720697D01*
X273135500Y-118794930D01*
X273135500Y-120545063D01*
X254025257Y-120545063D01*
X254011732Y-120536371D01*
X254011731Y-120536370D01*
X254011730Y-120536370D01*
X253872536Y-120495500D01*
X253727464Y-120495500D01*
X253588269Y-120536370D01*
X253588266Y-120536372D01*
X253466225Y-120614803D01*
X253371223Y-120724441D01*
X253348363Y-120774499D01*
X253310958Y-120856404D01*
X253290312Y-121000000D01*
X249999592Y-121000000D01*
X250000508Y-119425000D01*
X260265312Y-119425000D01*
X260285958Y-119568596D01*
X260346223Y-119700558D01*
X260441225Y-119810196D01*
X260563268Y-119888629D01*
X260702464Y-119929500D01*
X260847536Y-119929500D01*
X260986732Y-119888629D01*
X261108775Y-119810196D01*
X261203777Y-119700558D01*
X261264042Y-119568596D01*
X261273905Y-119500000D01*
X263390312Y-119500000D01*
X263410958Y-119643596D01*
X263471223Y-119775558D01*
X263566225Y-119885196D01*
X263688268Y-119963629D01*
X263827464Y-120004500D01*
X263972536Y-120004500D01*
X264111732Y-119963629D01*
X264233775Y-119885196D01*
X264328777Y-119775558D01*
X264389042Y-119643596D01*
X264409688Y-119500000D01*
X264389042Y-119356404D01*
X264328777Y-119224442D01*
X264233775Y-119114804D01*
X264233774Y-119114803D01*
X264172753Y-119075587D01*
X264111732Y-119036371D01*
X264111731Y-119036370D01*
X264111730Y-119036370D01*
X263972536Y-118995500D01*
X263827464Y-118995500D01*
X263688269Y-119036370D01*
X263688266Y-119036372D01*
X263566225Y-119114803D01*
X263471223Y-119224441D01*
X263410958Y-119356403D01*
X263395175Y-119466180D01*
X263390312Y-119500000D01*
X261273905Y-119500000D01*
X261284688Y-119425000D01*
X261264042Y-119281404D01*
X261203777Y-119149442D01*
X261108775Y-119039804D01*
X261108774Y-119039803D01*
X261039837Y-118995500D01*
X260986732Y-118961371D01*
X260986731Y-118961370D01*
X260986730Y-118961370D01*
X260847536Y-118920500D01*
X260702464Y-118920500D01*
X260563269Y-118961370D01*
X260563266Y-118961372D01*
X260441225Y-119039803D01*
X260346223Y-119149441D01*
X260311972Y-119224442D01*
X260285958Y-119281404D01*
X260265312Y-119425000D01*
X250000508Y-119425000D01*
X250002035Y-116799998D01*
X262490312Y-116799998D01*
X262510958Y-116943594D01*
X262571223Y-117075556D01*
X262666225Y-117185194D01*
X262788268Y-117263627D01*
X262927464Y-117304498D01*
X263072536Y-117304498D01*
X263211732Y-117263627D01*
X263333775Y-117185194D01*
X263381597Y-117130004D01*
X273130768Y-117130004D01*
X273149654Y-117333819D01*
X273149655Y-117333821D01*
X273205672Y-117530701D01*
X273296912Y-117713935D01*
X273296913Y-117713936D01*
X273420266Y-117877284D01*
X273571536Y-118015185D01*
X273745566Y-118122940D01*
X273745568Y-118122940D01*
X273745573Y-118122944D01*
X273936444Y-118196888D01*
X274137653Y-118234500D01*
X274137655Y-118234500D01*
X274342345Y-118234500D01*
X274342347Y-118234500D01*
X274543556Y-118196888D01*
X274734427Y-118122944D01*
X274908462Y-118015186D01*
X275059732Y-117877285D01*
X275183088Y-117713935D01*
X275274328Y-117530701D01*
X275330345Y-117333821D01*
X275336850Y-117263625D01*
X275349232Y-117130004D01*
X275670768Y-117130004D01*
X275689654Y-117333819D01*
X275689655Y-117333821D01*
X275745672Y-117530701D01*
X275836912Y-117713935D01*
X275836913Y-117713936D01*
X275960266Y-117877284D01*
X276111536Y-118015185D01*
X276285566Y-118122940D01*
X276285568Y-118122940D01*
X276285573Y-118122944D01*
X276476444Y-118196888D01*
X276677653Y-118234500D01*
X276677655Y-118234500D01*
X276882345Y-118234500D01*
X276882347Y-118234500D01*
X277083556Y-118196888D01*
X277274427Y-118122944D01*
X277448462Y-118015186D01*
X277599732Y-117877285D01*
X277723088Y-117713935D01*
X277814328Y-117530701D01*
X277870345Y-117333821D01*
X277876850Y-117263625D01*
X277889232Y-117130004D01*
X277889232Y-117129995D01*
X277870345Y-116926180D01*
X277870345Y-116926179D01*
X277814328Y-116729299D01*
X277723088Y-116546065D01*
X277682538Y-116492368D01*
X277599733Y-116382715D01*
X277448463Y-116244814D01*
X277274433Y-116137059D01*
X277274428Y-116137057D01*
X277274427Y-116137056D01*
X277274422Y-116137054D01*
X277083559Y-116063113D01*
X277083560Y-116063113D01*
X277083557Y-116063112D01*
X277083556Y-116063112D01*
X276882347Y-116025500D01*
X276677653Y-116025500D01*
X276476444Y-116063112D01*
X276476439Y-116063113D01*
X276285577Y-116137054D01*
X276285566Y-116137059D01*
X276111536Y-116244814D01*
X275960266Y-116382715D01*
X275836913Y-116546063D01*
X275745671Y-116729301D01*
X275689654Y-116926180D01*
X275670768Y-117129995D01*
X275670768Y-117130004D01*
X275349232Y-117130004D01*
X275349232Y-117129995D01*
X275330345Y-116926180D01*
X275330345Y-116926179D01*
X275274328Y-116729299D01*
X275183088Y-116546065D01*
X275142538Y-116492368D01*
X275059733Y-116382715D01*
X274908463Y-116244814D01*
X274734433Y-116137059D01*
X274734428Y-116137057D01*
X274734427Y-116137056D01*
X274734422Y-116137054D01*
X274543559Y-116063113D01*
X274543560Y-116063113D01*
X274543557Y-116063112D01*
X274543556Y-116063112D01*
X274342347Y-116025500D01*
X274137653Y-116025500D01*
X273936444Y-116063112D01*
X273936439Y-116063113D01*
X273745577Y-116137054D01*
X273745566Y-116137059D01*
X273571536Y-116244814D01*
X273420266Y-116382715D01*
X273296913Y-116546063D01*
X273205671Y-116729301D01*
X273149654Y-116926180D01*
X273130768Y-117129995D01*
X273130768Y-117130004D01*
X263381597Y-117130004D01*
X263428777Y-117075556D01*
X263489042Y-116943594D01*
X263509688Y-116799998D01*
X263489042Y-116656402D01*
X263428777Y-116524440D01*
X263333775Y-116414802D01*
X263333774Y-116414801D01*
X263272753Y-116375585D01*
X263211732Y-116336369D01*
X263211731Y-116336368D01*
X263211730Y-116336368D01*
X263072536Y-116295498D01*
X262927464Y-116295498D01*
X262788269Y-116336368D01*
X262788266Y-116336370D01*
X262666225Y-116414801D01*
X262571223Y-116524439D01*
X262571223Y-116524440D01*
X262510958Y-116656402D01*
X262490312Y-116799998D01*
X250002035Y-116799998D01*
X250003955Y-113500000D01*
X251390312Y-113500000D01*
X251410958Y-113643596D01*
X251471223Y-113775558D01*
X251566225Y-113885196D01*
X251688268Y-113963629D01*
X251827464Y-114004500D01*
X251972536Y-114004500D01*
X252111732Y-113963629D01*
X252233775Y-113885196D01*
X252328777Y-113775558D01*
X252389042Y-113643596D01*
X252409688Y-113500000D01*
X252389042Y-113356404D01*
X252375451Y-113326645D01*
X252365349Y-113256373D01*
X252370864Y-113244296D01*
X252314709Y-113208206D01*
X252233777Y-113114805D01*
X252233775Y-113114804D01*
X252205672Y-113096743D01*
X252111732Y-113036371D01*
X252111731Y-113036370D01*
X252111730Y-113036370D01*
X251972536Y-112995500D01*
X251827464Y-112995500D01*
X251688269Y-113036370D01*
X251688266Y-113036372D01*
X251566225Y-113114803D01*
X251471223Y-113224441D01*
X251410958Y-113356403D01*
X251409919Y-113363627D01*
X251390312Y-113500000D01*
X250003955Y-113500000D01*
X250004944Y-111800000D01*
X251190312Y-111800000D01*
X251210958Y-111943596D01*
X251271223Y-112075558D01*
X251366225Y-112185196D01*
X251488268Y-112263629D01*
X251627464Y-112304500D01*
X251772536Y-112304500D01*
X251911732Y-112263629D01*
X252033775Y-112185196D01*
X252128777Y-112075558D01*
X252189042Y-111943596D01*
X252209688Y-111800000D01*
X252189042Y-111656404D01*
X252128777Y-111524442D01*
X252033775Y-111414804D01*
X252033774Y-111414803D01*
X251972753Y-111375587D01*
X251911732Y-111336371D01*
X251911731Y-111336370D01*
X251911730Y-111336370D01*
X251772536Y-111295500D01*
X251627464Y-111295500D01*
X251488269Y-111336370D01*
X251488266Y-111336372D01*
X251366225Y-111414803D01*
X251271223Y-111524441D01*
X251210958Y-111656403D01*
X251190312Y-111799999D01*
X251190312Y-111800000D01*
X250004944Y-111800000D01*
X250006421Y-109260255D01*
X250026463Y-109192149D01*
X250080145Y-109145687D01*
X250150425Y-109135624D01*
X250214989Y-109165155D01*
X250221516Y-109171236D01*
X253251859Y-112201579D01*
X253285885Y-112263891D01*
X253280820Y-112334706D01*
X253238273Y-112391542D01*
X253171753Y-112416353D01*
X253127266Y-112411570D01*
X253072536Y-112395500D01*
X252927464Y-112395500D01*
X252788269Y-112436370D01*
X252788266Y-112436372D01*
X252666225Y-112514803D01*
X252571223Y-112624441D01*
X252510958Y-112756403D01*
X252490312Y-112900000D01*
X252510958Y-113043596D01*
X252510959Y-113043599D01*
X252524547Y-113073353D01*
X252534650Y-113143627D01*
X252529134Y-113155703D01*
X252585290Y-113191793D01*
X252666222Y-113285194D01*
X252666224Y-113285195D01*
X252666225Y-113285196D01*
X252788268Y-113363629D01*
X252927464Y-113404500D01*
X252945650Y-113404500D01*
X253013771Y-113424502D01*
X253060262Y-113478156D01*
X253086932Y-113536554D01*
X253181934Y-113646192D01*
X253303977Y-113724625D01*
X253443173Y-113765496D01*
X253588245Y-113765496D01*
X253727441Y-113724625D01*
X253849484Y-113646192D01*
X253944486Y-113536554D01*
X254004751Y-113404592D01*
X254025397Y-113260996D01*
X254025396Y-113260993D01*
X254025510Y-113260206D01*
X254055003Y-113195625D01*
X254114730Y-113157241D01*
X254185726Y-113157241D01*
X254239323Y-113189042D01*
X254645095Y-113594814D01*
X254679121Y-113657126D01*
X254682000Y-113683909D01*
X254682000Y-113949602D01*
X254661998Y-114017723D01*
X254651225Y-114032114D01*
X254571223Y-114124441D01*
X254510958Y-114256403D01*
X254490312Y-114400000D01*
X254510958Y-114543596D01*
X254510959Y-114543599D01*
X254550636Y-114630481D01*
X254560739Y-114700755D01*
X254531246Y-114765335D01*
X254471519Y-114803718D01*
X254400524Y-114803718D01*
X254372536Y-114795500D01*
X254227464Y-114795500D01*
X254088269Y-114836370D01*
X254088266Y-114836372D01*
X253966225Y-114914803D01*
X253871223Y-115024441D01*
X253810958Y-115156403D01*
X253795363Y-115264873D01*
X253790312Y-115300000D01*
X253810958Y-115443596D01*
X253871223Y-115575558D01*
X253966225Y-115685196D01*
X254088268Y-115763629D01*
X254227464Y-115804500D01*
X254372536Y-115804500D01*
X254511732Y-115763629D01*
X254633775Y-115685196D01*
X254728777Y-115575558D01*
X254789042Y-115443596D01*
X254796003Y-115395181D01*
X261046620Y-115395181D01*
X261067266Y-115538777D01*
X261127531Y-115670739D01*
X261222533Y-115780377D01*
X261344576Y-115858810D01*
X261483772Y-115899681D01*
X261628844Y-115899681D01*
X261768040Y-115858810D01*
X261890083Y-115780377D01*
X261985085Y-115670739D01*
X262045350Y-115538777D01*
X262065996Y-115395181D01*
X262045350Y-115251585D01*
X261985085Y-115119623D01*
X261968082Y-115100000D01*
X262990312Y-115100000D01*
X263010958Y-115243596D01*
X263071223Y-115375558D01*
X263166225Y-115485196D01*
X263288268Y-115563629D01*
X263427464Y-115604500D01*
X263572536Y-115604500D01*
X263711732Y-115563629D01*
X263711736Y-115563625D01*
X263719932Y-115559884D01*
X263721352Y-115562994D01*
X263773539Y-115547642D01*
X263841670Y-115567609D01*
X263888190Y-115621240D01*
X263898321Y-115655710D01*
X263910956Y-115743589D01*
X263910958Y-115743596D01*
X263971223Y-115875558D01*
X264066225Y-115985196D01*
X264188268Y-116063629D01*
X264327464Y-116104500D01*
X264472536Y-116104500D01*
X264611732Y-116063629D01*
X264733775Y-115985196D01*
X264804776Y-115903256D01*
X264864501Y-115864873D01*
X264935498Y-115864873D01*
X264995222Y-115903255D01*
X265066225Y-115985196D01*
X265188268Y-116063629D01*
X265327464Y-116104500D01*
X265472536Y-116104500D01*
X265611732Y-116063629D01*
X265733775Y-115985196D01*
X265804776Y-115903256D01*
X265864501Y-115864873D01*
X265935498Y-115864873D01*
X265995222Y-115903255D01*
X266066225Y-115985196D01*
X266188268Y-116063629D01*
X266327464Y-116104500D01*
X266472536Y-116104500D01*
X266611732Y-116063629D01*
X266733775Y-115985196D01*
X266804777Y-115903254D01*
X266864500Y-115864873D01*
X266935496Y-115864873D01*
X266995224Y-115903256D01*
X267066225Y-115985196D01*
X267188268Y-116063629D01*
X267327464Y-116104500D01*
X267472536Y-116104500D01*
X267611732Y-116063629D01*
X267733775Y-115985196D01*
X267804776Y-115903256D01*
X267864501Y-115864873D01*
X267935498Y-115864873D01*
X267995222Y-115903255D01*
X268066225Y-115985196D01*
X268188268Y-116063629D01*
X268327464Y-116104500D01*
X268472536Y-116104500D01*
X268611732Y-116063629D01*
X268733775Y-115985196D01*
X268828777Y-115875558D01*
X268889042Y-115743596D01*
X268909688Y-115600000D01*
X268889042Y-115456404D01*
X268875451Y-115426645D01*
X268865349Y-115356373D01*
X268870864Y-115344296D01*
X268814709Y-115308206D01*
X268733777Y-115214805D01*
X268733775Y-115214804D01*
X268733775Y-115214803D01*
X268611732Y-115136371D01*
X268597973Y-115132331D01*
X268483937Y-115098847D01*
X268424211Y-115060463D01*
X268396597Y-115000000D01*
X268990312Y-115000000D01*
X269010958Y-115143596D01*
X269010959Y-115143599D01*
X269024547Y-115173353D01*
X269034650Y-115243627D01*
X269029134Y-115255703D01*
X269085290Y-115291793D01*
X269166222Y-115385194D01*
X269166224Y-115385195D01*
X269166225Y-115385196D01*
X269288268Y-115463629D01*
X269427464Y-115504500D01*
X269572536Y-115504500D01*
X269711732Y-115463629D01*
X269833775Y-115385196D01*
X269904776Y-115303256D01*
X269964501Y-115264873D01*
X270035498Y-115264873D01*
X270095222Y-115303255D01*
X270166225Y-115385196D01*
X270288268Y-115463629D01*
X270427464Y-115504500D01*
X270572536Y-115504500D01*
X270711732Y-115463629D01*
X270833775Y-115385196D01*
X270904776Y-115303256D01*
X270964501Y-115264873D01*
X271035498Y-115264873D01*
X271095222Y-115303255D01*
X271166225Y-115385196D01*
X271288268Y-115463629D01*
X271427464Y-115504500D01*
X271572536Y-115504500D01*
X271711732Y-115463629D01*
X271833775Y-115385196D01*
X271904776Y-115303256D01*
X271964501Y-115264873D01*
X272035498Y-115264873D01*
X272095222Y-115303255D01*
X272166225Y-115385196D01*
X272288268Y-115463629D01*
X272427464Y-115504500D01*
X272572536Y-115504500D01*
X272711732Y-115463629D01*
X272833775Y-115385196D01*
X272904776Y-115303256D01*
X272964501Y-115264873D01*
X273035498Y-115264873D01*
X273095222Y-115303255D01*
X273166225Y-115385196D01*
X273288268Y-115463629D01*
X273427464Y-115504500D01*
X273572536Y-115504500D01*
X273711732Y-115463629D01*
X273833775Y-115385196D01*
X273904776Y-115303256D01*
X273964501Y-115264873D01*
X274035498Y-115264873D01*
X274095222Y-115303255D01*
X274166225Y-115385196D01*
X274288268Y-115463629D01*
X274427464Y-115504500D01*
X274572536Y-115504500D01*
X274711732Y-115463629D01*
X274833775Y-115385196D01*
X274928777Y-115275558D01*
X274989042Y-115143596D01*
X274994718Y-115104115D01*
X275024209Y-115039537D01*
X275083935Y-115001153D01*
X275083938Y-115001152D01*
X275211732Y-114963629D01*
X275333775Y-114885196D01*
X275428777Y-114775558D01*
X275489042Y-114643596D01*
X275509688Y-114500000D01*
X275489042Y-114356404D01*
X275428777Y-114224442D01*
X275333775Y-114114804D01*
X275333774Y-114114803D01*
X275222963Y-114043589D01*
X275211732Y-114036371D01*
X275211729Y-114036370D01*
X275083937Y-113998847D01*
X275024211Y-113960463D01*
X274994718Y-113895886D01*
X274989042Y-113856404D01*
X274928777Y-113724442D01*
X274833775Y-113614804D01*
X274833774Y-113614803D01*
X274722974Y-113543596D01*
X274711732Y-113536371D01*
X274711731Y-113536370D01*
X274711730Y-113536370D01*
X274572536Y-113495500D01*
X274427464Y-113495500D01*
X274288269Y-113536370D01*
X274288266Y-113536372D01*
X274166225Y-113614803D01*
X274095224Y-113696743D01*
X274035498Y-113735126D01*
X273964501Y-113735126D01*
X273904776Y-113696743D01*
X273842126Y-113624442D01*
X273833775Y-113614804D01*
X273833774Y-113614803D01*
X273722974Y-113543596D01*
X273711732Y-113536371D01*
X273711731Y-113536370D01*
X273711730Y-113536370D01*
X273572536Y-113495500D01*
X273427464Y-113495500D01*
X273288269Y-113536370D01*
X273288266Y-113536372D01*
X273166225Y-113614803D01*
X273095224Y-113696743D01*
X273035498Y-113735126D01*
X272964501Y-113735126D01*
X272904776Y-113696743D01*
X272842126Y-113624442D01*
X272833775Y-113614804D01*
X272833774Y-113614803D01*
X272722974Y-113543596D01*
X272711732Y-113536371D01*
X272711731Y-113536370D01*
X272711730Y-113536370D01*
X272572536Y-113495500D01*
X272427464Y-113495500D01*
X272288269Y-113536370D01*
X272288266Y-113536372D01*
X272166225Y-113614803D01*
X272095224Y-113696743D01*
X272035498Y-113735126D01*
X271964501Y-113735126D01*
X271904776Y-113696743D01*
X271842126Y-113624442D01*
X271833775Y-113614804D01*
X271833774Y-113614803D01*
X271722974Y-113543596D01*
X271711732Y-113536371D01*
X271711731Y-113536370D01*
X271711730Y-113536370D01*
X271572536Y-113495500D01*
X271427464Y-113495500D01*
X271288269Y-113536370D01*
X271288266Y-113536372D01*
X271166225Y-113614803D01*
X271095224Y-113696743D01*
X271035498Y-113735126D01*
X270964501Y-113735126D01*
X270904776Y-113696743D01*
X270842126Y-113624442D01*
X270833775Y-113614804D01*
X270833774Y-113614803D01*
X270722974Y-113543596D01*
X270711732Y-113536371D01*
X270711731Y-113536370D01*
X270711730Y-113536370D01*
X270572536Y-113495500D01*
X270427464Y-113495500D01*
X270288269Y-113536370D01*
X270288266Y-113536372D01*
X270166225Y-113614803D01*
X270071223Y-113724441D01*
X270010958Y-113856403D01*
X270010956Y-113856410D01*
X270005281Y-113895883D01*
X269975788Y-113960464D01*
X269916063Y-113998847D01*
X269788268Y-114036371D01*
X269788266Y-114036372D01*
X269666225Y-114114803D01*
X269571223Y-114224441D01*
X269510958Y-114356403D01*
X269510956Y-114356410D01*
X269505281Y-114395883D01*
X269475788Y-114460464D01*
X269416063Y-114498847D01*
X269288268Y-114536371D01*
X269288266Y-114536372D01*
X269166225Y-114614803D01*
X269071223Y-114724441D01*
X269010958Y-114856403D01*
X268990312Y-115000000D01*
X268396597Y-115000000D01*
X268394718Y-114995886D01*
X268389042Y-114956404D01*
X268328777Y-114824442D01*
X268233775Y-114714804D01*
X268233774Y-114714803D01*
X268111930Y-114636498D01*
X268065437Y-114582842D01*
X268055334Y-114512568D01*
X268084827Y-114447987D01*
X268144553Y-114409604D01*
X268180051Y-114404500D01*
X268272536Y-114404500D01*
X268411732Y-114363629D01*
X268533775Y-114285196D01*
X268628777Y-114175558D01*
X268689042Y-114043596D01*
X268709688Y-113900000D01*
X268689042Y-113756404D01*
X268628777Y-113624442D01*
X268533775Y-113514804D01*
X268533774Y-113514803D01*
X268466949Y-113471857D01*
X268411732Y-113436371D01*
X268411729Y-113436370D01*
X268283937Y-113398847D01*
X268224211Y-113360463D01*
X268194718Y-113295886D01*
X268189042Y-113256404D01*
X268128777Y-113124442D01*
X268033775Y-113014804D01*
X268033774Y-113014803D01*
X267972753Y-112975587D01*
X267911732Y-112936371D01*
X267911731Y-112936370D01*
X267911730Y-112936370D01*
X267873221Y-112925063D01*
X273135500Y-112925063D01*
X273135501Y-112925073D01*
X273150265Y-112999300D01*
X273206516Y-113083484D01*
X273290697Y-113139733D01*
X273290699Y-113139734D01*
X273364933Y-113154500D01*
X275115066Y-113154499D01*
X275115069Y-113154498D01*
X275115073Y-113154498D01*
X275169728Y-113143627D01*
X275189301Y-113139734D01*
X275273484Y-113083484D01*
X275329734Y-112999301D01*
X275344500Y-112925067D01*
X275344500Y-112050004D01*
X275670768Y-112050004D01*
X275689654Y-112253819D01*
X275735124Y-112413629D01*
X275745672Y-112450701D01*
X275836912Y-112633935D01*
X275836913Y-112633936D01*
X275960266Y-112797284D01*
X276111536Y-112935185D01*
X276285566Y-113042940D01*
X276285568Y-113042940D01*
X276285573Y-113042944D01*
X276476444Y-113116888D01*
X276677653Y-113154500D01*
X276677655Y-113154500D01*
X276882345Y-113154500D01*
X276882347Y-113154500D01*
X277083556Y-113116888D01*
X277274427Y-113042944D01*
X277448462Y-112935186D01*
X277599732Y-112797285D01*
X277723088Y-112633935D01*
X277814328Y-112450701D01*
X277870345Y-112253821D01*
X277889232Y-112050000D01*
X277870345Y-111846179D01*
X277814328Y-111649299D01*
X277723088Y-111466065D01*
X277625148Y-111336371D01*
X277599733Y-111302715D01*
X277448463Y-111164814D01*
X277274433Y-111057059D01*
X277274428Y-111057057D01*
X277274427Y-111057056D01*
X277274422Y-111057054D01*
X277083559Y-110983113D01*
X277083560Y-110983113D01*
X277083557Y-110983112D01*
X277083556Y-110983112D01*
X276882347Y-110945500D01*
X276677653Y-110945500D01*
X276476444Y-110983112D01*
X276476439Y-110983113D01*
X276285577Y-111057054D01*
X276285566Y-111057059D01*
X276111536Y-111164814D01*
X275960266Y-111302715D01*
X275836913Y-111466063D01*
X275745671Y-111649301D01*
X275689654Y-111846180D01*
X275670768Y-112049995D01*
X275670768Y-112050004D01*
X275344500Y-112050004D01*
X275344499Y-111174934D01*
X275344498Y-111174930D01*
X275344498Y-111174926D01*
X275329734Y-111100699D01*
X275273483Y-111016515D01*
X275189302Y-110960266D01*
X275115067Y-110945500D01*
X273364936Y-110945500D01*
X273364926Y-110945501D01*
X273290699Y-110960265D01*
X273206515Y-111016516D01*
X273150266Y-111100697D01*
X273135500Y-111174930D01*
X273135500Y-112925063D01*
X267873221Y-112925063D01*
X267772536Y-112895500D01*
X267627464Y-112895500D01*
X267488269Y-112936370D01*
X267488266Y-112936372D01*
X267366225Y-113014803D01*
X267295224Y-113096743D01*
X267235498Y-113135126D01*
X267164501Y-113135126D01*
X267104776Y-113096743D01*
X267033774Y-113014803D01*
X266972753Y-112975587D01*
X266911732Y-112936371D01*
X266911731Y-112936370D01*
X266911730Y-112936370D01*
X266772536Y-112895500D01*
X266627464Y-112895500D01*
X266488269Y-112936370D01*
X266488266Y-112936372D01*
X266366225Y-113014803D01*
X266295224Y-113096743D01*
X266235498Y-113135126D01*
X266164501Y-113135126D01*
X266104776Y-113096743D01*
X266033774Y-113014803D01*
X265972753Y-112975587D01*
X265911732Y-112936371D01*
X265911731Y-112936370D01*
X265911730Y-112936370D01*
X265772536Y-112895500D01*
X265627464Y-112895500D01*
X265488269Y-112936370D01*
X265488266Y-112936372D01*
X265366225Y-113014803D01*
X265295224Y-113096743D01*
X265235498Y-113135126D01*
X265164501Y-113135126D01*
X265104776Y-113096743D01*
X265033774Y-113014803D01*
X264972753Y-112975587D01*
X264911732Y-112936371D01*
X264911731Y-112936370D01*
X264911730Y-112936370D01*
X264772536Y-112895500D01*
X264627464Y-112895500D01*
X264488269Y-112936370D01*
X264488266Y-112936372D01*
X264366225Y-113014803D01*
X264271223Y-113124441D01*
X264210958Y-113256403D01*
X264205282Y-113295881D01*
X264190312Y-113400000D01*
X264210958Y-113543596D01*
X264271223Y-113675558D01*
X264366225Y-113785196D01*
X264488268Y-113863629D01*
X264616062Y-113901152D01*
X264675788Y-113939535D01*
X264705281Y-114004116D01*
X264710956Y-114043589D01*
X264710958Y-114043596D01*
X264771223Y-114175558D01*
X264866225Y-114285196D01*
X264988070Y-114363502D01*
X265034563Y-114417158D01*
X265044666Y-114487432D01*
X265015173Y-114552013D01*
X264955447Y-114590396D01*
X264919949Y-114595500D01*
X264827464Y-114595500D01*
X264688269Y-114636370D01*
X264688266Y-114636372D01*
X264566225Y-114714803D01*
X264471223Y-114824441D01*
X264410958Y-114956403D01*
X264410956Y-114956410D01*
X264405281Y-114995883D01*
X264375788Y-115060464D01*
X264316063Y-115098847D01*
X264188268Y-115136371D01*
X264180068Y-115140116D01*
X264178653Y-115137019D01*
X264126350Y-115152357D01*
X264058237Y-115132331D01*
X264011763Y-115078659D01*
X264001678Y-115044293D01*
X263989042Y-114956404D01*
X263928777Y-114824442D01*
X263833775Y-114714804D01*
X263833774Y-114714803D01*
X263722974Y-114643596D01*
X263711732Y-114636371D01*
X263711731Y-114636370D01*
X263711730Y-114636370D01*
X263572536Y-114595500D01*
X263427464Y-114595500D01*
X263288269Y-114636370D01*
X263288266Y-114636372D01*
X263166225Y-114714803D01*
X263071223Y-114824441D01*
X263010958Y-114956403D01*
X262993380Y-115078659D01*
X262990312Y-115100000D01*
X261968082Y-115100000D01*
X261890083Y-115009985D01*
X261890082Y-115009984D01*
X261890081Y-115009983D01*
X261865854Y-114994413D01*
X261819362Y-114940757D01*
X261809259Y-114870483D01*
X261838753Y-114805902D01*
X261898475Y-114767521D01*
X261911732Y-114763629D01*
X262033775Y-114685196D01*
X262128777Y-114575558D01*
X262189042Y-114443596D01*
X262209688Y-114300000D01*
X262189042Y-114156404D01*
X262128777Y-114024442D01*
X262033775Y-113914804D01*
X262033774Y-113914803D01*
X262010740Y-113900000D01*
X262490312Y-113900000D01*
X262510958Y-114043596D01*
X262571223Y-114175558D01*
X262666225Y-114285196D01*
X262788268Y-114363629D01*
X262927464Y-114404500D01*
X263072536Y-114404500D01*
X263211732Y-114363629D01*
X263333775Y-114285196D01*
X263428777Y-114175558D01*
X263489042Y-114043596D01*
X263509688Y-113900000D01*
X263489042Y-113756404D01*
X263428777Y-113624442D01*
X263333775Y-113514804D01*
X263333774Y-113514803D01*
X263266949Y-113471857D01*
X263211732Y-113436371D01*
X263211731Y-113436370D01*
X263211730Y-113436370D01*
X263072536Y-113395500D01*
X262927464Y-113395500D01*
X262788269Y-113436370D01*
X262788266Y-113436372D01*
X262666225Y-113514803D01*
X262571223Y-113624441D01*
X262525472Y-113724623D01*
X262510958Y-113756404D01*
X262490312Y-113900000D01*
X262010740Y-113900000D01*
X261942913Y-113856410D01*
X261911732Y-113836371D01*
X261911731Y-113836370D01*
X261911730Y-113836370D01*
X261772536Y-113795500D01*
X261627464Y-113795500D01*
X261488269Y-113836370D01*
X261488266Y-113836372D01*
X261366225Y-113914803D01*
X261271223Y-114024441D01*
X261210958Y-114156403D01*
X261190312Y-114300000D01*
X261210958Y-114443596D01*
X261271223Y-114575558D01*
X261366225Y-114685196D01*
X261390452Y-114700766D01*
X261436945Y-114754422D01*
X261447048Y-114824696D01*
X261417555Y-114889277D01*
X261357832Y-114927659D01*
X261344580Y-114931550D01*
X261344574Y-114931553D01*
X261222533Y-115009984D01*
X261127531Y-115119622D01*
X261067266Y-115251584D01*
X261048056Y-115385196D01*
X261046620Y-115395181D01*
X254796003Y-115395181D01*
X254809688Y-115300000D01*
X254789042Y-115156404D01*
X254749363Y-115069519D01*
X254739260Y-114999245D01*
X254768753Y-114934664D01*
X254828479Y-114896281D01*
X254899472Y-114896281D01*
X254915661Y-114901034D01*
X254927463Y-114904500D01*
X254927464Y-114904500D01*
X255072536Y-114904500D01*
X255211732Y-114863629D01*
X255333775Y-114785196D01*
X255428777Y-114675558D01*
X255489042Y-114543596D01*
X255509688Y-114400000D01*
X255489042Y-114256404D01*
X255428777Y-114124442D01*
X255348774Y-114032114D01*
X255319282Y-113967534D01*
X255317999Y-113949602D01*
X255317999Y-113765496D01*
X255317999Y-113516619D01*
X255318239Y-113511148D01*
X255321677Y-113471857D01*
X255311467Y-113433757D01*
X255310283Y-113428416D01*
X255303432Y-113389560D01*
X255303431Y-113389558D01*
X255303431Y-113389557D01*
X255301001Y-113382879D01*
X255295666Y-113370000D01*
X255292652Y-113363536D01*
X255290500Y-113360463D01*
X255270035Y-113331235D01*
X255267080Y-113326597D01*
X255249346Y-113295881D01*
X255247360Y-113292440D01*
X255217133Y-113267076D01*
X255213093Y-113263374D01*
X253899719Y-111950000D01*
X262490312Y-111950000D01*
X262510958Y-112093596D01*
X262571223Y-112225558D01*
X262666225Y-112335196D01*
X262788268Y-112413629D01*
X262927464Y-112454500D01*
X263072536Y-112454500D01*
X263211732Y-112413629D01*
X263333775Y-112335196D01*
X263428777Y-112225558D01*
X263489042Y-112093596D01*
X263509688Y-111950000D01*
X263489042Y-111806404D01*
X263428777Y-111674442D01*
X263333775Y-111564804D01*
X263333774Y-111564803D01*
X263270970Y-111524441D01*
X263211732Y-111486371D01*
X263211731Y-111486370D01*
X263211730Y-111486370D01*
X263072536Y-111445500D01*
X262927464Y-111445500D01*
X262788269Y-111486370D01*
X262788266Y-111486372D01*
X262666225Y-111564803D01*
X262571223Y-111674441D01*
X262513883Y-111800000D01*
X262510958Y-111806404D01*
X262490312Y-111950000D01*
X253899719Y-111950000D01*
X251459724Y-109510004D01*
X273130768Y-109510004D01*
X273149654Y-109713819D01*
X273149655Y-109713821D01*
X273205672Y-109910701D01*
X273296912Y-110093935D01*
X273296913Y-110093936D01*
X273420266Y-110257284D01*
X273571536Y-110395185D01*
X273745566Y-110502940D01*
X273745568Y-110502940D01*
X273745573Y-110502944D01*
X273936444Y-110576888D01*
X274137653Y-110614500D01*
X274137655Y-110614500D01*
X274342345Y-110614500D01*
X274342347Y-110614500D01*
X274543556Y-110576888D01*
X274734427Y-110502944D01*
X274908462Y-110395186D01*
X275059732Y-110257285D01*
X275183088Y-110093935D01*
X275274328Y-109910701D01*
X275330345Y-109713821D01*
X275349232Y-109510004D01*
X275670768Y-109510004D01*
X275689654Y-109713819D01*
X275689655Y-109713821D01*
X275745672Y-109910701D01*
X275836912Y-110093935D01*
X275836913Y-110093936D01*
X275960266Y-110257284D01*
X276111536Y-110395185D01*
X276285566Y-110502940D01*
X276285568Y-110502940D01*
X276285573Y-110502944D01*
X276476444Y-110576888D01*
X276677653Y-110614500D01*
X276677655Y-110614500D01*
X276882345Y-110614500D01*
X276882347Y-110614500D01*
X277083556Y-110576888D01*
X277274427Y-110502944D01*
X277448462Y-110395186D01*
X277599732Y-110257285D01*
X277723088Y-110093935D01*
X277814328Y-109910701D01*
X277870345Y-109713821D01*
X277889232Y-109510000D01*
X277870345Y-109306179D01*
X277814328Y-109109299D01*
X277723088Y-108926065D01*
X277663653Y-108847360D01*
X277599733Y-108762715D01*
X277448463Y-108624814D01*
X277274433Y-108517059D01*
X277274428Y-108517057D01*
X277274427Y-108517056D01*
X277083559Y-108443113D01*
X277083560Y-108443113D01*
X277083557Y-108443112D01*
X277083556Y-108443112D01*
X276882347Y-108405500D01*
X276677653Y-108405500D01*
X276500865Y-108438547D01*
X276476439Y-108443113D01*
X276285577Y-108517054D01*
X276285566Y-108517059D01*
X276111536Y-108624814D01*
X275960266Y-108762715D01*
X275836913Y-108926063D01*
X275745671Y-109109301D01*
X275689654Y-109306180D01*
X275670768Y-109509995D01*
X275670768Y-109510004D01*
X275349232Y-109510004D01*
X275349232Y-109510000D01*
X275330345Y-109306179D01*
X275274328Y-109109299D01*
X275183088Y-108926065D01*
X275123653Y-108847360D01*
X275059733Y-108762715D01*
X274908463Y-108624814D01*
X274734433Y-108517059D01*
X274734428Y-108517057D01*
X274734427Y-108517056D01*
X274543559Y-108443113D01*
X274543560Y-108443113D01*
X274543557Y-108443112D01*
X274543556Y-108443112D01*
X274342347Y-108405500D01*
X274137653Y-108405500D01*
X273960865Y-108438547D01*
X273936439Y-108443113D01*
X273745577Y-108517054D01*
X273745566Y-108517059D01*
X273571536Y-108624814D01*
X273420266Y-108762715D01*
X273296913Y-108926063D01*
X273205671Y-109109301D01*
X273149654Y-109306180D01*
X273130768Y-109509995D01*
X273130768Y-109510004D01*
X251459724Y-109510004D01*
X250336613Y-108386893D01*
X250332909Y-108382850D01*
X250307559Y-108352639D01*
X250292777Y-108344104D01*
X250273401Y-108332918D01*
X250268775Y-108329970D01*
X250236468Y-108307349D01*
X250230029Y-108304347D01*
X250217124Y-108299001D01*
X250210437Y-108296567D01*
X250171602Y-108289719D01*
X250166235Y-108288529D01*
X250128139Y-108278321D01*
X250122083Y-108277792D01*
X250055965Y-108251929D01*
X250014326Y-108194425D01*
X250007066Y-108152199D01*
X250007164Y-107985196D01*
X250007446Y-107500000D01*
X253090312Y-107500000D01*
X253110958Y-107643596D01*
X253171223Y-107775558D01*
X253266225Y-107885196D01*
X253388268Y-107963629D01*
X253527464Y-108004500D01*
X253672536Y-108004500D01*
X253811732Y-107963629D01*
X253933775Y-107885196D01*
X254028777Y-107775558D01*
X254028779Y-107775552D01*
X254033649Y-107767977D01*
X254036111Y-107769559D01*
X254072871Y-107727120D01*
X254140987Y-107707103D01*
X254209112Y-107727091D01*
X254236237Y-107750589D01*
X254266224Y-107785195D01*
X254266225Y-107785196D01*
X254388268Y-107863629D01*
X254527464Y-107904500D01*
X254672536Y-107904500D01*
X254811732Y-107863629D01*
X254933775Y-107785196D01*
X255028777Y-107675558D01*
X255089042Y-107543596D01*
X255109688Y-107400000D01*
X255089042Y-107256404D01*
X255028777Y-107124442D01*
X254933775Y-107014804D01*
X254933774Y-107014803D01*
X254842913Y-106956410D01*
X254811732Y-106936371D01*
X254811731Y-106936370D01*
X254811730Y-106936370D01*
X254687862Y-106900000D01*
X256490312Y-106900000D01*
X256510958Y-107043596D01*
X256571223Y-107175558D01*
X256666225Y-107285196D01*
X256788268Y-107363629D01*
X256927464Y-107404500D01*
X257072536Y-107404500D01*
X257087862Y-107400000D01*
X260590312Y-107400000D01*
X260610958Y-107543596D01*
X260671223Y-107675558D01*
X260766225Y-107785196D01*
X260888268Y-107863629D01*
X261027464Y-107904500D01*
X261172536Y-107904500D01*
X261311732Y-107863629D01*
X261433775Y-107785196D01*
X261528777Y-107675558D01*
X261589042Y-107543596D01*
X261609688Y-107400000D01*
X261609687Y-107399997D01*
X261609688Y-107399996D01*
X261591637Y-107274453D01*
X261595153Y-107250000D01*
X262165308Y-107250000D01*
X262185954Y-107393596D01*
X262246219Y-107525558D01*
X262341221Y-107635196D01*
X262463264Y-107713629D01*
X262602460Y-107754500D01*
X262747532Y-107754500D01*
X262886728Y-107713629D01*
X263008771Y-107635196D01*
X263103773Y-107525558D01*
X263164038Y-107393596D01*
X263169856Y-107353125D01*
X263199349Y-107288546D01*
X263259075Y-107250162D01*
X263330072Y-107250162D01*
X263362693Y-107265060D01*
X263377310Y-107274453D01*
X263438264Y-107313627D01*
X263438266Y-107313627D01*
X263438268Y-107313629D01*
X263577464Y-107354500D01*
X263722534Y-107354500D01*
X263722536Y-107354500D01*
X263746444Y-107347479D01*
X263817436Y-107347479D01*
X263877163Y-107385862D01*
X263906657Y-107450442D01*
X263906658Y-107486307D01*
X263890312Y-107599999D01*
X263890312Y-107600000D01*
X263910958Y-107743596D01*
X263971223Y-107875558D01*
X264066225Y-107985196D01*
X264188268Y-108063629D01*
X264327464Y-108104500D01*
X264472536Y-108104500D01*
X264611732Y-108063629D01*
X264733775Y-107985196D01*
X264804777Y-107903254D01*
X264864500Y-107864873D01*
X264935496Y-107864873D01*
X264995224Y-107903256D01*
X265066225Y-107985196D01*
X265188268Y-108063629D01*
X265327464Y-108104500D01*
X265472536Y-108104500D01*
X265611732Y-108063629D01*
X265733775Y-107985196D01*
X265804777Y-107903254D01*
X265864500Y-107864873D01*
X265935496Y-107864873D01*
X265995224Y-107903256D01*
X266066225Y-107985196D01*
X266188268Y-108063629D01*
X266327464Y-108104500D01*
X266472536Y-108104500D01*
X266611732Y-108063629D01*
X266733775Y-107985196D01*
X266804777Y-107903254D01*
X266864500Y-107864873D01*
X266935496Y-107864873D01*
X266995224Y-107903256D01*
X267066225Y-107985196D01*
X267188268Y-108063629D01*
X267327464Y-108104500D01*
X267472536Y-108104500D01*
X267611732Y-108063629D01*
X267733775Y-107985196D01*
X267804776Y-107903256D01*
X267864501Y-107864873D01*
X267935498Y-107864873D01*
X267995222Y-107903255D01*
X268066225Y-107985196D01*
X268188268Y-108063629D01*
X268327464Y-108104500D01*
X268472536Y-108104500D01*
X268611732Y-108063629D01*
X268733775Y-107985196D01*
X268828777Y-107875558D01*
X268889042Y-107743596D01*
X268909688Y-107600000D01*
X268889042Y-107456404D01*
X268828777Y-107324442D01*
X268733775Y-107214804D01*
X268733774Y-107214803D01*
X268634520Y-107151016D01*
X268611732Y-107136371D01*
X268596924Y-107132023D01*
X268483937Y-107098847D01*
X268424211Y-107060463D01*
X268394718Y-106995886D01*
X268389042Y-106956404D01*
X268328777Y-106824442D01*
X268233775Y-106714804D01*
X268233774Y-106714803D01*
X268172753Y-106675587D01*
X268111732Y-106636371D01*
X268111731Y-106636370D01*
X268111730Y-106636370D01*
X267972536Y-106595500D01*
X267827464Y-106595500D01*
X267688269Y-106636370D01*
X267688266Y-106636372D01*
X267566225Y-106714803D01*
X267495224Y-106796743D01*
X267435498Y-106835126D01*
X267364501Y-106835126D01*
X267304776Y-106796743D01*
X267233774Y-106714803D01*
X267172753Y-106675587D01*
X267111732Y-106636371D01*
X267111731Y-106636370D01*
X267111730Y-106636370D01*
X266972536Y-106595500D01*
X266827464Y-106595500D01*
X266688269Y-106636370D01*
X266688266Y-106636372D01*
X266566225Y-106714803D01*
X266495223Y-106796743D01*
X266435496Y-106835126D01*
X266364499Y-106835126D01*
X266304775Y-106796743D01*
X266233775Y-106714804D01*
X266233774Y-106714803D01*
X266172753Y-106675587D01*
X266111732Y-106636371D01*
X266111731Y-106636370D01*
X266111730Y-106636370D01*
X265972536Y-106595500D01*
X265827464Y-106595500D01*
X265688269Y-106636370D01*
X265688266Y-106636372D01*
X265566225Y-106714803D01*
X265495223Y-106796743D01*
X265435496Y-106835126D01*
X265364499Y-106835126D01*
X265304775Y-106796743D01*
X265233775Y-106714804D01*
X265233774Y-106714803D01*
X265172753Y-106675587D01*
X265111732Y-106636371D01*
X265111731Y-106636370D01*
X265111730Y-106636370D01*
X264972536Y-106595500D01*
X264827464Y-106595500D01*
X264688269Y-106636370D01*
X264688266Y-106636372D01*
X264566225Y-106714803D01*
X264471223Y-106824441D01*
X264410958Y-106956403D01*
X264410956Y-106956410D01*
X264405281Y-106995883D01*
X264375788Y-107060464D01*
X264316064Y-107098847D01*
X264303559Y-107102519D01*
X264232562Y-107102520D01*
X264172836Y-107064137D01*
X264143342Y-106999557D01*
X264143342Y-106963691D01*
X264159688Y-106850003D01*
X264156013Y-106824441D01*
X264139042Y-106706404D01*
X264078777Y-106574442D01*
X263983775Y-106464804D01*
X263983774Y-106464803D01*
X263911003Y-106418036D01*
X263861732Y-106386371D01*
X263861731Y-106386370D01*
X263861730Y-106386370D01*
X263722536Y-106345500D01*
X263577464Y-106345500D01*
X263438269Y-106386370D01*
X263438262Y-106386373D01*
X263388995Y-106418036D01*
X263320875Y-106438038D01*
X263252754Y-106418036D01*
X263206261Y-106364380D01*
X263196158Y-106294106D01*
X263209688Y-106200003D01*
X263209688Y-106200000D01*
X263189042Y-106056404D01*
X263128777Y-105924442D01*
X263033775Y-105814804D01*
X263033774Y-105814803D01*
X262972753Y-105775587D01*
X262911732Y-105736371D01*
X262911731Y-105736370D01*
X262911730Y-105736370D01*
X262772536Y-105695500D01*
X262627464Y-105695500D01*
X262488269Y-105736370D01*
X262488266Y-105736372D01*
X262366225Y-105814803D01*
X262271223Y-105924441D01*
X262210958Y-106056403D01*
X262190312Y-106200000D01*
X262210958Y-106343596D01*
X262271223Y-106475558D01*
X262366225Y-106585196D01*
X262406325Y-106610967D01*
X262452818Y-106664623D01*
X262462921Y-106734897D01*
X262433428Y-106799478D01*
X262406326Y-106822962D01*
X262341222Y-106864802D01*
X262341221Y-106864802D01*
X262246219Y-106974441D01*
X262185954Y-107106403D01*
X262170369Y-107214803D01*
X262165308Y-107250000D01*
X261595153Y-107250000D01*
X261601740Y-107204179D01*
X261642690Y-107156918D01*
X261641963Y-107156079D01*
X261647805Y-107151016D01*
X261648230Y-107150525D01*
X261648775Y-107150176D01*
X261743777Y-107040538D01*
X261804042Y-106908576D01*
X261824688Y-106764980D01*
X261804042Y-106621384D01*
X261743777Y-106489422D01*
X261648775Y-106379784D01*
X261648774Y-106379783D01*
X261585864Y-106339353D01*
X261526732Y-106301351D01*
X261526731Y-106301350D01*
X261526730Y-106301350D01*
X261387536Y-106260480D01*
X261242464Y-106260480D01*
X261103269Y-106301350D01*
X261103266Y-106301352D01*
X260981225Y-106379783D01*
X260886223Y-106489421D01*
X260837779Y-106595500D01*
X260825958Y-106621384D01*
X260805312Y-106764980D01*
X260817536Y-106850003D01*
X260823363Y-106890527D01*
X260813259Y-106960801D01*
X260772307Y-107008063D01*
X260773035Y-107008903D01*
X260767196Y-107013962D01*
X260766772Y-107014452D01*
X260766226Y-107014802D01*
X260766225Y-107014803D01*
X260671223Y-107124441D01*
X260610958Y-107256403D01*
X260590313Y-107399996D01*
X260590312Y-107400000D01*
X257087862Y-107400000D01*
X257211732Y-107363629D01*
X257333775Y-107285196D01*
X257428777Y-107175558D01*
X257489042Y-107043596D01*
X257509688Y-106900000D01*
X257489042Y-106756404D01*
X257428777Y-106624442D01*
X257333775Y-106514804D01*
X257333774Y-106514803D01*
X257255974Y-106464804D01*
X257211732Y-106436371D01*
X257211731Y-106436370D01*
X257211730Y-106436370D01*
X257072536Y-106395500D01*
X256927464Y-106395500D01*
X256788269Y-106436370D01*
X256788266Y-106436372D01*
X256666225Y-106514803D01*
X256571223Y-106624441D01*
X256510958Y-106756403D01*
X256501176Y-106824442D01*
X256490312Y-106900000D01*
X254687862Y-106900000D01*
X254672536Y-106895500D01*
X254527464Y-106895500D01*
X254388269Y-106936370D01*
X254388266Y-106936372D01*
X254266225Y-107014803D01*
X254171223Y-107124441D01*
X254166351Y-107132023D01*
X254163894Y-107130444D01*
X254127086Y-107172907D01*
X254058961Y-107192896D01*
X253990844Y-107172881D01*
X253963761Y-107149409D01*
X253933774Y-107114803D01*
X253849221Y-107060464D01*
X253811732Y-107036371D01*
X253811731Y-107036370D01*
X253811730Y-107036370D01*
X253672536Y-106995500D01*
X253527464Y-106995500D01*
X253388269Y-107036370D01*
X253388266Y-107036372D01*
X253266225Y-107114803D01*
X253171223Y-107224441D01*
X253110958Y-107356403D01*
X253104690Y-107399996D01*
X253090312Y-107500000D01*
X250007446Y-107500000D01*
X250008929Y-104950000D01*
X275490693Y-104950000D01*
X275509891Y-105193928D01*
X275567010Y-105431850D01*
X275567011Y-105431852D01*
X275660647Y-105657911D01*
X275756791Y-105814804D01*
X275788495Y-105866539D01*
X275788496Y-105866541D01*
X275947402Y-106052597D01*
X276133458Y-106211503D01*
X276133462Y-106211506D01*
X276342089Y-106339353D01*
X276568148Y-106432989D01*
X276806071Y-106490109D01*
X277050000Y-106509307D01*
X277293929Y-106490109D01*
X277531852Y-106432989D01*
X277757911Y-106339353D01*
X277966538Y-106211506D01*
X278152597Y-106052597D01*
X278311506Y-105866538D01*
X278439353Y-105657911D01*
X278532989Y-105431852D01*
X278590109Y-105193929D01*
X278609307Y-104950000D01*
X278590109Y-104706071D01*
X278532989Y-104468148D01*
X278439353Y-104242089D01*
X278311506Y-104033462D01*
X278253219Y-103965216D01*
X278152597Y-103847402D01*
X277966541Y-103688496D01*
X277966539Y-103688495D01*
X277966538Y-103688494D01*
X277757911Y-103560647D01*
X277748303Y-103556667D01*
X277531850Y-103467010D01*
X277350140Y-103423386D01*
X277293929Y-103409891D01*
X277050000Y-103390693D01*
X277049999Y-103390693D01*
X276806071Y-103409891D01*
X276568149Y-103467010D01*
X276342090Y-103560646D01*
X276133460Y-103688495D01*
X276133458Y-103688496D01*
X275947402Y-103847402D01*
X275788496Y-104033458D01*
X275788495Y-104033460D01*
X275660646Y-104242090D01*
X275567010Y-104468149D01*
X275509891Y-104706071D01*
X275490693Y-104950000D01*
X250008929Y-104950000D01*
X250009672Y-103673615D01*
X250010092Y-102951427D01*
X250030134Y-102883318D01*
X250083816Y-102836856D01*
X250136090Y-102825500D01*
X277597748Y-102825500D01*
X277602244Y-102825661D01*
G37*
%TD.AperFunction*%
%TD*%
%TA.AperFunction,Conductor*%
%TO.N,+3V3*%
G36*
X245793803Y-111300031D02*
G01*
X245793803Y-111300032D01*
X245788242Y-112735888D01*
X245745488Y-123774727D01*
X245727011Y-123818850D01*
X245682746Y-123836985D01*
X245638794Y-123818679D01*
X244915513Y-123095398D01*
X244903397Y-123078322D01*
X244903170Y-123077851D01*
X244878847Y-123058454D01*
X244876232Y-123056117D01*
X244869840Y-123049725D01*
X244862186Y-123044916D01*
X244859324Y-123042885D01*
X244835003Y-123023489D01*
X244835000Y-123023488D01*
X244834484Y-123023370D01*
X244815151Y-123015361D01*
X244814705Y-123015081D01*
X244814707Y-123015081D01*
X244783789Y-123011598D01*
X244780334Y-123011011D01*
X244771522Y-123009000D01*
X244771521Y-123009000D01*
X244762483Y-123009000D01*
X244758981Y-123008803D01*
X244729600Y-123005493D01*
X244728065Y-123005320D01*
X244728064Y-123005320D01*
X244727570Y-123005493D01*
X244706928Y-123009000D01*
X241768026Y-123009000D01*
X241723832Y-122990694D01*
X241712337Y-122974872D01*
X241711669Y-122973561D01*
X241626440Y-122888332D01*
X241519047Y-122833612D01*
X241400000Y-122814757D01*
X241280952Y-122833612D01*
X241280951Y-122833612D01*
X241173559Y-122888332D01*
X241088332Y-122973559D01*
X241033611Y-123080954D01*
X241033610Y-123080956D01*
X241029302Y-123108159D01*
X241023884Y-123125497D01*
X241008999Y-123156406D01*
X241009000Y-123243594D01*
X241009000Y-123243597D01*
X241023883Y-123274503D01*
X241029302Y-123291841D01*
X241033610Y-123319043D01*
X241033611Y-123319045D01*
X241033611Y-123319046D01*
X241033612Y-123319047D01*
X241088332Y-123426440D01*
X241173560Y-123511668D01*
X241280953Y-123566388D01*
X241400000Y-123585243D01*
X241519047Y-123566388D01*
X241626440Y-123511668D01*
X241711668Y-123426440D01*
X241712336Y-123425128D01*
X241713088Y-123424486D01*
X241714563Y-123422457D01*
X241715049Y-123422810D01*
X241748710Y-123394060D01*
X241768026Y-123391000D01*
X244644997Y-123391000D01*
X244689191Y-123409306D01*
X245724416Y-124444531D01*
X245742722Y-124488725D01*
X245742722Y-124488968D01*
X245742525Y-124539658D01*
X245724047Y-124583781D01*
X245708400Y-124595103D01*
X245623559Y-124638332D01*
X245538332Y-124723559D01*
X245483612Y-124830951D01*
X245483612Y-124830952D01*
X245464757Y-124949999D01*
X245483612Y-125069047D01*
X245483612Y-125069048D01*
X245491890Y-125085294D01*
X245538332Y-125176440D01*
X245623560Y-125261668D01*
X245705226Y-125303279D01*
X245736292Y-125339652D01*
X245739351Y-125359208D01*
X245705524Y-134093347D01*
X245687047Y-134137470D01*
X245643048Y-134155605D01*
X197301127Y-134174498D01*
X197298884Y-134174419D01*
X197080384Y-134158791D01*
X197071558Y-134157522D01*
X196860776Y-134111670D01*
X196852222Y-134109158D01*
X196650122Y-134033778D01*
X196642010Y-134030074D01*
X196452686Y-133926695D01*
X196445184Y-133921874D01*
X196272497Y-133792603D01*
X196265758Y-133786763D01*
X196113236Y-133634241D01*
X196107396Y-133627502D01*
X196011950Y-133500000D01*
X217014757Y-133500000D01*
X217033612Y-133619047D01*
X217033612Y-133619048D01*
X217088332Y-133726440D01*
X217173560Y-133811668D01*
X217280953Y-133866388D01*
X217400000Y-133885243D01*
X217519047Y-133866388D01*
X217626440Y-133811668D01*
X217711668Y-133726440D01*
X217766388Y-133619047D01*
X217785243Y-133500000D01*
X217766388Y-133380953D01*
X217711668Y-133273560D01*
X217626440Y-133188332D01*
X217519047Y-133133612D01*
X217400000Y-133114757D01*
X217280952Y-133133612D01*
X217280951Y-133133612D01*
X217173559Y-133188332D01*
X217088332Y-133273559D01*
X217033612Y-133380951D01*
X217033612Y-133380952D01*
X217014757Y-133500000D01*
X196011950Y-133500000D01*
X195978125Y-133454815D01*
X195973304Y-133447313D01*
X195872419Y-133262557D01*
X196112499Y-133262557D01*
X196119898Y-133299748D01*
X196119898Y-133299749D01*
X196148077Y-133341922D01*
X196176257Y-133360750D01*
X196190252Y-133370102D01*
X196227442Y-133377500D01*
X196227443Y-133377500D01*
X197952557Y-133377500D01*
X197952558Y-133377500D01*
X197989748Y-133370102D01*
X198031922Y-133341922D01*
X198060102Y-133299748D01*
X198067500Y-133262558D01*
X198067500Y-132400000D01*
X198647770Y-132400000D01*
X198666642Y-132591622D01*
X198682118Y-132642639D01*
X198722538Y-132775883D01*
X198756112Y-132838695D01*
X198813302Y-132945692D01*
X198813306Y-132945698D01*
X198935459Y-133094541D01*
X199084302Y-133216694D01*
X199084304Y-133216695D01*
X199084307Y-133216697D01*
X199128491Y-133240313D01*
X199254117Y-133307462D01*
X199438376Y-133363357D01*
X199534188Y-133372793D01*
X199629999Y-133382230D01*
X199629999Y-133382229D01*
X199630000Y-133382230D01*
X199821624Y-133363357D01*
X200005883Y-133307462D01*
X200175698Y-133216694D01*
X200324541Y-133094541D01*
X200446694Y-132945698D01*
X200537462Y-132775883D01*
X200593357Y-132591624D01*
X200612230Y-132400000D01*
X201187770Y-132400000D01*
X201206642Y-132591622D01*
X201222118Y-132642639D01*
X201262538Y-132775883D01*
X201296112Y-132838695D01*
X201353302Y-132945692D01*
X201353306Y-132945698D01*
X201475459Y-133094541D01*
X201624302Y-133216694D01*
X201624304Y-133216695D01*
X201624307Y-133216697D01*
X201668491Y-133240313D01*
X201794117Y-133307462D01*
X201978376Y-133363357D01*
X202074188Y-133372793D01*
X202169999Y-133382230D01*
X202169999Y-133382229D01*
X202170000Y-133382230D01*
X202361624Y-133363357D01*
X202545883Y-133307462D01*
X202715698Y-133216694D01*
X202864541Y-133094541D01*
X202986694Y-132945698D01*
X203077462Y-132775883D01*
X203133357Y-132591624D01*
X203152230Y-132400000D01*
X203727770Y-132400000D01*
X203746642Y-132591622D01*
X203762118Y-132642639D01*
X203802538Y-132775883D01*
X203836112Y-132838695D01*
X203893302Y-132945692D01*
X203893306Y-132945698D01*
X204015459Y-133094541D01*
X204164302Y-133216694D01*
X204164304Y-133216695D01*
X204164307Y-133216697D01*
X204208491Y-133240313D01*
X204334117Y-133307462D01*
X204518376Y-133363357D01*
X204710000Y-133382230D01*
X204901624Y-133363357D01*
X205085883Y-133307462D01*
X205255698Y-133216694D01*
X205404541Y-133094541D01*
X205526694Y-132945698D01*
X205617462Y-132775883D01*
X205673357Y-132591624D01*
X205692230Y-132400000D01*
X208807770Y-132400000D01*
X208826642Y-132591622D01*
X208842118Y-132642639D01*
X208882538Y-132775883D01*
X208916112Y-132838695D01*
X208973302Y-132945692D01*
X208973306Y-132945698D01*
X209095459Y-133094541D01*
X209244302Y-133216694D01*
X209244304Y-133216695D01*
X209244307Y-133216697D01*
X209288491Y-133240313D01*
X209414117Y-133307462D01*
X209598376Y-133363357D01*
X209694188Y-133372793D01*
X209789999Y-133382230D01*
X209789999Y-133382229D01*
X209790000Y-133382230D01*
X209981624Y-133363357D01*
X210165883Y-133307462D01*
X210335698Y-133216694D01*
X210484541Y-133094541D01*
X210606694Y-132945698D01*
X210697462Y-132775883D01*
X210753357Y-132591624D01*
X210772230Y-132400000D01*
X210770978Y-132387293D01*
X210759374Y-132269476D01*
X214662500Y-132269476D01*
X214670603Y-132333612D01*
X214677384Y-132387292D01*
X214677385Y-132387297D01*
X214735745Y-132534699D01*
X214735747Y-132534703D01*
X214828937Y-132662968D01*
X214925660Y-132742983D01*
X214951097Y-132764026D01*
X215094551Y-132831531D01*
X215250286Y-132861239D01*
X215250286Y-132861238D01*
X215250287Y-132861239D01*
X215259129Y-132860682D01*
X215408516Y-132851284D01*
X215559300Y-132802291D01*
X215693162Y-132717340D01*
X215801693Y-132601767D01*
X215878072Y-132462834D01*
X215917500Y-132309272D01*
X215917500Y-132269476D01*
X223302500Y-132269476D01*
X223310603Y-132333612D01*
X223317384Y-132387292D01*
X223317385Y-132387297D01*
X223375745Y-132534699D01*
X223375747Y-132534703D01*
X223468937Y-132662968D01*
X223565660Y-132742983D01*
X223591097Y-132764026D01*
X223734551Y-132831531D01*
X223890286Y-132861239D01*
X223890286Y-132861238D01*
X223890287Y-132861239D01*
X223899129Y-132860682D01*
X224048516Y-132851284D01*
X224199300Y-132802291D01*
X224333162Y-132717340D01*
X224349445Y-132700000D01*
X225014757Y-132700000D01*
X225033612Y-132819047D01*
X225033612Y-132819048D01*
X225055110Y-132861239D01*
X225088332Y-132926440D01*
X225173560Y-133011668D01*
X225280953Y-133066388D01*
X225400000Y-133085243D01*
X225519047Y-133066388D01*
X225626440Y-133011668D01*
X225688108Y-132950000D01*
X242964757Y-132950000D01*
X242974283Y-133010145D01*
X242983612Y-133069047D01*
X242983612Y-133069048D01*
X243016510Y-133133612D01*
X243038332Y-133176440D01*
X243123560Y-133261668D01*
X243230953Y-133316388D01*
X243350000Y-133335243D01*
X243469047Y-133316388D01*
X243576440Y-133261668D01*
X243661668Y-133176440D01*
X243716388Y-133069047D01*
X243719698Y-133048145D01*
X243744690Y-133007361D01*
X243791204Y-132996193D01*
X243818588Y-133010145D01*
X243819582Y-133008778D01*
X243823557Y-133011666D01*
X243823559Y-133011667D01*
X243823560Y-133011668D01*
X243930953Y-133066388D01*
X244050000Y-133085243D01*
X244169047Y-133066388D01*
X244276440Y-133011668D01*
X244361668Y-132926440D01*
X244416388Y-132819047D01*
X244435243Y-132700000D01*
X244416388Y-132580953D01*
X244361668Y-132473560D01*
X244276440Y-132388332D01*
X244169047Y-132333612D01*
X244050000Y-132314757D01*
X243930952Y-132333612D01*
X243930951Y-132333612D01*
X243823559Y-132388332D01*
X243738332Y-132473559D01*
X243683612Y-132580951D01*
X243683610Y-132580958D01*
X243680301Y-132601853D01*
X243655307Y-132642639D01*
X243608793Y-132653805D01*
X243581412Y-132639853D01*
X243580418Y-132641222D01*
X243576442Y-132638333D01*
X243469047Y-132583612D01*
X243350000Y-132564757D01*
X243230952Y-132583612D01*
X243230951Y-132583612D01*
X243123559Y-132638332D01*
X243038332Y-132723559D01*
X242983612Y-132830951D01*
X242983612Y-132830952D01*
X242983611Y-132830953D01*
X242983612Y-132830953D01*
X242964757Y-132950000D01*
X225688108Y-132950000D01*
X225711668Y-132926440D01*
X225766388Y-132819047D01*
X225785243Y-132700000D01*
X225766388Y-132580953D01*
X225711668Y-132473560D01*
X225626440Y-132388332D01*
X225519047Y-132333612D01*
X225400000Y-132314757D01*
X225280952Y-132333612D01*
X225280951Y-132333612D01*
X225173559Y-132388332D01*
X225088332Y-132473559D01*
X225033612Y-132580951D01*
X225033612Y-132580952D01*
X225014757Y-132700000D01*
X224349445Y-132700000D01*
X224441693Y-132601767D01*
X224518072Y-132462834D01*
X224557500Y-132309272D01*
X224557500Y-131799999D01*
X225014757Y-131799999D01*
X225033612Y-131919047D01*
X225033612Y-131919048D01*
X225087147Y-132024115D01*
X225088332Y-132026440D01*
X225173560Y-132111668D01*
X225280953Y-132166388D01*
X225400000Y-132185243D01*
X225519047Y-132166388D01*
X225626440Y-132111668D01*
X225711668Y-132026440D01*
X225766388Y-131919047D01*
X225785243Y-131800000D01*
X225766388Y-131680953D01*
X225711668Y-131573560D01*
X225626440Y-131488332D01*
X225519047Y-131433612D01*
X225400000Y-131414757D01*
X225280952Y-131433612D01*
X225280951Y-131433612D01*
X225173559Y-131488332D01*
X225088332Y-131573559D01*
X225033612Y-131680951D01*
X225033612Y-131680952D01*
X225014757Y-131799999D01*
X224557500Y-131799999D01*
X224557500Y-131390524D01*
X224542616Y-131272707D01*
X224484253Y-131125297D01*
X224391063Y-130997033D01*
X224391064Y-130997033D01*
X224391062Y-130997031D01*
X224268907Y-130895977D01*
X224268906Y-130895976D01*
X224268903Y-130895974D01*
X224125449Y-130828469D01*
X224125447Y-130828468D01*
X224125446Y-130828468D01*
X223969716Y-130798761D01*
X223969712Y-130798760D01*
X223811484Y-130808716D01*
X223660702Y-130857708D01*
X223526837Y-130942660D01*
X223418309Y-131058230D01*
X223418304Y-131058237D01*
X223341928Y-131197164D01*
X223326156Y-131258590D01*
X223302500Y-131350728D01*
X223302500Y-132269476D01*
X215917500Y-132269476D01*
X215917500Y-131390524D01*
X215902616Y-131272707D01*
X215844253Y-131125297D01*
X215751063Y-130997033D01*
X215751064Y-130997033D01*
X215751062Y-130997031D01*
X215628907Y-130895977D01*
X215628906Y-130895976D01*
X215628903Y-130895974D01*
X215485449Y-130828469D01*
X215485447Y-130828468D01*
X215485446Y-130828468D01*
X215329716Y-130798761D01*
X215329712Y-130798760D01*
X215171484Y-130808716D01*
X215020702Y-130857708D01*
X214886837Y-130942660D01*
X214778309Y-131058230D01*
X214778304Y-131058237D01*
X214701928Y-131197164D01*
X214686156Y-131258590D01*
X214662500Y-131350728D01*
X214662500Y-132269476D01*
X210759374Y-132269476D01*
X210753357Y-132208377D01*
X210753357Y-132208376D01*
X210697462Y-132024117D01*
X210606694Y-131854302D01*
X210484541Y-131705459D01*
X210335698Y-131583306D01*
X210335692Y-131583302D01*
X210228695Y-131526112D01*
X210165883Y-131492538D01*
X210048111Y-131456811D01*
X209981622Y-131436642D01*
X209790000Y-131417770D01*
X209598377Y-131436642D01*
X209480604Y-131472369D01*
X209414117Y-131492538D01*
X209414115Y-131492538D01*
X209414115Y-131492539D01*
X209244307Y-131583302D01*
X209244301Y-131583306D01*
X209095459Y-131705459D01*
X208973306Y-131854301D01*
X208973302Y-131854307D01*
X208882539Y-132024115D01*
X208882538Y-132024117D01*
X208862369Y-132090604D01*
X208826642Y-132208377D01*
X208807770Y-132399999D01*
X208807770Y-132400000D01*
X205692230Y-132400000D01*
X205690978Y-132387293D01*
X205673357Y-132208377D01*
X205673357Y-132208376D01*
X205617462Y-132024117D01*
X205526694Y-131854302D01*
X205404541Y-131705459D01*
X205255698Y-131583306D01*
X205255692Y-131583302D01*
X205148695Y-131526112D01*
X205085883Y-131492538D01*
X204968111Y-131456811D01*
X204901622Y-131436642D01*
X204710000Y-131417770D01*
X204518377Y-131436642D01*
X204400604Y-131472369D01*
X204334117Y-131492538D01*
X204334115Y-131492538D01*
X204334115Y-131492539D01*
X204164307Y-131583302D01*
X204164301Y-131583306D01*
X204015459Y-131705459D01*
X203893306Y-131854301D01*
X203893302Y-131854307D01*
X203802539Y-132024115D01*
X203802538Y-132024117D01*
X203782369Y-132090604D01*
X203746642Y-132208377D01*
X203727770Y-132399999D01*
X203727770Y-132400000D01*
X203152230Y-132400000D01*
X203150978Y-132387293D01*
X203133357Y-132208377D01*
X203133357Y-132208376D01*
X203077462Y-132024117D01*
X202986694Y-131854302D01*
X202864541Y-131705459D01*
X202715698Y-131583306D01*
X202715692Y-131583302D01*
X202608695Y-131526112D01*
X202545883Y-131492538D01*
X202428111Y-131456811D01*
X202361622Y-131436642D01*
X202170000Y-131417770D01*
X201978377Y-131436642D01*
X201860604Y-131472369D01*
X201794117Y-131492538D01*
X201794115Y-131492538D01*
X201794115Y-131492539D01*
X201624307Y-131583302D01*
X201624301Y-131583306D01*
X201475459Y-131705459D01*
X201353306Y-131854301D01*
X201353302Y-131854307D01*
X201262539Y-132024115D01*
X201262538Y-132024117D01*
X201242369Y-132090604D01*
X201206642Y-132208377D01*
X201187770Y-132399999D01*
X201187770Y-132400000D01*
X200612230Y-132400000D01*
X200610978Y-132387293D01*
X200593357Y-132208377D01*
X200593357Y-132208376D01*
X200537462Y-132024117D01*
X200446694Y-131854302D01*
X200324541Y-131705459D01*
X200175698Y-131583306D01*
X200175692Y-131583302D01*
X200068695Y-131526112D01*
X200005883Y-131492538D01*
X199888111Y-131456811D01*
X199821622Y-131436642D01*
X199630000Y-131417770D01*
X199438377Y-131436642D01*
X199320604Y-131472369D01*
X199254117Y-131492538D01*
X199254115Y-131492538D01*
X199254115Y-131492539D01*
X199084307Y-131583302D01*
X199084301Y-131583306D01*
X198935459Y-131705459D01*
X198813306Y-131854301D01*
X198813302Y-131854307D01*
X198722539Y-132024115D01*
X198722538Y-132024117D01*
X198702369Y-132090604D01*
X198666642Y-132208377D01*
X198647770Y-132399999D01*
X198647770Y-132400000D01*
X198067500Y-132400000D01*
X198067500Y-131537442D01*
X198060102Y-131500252D01*
X198060101Y-131500250D01*
X198031922Y-131458077D01*
X197989748Y-131429898D01*
X197989747Y-131429898D01*
X197952558Y-131422500D01*
X196227442Y-131422500D01*
X196208847Y-131426199D01*
X196190251Y-131429898D01*
X196190250Y-131429898D01*
X196148077Y-131458077D01*
X196119898Y-131500250D01*
X196119898Y-131500251D01*
X196112499Y-131537442D01*
X196112499Y-133262557D01*
X195872419Y-133262557D01*
X195869925Y-133257989D01*
X195866221Y-133249878D01*
X195790838Y-133047768D01*
X195788331Y-133039231D01*
X195742477Y-132828441D01*
X195741208Y-132819615D01*
X195725577Y-132601073D01*
X195725501Y-132598899D01*
X195725501Y-132591714D01*
X195725501Y-132591713D01*
X195725501Y-129200000D01*
X227714757Y-129200000D01*
X227733612Y-129319047D01*
X227733612Y-129319048D01*
X227767498Y-129385552D01*
X227788332Y-129426440D01*
X227873560Y-129511668D01*
X227980953Y-129566388D01*
X228100000Y-129585243D01*
X228167932Y-129574483D01*
X228214446Y-129585649D01*
X228221904Y-129592019D01*
X228434486Y-129804601D01*
X228446601Y-129821673D01*
X228446829Y-129822148D01*
X228446830Y-129822149D01*
X228471155Y-129841548D01*
X228473766Y-129843881D01*
X228480160Y-129850275D01*
X228487172Y-129854680D01*
X228487806Y-129855079D01*
X228490668Y-129857109D01*
X228514997Y-129876511D01*
X228515499Y-129876625D01*
X228534851Y-129884639D01*
X228535294Y-129884918D01*
X228566219Y-129888401D01*
X228569667Y-129888988D01*
X228578477Y-129891000D01*
X228578479Y-129891000D01*
X228587517Y-129891000D01*
X228591019Y-129891197D01*
X228599633Y-129892167D01*
X228621935Y-129894680D01*
X228622345Y-129894536D01*
X228622430Y-129894507D01*
X228643072Y-129891000D01*
X235256928Y-129891000D01*
X235277570Y-129894507D01*
X235277688Y-129894548D01*
X235278065Y-129894680D01*
X235301013Y-129892094D01*
X235308981Y-129891197D01*
X235312483Y-129891000D01*
X235321521Y-129891000D01*
X235330334Y-129888987D01*
X235333779Y-129888401D01*
X235364706Y-129884918D01*
X235365141Y-129884644D01*
X235384500Y-129876625D01*
X235385003Y-129876511D01*
X235385003Y-129876510D01*
X235391877Y-129874943D01*
X235392206Y-129876387D01*
X235419112Y-129872431D01*
X235500000Y-129885243D01*
X235619047Y-129866388D01*
X235726440Y-129811668D01*
X235811668Y-129726440D01*
X235866388Y-129619047D01*
X235885243Y-129500000D01*
X235881209Y-129474533D01*
X235874483Y-129432066D01*
X235885649Y-129385552D01*
X235892013Y-129378100D01*
X236220110Y-129050003D01*
X240343105Y-129050003D01*
X240360572Y-129160282D01*
X240360574Y-129160287D01*
X240411266Y-129259776D01*
X240411267Y-129259777D01*
X240490223Y-129338733D01*
X240589714Y-129389426D01*
X240589717Y-129389427D01*
X240699997Y-129406894D01*
X240700000Y-129406894D01*
X240700003Y-129406894D01*
X240810282Y-129389427D01*
X240810283Y-129389426D01*
X240810286Y-129389426D01*
X240887658Y-129350003D01*
X241543105Y-129350003D01*
X241560572Y-129460282D01*
X241560574Y-129460287D01*
X241586754Y-129511668D01*
X241611267Y-129559777D01*
X241690223Y-129638733D01*
X241789714Y-129689426D01*
X241789717Y-129689427D01*
X241899997Y-129706894D01*
X241900000Y-129706894D01*
X241900003Y-129706894D01*
X242010282Y-129689427D01*
X242010283Y-129689426D01*
X242010286Y-129689426D01*
X242109777Y-129638733D01*
X242188733Y-129559777D01*
X242216337Y-129505599D01*
X242252711Y-129474533D01*
X242300399Y-129478286D01*
X242327712Y-129505598D01*
X242338332Y-129526440D01*
X242423560Y-129611668D01*
X242530953Y-129666388D01*
X242650000Y-129685243D01*
X242769047Y-129666388D01*
X242876440Y-129611668D01*
X242961668Y-129526440D01*
X243016388Y-129419047D01*
X243035243Y-129300000D01*
X243035243Y-129299999D01*
X243414757Y-129299999D01*
X243433612Y-129419047D01*
X243433612Y-129419048D01*
X243461884Y-129474533D01*
X243488332Y-129526440D01*
X243573560Y-129611668D01*
X243680953Y-129666388D01*
X243800000Y-129685243D01*
X243919047Y-129666388D01*
X244026440Y-129611668D01*
X244111668Y-129526440D01*
X244166388Y-129419047D01*
X244185243Y-129300000D01*
X244166388Y-129180953D01*
X244111668Y-129073560D01*
X244026440Y-128988332D01*
X243919047Y-128933612D01*
X243800000Y-128914757D01*
X243680952Y-128933612D01*
X243680951Y-128933612D01*
X243573559Y-128988332D01*
X243488332Y-129073559D01*
X243433612Y-129180951D01*
X243433612Y-129180952D01*
X243414757Y-129299999D01*
X243035243Y-129299999D01*
X243016388Y-129180953D01*
X242961668Y-129073560D01*
X242876440Y-128988332D01*
X242769047Y-128933612D01*
X242650000Y-128914757D01*
X242649999Y-128914757D01*
X242530952Y-128933612D01*
X242530951Y-128933612D01*
X242423559Y-128988332D01*
X242338332Y-129073559D01*
X242324860Y-129100000D01*
X242302238Y-129144399D01*
X242302237Y-129144400D01*
X242265862Y-129175466D01*
X242218174Y-129171713D01*
X242190861Y-129144399D01*
X242188733Y-129140223D01*
X242109776Y-129061266D01*
X242010287Y-129010574D01*
X242010282Y-129010572D01*
X241900003Y-128993106D01*
X241899997Y-128993106D01*
X241789717Y-129010572D01*
X241789712Y-129010574D01*
X241690223Y-129061266D01*
X241611266Y-129140223D01*
X241560574Y-129239712D01*
X241560572Y-129239717D01*
X241543105Y-129349996D01*
X241543105Y-129350003D01*
X240887658Y-129350003D01*
X240909777Y-129338733D01*
X240988733Y-129259777D01*
X241039426Y-129160286D01*
X241039427Y-129160282D01*
X241056894Y-129050003D01*
X241056894Y-129049996D01*
X241039427Y-128939717D01*
X241039425Y-128939712D01*
X240988733Y-128840223D01*
X240909776Y-128761266D01*
X240810287Y-128710574D01*
X240810282Y-128710572D01*
X240700003Y-128693106D01*
X240699997Y-128693106D01*
X240589717Y-128710572D01*
X240589712Y-128710574D01*
X240490223Y-128761266D01*
X240411266Y-128840223D01*
X240360574Y-128939712D01*
X240360572Y-128939717D01*
X240343105Y-129049996D01*
X240343105Y-129050003D01*
X236220110Y-129050003D01*
X236404602Y-128865511D01*
X236421679Y-128853396D01*
X236422149Y-128853170D01*
X236441548Y-128828842D01*
X236443885Y-128826229D01*
X236450275Y-128819840D01*
X236455082Y-128812189D01*
X236457114Y-128809324D01*
X236476511Y-128785003D01*
X236476625Y-128784500D01*
X236484644Y-128765141D01*
X236484918Y-128764706D01*
X236488401Y-128733779D01*
X236488988Y-128730332D01*
X236491000Y-128721521D01*
X236491000Y-128712482D01*
X236491197Y-128708980D01*
X236492985Y-128693106D01*
X236494680Y-128678065D01*
X236494506Y-128677570D01*
X236491000Y-128656929D01*
X236491000Y-126200003D01*
X240643105Y-126200003D01*
X240660572Y-126310282D01*
X240660574Y-126310287D01*
X240711266Y-126409776D01*
X240711267Y-126409777D01*
X240790223Y-126488733D01*
X240889714Y-126539426D01*
X240889717Y-126539427D01*
X240999997Y-126556894D01*
X241000000Y-126556894D01*
X241000003Y-126556894D01*
X241110282Y-126539427D01*
X241110283Y-126539426D01*
X241110286Y-126539426D01*
X241209777Y-126488733D01*
X241288733Y-126409777D01*
X241339426Y-126310286D01*
X241339427Y-126310282D01*
X241356894Y-126200003D01*
X241356894Y-126199996D01*
X241339427Y-126089717D01*
X241339425Y-126089712D01*
X241288733Y-125990223D01*
X241209776Y-125911266D01*
X241110287Y-125860574D01*
X241110282Y-125860572D01*
X241000003Y-125843106D01*
X240999997Y-125843106D01*
X240889717Y-125860572D01*
X240889712Y-125860574D01*
X240790223Y-125911266D01*
X240711266Y-125990223D01*
X240660574Y-126089712D01*
X240660572Y-126089717D01*
X240643105Y-126199996D01*
X240643105Y-126200003D01*
X236491000Y-126200003D01*
X236491000Y-125575000D01*
X242339757Y-125575000D01*
X242358612Y-125694047D01*
X242358612Y-125694048D01*
X242361645Y-125700000D01*
X242413332Y-125801440D01*
X242498560Y-125886668D01*
X242605953Y-125941388D01*
X242725000Y-125960243D01*
X242844047Y-125941388D01*
X242951440Y-125886668D01*
X243036668Y-125801440D01*
X243091388Y-125694047D01*
X243110243Y-125575000D01*
X243091388Y-125455953D01*
X243036668Y-125348560D01*
X242951440Y-125263332D01*
X242844047Y-125208612D01*
X242725000Y-125189757D01*
X242605952Y-125208612D01*
X242605951Y-125208612D01*
X242498559Y-125263332D01*
X242413332Y-125348559D01*
X242358612Y-125455951D01*
X242358612Y-125455952D01*
X242339757Y-125575000D01*
X236491000Y-125575000D01*
X236491000Y-124400000D01*
X237114757Y-124400000D01*
X237133612Y-124519047D01*
X237133612Y-124519048D01*
X237166510Y-124583612D01*
X237188332Y-124626440D01*
X237273560Y-124711668D01*
X237380953Y-124766388D01*
X237500000Y-124785243D01*
X237619047Y-124766388D01*
X237726440Y-124711668D01*
X237811668Y-124626440D01*
X237866388Y-124519047D01*
X237885243Y-124400000D01*
X240614757Y-124400000D01*
X240633612Y-124519047D01*
X240633612Y-124519048D01*
X240666510Y-124583612D01*
X240688332Y-124626440D01*
X240773560Y-124711668D01*
X240880953Y-124766388D01*
X241000000Y-124785243D01*
X241119047Y-124766388D01*
X241226440Y-124711668D01*
X241311668Y-124626440D01*
X241366388Y-124519047D01*
X241385243Y-124400000D01*
X241366388Y-124280953D01*
X241311668Y-124173560D01*
X241226440Y-124088332D01*
X241119047Y-124033612D01*
X241000000Y-124014757D01*
X240880952Y-124033612D01*
X240880951Y-124033612D01*
X240773559Y-124088332D01*
X240688332Y-124173559D01*
X240633612Y-124280951D01*
X240633612Y-124280952D01*
X240614757Y-124400000D01*
X237885243Y-124400000D01*
X237866388Y-124280953D01*
X237811668Y-124173560D01*
X237726440Y-124088332D01*
X237619047Y-124033612D01*
X237500000Y-124014757D01*
X237499999Y-124014757D01*
X237380952Y-124033612D01*
X237380951Y-124033612D01*
X237273559Y-124088332D01*
X237188332Y-124173559D01*
X237133612Y-124280951D01*
X237133612Y-124280952D01*
X237114757Y-124400000D01*
X236491000Y-124400000D01*
X236491000Y-122100000D01*
X240414757Y-122100000D01*
X240433612Y-122219047D01*
X240433612Y-122219048D01*
X240466352Y-122283302D01*
X240488332Y-122326440D01*
X240573560Y-122411668D01*
X240680953Y-122466388D01*
X240800000Y-122485243D01*
X240919047Y-122466388D01*
X241026440Y-122411668D01*
X241111668Y-122326440D01*
X241112336Y-122325128D01*
X241113088Y-122324486D01*
X241114563Y-122322457D01*
X241115049Y-122322810D01*
X241148710Y-122294060D01*
X241168026Y-122291000D01*
X243231974Y-122291000D01*
X243276168Y-122309306D01*
X243287663Y-122325128D01*
X243288330Y-122326438D01*
X243288332Y-122326440D01*
X243373560Y-122411668D01*
X243480953Y-122466388D01*
X243600000Y-122485243D01*
X243719047Y-122466388D01*
X243826440Y-122411668D01*
X243911668Y-122326440D01*
X243966388Y-122219047D01*
X243985243Y-122100000D01*
X243966388Y-121980953D01*
X243911668Y-121873560D01*
X243826440Y-121788332D01*
X243719047Y-121733612D01*
X243600000Y-121714757D01*
X243599999Y-121714757D01*
X243480952Y-121733612D01*
X243480951Y-121733612D01*
X243373559Y-121788332D01*
X243288330Y-121873561D01*
X243287663Y-121874872D01*
X243286911Y-121875513D01*
X243285437Y-121877543D01*
X243284950Y-121877189D01*
X243251290Y-121905940D01*
X243231974Y-121909000D01*
X241168026Y-121909000D01*
X241123832Y-121890694D01*
X241112337Y-121874872D01*
X241111669Y-121873561D01*
X241026440Y-121788332D01*
X240919047Y-121733612D01*
X240800000Y-121714757D01*
X240680952Y-121733612D01*
X240680951Y-121733612D01*
X240573559Y-121788332D01*
X240488332Y-121873559D01*
X240433612Y-121980951D01*
X240433612Y-121980952D01*
X240414757Y-122100000D01*
X236491000Y-122100000D01*
X236491000Y-121300003D01*
X243943105Y-121300003D01*
X243960572Y-121410282D01*
X243960574Y-121410287D01*
X244000898Y-121489427D01*
X244011267Y-121509777D01*
X244090223Y-121588733D01*
X244189714Y-121639426D01*
X244189717Y-121639427D01*
X244299997Y-121656894D01*
X244300000Y-121656894D01*
X244300003Y-121656894D01*
X244410282Y-121639427D01*
X244410283Y-121639426D01*
X244410286Y-121639426D01*
X244509777Y-121588733D01*
X244588733Y-121509777D01*
X244639426Y-121410286D01*
X244645243Y-121373560D01*
X244656894Y-121300003D01*
X244656894Y-121299996D01*
X244639427Y-121189717D01*
X244639425Y-121189712D01*
X244588733Y-121090223D01*
X244509776Y-121011266D01*
X244410287Y-120960574D01*
X244410282Y-120960572D01*
X244300003Y-120943106D01*
X244299997Y-120943106D01*
X244189717Y-120960572D01*
X244189712Y-120960574D01*
X244090223Y-121011266D01*
X244011266Y-121090223D01*
X243960574Y-121189712D01*
X243960572Y-121189717D01*
X243943105Y-121299996D01*
X243943105Y-121300003D01*
X236491000Y-121300003D01*
X236491000Y-119600000D01*
X240614757Y-119600000D01*
X240633612Y-119719047D01*
X240633612Y-119719048D01*
X240635573Y-119722896D01*
X240688332Y-119826440D01*
X240773560Y-119911668D01*
X240880953Y-119966388D01*
X241000000Y-119985243D01*
X241051387Y-119977104D01*
X241097901Y-119988270D01*
X241122895Y-120029056D01*
X241122896Y-120048610D01*
X241114757Y-120099999D01*
X241133612Y-120219047D01*
X241133612Y-120219048D01*
X241188332Y-120326440D01*
X241273560Y-120411668D01*
X241345126Y-120448133D01*
X241376193Y-120484507D01*
X241372440Y-120532195D01*
X241345127Y-120559509D01*
X241288559Y-120588332D01*
X241203332Y-120673559D01*
X241148612Y-120780951D01*
X241148612Y-120780952D01*
X241129757Y-120900000D01*
X241148612Y-121019047D01*
X241148612Y-121019048D01*
X241159141Y-121039712D01*
X241203332Y-121126440D01*
X241288560Y-121211668D01*
X241395953Y-121266388D01*
X241515000Y-121285243D01*
X241634047Y-121266388D01*
X241741440Y-121211668D01*
X241826668Y-121126440D01*
X241881388Y-121019047D01*
X241900243Y-120900000D01*
X241881388Y-120780953D01*
X241826668Y-120673560D01*
X241741440Y-120588332D01*
X241669871Y-120551865D01*
X241638806Y-120515491D01*
X241642559Y-120467803D01*
X241669871Y-120440491D01*
X241726440Y-120411668D01*
X241811668Y-120326440D01*
X241866388Y-120219047D01*
X241885243Y-120100000D01*
X241866388Y-119980953D01*
X241811668Y-119873560D01*
X241726440Y-119788332D01*
X241619047Y-119733612D01*
X241500000Y-119714757D01*
X241499999Y-119714757D01*
X241448610Y-119722896D01*
X241402097Y-119711728D01*
X241377103Y-119670941D01*
X241377104Y-119651387D01*
X241385243Y-119600000D01*
X241377104Y-119548612D01*
X241388270Y-119502099D01*
X241429056Y-119477105D01*
X241448612Y-119477105D01*
X241500000Y-119485244D01*
X241619047Y-119466389D01*
X241726440Y-119411669D01*
X241811668Y-119326441D01*
X241866388Y-119219048D01*
X241885243Y-119100001D01*
X241866388Y-118980954D01*
X241811668Y-118873561D01*
X241726440Y-118788333D01*
X241619047Y-118733613D01*
X241500000Y-118714758D01*
X241499999Y-118714758D01*
X241448610Y-118722897D01*
X241402097Y-118711729D01*
X241377103Y-118670942D01*
X241377104Y-118651388D01*
X241378651Y-118641622D01*
X241385243Y-118600000D01*
X241366388Y-118480953D01*
X241311668Y-118373560D01*
X241226440Y-118288332D01*
X241119047Y-118233612D01*
X241000000Y-118214757D01*
X240880952Y-118233612D01*
X240880951Y-118233612D01*
X240773559Y-118288332D01*
X240688332Y-118373559D01*
X240633612Y-118480951D01*
X240633612Y-118480952D01*
X240614757Y-118600000D01*
X240633612Y-118719047D01*
X240633612Y-118719048D01*
X240662855Y-118776440D01*
X240688332Y-118826440D01*
X240773560Y-118911668D01*
X240880953Y-118966388D01*
X241000000Y-118985243D01*
X241051387Y-118977104D01*
X241097901Y-118988270D01*
X241122895Y-119029056D01*
X241122896Y-119048610D01*
X241114757Y-119100001D01*
X241121811Y-119144541D01*
X241122896Y-119151388D01*
X241111728Y-119197902D01*
X241070942Y-119222896D01*
X241051388Y-119222896D01*
X241000000Y-119214757D01*
X240880952Y-119233612D01*
X240880951Y-119233612D01*
X240773559Y-119288332D01*
X240688332Y-119373559D01*
X240633612Y-119480951D01*
X240633612Y-119480952D01*
X240614757Y-119600000D01*
X236491000Y-119600000D01*
X236491000Y-117149999D01*
X240614757Y-117149999D01*
X240633612Y-117269047D01*
X240633612Y-117269048D01*
X240635573Y-117272896D01*
X240688332Y-117376440D01*
X240773560Y-117461668D01*
X240880953Y-117516388D01*
X241000000Y-117535243D01*
X241051387Y-117527104D01*
X241097901Y-117538270D01*
X241122895Y-117579056D01*
X241122896Y-117598610D01*
X241114757Y-117649999D01*
X241133612Y-117769047D01*
X241133612Y-117769048D01*
X241188332Y-117876440D01*
X241273560Y-117961668D01*
X241380953Y-118016388D01*
X241500000Y-118035243D01*
X241619047Y-118016388D01*
X241726440Y-117961668D01*
X241811668Y-117876440D01*
X241866388Y-117769047D01*
X241885243Y-117650000D01*
X241866388Y-117530953D01*
X241811668Y-117423560D01*
X241726440Y-117338332D01*
X241619047Y-117283612D01*
X241500000Y-117264757D01*
X241499999Y-117264757D01*
X241448610Y-117272896D01*
X241402097Y-117261728D01*
X241377103Y-117220941D01*
X241377104Y-117201387D01*
X241385243Y-117150000D01*
X241377104Y-117098611D01*
X241388270Y-117052098D01*
X241429056Y-117027104D01*
X241448612Y-117027104D01*
X241500000Y-117035243D01*
X241619047Y-117016388D01*
X241726440Y-116961668D01*
X241811668Y-116876440D01*
X241866388Y-116769047D01*
X241885243Y-116650000D01*
X241866388Y-116530953D01*
X241811668Y-116423560D01*
X241726440Y-116338332D01*
X241619047Y-116283612D01*
X241500000Y-116264757D01*
X241499999Y-116264757D01*
X241448610Y-116272896D01*
X241402097Y-116261728D01*
X241377103Y-116220941D01*
X241377104Y-116201387D01*
X241385243Y-116150000D01*
X241366388Y-116030953D01*
X241311668Y-115923560D01*
X241226440Y-115838332D01*
X241119047Y-115783612D01*
X241000000Y-115764757D01*
X240880952Y-115783612D01*
X240880951Y-115783612D01*
X240773559Y-115838332D01*
X240688332Y-115923559D01*
X240633612Y-116030951D01*
X240633612Y-116030952D01*
X240614757Y-116149999D01*
X240633612Y-116269047D01*
X240633612Y-116269048D01*
X240648743Y-116298743D01*
X240688332Y-116376440D01*
X240773560Y-116461668D01*
X240880953Y-116516388D01*
X241000000Y-116535243D01*
X241051387Y-116527104D01*
X241097901Y-116538270D01*
X241122895Y-116579056D01*
X241122896Y-116598610D01*
X241114757Y-116650000D01*
X241119171Y-116677867D01*
X241122896Y-116701388D01*
X241111728Y-116747902D01*
X241070942Y-116772896D01*
X241051388Y-116772896D01*
X241000000Y-116764757D01*
X240880952Y-116783612D01*
X240880951Y-116783612D01*
X240773559Y-116838332D01*
X240688332Y-116923559D01*
X240633612Y-117030951D01*
X240633612Y-117030952D01*
X240614757Y-117149999D01*
X236491000Y-117149999D01*
X236491000Y-115200003D01*
X240043105Y-115200003D01*
X240060572Y-115310282D01*
X240060574Y-115310287D01*
X240111266Y-115409776D01*
X240111267Y-115409777D01*
X240190223Y-115488733D01*
X240289714Y-115539426D01*
X240289717Y-115539427D01*
X240399997Y-115556894D01*
X240400000Y-115556894D01*
X240400003Y-115556894D01*
X240510282Y-115539427D01*
X240510283Y-115539426D01*
X240510286Y-115539426D01*
X240609777Y-115488733D01*
X240688733Y-115409777D01*
X240739426Y-115310286D01*
X240741055Y-115300003D01*
X243743105Y-115300003D01*
X243760572Y-115410282D01*
X243760574Y-115410287D01*
X243811266Y-115509776D01*
X243811267Y-115509777D01*
X243890223Y-115588733D01*
X243989714Y-115639426D01*
X243989717Y-115639427D01*
X244099997Y-115656894D01*
X244100000Y-115656894D01*
X244100003Y-115656894D01*
X244210282Y-115639427D01*
X244210283Y-115639426D01*
X244210286Y-115639426D01*
X244309777Y-115588733D01*
X244388733Y-115509777D01*
X244439426Y-115410286D01*
X244455265Y-115310286D01*
X244456894Y-115300003D01*
X244456894Y-115299996D01*
X244439427Y-115189717D01*
X244439425Y-115189712D01*
X244388733Y-115090223D01*
X244309776Y-115011266D01*
X244210287Y-114960574D01*
X244210282Y-114960572D01*
X244100003Y-114943106D01*
X244099997Y-114943106D01*
X243989717Y-114960572D01*
X243989712Y-114960574D01*
X243890223Y-115011266D01*
X243811266Y-115090223D01*
X243760574Y-115189712D01*
X243760572Y-115189717D01*
X243743105Y-115299996D01*
X243743105Y-115300003D01*
X240741055Y-115300003D01*
X240756894Y-115200003D01*
X240756894Y-115199996D01*
X240739427Y-115089717D01*
X240739425Y-115089712D01*
X240688733Y-114990223D01*
X240609776Y-114911266D01*
X240510287Y-114860574D01*
X240510282Y-114860572D01*
X240400003Y-114843106D01*
X240399997Y-114843106D01*
X240289717Y-114860572D01*
X240289712Y-114860574D01*
X240190223Y-114911266D01*
X240111266Y-114990223D01*
X240060574Y-115089712D01*
X240060572Y-115089717D01*
X240043105Y-115199996D01*
X240043105Y-115200003D01*
X236491000Y-115200003D01*
X236491000Y-114105001D01*
X236509305Y-114060808D01*
X237978095Y-112592018D01*
X238022288Y-112573713D01*
X238032066Y-112574483D01*
X238044422Y-112576440D01*
X238100000Y-112585243D01*
X238219047Y-112566388D01*
X238326440Y-112511668D01*
X238411668Y-112426440D01*
X238450617Y-112349999D01*
X239764757Y-112349999D01*
X239783612Y-112469047D01*
X239783612Y-112469048D01*
X239837099Y-112574021D01*
X239838332Y-112576440D01*
X239923560Y-112661668D01*
X240030953Y-112716388D01*
X240150000Y-112735243D01*
X240269047Y-112716388D01*
X240376440Y-112661668D01*
X240461668Y-112576440D01*
X240461668Y-112576439D01*
X240465146Y-112572962D01*
X240466205Y-112574021D01*
X240501977Y-112552096D01*
X240548492Y-112563260D01*
X240567446Y-112585450D01*
X240588332Y-112626440D01*
X240673560Y-112711668D01*
X240780953Y-112766388D01*
X240900000Y-112785243D01*
X241019047Y-112766388D01*
X241126440Y-112711668D01*
X241211668Y-112626440D01*
X241266388Y-112519047D01*
X241285243Y-112400000D01*
X241269405Y-112299999D01*
X243214757Y-112299999D01*
X243233612Y-112419047D01*
X243233612Y-112419048D01*
X243266510Y-112483612D01*
X243288332Y-112526440D01*
X243373560Y-112611668D01*
X243480953Y-112666388D01*
X243600000Y-112685243D01*
X243608222Y-112683940D01*
X243654734Y-112695104D01*
X243679731Y-112735888D01*
X243679732Y-112755446D01*
X243664757Y-112849999D01*
X243664757Y-112850000D01*
X243672716Y-112900250D01*
X243683612Y-112969047D01*
X243683612Y-112969048D01*
X243690875Y-112983302D01*
X243738332Y-113076440D01*
X243823560Y-113161668D01*
X243930953Y-113216388D01*
X244050000Y-113235243D01*
X244169047Y-113216388D01*
X244276440Y-113161668D01*
X244361668Y-113076440D01*
X244416388Y-112969047D01*
X244435243Y-112850000D01*
X244416388Y-112730953D01*
X244361668Y-112623560D01*
X244276440Y-112538332D01*
X244169047Y-112483612D01*
X244050000Y-112464757D01*
X244049999Y-112464757D01*
X244046511Y-112465309D01*
X244041773Y-112466059D01*
X243995260Y-112454892D01*
X243970267Y-112414105D01*
X243970267Y-112394555D01*
X243985243Y-112300000D01*
X243966388Y-112180953D01*
X243911668Y-112073560D01*
X243826440Y-111988332D01*
X243719047Y-111933612D01*
X243600000Y-111914757D01*
X243480952Y-111933612D01*
X243480951Y-111933612D01*
X243373559Y-111988332D01*
X243288332Y-112073559D01*
X243233612Y-112180951D01*
X243233612Y-112180952D01*
X243214757Y-112299999D01*
X241269405Y-112299999D01*
X241266388Y-112280953D01*
X241211668Y-112173560D01*
X241126440Y-112088332D01*
X241019047Y-112033612D01*
X240900000Y-112014757D01*
X240899999Y-112014757D01*
X240780952Y-112033612D01*
X240780951Y-112033612D01*
X240673559Y-112088332D01*
X240584854Y-112177038D01*
X240583798Y-112175982D01*
X240548001Y-112197906D01*
X240501490Y-112186727D01*
X240482552Y-112164547D01*
X240461668Y-112123560D01*
X240376440Y-112038332D01*
X240269047Y-111983612D01*
X240150000Y-111964757D01*
X240030952Y-111983612D01*
X240030951Y-111983612D01*
X239923559Y-112038332D01*
X239838332Y-112123559D01*
X239783612Y-112230951D01*
X239783612Y-112230952D01*
X239764757Y-112349999D01*
X238450617Y-112349999D01*
X238466388Y-112319047D01*
X238485243Y-112200000D01*
X238466388Y-112080953D01*
X238411668Y-111973560D01*
X238326440Y-111888332D01*
X238219047Y-111833612D01*
X238100000Y-111814757D01*
X238099999Y-111814757D01*
X237980952Y-111833612D01*
X237980951Y-111833612D01*
X237873559Y-111888332D01*
X237788332Y-111973559D01*
X237733612Y-112080951D01*
X237733612Y-112080952D01*
X237714757Y-112200000D01*
X237725516Y-112267934D01*
X237714348Y-112314447D01*
X237707979Y-112321904D01*
X236195395Y-113834488D01*
X236178326Y-113846601D01*
X236177850Y-113846829D01*
X236158455Y-113871150D01*
X236156121Y-113873762D01*
X236149725Y-113880159D01*
X236149724Y-113880160D01*
X236144916Y-113887812D01*
X236142889Y-113890668D01*
X236123489Y-113914996D01*
X236123488Y-113914998D01*
X236123370Y-113915516D01*
X236115365Y-113934843D01*
X236115082Y-113935293D01*
X236115081Y-113935295D01*
X236111598Y-113966211D01*
X236111011Y-113969666D01*
X236109000Y-113978477D01*
X236109000Y-113987516D01*
X236108803Y-113991017D01*
X236105320Y-114021935D01*
X236105492Y-114022427D01*
X236109000Y-114043071D01*
X236109000Y-128594996D01*
X236090694Y-128639190D01*
X235621904Y-129107979D01*
X235577710Y-129126285D01*
X235567934Y-129125516D01*
X235500000Y-129114757D01*
X235380952Y-129133612D01*
X235380951Y-129133612D01*
X235273559Y-129188332D01*
X235188332Y-129273559D01*
X235133612Y-129380951D01*
X235133610Y-129380958D01*
X235121681Y-129456277D01*
X235096687Y-129497064D01*
X235059951Y-129509000D01*
X233879996Y-129509000D01*
X233835802Y-129490694D01*
X233817496Y-129446500D01*
X233835802Y-129402306D01*
X233860014Y-129378094D01*
X233911668Y-129326440D01*
X233966388Y-129219047D01*
X233985243Y-129100000D01*
X233966388Y-128980953D01*
X233911668Y-128873560D01*
X233826440Y-128788332D01*
X233719047Y-128733612D01*
X233600000Y-128714757D01*
X233480952Y-128733612D01*
X233480951Y-128733612D01*
X233373559Y-128788332D01*
X233288332Y-128873559D01*
X233233612Y-128980951D01*
X233233612Y-128980952D01*
X233218945Y-129073560D01*
X233214757Y-129100000D01*
X233226115Y-129171713D01*
X233233612Y-129219047D01*
X233233612Y-129219048D01*
X233288332Y-129326440D01*
X233364198Y-129402306D01*
X233382504Y-129446500D01*
X233364198Y-129490694D01*
X233320004Y-129509000D01*
X228705003Y-129509000D01*
X228660809Y-129490694D01*
X228492019Y-129321904D01*
X228473713Y-129277710D01*
X228474483Y-129267932D01*
X228478952Y-129239717D01*
X228485243Y-129200000D01*
X228466388Y-129080953D01*
X228411668Y-128973560D01*
X228326440Y-128888332D01*
X228219047Y-128833612D01*
X228100000Y-128814757D01*
X227980952Y-128833612D01*
X227980951Y-128833612D01*
X227873559Y-128888332D01*
X227788332Y-128973559D01*
X227733612Y-129080951D01*
X227733612Y-129080952D01*
X227714757Y-129200000D01*
X195725501Y-129200000D01*
X195725501Y-128612557D01*
X196112499Y-128612557D01*
X196119898Y-128649748D01*
X196119898Y-128649749D01*
X196148077Y-128691922D01*
X196173607Y-128708980D01*
X196190252Y-128720102D01*
X196227442Y-128727500D01*
X196227443Y-128727500D01*
X197952557Y-128727500D01*
X197952558Y-128727500D01*
X197989748Y-128720102D01*
X198031922Y-128691922D01*
X198060102Y-128649748D01*
X198067500Y-128612558D01*
X198067500Y-127750000D01*
X198647770Y-127750000D01*
X198666642Y-127941622D01*
X198666643Y-127941624D01*
X198722538Y-128125883D01*
X198755918Y-128188332D01*
X198813302Y-128295692D01*
X198813306Y-128295698D01*
X198935459Y-128444541D01*
X199084302Y-128566694D01*
X199084304Y-128566695D01*
X199084307Y-128566697D01*
X199128491Y-128590313D01*
X199254117Y-128657462D01*
X199438376Y-128713357D01*
X199521268Y-128721521D01*
X199629999Y-128732230D01*
X199629999Y-128732229D01*
X199630000Y-128732230D01*
X199821624Y-128713357D01*
X200005883Y-128657462D01*
X200175698Y-128566694D01*
X200324541Y-128444541D01*
X200446694Y-128295698D01*
X200537462Y-128125883D01*
X200593357Y-127941624D01*
X200612230Y-127750000D01*
X201187770Y-127750000D01*
X201206642Y-127941622D01*
X201206643Y-127941624D01*
X201262538Y-128125883D01*
X201295918Y-128188332D01*
X201353302Y-128295692D01*
X201353306Y-128295698D01*
X201475459Y-128444541D01*
X201624302Y-128566694D01*
X201624304Y-128566695D01*
X201624307Y-128566697D01*
X201668491Y-128590313D01*
X201794117Y-128657462D01*
X201978376Y-128713357D01*
X202061268Y-128721521D01*
X202169999Y-128732230D01*
X202169999Y-128732229D01*
X202170000Y-128732230D01*
X202361624Y-128713357D01*
X202545883Y-128657462D01*
X202715698Y-128566694D01*
X202864541Y-128444541D01*
X202986694Y-128295698D01*
X203077462Y-128125883D01*
X203133357Y-127941624D01*
X203152230Y-127750000D01*
X203727770Y-127750000D01*
X203746642Y-127941622D01*
X203746643Y-127941624D01*
X203802538Y-128125883D01*
X203835918Y-128188332D01*
X203893302Y-128295692D01*
X203893306Y-128295698D01*
X204015459Y-128444541D01*
X204164302Y-128566694D01*
X204164304Y-128566695D01*
X204164307Y-128566697D01*
X204208491Y-128590313D01*
X204334117Y-128657462D01*
X204518376Y-128713357D01*
X204710000Y-128732230D01*
X204901624Y-128713357D01*
X205085883Y-128657462D01*
X205255698Y-128566694D01*
X205404541Y-128444541D01*
X205526694Y-128295698D01*
X205617462Y-128125883D01*
X205673357Y-127941624D01*
X205692230Y-127750000D01*
X208807770Y-127750000D01*
X208826642Y-127941622D01*
X208826643Y-127941624D01*
X208882538Y-128125883D01*
X208915918Y-128188332D01*
X208973302Y-128295692D01*
X208973306Y-128295698D01*
X209095459Y-128444541D01*
X209244302Y-128566694D01*
X209244304Y-128566695D01*
X209244307Y-128566697D01*
X209288491Y-128590313D01*
X209414117Y-128657462D01*
X209598376Y-128713357D01*
X209681268Y-128721521D01*
X209789999Y-128732230D01*
X209789999Y-128732229D01*
X209790000Y-128732230D01*
X209981624Y-128713357D01*
X210165883Y-128657462D01*
X210335698Y-128566694D01*
X210484541Y-128444541D01*
X210606694Y-128295698D01*
X210636745Y-128239476D01*
X214662500Y-128239476D01*
X214667528Y-128279272D01*
X214677384Y-128357292D01*
X214677385Y-128357297D01*
X214735745Y-128504699D01*
X214735747Y-128504703D01*
X214828937Y-128632968D01*
X214950818Y-128733795D01*
X214951097Y-128734026D01*
X215094551Y-128801531D01*
X215250286Y-128831239D01*
X215250286Y-128831238D01*
X215250287Y-128831239D01*
X215259129Y-128830682D01*
X215408516Y-128821284D01*
X215559300Y-128772291D01*
X215693162Y-128687340D01*
X215801693Y-128571767D01*
X215878072Y-128432834D01*
X215917500Y-128279272D01*
X215917500Y-128150001D01*
X216139534Y-128150001D01*
X216159311Y-128300229D01*
X216159314Y-128300239D01*
X216214237Y-128432835D01*
X216217302Y-128440233D01*
X216309549Y-128560451D01*
X216429767Y-128652698D01*
X216569764Y-128710687D01*
X216569770Y-128710687D01*
X216569771Y-128710688D01*
X216626021Y-128718093D01*
X216682280Y-128725500D01*
X216682286Y-128725500D01*
X216757714Y-128725500D01*
X216757720Y-128725500D01*
X216870236Y-128710687D01*
X217010233Y-128652698D01*
X217130451Y-128560451D01*
X217176838Y-128499999D01*
X218914757Y-128499999D01*
X218933612Y-128619047D01*
X218933612Y-128619048D01*
X218958324Y-128667547D01*
X218988332Y-128726440D01*
X219073560Y-128811668D01*
X219180953Y-128866388D01*
X219300000Y-128885243D01*
X219419047Y-128866388D01*
X219526440Y-128811668D01*
X219611668Y-128726440D01*
X219666388Y-128619047D01*
X219685243Y-128500000D01*
X219666388Y-128380953D01*
X219611668Y-128273560D01*
X219526440Y-128188332D01*
X219451212Y-128150001D01*
X221919534Y-128150001D01*
X221939311Y-128300229D01*
X221939314Y-128300239D01*
X221994237Y-128432835D01*
X221997302Y-128440233D01*
X222089549Y-128560451D01*
X222209767Y-128652698D01*
X222349764Y-128710687D01*
X222349770Y-128710687D01*
X222349771Y-128710688D01*
X222406022Y-128718093D01*
X222462280Y-128725500D01*
X222462286Y-128725500D01*
X222537714Y-128725500D01*
X222537720Y-128725500D01*
X222650236Y-128710687D01*
X222790233Y-128652698D01*
X222910451Y-128560451D01*
X223002698Y-128440233D01*
X223060687Y-128300236D01*
X223060688Y-128300229D01*
X223068686Y-128239476D01*
X223302500Y-128239476D01*
X223307528Y-128279272D01*
X223317384Y-128357292D01*
X223317385Y-128357297D01*
X223375745Y-128504699D01*
X223375747Y-128504703D01*
X223468937Y-128632968D01*
X223590818Y-128733795D01*
X223591097Y-128734026D01*
X223734551Y-128801531D01*
X223890286Y-128831239D01*
X223890286Y-128831238D01*
X223890287Y-128831239D01*
X223899129Y-128830682D01*
X224048516Y-128821284D01*
X224199300Y-128772291D01*
X224333162Y-128687340D01*
X224441693Y-128571767D01*
X224518072Y-128432834D01*
X224557500Y-128279272D01*
X224557500Y-128050003D01*
X227993105Y-128050003D01*
X228010572Y-128160282D01*
X228010574Y-128160287D01*
X228050923Y-128239476D01*
X228061267Y-128259777D01*
X228140223Y-128338733D01*
X228239714Y-128389426D01*
X228239717Y-128389427D01*
X228349997Y-128406894D01*
X228350000Y-128406894D01*
X228350003Y-128406894D01*
X228460282Y-128389427D01*
X228460283Y-128389426D01*
X228460286Y-128389426D01*
X228559777Y-128338733D01*
X228638733Y-128259777D01*
X228689426Y-128160286D01*
X228691055Y-128150001D01*
X228706894Y-128050003D01*
X228706894Y-128049996D01*
X228689427Y-127939717D01*
X228689425Y-127939712D01*
X228638733Y-127840223D01*
X228559776Y-127761266D01*
X228548828Y-127755688D01*
X228517761Y-127719314D01*
X228521514Y-127671626D01*
X228548828Y-127644312D01*
X228552207Y-127642590D01*
X228559777Y-127638733D01*
X228638733Y-127559777D01*
X228689426Y-127460286D01*
X228694787Y-127426440D01*
X228706894Y-127350003D01*
X228706894Y-127349996D01*
X228689427Y-127239717D01*
X228689425Y-127239712D01*
X228638733Y-127140223D01*
X228559776Y-127061266D01*
X228499762Y-127030688D01*
X228468695Y-126994314D01*
X228472448Y-126946626D01*
X228499762Y-126919312D01*
X228559777Y-126888733D01*
X228638733Y-126809777D01*
X228689426Y-126710286D01*
X228705046Y-126611668D01*
X228706894Y-126600003D01*
X228706894Y-126599996D01*
X228689427Y-126489717D01*
X228689425Y-126489712D01*
X228638733Y-126390223D01*
X228559776Y-126311266D01*
X228460287Y-126260574D01*
X228460282Y-126260572D01*
X228350003Y-126243106D01*
X228349997Y-126243106D01*
X228239717Y-126260572D01*
X228239712Y-126260574D01*
X228140223Y-126311266D01*
X228061266Y-126390223D01*
X228010574Y-126489712D01*
X228010572Y-126489717D01*
X227993105Y-126599996D01*
X227993105Y-126600003D01*
X228010572Y-126710282D01*
X228010574Y-126710287D01*
X228061266Y-126809776D01*
X228140223Y-126888733D01*
X228200237Y-126919312D01*
X228231304Y-126955687D01*
X228227551Y-127003374D01*
X228200237Y-127030688D01*
X228140223Y-127061266D01*
X228061266Y-127140223D01*
X228010574Y-127239712D01*
X228010572Y-127239717D01*
X227993105Y-127349996D01*
X227993105Y-127350003D01*
X228010572Y-127460282D01*
X228010574Y-127460287D01*
X228061266Y-127559776D01*
X228140223Y-127638733D01*
X228151173Y-127644313D01*
X228182238Y-127680688D01*
X228178484Y-127728376D01*
X228151173Y-127755687D01*
X228140223Y-127761266D01*
X228061266Y-127840223D01*
X228010574Y-127939712D01*
X228010572Y-127939717D01*
X227993105Y-128049996D01*
X227993105Y-128050003D01*
X224557500Y-128050003D01*
X224557500Y-127200000D01*
X226314757Y-127200000D01*
X226333612Y-127319047D01*
X226333612Y-127319048D01*
X226349381Y-127349996D01*
X226388332Y-127426440D01*
X226473560Y-127511668D01*
X226580953Y-127566388D01*
X226700000Y-127585243D01*
X226819047Y-127566388D01*
X226926440Y-127511668D01*
X227011668Y-127426440D01*
X227066388Y-127319047D01*
X227085243Y-127200000D01*
X227066388Y-127080953D01*
X227011668Y-126973560D01*
X226926440Y-126888332D01*
X226819047Y-126833612D01*
X226700000Y-126814757D01*
X226699999Y-126814757D01*
X226580952Y-126833612D01*
X226580951Y-126833612D01*
X226473559Y-126888332D01*
X226388332Y-126973559D01*
X226333612Y-127080951D01*
X226333612Y-127080952D01*
X226314757Y-127200000D01*
X224557500Y-127200000D01*
X224557500Y-127060524D01*
X224542616Y-126942707D01*
X224484253Y-126795297D01*
X224422489Y-126710287D01*
X224391062Y-126667031D01*
X224268907Y-126565977D01*
X224268906Y-126565976D01*
X224268903Y-126565974D01*
X224125449Y-126498469D01*
X224125447Y-126498468D01*
X224125446Y-126498468D01*
X223969716Y-126468761D01*
X223969712Y-126468760D01*
X223811484Y-126478716D01*
X223660702Y-126527708D01*
X223660700Y-126527708D01*
X223660700Y-126527709D01*
X223620827Y-126553012D01*
X223526837Y-126612660D01*
X223418309Y-126728230D01*
X223418304Y-126728237D01*
X223341928Y-126867164D01*
X223328539Y-126919312D01*
X223302500Y-127020728D01*
X223302500Y-128239476D01*
X223068686Y-128239476D01*
X223080466Y-128150001D01*
X223080466Y-128149998D01*
X223060688Y-127999770D01*
X223060687Y-127999768D01*
X223060687Y-127999764D01*
X223002698Y-127859767D01*
X222910451Y-127739549D01*
X222790233Y-127647302D01*
X222790229Y-127647300D01*
X222650239Y-127589314D01*
X222650237Y-127589313D01*
X222650236Y-127589313D01*
X222650234Y-127589312D01*
X222650228Y-127589311D01*
X222537726Y-127574500D01*
X222537720Y-127574500D01*
X222462280Y-127574500D01*
X222462273Y-127574500D01*
X222349771Y-127589311D01*
X222349760Y-127589314D01*
X222209770Y-127647300D01*
X222089549Y-127739549D01*
X221997300Y-127859770D01*
X221939314Y-127999760D01*
X221939311Y-127999770D01*
X221919534Y-128149998D01*
X221919534Y-128150001D01*
X219451212Y-128150001D01*
X219419047Y-128133612D01*
X219300000Y-128114757D01*
X219299999Y-128114757D01*
X219180952Y-128133612D01*
X219180951Y-128133612D01*
X219073559Y-128188332D01*
X218988332Y-128273559D01*
X218933612Y-128380951D01*
X218933612Y-128380952D01*
X218914757Y-128499999D01*
X217176838Y-128499999D01*
X217222698Y-128440233D01*
X217280687Y-128300236D01*
X217280688Y-128300229D01*
X217300466Y-128150001D01*
X217300466Y-128149998D01*
X217280688Y-127999770D01*
X217280687Y-127999768D01*
X217280687Y-127999764D01*
X217222698Y-127859767D01*
X217130451Y-127739549D01*
X217010233Y-127647302D01*
X217010229Y-127647300D01*
X216870239Y-127589314D01*
X216870237Y-127589313D01*
X216870236Y-127589313D01*
X216870234Y-127589312D01*
X216870228Y-127589311D01*
X216757726Y-127574500D01*
X216757720Y-127574500D01*
X216682280Y-127574500D01*
X216682273Y-127574500D01*
X216569771Y-127589311D01*
X216569760Y-127589314D01*
X216429770Y-127647300D01*
X216309549Y-127739549D01*
X216217300Y-127859770D01*
X216159314Y-127999760D01*
X216159311Y-127999770D01*
X216139534Y-128149998D01*
X216139534Y-128150001D01*
X215917500Y-128150001D01*
X215917500Y-127060524D01*
X215902616Y-126942707D01*
X215844253Y-126795297D01*
X215782489Y-126710287D01*
X215751062Y-126667031D01*
X215628907Y-126565977D01*
X215628906Y-126565976D01*
X215628903Y-126565974D01*
X215485449Y-126498469D01*
X215485447Y-126498468D01*
X215485446Y-126498468D01*
X215329716Y-126468761D01*
X215329712Y-126468760D01*
X215171484Y-126478716D01*
X215020702Y-126527708D01*
X215020700Y-126527708D01*
X215020700Y-126527709D01*
X214980827Y-126553012D01*
X214886837Y-126612660D01*
X214778309Y-126728230D01*
X214778304Y-126728237D01*
X214701928Y-126867164D01*
X214688539Y-126919312D01*
X214662500Y-127020728D01*
X214662500Y-128239476D01*
X210636745Y-128239476D01*
X210697462Y-128125883D01*
X210753357Y-127941624D01*
X210772230Y-127750000D01*
X210765403Y-127680688D01*
X210753357Y-127558377D01*
X210739188Y-127511668D01*
X210697462Y-127374117D01*
X210606694Y-127204302D01*
X210484541Y-127055459D01*
X210335698Y-126933306D01*
X210335692Y-126933302D01*
X210211955Y-126867164D01*
X210165883Y-126842538D01*
X210048111Y-126806811D01*
X209981622Y-126786642D01*
X209790000Y-126767770D01*
X209598377Y-126786642D01*
X209480604Y-126822369D01*
X209414117Y-126842538D01*
X209414115Y-126842538D01*
X209414115Y-126842539D01*
X209244307Y-126933302D01*
X209244301Y-126933306D01*
X209095459Y-127055459D01*
X208973306Y-127204301D01*
X208973302Y-127204307D01*
X208882539Y-127374115D01*
X208826642Y-127558377D01*
X208807770Y-127749999D01*
X208807770Y-127750000D01*
X205692230Y-127750000D01*
X205685403Y-127680688D01*
X205673357Y-127558377D01*
X205659188Y-127511668D01*
X205617462Y-127374117D01*
X205526694Y-127204302D01*
X205404541Y-127055459D01*
X205255698Y-126933306D01*
X205255692Y-126933302D01*
X205131955Y-126867164D01*
X205085883Y-126842538D01*
X204968111Y-126806811D01*
X204901622Y-126786642D01*
X204710000Y-126767770D01*
X204518377Y-126786642D01*
X204400604Y-126822369D01*
X204334117Y-126842538D01*
X204334115Y-126842538D01*
X204334115Y-126842539D01*
X204164307Y-126933302D01*
X204164301Y-126933306D01*
X204015459Y-127055459D01*
X203893306Y-127204301D01*
X203893302Y-127204307D01*
X203802539Y-127374115D01*
X203746642Y-127558377D01*
X203727770Y-127749999D01*
X203727770Y-127750000D01*
X203152230Y-127750000D01*
X203145403Y-127680688D01*
X203133357Y-127558377D01*
X203119188Y-127511668D01*
X203077462Y-127374117D01*
X202986694Y-127204302D01*
X202864541Y-127055459D01*
X202715698Y-126933306D01*
X202715692Y-126933302D01*
X202591955Y-126867164D01*
X202545883Y-126842538D01*
X202428111Y-126806811D01*
X202361622Y-126786642D01*
X202170000Y-126767770D01*
X201978377Y-126786642D01*
X201860604Y-126822369D01*
X201794117Y-126842538D01*
X201794115Y-126842538D01*
X201794115Y-126842539D01*
X201624307Y-126933302D01*
X201624301Y-126933306D01*
X201475459Y-127055459D01*
X201353306Y-127204301D01*
X201353302Y-127204307D01*
X201262539Y-127374115D01*
X201206642Y-127558377D01*
X201187770Y-127749999D01*
X201187770Y-127750000D01*
X200612230Y-127750000D01*
X200605403Y-127680688D01*
X200593357Y-127558377D01*
X200579188Y-127511668D01*
X200537462Y-127374117D01*
X200446694Y-127204302D01*
X200324541Y-127055459D01*
X200175698Y-126933306D01*
X200175692Y-126933302D01*
X200051955Y-126867164D01*
X200005883Y-126842538D01*
X199888111Y-126806811D01*
X199821622Y-126786642D01*
X199630000Y-126767770D01*
X199438377Y-126786642D01*
X199320604Y-126822369D01*
X199254117Y-126842538D01*
X199254115Y-126842538D01*
X199254115Y-126842539D01*
X199084307Y-126933302D01*
X199084301Y-126933306D01*
X198935459Y-127055459D01*
X198813306Y-127204301D01*
X198813302Y-127204307D01*
X198722539Y-127374115D01*
X198666642Y-127558377D01*
X198647770Y-127749999D01*
X198647770Y-127750000D01*
X198067500Y-127750000D01*
X198067500Y-126887442D01*
X198060102Y-126850252D01*
X198060101Y-126850250D01*
X198031922Y-126808077D01*
X197989748Y-126779898D01*
X197989747Y-126779898D01*
X197952558Y-126772500D01*
X196227442Y-126772500D01*
X196208847Y-126776199D01*
X196190251Y-126779898D01*
X196190250Y-126779898D01*
X196148077Y-126808077D01*
X196119898Y-126850250D01*
X196119898Y-126850251D01*
X196112499Y-126887442D01*
X196112499Y-128612557D01*
X195725501Y-128612557D01*
X195725501Y-126300000D01*
X225314757Y-126300000D01*
X225329047Y-126390223D01*
X225333612Y-126419047D01*
X225333612Y-126419048D01*
X225374079Y-126498468D01*
X225388332Y-126526440D01*
X225473560Y-126611668D01*
X225580953Y-126666388D01*
X225700000Y-126685243D01*
X225819047Y-126666388D01*
X225926440Y-126611668D01*
X226011668Y-126526440D01*
X226066388Y-126419047D01*
X226085243Y-126300000D01*
X226066388Y-126180953D01*
X226011668Y-126073560D01*
X225926440Y-125988332D01*
X225819047Y-125933612D01*
X225700000Y-125914757D01*
X225699999Y-125914757D01*
X225580952Y-125933612D01*
X225580951Y-125933612D01*
X225473559Y-125988332D01*
X225388332Y-126073559D01*
X225333612Y-126180951D01*
X225333612Y-126180952D01*
X225333611Y-126180953D01*
X225333612Y-126180953D01*
X225314757Y-126300000D01*
X195725501Y-126300000D01*
X195725501Y-125699999D01*
X228314757Y-125699999D01*
X228333612Y-125819047D01*
X228333612Y-125819048D01*
X228354770Y-125860572D01*
X228388332Y-125926440D01*
X228473560Y-126011668D01*
X228580953Y-126066388D01*
X228700000Y-126085243D01*
X228819047Y-126066388D01*
X228926440Y-126011668D01*
X229011668Y-125926440D01*
X229066388Y-125819047D01*
X229085243Y-125700000D01*
X229066388Y-125580953D01*
X229011668Y-125473560D01*
X228926440Y-125388332D01*
X228819047Y-125333612D01*
X228700000Y-125314757D01*
X228580952Y-125333612D01*
X228580951Y-125333612D01*
X228473559Y-125388332D01*
X228388332Y-125473559D01*
X228333612Y-125580951D01*
X228333612Y-125580952D01*
X228314757Y-125699999D01*
X195725501Y-125699999D01*
X195725501Y-125050000D01*
X223864757Y-125050000D01*
X223883612Y-125169047D01*
X223883612Y-125169048D01*
X223927016Y-125254231D01*
X223938332Y-125276440D01*
X224023560Y-125361668D01*
X224130953Y-125416388D01*
X224250000Y-125435243D01*
X224369047Y-125416388D01*
X224476440Y-125361668D01*
X224561668Y-125276440D01*
X224616388Y-125169047D01*
X224635243Y-125050000D01*
X224616388Y-124930953D01*
X224561668Y-124823560D01*
X224476440Y-124738332D01*
X224369047Y-124683612D01*
X224250000Y-124664757D01*
X224130952Y-124683612D01*
X224130951Y-124683612D01*
X224023559Y-124738332D01*
X223938332Y-124823559D01*
X223883612Y-124930951D01*
X223883612Y-124930952D01*
X223864757Y-125050000D01*
X195725501Y-125050000D01*
X195725501Y-124200000D01*
X228714757Y-124200000D01*
X228733612Y-124319047D01*
X228733612Y-124319048D01*
X228774860Y-124400000D01*
X228788332Y-124426440D01*
X228873560Y-124511668D01*
X228980953Y-124566388D01*
X229100000Y-124585243D01*
X229219047Y-124566388D01*
X229326440Y-124511668D01*
X229411668Y-124426440D01*
X229466388Y-124319047D01*
X229485243Y-124200000D01*
X229466388Y-124080953D01*
X229411668Y-123973560D01*
X229326440Y-123888332D01*
X229219047Y-123833612D01*
X229100000Y-123814757D01*
X228980952Y-123833612D01*
X228980951Y-123833612D01*
X228873559Y-123888332D01*
X228788332Y-123973559D01*
X228733612Y-124080951D01*
X228733612Y-124080952D01*
X228714757Y-124200000D01*
X195725501Y-124200000D01*
X195725501Y-123962557D01*
X196112499Y-123962557D01*
X196119898Y-123999748D01*
X196119898Y-123999749D01*
X196148077Y-124041922D01*
X196176257Y-124060750D01*
X196190252Y-124070102D01*
X196227442Y-124077500D01*
X196227443Y-124077500D01*
X197952557Y-124077500D01*
X197952558Y-124077500D01*
X197989748Y-124070102D01*
X198031922Y-124041922D01*
X198060102Y-123999748D01*
X198067500Y-123962558D01*
X198067500Y-123100000D01*
X198647770Y-123100000D01*
X198666642Y-123291622D01*
X198674961Y-123319045D01*
X198722538Y-123475883D01*
X198756112Y-123538695D01*
X198813302Y-123645692D01*
X198813306Y-123645698D01*
X198935459Y-123794541D01*
X199084302Y-123916694D01*
X199084304Y-123916695D01*
X199084307Y-123916697D01*
X199128491Y-123940313D01*
X199254117Y-124007462D01*
X199438376Y-124063357D01*
X199534187Y-124072793D01*
X199629999Y-124082230D01*
X199629999Y-124082229D01*
X199630000Y-124082230D01*
X199821624Y-124063357D01*
X200005883Y-124007462D01*
X200175698Y-123916694D01*
X200324541Y-123794541D01*
X200446694Y-123645698D01*
X200537462Y-123475883D01*
X200593357Y-123291624D01*
X200612230Y-123100000D01*
X201187770Y-123100000D01*
X201206642Y-123291622D01*
X201214961Y-123319045D01*
X201262538Y-123475883D01*
X201296112Y-123538695D01*
X201353302Y-123645692D01*
X201353306Y-123645698D01*
X201475459Y-123794541D01*
X201624302Y-123916694D01*
X201624304Y-123916695D01*
X201624307Y-123916697D01*
X201668491Y-123940313D01*
X201794117Y-124007462D01*
X201978376Y-124063357D01*
X202074188Y-124072793D01*
X202169999Y-124082230D01*
X202169999Y-124082229D01*
X202170000Y-124082230D01*
X202361624Y-124063357D01*
X202545883Y-124007462D01*
X202715698Y-123916694D01*
X202864541Y-123794541D01*
X202986694Y-123645698D01*
X203077462Y-123475883D01*
X203133357Y-123291624D01*
X203152230Y-123100000D01*
X203727770Y-123100000D01*
X203746642Y-123291622D01*
X203754961Y-123319045D01*
X203802538Y-123475883D01*
X203836112Y-123538695D01*
X203893302Y-123645692D01*
X203893306Y-123645698D01*
X204015459Y-123794541D01*
X204164302Y-123916694D01*
X204164304Y-123916695D01*
X204164307Y-123916697D01*
X204208491Y-123940313D01*
X204334117Y-124007462D01*
X204518376Y-124063357D01*
X204710000Y-124082230D01*
X204901624Y-124063357D01*
X205085883Y-124007462D01*
X205255698Y-123916694D01*
X205404541Y-123794541D01*
X205526694Y-123645698D01*
X205617462Y-123475883D01*
X205673357Y-123291624D01*
X205692230Y-123100000D01*
X208807770Y-123100000D01*
X208826642Y-123291622D01*
X208834961Y-123319045D01*
X208882538Y-123475883D01*
X208916112Y-123538695D01*
X208973302Y-123645692D01*
X208973306Y-123645698D01*
X209095459Y-123794541D01*
X209244302Y-123916694D01*
X209244304Y-123916695D01*
X209244307Y-123916697D01*
X209288491Y-123940313D01*
X209414117Y-124007462D01*
X209598376Y-124063357D01*
X209694188Y-124072793D01*
X209789999Y-124082230D01*
X209789999Y-124082229D01*
X209790000Y-124082230D01*
X209981624Y-124063357D01*
X210165883Y-124007462D01*
X210335698Y-123916694D01*
X210484541Y-123794541D01*
X210606694Y-123645698D01*
X210697462Y-123475883D01*
X210753357Y-123291624D01*
X210772230Y-123100000D01*
X210763465Y-123011011D01*
X210753357Y-122908377D01*
X210753357Y-122908376D01*
X210697462Y-122724117D01*
X210606694Y-122554302D01*
X210484541Y-122405459D01*
X210335698Y-122283306D01*
X210335692Y-122283302D01*
X210215478Y-122219047D01*
X210179843Y-122200000D01*
X227514757Y-122200000D01*
X227533612Y-122319047D01*
X227533612Y-122319048D01*
X227580805Y-122411667D01*
X227588332Y-122426440D01*
X227673560Y-122511668D01*
X227780953Y-122566388D01*
X227900000Y-122585243D01*
X228019047Y-122566388D01*
X228126440Y-122511668D01*
X228211668Y-122426440D01*
X228266388Y-122319047D01*
X228285243Y-122200000D01*
X228266388Y-122080953D01*
X228211668Y-121973560D01*
X228126440Y-121888332D01*
X228019047Y-121833612D01*
X227900000Y-121814757D01*
X227899999Y-121814757D01*
X227780952Y-121833612D01*
X227780951Y-121833612D01*
X227673559Y-121888332D01*
X227588332Y-121973559D01*
X227533612Y-122080951D01*
X227533612Y-122080952D01*
X227514757Y-122200000D01*
X210179843Y-122200000D01*
X210165883Y-122192538D01*
X210048111Y-122156811D01*
X209981622Y-122136642D01*
X209790000Y-122117770D01*
X209598377Y-122136642D01*
X209480604Y-122172369D01*
X209414117Y-122192538D01*
X209414115Y-122192538D01*
X209414115Y-122192539D01*
X209244307Y-122283302D01*
X209244301Y-122283306D01*
X209095459Y-122405459D01*
X208973306Y-122554301D01*
X208973302Y-122554307D01*
X208882539Y-122724115D01*
X208826642Y-122908377D01*
X208807770Y-123099999D01*
X208807770Y-123100000D01*
X205692230Y-123100000D01*
X205683465Y-123011011D01*
X205673357Y-122908377D01*
X205673357Y-122908376D01*
X205617462Y-122724117D01*
X205526694Y-122554302D01*
X205404541Y-122405459D01*
X205255698Y-122283306D01*
X205255692Y-122283302D01*
X205135478Y-122219047D01*
X205085883Y-122192538D01*
X204968111Y-122156811D01*
X204901622Y-122136642D01*
X204710000Y-122117770D01*
X204518377Y-122136642D01*
X204400604Y-122172369D01*
X204334117Y-122192538D01*
X204334115Y-122192538D01*
X204334115Y-122192539D01*
X204164307Y-122283302D01*
X204164301Y-122283306D01*
X204015459Y-122405459D01*
X203893306Y-122554301D01*
X203893302Y-122554307D01*
X203802539Y-122724115D01*
X203746642Y-122908377D01*
X203727770Y-123099999D01*
X203727770Y-123100000D01*
X203152230Y-123100000D01*
X203143465Y-123011011D01*
X203133357Y-122908377D01*
X203133357Y-122908376D01*
X203077462Y-122724117D01*
X202986694Y-122554302D01*
X202864541Y-122405459D01*
X202715698Y-122283306D01*
X202715692Y-122283302D01*
X202595478Y-122219047D01*
X202545883Y-122192538D01*
X202428111Y-122156811D01*
X202361622Y-122136642D01*
X202170000Y-122117770D01*
X201978377Y-122136642D01*
X201860604Y-122172369D01*
X201794117Y-122192538D01*
X201794115Y-122192538D01*
X201794115Y-122192539D01*
X201624307Y-122283302D01*
X201624301Y-122283306D01*
X201475459Y-122405459D01*
X201353306Y-122554301D01*
X201353302Y-122554307D01*
X201262539Y-122724115D01*
X201206642Y-122908377D01*
X201187770Y-123099999D01*
X201187770Y-123100000D01*
X200612230Y-123100000D01*
X200603465Y-123011011D01*
X200593357Y-122908377D01*
X200593357Y-122908376D01*
X200537462Y-122724117D01*
X200446694Y-122554302D01*
X200324541Y-122405459D01*
X200175698Y-122283306D01*
X200175692Y-122283302D01*
X200055478Y-122219047D01*
X200005883Y-122192538D01*
X199888111Y-122156811D01*
X199821622Y-122136642D01*
X199630000Y-122117770D01*
X199438377Y-122136642D01*
X199320604Y-122172369D01*
X199254117Y-122192538D01*
X199254115Y-122192538D01*
X199254115Y-122192539D01*
X199084307Y-122283302D01*
X199084301Y-122283306D01*
X198935459Y-122405459D01*
X198813306Y-122554301D01*
X198813302Y-122554307D01*
X198722539Y-122724115D01*
X198666642Y-122908377D01*
X198647770Y-123099999D01*
X198647770Y-123100000D01*
X198067500Y-123100000D01*
X198067500Y-122237442D01*
X198060102Y-122200252D01*
X198059933Y-122199999D01*
X198031922Y-122158077D01*
X197989748Y-122129898D01*
X197989747Y-122129898D01*
X197952558Y-122122500D01*
X196227442Y-122122500D01*
X196208847Y-122126199D01*
X196190251Y-122129898D01*
X196190250Y-122129898D01*
X196148077Y-122158077D01*
X196119898Y-122200250D01*
X196119898Y-122200251D01*
X196112499Y-122237442D01*
X196112499Y-123962557D01*
X195725501Y-123962557D01*
X195725501Y-121600000D01*
X228514757Y-121600000D01*
X228533612Y-121719047D01*
X228533612Y-121719048D01*
X228541033Y-121733612D01*
X228588332Y-121826440D01*
X228673560Y-121911668D01*
X228780953Y-121966388D01*
X228900000Y-121985243D01*
X229019047Y-121966388D01*
X229126440Y-121911668D01*
X229211668Y-121826440D01*
X229266388Y-121719047D01*
X229285243Y-121600000D01*
X229266388Y-121480953D01*
X229211668Y-121373560D01*
X229126440Y-121288332D01*
X229019047Y-121233612D01*
X228900000Y-121214757D01*
X228899999Y-121214757D01*
X228780952Y-121233612D01*
X228780951Y-121233612D01*
X228673559Y-121288332D01*
X228588332Y-121373559D01*
X228533612Y-121480951D01*
X228533612Y-121480952D01*
X228514757Y-121600000D01*
X195725501Y-121600000D01*
X195725501Y-121000000D01*
X224714757Y-121000000D01*
X224729047Y-121090223D01*
X224733612Y-121119047D01*
X224733612Y-121119048D01*
X224780805Y-121211667D01*
X224788332Y-121226440D01*
X224873560Y-121311668D01*
X224980953Y-121366388D01*
X225100000Y-121385243D01*
X225219047Y-121366388D01*
X225326440Y-121311668D01*
X225411668Y-121226440D01*
X225450615Y-121150003D01*
X229993105Y-121150003D01*
X230010572Y-121260282D01*
X230010574Y-121260287D01*
X230036754Y-121311668D01*
X230061267Y-121359777D01*
X230140223Y-121438733D01*
X230239714Y-121489426D01*
X230239717Y-121489427D01*
X230349997Y-121506894D01*
X230350000Y-121506894D01*
X230350003Y-121506894D01*
X230460282Y-121489427D01*
X230460283Y-121489426D01*
X230460286Y-121489426D01*
X230559777Y-121438733D01*
X230638733Y-121359777D01*
X230689426Y-121260286D01*
X230694787Y-121226440D01*
X230706894Y-121150003D01*
X231893105Y-121150003D01*
X231910572Y-121260282D01*
X231910574Y-121260287D01*
X231936754Y-121311668D01*
X231961267Y-121359777D01*
X232040223Y-121438733D01*
X232139714Y-121489426D01*
X232139717Y-121489427D01*
X232249997Y-121506894D01*
X232250000Y-121506894D01*
X232250003Y-121506894D01*
X232360282Y-121489427D01*
X232360283Y-121489426D01*
X232360286Y-121489426D01*
X232459777Y-121438733D01*
X232538733Y-121359777D01*
X232589426Y-121260286D01*
X232594787Y-121226440D01*
X232606894Y-121150003D01*
X233443105Y-121150003D01*
X233460572Y-121260282D01*
X233460574Y-121260287D01*
X233486754Y-121311668D01*
X233511267Y-121359777D01*
X233590223Y-121438733D01*
X233689714Y-121489426D01*
X233689717Y-121489427D01*
X233799997Y-121506894D01*
X233800000Y-121506894D01*
X233800003Y-121506894D01*
X233910282Y-121489427D01*
X233910283Y-121489426D01*
X233910286Y-121489426D01*
X234009777Y-121438733D01*
X234088733Y-121359777D01*
X234139426Y-121260286D01*
X234144787Y-121226440D01*
X234156894Y-121150003D01*
X234156894Y-121149996D01*
X234139427Y-121039717D01*
X234139425Y-121039712D01*
X234088733Y-120940223D01*
X234009776Y-120861266D01*
X233910287Y-120810574D01*
X233910282Y-120810572D01*
X233800003Y-120793106D01*
X233799997Y-120793106D01*
X233689717Y-120810572D01*
X233689712Y-120810574D01*
X233590223Y-120861266D01*
X233511266Y-120940223D01*
X233460574Y-121039712D01*
X233460572Y-121039717D01*
X233443105Y-121149996D01*
X233443105Y-121150003D01*
X232606894Y-121150003D01*
X232606894Y-121149996D01*
X232589427Y-121039717D01*
X232589425Y-121039712D01*
X232538733Y-120940223D01*
X232459776Y-120861266D01*
X232360287Y-120810574D01*
X232360282Y-120810572D01*
X232250003Y-120793106D01*
X232249997Y-120793106D01*
X232139717Y-120810572D01*
X232139712Y-120810574D01*
X232040223Y-120861266D01*
X231961266Y-120940223D01*
X231910574Y-121039712D01*
X231910572Y-121039717D01*
X231893105Y-121149996D01*
X231893105Y-121150003D01*
X230706894Y-121150003D01*
X230706894Y-121149996D01*
X230689427Y-121039717D01*
X230689425Y-121039712D01*
X230638733Y-120940223D01*
X230559776Y-120861266D01*
X230460287Y-120810574D01*
X230460282Y-120810572D01*
X230350003Y-120793106D01*
X230349997Y-120793106D01*
X230239717Y-120810572D01*
X230239712Y-120810574D01*
X230140223Y-120861266D01*
X230061266Y-120940223D01*
X230010574Y-121039712D01*
X230010572Y-121039717D01*
X229993105Y-121149996D01*
X229993105Y-121150003D01*
X225450615Y-121150003D01*
X225466388Y-121119047D01*
X225485243Y-121000000D01*
X225466388Y-120880953D01*
X225411668Y-120773560D01*
X225326440Y-120688332D01*
X225219047Y-120633612D01*
X225100000Y-120614757D01*
X224980952Y-120633612D01*
X224980951Y-120633612D01*
X224873559Y-120688332D01*
X224788332Y-120773559D01*
X224733612Y-120880951D01*
X224733612Y-120880952D01*
X224724225Y-120940223D01*
X224714757Y-121000000D01*
X195725501Y-121000000D01*
X195725501Y-119312557D01*
X196112499Y-119312557D01*
X196119898Y-119349748D01*
X196119898Y-119349749D01*
X196148077Y-119391922D01*
X196176257Y-119410750D01*
X196190252Y-119420102D01*
X196227442Y-119427500D01*
X196227443Y-119427500D01*
X197952557Y-119427500D01*
X197952558Y-119427500D01*
X197989748Y-119420102D01*
X198031922Y-119391922D01*
X198060102Y-119349748D01*
X198067500Y-119312558D01*
X198067500Y-118450000D01*
X198647770Y-118450000D01*
X198666642Y-118641622D01*
X198686811Y-118708111D01*
X198722538Y-118825883D01*
X198756112Y-118888695D01*
X198813302Y-118995692D01*
X198813306Y-118995698D01*
X198935459Y-119144541D01*
X199084302Y-119266694D01*
X199084304Y-119266695D01*
X199084307Y-119266697D01*
X199124784Y-119288332D01*
X199254117Y-119357462D01*
X199438376Y-119413357D01*
X199534187Y-119422793D01*
X199629999Y-119432230D01*
X199629999Y-119432229D01*
X199630000Y-119432230D01*
X199821624Y-119413357D01*
X200005883Y-119357462D01*
X200175698Y-119266694D01*
X200324541Y-119144541D01*
X200446694Y-118995698D01*
X200537462Y-118825883D01*
X200593357Y-118641624D01*
X200612230Y-118450000D01*
X201187770Y-118450000D01*
X201206642Y-118641622D01*
X201226811Y-118708111D01*
X201262538Y-118825883D01*
X201296112Y-118888695D01*
X201353302Y-118995692D01*
X201353306Y-118995698D01*
X201475459Y-119144541D01*
X201624302Y-119266694D01*
X201624304Y-119266695D01*
X201624307Y-119266697D01*
X201664784Y-119288332D01*
X201794117Y-119357462D01*
X201978376Y-119413357D01*
X202074188Y-119422793D01*
X202169999Y-119432230D01*
X202169999Y-119432229D01*
X202170000Y-119432230D01*
X202361624Y-119413357D01*
X202545883Y-119357462D01*
X202715698Y-119266694D01*
X202864541Y-119144541D01*
X202986694Y-118995698D01*
X203077462Y-118825883D01*
X203133357Y-118641624D01*
X203152230Y-118450000D01*
X203727770Y-118450000D01*
X203746642Y-118641622D01*
X203766811Y-118708111D01*
X203802538Y-118825883D01*
X203836112Y-118888695D01*
X203893302Y-118995692D01*
X203893306Y-118995698D01*
X204015459Y-119144541D01*
X204164302Y-119266694D01*
X204164304Y-119266695D01*
X204164307Y-119266697D01*
X204204784Y-119288332D01*
X204334117Y-119357462D01*
X204518376Y-119413357D01*
X204710000Y-119432230D01*
X204901624Y-119413357D01*
X205085883Y-119357462D01*
X205255698Y-119266694D01*
X205404541Y-119144541D01*
X205526694Y-118995698D01*
X205617462Y-118825883D01*
X205673357Y-118641624D01*
X205692230Y-118450000D01*
X208807770Y-118450000D01*
X208826642Y-118641622D01*
X208846811Y-118708111D01*
X208882538Y-118825883D01*
X208916112Y-118888695D01*
X208973302Y-118995692D01*
X208973306Y-118995698D01*
X209095459Y-119144541D01*
X209244302Y-119266694D01*
X209244304Y-119266695D01*
X209244307Y-119266697D01*
X209284784Y-119288332D01*
X209414117Y-119357462D01*
X209598376Y-119413357D01*
X209694187Y-119422793D01*
X209789999Y-119432230D01*
X209789999Y-119432229D01*
X209790000Y-119432230D01*
X209981624Y-119413357D01*
X210165883Y-119357462D01*
X210335698Y-119266694D01*
X210484541Y-119144541D01*
X210606694Y-118995698D01*
X210697462Y-118825883D01*
X210753357Y-118641624D01*
X210757457Y-118600000D01*
X219314757Y-118600000D01*
X219333612Y-118719047D01*
X219333612Y-118719048D01*
X219362855Y-118776440D01*
X219388332Y-118826440D01*
X219473560Y-118911668D01*
X219580953Y-118966388D01*
X219700000Y-118985243D01*
X219819047Y-118966388D01*
X219926440Y-118911668D01*
X220011668Y-118826440D01*
X220066388Y-118719047D01*
X220085243Y-118600000D01*
X220077324Y-118550000D01*
X221514757Y-118550000D01*
X221529268Y-118641622D01*
X221533612Y-118669047D01*
X221533612Y-118669048D01*
X221559089Y-118719048D01*
X221588332Y-118776440D01*
X221673560Y-118861668D01*
X221780953Y-118916388D01*
X221900000Y-118935243D01*
X222019047Y-118916388D01*
X222126440Y-118861668D01*
X222211668Y-118776440D01*
X222266388Y-118669047D01*
X222285243Y-118550000D01*
X222266388Y-118430953D01*
X222211668Y-118323560D01*
X222126440Y-118238332D01*
X222019047Y-118183612D01*
X221900000Y-118164757D01*
X221899999Y-118164757D01*
X221780952Y-118183612D01*
X221780951Y-118183612D01*
X221673559Y-118238332D01*
X221588332Y-118323559D01*
X221533612Y-118430951D01*
X221533612Y-118430952D01*
X221533611Y-118430953D01*
X221533612Y-118430953D01*
X221514757Y-118550000D01*
X220077324Y-118550000D01*
X220066388Y-118480953D01*
X220011668Y-118373560D01*
X219926440Y-118288332D01*
X219819047Y-118233612D01*
X219700000Y-118214757D01*
X219699999Y-118214757D01*
X219580952Y-118233612D01*
X219580951Y-118233612D01*
X219473559Y-118288332D01*
X219388332Y-118373559D01*
X219333612Y-118480951D01*
X219333612Y-118480952D01*
X219314757Y-118600000D01*
X210757457Y-118600000D01*
X210772230Y-118450000D01*
X210753357Y-118258376D01*
X210697462Y-118074117D01*
X210606694Y-117904302D01*
X210484541Y-117755459D01*
X210335698Y-117633306D01*
X210335692Y-117633302D01*
X210228695Y-117576112D01*
X210165883Y-117542538D01*
X210029796Y-117501256D01*
X209981622Y-117486642D01*
X209790000Y-117467770D01*
X209598377Y-117486642D01*
X209500324Y-117516387D01*
X209414117Y-117542538D01*
X209414115Y-117542538D01*
X209414115Y-117542539D01*
X209244307Y-117633302D01*
X209244301Y-117633306D01*
X209095459Y-117755459D01*
X208973306Y-117904301D01*
X208973302Y-117904307D01*
X208882539Y-118074115D01*
X208826642Y-118258377D01*
X208807770Y-118449999D01*
X208807770Y-118450000D01*
X205692230Y-118450000D01*
X205673357Y-118258376D01*
X205617462Y-118074117D01*
X205526694Y-117904302D01*
X205404541Y-117755459D01*
X205255698Y-117633306D01*
X205255692Y-117633302D01*
X205148695Y-117576112D01*
X205085883Y-117542538D01*
X204949796Y-117501256D01*
X204901622Y-117486642D01*
X204710000Y-117467770D01*
X204518377Y-117486642D01*
X204420324Y-117516387D01*
X204334117Y-117542538D01*
X204334115Y-117542538D01*
X204334115Y-117542539D01*
X204164307Y-117633302D01*
X204164301Y-117633306D01*
X204015459Y-117755459D01*
X203893306Y-117904301D01*
X203893302Y-117904307D01*
X203802539Y-118074115D01*
X203746642Y-118258377D01*
X203727770Y-118449999D01*
X203727770Y-118450000D01*
X203152230Y-118450000D01*
X203133357Y-118258376D01*
X203077462Y-118074117D01*
X202986694Y-117904302D01*
X202864541Y-117755459D01*
X202715698Y-117633306D01*
X202715692Y-117633302D01*
X202608695Y-117576112D01*
X202545883Y-117542538D01*
X202409796Y-117501256D01*
X202361622Y-117486642D01*
X202170000Y-117467770D01*
X201978377Y-117486642D01*
X201880324Y-117516387D01*
X201794117Y-117542538D01*
X201794115Y-117542538D01*
X201794115Y-117542539D01*
X201624307Y-117633302D01*
X201624301Y-117633306D01*
X201475459Y-117755459D01*
X201353306Y-117904301D01*
X201353302Y-117904307D01*
X201262539Y-118074115D01*
X201206642Y-118258377D01*
X201187770Y-118449999D01*
X201187770Y-118450000D01*
X200612230Y-118450000D01*
X200593357Y-118258376D01*
X200537462Y-118074117D01*
X200446694Y-117904302D01*
X200324541Y-117755459D01*
X200175698Y-117633306D01*
X200175692Y-117633302D01*
X200068695Y-117576112D01*
X200005883Y-117542538D01*
X199869796Y-117501256D01*
X199821622Y-117486642D01*
X199630000Y-117467770D01*
X199438377Y-117486642D01*
X199340324Y-117516387D01*
X199254117Y-117542538D01*
X199254115Y-117542538D01*
X199254115Y-117542539D01*
X199084307Y-117633302D01*
X199084301Y-117633306D01*
X198935459Y-117755459D01*
X198813306Y-117904301D01*
X198813302Y-117904307D01*
X198722539Y-118074115D01*
X198666642Y-118258377D01*
X198647770Y-118449999D01*
X198647770Y-118450000D01*
X198067500Y-118450000D01*
X198067500Y-117587442D01*
X198060102Y-117550252D01*
X198060101Y-117550250D01*
X198031922Y-117508077D01*
X197989748Y-117479898D01*
X197989747Y-117479898D01*
X197952558Y-117472500D01*
X196227442Y-117472500D01*
X196208847Y-117476199D01*
X196190251Y-117479898D01*
X196190250Y-117479898D01*
X196148077Y-117508077D01*
X196119898Y-117550250D01*
X196119898Y-117550251D01*
X196112499Y-117587442D01*
X196112499Y-119312557D01*
X195725501Y-119312557D01*
X195725501Y-116285000D01*
X217998104Y-116285000D01*
X218015598Y-116406677D01*
X218015599Y-116406680D01*
X218066665Y-116518500D01*
X218066669Y-116518506D01*
X218119137Y-116579056D01*
X218147168Y-116611405D01*
X218250584Y-116677866D01*
X218250586Y-116677866D01*
X218250587Y-116677867D01*
X218368534Y-116712500D01*
X218368535Y-116712500D01*
X218491465Y-116712500D01*
X218609416Y-116677866D01*
X218712832Y-116611405D01*
X218782546Y-116530951D01*
X218793330Y-116518506D01*
X218793331Y-116518504D01*
X218793334Y-116518501D01*
X218844401Y-116406679D01*
X218861896Y-116285000D01*
X219398104Y-116285000D01*
X219415598Y-116406677D01*
X219415599Y-116406680D01*
X219466665Y-116518500D01*
X219466669Y-116518506D01*
X219519137Y-116579056D01*
X219547168Y-116611405D01*
X219650584Y-116677866D01*
X219650586Y-116677866D01*
X219650587Y-116677867D01*
X219768534Y-116712500D01*
X219768535Y-116712500D01*
X219891465Y-116712500D01*
X220009416Y-116677866D01*
X220112832Y-116611405D01*
X220182546Y-116530951D01*
X220193330Y-116518506D01*
X220193331Y-116518504D01*
X220193334Y-116518501D01*
X220244401Y-116406679D01*
X220261896Y-116285000D01*
X220244401Y-116163321D01*
X220193334Y-116051499D01*
X220193330Y-116051493D01*
X220112833Y-115958596D01*
X220112832Y-115958595D01*
X220009416Y-115892134D01*
X220009414Y-115892133D01*
X220009412Y-115892132D01*
X219891466Y-115857500D01*
X219891465Y-115857500D01*
X219768535Y-115857500D01*
X219768534Y-115857500D01*
X219650587Y-115892132D01*
X219547166Y-115958596D01*
X219466669Y-116051493D01*
X219466665Y-116051499D01*
X219415599Y-116163319D01*
X219415598Y-116163322D01*
X219398104Y-116285000D01*
X218861896Y-116285000D01*
X218844401Y-116163321D01*
X218793334Y-116051499D01*
X218793330Y-116051493D01*
X218712833Y-115958596D01*
X218712832Y-115958595D01*
X218609416Y-115892134D01*
X218609414Y-115892133D01*
X218609412Y-115892132D01*
X218491466Y-115857500D01*
X218491465Y-115857500D01*
X218368535Y-115857500D01*
X218368534Y-115857500D01*
X218250587Y-115892132D01*
X218147166Y-115958596D01*
X218066669Y-116051493D01*
X218066665Y-116051499D01*
X218015599Y-116163319D01*
X218015598Y-116163322D01*
X217998104Y-116285000D01*
X195725501Y-116285000D01*
X195725501Y-114662557D01*
X196112499Y-114662557D01*
X196119898Y-114699748D01*
X196119898Y-114699749D01*
X196148077Y-114741922D01*
X196176257Y-114760750D01*
X196190252Y-114770102D01*
X196227442Y-114777500D01*
X196227443Y-114777500D01*
X197952557Y-114777500D01*
X197952558Y-114777500D01*
X197989748Y-114770102D01*
X198031922Y-114741922D01*
X198060102Y-114699748D01*
X198067500Y-114662558D01*
X198067500Y-113800000D01*
X198647770Y-113800000D01*
X198666642Y-113991622D01*
X198666643Y-113991624D01*
X198722538Y-114175883D01*
X198722539Y-114175884D01*
X198813302Y-114345692D01*
X198813306Y-114345698D01*
X198935459Y-114494541D01*
X199084302Y-114616694D01*
X199084304Y-114616695D01*
X199084307Y-114616697D01*
X199128491Y-114640313D01*
X199254117Y-114707462D01*
X199438376Y-114763357D01*
X199534188Y-114772793D01*
X199629999Y-114782230D01*
X199629999Y-114782229D01*
X199630000Y-114782230D01*
X199821624Y-114763357D01*
X200005883Y-114707462D01*
X200175698Y-114616694D01*
X200324541Y-114494541D01*
X200446694Y-114345698D01*
X200537462Y-114175883D01*
X200593357Y-113991624D01*
X200612230Y-113800000D01*
X201187770Y-113800000D01*
X201206642Y-113991622D01*
X201206643Y-113991624D01*
X201262538Y-114175883D01*
X201262539Y-114175884D01*
X201353302Y-114345692D01*
X201353306Y-114345698D01*
X201475459Y-114494541D01*
X201624302Y-114616694D01*
X201624304Y-114616695D01*
X201624307Y-114616697D01*
X201668491Y-114640313D01*
X201794117Y-114707462D01*
X201978376Y-114763357D01*
X202074188Y-114772793D01*
X202169999Y-114782230D01*
X202169999Y-114782229D01*
X202170000Y-114782230D01*
X202361624Y-114763357D01*
X202545883Y-114707462D01*
X202715698Y-114616694D01*
X202864541Y-114494541D01*
X202986694Y-114345698D01*
X203077462Y-114175883D01*
X203133357Y-113991624D01*
X203152230Y-113800000D01*
X203727770Y-113800000D01*
X203746642Y-113991622D01*
X203746643Y-113991624D01*
X203802538Y-114175883D01*
X203802539Y-114175884D01*
X203893302Y-114345692D01*
X203893306Y-114345698D01*
X204015459Y-114494541D01*
X204164302Y-114616694D01*
X204164304Y-114616695D01*
X204164307Y-114616697D01*
X204208491Y-114640313D01*
X204334117Y-114707462D01*
X204518376Y-114763357D01*
X204710000Y-114782230D01*
X204901624Y-114763357D01*
X205085883Y-114707462D01*
X205255698Y-114616694D01*
X205404541Y-114494541D01*
X205526694Y-114345698D01*
X205617462Y-114175883D01*
X205673357Y-113991624D01*
X205692230Y-113800000D01*
X208807770Y-113800000D01*
X208826642Y-113991622D01*
X208826643Y-113991624D01*
X208882538Y-114175883D01*
X208882539Y-114175884D01*
X208973302Y-114345692D01*
X208973306Y-114345698D01*
X209095459Y-114494541D01*
X209244302Y-114616694D01*
X209244304Y-114616695D01*
X209244307Y-114616697D01*
X209288491Y-114640313D01*
X209414117Y-114707462D01*
X209598376Y-114763357D01*
X209694188Y-114772793D01*
X209789999Y-114782230D01*
X209789999Y-114782229D01*
X209790000Y-114782230D01*
X209981624Y-114763357D01*
X210165883Y-114707462D01*
X210335698Y-114616694D01*
X210484541Y-114494541D01*
X210606694Y-114345698D01*
X210697462Y-114175883D01*
X210753357Y-113991624D01*
X210772230Y-113800000D01*
X210753357Y-113608376D01*
X210697462Y-113424117D01*
X210606694Y-113254302D01*
X210484541Y-113105459D01*
X210335698Y-112983306D01*
X210335692Y-112983302D01*
X210228695Y-112926112D01*
X210165883Y-112892538D01*
X210025656Y-112850000D01*
X209981622Y-112836642D01*
X209790000Y-112817770D01*
X209598377Y-112836642D01*
X209480604Y-112872369D01*
X209414117Y-112892538D01*
X209414115Y-112892538D01*
X209414115Y-112892539D01*
X209244307Y-112983302D01*
X209244301Y-112983306D01*
X209095459Y-113105459D01*
X208973306Y-113254301D01*
X208973302Y-113254307D01*
X208882539Y-113424115D01*
X208826642Y-113608377D01*
X208807770Y-113799999D01*
X208807770Y-113800000D01*
X205692230Y-113800000D01*
X205673357Y-113608376D01*
X205617462Y-113424117D01*
X205526694Y-113254302D01*
X205404541Y-113105459D01*
X205255698Y-112983306D01*
X205255692Y-112983302D01*
X205148695Y-112926112D01*
X205085883Y-112892538D01*
X204945656Y-112850000D01*
X204901622Y-112836642D01*
X204710000Y-112817770D01*
X204518377Y-112836642D01*
X204400604Y-112872369D01*
X204334117Y-112892538D01*
X204334115Y-112892538D01*
X204334115Y-112892539D01*
X204164307Y-112983302D01*
X204164301Y-112983306D01*
X204015459Y-113105459D01*
X203893306Y-113254301D01*
X203893302Y-113254307D01*
X203802539Y-113424115D01*
X203746642Y-113608377D01*
X203727770Y-113799999D01*
X203727770Y-113800000D01*
X203152230Y-113800000D01*
X203133357Y-113608376D01*
X203077462Y-113424117D01*
X202986694Y-113254302D01*
X202864541Y-113105459D01*
X202715698Y-112983306D01*
X202715692Y-112983302D01*
X202608695Y-112926112D01*
X202545883Y-112892538D01*
X202405656Y-112850000D01*
X202361622Y-112836642D01*
X202170000Y-112817770D01*
X201978377Y-112836642D01*
X201860604Y-112872369D01*
X201794117Y-112892538D01*
X201794115Y-112892538D01*
X201794115Y-112892539D01*
X201624307Y-112983302D01*
X201624301Y-112983306D01*
X201475459Y-113105459D01*
X201353306Y-113254301D01*
X201353302Y-113254307D01*
X201262539Y-113424115D01*
X201206642Y-113608377D01*
X201187770Y-113799999D01*
X201187770Y-113800000D01*
X200612230Y-113800000D01*
X200593357Y-113608376D01*
X200537462Y-113424117D01*
X200446694Y-113254302D01*
X200324541Y-113105459D01*
X200175698Y-112983306D01*
X200175692Y-112983302D01*
X200068695Y-112926112D01*
X200005883Y-112892538D01*
X199865656Y-112850000D01*
X199821622Y-112836642D01*
X199630000Y-112817770D01*
X199438377Y-112836642D01*
X199320604Y-112872369D01*
X199254117Y-112892538D01*
X199254115Y-112892538D01*
X199254115Y-112892539D01*
X199084307Y-112983302D01*
X199084301Y-112983306D01*
X198935459Y-113105459D01*
X198813306Y-113254301D01*
X198813302Y-113254307D01*
X198722539Y-113424115D01*
X198666642Y-113608377D01*
X198647770Y-113799999D01*
X198647770Y-113800000D01*
X198067500Y-113800000D01*
X198067500Y-112937442D01*
X198060102Y-112900252D01*
X198060101Y-112900250D01*
X198031922Y-112858077D01*
X197989748Y-112829898D01*
X197989747Y-112829898D01*
X197952558Y-112822500D01*
X196227442Y-112822500D01*
X196208847Y-112826199D01*
X196190251Y-112829898D01*
X196190250Y-112829898D01*
X196148077Y-112858077D01*
X196119898Y-112900250D01*
X196119898Y-112900251D01*
X196112499Y-112937442D01*
X196112499Y-114662557D01*
X195725501Y-114662557D01*
X195725501Y-109798185D01*
X196112500Y-109797426D01*
X196112500Y-110012557D01*
X196119898Y-110049748D01*
X196119898Y-110049749D01*
X196148077Y-110091922D01*
X196176257Y-110110750D01*
X196190252Y-110120102D01*
X196227442Y-110127500D01*
X196227443Y-110127500D01*
X197952557Y-110127500D01*
X197952558Y-110127500D01*
X197989748Y-110120102D01*
X198031922Y-110091922D01*
X198060102Y-110049748D01*
X198067500Y-110012558D01*
X198067500Y-109793591D01*
X198892319Y-109791975D01*
X198935459Y-109844541D01*
X199084302Y-109966694D01*
X199084304Y-109966695D01*
X199084307Y-109966697D01*
X199128491Y-109990313D01*
X199254117Y-110057462D01*
X199438376Y-110113357D01*
X199534187Y-110122793D01*
X199629999Y-110132230D01*
X199629999Y-110132229D01*
X199630000Y-110132230D01*
X199821624Y-110113357D01*
X200005883Y-110057462D01*
X200175698Y-109966694D01*
X200324541Y-109844541D01*
X200370058Y-109789077D01*
X201428239Y-109787003D01*
X201475459Y-109844541D01*
X201624302Y-109966694D01*
X201624304Y-109966695D01*
X201624307Y-109966697D01*
X201668491Y-109990313D01*
X201794117Y-110057462D01*
X201978376Y-110113357D01*
X202074188Y-110122793D01*
X202169999Y-110132230D01*
X202169999Y-110132229D01*
X202170000Y-110132230D01*
X202361624Y-110113357D01*
X202545883Y-110057462D01*
X202715698Y-109966694D01*
X202864541Y-109844541D01*
X202914152Y-109784088D01*
X203964157Y-109782030D01*
X204015459Y-109844541D01*
X204164302Y-109966694D01*
X204164304Y-109966695D01*
X204164307Y-109966697D01*
X204208491Y-109990313D01*
X204334117Y-110057462D01*
X204518376Y-110113357D01*
X204710000Y-110132230D01*
X204901624Y-110113357D01*
X205085883Y-110057462D01*
X205255698Y-109966694D01*
X205404541Y-109844541D01*
X205458246Y-109779100D01*
X209035996Y-109772086D01*
X209049941Y-109789078D01*
X209095459Y-109844541D01*
X209244302Y-109966694D01*
X209244304Y-109966695D01*
X209244307Y-109966697D01*
X209288491Y-109990313D01*
X209414117Y-110057462D01*
X209598376Y-110113357D01*
X209694188Y-110122793D01*
X209789999Y-110132230D01*
X209789999Y-110132229D01*
X209790000Y-110132230D01*
X209981624Y-110113357D01*
X210165883Y-110057462D01*
X210335698Y-109966694D01*
X210484541Y-109844541D01*
X210546434Y-109769123D01*
X212902245Y-109764505D01*
X212946473Y-109782722D01*
X212964867Y-109826880D01*
X212959603Y-109852109D01*
X212945222Y-109884895D01*
X212945220Y-109884899D01*
X212945219Y-109884903D01*
X212887144Y-110114236D01*
X212867608Y-110350000D01*
X212887144Y-110585764D01*
X212945219Y-110815097D01*
X212945220Y-110815099D01*
X213040250Y-111031745D01*
X213040252Y-111031748D01*
X213169640Y-111229791D01*
X213169643Y-111229796D01*
X213329868Y-111403846D01*
X213329871Y-111403849D01*
X213516554Y-111549150D01*
X213516556Y-111549151D01*
X213724615Y-111661746D01*
X213948369Y-111738561D01*
X214181714Y-111777500D01*
X214181720Y-111777500D01*
X214418280Y-111777500D01*
X214418286Y-111777500D01*
X214651631Y-111738561D01*
X214875385Y-111661746D01*
X215083444Y-111549151D01*
X215270133Y-111403845D01*
X215430359Y-111229793D01*
X215559751Y-111031743D01*
X215654781Y-110815097D01*
X215712856Y-110585764D01*
X215732392Y-110350000D01*
X215712856Y-110114236D01*
X215654781Y-109884903D01*
X215637993Y-109846632D01*
X215637006Y-109798808D01*
X215670124Y-109764291D01*
X215695097Y-109759029D01*
X245800000Y-109700000D01*
X245793803Y-111300031D01*
G37*
%TD.AperFunction*%
%TD*%
%TA.AperFunction,Conductor*%
%TO.N,+3V3*%
G36*
X212881694Y-102843806D02*
G01*
X212900000Y-102888000D01*
X212900000Y-109764508D01*
X212900000Y-110063468D01*
X212887144Y-110114236D01*
X212867608Y-110350000D01*
X212887144Y-110585764D01*
X212900000Y-110636531D01*
X212900000Y-110800000D01*
X195725501Y-111264174D01*
X195725501Y-110012557D01*
X196112499Y-110012557D01*
X196119898Y-110049748D01*
X196119898Y-110049749D01*
X196148077Y-110091922D01*
X196176257Y-110110750D01*
X196190252Y-110120102D01*
X196227442Y-110127500D01*
X196227443Y-110127500D01*
X197952557Y-110127500D01*
X197952558Y-110127500D01*
X197989748Y-110120102D01*
X198031922Y-110091922D01*
X198060102Y-110049748D01*
X198067500Y-110012558D01*
X198067500Y-109150000D01*
X198647770Y-109150000D01*
X198666642Y-109341622D01*
X198666643Y-109341624D01*
X198722538Y-109525883D01*
X198722539Y-109525884D01*
X198813302Y-109695692D01*
X198813306Y-109695698D01*
X198935459Y-109844541D01*
X199084302Y-109966694D01*
X199084304Y-109966695D01*
X199084307Y-109966697D01*
X199128491Y-109990313D01*
X199254117Y-110057462D01*
X199438376Y-110113357D01*
X199534187Y-110122793D01*
X199629999Y-110132230D01*
X199629999Y-110132229D01*
X199630000Y-110132230D01*
X199821624Y-110113357D01*
X200005883Y-110057462D01*
X200175698Y-109966694D01*
X200324541Y-109844541D01*
X200446694Y-109695698D01*
X200537462Y-109525883D01*
X200593357Y-109341624D01*
X200612230Y-109150000D01*
X201187770Y-109150000D01*
X201206642Y-109341622D01*
X201206643Y-109341624D01*
X201262538Y-109525883D01*
X201262539Y-109525884D01*
X201353302Y-109695692D01*
X201353306Y-109695698D01*
X201475459Y-109844541D01*
X201624302Y-109966694D01*
X201624304Y-109966695D01*
X201624307Y-109966697D01*
X201668491Y-109990313D01*
X201794117Y-110057462D01*
X201978376Y-110113357D01*
X202074188Y-110122793D01*
X202169999Y-110132230D01*
X202169999Y-110132229D01*
X202170000Y-110132230D01*
X202361624Y-110113357D01*
X202545883Y-110057462D01*
X202715698Y-109966694D01*
X202864541Y-109844541D01*
X202986694Y-109695698D01*
X203077462Y-109525883D01*
X203133357Y-109341624D01*
X203152230Y-109150000D01*
X203727770Y-109150000D01*
X203746642Y-109341622D01*
X203746643Y-109341624D01*
X203802538Y-109525883D01*
X203802539Y-109525884D01*
X203893302Y-109695692D01*
X203893306Y-109695698D01*
X204015459Y-109844541D01*
X204164302Y-109966694D01*
X204164304Y-109966695D01*
X204164307Y-109966697D01*
X204208491Y-109990313D01*
X204334117Y-110057462D01*
X204518376Y-110113357D01*
X204710000Y-110132230D01*
X204901624Y-110113357D01*
X205085883Y-110057462D01*
X205255698Y-109966694D01*
X205404541Y-109844541D01*
X205526694Y-109695698D01*
X205617462Y-109525883D01*
X205673357Y-109341624D01*
X205692230Y-109150000D01*
X208807770Y-109150000D01*
X208826642Y-109341622D01*
X208826643Y-109341624D01*
X208882538Y-109525883D01*
X208882539Y-109525884D01*
X208973302Y-109695692D01*
X208973306Y-109695698D01*
X209095459Y-109844541D01*
X209244302Y-109966694D01*
X209244304Y-109966695D01*
X209244307Y-109966697D01*
X209288491Y-109990313D01*
X209414117Y-110057462D01*
X209598376Y-110113357D01*
X209694188Y-110122793D01*
X209789999Y-110132230D01*
X209789999Y-110132229D01*
X209790000Y-110132230D01*
X209981624Y-110113357D01*
X210165883Y-110057462D01*
X210335698Y-109966694D01*
X210484541Y-109844541D01*
X210606694Y-109695698D01*
X210697462Y-109525883D01*
X210753357Y-109341624D01*
X210772230Y-109150000D01*
X210753357Y-108958376D01*
X210697462Y-108774117D01*
X210606694Y-108604302D01*
X210484541Y-108455459D01*
X210335698Y-108333306D01*
X210335692Y-108333302D01*
X210228695Y-108276112D01*
X210165883Y-108242538D01*
X210048111Y-108206811D01*
X209981622Y-108186642D01*
X209790000Y-108167770D01*
X209598377Y-108186642D01*
X209480604Y-108222369D01*
X209414117Y-108242538D01*
X209414115Y-108242538D01*
X209414115Y-108242539D01*
X209244307Y-108333302D01*
X209244301Y-108333306D01*
X209095459Y-108455459D01*
X208973306Y-108604301D01*
X208973302Y-108604307D01*
X208882539Y-108774115D01*
X208826642Y-108958377D01*
X208807770Y-109149999D01*
X208807770Y-109150000D01*
X205692230Y-109150000D01*
X205673357Y-108958376D01*
X205617462Y-108774117D01*
X205526694Y-108604302D01*
X205404541Y-108455459D01*
X205255698Y-108333306D01*
X205255692Y-108333302D01*
X205148695Y-108276112D01*
X205085883Y-108242538D01*
X204968111Y-108206811D01*
X204901622Y-108186642D01*
X204710000Y-108167770D01*
X204518377Y-108186642D01*
X204400604Y-108222369D01*
X204334117Y-108242538D01*
X204334115Y-108242538D01*
X204334115Y-108242539D01*
X204164307Y-108333302D01*
X204164301Y-108333306D01*
X204015459Y-108455459D01*
X203893306Y-108604301D01*
X203893302Y-108604307D01*
X203802539Y-108774115D01*
X203746642Y-108958377D01*
X203727770Y-109149999D01*
X203727770Y-109150000D01*
X203152230Y-109150000D01*
X203133357Y-108958376D01*
X203077462Y-108774117D01*
X202986694Y-108604302D01*
X202864541Y-108455459D01*
X202715698Y-108333306D01*
X202715692Y-108333302D01*
X202608695Y-108276112D01*
X202545883Y-108242538D01*
X202428111Y-108206811D01*
X202361622Y-108186642D01*
X202170000Y-108167770D01*
X201978377Y-108186642D01*
X201860604Y-108222369D01*
X201794117Y-108242538D01*
X201794115Y-108242538D01*
X201794115Y-108242539D01*
X201624307Y-108333302D01*
X201624301Y-108333306D01*
X201475459Y-108455459D01*
X201353306Y-108604301D01*
X201353302Y-108604307D01*
X201262539Y-108774115D01*
X201206642Y-108958377D01*
X201187770Y-109149999D01*
X201187770Y-109150000D01*
X200612230Y-109150000D01*
X200593357Y-108958376D01*
X200537462Y-108774117D01*
X200446694Y-108604302D01*
X200324541Y-108455459D01*
X200175698Y-108333306D01*
X200175692Y-108333302D01*
X200068695Y-108276112D01*
X200005883Y-108242538D01*
X199888111Y-108206811D01*
X199821622Y-108186642D01*
X199630000Y-108167770D01*
X199438377Y-108186642D01*
X199320604Y-108222369D01*
X199254117Y-108242538D01*
X199254115Y-108242538D01*
X199254115Y-108242539D01*
X199084307Y-108333302D01*
X199084301Y-108333306D01*
X198935459Y-108455459D01*
X198813306Y-108604301D01*
X198813302Y-108604307D01*
X198722539Y-108774115D01*
X198666642Y-108958377D01*
X198647770Y-109149999D01*
X198647770Y-109150000D01*
X198067500Y-109150000D01*
X198067500Y-108287442D01*
X198060102Y-108250252D01*
X198060101Y-108250250D01*
X198031922Y-108208077D01*
X197989748Y-108179898D01*
X197989747Y-108179898D01*
X197952558Y-108172500D01*
X196227442Y-108172500D01*
X196208847Y-108176199D01*
X196190251Y-108179898D01*
X196190250Y-108179898D01*
X196148077Y-108208077D01*
X196119898Y-108250250D01*
X196119898Y-108250251D01*
X196112499Y-108287442D01*
X196112499Y-110012557D01*
X195725501Y-110012557D01*
X195725501Y-105362557D01*
X196112499Y-105362557D01*
X196119898Y-105399748D01*
X196119898Y-105399749D01*
X196148077Y-105441922D01*
X196176257Y-105460750D01*
X196190252Y-105470102D01*
X196227442Y-105477500D01*
X196227443Y-105477500D01*
X197952557Y-105477500D01*
X197952558Y-105477500D01*
X197989748Y-105470102D01*
X198031922Y-105441922D01*
X198060102Y-105399748D01*
X198067500Y-105362558D01*
X198067500Y-104500000D01*
X198647770Y-104500000D01*
X198666642Y-104691622D01*
X198666643Y-104691624D01*
X198722538Y-104875883D01*
X198722539Y-104875884D01*
X198813302Y-105045692D01*
X198813306Y-105045698D01*
X198935459Y-105194541D01*
X199084302Y-105316694D01*
X199084304Y-105316695D01*
X199084307Y-105316697D01*
X199128491Y-105340313D01*
X199254117Y-105407462D01*
X199438376Y-105463357D01*
X199534187Y-105472793D01*
X199629999Y-105482230D01*
X199629999Y-105482229D01*
X199630000Y-105482230D01*
X199821624Y-105463357D01*
X200005883Y-105407462D01*
X200175698Y-105316694D01*
X200324541Y-105194541D01*
X200446694Y-105045698D01*
X200537462Y-104875883D01*
X200593357Y-104691624D01*
X200612230Y-104500000D01*
X201187770Y-104500000D01*
X201206642Y-104691622D01*
X201206643Y-104691624D01*
X201262538Y-104875883D01*
X201262539Y-104875884D01*
X201353302Y-105045692D01*
X201353306Y-105045698D01*
X201475459Y-105194541D01*
X201624302Y-105316694D01*
X201624304Y-105316695D01*
X201624307Y-105316697D01*
X201668491Y-105340313D01*
X201794117Y-105407462D01*
X201978376Y-105463357D01*
X202074188Y-105472793D01*
X202169999Y-105482230D01*
X202169999Y-105482229D01*
X202170000Y-105482230D01*
X202361624Y-105463357D01*
X202545883Y-105407462D01*
X202715698Y-105316694D01*
X202864541Y-105194541D01*
X202986694Y-105045698D01*
X203077462Y-104875883D01*
X203133357Y-104691624D01*
X203152230Y-104500000D01*
X203727770Y-104500000D01*
X203746642Y-104691622D01*
X203746643Y-104691624D01*
X203802538Y-104875883D01*
X203802539Y-104875884D01*
X203893302Y-105045692D01*
X203893306Y-105045698D01*
X204015459Y-105194541D01*
X204164302Y-105316694D01*
X204164304Y-105316695D01*
X204164307Y-105316697D01*
X204208491Y-105340313D01*
X204334117Y-105407462D01*
X204518376Y-105463357D01*
X204710000Y-105482230D01*
X204901624Y-105463357D01*
X205085883Y-105407462D01*
X205255698Y-105316694D01*
X205404541Y-105194541D01*
X205526694Y-105045698D01*
X205617462Y-104875883D01*
X205673357Y-104691624D01*
X205692230Y-104500000D01*
X208807770Y-104500000D01*
X208826642Y-104691622D01*
X208826643Y-104691624D01*
X208882538Y-104875883D01*
X208882539Y-104875884D01*
X208973302Y-105045692D01*
X208973306Y-105045698D01*
X209095459Y-105194541D01*
X209244302Y-105316694D01*
X209244304Y-105316695D01*
X209244307Y-105316697D01*
X209288491Y-105340313D01*
X209414117Y-105407462D01*
X209598376Y-105463357D01*
X209694188Y-105472793D01*
X209789999Y-105482230D01*
X209789999Y-105482229D01*
X209790000Y-105482230D01*
X209981624Y-105463357D01*
X210165883Y-105407462D01*
X210335698Y-105316694D01*
X210484541Y-105194541D01*
X210606694Y-105045698D01*
X210697462Y-104875883D01*
X210753357Y-104691624D01*
X210772230Y-104500000D01*
X210753357Y-104308376D01*
X210697462Y-104124117D01*
X210630313Y-103998491D01*
X210606697Y-103954307D01*
X210606693Y-103954301D01*
X210484541Y-103805459D01*
X210335698Y-103683306D01*
X210335692Y-103683302D01*
X210215375Y-103618992D01*
X210165883Y-103592538D01*
X210009780Y-103545184D01*
X209981622Y-103536642D01*
X209790000Y-103517770D01*
X209598377Y-103536642D01*
X209480604Y-103572369D01*
X209414117Y-103592538D01*
X209414115Y-103592538D01*
X209414115Y-103592539D01*
X209244307Y-103683302D01*
X209244301Y-103683306D01*
X209095459Y-103805459D01*
X208973306Y-103954301D01*
X208973302Y-103954307D01*
X208882539Y-104124115D01*
X208826642Y-104308377D01*
X208807770Y-104499999D01*
X208807770Y-104500000D01*
X205692230Y-104500000D01*
X205673357Y-104308376D01*
X205617462Y-104124117D01*
X205550313Y-103998491D01*
X205526697Y-103954307D01*
X205526693Y-103954301D01*
X205404541Y-103805459D01*
X205255698Y-103683306D01*
X205255692Y-103683302D01*
X205135375Y-103618992D01*
X205085883Y-103592538D01*
X204929780Y-103545184D01*
X204901622Y-103536642D01*
X204710000Y-103517770D01*
X204518377Y-103536642D01*
X204400604Y-103572369D01*
X204334117Y-103592538D01*
X204334115Y-103592538D01*
X204334115Y-103592539D01*
X204164307Y-103683302D01*
X204164301Y-103683306D01*
X204015459Y-103805459D01*
X203893306Y-103954301D01*
X203893302Y-103954307D01*
X203802539Y-104124115D01*
X203746642Y-104308377D01*
X203727770Y-104499999D01*
X203727770Y-104500000D01*
X203152230Y-104500000D01*
X203133357Y-104308376D01*
X203077462Y-104124117D01*
X203010313Y-103998491D01*
X202986697Y-103954307D01*
X202986693Y-103954301D01*
X202864541Y-103805459D01*
X202715698Y-103683306D01*
X202715692Y-103683302D01*
X202595375Y-103618992D01*
X202545883Y-103592538D01*
X202389780Y-103545184D01*
X202361622Y-103536642D01*
X202170000Y-103517770D01*
X201978377Y-103536642D01*
X201860604Y-103572369D01*
X201794117Y-103592538D01*
X201794115Y-103592538D01*
X201794115Y-103592539D01*
X201624307Y-103683302D01*
X201624301Y-103683306D01*
X201475459Y-103805459D01*
X201353306Y-103954301D01*
X201353302Y-103954307D01*
X201262539Y-104124115D01*
X201206642Y-104308377D01*
X201187770Y-104499999D01*
X201187770Y-104500000D01*
X200612230Y-104500000D01*
X200593357Y-104308376D01*
X200537462Y-104124117D01*
X200470313Y-103998491D01*
X200446697Y-103954307D01*
X200446693Y-103954301D01*
X200324541Y-103805459D01*
X200175698Y-103683306D01*
X200175692Y-103683302D01*
X200055375Y-103618992D01*
X200005883Y-103592538D01*
X199849780Y-103545184D01*
X199821622Y-103536642D01*
X199630000Y-103517770D01*
X199438377Y-103536642D01*
X199320604Y-103572369D01*
X199254117Y-103592538D01*
X199254115Y-103592538D01*
X199254115Y-103592539D01*
X199084307Y-103683302D01*
X199084301Y-103683306D01*
X198935459Y-103805459D01*
X198813306Y-103954301D01*
X198813302Y-103954307D01*
X198722539Y-104124115D01*
X198666642Y-104308377D01*
X198647770Y-104499999D01*
X198647770Y-104500000D01*
X198067500Y-104500000D01*
X198067500Y-103637442D01*
X198060102Y-103600252D01*
X198060101Y-103600250D01*
X198031922Y-103558077D01*
X197989748Y-103529898D01*
X197989747Y-103529898D01*
X197952558Y-103522500D01*
X196227442Y-103522500D01*
X196208847Y-103526199D01*
X196190251Y-103529898D01*
X196190250Y-103529898D01*
X196148077Y-103558077D01*
X196119898Y-103600250D01*
X196119898Y-103600251D01*
X196112499Y-103637442D01*
X196112499Y-105362557D01*
X195725501Y-105362557D01*
X195725501Y-104401120D01*
X195725581Y-104398890D01*
X195741208Y-104180384D01*
X195742477Y-104171558D01*
X195752797Y-104124117D01*
X195788332Y-103960764D01*
X195790837Y-103952235D01*
X195866225Y-103750110D01*
X195869925Y-103742010D01*
X195901983Y-103683302D01*
X195973306Y-103552682D01*
X195978125Y-103545184D01*
X195984519Y-103536643D01*
X196107401Y-103372490D01*
X196113229Y-103365765D01*
X196265765Y-103213229D01*
X196272490Y-103207401D01*
X196445188Y-103078122D01*
X196452682Y-103073306D01*
X196642015Y-102969922D01*
X196650110Y-102966225D01*
X196852235Y-102890837D01*
X196860764Y-102888332D01*
X197071560Y-102842476D01*
X197080381Y-102841208D01*
X197125833Y-102837957D01*
X197298891Y-102825581D01*
X197301121Y-102825501D01*
X197334173Y-102825501D01*
X197334175Y-102825500D01*
X212837500Y-102825500D01*
X212881694Y-102843806D01*
G37*
%TD.AperFunction*%
%TD*%
%TA.AperFunction,Conductor*%
%TO.N,+3V3*%
G36*
X245781694Y-107618306D02*
G01*
X245800000Y-107662500D01*
X245800000Y-111267962D01*
X245793870Y-111282774D01*
X245793803Y-111300032D01*
X245793802Y-111300032D01*
X227000000Y-111400000D01*
X227000000Y-108299999D01*
X229514757Y-108299999D01*
X229533612Y-108419047D01*
X229533612Y-108419048D01*
X229561388Y-108473560D01*
X229588332Y-108526440D01*
X229673560Y-108611668D01*
X229780953Y-108666388D01*
X229900000Y-108685243D01*
X230019047Y-108666388D01*
X230064932Y-108643008D01*
X231114757Y-108643008D01*
X231133612Y-108762055D01*
X231133612Y-108762056D01*
X231188332Y-108869448D01*
X231273560Y-108954676D01*
X231380953Y-109009396D01*
X231500000Y-109028251D01*
X231619047Y-109009396D01*
X231726440Y-108954676D01*
X231811668Y-108869448D01*
X231866388Y-108762055D01*
X231876216Y-108700000D01*
X232214757Y-108700000D01*
X232224586Y-108762056D01*
X232233612Y-108819047D01*
X232233612Y-108819048D01*
X232259293Y-108869448D01*
X232288332Y-108926440D01*
X232373560Y-109011668D01*
X232480953Y-109066388D01*
X232600000Y-109085243D01*
X232719047Y-109066388D01*
X232826440Y-109011668D01*
X232911668Y-108926440D01*
X232966388Y-108819047D01*
X232985243Y-108700000D01*
X232966388Y-108580953D01*
X232911668Y-108473560D01*
X232826440Y-108388332D01*
X232719047Y-108333612D01*
X232600000Y-108314757D01*
X232480952Y-108333612D01*
X232480951Y-108333612D01*
X232373559Y-108388332D01*
X232288332Y-108473559D01*
X232233612Y-108580951D01*
X232233612Y-108580952D01*
X232220081Y-108666388D01*
X232214757Y-108700000D01*
X231876216Y-108700000D01*
X231885243Y-108643008D01*
X231866388Y-108523961D01*
X231811668Y-108416568D01*
X231726440Y-108331340D01*
X231619047Y-108276620D01*
X231500000Y-108257765D01*
X231499999Y-108257765D01*
X231380952Y-108276620D01*
X231380951Y-108276620D01*
X231273559Y-108331340D01*
X231188332Y-108416567D01*
X231133612Y-108523959D01*
X231133612Y-108523960D01*
X231114757Y-108643008D01*
X230064932Y-108643008D01*
X230126440Y-108611668D01*
X230211668Y-108526440D01*
X230266388Y-108419047D01*
X230285243Y-108300000D01*
X230266388Y-108180953D01*
X230211668Y-108073560D01*
X230126440Y-107988332D01*
X230019047Y-107933612D01*
X229900000Y-107914757D01*
X229780952Y-107933612D01*
X229780951Y-107933612D01*
X229673559Y-107988332D01*
X229588332Y-108073559D01*
X229533612Y-108180951D01*
X229533612Y-108180952D01*
X229514757Y-108299999D01*
X227000000Y-108299999D01*
X227000000Y-107662499D01*
X227018306Y-107618306D01*
X227062500Y-107600000D01*
X245737500Y-107600000D01*
X245781694Y-107618306D01*
G37*
%TD.AperFunction*%
%TD*%
M02*
