%TF.GenerationSoftware,KiCad,Pcbnew,7.0.7*%
%TF.CreationDate,2023-10-21T19:04:04-04:00*%
%TF.ProjectId,xESC2,78455343-322e-46b6-9963-61645f706362,rev?*%
%TF.SameCoordinates,Original*%
%TF.FileFunction,Paste,Bot*%
%TF.FilePolarity,Positive*%
%FSLAX46Y46*%
G04 Gerber Fmt 4.6, Leading zero omitted, Abs format (unit mm)*
G04 Created by KiCad (PCBNEW 7.0.7) date 2023-10-21 19:04:04*
%MOMM*%
%LPD*%
G01*
G04 APERTURE LIST*
G04 Aperture macros list*
%AMRoundRect*
0 Rectangle with rounded corners*
0 $1 Rounding radius*
0 $2 $3 $4 $5 $6 $7 $8 $9 X,Y pos of 4 corners*
0 Add a 4 corners polygon primitive as box body*
4,1,4,$2,$3,$4,$5,$6,$7,$8,$9,$2,$3,0*
0 Add four circle primitives for the rounded corners*
1,1,$1+$1,$2,$3*
1,1,$1+$1,$4,$5*
1,1,$1+$1,$6,$7*
1,1,$1+$1,$8,$9*
0 Add four rect primitives between the rounded corners*
20,1,$1+$1,$2,$3,$4,$5,0*
20,1,$1+$1,$4,$5,$6,$7,0*
20,1,$1+$1,$6,$7,$8,$9,0*
20,1,$1+$1,$8,$9,$2,$3,0*%
G04 Aperture macros list end*
%ADD10C,0.100000*%
%ADD11R,1.500000X2.400000*%
%ADD12RoundRect,0.249999X0.362501X1.425001X-0.362501X1.425001X-0.362501X-1.425001X0.362501X-1.425001X0*%
%ADD13RoundRect,0.250000X-0.325000X-0.650000X0.325000X-0.650000X0.325000X0.650000X-0.325000X0.650000X0*%
%ADD14RoundRect,0.225000X-0.250000X0.225000X-0.250000X-0.225000X0.250000X-0.225000X0.250000X0.225000X0*%
%ADD15RoundRect,0.250000X0.650000X-0.325000X0.650000X0.325000X-0.650000X0.325000X-0.650000X-0.325000X0*%
%ADD16RoundRect,0.250000X0.475000X-0.250000X0.475000X0.250000X-0.475000X0.250000X-0.475000X-0.250000X0*%
%ADD17RoundRect,0.250000X-0.475000X0.250000X-0.475000X-0.250000X0.475000X-0.250000X0.475000X0.250000X0*%
%ADD18RoundRect,0.250000X0.250000X0.475000X-0.250000X0.475000X-0.250000X-0.475000X0.250000X-0.475000X0*%
%ADD19RoundRect,0.250000X-0.250000X-0.475000X0.250000X-0.475000X0.250000X0.475000X-0.250000X0.475000X0*%
%ADD20RoundRect,0.200000X0.200000X0.275000X-0.200000X0.275000X-0.200000X-0.275000X0.200000X-0.275000X0*%
%ADD21RoundRect,0.225000X0.225000X0.250000X-0.225000X0.250000X-0.225000X-0.250000X0.225000X-0.250000X0*%
%ADD22RoundRect,0.225000X-0.225000X-0.250000X0.225000X-0.250000X0.225000X0.250000X-0.225000X0.250000X0*%
%ADD23RoundRect,0.200000X-0.200000X-0.275000X0.200000X-0.275000X0.200000X0.275000X-0.200000X0.275000X0*%
%ADD24RoundRect,0.200000X-0.275000X0.200000X-0.275000X-0.200000X0.275000X-0.200000X0.275000X0.200000X0*%
%ADD25RoundRect,0.200000X0.275000X-0.200000X0.275000X0.200000X-0.275000X0.200000X-0.275000X-0.200000X0*%
%ADD26RoundRect,0.249999X0.325001X0.650001X-0.325001X0.650001X-0.325001X-0.650001X0.325001X-0.650001X0*%
%ADD27RoundRect,0.225000X0.250000X-0.225000X0.250000X0.225000X-0.250000X0.225000X-0.250000X-0.225000X0*%
%ADD28R,0.279400X1.340599*%
%ADD29R,1.340599X0.279400*%
%ADD30R,1.060000X0.650000*%
%ADD31RoundRect,0.150000X0.150000X-0.825000X0.150000X0.825000X-0.150000X0.825000X-0.150000X-0.825000X0*%
%ADD32R,0.340000X0.700000*%
%ADD33RoundRect,0.182500X-0.222500X0.182500X-0.222500X-0.182500X0.222500X-0.182500X0.222500X0.182500X0*%
%ADD34RoundRect,0.062500X-0.062500X0.300000X-0.062500X-0.300000X0.062500X-0.300000X0.062500X0.300000X0*%
%ADD35RoundRect,0.112500X-0.187500X-0.112500X0.187500X-0.112500X0.187500X0.112500X-0.187500X0.112500X0*%
%ADD36R,1.500000X0.900000*%
%ADD37RoundRect,0.218750X-0.218750X-0.381250X0.218750X-0.381250X0.218750X0.381250X-0.218750X0.381250X0*%
G04 APERTURE END LIST*
%TO.C,U1*%
D10*
X246266034Y-120751900D02*
X244798100Y-120751900D01*
X244798100Y-119283966D01*
X246266034Y-119283966D01*
X246266034Y-120751900D01*
G36*
X246266034Y-120751900D02*
G01*
X244798100Y-120751900D01*
X244798100Y-119283966D01*
X246266034Y-119283966D01*
X246266034Y-120751900D01*
G37*
X247933967Y-120751900D02*
X246466033Y-120751900D01*
X246466033Y-119283966D01*
X247933967Y-119283966D01*
X247933967Y-120751900D01*
G36*
X247933967Y-120751900D02*
G01*
X246466033Y-120751900D01*
X246466033Y-119283966D01*
X247933967Y-119283966D01*
X247933967Y-120751900D01*
G37*
X249601900Y-120751900D02*
X248133966Y-120751900D01*
X248133966Y-119283966D01*
X249601900Y-119283966D01*
X249601900Y-120751900D01*
G36*
X249601900Y-120751900D02*
G01*
X248133966Y-120751900D01*
X248133966Y-119283966D01*
X249601900Y-119283966D01*
X249601900Y-120751900D01*
G37*
X246266034Y-119083967D02*
X244798100Y-119083967D01*
X244798100Y-117616033D01*
X246266034Y-117616033D01*
X246266034Y-119083967D01*
G36*
X246266034Y-119083967D02*
G01*
X244798100Y-119083967D01*
X244798100Y-117616033D01*
X246266034Y-117616033D01*
X246266034Y-119083967D01*
G37*
X247933967Y-119083967D02*
X246466033Y-119083967D01*
X246466033Y-117616033D01*
X247933967Y-117616033D01*
X247933967Y-119083967D01*
G36*
X247933967Y-119083967D02*
G01*
X246466033Y-119083967D01*
X246466033Y-117616033D01*
X247933967Y-117616033D01*
X247933967Y-119083967D01*
G37*
X249601900Y-119083967D02*
X248133966Y-119083967D01*
X248133966Y-117616033D01*
X249601900Y-117616033D01*
X249601900Y-119083967D01*
G36*
X249601900Y-119083967D02*
G01*
X248133966Y-119083967D01*
X248133966Y-117616033D01*
X249601900Y-117616033D01*
X249601900Y-119083967D01*
G37*
X246266034Y-117416034D02*
X244798100Y-117416034D01*
X244798100Y-115948100D01*
X246266034Y-115948100D01*
X246266034Y-117416034D01*
G36*
X246266034Y-117416034D02*
G01*
X244798100Y-117416034D01*
X244798100Y-115948100D01*
X246266034Y-115948100D01*
X246266034Y-117416034D01*
G37*
X247933967Y-117416034D02*
X246466033Y-117416034D01*
X246466033Y-115948100D01*
X247933967Y-115948100D01*
X247933967Y-117416034D01*
G36*
X247933967Y-117416034D02*
G01*
X246466033Y-117416034D01*
X246466033Y-115948100D01*
X247933967Y-115948100D01*
X247933967Y-117416034D01*
G37*
X249601900Y-117416034D02*
X248133966Y-117416034D01*
X248133966Y-115948100D01*
X249601900Y-115948100D01*
X249601900Y-117416034D01*
G36*
X249601900Y-117416034D02*
G01*
X248133966Y-117416034D01*
X248133966Y-115948100D01*
X249601900Y-115948100D01*
X249601900Y-117416034D01*
G37*
%TD*%
D11*
%TO.C,L1*%
X213900000Y-122700000D03*
X219400000Y-122700000D03*
%TD*%
D12*
%TO.C,R3*%
X271100000Y-126400000D03*
X265175000Y-126400000D03*
%TD*%
D13*
%TO.C,C4*%
X245475000Y-126650000D03*
X248425000Y-126650000D03*
%TD*%
D14*
%TO.C,C36*%
X225810000Y-117600000D03*
X225810000Y-119150000D03*
%TD*%
%TO.C,C35*%
X224300000Y-117600000D03*
X224300000Y-119150000D03*
%TD*%
%TO.C,C34*%
X222810000Y-117600000D03*
X222810000Y-119150000D03*
%TD*%
D15*
%TO.C,C22*%
X218650000Y-112975000D03*
X218650000Y-110025000D03*
%TD*%
D16*
%TO.C,C33*%
X230500000Y-123750000D03*
X230500000Y-125650000D03*
%TD*%
D17*
%TO.C,C32*%
X228750000Y-116650000D03*
X228750000Y-118550000D03*
%TD*%
D16*
%TO.C,C18*%
X233300000Y-125650000D03*
X233300000Y-123750000D03*
%TD*%
%TO.C,C17*%
X223550000Y-112900000D03*
X223550000Y-111000000D03*
%TD*%
D13*
%TO.C,C16*%
X222925000Y-115550000D03*
X225875000Y-115550000D03*
%TD*%
D18*
%TO.C,C7*%
X238750000Y-121400000D03*
X236850000Y-121400000D03*
%TD*%
D19*
%TO.C,C6*%
X249900000Y-132200000D03*
X251800000Y-132200000D03*
%TD*%
D15*
%TO.C,C5*%
X250650000Y-127125000D03*
X250650000Y-130075000D03*
%TD*%
D20*
%TO.C,R4*%
X257025000Y-124400000D03*
X255375000Y-124400000D03*
%TD*%
D21*
%TO.C,C15*%
X243475000Y-128450000D03*
X241925000Y-128450000D03*
%TD*%
D22*
%TO.C,C11*%
X244425000Y-110450000D03*
X245975000Y-110450000D03*
%TD*%
D16*
%TO.C,C13*%
X242500000Y-111250000D03*
X242500000Y-109350000D03*
%TD*%
D22*
%TO.C,C25*%
X259125000Y-116400000D03*
X260675000Y-116400000D03*
%TD*%
%TO.C,C26*%
X259125000Y-112400000D03*
X260675000Y-112400000D03*
%TD*%
D20*
%TO.C,R5*%
X257025000Y-118400000D03*
X255375000Y-118400000D03*
%TD*%
%TO.C,R6*%
X257025000Y-120400000D03*
X255375000Y-120400000D03*
%TD*%
D21*
%TO.C,C27*%
X239975000Y-128450000D03*
X238425000Y-128450000D03*
%TD*%
D12*
%TO.C,R7*%
X271100000Y-118400000D03*
X265175000Y-118400000D03*
%TD*%
D21*
%TO.C,C28*%
X236475000Y-128450000D03*
X234925000Y-128450000D03*
%TD*%
D20*
%TO.C,R8*%
X257025000Y-116400000D03*
X255375000Y-116400000D03*
%TD*%
%TO.C,R9*%
X257025000Y-110400000D03*
X255375000Y-110400000D03*
%TD*%
%TO.C,R10*%
X257025000Y-108400000D03*
X255375000Y-108400000D03*
%TD*%
D12*
%TO.C,R11*%
X271062500Y-110400000D03*
X265137500Y-110400000D03*
%TD*%
D23*
%TO.C,R13*%
X247825000Y-128850000D03*
X246175000Y-128850000D03*
%TD*%
D24*
%TO.C,R14*%
X248300000Y-130575000D03*
X248300000Y-132225000D03*
%TD*%
D25*
%TO.C,R15*%
X246050000Y-132275000D03*
X246050000Y-130625000D03*
%TD*%
D23*
%TO.C,R17*%
X241875000Y-125250000D03*
X243525000Y-125250000D03*
%TD*%
D20*
%TO.C,R18*%
X243525000Y-126850000D03*
X241875000Y-126850000D03*
%TD*%
D23*
%TO.C,R19*%
X238375000Y-125250000D03*
X240025000Y-125250000D03*
%TD*%
D20*
%TO.C,R20*%
X240025000Y-126850000D03*
X238375000Y-126850000D03*
%TD*%
D23*
%TO.C,R21*%
X234875000Y-125250000D03*
X236525000Y-125250000D03*
%TD*%
D20*
%TO.C,R22*%
X236525000Y-126850000D03*
X234875000Y-126850000D03*
%TD*%
D23*
%TO.C,R29*%
X244375000Y-108700000D03*
X246025000Y-108700000D03*
%TD*%
D20*
%TO.C,R2*%
X257025000Y-128400000D03*
X255375000Y-128400000D03*
%TD*%
D18*
%TO.C,C12*%
X249950000Y-110600000D03*
X248050000Y-110600000D03*
%TD*%
D19*
%TO.C,C14*%
X248050000Y-108600000D03*
X249950000Y-108600000D03*
%TD*%
D21*
%TO.C,C29*%
X260675000Y-126400000D03*
X259125000Y-126400000D03*
%TD*%
%TO.C,C30*%
X260675000Y-118400000D03*
X259125000Y-118400000D03*
%TD*%
D24*
%TO.C,R25*%
X263000000Y-118775000D03*
X263000000Y-120425000D03*
%TD*%
D21*
%TO.C,C31*%
X260675000Y-110400000D03*
X259125000Y-110400000D03*
%TD*%
D20*
%TO.C,R24*%
X260725000Y-128400000D03*
X259075000Y-128400000D03*
%TD*%
%TO.C,R28*%
X260725000Y-108400000D03*
X259075000Y-108400000D03*
%TD*%
D24*
%TO.C,R23*%
X263000000Y-125575000D03*
X263000000Y-127225000D03*
%TD*%
D20*
%TO.C,R26*%
X260725000Y-120400000D03*
X259075000Y-120400000D03*
%TD*%
D26*
%TO.C,C21*%
X236675000Y-108900000D03*
X233725000Y-108900000D03*
%TD*%
%TO.C,C20*%
X236675000Y-111300000D03*
X233725000Y-111300000D03*
%TD*%
D14*
%TO.C,C9*%
X253800000Y-117625000D03*
X253800000Y-119175000D03*
%TD*%
%TO.C,C8*%
X253800000Y-125625000D03*
X253800000Y-127175000D03*
%TD*%
D27*
%TO.C,C10*%
X253800000Y-111175000D03*
X253800000Y-109625000D03*
%TD*%
D28*
%TO.C,U1*%
X249950000Y-122525501D03*
X249450001Y-122525501D03*
X248949999Y-122525501D03*
X248450000Y-122525501D03*
X247950001Y-122525501D03*
X247450000Y-122525501D03*
X246950000Y-122525501D03*
X246449999Y-122525501D03*
X245950000Y-122525501D03*
X245450001Y-122525501D03*
X244949999Y-122525501D03*
X244450000Y-122525501D03*
D29*
X243024499Y-121100000D03*
X243024499Y-120600001D03*
X243024499Y-120099999D03*
X243024499Y-119600000D03*
X243024499Y-119100001D03*
X243024499Y-118600000D03*
X243024499Y-118100000D03*
X243024499Y-117599999D03*
X243024499Y-117100000D03*
X243024499Y-116600001D03*
X243024499Y-116099999D03*
X243024499Y-115600000D03*
D28*
X244450000Y-114174499D03*
X244949999Y-114174499D03*
X245450001Y-114174499D03*
X245950000Y-114174499D03*
X246449999Y-114174499D03*
X246950000Y-114174499D03*
X247450000Y-114174499D03*
X247950001Y-114174499D03*
X248450000Y-114174499D03*
X248949999Y-114174499D03*
X249450001Y-114174499D03*
X249950000Y-114174499D03*
D29*
X251375501Y-115600000D03*
X251375501Y-116099999D03*
X251375501Y-116600001D03*
X251375501Y-117100000D03*
X251375501Y-117599999D03*
X251375501Y-118100000D03*
X251375501Y-118600000D03*
X251375501Y-119100001D03*
X251375501Y-119600000D03*
X251375501Y-120099999D03*
X251375501Y-120600001D03*
X251375501Y-121100000D03*
%TD*%
D20*
%TO.C,R1*%
X257025000Y-126400000D03*
X255375000Y-126400000D03*
%TD*%
D25*
%TO.C,R27*%
X263000000Y-109825000D03*
X263000000Y-108175000D03*
%TD*%
D20*
%TO.C,R12*%
X257025000Y-112400000D03*
X255375000Y-112400000D03*
%TD*%
D22*
%TO.C,C24*%
X259125000Y-124400000D03*
X260675000Y-124400000D03*
%TD*%
D30*
%TO.C,U2*%
X240700000Y-109250000D03*
X240700000Y-110200000D03*
X240700000Y-111150000D03*
X238500000Y-111150000D03*
X238500000Y-109250000D03*
%TD*%
D31*
%TO.C,U5*%
X236605000Y-119075000D03*
X235335000Y-119075000D03*
X234065000Y-119075000D03*
X232795000Y-119075000D03*
X232795000Y-114125000D03*
X234065000Y-114125000D03*
X235335000Y-114125000D03*
X236605000Y-114125000D03*
%TD*%
D20*
%TO.C,R33*%
X230675000Y-113500000D03*
X229025000Y-113500000D03*
%TD*%
%TO.C,R34*%
X230675000Y-111900000D03*
X229025000Y-111900000D03*
%TD*%
D21*
%TO.C,C45*%
X227525000Y-113500000D03*
X225975000Y-113500000D03*
%TD*%
%TO.C,C46*%
X227525000Y-111900000D03*
X225975000Y-111900000D03*
%TD*%
D20*
%TO.C,R35*%
X230675000Y-110300000D03*
X229025000Y-110300000D03*
%TD*%
%TO.C,R30*%
X230675000Y-115100000D03*
X229025000Y-115100000D03*
%TD*%
D21*
%TO.C,C47*%
X227525000Y-110300000D03*
X225975000Y-110300000D03*
%TD*%
D25*
%TO.C,R41*%
X263000000Y-112825000D03*
X263000000Y-111175000D03*
%TD*%
%TO.C,TH1*%
X263000000Y-117425000D03*
X263000000Y-115775000D03*
%TD*%
%TO.C,R36*%
X230800000Y-119600000D03*
X230800000Y-117950000D03*
%TD*%
D19*
%TO.C,C68*%
X218300000Y-131650000D03*
X220200000Y-131650000D03*
%TD*%
D32*
%TO.C,D8*%
X226250000Y-128900000D03*
X226750000Y-128900000D03*
X227250000Y-128900000D03*
X227250000Y-130400000D03*
X226750000Y-130400000D03*
X226250000Y-130400000D03*
%TD*%
D14*
%TO.C,C23*%
X221400000Y-111575000D03*
X221400000Y-113125000D03*
%TD*%
D33*
%TO.C,IC2*%
X219630000Y-116285000D03*
X218630000Y-116285000D03*
D34*
X218130000Y-115272500D03*
X218630000Y-115272500D03*
X219130000Y-115272500D03*
X219630000Y-115272500D03*
X220130000Y-115272500D03*
X220130000Y-117297500D03*
X219630000Y-117297500D03*
X219130000Y-117297500D03*
X218630000Y-117297500D03*
X218130000Y-117297500D03*
%TD*%
D19*
%TO.C,C55*%
X214050000Y-115150000D03*
X215950000Y-115150000D03*
%TD*%
%TO.C,C56*%
X214050000Y-117400000D03*
X215950000Y-117400000D03*
%TD*%
D35*
%TO.C,D11*%
X218200000Y-129400000D03*
X220300000Y-129400000D03*
%TD*%
D36*
%TO.C,IC3*%
X222200000Y-124600000D03*
X222200000Y-121300000D03*
X227100000Y-121300000D03*
X227100000Y-124600000D03*
%TD*%
D23*
%TO.C,R82*%
X230925000Y-129650000D03*
X232575000Y-129650000D03*
%TD*%
D21*
%TO.C,C70*%
X232525000Y-131150000D03*
X230975000Y-131150000D03*
%TD*%
D37*
%TO.C,L3*%
X218187500Y-127400000D03*
X220312500Y-127400000D03*
%TD*%
M02*
