%TF.GenerationSoftware,KiCad,Pcbnew,7.0.10*%
%TF.CreationDate,2024-01-24T13:37:03-05:00*%
%TF.ProjectId,MiniBLDC,4d696e69-424c-4444-932e-6b696361645f,rev?*%
%TF.SameCoordinates,Original*%
%TF.FileFunction,Soldermask,Bot*%
%TF.FilePolarity,Negative*%
%FSLAX46Y46*%
G04 Gerber Fmt 4.6, Leading zero omitted, Abs format (unit mm)*
G04 Created by KiCad (PCBNEW 7.0.10) date 2024-01-24 13:37:03*
%MOMM*%
%LPD*%
G01*
G04 APERTURE LIST*
G04 Aperture macros list*
%AMRoundRect*
0 Rectangle with rounded corners*
0 $1 Rounding radius*
0 $2 $3 $4 $5 $6 $7 $8 $9 X,Y pos of 4 corners*
0 Add a 4 corners polygon primitive as box body*
4,1,4,$2,$3,$4,$5,$6,$7,$8,$9,$2,$3,0*
0 Add four circle primitives for the rounded corners*
1,1,$1+$1,$2,$3*
1,1,$1+$1,$4,$5*
1,1,$1+$1,$6,$7*
1,1,$1+$1,$8,$9*
0 Add four rect primitives between the rounded corners*
20,1,$1+$1,$2,$3,$4,$5,0*
20,1,$1+$1,$4,$5,$6,$7,0*
20,1,$1+$1,$6,$7,$8,$9,0*
20,1,$1+$1,$8,$9,$2,$3,0*%
%AMRotRect*
0 Rectangle, with rotation*
0 The origin of the aperture is its center*
0 $1 length*
0 $2 width*
0 $3 Rotation angle, in degrees counterclockwise*
0 Add horizontal line*
21,1,$1,$2,0,0,$3*%
G04 Aperture macros list end*
%ADD10C,1.400000*%
%ADD11R,3.500000X3.500000*%
%ADD12C,3.500000*%
%ADD13RoundRect,0.250000X-0.512652X-0.159099X-0.159099X-0.512652X0.512652X0.159099X0.159099X0.512652X0*%
%ADD14RoundRect,0.250000X0.512652X0.159099X0.159099X0.512652X-0.512652X-0.159099X-0.159099X-0.512652X0*%
%ADD15RotRect,1.000000X1.500000X135.000000*%
%ADD16R,1.500000X1.000000*%
%ADD17RoundRect,0.250000X0.650000X-0.325000X0.650000X0.325000X-0.650000X0.325000X-0.650000X-0.325000X0*%
%ADD18RoundRect,0.250000X0.325000X0.650000X-0.325000X0.650000X-0.325000X-0.650000X0.325000X-0.650000X0*%
%ADD19C,0.800000*%
%ADD20C,5.000000*%
%ADD21C,5.600000*%
%ADD22C,3.600000*%
%ADD23RoundRect,0.250000X1.425000X-0.362500X1.425000X0.362500X-1.425000X0.362500X-1.425000X-0.362500X0*%
%ADD24RoundRect,0.200000X-0.200000X-0.275000X0.200000X-0.275000X0.200000X0.275000X-0.200000X0.275000X0*%
%ADD25RoundRect,0.200000X0.200000X0.275000X-0.200000X0.275000X-0.200000X-0.275000X0.200000X-0.275000X0*%
%ADD26RoundRect,0.200000X0.053033X-0.335876X0.335876X-0.053033X-0.053033X0.335876X-0.335876X0.053033X0*%
%ADD27RoundRect,0.200000X-0.053033X0.335876X-0.335876X0.053033X0.053033X-0.335876X0.335876X-0.053033X0*%
%ADD28RoundRect,0.225000X-0.225000X-0.250000X0.225000X-0.250000X0.225000X0.250000X-0.225000X0.250000X0*%
%ADD29RoundRect,0.225000X0.017678X-0.335876X0.335876X-0.017678X-0.017678X0.335876X-0.335876X0.017678X0*%
%ADD30RoundRect,0.225000X-0.017678X0.335876X-0.335876X0.017678X0.017678X-0.335876X0.335876X-0.017678X0*%
%ADD31RoundRect,0.225000X-0.335876X-0.017678X-0.017678X-0.335876X0.335876X0.017678X0.017678X0.335876X0*%
%ADD32RoundRect,0.200000X0.275000X-0.200000X0.275000X0.200000X-0.275000X0.200000X-0.275000X-0.200000X0*%
%ADD33RoundRect,0.250000X0.159099X-0.512652X0.512652X-0.159099X-0.159099X0.512652X-0.512652X0.159099X0*%
%ADD34RoundRect,0.250000X1.100000X-0.325000X1.100000X0.325000X-1.100000X0.325000X-1.100000X-0.325000X0*%
%ADD35RoundRect,0.225000X0.250000X-0.225000X0.250000X0.225000X-0.250000X0.225000X-0.250000X-0.225000X0*%
%ADD36RoundRect,0.135000X0.035355X-0.226274X0.226274X-0.035355X-0.035355X0.226274X-0.226274X0.035355X0*%
%ADD37RoundRect,0.150000X-0.825000X-0.150000X0.825000X-0.150000X0.825000X0.150000X-0.825000X0.150000X0*%
%ADD38RotRect,5.003800X5.003800X315.000000*%
%ADD39RotRect,0.279400X1.340599X315.000000*%
%ADD40RotRect,0.279400X1.340599X225.000000*%
%ADD41RoundRect,0.135000X0.226274X0.035355X0.035355X0.226274X-0.226274X-0.035355X-0.035355X-0.226274X0*%
%ADD42RoundRect,0.250000X-0.650000X0.325000X-0.650000X-0.325000X0.650000X-0.325000X0.650000X0.325000X0*%
%ADD43RoundRect,0.250000X0.475000X-0.250000X0.475000X0.250000X-0.475000X0.250000X-0.475000X-0.250000X0*%
%ADD44R,0.340000X0.700000*%
%ADD45RoundRect,0.218750X-0.218750X-0.381250X0.218750X-0.381250X0.218750X0.381250X-0.218750X0.381250X0*%
%ADD46RoundRect,0.135000X0.135000X0.185000X-0.135000X0.185000X-0.135000X-0.185000X0.135000X-0.185000X0*%
%ADD47RoundRect,0.135000X0.185000X-0.135000X0.185000X0.135000X-0.185000X0.135000X-0.185000X-0.135000X0*%
%ADD48RoundRect,0.135000X-0.226274X-0.035355X-0.035355X-0.226274X0.226274X0.035355X0.035355X0.226274X0*%
%ADD49O,1.000000X1.800000*%
%ADD50O,1.000000X2.100000*%
%ADD51C,0.650000*%
%ADD52R,2.000000X0.900000*%
%ADD53RoundRect,0.062500X0.062500X-0.300000X0.062500X0.300000X-0.062500X0.300000X-0.062500X-0.300000X0*%
%ADD54RoundRect,0.140000X0.170000X-0.140000X0.170000X0.140000X-0.170000X0.140000X-0.170000X-0.140000X0*%
%ADD55RoundRect,0.135000X-0.135000X-0.185000X0.135000X-0.185000X0.135000X0.185000X-0.135000X0.185000X0*%
%ADD56RoundRect,0.250000X-0.689429X-0.229810X-0.229810X-0.689429X0.689429X0.229810X0.229810X0.689429X0*%
%ADD57R,2.400000X1.500000*%
%ADD58RoundRect,0.112500X-0.187500X-0.112500X0.187500X-0.112500X0.187500X0.112500X-0.187500X0.112500X0*%
%ADD59RoundRect,0.150000X0.825000X0.150000X-0.825000X0.150000X-0.825000X-0.150000X0.825000X-0.150000X0*%
G04 APERTURE END LIST*
D10*
%TO.C,J13*%
X134450000Y-116085000D03*
X134450000Y-105085000D03*
D11*
X144450000Y-108085000D03*
D12*
X144450000Y-113085000D03*
%TD*%
D13*
%TO.C,C10*%
X166278249Y-122078249D03*
X167621751Y-123421751D03*
%TD*%
D14*
%TO.C,C9*%
X163728249Y-119578249D03*
X165071751Y-120921751D03*
%TD*%
%TO.C,C8*%
X162671751Y-118471751D03*
X161328249Y-117128249D03*
%TD*%
D12*
%TO.C,J2*%
X144450000Y-126985000D03*
D11*
X144450000Y-121985000D03*
D10*
X134450000Y-118985000D03*
X134450000Y-129985000D03*
%TD*%
D15*
%TO.C,JP2*%
X160159619Y-112959619D03*
X159240381Y-112040381D03*
%TD*%
D16*
%TO.C,JP1*%
X177121750Y-112700000D03*
X177121750Y-114000000D03*
%TD*%
D17*
%TO.C,C19*%
X153300000Y-101475000D03*
X153300000Y-98525000D03*
%TD*%
D18*
%TO.C,C17*%
X145668170Y-116406562D03*
X142718170Y-116406562D03*
%TD*%
D19*
%TO.C,J8*%
X147425000Y-140185000D03*
X146875825Y-141510825D03*
X146875825Y-138859175D03*
X145550000Y-142060000D03*
D20*
X145550000Y-140185000D03*
D19*
X145550000Y-138310000D03*
X144224175Y-141510825D03*
X144224175Y-138859175D03*
X143675000Y-140185000D03*
%TD*%
%TO.C,J7*%
X158225000Y-140185000D03*
X157675825Y-141510825D03*
X157675825Y-138859175D03*
X156350000Y-142060000D03*
D20*
X156350000Y-140185000D03*
D19*
X156350000Y-138310000D03*
X155024175Y-141510825D03*
X155024175Y-138859175D03*
X154475000Y-140185000D03*
%TD*%
%TO.C,J6*%
X169025000Y-140185000D03*
X168475825Y-141510825D03*
X168475825Y-138859175D03*
X167150000Y-142060000D03*
D20*
X167150000Y-140185000D03*
D19*
X167150000Y-138310000D03*
X165824175Y-141510825D03*
X165824175Y-138859175D03*
X165275000Y-140185000D03*
%TD*%
D21*
%TO.C,H4*%
X175850000Y-140485000D03*
D22*
X175850000Y-140485000D03*
%TD*%
%TO.C,H3*%
X135850000Y-140485000D03*
D21*
X135850000Y-140485000D03*
%TD*%
%TO.C,H2*%
X175850000Y-100485000D03*
D22*
X175850000Y-100485000D03*
%TD*%
D21*
%TO.C,H1*%
X135850000Y-100485000D03*
D22*
X135850000Y-100485000D03*
%TD*%
D23*
%TO.C,R11*%
X140750000Y-132275000D03*
X140750000Y-138200000D03*
%TD*%
%TO.C,R7*%
X151800000Y-131875000D03*
X151800000Y-137800000D03*
%TD*%
D24*
%TO.C,R28*%
X171475000Y-126350000D03*
X173125000Y-126350000D03*
%TD*%
D25*
%TO.C,R27*%
X171474751Y-127850000D03*
X173124751Y-127850000D03*
%TD*%
D24*
%TO.C,R24*%
X152676011Y-126413195D03*
X154326011Y-126413195D03*
%TD*%
D25*
%TO.C,R23*%
X154325000Y-127925000D03*
X152675000Y-127925000D03*
%TD*%
D26*
%TO.C,R22*%
X168803225Y-100591746D03*
X167636499Y-101758472D03*
%TD*%
D27*
%TO.C,R21*%
X168692150Y-102818609D03*
X169858876Y-101651883D03*
%TD*%
D26*
%TO.C,R20*%
X166705606Y-102687269D03*
X165538880Y-103853995D03*
%TD*%
D27*
%TO.C,R19*%
X166595579Y-104915180D03*
X167762305Y-103748454D03*
%TD*%
%TO.C,R18*%
X163436104Y-105977134D03*
X164602830Y-104810408D03*
%TD*%
D26*
%TO.C,R17*%
X165651591Y-105859168D03*
X164484865Y-107025894D03*
%TD*%
D28*
%TO.C,C31*%
X171525000Y-124850000D03*
X173075000Y-124850000D03*
%TD*%
%TO.C,C29*%
X154278370Y-124937651D03*
X152728370Y-124937651D03*
%TD*%
D29*
%TO.C,C28*%
X167730208Y-99565639D03*
X166634192Y-100661655D03*
%TD*%
%TO.C,C27*%
X165619494Y-101676353D03*
X164523478Y-102772369D03*
%TD*%
D30*
%TO.C,C15*%
X162413042Y-104878876D03*
X163509058Y-103782860D03*
%TD*%
D31*
%TO.C,C11*%
X174148008Y-121223008D03*
X173051992Y-120126992D03*
%TD*%
D32*
%TO.C,R6*%
X159000000Y-126925000D03*
X159000000Y-125275000D03*
%TD*%
D33*
%TO.C,C7*%
X168266341Y-109927184D03*
X169609843Y-108583682D03*
%TD*%
%TO.C,C6*%
X174600000Y-110800000D03*
X173256498Y-112143502D03*
%TD*%
D34*
%TO.C,C33*%
X148325001Y-105354947D03*
X148325001Y-108304947D03*
%TD*%
D35*
%TO.C,C25*%
X163500000Y-126875000D03*
X163500000Y-125325000D03*
%TD*%
D32*
%TO.C,R10*%
X151275000Y-126325000D03*
X151275000Y-127975000D03*
%TD*%
D34*
%TO.C,C21*%
X151565002Y-108299946D03*
X151565002Y-105349946D03*
%TD*%
D36*
%TO.C,R29*%
X174668706Y-116802743D03*
X175389954Y-116081495D03*
%TD*%
D37*
%TO.C,U5*%
X177575000Y-108555000D03*
X177575000Y-107285000D03*
X177575000Y-106015000D03*
X177575000Y-104745000D03*
X172625000Y-104745000D03*
X172625000Y-106015000D03*
X172625000Y-107285000D03*
X172625000Y-108555000D03*
%TD*%
D38*
%TO.C,U1*%
X168861534Y-116056484D03*
D39*
X163964465Y-117064465D03*
X164318018Y-117418018D03*
X164671573Y-117771573D03*
X165025125Y-118125126D03*
X165378678Y-118478678D03*
X165732232Y-118832232D03*
X166085786Y-119185786D03*
X166439340Y-119539340D03*
X166792892Y-119892893D03*
X167146445Y-120246445D03*
X167500000Y-120600000D03*
X167853553Y-120953553D03*
D40*
X169869515Y-120953553D03*
X170223068Y-120600000D03*
X170576623Y-120246445D03*
X170930176Y-119892893D03*
X171283728Y-119539340D03*
X171637282Y-119185786D03*
X171990836Y-118832232D03*
X172344390Y-118478678D03*
X172697943Y-118125126D03*
X173051495Y-117771573D03*
X173405050Y-117418018D03*
X173758603Y-117064465D03*
D39*
X173758603Y-115048503D03*
X173405050Y-114694950D03*
X173051495Y-114341395D03*
X172697943Y-113987842D03*
X172344390Y-113634290D03*
X171990836Y-113280736D03*
X171637282Y-112927182D03*
X171283728Y-112573628D03*
X170930176Y-112220075D03*
X170576623Y-111866523D03*
X170223068Y-111512968D03*
X169869515Y-111159415D03*
D40*
X167853553Y-111159415D03*
X167500000Y-111512968D03*
X167146445Y-111866523D03*
X166792892Y-112220075D03*
X166439340Y-112573628D03*
X166085786Y-112927182D03*
X165732232Y-113280736D03*
X165378678Y-113634290D03*
X165025125Y-113987842D03*
X164671573Y-114341395D03*
X164318018Y-114694950D03*
X163964465Y-115048503D03*
%TD*%
D41*
%TO.C,R14*%
X167729330Y-108463367D03*
X167008082Y-107742119D03*
%TD*%
D23*
%TO.C,R3*%
X171400000Y-137400000D03*
X171400000Y-131475000D03*
%TD*%
D33*
%TO.C,C12*%
X170796955Y-122724494D03*
X172140457Y-121380992D03*
%TD*%
D35*
%TO.C,C24*%
X167050000Y-127125000D03*
X167050000Y-125575000D03*
%TD*%
D32*
%TO.C,R12*%
X155725000Y-126925000D03*
X155725000Y-125275000D03*
%TD*%
D42*
%TO.C,C38*%
X150379236Y-123799998D03*
X150379236Y-120849998D03*
%TD*%
D32*
%TO.C,R8*%
X162000000Y-126925000D03*
X162000000Y-125275000D03*
%TD*%
D33*
%TO.C,C14*%
X175715001Y-120642290D03*
X177058503Y-119298788D03*
%TD*%
D43*
%TO.C,C68*%
X142800000Y-98450000D03*
X142800000Y-100350000D03*
%TD*%
D44*
%TO.C,D8*%
X144635000Y-104275000D03*
X145135000Y-104275000D03*
X145635000Y-104275000D03*
X145635000Y-102775000D03*
X145135000Y-102775000D03*
X144635000Y-102775000D03*
%TD*%
D45*
%TO.C,L3*%
X144472500Y-98547500D03*
X146597500Y-98547500D03*
%TD*%
D46*
%TO.C,R31*%
X148645000Y-100800000D03*
X147625000Y-100800000D03*
%TD*%
D47*
%TO.C,R41*%
X162650000Y-133000000D03*
X162650000Y-134020000D03*
%TD*%
D48*
%TO.C,R15*%
X166337103Y-108405683D03*
X167058351Y-109126931D03*
%TD*%
%TO.C,R13*%
X167683082Y-107067119D03*
X168404330Y-107788367D03*
%TD*%
D32*
%TO.C,TH1*%
X161761004Y-135198943D03*
X161761004Y-136848943D03*
%TD*%
D35*
%TO.C,C26*%
X157200000Y-125325000D03*
X157200000Y-126875000D03*
%TD*%
D49*
%TO.C,J14*%
X140835000Y-99120000D03*
D50*
X140835000Y-103300000D03*
D49*
X149475000Y-99120000D03*
D50*
X149475000Y-103300000D03*
D51*
X142265000Y-102800000D03*
X148045000Y-102800000D03*
%TD*%
D52*
%TO.C,IC2*%
X148800000Y-118287500D03*
D53*
X149800000Y-117275000D03*
X149300000Y-117275000D03*
X148800000Y-117275000D03*
X148300000Y-117275000D03*
X147800000Y-117275000D03*
X147800000Y-119300000D03*
X148300000Y-119300000D03*
X148800000Y-119300000D03*
X149300000Y-119300000D03*
X149800000Y-119300000D03*
%TD*%
D32*
%TO.C,R4*%
X165550000Y-125525000D03*
X165550000Y-127175000D03*
%TD*%
D54*
%TO.C,C23*%
X160050000Y-119045000D03*
X160050000Y-120005000D03*
%TD*%
D55*
%TO.C,R43*%
X141765001Y-101600000D03*
X142785001Y-101600000D03*
%TD*%
D32*
%TO.C,R5*%
X160500000Y-125275000D03*
X160500000Y-126925000D03*
%TD*%
D33*
%TO.C,C13*%
X175668706Y-117902743D03*
X174325204Y-119246245D03*
%TD*%
D18*
%TO.C,C16*%
X145668169Y-118706563D03*
X142718169Y-118706563D03*
%TD*%
D56*
%TO.C,C5*%
X161113771Y-109856188D03*
X163199737Y-111942154D03*
%TD*%
%TO.C,C4*%
X162753471Y-108207017D03*
X164839437Y-110292983D03*
%TD*%
D42*
%TO.C,C37*%
X148074999Y-120850000D03*
X148074999Y-123800000D03*
%TD*%
D57*
%TO.C,L1*%
X149900000Y-110150000D03*
X149900000Y-115650000D03*
%TD*%
D58*
%TO.C,D11*%
X144422500Y-100347500D03*
X146522500Y-100347500D03*
%TD*%
D59*
%TO.C,U2*%
X158325000Y-118580000D03*
X158325000Y-119850000D03*
X158325000Y-121120000D03*
X158325000Y-122390000D03*
X153375000Y-122390000D03*
X153375000Y-121120000D03*
X153375000Y-119850000D03*
X153375000Y-118580000D03*
%TD*%
M02*
