%TF.GenerationSoftware,KiCad,Pcbnew,7.0.7*%
%TF.CreationDate,2023-10-21T19:04:04-04:00*%
%TF.ProjectId,xESC2,78455343-322e-46b6-9963-61645f706362,rev?*%
%TF.SameCoordinates,Original*%
%TF.FileFunction,Soldermask,Bot*%
%TF.FilePolarity,Negative*%
%FSLAX46Y46*%
G04 Gerber Fmt 4.6, Leading zero omitted, Abs format (unit mm)*
G04 Created by KiCad (PCBNEW 7.0.7) date 2023-10-21 19:04:04*
%MOMM*%
%LPD*%
G01*
G04 APERTURE LIST*
G04 Aperture macros list*
%AMRoundRect*
0 Rectangle with rounded corners*
0 $1 Rounding radius*
0 $2 $3 $4 $5 $6 $7 $8 $9 X,Y pos of 4 corners*
0 Add a 4 corners polygon primitive as box body*
4,1,4,$2,$3,$4,$5,$6,$7,$8,$9,$2,$3,0*
0 Add four circle primitives for the rounded corners*
1,1,$1+$1,$2,$3*
1,1,$1+$1,$4,$5*
1,1,$1+$1,$6,$7*
1,1,$1+$1,$8,$9*
0 Add four rect primitives between the rounded corners*
20,1,$1+$1,$2,$3,$4,$5,0*
20,1,$1+$1,$4,$5,$6,$7,0*
20,1,$1+$1,$6,$7,$8,$9,0*
20,1,$1+$1,$8,$9,$2,$3,0*%
G04 Aperture macros list end*
%ADD10R,1.500000X2.400000*%
%ADD11RoundRect,0.249999X0.362501X1.425001X-0.362501X1.425001X-0.362501X-1.425001X0.362501X-1.425001X0*%
%ADD12RoundRect,0.250000X-0.325000X-0.650000X0.325000X-0.650000X0.325000X0.650000X-0.325000X0.650000X0*%
%ADD13RoundRect,0.225000X-0.250000X0.225000X-0.250000X-0.225000X0.250000X-0.225000X0.250000X0.225000X0*%
%ADD14RoundRect,0.250000X0.650000X-0.325000X0.650000X0.325000X-0.650000X0.325000X-0.650000X-0.325000X0*%
%ADD15RoundRect,0.250000X0.475000X-0.250000X0.475000X0.250000X-0.475000X0.250000X-0.475000X-0.250000X0*%
%ADD16RoundRect,0.250000X-0.475000X0.250000X-0.475000X-0.250000X0.475000X-0.250000X0.475000X0.250000X0*%
%ADD17RoundRect,0.250000X0.250000X0.475000X-0.250000X0.475000X-0.250000X-0.475000X0.250000X-0.475000X0*%
%ADD18RoundRect,0.250000X-0.250000X-0.475000X0.250000X-0.475000X0.250000X0.475000X-0.250000X0.475000X0*%
%ADD19C,3.800000*%
%ADD20C,2.600000*%
%ADD21R,1.700000X1.700000*%
%ADD22O,1.700000X1.700000*%
%ADD23R,3.800000X3.800000*%
%ADD24C,4.000000*%
%ADD25C,0.650000*%
%ADD26O,1.000000X2.100000*%
%ADD27O,1.000000X1.800000*%
%ADD28RoundRect,0.200000X0.200000X0.275000X-0.200000X0.275000X-0.200000X-0.275000X0.200000X-0.275000X0*%
%ADD29RoundRect,0.225000X0.225000X0.250000X-0.225000X0.250000X-0.225000X-0.250000X0.225000X-0.250000X0*%
%ADD30RoundRect,0.225000X-0.225000X-0.250000X0.225000X-0.250000X0.225000X0.250000X-0.225000X0.250000X0*%
%ADD31RoundRect,0.200000X-0.200000X-0.275000X0.200000X-0.275000X0.200000X0.275000X-0.200000X0.275000X0*%
%ADD32RoundRect,0.200000X-0.275000X0.200000X-0.275000X-0.200000X0.275000X-0.200000X0.275000X0.200000X0*%
%ADD33RoundRect,0.200000X0.275000X-0.200000X0.275000X0.200000X-0.275000X0.200000X-0.275000X-0.200000X0*%
%ADD34RoundRect,0.249999X0.325001X0.650001X-0.325001X0.650001X-0.325001X-0.650001X0.325001X-0.650001X0*%
%ADD35RoundRect,0.225000X0.250000X-0.225000X0.250000X0.225000X-0.250000X0.225000X-0.250000X-0.225000X0*%
%ADD36R,0.279400X1.340599*%
%ADD37R,1.340599X0.279400*%
%ADD38R,5.003800X5.003800*%
%ADD39R,1.060000X0.650000*%
%ADD40RoundRect,0.150000X0.150000X-0.825000X0.150000X0.825000X-0.150000X0.825000X-0.150000X-0.825000X0*%
%ADD41R,0.340000X0.700000*%
%ADD42RoundRect,0.062500X-0.062500X0.300000X-0.062500X-0.300000X0.062500X-0.300000X0.062500X0.300000X0*%
%ADD43R,2.000000X0.900000*%
%ADD44R,1.000000X1.500000*%
%ADD45RoundRect,0.112500X-0.187500X-0.112500X0.187500X-0.112500X0.187500X0.112500X-0.187500X0.112500X0*%
%ADD46R,1.500000X0.900000*%
%ADD47R,1.500000X1.000000*%
%ADD48RoundRect,0.218750X-0.218750X-0.381250X0.218750X-0.381250X0.218750X0.381250X-0.218750X0.381250X0*%
G04 APERTURE END LIST*
D10*
%TO.C,L1*%
X213900000Y-122700000D03*
X219400000Y-122700000D03*
%TD*%
D11*
%TO.C,R3*%
X271100000Y-126400000D03*
X265175000Y-126400000D03*
%TD*%
D12*
%TO.C,C4*%
X245475000Y-126650000D03*
X248425000Y-126650000D03*
%TD*%
D13*
%TO.C,C36*%
X225810000Y-117600000D03*
X225810000Y-119150000D03*
%TD*%
%TO.C,C35*%
X224300000Y-117600000D03*
X224300000Y-119150000D03*
%TD*%
%TO.C,C34*%
X222810000Y-117600000D03*
X222810000Y-119150000D03*
%TD*%
D14*
%TO.C,C22*%
X218650000Y-112975000D03*
X218650000Y-110025000D03*
%TD*%
D15*
%TO.C,C33*%
X230500000Y-123750000D03*
X230500000Y-125650000D03*
%TD*%
D16*
%TO.C,C32*%
X228750000Y-116650000D03*
X228750000Y-118550000D03*
%TD*%
D15*
%TO.C,C18*%
X233300000Y-125650000D03*
X233300000Y-123750000D03*
%TD*%
%TO.C,C17*%
X223550000Y-112900000D03*
X223550000Y-111000000D03*
%TD*%
D12*
%TO.C,C16*%
X222925000Y-115550000D03*
X225875000Y-115550000D03*
%TD*%
D17*
%TO.C,C7*%
X238750000Y-121400000D03*
X236850000Y-121400000D03*
%TD*%
D18*
%TO.C,C6*%
X249900000Y-132200000D03*
X251800000Y-132200000D03*
%TD*%
D14*
%TO.C,C5*%
X250650000Y-127125000D03*
X250650000Y-130075000D03*
%TD*%
D19*
%TO.C,H4*%
X277050000Y-132050000D03*
D20*
X277050000Y-132050000D03*
%TD*%
D19*
%TO.C,H3*%
X277050000Y-104950000D03*
D20*
X277050000Y-104950000D03*
%TD*%
D19*
%TO.C,H2*%
X214300000Y-110350000D03*
D20*
X214300000Y-110350000D03*
%TD*%
D21*
%TO.C,J10*%
X197090000Y-113800000D03*
D22*
X199630000Y-113800000D03*
X202170000Y-113800000D03*
X204710000Y-113800000D03*
X207250000Y-113800000D03*
X209790000Y-113800000D03*
%TD*%
D21*
%TO.C,J9*%
X197090000Y-118450000D03*
D22*
X199630000Y-118450000D03*
X202170000Y-118450000D03*
X204710000Y-118450000D03*
X207250000Y-118450000D03*
X209790000Y-118450000D03*
%TD*%
D21*
%TO.C,J4*%
X197090000Y-123100000D03*
D22*
X199630000Y-123100000D03*
X202170000Y-123100000D03*
X204710000Y-123100000D03*
X207250000Y-123100000D03*
X209790000Y-123100000D03*
%TD*%
D21*
%TO.C,J11*%
X197090000Y-109150000D03*
D22*
X199630000Y-109150000D03*
X202170000Y-109150000D03*
X204710000Y-109150000D03*
X207250000Y-109150000D03*
X209790000Y-109150000D03*
%TD*%
D21*
%TO.C,J3*%
X197090000Y-127750000D03*
D22*
X199630000Y-127750000D03*
X202170000Y-127750000D03*
X204710000Y-127750000D03*
X207250000Y-127750000D03*
X209790000Y-127750000D03*
%TD*%
D21*
%TO.C,J2*%
X197090000Y-132400000D03*
D22*
X199630000Y-132400000D03*
X202170000Y-132400000D03*
X204710000Y-132400000D03*
X207250000Y-132400000D03*
X209790000Y-132400000D03*
%TD*%
D21*
%TO.C,J12*%
X197090000Y-104500000D03*
D22*
X199630000Y-104500000D03*
X202170000Y-104500000D03*
X204710000Y-104500000D03*
X207250000Y-104500000D03*
X209790000Y-104500000D03*
%TD*%
D21*
%TO.C,J1*%
X227480000Y-105400000D03*
D22*
X230020000Y-105400000D03*
X232560000Y-105400000D03*
X235100000Y-105400000D03*
X237640000Y-105400000D03*
X240180000Y-105400000D03*
%TD*%
D21*
%TO.C,J15*%
X250840000Y-105400000D03*
D22*
X248300000Y-105400000D03*
X245760000Y-105400000D03*
X243220000Y-105400000D03*
%TD*%
D23*
%TO.C,J13*%
X217500000Y-106300000D03*
D24*
X222500000Y-106300000D03*
%TD*%
D25*
%TO.C,J14*%
X216720000Y-128150000D03*
X222500000Y-128150000D03*
D26*
X215290000Y-127650000D03*
D27*
X215290000Y-131830000D03*
D26*
X223930000Y-127650000D03*
D27*
X223930000Y-131830000D03*
%TD*%
D28*
%TO.C,R4*%
X257025000Y-124400000D03*
X255375000Y-124400000D03*
%TD*%
D29*
%TO.C,C15*%
X243475000Y-128450000D03*
X241925000Y-128450000D03*
%TD*%
D30*
%TO.C,C11*%
X244425000Y-110450000D03*
X245975000Y-110450000D03*
%TD*%
D15*
%TO.C,C13*%
X242500000Y-111250000D03*
X242500000Y-109350000D03*
%TD*%
D30*
%TO.C,C25*%
X259125000Y-116400000D03*
X260675000Y-116400000D03*
%TD*%
%TO.C,C26*%
X259125000Y-112400000D03*
X260675000Y-112400000D03*
%TD*%
D28*
%TO.C,R5*%
X257025000Y-118400000D03*
X255375000Y-118400000D03*
%TD*%
%TO.C,R6*%
X257025000Y-120400000D03*
X255375000Y-120400000D03*
%TD*%
D29*
%TO.C,C27*%
X239975000Y-128450000D03*
X238425000Y-128450000D03*
%TD*%
D11*
%TO.C,R7*%
X271100000Y-118400000D03*
X265175000Y-118400000D03*
%TD*%
D29*
%TO.C,C28*%
X236475000Y-128450000D03*
X234925000Y-128450000D03*
%TD*%
D28*
%TO.C,R8*%
X257025000Y-116400000D03*
X255375000Y-116400000D03*
%TD*%
%TO.C,R9*%
X257025000Y-110400000D03*
X255375000Y-110400000D03*
%TD*%
%TO.C,R10*%
X257025000Y-108400000D03*
X255375000Y-108400000D03*
%TD*%
D11*
%TO.C,R11*%
X271062500Y-110400000D03*
X265137500Y-110400000D03*
%TD*%
D31*
%TO.C,R13*%
X247825000Y-128850000D03*
X246175000Y-128850000D03*
%TD*%
D32*
%TO.C,R14*%
X248300000Y-130575000D03*
X248300000Y-132225000D03*
%TD*%
D33*
%TO.C,R15*%
X246050000Y-132275000D03*
X246050000Y-130625000D03*
%TD*%
D31*
%TO.C,R17*%
X241875000Y-125250000D03*
X243525000Y-125250000D03*
%TD*%
D28*
%TO.C,R18*%
X243525000Y-126850000D03*
X241875000Y-126850000D03*
%TD*%
D31*
%TO.C,R19*%
X238375000Y-125250000D03*
X240025000Y-125250000D03*
%TD*%
D28*
%TO.C,R20*%
X240025000Y-126850000D03*
X238375000Y-126850000D03*
%TD*%
D31*
%TO.C,R21*%
X234875000Y-125250000D03*
X236525000Y-125250000D03*
%TD*%
D28*
%TO.C,R22*%
X236525000Y-126850000D03*
X234875000Y-126850000D03*
%TD*%
D31*
%TO.C,R29*%
X244375000Y-108700000D03*
X246025000Y-108700000D03*
%TD*%
D28*
%TO.C,R2*%
X257025000Y-128400000D03*
X255375000Y-128400000D03*
%TD*%
D17*
%TO.C,C12*%
X249950000Y-110600000D03*
X248050000Y-110600000D03*
%TD*%
D18*
%TO.C,C14*%
X248050000Y-108600000D03*
X249950000Y-108600000D03*
%TD*%
D29*
%TO.C,C29*%
X260675000Y-126400000D03*
X259125000Y-126400000D03*
%TD*%
%TO.C,C30*%
X260675000Y-118400000D03*
X259125000Y-118400000D03*
%TD*%
D32*
%TO.C,R25*%
X263000000Y-118775000D03*
X263000000Y-120425000D03*
%TD*%
D29*
%TO.C,C31*%
X260675000Y-110400000D03*
X259125000Y-110400000D03*
%TD*%
D28*
%TO.C,R24*%
X260725000Y-128400000D03*
X259075000Y-128400000D03*
%TD*%
%TO.C,R28*%
X260725000Y-108400000D03*
X259075000Y-108400000D03*
%TD*%
D32*
%TO.C,R23*%
X263000000Y-125575000D03*
X263000000Y-127225000D03*
%TD*%
D28*
%TO.C,R26*%
X260725000Y-120400000D03*
X259075000Y-120400000D03*
%TD*%
D34*
%TO.C,C21*%
X236675000Y-108900000D03*
X233725000Y-108900000D03*
%TD*%
%TO.C,C20*%
X236675000Y-111300000D03*
X233725000Y-111300000D03*
%TD*%
D13*
%TO.C,C9*%
X253800000Y-117625000D03*
X253800000Y-119175000D03*
%TD*%
%TO.C,C8*%
X253800000Y-125625000D03*
X253800000Y-127175000D03*
%TD*%
D35*
%TO.C,C10*%
X253800000Y-111175000D03*
X253800000Y-109625000D03*
%TD*%
D36*
%TO.C,U1*%
X249950000Y-122525501D03*
X249450001Y-122525501D03*
X248949999Y-122525501D03*
X248450000Y-122525501D03*
X247950001Y-122525501D03*
X247450000Y-122525501D03*
X246950000Y-122525501D03*
X246449999Y-122525501D03*
X245950000Y-122525501D03*
X245450001Y-122525501D03*
X244949999Y-122525501D03*
X244450000Y-122525501D03*
D37*
X243024499Y-121100000D03*
X243024499Y-120600001D03*
X243024499Y-120099999D03*
X243024499Y-119600000D03*
X243024499Y-119100001D03*
X243024499Y-118600000D03*
X243024499Y-118100000D03*
X243024499Y-117599999D03*
X243024499Y-117100000D03*
X243024499Y-116600001D03*
X243024499Y-116099999D03*
X243024499Y-115600000D03*
D36*
X244450000Y-114174499D03*
X244949999Y-114174499D03*
X245450001Y-114174499D03*
X245950000Y-114174499D03*
X246449999Y-114174499D03*
X246950000Y-114174499D03*
X247450000Y-114174499D03*
X247950001Y-114174499D03*
X248450000Y-114174499D03*
X248949999Y-114174499D03*
X249450001Y-114174499D03*
X249950000Y-114174499D03*
D37*
X251375501Y-115600000D03*
X251375501Y-116099999D03*
X251375501Y-116600001D03*
X251375501Y-117100000D03*
X251375501Y-117599999D03*
X251375501Y-118100000D03*
X251375501Y-118600000D03*
X251375501Y-119100001D03*
X251375501Y-119600000D03*
X251375501Y-120099999D03*
X251375501Y-120600001D03*
X251375501Y-121100000D03*
D38*
X247200000Y-118350000D03*
%TD*%
D28*
%TO.C,R1*%
X257025000Y-126400000D03*
X255375000Y-126400000D03*
%TD*%
D33*
%TO.C,R27*%
X263000000Y-109825000D03*
X263000000Y-108175000D03*
%TD*%
D28*
%TO.C,R12*%
X257025000Y-112400000D03*
X255375000Y-112400000D03*
%TD*%
D30*
%TO.C,C24*%
X259125000Y-124400000D03*
X260675000Y-124400000D03*
%TD*%
D39*
%TO.C,U2*%
X240700000Y-109250000D03*
X240700000Y-110200000D03*
X240700000Y-111150000D03*
X238500000Y-111150000D03*
X238500000Y-109250000D03*
%TD*%
D40*
%TO.C,U5*%
X236605000Y-119075000D03*
X235335000Y-119075000D03*
X234065000Y-119075000D03*
X232795000Y-119075000D03*
X232795000Y-114125000D03*
X234065000Y-114125000D03*
X235335000Y-114125000D03*
X236605000Y-114125000D03*
%TD*%
D28*
%TO.C,R33*%
X230675000Y-113500000D03*
X229025000Y-113500000D03*
%TD*%
%TO.C,R34*%
X230675000Y-111900000D03*
X229025000Y-111900000D03*
%TD*%
D29*
%TO.C,C45*%
X227525000Y-113500000D03*
X225975000Y-113500000D03*
%TD*%
%TO.C,C46*%
X227525000Y-111900000D03*
X225975000Y-111900000D03*
%TD*%
D28*
%TO.C,R35*%
X230675000Y-110300000D03*
X229025000Y-110300000D03*
%TD*%
%TO.C,R30*%
X230675000Y-115100000D03*
X229025000Y-115100000D03*
%TD*%
D29*
%TO.C,C47*%
X227525000Y-110300000D03*
X225975000Y-110300000D03*
%TD*%
D33*
%TO.C,R41*%
X263000000Y-112825000D03*
X263000000Y-111175000D03*
%TD*%
%TO.C,TH1*%
X263000000Y-117425000D03*
X263000000Y-115775000D03*
%TD*%
D21*
%TO.C,J8*%
X274240000Y-112050000D03*
D22*
X276780000Y-112050000D03*
X274240000Y-109510000D03*
X276780000Y-109510000D03*
%TD*%
D21*
%TO.C,J7*%
X274240000Y-119670000D03*
D22*
X276780000Y-119670000D03*
X274240000Y-117130000D03*
X276780000Y-117130000D03*
%TD*%
D21*
%TO.C,J6*%
X274240000Y-127290000D03*
D22*
X276780000Y-127290000D03*
X274240000Y-124750000D03*
X276780000Y-124750000D03*
%TD*%
D33*
%TO.C,R36*%
X230800000Y-119600000D03*
X230800000Y-117950000D03*
%TD*%
D18*
%TO.C,C68*%
X218300000Y-131650000D03*
X220200000Y-131650000D03*
%TD*%
D41*
%TO.C,D8*%
X226250000Y-128900000D03*
X226750000Y-128900000D03*
X227250000Y-128900000D03*
X227250000Y-130400000D03*
X226750000Y-130400000D03*
X226250000Y-130400000D03*
%TD*%
D13*
%TO.C,C23*%
X221400000Y-111575000D03*
X221400000Y-113125000D03*
%TD*%
D42*
%TO.C,IC2*%
X218130000Y-115272500D03*
X218630000Y-115272500D03*
X219130000Y-115272500D03*
X219630000Y-115272500D03*
X220130000Y-115272500D03*
X220130000Y-117297500D03*
X219630000Y-117297500D03*
X219130000Y-117297500D03*
X218630000Y-117297500D03*
X218130000Y-117297500D03*
D43*
X219130000Y-116285000D03*
%TD*%
D44*
%TO.C,JP1*%
X241450000Y-113900000D03*
X242750000Y-113900000D03*
%TD*%
D18*
%TO.C,C55*%
X214050000Y-115150000D03*
X215950000Y-115150000D03*
%TD*%
%TO.C,C56*%
X214050000Y-117400000D03*
X215950000Y-117400000D03*
%TD*%
D45*
%TO.C,D11*%
X218200000Y-129400000D03*
X220300000Y-129400000D03*
%TD*%
D46*
%TO.C,IC3*%
X222200000Y-124600000D03*
X222200000Y-121300000D03*
X227100000Y-121300000D03*
X227100000Y-124600000D03*
%TD*%
D47*
%TO.C,JP2*%
X240000000Y-132200000D03*
X240000000Y-130900000D03*
%TD*%
D31*
%TO.C,R82*%
X230925000Y-129650000D03*
X232575000Y-129650000D03*
%TD*%
D29*
%TO.C,C70*%
X232525000Y-131150000D03*
X230975000Y-131150000D03*
%TD*%
D48*
%TO.C,L3*%
X218187500Y-127400000D03*
X220312500Y-127400000D03*
%TD*%
G36*
X278425500Y-115819962D02*
G01*
X278480038Y-115874500D01*
X278500000Y-115949000D01*
X278500000Y-120851000D01*
X278480038Y-120925500D01*
X278425500Y-120980038D01*
X278351000Y-121000000D01*
X272549000Y-121000000D01*
X272474500Y-120980038D01*
X272419962Y-120925500D01*
X272400000Y-120851000D01*
X272400000Y-115949000D01*
X272419962Y-115874500D01*
X272474500Y-115819962D01*
X272549000Y-115800000D01*
X278351000Y-115800000D01*
X278425500Y-115819962D01*
G37*
G36*
X278425500Y-123819962D02*
G01*
X278480038Y-123874500D01*
X278500000Y-123949000D01*
X278500000Y-128851000D01*
X278480038Y-128925500D01*
X278425500Y-128980038D01*
X278351000Y-129000000D01*
X272549000Y-129000000D01*
X272474500Y-128980038D01*
X272419962Y-128925500D01*
X272400000Y-128851000D01*
X272400000Y-123949000D01*
X272419962Y-123874500D01*
X272474500Y-123819962D01*
X272549000Y-123800000D01*
X278351000Y-123800000D01*
X278425500Y-123819962D01*
G37*
G36*
X278425500Y-107819962D02*
G01*
X278480038Y-107874500D01*
X278500000Y-107949000D01*
X278500000Y-112851000D01*
X278480038Y-112925500D01*
X278425500Y-112980038D01*
X278351000Y-113000000D01*
X272549000Y-113000000D01*
X272474500Y-112980038D01*
X272419962Y-112925500D01*
X272400000Y-112851000D01*
X272400000Y-107949000D01*
X272419962Y-107874500D01*
X272474500Y-107819962D01*
X272549000Y-107800000D01*
X278351000Y-107800000D01*
X278425500Y-107819962D01*
G37*
M02*
