%TF.GenerationSoftware,KiCad,Pcbnew,7.0.7*%
%TF.CreationDate,2023-10-21T19:04:04-04:00*%
%TF.ProjectId,xESC2,78455343-322e-46b6-9963-61645f706362,rev?*%
%TF.SameCoordinates,Original*%
%TF.FileFunction,Paste,Top*%
%TF.FilePolarity,Positive*%
%FSLAX46Y46*%
G04 Gerber Fmt 4.6, Leading zero omitted, Abs format (unit mm)*
G04 Created by KiCad (PCBNEW 7.0.7) date 2023-10-21 19:04:04*
%MOMM*%
%LPD*%
G01*
G04 APERTURE LIST*
G04 Aperture macros list*
%AMRoundRect*
0 Rectangle with rounded corners*
0 $1 Rounding radius*
0 $2 $3 $4 $5 $6 $7 $8 $9 X,Y pos of 4 corners*
0 Add a 4 corners polygon primitive as box body*
4,1,4,$2,$3,$4,$5,$6,$7,$8,$9,$2,$3,0*
0 Add four circle primitives for the rounded corners*
1,1,$1+$1,$2,$3*
1,1,$1+$1,$4,$5*
1,1,$1+$1,$6,$7*
1,1,$1+$1,$8,$9*
0 Add four rect primitives between the rounded corners*
20,1,$1+$1,$2,$3,$4,$5,0*
20,1,$1+$1,$4,$5,$6,$7,0*
20,1,$1+$1,$6,$7,$8,$9,0*
20,1,$1+$1,$8,$9,$2,$3,0*%
G04 Aperture macros list end*
%ADD10RoundRect,0.250000X0.475000X-0.250000X0.475000X0.250000X-0.475000X0.250000X-0.475000X-0.250000X0*%
%ADD11RoundRect,0.218750X-0.218750X-0.256250X0.218750X-0.256250X0.218750X0.256250X-0.218750X0.256250X0*%
%ADD12RoundRect,0.200000X0.200000X0.275000X-0.200000X0.275000X-0.200000X-0.275000X0.200000X-0.275000X0*%
%ADD13RoundRect,0.200000X-0.200000X-0.275000X0.200000X-0.275000X0.200000X0.275000X-0.200000X0.275000X0*%
%ADD14RoundRect,0.218750X0.218750X0.256250X-0.218750X0.256250X-0.218750X-0.256250X0.218750X-0.256250X0*%
%ADD15RoundRect,0.249999X0.650001X-0.325001X0.650001X0.325001X-0.650001X0.325001X-0.650001X-0.325001X0*%
%ADD16R,1.500000X1.500000*%
%ADD17R,0.750000X0.500000*%
%ADD18R,0.750000X0.400000*%
%ADD19R,1.000000X0.900000*%
%ADD20R,0.900000X1.500000*%
%ADD21R,1.500000X0.900000*%
%ADD22R,0.900000X0.900000*%
%ADD23R,0.600000X1.150000*%
%ADD24R,0.300000X1.150000*%
%ADD25O,1.000000X2.100000*%
%ADD26O,1.000000X1.800000*%
%ADD27RoundRect,0.200000X0.275000X-0.200000X0.275000X0.200000X-0.275000X0.200000X-0.275000X-0.200000X0*%
%ADD28R,1.050000X0.450000*%
%ADD29R,0.882000X0.537000*%
G04 APERTURE END LIST*
D10*
%TO.C,C19*%
X226550000Y-130550000D03*
X226550000Y-128650000D03*
%TD*%
D11*
%TO.C,D4*%
X229412500Y-132000000D03*
X230987500Y-132000000D03*
%TD*%
D12*
%TO.C,R42*%
X236175000Y-132000000D03*
X237825000Y-132000000D03*
%TD*%
D13*
%TO.C,R38*%
X232675000Y-132000000D03*
X234325000Y-132000000D03*
%TD*%
D12*
%TO.C,R37*%
X237825000Y-130300000D03*
X236175000Y-130300000D03*
%TD*%
D14*
%TO.C,D5*%
X239412500Y-132000000D03*
X240987500Y-132000000D03*
%TD*%
%TO.C,D3*%
X240987500Y-130300000D03*
X239412500Y-130300000D03*
%TD*%
D13*
%TO.C,R16*%
X253215000Y-131760000D03*
X254865000Y-131760000D03*
%TD*%
D11*
%TO.C,D2*%
X253252500Y-130160000D03*
X254827500Y-130160000D03*
%TD*%
D12*
%TO.C,R39*%
X255725000Y-105900000D03*
X254075000Y-105900000D03*
%TD*%
D13*
%TO.C,R40*%
X254075000Y-104300000D03*
X255725000Y-104300000D03*
%TD*%
D15*
%TO.C,C1*%
X254000000Y-127875000D03*
X254000000Y-124925000D03*
%TD*%
%TO.C,C2*%
X254000000Y-119875000D03*
X254000000Y-116925000D03*
%TD*%
D16*
%TO.C,Q1*%
X259200000Y-127250000D03*
X259200000Y-125550000D03*
X257500000Y-127250000D03*
X257500000Y-125550000D03*
D17*
X256095000Y-128305000D03*
X256095000Y-127035000D03*
X256095000Y-125765000D03*
X256095000Y-124495000D03*
D18*
X261900000Y-128305000D03*
X261900000Y-127035000D03*
X261900000Y-125765000D03*
X261900000Y-124495000D03*
%TD*%
D16*
%TO.C,Q3*%
X259200000Y-119250000D03*
X259200000Y-117550000D03*
X257500000Y-119250000D03*
X257500000Y-117550000D03*
D17*
X256095000Y-120305000D03*
X256095000Y-119035000D03*
X256095000Y-117765000D03*
X256095000Y-116495000D03*
D18*
X261900000Y-120305000D03*
X261900000Y-119035000D03*
X261900000Y-117765000D03*
X261900000Y-116495000D03*
%TD*%
D16*
%TO.C,Q5*%
X259200000Y-111250000D03*
X259200000Y-109550000D03*
X257500000Y-111250000D03*
X257500000Y-109550000D03*
D17*
X256095000Y-112305000D03*
X256095000Y-111035000D03*
X256095000Y-109765000D03*
X256095000Y-108495000D03*
D18*
X261900000Y-112305000D03*
X261900000Y-111035000D03*
X261900000Y-109765000D03*
X261900000Y-108495000D03*
%TD*%
D16*
%TO.C,Q6*%
X268200000Y-111250000D03*
X268200000Y-109550000D03*
X266500000Y-111250000D03*
X266500000Y-109550000D03*
D17*
X265095000Y-112305000D03*
X265095000Y-111035000D03*
X265095000Y-109765000D03*
X265095000Y-108495000D03*
D18*
X270900000Y-112305000D03*
X270900000Y-111035000D03*
X270900000Y-109765000D03*
X270900000Y-108495000D03*
%TD*%
D16*
%TO.C,Q4*%
X268200000Y-119250000D03*
X268200000Y-117550000D03*
X266500000Y-119250000D03*
X266500000Y-117550000D03*
D17*
X265095000Y-120305000D03*
X265095000Y-119035000D03*
X265095000Y-117765000D03*
X265095000Y-116495000D03*
D18*
X270900000Y-120305000D03*
X270900000Y-119035000D03*
X270900000Y-117765000D03*
X270900000Y-116495000D03*
%TD*%
D16*
%TO.C,Q2*%
X268200000Y-127250000D03*
X268200000Y-125550000D03*
X266500000Y-127250000D03*
X266500000Y-125550000D03*
D17*
X265095000Y-128305000D03*
X265095000Y-127035000D03*
X265095000Y-125765000D03*
X265095000Y-124495000D03*
D18*
X270900000Y-128305000D03*
X270900000Y-127035000D03*
X270900000Y-125765000D03*
X270900000Y-124495000D03*
%TD*%
D15*
%TO.C,C3*%
X254000000Y-111875000D03*
X254000000Y-108925000D03*
%TD*%
D19*
%TO.C,SW3*%
X225100000Y-120100000D03*
X225100000Y-124200000D03*
X223500000Y-120100000D03*
X223500000Y-124200000D03*
%TD*%
D20*
%TO.C,U8*%
X230540000Y-127565000D03*
X231810000Y-127565000D03*
X233080000Y-127565000D03*
X234350000Y-127565000D03*
X235620000Y-127565000D03*
X236890000Y-127565000D03*
X238160000Y-127565000D03*
X239430000Y-127565000D03*
X240700000Y-127565000D03*
X241970000Y-127565000D03*
X243240000Y-127565000D03*
X244510000Y-127565000D03*
X245780000Y-127565000D03*
X247050000Y-127565000D03*
D21*
X248300000Y-125800000D03*
X248300000Y-124530000D03*
X248300000Y-123260000D03*
X248300000Y-121990000D03*
X248300000Y-120720000D03*
X248300000Y-119450000D03*
X248300000Y-118180000D03*
X248300000Y-116910000D03*
X248300000Y-115640000D03*
X248300000Y-114370000D03*
X248300000Y-113100000D03*
X248300000Y-111830000D03*
D20*
X247050000Y-110065000D03*
X245780000Y-110065000D03*
X244510000Y-110065000D03*
X243240000Y-110065000D03*
X241970000Y-110065000D03*
X240700000Y-110065000D03*
X239430000Y-110065000D03*
X238160000Y-110065000D03*
X236890000Y-110065000D03*
X235620000Y-110065000D03*
X234350000Y-110065000D03*
X233080000Y-110065000D03*
X231810000Y-110065000D03*
X230540000Y-110065000D03*
D22*
X236860000Y-121715000D03*
X238260000Y-121715000D03*
X239660000Y-121715000D03*
X236860000Y-120315000D03*
X238260000Y-120315000D03*
X239660000Y-120315000D03*
X236860000Y-118915000D03*
X238260000Y-118915000D03*
X239660000Y-118915000D03*
%TD*%
D19*
%TO.C,SW1*%
X216600000Y-113650000D03*
X216600000Y-117750000D03*
X215000000Y-113650000D03*
X215000000Y-117750000D03*
%TD*%
D21*
%TO.C,IC4*%
X221800000Y-114000000D03*
X221800000Y-117300000D03*
X226700000Y-117300000D03*
X226700000Y-114000000D03*
%TD*%
D23*
%TO.C,J14*%
X216410000Y-127075000D03*
X217210000Y-127075000D03*
D24*
X218360000Y-127075000D03*
X219360000Y-127075000D03*
X219860000Y-127075000D03*
X220860000Y-127075000D03*
D23*
X222010000Y-127075000D03*
X222810000Y-127075000D03*
X222810000Y-127075000D03*
X222010000Y-127075000D03*
D24*
X221360000Y-127075000D03*
X220360000Y-127075000D03*
X218860000Y-127075000D03*
X217860000Y-127075000D03*
D23*
X217210000Y-127075000D03*
X216410000Y-127075000D03*
D25*
X215290000Y-127650000D03*
D26*
X215290000Y-131830000D03*
D25*
X223930000Y-127650000D03*
D26*
X223930000Y-131830000D03*
%TD*%
D27*
%TO.C,R31*%
X212750000Y-128725000D03*
X212750000Y-127075000D03*
%TD*%
D28*
%TO.C,IC1*%
X219790000Y-124332500D03*
X219790000Y-123682500D03*
X219790000Y-123032500D03*
X219790000Y-122382500D03*
X219790000Y-121732500D03*
X219790000Y-121082500D03*
X219790000Y-120432500D03*
X219790000Y-119782500D03*
X214240000Y-119782500D03*
X214240000Y-120432500D03*
X214240000Y-121082500D03*
X214240000Y-121732500D03*
X214240000Y-122382500D03*
X214240000Y-123032500D03*
X214240000Y-123682500D03*
X214240000Y-124332500D03*
D29*
X217750000Y-123400000D03*
X217750000Y-122505000D03*
X217750000Y-121610000D03*
X217750000Y-120715000D03*
X216280000Y-123400000D03*
X216280000Y-122505000D03*
X216280000Y-121610000D03*
X216280000Y-120715000D03*
%TD*%
D11*
%TO.C,D1*%
X229412500Y-130300000D03*
X230987500Y-130300000D03*
%TD*%
D13*
%TO.C,R32*%
X232675000Y-130300000D03*
X234325000Y-130300000D03*
%TD*%
M02*
