M48
; DRILL file {KiCad 7.0.10} date Fri Jan 26 16:50:52 2024
; FORMAT={-:-/ absolute / metric / decimal}
; #@! TF.CreationDate,2024-01-26T16:50:52-05:00
; #@! TF.GenerationSoftware,Kicad,Pcbnew,7.0.10
; #@! TF.FileFunction,Plated,1,4,PTH
FMAT,2
METRIC
; #@! TA.AperFunction,Plated,PTH,ViaDrill
T1C0.200
; #@! TA.AperFunction,Plated,PTH,ComponentDrill
T2C0.200
; #@! TA.AperFunction,Plated,PTH,ViaDrill
T3C0.260
; #@! TA.AperFunction,Plated,PTH,ComponentDrill
T4C0.300
; #@! TA.AperFunction,Plated,PTH,ComponentDrill
T5C0.500
; #@! TA.AperFunction,Plated,PTH,ComponentDrill
T6C0.600
; #@! TA.AperFunction,Plated,PTH,ComponentDrill
T7C1.000
; #@! TA.AperFunction,Plated,PTH,ComponentDrill
T8C1.900
; #@! TA.AperFunction,Plated,PTH,ComponentDrill
T9C2.500
; #@! TA.AperFunction,Plated,PTH,ComponentDrill
T10C3.200
%
G90
G05
T1
X133.5Y-132.6
X133.5Y-133.6
X133.5Y-134.6
X133.5Y-135.6
X134.0Y-132.1
X134.0Y-133.1
X134.0Y-134.1
X134.0Y-135.1
X134.0Y-136.1
X134.5Y-132.6
X134.5Y-133.6
X134.5Y-134.6
X134.5Y-135.6
X134.6Y-125.6
X135.0Y-132.1
X135.0Y-133.1
X135.0Y-134.1
X135.0Y-135.1
X135.0Y-136.1
X135.15Y-113.95
X137.325Y-129.975
X141.6Y-139.7
X141.6Y-140.7
X141.6Y-141.7
X141.6Y-142.7
X142.1Y-140.2
X142.1Y-141.2
X142.1Y-142.2
X142.6Y-141.7
X142.6Y-142.7
X143.0Y-119.6
X143.1Y-142.2
X143.435Y-102.87
X143.6Y-142.7
X143.81Y-129.765
X143.81Y-130.715
X143.81Y-131.715
X143.81Y-132.665
X143.81Y-133.665
X144.1Y-102.5
X144.2Y-115.675
X144.25Y-118.4
X144.275Y-116.775
X144.69Y-101.927
X144.76Y-129.765
X144.76Y-130.715
X144.76Y-131.715
X144.76Y-132.665
X144.76Y-133.665
X145.3Y-100.8
X145.71Y-129.765
X145.71Y-130.715
X145.71Y-131.715
X145.71Y-132.665
X145.71Y-133.665
X145.9Y-101.927
X146.0Y-110.675
X146.025Y-116.525
X146.435Y-102.92
X146.66Y-129.765
X146.66Y-130.715
X146.66Y-131.715
X146.66Y-132.665
X146.66Y-133.665
X147.0Y-116.4
X147.0Y-126.0
X147.4Y-142.7
X147.5Y-115.9
X147.61Y-129.765
X147.61Y-130.715
X147.61Y-131.715
X147.61Y-132.665
X147.61Y-133.665
X147.9Y-142.2
X148.0Y-116.4
X148.4Y-134.175
X148.4Y-141.7
X148.4Y-142.7
X148.5Y-115.9
X148.685Y-102.12
X148.7Y-113.4
X148.8Y-126.25
X148.8Y-127.4
X148.8Y-128.2
X148.9Y-118.5
X149.0Y-116.4
X149.0Y-117.4
X149.3Y-127.1
X149.3Y-127.8
X149.3Y-128.6
X149.4Y-139.0
X149.4Y-140.0
X149.4Y-141.0
X149.4Y-142.0
X149.5Y-115.9
X149.5Y-116.9
X149.6Y-109.0
X149.9Y-139.5
X149.9Y-140.5
X149.9Y-141.5
X149.9Y-142.5
X150.0Y-116.4
X150.1Y-113.4
X150.225Y-130.4
X150.3Y-106.1
X150.3Y-120.7
X150.35Y-126.15
X150.4Y-141.0
X150.4Y-142.0
X150.5Y-115.9
X150.9Y-142.5
X151.05Y-119.05
X152.48Y-142.672
X152.48Y-141.672
X152.48Y-139.672
X152.48Y-140.672
X152.6Y-117.65
X152.98Y-142.172
X152.98Y-139.172
X152.98Y-140.172
X152.98Y-141.172
X153.037Y-100.512
X153.075Y-99.375
X153.1Y-107.85
X153.4Y-113.5
X153.4Y-114.2
X153.48Y-141.672
X153.48Y-142.672
X153.534Y-109.05
X153.6Y-129.4
X153.815Y-111.775
X153.95Y-109.5
X153.98Y-142.172
X154.025Y-113.975
X154.2Y-128.9
X154.464Y-111.836
X154.48Y-142.672
X154.653Y-112.807
X155.0Y-122.15
X155.375Y-111.5
X155.766Y-110.95
X156.133Y-112.892
X156.25Y-115.3
X156.718Y-112.895
X156.8Y-128.0
X156.85Y-118.7
X156.85Y-103.487
X157.0Y-122.1
X157.25Y-98.5
X157.28Y-129.4
X157.28Y-130.35
X157.28Y-131.35
X157.28Y-132.3
X157.28Y-133.3
X157.3Y-112.9
X157.55Y-124.35
X157.7Y-115.3
X158.23Y-130.35
X158.23Y-133.3
X158.23Y-129.4
X158.23Y-131.35
X158.23Y-132.3
X158.28Y-142.672
X158.4Y-128.5
X158.675Y-117.875
X158.78Y-142.172
X158.9Y-115.3
X158.9Y-127.9
X159.15Y-101.975
X159.18Y-129.4
X159.18Y-130.35
X159.18Y-131.35
X159.18Y-132.3
X159.18Y-133.3
X159.25Y-98.5
X159.28Y-141.672
X159.28Y-142.672
X159.4Y-128.5
X159.598Y-102.441
X159.606Y-117.869
X159.679Y-122.35
X159.75Y-124.525
X159.815Y-118.426
X159.9Y-127.9
X160.075Y-102.865
X160.13Y-129.4
X160.13Y-130.35
X160.13Y-131.35
X160.13Y-132.3
X160.13Y-133.3
X160.2Y-115.3
X160.3Y-128.5
X160.5Y-136.2
X160.575Y-104.325
X160.8Y-139.0
X160.8Y-140.0
X160.8Y-141.0
X160.8Y-142.0
X161.0Y-98.5
X161.08Y-129.4
X161.08Y-130.35
X161.08Y-131.35
X161.08Y-132.3
X161.08Y-133.3
X161.25Y-118.35
X161.3Y-101.6
X161.3Y-138.5
X161.3Y-139.5
X161.3Y-140.5
X161.3Y-141.5
X161.3Y-142.5
X161.45Y-128.425
X161.5Y-115.3
X161.5Y-119.0
X161.8Y-101.1
X161.8Y-139.0
X161.8Y-140.0
X161.8Y-141.0
X161.8Y-142.0
X162.25Y-107.25
X162.3Y-138.5
X162.3Y-139.5
X162.3Y-140.5
X162.3Y-141.5
X162.3Y-142.5
X162.7Y-114.215
X162.777Y-131.2
X162.777Y-132.25
X162.8Y-139.0
X162.8Y-140.0
X162.8Y-141.0
X162.8Y-142.0
X162.9Y-115.4
X162.9Y-134.9
X162.975Y-100.2
X163.0Y-98.5
X163.15Y-127.95
X163.8Y-106.1
X164.122Y-121.734
X164.15Y-123.15
X164.3Y-137.6
X164.3Y-138.6
X164.3Y-141.7
X164.3Y-142.7
X164.35Y-109.1
X164.41Y-129.4
X164.41Y-130.35
X164.41Y-131.35
X164.41Y-132.3
X164.41Y-133.3
X164.8Y-138.1
X164.8Y-142.2
X165.0Y-98.5
X165.05Y-123.75
X165.175Y-100.175
X165.3Y-137.6
X165.3Y-142.7
X165.36Y-129.4
X165.36Y-130.35
X165.36Y-131.35
X165.36Y-132.3
X165.36Y-133.3
X165.569Y-108.031
X165.9Y-110.75
X166.0Y-99.85
X166.0Y-105.5
X166.11Y-123.523
X166.31Y-129.4
X166.31Y-130.35
X166.31Y-131.35
X166.31Y-132.3
X166.31Y-133.3
X166.39Y-101.261
X166.55Y-123.15
X166.675Y-104.7
X166.744Y-107.144
X166.75Y-124.55
X166.776Y-99.844
X166.874Y-104.138
X166.877Y-101.755
X166.952Y-102.864
X166.955Y-103.567
X166.975Y-115.35
X167.01Y-118.24
X167.208Y-106.021
X167.244Y-106.644
X167.26Y-129.4
X167.26Y-130.35
X167.26Y-131.35
X167.26Y-132.3
X167.26Y-133.3
X167.452Y-102.17
X167.775Y-115.325
X168.21Y-129.4
X168.21Y-130.35
X168.21Y-131.35
X168.21Y-132.3
X168.21Y-133.3
X168.35Y-121.6
X168.85Y-120.25
X168.9Y-118.475
X169.3Y-142.7
X169.8Y-142.2
X170.3Y-138.7
X170.3Y-139.7
X170.3Y-140.7
X170.3Y-141.7
X170.3Y-142.7
X170.319Y-126.931
X170.452Y-107.925
X170.65Y-105.85
X170.844Y-118.144
X170.885Y-105.232
X171.025Y-108.625
X171.05Y-107.675
X171.1Y-103.5
X171.2Y-104.5
X171.2Y-109.2
X171.547Y-110.291
X171.65Y-109.7
X171.8Y-100.205
X171.95Y-129.15
X172.134Y-110.292
X172.419Y-109.681
X172.6Y-111.25
X172.675Y-110.625
X172.7Y-102.85
X172.85Y-123.05
X174.1Y-104.65
X174.275Y-105.3
X174.3Y-126.0
X174.3Y-127.0
X174.3Y-128.0
X174.3Y-129.0
X174.65Y-112.15
X174.75Y-114.95
X174.8Y-126.5
X174.8Y-127.5
X174.8Y-128.5
X174.875Y-107.375
X175.106Y-105.6
X175.17Y-123.985
X175.175Y-109.825
X175.2Y-104.9
X175.2Y-114.4
X175.3Y-126.0
X175.3Y-127.0
X175.3Y-128.0
X175.3Y-129.0
X175.385Y-111.825
X175.4Y-113.8
X175.8Y-126.5
X175.8Y-127.5
X175.8Y-128.5
X175.9Y-113.4
X175.966Y-114.196
X176.1Y-106.55
X176.2Y-116.1
X176.25Y-107.45
X176.6Y-117.4
X177.4Y-110.5
X177.475Y-120.475
X177.9Y-126.15
T2
X157.7Y-105.99
X157.7Y-107.39
X158.4Y-105.29
X158.4Y-106.69
X158.4Y-108.09
X159.1Y-105.99
X159.1Y-107.39
X159.8Y-105.29
X159.8Y-106.69
X159.8Y-108.09
X160.5Y-105.99
X160.5Y-107.39
T3
X136.6Y-133.2
X136.6Y-134.2
X136.6Y-135.2
X136.6Y-136.2
X137.1Y-135.7
X137.1Y-132.7
X137.1Y-133.7
X137.1Y-134.7
X137.105Y-136.7
X139.05Y-133.65
X139.05Y-134.65
X139.05Y-135.65
X140.03Y-133.65
X140.05Y-134.65
X140.05Y-135.65
X141.05Y-133.61
X141.05Y-134.65
X141.05Y-135.65
X143.25Y-134.7
X143.25Y-136.55
X144.25Y-134.7
X144.25Y-136.55
X145.25Y-134.7
X145.25Y-136.55
X146.25Y-134.7
X146.25Y-136.55
X149.795Y-132.75
X149.8Y-133.75
X149.8Y-134.75
X149.8Y-135.75
X150.3Y-133.25
X150.3Y-134.25
X150.3Y-135.25
X150.3Y-136.25
X152.45Y-133.2
X152.45Y-134.2
X152.45Y-135.2
X153.45Y-133.2
X153.45Y-134.2
X153.45Y-135.2
X154.45Y-133.2
X154.45Y-134.2
X154.45Y-135.2
X156.55Y-134.3
X156.55Y-136.3
X157.55Y-134.3
X157.55Y-136.3
X158.55Y-134.3
X158.55Y-136.3
X159.55Y-134.3
X159.55Y-136.3
X164.75Y-134.3
X164.75Y-136.25
X165.75Y-134.3
X165.75Y-136.25
X166.75Y-134.3
X166.75Y-136.25
X167.75Y-134.3
X167.75Y-136.25
X168.75Y-136.25
X171.0Y-133.2
X171.0Y-134.2
X171.0Y-135.2
X172.0Y-133.2
X172.0Y-134.2
X172.0Y-135.2
X173.0Y-133.2
X173.0Y-134.2
X173.0Y-135.2
X174.81Y-131.75
X174.81Y-132.75
X174.81Y-133.75
X174.81Y-134.75
X174.81Y-135.75
X175.31Y-132.25
X175.31Y-133.25
X175.31Y-134.25
X175.31Y-135.25
T4
X137.275Y-123.05
X137.275Y-124.55
X137.775Y-123.8
X138.275Y-123.05
X138.275Y-124.55
T5
X143.675Y-140.185
X144.224Y-138.859
X144.224Y-141.511
X145.55Y-138.31
X145.55Y-142.06
X146.876Y-138.859
X146.876Y-141.511
X147.425Y-140.185
X154.475Y-140.185
X155.024Y-138.859
X155.024Y-141.511
X156.35Y-138.31
X156.35Y-142.06
X157.676Y-138.859
X157.676Y-141.511
X158.225Y-140.185
X165.275Y-140.185
X165.824Y-138.859
X165.824Y-141.511
X167.15Y-138.31
X167.15Y-142.06
X168.476Y-138.859
X168.476Y-141.511
X169.025Y-140.185
T7
X134.45Y-105.085
X134.45Y-116.085
X134.45Y-118.985
X134.45Y-129.985
T8
X144.45Y-108.085
X144.45Y-113.085
X144.45Y-121.985
X144.45Y-126.985
T9
X145.55Y-140.185
X156.35Y-140.185
X167.15Y-140.185
T10
X135.85Y-100.485
X135.85Y-140.485
X175.85Y-100.485
X175.85Y-140.485
T6
X140.835Y-99.52G85X140.835Y-98.72
G05
X140.835Y-103.85G85X140.835Y-102.75
G05
X149.475Y-99.52G85X149.475Y-98.72
G05
X149.475Y-103.85G85X149.475Y-102.75
G05
M30
