%TF.GenerationSoftware,KiCad,Pcbnew,7.0.10*%
%TF.CreationDate,2024-01-24T13:37:08-05:00*%
%TF.ProjectId,MiniBLDC,4d696e69-424c-4444-932e-6b696361645f,rev?*%
%TF.SameCoordinates,Original*%
%TF.FileFunction,Drillmap*%
%TF.FilePolarity,Positive*%
%FSLAX45Y45*%
G04 Gerber Fmt 4.5, Leading zero omitted, Abs format (unit mm)*
G04 Created by KiCad (PCBNEW 7.0.10) date 2024-01-24 13:37:08*
%MOMM*%
%LPD*%
G01*
G04 APERTURE LIST*
%ADD10C,0.050000*%
%ADD11C,0.200000*%
%ADD12C,0.100000*%
%ADD13C,0.190000*%
%ADD14C,0.250000*%
%ADD15C,0.320000*%
G04 APERTURE END LIST*
D10*
X13585000Y-9748500D02*
G75*
G03*
X13285000Y-10048500I0J-300000D01*
G01*
X13285000Y-14048500D02*
G75*
G03*
X13585000Y-14348500I300000J0D01*
G01*
X13285000Y-14048500D02*
X13285000Y-10048500D01*
X17885000Y-10048500D02*
G75*
G03*
X17585000Y-9748500I-300000J0D01*
G01*
X13585000Y-9748500D02*
X17585000Y-9748500D01*
X17585000Y-14348500D02*
G75*
G03*
X17885000Y-14048500I0J300000D01*
G01*
X17585000Y-14348500D02*
X13585000Y-14348500D01*
X17885000Y-10048500D02*
X17885000Y-14048500D01*
D11*
D12*
X13340000Y-13250000D02*
X13360000Y-13270000D01*
X13360000Y-13250000D02*
X13340000Y-13270000D01*
X13340000Y-13350000D02*
X13360000Y-13370000D01*
X13360000Y-13350000D02*
X13340000Y-13370000D01*
X13340000Y-13450000D02*
X13360000Y-13470000D01*
X13360000Y-13450000D02*
X13340000Y-13470000D01*
X13340000Y-13550000D02*
X13360000Y-13570000D01*
X13360000Y-13550000D02*
X13340000Y-13570000D01*
X13390000Y-13200000D02*
X13410000Y-13220000D01*
X13410000Y-13200000D02*
X13390000Y-13220000D01*
X13390000Y-13300000D02*
X13410000Y-13320000D01*
X13410000Y-13300000D02*
X13390000Y-13320000D01*
X13390000Y-13400000D02*
X13410000Y-13420000D01*
X13410000Y-13400000D02*
X13390000Y-13420000D01*
X13390000Y-13500000D02*
X13410000Y-13520000D01*
X13410000Y-13500000D02*
X13390000Y-13520000D01*
X13390000Y-13600000D02*
X13410000Y-13620000D01*
X13410000Y-13600000D02*
X13390000Y-13620000D01*
X13430000Y-10740000D02*
X13450000Y-10760000D01*
X13450000Y-10740000D02*
X13430000Y-10760000D01*
X13430000Y-10940000D02*
X13450000Y-10960000D01*
X13450000Y-10940000D02*
X13430000Y-10960000D01*
X13430000Y-11140000D02*
X13450000Y-11160000D01*
X13450000Y-11140000D02*
X13430000Y-11160000D01*
X13430000Y-11340000D02*
X13450000Y-11360000D01*
X13450000Y-11340000D02*
X13430000Y-11360000D01*
X13430000Y-12130000D02*
X13450000Y-12150000D01*
X13450000Y-12130000D02*
X13430000Y-12150000D01*
X13430000Y-12330000D02*
X13450000Y-12350000D01*
X13450000Y-12330000D02*
X13430000Y-12350000D01*
X13440000Y-13250000D02*
X13460000Y-13270000D01*
X13460000Y-13250000D02*
X13440000Y-13270000D01*
X13440000Y-13350000D02*
X13460000Y-13370000D01*
X13460000Y-13350000D02*
X13440000Y-13370000D01*
X13440000Y-13450000D02*
X13460000Y-13470000D01*
X13460000Y-13450000D02*
X13440000Y-13470000D01*
X13440000Y-13550000D02*
X13460000Y-13570000D01*
X13460000Y-13550000D02*
X13440000Y-13570000D01*
X13490000Y-13200000D02*
X13510000Y-13220000D01*
X13510000Y-13200000D02*
X13490000Y-13220000D01*
X13490000Y-13300000D02*
X13510000Y-13320000D01*
X13510000Y-13300000D02*
X13490000Y-13320000D01*
X13490000Y-13400000D02*
X13510000Y-13420000D01*
X13510000Y-13400000D02*
X13490000Y-13420000D01*
X13490000Y-13500000D02*
X13510000Y-13520000D01*
X13510000Y-13500000D02*
X13490000Y-13520000D01*
X13490000Y-13600000D02*
X13510000Y-13620000D01*
X13510000Y-13600000D02*
X13490000Y-13620000D01*
X13530000Y-10840000D02*
X13550000Y-10860000D01*
X13550000Y-10840000D02*
X13530000Y-10860000D01*
X13530000Y-11040000D02*
X13550000Y-11060000D01*
X13550000Y-11040000D02*
X13530000Y-11060000D01*
X13530000Y-11240000D02*
X13550000Y-11260000D01*
X13550000Y-11240000D02*
X13530000Y-11260000D01*
X13530000Y-12230000D02*
X13550000Y-12250000D01*
X13550000Y-12230000D02*
X13530000Y-12250000D01*
X13530000Y-12430000D02*
X13550000Y-12450000D01*
X13550000Y-12430000D02*
X13530000Y-12450000D01*
X13630000Y-10740000D02*
X13650000Y-10760000D01*
X13650000Y-10740000D02*
X13630000Y-10760000D01*
X13630000Y-10940000D02*
X13650000Y-10960000D01*
X13650000Y-10940000D02*
X13630000Y-10960000D01*
X13630000Y-11140000D02*
X13650000Y-11160000D01*
X13650000Y-11140000D02*
X13630000Y-11160000D01*
X13630000Y-11340000D02*
X13650000Y-11360000D01*
X13650000Y-11340000D02*
X13630000Y-11360000D01*
X13630000Y-12130000D02*
X13650000Y-12150000D01*
X13650000Y-12130000D02*
X13630000Y-12150000D01*
X13630000Y-12330000D02*
X13650000Y-12350000D01*
X13650000Y-12330000D02*
X13630000Y-12350000D01*
X13722500Y-12987500D02*
X13742500Y-13007500D01*
X13742500Y-12987500D02*
X13722500Y-13007500D01*
X13730000Y-10840000D02*
X13750000Y-10860000D01*
X13750000Y-10840000D02*
X13730000Y-10860000D01*
X13730000Y-11040000D02*
X13750000Y-11060000D01*
X13750000Y-11040000D02*
X13730000Y-11060000D01*
X13730000Y-11240000D02*
X13750000Y-11260000D01*
X13750000Y-11240000D02*
X13730000Y-11260000D01*
X13730000Y-12230000D02*
X13750000Y-12250000D01*
X13750000Y-12230000D02*
X13730000Y-12250000D01*
X13730000Y-12430000D02*
X13750000Y-12450000D01*
X13750000Y-12430000D02*
X13730000Y-12450000D01*
X13830000Y-10740000D02*
X13850000Y-10760000D01*
X13850000Y-10740000D02*
X13830000Y-10760000D01*
X13830000Y-10940000D02*
X13850000Y-10960000D01*
X13850000Y-10940000D02*
X13830000Y-10960000D01*
X13830000Y-11140000D02*
X13850000Y-11160000D01*
X13850000Y-11140000D02*
X13830000Y-11160000D01*
X13830000Y-11340000D02*
X13850000Y-11360000D01*
X13850000Y-11340000D02*
X13830000Y-11360000D01*
X13830000Y-12130000D02*
X13850000Y-12150000D01*
X13850000Y-12130000D02*
X13830000Y-12150000D01*
X13830000Y-12330000D02*
X13850000Y-12350000D01*
X13850000Y-12330000D02*
X13830000Y-12350000D01*
X13930000Y-10840000D02*
X13950000Y-10860000D01*
X13950000Y-10840000D02*
X13930000Y-10860000D01*
X13930000Y-11040000D02*
X13950000Y-11060000D01*
X13950000Y-11040000D02*
X13930000Y-11060000D01*
X13930000Y-11240000D02*
X13950000Y-11260000D01*
X13950000Y-11240000D02*
X13930000Y-11260000D01*
X13930000Y-12230000D02*
X13950000Y-12250000D01*
X13950000Y-12230000D02*
X13930000Y-12250000D01*
X13930000Y-12430000D02*
X13950000Y-12450000D01*
X13950000Y-12430000D02*
X13930000Y-12450000D01*
X14030000Y-10740000D02*
X14050000Y-10760000D01*
X14050000Y-10740000D02*
X14030000Y-10760000D01*
X14030000Y-10940000D02*
X14050000Y-10960000D01*
X14050000Y-10940000D02*
X14030000Y-10960000D01*
X14030000Y-11140000D02*
X14050000Y-11160000D01*
X14050000Y-11140000D02*
X14030000Y-11160000D01*
X14030000Y-11340000D02*
X14050000Y-11360000D01*
X14050000Y-11340000D02*
X14030000Y-11360000D01*
X14130000Y-10840000D02*
X14150000Y-10860000D01*
X14150000Y-10840000D02*
X14130000Y-10860000D01*
X14130000Y-11040000D02*
X14150000Y-11060000D01*
X14150000Y-11040000D02*
X14130000Y-11060000D01*
X14130000Y-11240000D02*
X14150000Y-11260000D01*
X14150000Y-11240000D02*
X14130000Y-11260000D01*
X14150000Y-13960000D02*
X14170000Y-13980000D01*
X14170000Y-13960000D02*
X14150000Y-13980000D01*
X14150000Y-14060000D02*
X14170000Y-14080000D01*
X14170000Y-14060000D02*
X14150000Y-14080000D01*
X14150000Y-14160000D02*
X14170000Y-14180000D01*
X14170000Y-14160000D02*
X14150000Y-14180000D01*
X14150000Y-14260000D02*
X14170000Y-14280000D01*
X14170000Y-14260000D02*
X14150000Y-14280000D01*
X14200000Y-14010000D02*
X14220000Y-14030000D01*
X14220000Y-14010000D02*
X14200000Y-14030000D01*
X14200000Y-14110000D02*
X14220000Y-14130000D01*
X14220000Y-14110000D02*
X14200000Y-14130000D01*
X14200000Y-14210000D02*
X14220000Y-14230000D01*
X14220000Y-14210000D02*
X14200000Y-14230000D01*
X14250000Y-14160000D02*
X14270000Y-14180000D01*
X14270000Y-14160000D02*
X14250000Y-14180000D01*
X14250000Y-14260000D02*
X14270000Y-14280000D01*
X14270000Y-14260000D02*
X14250000Y-14280000D01*
X14300000Y-14210000D02*
X14320000Y-14230000D01*
X14320000Y-14210000D02*
X14300000Y-14230000D01*
X14333500Y-10277000D02*
X14353500Y-10297000D01*
X14353500Y-10277000D02*
X14333500Y-10297000D01*
X14350000Y-14260000D02*
X14370000Y-14280000D01*
X14370000Y-14260000D02*
X14350000Y-14280000D01*
X14371000Y-12966500D02*
X14391000Y-12986500D01*
X14391000Y-12966500D02*
X14371000Y-12986500D01*
X14371000Y-13061500D02*
X14391000Y-13081500D01*
X14391000Y-13061500D02*
X14371000Y-13081500D01*
X14371000Y-13161500D02*
X14391000Y-13181500D01*
X14391000Y-13161500D02*
X14371000Y-13181500D01*
X14371000Y-13256500D02*
X14391000Y-13276500D01*
X14391000Y-13256500D02*
X14371000Y-13276500D01*
X14371000Y-13356500D02*
X14391000Y-13376500D01*
X14391000Y-13356500D02*
X14371000Y-13376500D01*
X14459037Y-10182700D02*
X14479037Y-10202700D01*
X14479037Y-10182700D02*
X14459037Y-10202700D01*
X14466000Y-12966500D02*
X14486000Y-12986500D01*
X14486000Y-12966500D02*
X14466000Y-12986500D01*
X14466000Y-13061500D02*
X14486000Y-13081500D01*
X14486000Y-13061500D02*
X14466000Y-13081500D01*
X14466000Y-13161500D02*
X14486000Y-13181500D01*
X14486000Y-13161500D02*
X14466000Y-13181500D01*
X14466000Y-13256500D02*
X14486000Y-13276500D01*
X14486000Y-13256500D02*
X14466000Y-13276500D01*
X14466000Y-13356500D02*
X14486000Y-13376500D01*
X14486000Y-13356500D02*
X14466000Y-13376500D01*
X14510000Y-10090000D02*
X14530000Y-10110000D01*
X14530000Y-10090000D02*
X14510000Y-10110000D01*
X14561000Y-12966500D02*
X14581000Y-12986500D01*
X14581000Y-12966500D02*
X14561000Y-12986500D01*
X14561000Y-13061500D02*
X14581000Y-13081500D01*
X14581000Y-13061500D02*
X14561000Y-13081500D01*
X14561000Y-13161500D02*
X14581000Y-13181500D01*
X14581000Y-13161500D02*
X14561000Y-13181500D01*
X14561000Y-13256500D02*
X14581000Y-13276500D01*
X14581000Y-13256500D02*
X14561000Y-13276500D01*
X14561000Y-13356500D02*
X14581000Y-13376500D01*
X14581000Y-13356500D02*
X14561000Y-13376500D01*
X14580000Y-10182700D02*
X14600000Y-10202700D01*
X14600000Y-10182700D02*
X14580000Y-10202700D01*
X14633500Y-10282000D02*
X14653500Y-10302000D01*
X14653500Y-10282000D02*
X14633500Y-10302000D01*
X14656000Y-12966500D02*
X14676000Y-12986500D01*
X14676000Y-12966500D02*
X14656000Y-12986500D01*
X14656000Y-13061500D02*
X14676000Y-13081500D01*
X14676000Y-13061500D02*
X14656000Y-13081500D01*
X14656000Y-13161500D02*
X14676000Y-13181500D01*
X14676000Y-13161500D02*
X14656000Y-13181500D01*
X14656000Y-13256500D02*
X14676000Y-13276500D01*
X14676000Y-13256500D02*
X14656000Y-13276500D01*
X14656000Y-13356500D02*
X14676000Y-13376500D01*
X14676000Y-13356500D02*
X14656000Y-13376500D01*
X14690000Y-12590000D02*
X14710000Y-12610000D01*
X14710000Y-12590000D02*
X14690000Y-12610000D01*
X14710000Y-11980000D02*
X14730000Y-12000000D01*
X14730000Y-11980000D02*
X14710000Y-12000000D01*
X14720000Y-11680000D02*
X14740000Y-11700000D01*
X14740000Y-11680000D02*
X14720000Y-11700000D01*
X14730000Y-14260000D02*
X14750000Y-14280000D01*
X14750000Y-14260000D02*
X14730000Y-14280000D01*
X14751000Y-12966500D02*
X14771000Y-12986500D01*
X14771000Y-12966500D02*
X14751000Y-12986500D01*
X14751000Y-13061500D02*
X14771000Y-13081500D01*
X14771000Y-13061500D02*
X14751000Y-13081500D01*
X14751000Y-13161500D02*
X14771000Y-13181500D01*
X14771000Y-13161500D02*
X14751000Y-13181500D01*
X14751000Y-13256500D02*
X14771000Y-13276500D01*
X14771000Y-13256500D02*
X14751000Y-13276500D01*
X14751000Y-13356500D02*
X14771000Y-13376500D01*
X14771000Y-13356500D02*
X14751000Y-13376500D01*
X14780000Y-14210000D02*
X14800000Y-14230000D01*
X14800000Y-14210000D02*
X14780000Y-14230000D01*
X14805000Y-11635000D02*
X14825000Y-11655000D01*
X14825000Y-11635000D02*
X14805000Y-11655000D01*
X14830000Y-13407500D02*
X14850000Y-13427500D01*
X14850000Y-13407500D02*
X14830000Y-13427500D01*
X14830000Y-14160000D02*
X14850000Y-14180000D01*
X14850000Y-14160000D02*
X14830000Y-14180000D01*
X14830000Y-14260000D02*
X14850000Y-14280000D01*
X14850000Y-14260000D02*
X14830000Y-14280000D01*
X14850000Y-10730000D02*
X14870000Y-10750000D01*
X14870000Y-10730000D02*
X14850000Y-10750000D01*
X14851828Y-10619705D02*
X14871828Y-10639705D01*
X14871828Y-10619705D02*
X14851828Y-10639705D01*
X14858500Y-10202000D02*
X14878500Y-10222000D01*
X14878500Y-10202000D02*
X14858500Y-10222000D01*
X14870000Y-12615000D02*
X14890000Y-12635000D01*
X14890000Y-12615000D02*
X14870000Y-12635000D01*
X14870000Y-12730000D02*
X14890000Y-12750000D01*
X14890000Y-12730000D02*
X14870000Y-12750000D01*
X14870000Y-12810000D02*
X14890000Y-12830000D01*
X14890000Y-12810000D02*
X14870000Y-12830000D01*
X14920000Y-12700000D02*
X14940000Y-12720000D01*
X14940000Y-12700000D02*
X14920000Y-12720000D01*
X14920000Y-12770000D02*
X14940000Y-12790000D01*
X14940000Y-12770000D02*
X14920000Y-12790000D01*
X14920000Y-12850000D02*
X14940000Y-12870000D01*
X14940000Y-12850000D02*
X14920000Y-12870000D01*
X14930000Y-13890000D02*
X14950000Y-13910000D01*
X14950000Y-13890000D02*
X14930000Y-13910000D01*
X14930000Y-13990000D02*
X14950000Y-14010000D01*
X14950000Y-13990000D02*
X14930000Y-14010000D01*
X14930000Y-14090000D02*
X14950000Y-14110000D01*
X14950000Y-14090000D02*
X14930000Y-14110000D01*
X14930000Y-14190000D02*
X14950000Y-14210000D01*
X14950000Y-14190000D02*
X14930000Y-14210000D01*
X14965000Y-11360000D02*
X14985000Y-11380000D01*
X14985000Y-11360000D02*
X14965000Y-11380000D01*
X14980000Y-13940000D02*
X15000000Y-13960000D01*
X15000000Y-13940000D02*
X14980000Y-13960000D01*
X14980000Y-14040000D02*
X15000000Y-14060000D01*
X15000000Y-14040000D02*
X14980000Y-14060000D01*
X14980000Y-14140000D02*
X15000000Y-14160000D01*
X15000000Y-14140000D02*
X14980000Y-14160000D01*
X14980000Y-14240000D02*
X15000000Y-14260000D01*
X15000000Y-14240000D02*
X14980000Y-14260000D01*
X15012500Y-13030000D02*
X15032500Y-13050000D01*
X15032500Y-13030000D02*
X15012500Y-13050000D01*
X15025000Y-12605000D02*
X15045000Y-12625000D01*
X15045000Y-12605000D02*
X15025000Y-12625000D01*
X15030000Y-11187500D02*
X15050000Y-11207500D01*
X15050000Y-11187500D02*
X15030000Y-11207500D01*
X15030000Y-14090000D02*
X15050000Y-14110000D01*
X15050000Y-14090000D02*
X15030000Y-14110000D01*
X15030000Y-14190000D02*
X15050000Y-14210000D01*
X15050000Y-14190000D02*
X15030000Y-14210000D01*
X15040000Y-10720000D02*
X15060000Y-10740000D01*
X15060000Y-10720000D02*
X15040000Y-10740000D01*
X15050000Y-10620000D02*
X15070000Y-10640000D01*
X15070000Y-10620000D02*
X15050000Y-10640000D01*
X15055000Y-11845000D02*
X15075000Y-11865000D01*
X15075000Y-11845000D02*
X15055000Y-11865000D01*
X15080000Y-14240000D02*
X15100000Y-14260000D01*
X15100000Y-14240000D02*
X15080000Y-14260000D01*
X15095000Y-11895000D02*
X15115000Y-11915000D01*
X15115000Y-11895000D02*
X15095000Y-11915000D01*
X15237990Y-14257157D02*
X15257990Y-14277157D01*
X15257990Y-14257157D02*
X15237990Y-14277157D01*
X15237990Y-14157157D02*
X15257990Y-14177157D01*
X15257990Y-14157157D02*
X15237990Y-14177157D01*
X15237990Y-13957157D02*
X15257990Y-13977157D01*
X15257990Y-13957157D02*
X15237990Y-13977157D01*
X15237990Y-14057157D02*
X15257990Y-14077157D01*
X15257990Y-14057157D02*
X15237990Y-14077157D01*
X15260000Y-11767500D02*
X15280000Y-11787500D01*
X15280000Y-11767500D02*
X15260000Y-11787500D01*
X15287990Y-14207157D02*
X15307990Y-14227157D01*
X15307990Y-14207157D02*
X15287990Y-14227157D01*
X15287990Y-13907157D02*
X15307990Y-13927157D01*
X15307990Y-13907157D02*
X15287990Y-13927157D01*
X15287990Y-14007157D02*
X15307990Y-14027157D01*
X15307990Y-14007157D02*
X15287990Y-14027157D01*
X15287990Y-14107157D02*
X15307990Y-14127157D01*
X15307990Y-14107157D02*
X15287990Y-14127157D01*
X15310000Y-9940000D02*
X15330000Y-9960000D01*
X15330000Y-9940000D02*
X15310000Y-9960000D01*
X15310000Y-11470000D02*
X15330000Y-11490000D01*
X15330000Y-11470000D02*
X15310000Y-11490000D01*
X15330000Y-10030000D02*
X15350000Y-10050000D01*
X15350000Y-10030000D02*
X15330000Y-10050000D01*
X15337990Y-14157157D02*
X15357990Y-14177157D01*
X15357990Y-14157157D02*
X15337990Y-14177157D01*
X15337990Y-14257157D02*
X15357990Y-14277157D01*
X15357990Y-14257157D02*
X15337990Y-14277157D01*
X15350000Y-12930000D02*
X15370000Y-12950000D01*
X15370000Y-12930000D02*
X15350000Y-12950000D01*
X15370000Y-11370000D02*
X15390000Y-11390000D01*
X15390000Y-11370000D02*
X15370000Y-11390000D01*
X15387990Y-14207157D02*
X15407990Y-14227157D01*
X15407990Y-14207157D02*
X15387990Y-14227157D01*
X15388450Y-10690000D02*
X15408450Y-10710000D01*
X15408450Y-10690000D02*
X15388450Y-10710000D01*
X15395620Y-11195620D02*
X15415620Y-11215620D01*
X15415620Y-11195620D02*
X15395620Y-11215620D01*
X15405000Y-11542500D02*
X15425000Y-11562500D01*
X15425000Y-11542500D02*
X15405000Y-11562500D01*
X15410000Y-12880000D02*
X15430000Y-12900000D01*
X15430000Y-12880000D02*
X15410000Y-12900000D01*
X15430000Y-10740000D02*
X15450000Y-10760000D01*
X15450000Y-10740000D02*
X15430000Y-10760000D01*
X15437990Y-14257157D02*
X15457990Y-14277157D01*
X15457990Y-14257157D02*
X15437990Y-14277157D01*
X15465000Y-11185000D02*
X15485000Y-11205000D01*
X15485000Y-11185000D02*
X15465000Y-11205000D01*
X15483450Y-10790000D02*
X15503450Y-10810000D01*
X15503450Y-10790000D02*
X15483450Y-10810000D01*
X15490000Y-12375000D02*
X15510000Y-12395000D01*
X15510000Y-12375000D02*
X15490000Y-12395000D01*
X15492500Y-11542500D02*
X15512500Y-11562500D01*
X15512500Y-11542500D02*
X15492500Y-11562500D01*
X15525000Y-11160000D02*
X15545000Y-11180000D01*
X15545000Y-11160000D02*
X15525000Y-11180000D01*
X15552500Y-11512500D02*
X15572500Y-11532500D01*
X15572500Y-11512500D02*
X15552500Y-11532500D01*
X15560000Y-12097500D02*
X15580000Y-12117500D01*
X15580000Y-12097500D02*
X15560000Y-12117500D01*
X15610000Y-11120000D02*
X15630000Y-11140000D01*
X15630000Y-11120000D02*
X15610000Y-11140000D01*
X15615000Y-11520000D02*
X15635000Y-11540000D01*
X15635000Y-11520000D02*
X15615000Y-11540000D01*
X15660000Y-11080000D02*
X15680000Y-11100000D01*
X15680000Y-11080000D02*
X15660000Y-11100000D01*
X15660000Y-11845000D02*
X15680000Y-11865000D01*
X15680000Y-11845000D02*
X15660000Y-11865000D01*
X15660000Y-12045000D02*
X15680000Y-12065000D01*
X15680000Y-12045000D02*
X15660000Y-12065000D01*
X15670000Y-12790000D02*
X15690000Y-12810000D01*
X15690000Y-12790000D02*
X15670000Y-12810000D01*
X15690000Y-12200000D02*
X15710000Y-12220000D01*
X15710000Y-12200000D02*
X15690000Y-12220000D01*
X15705000Y-11495000D02*
X15725000Y-11515000D01*
X15725000Y-11495000D02*
X15705000Y-11515000D01*
X15715000Y-9840000D02*
X15735000Y-9860000D01*
X15735000Y-9840000D02*
X15715000Y-9860000D01*
X15717974Y-12930000D02*
X15737974Y-12950000D01*
X15737974Y-12930000D02*
X15717974Y-12950000D01*
X15717974Y-13025000D02*
X15737974Y-13045000D01*
X15737974Y-13025000D02*
X15717974Y-13045000D01*
X15717974Y-13125000D02*
X15737974Y-13145000D01*
X15737974Y-13125000D02*
X15717974Y-13145000D01*
X15717974Y-13220000D02*
X15737974Y-13240000D01*
X15737974Y-13220000D02*
X15717974Y-13240000D01*
X15717974Y-13320000D02*
X15737974Y-13340000D01*
X15737974Y-13320000D02*
X15717974Y-13340000D01*
X15745000Y-12425000D02*
X15765000Y-12445000D01*
X15765000Y-12425000D02*
X15745000Y-12445000D01*
X15760000Y-11520000D02*
X15780000Y-11540000D01*
X15780000Y-11520000D02*
X15760000Y-11540000D01*
X15777500Y-11287500D02*
X15797500Y-11307500D01*
X15797500Y-11287500D02*
X15777500Y-11307500D01*
X15812974Y-13025000D02*
X15832974Y-13045000D01*
X15832974Y-13025000D02*
X15812974Y-13045000D01*
X15812974Y-13320000D02*
X15832974Y-13340000D01*
X15832974Y-13320000D02*
X15812974Y-13340000D01*
X15812974Y-12930000D02*
X15832974Y-12950000D01*
X15832974Y-12930000D02*
X15812974Y-12950000D01*
X15812974Y-13125000D02*
X15832974Y-13145000D01*
X15832974Y-13125000D02*
X15812974Y-13145000D01*
X15812974Y-13220000D02*
X15832974Y-13240000D01*
X15832974Y-13220000D02*
X15812974Y-13240000D01*
X15817990Y-14257157D02*
X15837990Y-14277157D01*
X15837990Y-14257157D02*
X15817990Y-14277157D01*
X15830000Y-12840000D02*
X15850000Y-12860000D01*
X15850000Y-12840000D02*
X15830000Y-12860000D01*
X15867990Y-14207157D02*
X15887990Y-14227157D01*
X15887990Y-14207157D02*
X15867990Y-14227157D01*
X15880000Y-11520000D02*
X15900000Y-11540000D01*
X15900000Y-11520000D02*
X15880000Y-11540000D01*
X15880000Y-12780000D02*
X15900000Y-12800000D01*
X15900000Y-12780000D02*
X15880000Y-12800000D01*
X15907974Y-12930000D02*
X15927974Y-12950000D01*
X15927974Y-12930000D02*
X15907974Y-12950000D01*
X15907974Y-13025000D02*
X15927974Y-13045000D01*
X15927974Y-13025000D02*
X15907974Y-13045000D01*
X15907974Y-13125000D02*
X15927974Y-13145000D01*
X15927974Y-13125000D02*
X15907974Y-13145000D01*
X15907974Y-13220000D02*
X15927974Y-13240000D01*
X15927974Y-13220000D02*
X15907974Y-13240000D01*
X15907974Y-13320000D02*
X15927974Y-13340000D01*
X15927974Y-13320000D02*
X15907974Y-13340000D01*
X15915000Y-9840000D02*
X15935000Y-9860000D01*
X15935000Y-9840000D02*
X15915000Y-9860000D01*
X15917990Y-14157157D02*
X15937990Y-14177157D01*
X15937990Y-14157157D02*
X15917990Y-14177157D01*
X15917990Y-14257157D02*
X15937990Y-14277157D01*
X15937990Y-14257157D02*
X15917990Y-14277157D01*
X15930000Y-12840000D02*
X15950000Y-12860000D01*
X15950000Y-12840000D02*
X15930000Y-12860000D01*
X15952500Y-12057500D02*
X15972500Y-12077500D01*
X15972500Y-12057500D02*
X15952500Y-12077500D01*
X15957900Y-12225000D02*
X15977900Y-12245000D01*
X15977900Y-12225000D02*
X15957900Y-12245000D01*
X15965000Y-12442500D02*
X15985000Y-12462500D01*
X15985000Y-12442500D02*
X15965000Y-12462500D01*
X15980000Y-11807500D02*
X16000000Y-11827500D01*
X16000000Y-11807500D02*
X15980000Y-11827500D01*
X15980000Y-12780000D02*
X16000000Y-12800000D01*
X16000000Y-12780000D02*
X15980000Y-12800000D01*
X16002974Y-12930000D02*
X16022974Y-12950000D01*
X16022974Y-12930000D02*
X16002974Y-12950000D01*
X16002974Y-13025000D02*
X16022974Y-13045000D01*
X16022974Y-13025000D02*
X16002974Y-13045000D01*
X16002974Y-13125000D02*
X16022974Y-13145000D01*
X16022974Y-13125000D02*
X16002974Y-13145000D01*
X16002974Y-13220000D02*
X16022974Y-13240000D01*
X16022974Y-13220000D02*
X16002974Y-13240000D01*
X16002974Y-13320000D02*
X16022974Y-13340000D01*
X16022974Y-13320000D02*
X16002974Y-13340000D01*
X16010000Y-11520000D02*
X16030000Y-11540000D01*
X16030000Y-11520000D02*
X16010000Y-11540000D01*
X16010630Y-11448130D02*
X16030630Y-11468130D01*
X16030630Y-11448130D02*
X16010630Y-11468130D01*
X16020000Y-12840000D02*
X16040000Y-12860000D01*
X16040000Y-12840000D02*
X16020000Y-12860000D01*
X16040000Y-13610000D02*
X16060000Y-13630000D01*
X16060000Y-13610000D02*
X16040000Y-13630000D01*
X16060000Y-11835000D02*
X16080000Y-11855000D01*
X16080000Y-11835000D02*
X16060000Y-11855000D01*
X16070000Y-13890000D02*
X16090000Y-13910000D01*
X16090000Y-13890000D02*
X16070000Y-13910000D01*
X16070000Y-13990000D02*
X16090000Y-14010000D01*
X16090000Y-13990000D02*
X16070000Y-14010000D01*
X16070000Y-14090000D02*
X16090000Y-14110000D01*
X16090000Y-14090000D02*
X16070000Y-14110000D01*
X16070000Y-14190000D02*
X16090000Y-14210000D01*
X16090000Y-14190000D02*
X16070000Y-14210000D01*
X16090000Y-9840000D02*
X16110000Y-9860000D01*
X16110000Y-9840000D02*
X16090000Y-9860000D01*
X16097974Y-12930000D02*
X16117974Y-12950000D01*
X16117974Y-12930000D02*
X16097974Y-12950000D01*
X16097974Y-13025000D02*
X16117974Y-13045000D01*
X16117974Y-13025000D02*
X16097974Y-13045000D01*
X16097974Y-13125000D02*
X16117974Y-13145000D01*
X16117974Y-13125000D02*
X16097974Y-13145000D01*
X16097974Y-13220000D02*
X16117974Y-13240000D01*
X16117974Y-13220000D02*
X16097974Y-13240000D01*
X16097974Y-13320000D02*
X16117974Y-13340000D01*
X16117974Y-13320000D02*
X16097974Y-13340000D01*
X16115000Y-11875000D02*
X16135000Y-11895000D01*
X16135000Y-11875000D02*
X16115000Y-11895000D01*
X16120000Y-13840000D02*
X16140000Y-13860000D01*
X16140000Y-13840000D02*
X16120000Y-13860000D01*
X16120000Y-13940000D02*
X16140000Y-13960000D01*
X16140000Y-13940000D02*
X16120000Y-13960000D01*
X16120000Y-14040000D02*
X16140000Y-14060000D01*
X16140000Y-14040000D02*
X16120000Y-14060000D01*
X16120000Y-14140000D02*
X16140000Y-14160000D01*
X16140000Y-14140000D02*
X16120000Y-14160000D01*
X16120000Y-14240000D02*
X16140000Y-14260000D01*
X16140000Y-14240000D02*
X16120000Y-14260000D01*
X16135000Y-12832500D02*
X16155000Y-12852500D01*
X16155000Y-12832500D02*
X16135000Y-12852500D01*
X16140000Y-11520000D02*
X16160000Y-11540000D01*
X16160000Y-11520000D02*
X16140000Y-11540000D01*
X16170000Y-13890000D02*
X16190000Y-13910000D01*
X16190000Y-13890000D02*
X16170000Y-13910000D01*
X16170000Y-13990000D02*
X16190000Y-14010000D01*
X16190000Y-13990000D02*
X16170000Y-14010000D01*
X16170000Y-14090000D02*
X16190000Y-14110000D01*
X16190000Y-14090000D02*
X16170000Y-14110000D01*
X16170000Y-14190000D02*
X16190000Y-14210000D01*
X16190000Y-14190000D02*
X16170000Y-14210000D01*
X16215000Y-10715000D02*
X16235000Y-10735000D01*
X16235000Y-10715000D02*
X16215000Y-10735000D01*
X16220000Y-13840000D02*
X16240000Y-13860000D01*
X16240000Y-13840000D02*
X16220000Y-13860000D01*
X16220000Y-13940000D02*
X16240000Y-13960000D01*
X16240000Y-13940000D02*
X16220000Y-13960000D01*
X16220000Y-14040000D02*
X16240000Y-14060000D01*
X16240000Y-14040000D02*
X16220000Y-14060000D01*
X16220000Y-14140000D02*
X16240000Y-14160000D01*
X16240000Y-14140000D02*
X16220000Y-14160000D01*
X16220000Y-14240000D02*
X16240000Y-14260000D01*
X16240000Y-14240000D02*
X16220000Y-14260000D01*
X16240134Y-10370134D02*
X16260134Y-10390134D01*
X16260134Y-10370134D02*
X16240134Y-10390134D01*
X16267700Y-13110000D02*
X16287700Y-13130000D01*
X16287700Y-13110000D02*
X16267700Y-13130000D01*
X16267700Y-13215000D02*
X16287700Y-13235000D01*
X16287700Y-13215000D02*
X16267700Y-13235000D01*
X16270000Y-13890000D02*
X16290000Y-13910000D01*
X16290000Y-13890000D02*
X16270000Y-13910000D01*
X16270000Y-13990000D02*
X16290000Y-14010000D01*
X16290000Y-13990000D02*
X16270000Y-14010000D01*
X16270000Y-14090000D02*
X16290000Y-14110000D01*
X16290000Y-14090000D02*
X16270000Y-14110000D01*
X16270000Y-14190000D02*
X16290000Y-14210000D01*
X16290000Y-14190000D02*
X16270000Y-14210000D01*
X16280000Y-11530000D02*
X16300000Y-11550000D01*
X16300000Y-11530000D02*
X16280000Y-11550000D01*
X16280000Y-13480000D02*
X16300000Y-13500000D01*
X16300000Y-13480000D02*
X16280000Y-13500000D01*
X16290000Y-9840000D02*
X16310000Y-9860000D01*
X16310000Y-9840000D02*
X16290000Y-9860000D01*
X16295000Y-12835000D02*
X16315000Y-12855000D01*
X16315000Y-12835000D02*
X16295000Y-12855000D01*
X16405000Y-12305000D02*
X16425000Y-12325000D01*
X16425000Y-12305000D02*
X16405000Y-12325000D01*
X16420000Y-13750000D02*
X16440000Y-13770000D01*
X16440000Y-13750000D02*
X16420000Y-13770000D01*
X16420000Y-13850000D02*
X16440000Y-13870000D01*
X16440000Y-13850000D02*
X16420000Y-13870000D01*
X16420000Y-14160000D02*
X16440000Y-14180000D01*
X16440000Y-14160000D02*
X16420000Y-14180000D01*
X16420000Y-14260000D02*
X16440000Y-14280000D01*
X16440000Y-14260000D02*
X16420000Y-14280000D01*
X16425000Y-10900000D02*
X16445000Y-10920000D01*
X16445000Y-10900000D02*
X16425000Y-10920000D01*
X16431000Y-12930000D02*
X16451000Y-12950000D01*
X16451000Y-12930000D02*
X16431000Y-12950000D01*
X16431000Y-13025000D02*
X16451000Y-13045000D01*
X16451000Y-13025000D02*
X16431000Y-13045000D01*
X16431000Y-13125000D02*
X16451000Y-13145000D01*
X16451000Y-13125000D02*
X16431000Y-13145000D01*
X16431000Y-13220000D02*
X16451000Y-13240000D01*
X16451000Y-13220000D02*
X16431000Y-13240000D01*
X16431000Y-13320000D02*
X16451000Y-13340000D01*
X16451000Y-13320000D02*
X16431000Y-13340000D01*
X16440000Y-12250000D02*
X16460000Y-12270000D01*
X16460000Y-12250000D02*
X16440000Y-12270000D01*
X16445615Y-10161355D02*
X16465615Y-10181355D01*
X16465615Y-10161355D02*
X16445615Y-10181355D01*
X16470000Y-13800000D02*
X16490000Y-13820000D01*
X16490000Y-13800000D02*
X16470000Y-13820000D01*
X16470000Y-14210000D02*
X16490000Y-14230000D01*
X16490000Y-14210000D02*
X16470000Y-14230000D01*
X16490000Y-9840000D02*
X16510000Y-9860000D01*
X16510000Y-9840000D02*
X16490000Y-9860000D01*
X16502137Y-12390000D02*
X16522137Y-12410000D01*
X16522137Y-12390000D02*
X16502137Y-12410000D01*
X16520000Y-13750000D02*
X16540000Y-13770000D01*
X16540000Y-13750000D02*
X16520000Y-13770000D01*
X16520000Y-14260000D02*
X16540000Y-14280000D01*
X16540000Y-14260000D02*
X16520000Y-14280000D01*
X16526000Y-12930000D02*
X16546000Y-12950000D01*
X16546000Y-12930000D02*
X16526000Y-12950000D01*
X16526000Y-13025000D02*
X16546000Y-13045000D01*
X16546000Y-13025000D02*
X16526000Y-13045000D01*
X16526000Y-13125000D02*
X16546000Y-13145000D01*
X16546000Y-13125000D02*
X16526000Y-13145000D01*
X16526000Y-13220000D02*
X16546000Y-13240000D01*
X16546000Y-13220000D02*
X16526000Y-13240000D01*
X16526000Y-13320000D02*
X16546000Y-13340000D01*
X16546000Y-13320000D02*
X16526000Y-13340000D01*
X16580000Y-11065000D02*
X16600000Y-11085000D01*
X16600000Y-11065000D02*
X16580000Y-11085000D01*
X16610000Y-10760000D02*
X16630000Y-10780000D01*
X16630000Y-10760000D02*
X16610000Y-10780000D01*
X16621000Y-12930000D02*
X16641000Y-12950000D01*
X16641000Y-12930000D02*
X16621000Y-12950000D01*
X16621000Y-13025000D02*
X16641000Y-13045000D01*
X16641000Y-13025000D02*
X16621000Y-13045000D01*
X16621000Y-13125000D02*
X16641000Y-13145000D01*
X16641000Y-13125000D02*
X16621000Y-13145000D01*
X16621000Y-13220000D02*
X16641000Y-13240000D01*
X16641000Y-13220000D02*
X16621000Y-13240000D01*
X16621000Y-13320000D02*
X16641000Y-13340000D01*
X16641000Y-13320000D02*
X16621000Y-13340000D01*
X16645000Y-12305000D02*
X16665000Y-12325000D01*
X16665000Y-12305000D02*
X16645000Y-12325000D01*
X16659639Y-9953927D02*
X16679639Y-9973927D01*
X16679639Y-9953927D02*
X16659639Y-9973927D01*
X16664380Y-10704380D02*
X16684380Y-10724380D01*
X16684380Y-10704380D02*
X16664380Y-10724380D01*
X16665000Y-12445000D02*
X16685000Y-12465000D01*
X16685000Y-12445000D02*
X16665000Y-12465000D01*
X16687500Y-11525000D02*
X16707500Y-11545000D01*
X16707500Y-11525000D02*
X16687500Y-11545000D01*
X16690951Y-11814049D02*
X16710951Y-11834049D01*
X16710951Y-11814049D02*
X16690951Y-11834049D01*
X16714380Y-10654380D02*
X16734380Y-10674380D01*
X16734380Y-10654380D02*
X16714380Y-10674380D01*
X16716000Y-12930000D02*
X16736000Y-12950000D01*
X16736000Y-12930000D02*
X16716000Y-12950000D01*
X16716000Y-13025000D02*
X16736000Y-13045000D01*
X16736000Y-13025000D02*
X16716000Y-13045000D01*
X16716000Y-13125000D02*
X16736000Y-13145000D01*
X16736000Y-13125000D02*
X16716000Y-13145000D01*
X16716000Y-13220000D02*
X16736000Y-13240000D01*
X16736000Y-13220000D02*
X16716000Y-13240000D01*
X16716000Y-13320000D02*
X16736000Y-13340000D01*
X16736000Y-13320000D02*
X16716000Y-13340000D01*
X16767500Y-11522500D02*
X16787500Y-11542500D01*
X16787500Y-11522500D02*
X16767500Y-11542500D01*
X16770460Y-10609653D02*
X16790460Y-10629653D01*
X16790460Y-10609653D02*
X16770460Y-10629653D01*
X16811000Y-12930000D02*
X16831000Y-12950000D01*
X16831000Y-12930000D02*
X16811000Y-12950000D01*
X16811000Y-13025000D02*
X16831000Y-13045000D01*
X16831000Y-13025000D02*
X16811000Y-13045000D01*
X16811000Y-13125000D02*
X16831000Y-13145000D01*
X16831000Y-13125000D02*
X16811000Y-13145000D01*
X16811000Y-13220000D02*
X16831000Y-13240000D01*
X16831000Y-13220000D02*
X16811000Y-13240000D01*
X16811000Y-13320000D02*
X16831000Y-13340000D01*
X16831000Y-13320000D02*
X16811000Y-13340000D01*
X16814800Y-10560000D02*
X16834800Y-10580000D01*
X16834800Y-10560000D02*
X16814800Y-10580000D01*
X16825000Y-12150000D02*
X16845000Y-12170000D01*
X16845000Y-12150000D02*
X16825000Y-12170000D01*
X16875000Y-12015000D02*
X16895000Y-12035000D01*
X16895000Y-12015000D02*
X16875000Y-12035000D01*
X16880000Y-11837500D02*
X16900000Y-11857500D01*
X16900000Y-11837500D02*
X16880000Y-11857500D01*
X16920000Y-14260000D02*
X16940000Y-14280000D01*
X16940000Y-14260000D02*
X16920000Y-14280000D01*
X16970000Y-14210000D02*
X16990000Y-14230000D01*
X16990000Y-14210000D02*
X16970000Y-14230000D01*
X17020000Y-13860000D02*
X17040000Y-13880000D01*
X17040000Y-13860000D02*
X17020000Y-13880000D01*
X17020000Y-13960000D02*
X17040000Y-13980000D01*
X17040000Y-13960000D02*
X17020000Y-13980000D01*
X17020000Y-14060000D02*
X17040000Y-14080000D01*
X17040000Y-14060000D02*
X17020000Y-14080000D01*
X17020000Y-14160000D02*
X17040000Y-14180000D01*
X17040000Y-14160000D02*
X17020000Y-14180000D01*
X17020000Y-14260000D02*
X17040000Y-14280000D01*
X17040000Y-14260000D02*
X17020000Y-14280000D01*
X17021880Y-12683120D02*
X17041880Y-12703120D01*
X17041880Y-12683120D02*
X17021880Y-12703120D01*
X17050000Y-10940000D02*
X17070000Y-10960000D01*
X17070000Y-10940000D02*
X17050000Y-10960000D01*
X17074370Y-11804370D02*
X17094370Y-11824370D01*
X17094370Y-11804370D02*
X17074370Y-11824370D01*
X17090000Y-10465000D02*
X17110000Y-10485000D01*
X17110000Y-10465000D02*
X17090000Y-10485000D01*
X17110000Y-10910000D02*
X17130000Y-10930000D01*
X17130000Y-10910000D02*
X17110000Y-10930000D01*
X17144685Y-11019141D02*
X17164685Y-11039141D01*
X17164685Y-11019141D02*
X17144685Y-11039141D01*
X17155000Y-10960000D02*
X17175000Y-10980000D01*
X17175000Y-10960000D02*
X17155000Y-10980000D01*
X17170000Y-10010500D02*
X17190000Y-10030500D01*
X17190000Y-10010500D02*
X17170000Y-10030500D01*
X17185000Y-10910700D02*
X17205000Y-10930700D01*
X17205000Y-10910700D02*
X17185000Y-10930700D01*
X17185000Y-12905000D02*
X17205000Y-12925000D01*
X17205000Y-12905000D02*
X17185000Y-12925000D01*
X17203391Y-11019196D02*
X17223391Y-11039196D01*
X17223391Y-11019196D02*
X17203391Y-11039196D01*
X17250000Y-11115000D02*
X17270000Y-11135000D01*
X17270000Y-11115000D02*
X17250000Y-11135000D01*
X17257500Y-11052500D02*
X17277500Y-11072500D01*
X17277500Y-11052500D02*
X17257500Y-11072500D01*
X17260000Y-10275000D02*
X17280000Y-10295000D01*
X17280000Y-10275000D02*
X17260000Y-10295000D01*
X17290000Y-10335000D02*
X17310000Y-10355000D01*
X17310000Y-10335000D02*
X17290000Y-10355000D01*
X17290000Y-12380000D02*
X17310000Y-12400000D01*
X17310000Y-12380000D02*
X17290000Y-12400000D01*
X17330000Y-12195000D02*
X17350000Y-12215000D01*
X17350000Y-12195000D02*
X17330000Y-12215000D01*
X17400000Y-10455000D02*
X17420000Y-10475000D01*
X17420000Y-10455000D02*
X17400000Y-10475000D01*
X17417500Y-10520000D02*
X17437500Y-10540000D01*
X17437500Y-10520000D02*
X17417500Y-10540000D01*
X17420000Y-12590000D02*
X17440000Y-12610000D01*
X17440000Y-12590000D02*
X17420000Y-12610000D01*
X17420000Y-12690000D02*
X17440000Y-12710000D01*
X17440000Y-12690000D02*
X17420000Y-12710000D01*
X17420000Y-12790000D02*
X17440000Y-12810000D01*
X17440000Y-12790000D02*
X17420000Y-12810000D01*
X17420000Y-12890000D02*
X17440000Y-12910000D01*
X17440000Y-12890000D02*
X17420000Y-12910000D01*
X17445000Y-11270909D02*
X17465000Y-11290909D01*
X17465000Y-11270909D02*
X17445000Y-11290909D01*
X17465000Y-11485000D02*
X17485000Y-11505000D01*
X17485000Y-11485000D02*
X17465000Y-11505000D01*
X17470000Y-12640000D02*
X17490000Y-12660000D01*
X17490000Y-12640000D02*
X17470000Y-12660000D01*
X17470000Y-12740000D02*
X17490000Y-12760000D01*
X17490000Y-12740000D02*
X17470000Y-12760000D01*
X17470000Y-12840000D02*
X17490000Y-12860000D01*
X17490000Y-12840000D02*
X17470000Y-12860000D01*
X17477500Y-10727500D02*
X17497500Y-10747500D01*
X17497500Y-10727500D02*
X17477500Y-10747500D01*
X17495000Y-10950000D02*
X17515000Y-10970000D01*
X17515000Y-10950000D02*
X17495000Y-10970000D01*
X17495000Y-11195000D02*
X17515000Y-11215000D01*
X17515000Y-11195000D02*
X17495000Y-11215000D01*
X17500600Y-10550000D02*
X17520600Y-10570000D01*
X17520600Y-10550000D02*
X17500600Y-10570000D01*
X17507044Y-12388489D02*
X17527044Y-12408489D01*
X17527044Y-12388489D02*
X17507044Y-12408489D01*
X17510000Y-10480000D02*
X17530000Y-10500000D01*
X17530000Y-10480000D02*
X17510000Y-10500000D01*
X17510000Y-11430000D02*
X17530000Y-11450000D01*
X17530000Y-11430000D02*
X17510000Y-11450000D01*
X17520000Y-12590000D02*
X17540000Y-12610000D01*
X17540000Y-12590000D02*
X17520000Y-12610000D01*
X17520000Y-12690000D02*
X17540000Y-12710000D01*
X17540000Y-12690000D02*
X17520000Y-12710000D01*
X17520000Y-12790000D02*
X17540000Y-12810000D01*
X17540000Y-12790000D02*
X17520000Y-12810000D01*
X17520000Y-12890000D02*
X17540000Y-12910000D01*
X17540000Y-12890000D02*
X17520000Y-12910000D01*
X17530000Y-11370000D02*
X17550000Y-11390000D01*
X17550000Y-11370000D02*
X17530000Y-11390000D01*
X17570000Y-12640000D02*
X17590000Y-12660000D01*
X17590000Y-12640000D02*
X17570000Y-12660000D01*
X17570000Y-12740000D02*
X17590000Y-12760000D01*
X17590000Y-12740000D02*
X17570000Y-12760000D01*
X17570000Y-12840000D02*
X17590000Y-12860000D01*
X17590000Y-12840000D02*
X17570000Y-12860000D01*
X17580000Y-11330000D02*
X17600000Y-11350000D01*
X17600000Y-11330000D02*
X17580000Y-11350000D01*
X17586582Y-11409607D02*
X17606582Y-11429607D01*
X17606582Y-11409607D02*
X17586582Y-11429607D01*
X17600000Y-10645000D02*
X17620000Y-10665000D01*
X17620000Y-10645000D02*
X17600000Y-10665000D01*
X17600000Y-10725000D02*
X17620000Y-10745000D01*
X17620000Y-10725000D02*
X17600000Y-10745000D01*
X17610000Y-11600000D02*
X17630000Y-11620000D01*
X17630000Y-11600000D02*
X17610000Y-11620000D01*
X17650000Y-11730000D02*
X17670000Y-11750000D01*
X17670000Y-11730000D02*
X17650000Y-11750000D01*
X17730000Y-11040000D02*
X17750000Y-11060000D01*
X17750000Y-11040000D02*
X17730000Y-11060000D01*
X17780000Y-12605000D02*
X17800000Y-12625000D01*
X17800000Y-12605000D02*
X17780000Y-12625000D01*
X17830000Y-11920000D02*
X17850000Y-11940000D01*
X17850000Y-11920000D02*
X17830000Y-11940000D01*
X15780000Y-10598500D02*
G75*
G03*
X15760000Y-10598500I-10000J0D01*
G01*
X15760000Y-10598500D02*
G75*
G03*
X15780000Y-10598500I10000J0D01*
G01*
X15780000Y-10738500D02*
G75*
G03*
X15760000Y-10738500I-10000J0D01*
G01*
X15760000Y-10738500D02*
G75*
G03*
X15780000Y-10738500I10000J0D01*
G01*
X15850000Y-10528500D02*
G75*
G03*
X15830000Y-10528500I-10000J0D01*
G01*
X15830000Y-10528500D02*
G75*
G03*
X15850000Y-10528500I10000J0D01*
G01*
X15850000Y-10668500D02*
G75*
G03*
X15830000Y-10668500I-10000J0D01*
G01*
X15830000Y-10668500D02*
G75*
G03*
X15850000Y-10668500I10000J0D01*
G01*
X15850000Y-10808500D02*
G75*
G03*
X15830000Y-10808500I-10000J0D01*
G01*
X15830000Y-10808500D02*
G75*
G03*
X15850000Y-10808500I10000J0D01*
G01*
X15920000Y-10598500D02*
G75*
G03*
X15900000Y-10598500I-10000J0D01*
G01*
X15900000Y-10598500D02*
G75*
G03*
X15920000Y-10598500I10000J0D01*
G01*
X15920000Y-10738500D02*
G75*
G03*
X15900000Y-10738500I-10000J0D01*
G01*
X15900000Y-10738500D02*
G75*
G03*
X15920000Y-10738500I10000J0D01*
G01*
X15990000Y-10528500D02*
G75*
G03*
X15970000Y-10528500I-10000J0D01*
G01*
X15970000Y-10528500D02*
G75*
G03*
X15990000Y-10528500I10000J0D01*
G01*
X15990000Y-10668500D02*
G75*
G03*
X15970000Y-10668500I-10000J0D01*
G01*
X15970000Y-10668500D02*
G75*
G03*
X15990000Y-10668500I10000J0D01*
G01*
X15990000Y-10808500D02*
G75*
G03*
X15970000Y-10808500I-10000J0D01*
G01*
X15970000Y-10808500D02*
G75*
G03*
X15990000Y-10808500I10000J0D01*
G01*
X16060000Y-10598500D02*
G75*
G03*
X16040000Y-10598500I-10000J0D01*
G01*
X16040000Y-10598500D02*
G75*
G03*
X16060000Y-10598500I10000J0D01*
G01*
X16060000Y-10738500D02*
G75*
G03*
X16040000Y-10738500I-10000J0D01*
G01*
X16040000Y-10738500D02*
G75*
G03*
X16060000Y-10738500I10000J0D01*
G01*
X13660000Y-13307000D02*
X13660000Y-13333000D01*
X13647000Y-13320000D02*
X13673000Y-13320000D01*
X13660000Y-13407000D02*
X13660000Y-13433000D01*
X13647000Y-13420000D02*
X13673000Y-13420000D01*
X13660000Y-13507000D02*
X13660000Y-13533000D01*
X13647000Y-13520000D02*
X13673000Y-13520000D01*
X13660000Y-13607000D02*
X13660000Y-13633000D01*
X13647000Y-13620000D02*
X13673000Y-13620000D01*
X13710000Y-13557000D02*
X13710000Y-13583000D01*
X13697000Y-13570000D02*
X13723000Y-13570000D01*
X13710000Y-13257000D02*
X13710000Y-13283000D01*
X13697000Y-13270000D02*
X13723000Y-13270000D01*
X13710000Y-13357000D02*
X13710000Y-13383000D01*
X13697000Y-13370000D02*
X13723000Y-13370000D01*
X13710000Y-13457000D02*
X13710000Y-13483000D01*
X13697000Y-13470000D02*
X13723000Y-13470000D01*
X13710500Y-13657000D02*
X13710500Y-13683000D01*
X13697500Y-13670000D02*
X13723500Y-13670000D01*
X13905000Y-13352000D02*
X13905000Y-13378000D01*
X13892000Y-13365000D02*
X13918000Y-13365000D01*
X13905000Y-13452000D02*
X13905000Y-13478000D01*
X13892000Y-13465000D02*
X13918000Y-13465000D01*
X13905000Y-13552000D02*
X13905000Y-13578000D01*
X13892000Y-13565000D02*
X13918000Y-13565000D01*
X14003000Y-13352000D02*
X14003000Y-13378000D01*
X13990000Y-13365000D02*
X14016000Y-13365000D01*
X14005000Y-13452000D02*
X14005000Y-13478000D01*
X13992000Y-13465000D02*
X14018000Y-13465000D01*
X14005000Y-13552000D02*
X14005000Y-13578000D01*
X13992000Y-13565000D02*
X14018000Y-13565000D01*
X14105000Y-13348000D02*
X14105000Y-13374000D01*
X14092000Y-13361000D02*
X14118000Y-13361000D01*
X14105000Y-13452000D02*
X14105000Y-13478000D01*
X14092000Y-13465000D02*
X14118000Y-13465000D01*
X14105000Y-13552000D02*
X14105000Y-13578000D01*
X14092000Y-13565000D02*
X14118000Y-13565000D01*
X14325000Y-13457000D02*
X14325000Y-13483000D01*
X14312000Y-13470000D02*
X14338000Y-13470000D01*
X14325000Y-13642000D02*
X14325000Y-13668000D01*
X14312000Y-13655000D02*
X14338000Y-13655000D01*
X14425000Y-13457000D02*
X14425000Y-13483000D01*
X14412000Y-13470000D02*
X14438000Y-13470000D01*
X14425000Y-13642000D02*
X14425000Y-13668000D01*
X14412000Y-13655000D02*
X14438000Y-13655000D01*
X14525000Y-13457000D02*
X14525000Y-13483000D01*
X14512000Y-13470000D02*
X14538000Y-13470000D01*
X14525000Y-13642000D02*
X14525000Y-13668000D01*
X14512000Y-13655000D02*
X14538000Y-13655000D01*
X14625000Y-13457000D02*
X14625000Y-13483000D01*
X14612000Y-13470000D02*
X14638000Y-13470000D01*
X14625000Y-13642000D02*
X14625000Y-13668000D01*
X14612000Y-13655000D02*
X14638000Y-13655000D01*
X14979500Y-13262000D02*
X14979500Y-13288000D01*
X14966500Y-13275000D02*
X14992500Y-13275000D01*
X14980000Y-13362000D02*
X14980000Y-13388000D01*
X14967000Y-13375000D02*
X14993000Y-13375000D01*
X14980000Y-13462000D02*
X14980000Y-13488000D01*
X14967000Y-13475000D02*
X14993000Y-13475000D01*
X14980000Y-13562000D02*
X14980000Y-13588000D01*
X14967000Y-13575000D02*
X14993000Y-13575000D01*
X15030000Y-13312000D02*
X15030000Y-13338000D01*
X15017000Y-13325000D02*
X15043000Y-13325000D01*
X15030000Y-13412000D02*
X15030000Y-13438000D01*
X15017000Y-13425000D02*
X15043000Y-13425000D01*
X15030000Y-13512000D02*
X15030000Y-13538000D01*
X15017000Y-13525000D02*
X15043000Y-13525000D01*
X15030000Y-13612000D02*
X15030000Y-13638000D01*
X15017000Y-13625000D02*
X15043000Y-13625000D01*
X15245000Y-13307000D02*
X15245000Y-13333000D01*
X15232000Y-13320000D02*
X15258000Y-13320000D01*
X15245000Y-13407000D02*
X15245000Y-13433000D01*
X15232000Y-13420000D02*
X15258000Y-13420000D01*
X15245000Y-13507000D02*
X15245000Y-13533000D01*
X15232000Y-13520000D02*
X15258000Y-13520000D01*
X15345000Y-13307000D02*
X15345000Y-13333000D01*
X15332000Y-13320000D02*
X15358000Y-13320000D01*
X15345000Y-13407000D02*
X15345000Y-13433000D01*
X15332000Y-13420000D02*
X15358000Y-13420000D01*
X15345000Y-13507000D02*
X15345000Y-13533000D01*
X15332000Y-13520000D02*
X15358000Y-13520000D01*
X15445000Y-13307000D02*
X15445000Y-13333000D01*
X15432000Y-13320000D02*
X15458000Y-13320000D01*
X15445000Y-13407000D02*
X15445000Y-13433000D01*
X15432000Y-13420000D02*
X15458000Y-13420000D01*
X15445000Y-13507000D02*
X15445000Y-13533000D01*
X15432000Y-13520000D02*
X15458000Y-13520000D01*
X15655000Y-13417000D02*
X15655000Y-13443000D01*
X15642000Y-13430000D02*
X15668000Y-13430000D01*
X15655000Y-13617000D02*
X15655000Y-13643000D01*
X15642000Y-13630000D02*
X15668000Y-13630000D01*
X15755000Y-13417000D02*
X15755000Y-13443000D01*
X15742000Y-13430000D02*
X15768000Y-13430000D01*
X15755000Y-13617000D02*
X15755000Y-13643000D01*
X15742000Y-13630000D02*
X15768000Y-13630000D01*
X15855000Y-13417000D02*
X15855000Y-13443000D01*
X15842000Y-13430000D02*
X15868000Y-13430000D01*
X15855000Y-13617000D02*
X15855000Y-13643000D01*
X15842000Y-13630000D02*
X15868000Y-13630000D01*
X15955000Y-13417000D02*
X15955000Y-13443000D01*
X15942000Y-13430000D02*
X15968000Y-13430000D01*
X15955000Y-13617000D02*
X15955000Y-13643000D01*
X15942000Y-13630000D02*
X15968000Y-13630000D01*
X16475000Y-13417000D02*
X16475000Y-13443000D01*
X16462000Y-13430000D02*
X16488000Y-13430000D01*
X16475000Y-13612000D02*
X16475000Y-13638000D01*
X16462000Y-13625000D02*
X16488000Y-13625000D01*
X16575000Y-13417000D02*
X16575000Y-13443000D01*
X16562000Y-13430000D02*
X16588000Y-13430000D01*
X16575000Y-13612000D02*
X16575000Y-13638000D01*
X16562000Y-13625000D02*
X16588000Y-13625000D01*
X16675000Y-13417000D02*
X16675000Y-13443000D01*
X16662000Y-13430000D02*
X16688000Y-13430000D01*
X16675000Y-13612000D02*
X16675000Y-13638000D01*
X16662000Y-13625000D02*
X16688000Y-13625000D01*
X16775000Y-13417000D02*
X16775000Y-13443000D01*
X16762000Y-13430000D02*
X16788000Y-13430000D01*
X16775000Y-13612000D02*
X16775000Y-13638000D01*
X16762000Y-13625000D02*
X16788000Y-13625000D01*
X16875000Y-13612000D02*
X16875000Y-13638000D01*
X16862000Y-13625000D02*
X16888000Y-13625000D01*
X17100000Y-13307000D02*
X17100000Y-13333000D01*
X17087000Y-13320000D02*
X17113000Y-13320000D01*
X17100000Y-13407000D02*
X17100000Y-13433000D01*
X17087000Y-13420000D02*
X17113000Y-13420000D01*
X17100000Y-13507000D02*
X17100000Y-13533000D01*
X17087000Y-13520000D02*
X17113000Y-13520000D01*
X17200000Y-13307000D02*
X17200000Y-13333000D01*
X17187000Y-13320000D02*
X17213000Y-13320000D01*
X17200000Y-13407000D02*
X17200000Y-13433000D01*
X17187000Y-13420000D02*
X17213000Y-13420000D01*
X17200000Y-13507000D02*
X17200000Y-13533000D01*
X17187000Y-13520000D02*
X17213000Y-13520000D01*
X17300000Y-13307000D02*
X17300000Y-13333000D01*
X17287000Y-13320000D02*
X17313000Y-13320000D01*
X17300000Y-13407000D02*
X17300000Y-13433000D01*
X17287000Y-13420000D02*
X17313000Y-13420000D01*
X17300000Y-13507000D02*
X17300000Y-13533000D01*
X17287000Y-13520000D02*
X17313000Y-13520000D01*
X17481000Y-13162000D02*
X17481000Y-13188000D01*
X17468000Y-13175000D02*
X17494000Y-13175000D01*
X17481000Y-13262000D02*
X17481000Y-13288000D01*
X17468000Y-13275000D02*
X17494000Y-13275000D01*
X17481000Y-13362000D02*
X17481000Y-13388000D01*
X17468000Y-13375000D02*
X17494000Y-13375000D01*
X17481000Y-13462000D02*
X17481000Y-13488000D01*
X17468000Y-13475000D02*
X17494000Y-13475000D01*
X17481000Y-13562000D02*
X17481000Y-13588000D01*
X17468000Y-13575000D02*
X17494000Y-13575000D01*
X17531000Y-13212000D02*
X17531000Y-13238000D01*
X17518000Y-13225000D02*
X17544000Y-13225000D01*
X17531000Y-13312000D02*
X17531000Y-13338000D01*
X17518000Y-13325000D02*
X17544000Y-13325000D01*
X17531000Y-13412000D02*
X17531000Y-13438000D01*
X17518000Y-13425000D02*
X17544000Y-13425000D01*
X17531000Y-13512000D02*
X17531000Y-13538000D01*
X17518000Y-13525000D02*
X17544000Y-13525000D01*
X14820607Y-11839357D02*
X14820607Y-11818143D01*
X14799393Y-11818143D01*
X14799393Y-11839357D01*
X14820607Y-11839357D01*
X14960607Y-11839357D02*
X14960607Y-11818143D01*
X14939393Y-11818143D01*
X14939393Y-11839357D01*
X14960607Y-11839357D01*
X14367500Y-14043500D02*
X14392500Y-14018500D01*
X14367500Y-13993500D01*
X14342500Y-14018500D01*
X14367500Y-14043500D01*
X14422417Y-13910917D02*
X14447417Y-13885917D01*
X14422417Y-13860917D01*
X14397417Y-13885917D01*
X14422417Y-13910917D01*
X14422417Y-14176082D02*
X14447417Y-14151082D01*
X14422417Y-14126082D01*
X14397417Y-14151082D01*
X14422417Y-14176082D01*
X14555000Y-13856000D02*
X14580000Y-13831000D01*
X14555000Y-13806000D01*
X14530000Y-13831000D01*
X14555000Y-13856000D01*
X14555000Y-14231000D02*
X14580000Y-14206000D01*
X14555000Y-14181000D01*
X14530000Y-14206000D01*
X14555000Y-14231000D01*
X14687582Y-13910917D02*
X14712582Y-13885917D01*
X14687582Y-13860917D01*
X14662582Y-13885917D01*
X14687582Y-13910917D01*
X14687582Y-14176082D02*
X14712582Y-14151082D01*
X14687582Y-14126082D01*
X14662582Y-14151082D01*
X14687582Y-14176082D01*
X14742500Y-14043500D02*
X14767500Y-14018500D01*
X14742500Y-13993500D01*
X14717500Y-14018500D01*
X14742500Y-14043500D01*
X15447500Y-14043500D02*
X15472500Y-14018500D01*
X15447500Y-13993500D01*
X15422500Y-14018500D01*
X15447500Y-14043500D01*
X15502417Y-13910917D02*
X15527417Y-13885917D01*
X15502417Y-13860917D01*
X15477417Y-13885917D01*
X15502417Y-13910917D01*
X15502417Y-14176082D02*
X15527417Y-14151082D01*
X15502417Y-14126082D01*
X15477417Y-14151082D01*
X15502417Y-14176082D01*
X15635000Y-13856000D02*
X15660000Y-13831000D01*
X15635000Y-13806000D01*
X15610000Y-13831000D01*
X15635000Y-13856000D01*
X15635000Y-14231000D02*
X15660000Y-14206000D01*
X15635000Y-14181000D01*
X15610000Y-14206000D01*
X15635000Y-14231000D01*
X15767582Y-13910917D02*
X15792582Y-13885917D01*
X15767582Y-13860917D01*
X15742582Y-13885917D01*
X15767582Y-13910917D01*
X15767582Y-14176082D02*
X15792582Y-14151082D01*
X15767582Y-14126082D01*
X15742582Y-14151082D01*
X15767582Y-14176082D01*
X15822500Y-14043500D02*
X15847500Y-14018500D01*
X15822500Y-13993500D01*
X15797500Y-14018500D01*
X15822500Y-14043500D01*
X16527500Y-14043500D02*
X16552500Y-14018500D01*
X16527500Y-13993500D01*
X16502500Y-14018500D01*
X16527500Y-14043500D01*
X16582417Y-13910917D02*
X16607417Y-13885917D01*
X16582417Y-13860917D01*
X16557417Y-13885917D01*
X16582417Y-13910917D01*
X16582417Y-14176082D02*
X16607417Y-14151082D01*
X16582417Y-14126082D01*
X16557417Y-14151082D01*
X16582417Y-14176082D01*
X16715000Y-13856000D02*
X16740000Y-13831000D01*
X16715000Y-13806000D01*
X16690000Y-13831000D01*
X16715000Y-13856000D01*
X16715000Y-14231000D02*
X16740000Y-14206000D01*
X16715000Y-14181000D01*
X16690000Y-14206000D01*
X16715000Y-14231000D01*
X16847583Y-13910917D02*
X16872583Y-13885917D01*
X16847583Y-13860917D01*
X16822583Y-13885917D01*
X16847583Y-13910917D01*
X16847583Y-14176082D02*
X16872583Y-14151082D01*
X16847583Y-14126082D01*
X16822583Y-14151082D01*
X16847583Y-14176082D01*
X16902500Y-14043500D02*
X16927500Y-14018500D01*
X16902500Y-13993500D01*
X16877500Y-14018500D01*
X16902500Y-14043500D01*
X14053500Y-9882000D02*
X14113500Y-9942000D01*
X14113500Y-9882000D02*
X14053500Y-9942000D01*
X14113500Y-9912000D02*
G75*
G03*
X14053500Y-9912000I-30000J0D01*
G01*
X14053500Y-9912000D02*
G75*
G03*
X14113500Y-9912000I30000J0D01*
G01*
X14113500Y-9952000D02*
X14113500Y-9872000D01*
X14113500Y-9872000D02*
G75*
G03*
X14053500Y-9872000I-30000J0D01*
G01*
X14053500Y-9872000D02*
X14053500Y-9952000D01*
X14053500Y-9952000D02*
G75*
G03*
X14113500Y-9952000I30000J0D01*
G01*
X14053500Y-10300000D02*
X14113500Y-10360000D01*
X14113500Y-10300000D02*
X14053500Y-10360000D01*
X14113500Y-10330000D02*
G75*
G03*
X14053500Y-10330000I-30000J0D01*
G01*
X14053500Y-10330000D02*
G75*
G03*
X14113500Y-10330000I30000J0D01*
G01*
X14113500Y-10385000D02*
X14113500Y-10275000D01*
X14113500Y-10275000D02*
G75*
G03*
X14053500Y-10275000I-30000J0D01*
G01*
X14053500Y-10275000D02*
X14053500Y-10385000D01*
X14053500Y-10385000D02*
G75*
G03*
X14113500Y-10385000I30000J0D01*
G01*
X14917500Y-9882000D02*
X14977500Y-9942000D01*
X14977500Y-9882000D02*
X14917500Y-9942000D01*
X14977500Y-9912000D02*
G75*
G03*
X14917500Y-9912000I-30000J0D01*
G01*
X14917500Y-9912000D02*
G75*
G03*
X14977500Y-9912000I30000J0D01*
G01*
X14977500Y-9952000D02*
X14977500Y-9872000D01*
X14977500Y-9872000D02*
G75*
G03*
X14917500Y-9872000I-30000J0D01*
G01*
X14917500Y-9872000D02*
X14917500Y-9952000D01*
X14917500Y-9952000D02*
G75*
G03*
X14977500Y-9952000I30000J0D01*
G01*
X14917500Y-10300000D02*
X14977500Y-10360000D01*
X14977500Y-10300000D02*
X14917500Y-10360000D01*
X14977500Y-10330000D02*
G75*
G03*
X14917500Y-10330000I-30000J0D01*
G01*
X14917500Y-10330000D02*
G75*
G03*
X14977500Y-10330000I30000J0D01*
G01*
X14977500Y-10385000D02*
X14977500Y-10275000D01*
X14977500Y-10275000D02*
G75*
G03*
X14917500Y-10275000I-30000J0D01*
G01*
X14917500Y-10275000D02*
X14917500Y-10385000D01*
X14917500Y-10385000D02*
G75*
G03*
X14977500Y-10385000I30000J0D01*
G01*
X13395000Y-10458500D02*
X13495000Y-10558500D01*
X13495000Y-10458500D02*
X13395000Y-10558500D01*
X13445000Y-10458500D02*
X13445000Y-10558500D01*
X13395000Y-10508500D02*
X13495000Y-10508500D01*
X13395000Y-11558500D02*
X13495000Y-11658500D01*
X13495000Y-11558500D02*
X13395000Y-11658500D01*
X13445000Y-11558500D02*
X13445000Y-11658500D01*
X13395000Y-11608500D02*
X13495000Y-11608500D01*
X13395000Y-11848500D02*
X13495000Y-11948500D01*
X13495000Y-11848500D02*
X13395000Y-11948500D01*
X13445000Y-11848500D02*
X13445000Y-11948500D01*
X13395000Y-11898500D02*
X13495000Y-11898500D01*
X13395000Y-12948500D02*
X13495000Y-13048500D01*
X13495000Y-12948500D02*
X13395000Y-13048500D01*
X13445000Y-12948500D02*
X13445000Y-13048500D01*
X13395000Y-12998500D02*
X13495000Y-12998500D01*
D13*
X14350000Y-10713500D02*
X14540000Y-10903500D01*
X14540000Y-10713500D02*
X14350000Y-10903500D01*
X14512176Y-10875676D02*
X14512176Y-10741324D01*
X14377824Y-10741324D01*
X14377824Y-10875676D01*
X14512176Y-10875676D01*
X14350000Y-11213500D02*
X14540000Y-11403500D01*
X14540000Y-11213500D02*
X14350000Y-11403500D01*
X14512176Y-11375676D02*
X14512176Y-11241324D01*
X14377824Y-11241324D01*
X14377824Y-11375676D01*
X14512176Y-11375676D01*
X14350000Y-12103500D02*
X14540000Y-12293500D01*
X14540000Y-12103500D02*
X14350000Y-12293500D01*
X14512176Y-12265676D02*
X14512176Y-12131324D01*
X14377824Y-12131324D01*
X14377824Y-12265676D01*
X14512176Y-12265676D01*
X14350000Y-12603500D02*
X14540000Y-12793500D01*
X14540000Y-12603500D02*
X14350000Y-12793500D01*
X14512176Y-12765676D02*
X14512176Y-12631324D01*
X14377824Y-12631324D01*
X14377824Y-12765676D01*
X14512176Y-12765676D01*
D14*
X14430000Y-13893500D02*
X14680000Y-14143500D01*
X14680000Y-13893500D02*
X14430000Y-14143500D01*
X14555000Y-14143500D02*
X14680000Y-14018500D01*
X14555000Y-13893500D01*
X14430000Y-14018500D01*
X14555000Y-14143500D01*
X15510000Y-13893500D02*
X15760000Y-14143500D01*
X15760000Y-13893500D02*
X15510000Y-14143500D01*
X15635000Y-14143500D02*
X15760000Y-14018500D01*
X15635000Y-13893500D01*
X15510000Y-14018500D01*
X15635000Y-14143500D01*
X16590000Y-13893500D02*
X16840000Y-14143500D01*
X16840000Y-13893500D02*
X16590000Y-14143500D01*
X16715000Y-14143500D02*
X16840000Y-14018500D01*
X16715000Y-13893500D01*
X16590000Y-14018500D01*
X16715000Y-14143500D01*
D15*
X13585000Y-9888500D02*
X13585000Y-10208500D01*
X13425000Y-10048500D02*
X13745000Y-10048500D01*
X13745000Y-10048500D02*
G75*
G03*
X13425000Y-10048500I-160000J0D01*
G01*
X13425000Y-10048500D02*
G75*
G03*
X13745000Y-10048500I160000J0D01*
G01*
X13585000Y-13888500D02*
X13585000Y-14208500D01*
X13425000Y-14048500D02*
X13745000Y-14048500D01*
X13745000Y-14048500D02*
G75*
G03*
X13425000Y-14048500I-160000J0D01*
G01*
X13425000Y-14048500D02*
G75*
G03*
X13745000Y-14048500I160000J0D01*
G01*
X17585000Y-9888500D02*
X17585000Y-10208500D01*
X17425000Y-10048500D02*
X17745000Y-10048500D01*
X17745000Y-10048500D02*
G75*
G03*
X17425000Y-10048500I-160000J0D01*
G01*
X17425000Y-10048500D02*
G75*
G03*
X17745000Y-10048500I160000J0D01*
G01*
X17585000Y-13888500D02*
X17585000Y-14208500D01*
X17425000Y-14048500D02*
X17745000Y-14048500D01*
X17745000Y-14048500D02*
G75*
G03*
X17425000Y-14048500I-160000J0D01*
G01*
X17425000Y-14048500D02*
G75*
G03*
X17745000Y-14048500I160000J0D01*
G01*
D11*
X13543277Y-14662484D02*
X13543277Y-14462484D01*
X13543277Y-14462484D02*
X13590896Y-14462484D01*
X13590896Y-14462484D02*
X13619467Y-14472008D01*
X13619467Y-14472008D02*
X13638515Y-14491055D01*
X13638515Y-14491055D02*
X13648039Y-14510103D01*
X13648039Y-14510103D02*
X13657562Y-14548198D01*
X13657562Y-14548198D02*
X13657562Y-14576769D01*
X13657562Y-14576769D02*
X13648039Y-14614865D01*
X13648039Y-14614865D02*
X13638515Y-14633912D01*
X13638515Y-14633912D02*
X13619467Y-14652960D01*
X13619467Y-14652960D02*
X13590896Y-14662484D01*
X13590896Y-14662484D02*
X13543277Y-14662484D01*
X13743277Y-14662484D02*
X13743277Y-14529150D01*
X13743277Y-14567246D02*
X13752801Y-14548198D01*
X13752801Y-14548198D02*
X13762324Y-14538674D01*
X13762324Y-14538674D02*
X13781372Y-14529150D01*
X13781372Y-14529150D02*
X13800420Y-14529150D01*
X13867086Y-14662484D02*
X13867086Y-14529150D01*
X13867086Y-14462484D02*
X13857562Y-14472008D01*
X13857562Y-14472008D02*
X13867086Y-14481531D01*
X13867086Y-14481531D02*
X13876610Y-14472008D01*
X13876610Y-14472008D02*
X13867086Y-14462484D01*
X13867086Y-14462484D02*
X13867086Y-14481531D01*
X13990896Y-14662484D02*
X13971848Y-14652960D01*
X13971848Y-14652960D02*
X13962324Y-14633912D01*
X13962324Y-14633912D02*
X13962324Y-14462484D01*
X14095658Y-14662484D02*
X14076610Y-14652960D01*
X14076610Y-14652960D02*
X14067086Y-14633912D01*
X14067086Y-14633912D02*
X14067086Y-14462484D01*
X14324229Y-14662484D02*
X14324229Y-14462484D01*
X14324229Y-14462484D02*
X14390896Y-14605341D01*
X14390896Y-14605341D02*
X14457562Y-14462484D01*
X14457562Y-14462484D02*
X14457562Y-14662484D01*
X14638515Y-14662484D02*
X14638515Y-14557722D01*
X14638515Y-14557722D02*
X14628991Y-14538674D01*
X14628991Y-14538674D02*
X14609943Y-14529150D01*
X14609943Y-14529150D02*
X14571848Y-14529150D01*
X14571848Y-14529150D02*
X14552801Y-14538674D01*
X14638515Y-14652960D02*
X14619467Y-14662484D01*
X14619467Y-14662484D02*
X14571848Y-14662484D01*
X14571848Y-14662484D02*
X14552801Y-14652960D01*
X14552801Y-14652960D02*
X14543277Y-14633912D01*
X14543277Y-14633912D02*
X14543277Y-14614865D01*
X14543277Y-14614865D02*
X14552801Y-14595817D01*
X14552801Y-14595817D02*
X14571848Y-14586293D01*
X14571848Y-14586293D02*
X14619467Y-14586293D01*
X14619467Y-14586293D02*
X14638515Y-14576769D01*
X14733753Y-14529150D02*
X14733753Y-14729150D01*
X14733753Y-14538674D02*
X14752801Y-14529150D01*
X14752801Y-14529150D02*
X14790896Y-14529150D01*
X14790896Y-14529150D02*
X14809943Y-14538674D01*
X14809943Y-14538674D02*
X14819467Y-14548198D01*
X14819467Y-14548198D02*
X14828991Y-14567246D01*
X14828991Y-14567246D02*
X14828991Y-14624388D01*
X14828991Y-14624388D02*
X14819467Y-14643436D01*
X14819467Y-14643436D02*
X14809943Y-14652960D01*
X14809943Y-14652960D02*
X14790896Y-14662484D01*
X14790896Y-14662484D02*
X14752801Y-14662484D01*
X14752801Y-14662484D02*
X14733753Y-14652960D01*
X14914705Y-14643436D02*
X14924229Y-14652960D01*
X14924229Y-14652960D02*
X14914705Y-14662484D01*
X14914705Y-14662484D02*
X14905182Y-14652960D01*
X14905182Y-14652960D02*
X14914705Y-14643436D01*
X14914705Y-14643436D02*
X14914705Y-14662484D01*
X14914705Y-14538674D02*
X14924229Y-14548198D01*
X14924229Y-14548198D02*
X14914705Y-14557722D01*
X14914705Y-14557722D02*
X14905182Y-14548198D01*
X14905182Y-14548198D02*
X14914705Y-14538674D01*
X14914705Y-14538674D02*
X14914705Y-14557722D01*
D12*
X13262500Y-14981000D02*
X13282500Y-15001000D01*
X13282500Y-14981000D02*
X13262500Y-15001000D01*
D11*
X13581372Y-14882484D02*
X13600420Y-14882484D01*
X13600420Y-14882484D02*
X13619467Y-14892008D01*
X13619467Y-14892008D02*
X13628991Y-14901531D01*
X13628991Y-14901531D02*
X13638515Y-14920579D01*
X13638515Y-14920579D02*
X13648039Y-14958674D01*
X13648039Y-14958674D02*
X13648039Y-15006293D01*
X13648039Y-15006293D02*
X13638515Y-15044388D01*
X13638515Y-15044388D02*
X13628991Y-15063436D01*
X13628991Y-15063436D02*
X13619467Y-15072960D01*
X13619467Y-15072960D02*
X13600420Y-15082484D01*
X13600420Y-15082484D02*
X13581372Y-15082484D01*
X13581372Y-15082484D02*
X13562324Y-15072960D01*
X13562324Y-15072960D02*
X13552801Y-15063436D01*
X13552801Y-15063436D02*
X13543277Y-15044388D01*
X13543277Y-15044388D02*
X13533753Y-15006293D01*
X13533753Y-15006293D02*
X13533753Y-14958674D01*
X13533753Y-14958674D02*
X13543277Y-14920579D01*
X13543277Y-14920579D02*
X13552801Y-14901531D01*
X13552801Y-14901531D02*
X13562324Y-14892008D01*
X13562324Y-14892008D02*
X13581372Y-14882484D01*
X13733753Y-15063436D02*
X13743277Y-15072960D01*
X13743277Y-15072960D02*
X13733753Y-15082484D01*
X13733753Y-15082484D02*
X13724229Y-15072960D01*
X13724229Y-15072960D02*
X13733753Y-15063436D01*
X13733753Y-15063436D02*
X13733753Y-15082484D01*
X13819467Y-14901531D02*
X13828991Y-14892008D01*
X13828991Y-14892008D02*
X13848039Y-14882484D01*
X13848039Y-14882484D02*
X13895658Y-14882484D01*
X13895658Y-14882484D02*
X13914705Y-14892008D01*
X13914705Y-14892008D02*
X13924229Y-14901531D01*
X13924229Y-14901531D02*
X13933753Y-14920579D01*
X13933753Y-14920579D02*
X13933753Y-14939627D01*
X13933753Y-14939627D02*
X13924229Y-14968198D01*
X13924229Y-14968198D02*
X13809943Y-15082484D01*
X13809943Y-15082484D02*
X13933753Y-15082484D01*
X14057562Y-14882484D02*
X14076610Y-14882484D01*
X14076610Y-14882484D02*
X14095658Y-14892008D01*
X14095658Y-14892008D02*
X14105182Y-14901531D01*
X14105182Y-14901531D02*
X14114705Y-14920579D01*
X14114705Y-14920579D02*
X14124229Y-14958674D01*
X14124229Y-14958674D02*
X14124229Y-15006293D01*
X14124229Y-15006293D02*
X14114705Y-15044388D01*
X14114705Y-15044388D02*
X14105182Y-15063436D01*
X14105182Y-15063436D02*
X14095658Y-15072960D01*
X14095658Y-15072960D02*
X14076610Y-15082484D01*
X14076610Y-15082484D02*
X14057562Y-15082484D01*
X14057562Y-15082484D02*
X14038515Y-15072960D01*
X14038515Y-15072960D02*
X14028991Y-15063436D01*
X14028991Y-15063436D02*
X14019467Y-15044388D01*
X14019467Y-15044388D02*
X14009943Y-15006293D01*
X14009943Y-15006293D02*
X14009943Y-14958674D01*
X14009943Y-14958674D02*
X14019467Y-14920579D01*
X14019467Y-14920579D02*
X14028991Y-14901531D01*
X14028991Y-14901531D02*
X14038515Y-14892008D01*
X14038515Y-14892008D02*
X14057562Y-14882484D01*
X14248039Y-14882484D02*
X14267086Y-14882484D01*
X14267086Y-14882484D02*
X14286134Y-14892008D01*
X14286134Y-14892008D02*
X14295658Y-14901531D01*
X14295658Y-14901531D02*
X14305182Y-14920579D01*
X14305182Y-14920579D02*
X14314705Y-14958674D01*
X14314705Y-14958674D02*
X14314705Y-15006293D01*
X14314705Y-15006293D02*
X14305182Y-15044388D01*
X14305182Y-15044388D02*
X14295658Y-15063436D01*
X14295658Y-15063436D02*
X14286134Y-15072960D01*
X14286134Y-15072960D02*
X14267086Y-15082484D01*
X14267086Y-15082484D02*
X14248039Y-15082484D01*
X14248039Y-15082484D02*
X14228991Y-15072960D01*
X14228991Y-15072960D02*
X14219467Y-15063436D01*
X14219467Y-15063436D02*
X14209943Y-15044388D01*
X14209943Y-15044388D02*
X14200420Y-15006293D01*
X14200420Y-15006293D02*
X14200420Y-14958674D01*
X14200420Y-14958674D02*
X14209943Y-14920579D01*
X14209943Y-14920579D02*
X14219467Y-14901531D01*
X14219467Y-14901531D02*
X14228991Y-14892008D01*
X14228991Y-14892008D02*
X14248039Y-14882484D01*
X14400420Y-15082484D02*
X14400420Y-14949150D01*
X14400420Y-14968198D02*
X14409943Y-14958674D01*
X14409943Y-14958674D02*
X14428991Y-14949150D01*
X14428991Y-14949150D02*
X14457563Y-14949150D01*
X14457563Y-14949150D02*
X14476610Y-14958674D01*
X14476610Y-14958674D02*
X14486134Y-14977722D01*
X14486134Y-14977722D02*
X14486134Y-15082484D01*
X14486134Y-14977722D02*
X14495658Y-14958674D01*
X14495658Y-14958674D02*
X14514705Y-14949150D01*
X14514705Y-14949150D02*
X14543277Y-14949150D01*
X14543277Y-14949150D02*
X14562324Y-14958674D01*
X14562324Y-14958674D02*
X14571848Y-14977722D01*
X14571848Y-14977722D02*
X14571848Y-15082484D01*
X14667086Y-15082484D02*
X14667086Y-14949150D01*
X14667086Y-14968198D02*
X14676610Y-14958674D01*
X14676610Y-14958674D02*
X14695658Y-14949150D01*
X14695658Y-14949150D02*
X14724229Y-14949150D01*
X14724229Y-14949150D02*
X14743277Y-14958674D01*
X14743277Y-14958674D02*
X14752801Y-14977722D01*
X14752801Y-14977722D02*
X14752801Y-15082484D01*
X14752801Y-14977722D02*
X14762324Y-14958674D01*
X14762324Y-14958674D02*
X14781372Y-14949150D01*
X14781372Y-14949150D02*
X14809943Y-14949150D01*
X14809943Y-14949150D02*
X14828991Y-14958674D01*
X14828991Y-14958674D02*
X14838515Y-14977722D01*
X14838515Y-14977722D02*
X14838515Y-15082484D01*
X15228991Y-14872960D02*
X15057563Y-15130103D01*
X15486134Y-14882484D02*
X15505182Y-14882484D01*
X15505182Y-14882484D02*
X15524229Y-14892008D01*
X15524229Y-14892008D02*
X15533753Y-14901531D01*
X15533753Y-14901531D02*
X15543277Y-14920579D01*
X15543277Y-14920579D02*
X15552801Y-14958674D01*
X15552801Y-14958674D02*
X15552801Y-15006293D01*
X15552801Y-15006293D02*
X15543277Y-15044388D01*
X15543277Y-15044388D02*
X15533753Y-15063436D01*
X15533753Y-15063436D02*
X15524229Y-15072960D01*
X15524229Y-15072960D02*
X15505182Y-15082484D01*
X15505182Y-15082484D02*
X15486134Y-15082484D01*
X15486134Y-15082484D02*
X15467086Y-15072960D01*
X15467086Y-15072960D02*
X15457563Y-15063436D01*
X15457563Y-15063436D02*
X15448039Y-15044388D01*
X15448039Y-15044388D02*
X15438515Y-15006293D01*
X15438515Y-15006293D02*
X15438515Y-14958674D01*
X15438515Y-14958674D02*
X15448039Y-14920579D01*
X15448039Y-14920579D02*
X15457563Y-14901531D01*
X15457563Y-14901531D02*
X15467086Y-14892008D01*
X15467086Y-14892008D02*
X15486134Y-14882484D01*
X15638515Y-15063436D02*
X15648039Y-15072960D01*
X15648039Y-15072960D02*
X15638515Y-15082484D01*
X15638515Y-15082484D02*
X15628991Y-15072960D01*
X15628991Y-15072960D02*
X15638515Y-15063436D01*
X15638515Y-15063436D02*
X15638515Y-15082484D01*
X15771848Y-14882484D02*
X15790896Y-14882484D01*
X15790896Y-14882484D02*
X15809944Y-14892008D01*
X15809944Y-14892008D02*
X15819467Y-14901531D01*
X15819467Y-14901531D02*
X15828991Y-14920579D01*
X15828991Y-14920579D02*
X15838515Y-14958674D01*
X15838515Y-14958674D02*
X15838515Y-15006293D01*
X15838515Y-15006293D02*
X15828991Y-15044388D01*
X15828991Y-15044388D02*
X15819467Y-15063436D01*
X15819467Y-15063436D02*
X15809944Y-15072960D01*
X15809944Y-15072960D02*
X15790896Y-15082484D01*
X15790896Y-15082484D02*
X15771848Y-15082484D01*
X15771848Y-15082484D02*
X15752801Y-15072960D01*
X15752801Y-15072960D02*
X15743277Y-15063436D01*
X15743277Y-15063436D02*
X15733753Y-15044388D01*
X15733753Y-15044388D02*
X15724229Y-15006293D01*
X15724229Y-15006293D02*
X15724229Y-14958674D01*
X15724229Y-14958674D02*
X15733753Y-14920579D01*
X15733753Y-14920579D02*
X15743277Y-14901531D01*
X15743277Y-14901531D02*
X15752801Y-14892008D01*
X15752801Y-14892008D02*
X15771848Y-14882484D01*
X15962325Y-14882484D02*
X15981372Y-14882484D01*
X15981372Y-14882484D02*
X16000420Y-14892008D01*
X16000420Y-14892008D02*
X16009944Y-14901531D01*
X16009944Y-14901531D02*
X16019467Y-14920579D01*
X16019467Y-14920579D02*
X16028991Y-14958674D01*
X16028991Y-14958674D02*
X16028991Y-15006293D01*
X16028991Y-15006293D02*
X16019467Y-15044388D01*
X16019467Y-15044388D02*
X16009944Y-15063436D01*
X16009944Y-15063436D02*
X16000420Y-15072960D01*
X16000420Y-15072960D02*
X15981372Y-15082484D01*
X15981372Y-15082484D02*
X15962325Y-15082484D01*
X15962325Y-15082484D02*
X15943277Y-15072960D01*
X15943277Y-15072960D02*
X15933753Y-15063436D01*
X15933753Y-15063436D02*
X15924229Y-15044388D01*
X15924229Y-15044388D02*
X15914706Y-15006293D01*
X15914706Y-15006293D02*
X15914706Y-14958674D01*
X15914706Y-14958674D02*
X15924229Y-14920579D01*
X15924229Y-14920579D02*
X15933753Y-14901531D01*
X15933753Y-14901531D02*
X15943277Y-14892008D01*
X15943277Y-14892008D02*
X15962325Y-14882484D01*
X16095658Y-14882484D02*
X16228991Y-14882484D01*
X16228991Y-14882484D02*
X16143277Y-15082484D01*
X16314706Y-15082484D02*
X16352801Y-15082484D01*
X16352801Y-15082484D02*
X16371848Y-15072960D01*
X16371848Y-15072960D02*
X16381372Y-15063436D01*
X16381372Y-15063436D02*
X16400420Y-15034865D01*
X16400420Y-15034865D02*
X16409944Y-14996769D01*
X16409944Y-14996769D02*
X16409944Y-14920579D01*
X16409944Y-14920579D02*
X16400420Y-14901531D01*
X16400420Y-14901531D02*
X16390896Y-14892008D01*
X16390896Y-14892008D02*
X16371848Y-14882484D01*
X16371848Y-14882484D02*
X16333753Y-14882484D01*
X16333753Y-14882484D02*
X16314706Y-14892008D01*
X16314706Y-14892008D02*
X16305182Y-14901531D01*
X16305182Y-14901531D02*
X16295658Y-14920579D01*
X16295658Y-14920579D02*
X16295658Y-14968198D01*
X16295658Y-14968198D02*
X16305182Y-14987246D01*
X16305182Y-14987246D02*
X16314706Y-14996769D01*
X16314706Y-14996769D02*
X16333753Y-15006293D01*
X16333753Y-15006293D02*
X16371848Y-15006293D01*
X16371848Y-15006293D02*
X16390896Y-14996769D01*
X16390896Y-14996769D02*
X16400420Y-14987246D01*
X16400420Y-14987246D02*
X16409944Y-14968198D01*
X16486134Y-14882484D02*
X16486134Y-14920579D01*
X16562325Y-14882484D02*
X16562325Y-14920579D01*
X16857563Y-15158674D02*
X16848039Y-15149150D01*
X16848039Y-15149150D02*
X16828991Y-15120579D01*
X16828991Y-15120579D02*
X16819468Y-15101531D01*
X16819468Y-15101531D02*
X16809944Y-15072960D01*
X16809944Y-15072960D02*
X16800420Y-15025341D01*
X16800420Y-15025341D02*
X16800420Y-14987246D01*
X16800420Y-14987246D02*
X16809944Y-14939627D01*
X16809944Y-14939627D02*
X16819468Y-14911055D01*
X16819468Y-14911055D02*
X16828991Y-14892008D01*
X16828991Y-14892008D02*
X16848039Y-14863436D01*
X16848039Y-14863436D02*
X16857563Y-14853912D01*
X16914706Y-14882484D02*
X17038515Y-14882484D01*
X17038515Y-14882484D02*
X16971849Y-14958674D01*
X16971849Y-14958674D02*
X17000420Y-14958674D01*
X17000420Y-14958674D02*
X17019468Y-14968198D01*
X17019468Y-14968198D02*
X17028991Y-14977722D01*
X17028991Y-14977722D02*
X17038515Y-14996769D01*
X17038515Y-14996769D02*
X17038515Y-15044388D01*
X17038515Y-15044388D02*
X17028991Y-15063436D01*
X17028991Y-15063436D02*
X17019468Y-15072960D01*
X17019468Y-15072960D02*
X17000420Y-15082484D01*
X17000420Y-15082484D02*
X16943277Y-15082484D01*
X16943277Y-15082484D02*
X16924230Y-15072960D01*
X16924230Y-15072960D02*
X16914706Y-15063436D01*
X17105182Y-14882484D02*
X17238515Y-14882484D01*
X17238515Y-14882484D02*
X17152801Y-15082484D01*
X17352801Y-14882484D02*
X17371849Y-14882484D01*
X17371849Y-14882484D02*
X17390896Y-14892008D01*
X17390896Y-14892008D02*
X17400420Y-14901531D01*
X17400420Y-14901531D02*
X17409944Y-14920579D01*
X17409944Y-14920579D02*
X17419468Y-14958674D01*
X17419468Y-14958674D02*
X17419468Y-15006293D01*
X17419468Y-15006293D02*
X17409944Y-15044388D01*
X17409944Y-15044388D02*
X17400420Y-15063436D01*
X17400420Y-15063436D02*
X17390896Y-15072960D01*
X17390896Y-15072960D02*
X17371849Y-15082484D01*
X17371849Y-15082484D02*
X17352801Y-15082484D01*
X17352801Y-15082484D02*
X17333753Y-15072960D01*
X17333753Y-15072960D02*
X17324230Y-15063436D01*
X17324230Y-15063436D02*
X17314706Y-15044388D01*
X17314706Y-15044388D02*
X17305182Y-15006293D01*
X17305182Y-15006293D02*
X17305182Y-14958674D01*
X17305182Y-14958674D02*
X17314706Y-14920579D01*
X17314706Y-14920579D02*
X17324230Y-14901531D01*
X17324230Y-14901531D02*
X17333753Y-14892008D01*
X17333753Y-14892008D02*
X17352801Y-14882484D01*
X17657563Y-15082484D02*
X17657563Y-14882484D01*
X17743277Y-15082484D02*
X17743277Y-14977722D01*
X17743277Y-14977722D02*
X17733753Y-14958674D01*
X17733753Y-14958674D02*
X17714706Y-14949150D01*
X17714706Y-14949150D02*
X17686134Y-14949150D01*
X17686134Y-14949150D02*
X17667087Y-14958674D01*
X17667087Y-14958674D02*
X17657563Y-14968198D01*
X17867087Y-15082484D02*
X17848039Y-15072960D01*
X17848039Y-15072960D02*
X17838515Y-15063436D01*
X17838515Y-15063436D02*
X17828992Y-15044388D01*
X17828992Y-15044388D02*
X17828992Y-14987246D01*
X17828992Y-14987246D02*
X17838515Y-14968198D01*
X17838515Y-14968198D02*
X17848039Y-14958674D01*
X17848039Y-14958674D02*
X17867087Y-14949150D01*
X17867087Y-14949150D02*
X17895658Y-14949150D01*
X17895658Y-14949150D02*
X17914706Y-14958674D01*
X17914706Y-14958674D02*
X17924230Y-14968198D01*
X17924230Y-14968198D02*
X17933753Y-14987246D01*
X17933753Y-14987246D02*
X17933753Y-15044388D01*
X17933753Y-15044388D02*
X17924230Y-15063436D01*
X17924230Y-15063436D02*
X17914706Y-15072960D01*
X17914706Y-15072960D02*
X17895658Y-15082484D01*
X17895658Y-15082484D02*
X17867087Y-15082484D01*
X18048039Y-15082484D02*
X18028992Y-15072960D01*
X18028992Y-15072960D02*
X18019468Y-15053912D01*
X18019468Y-15053912D02*
X18019468Y-14882484D01*
X18200420Y-15072960D02*
X18181373Y-15082484D01*
X18181373Y-15082484D02*
X18143277Y-15082484D01*
X18143277Y-15082484D02*
X18124230Y-15072960D01*
X18124230Y-15072960D02*
X18114706Y-15053912D01*
X18114706Y-15053912D02*
X18114706Y-14977722D01*
X18114706Y-14977722D02*
X18124230Y-14958674D01*
X18124230Y-14958674D02*
X18143277Y-14949150D01*
X18143277Y-14949150D02*
X18181373Y-14949150D01*
X18181373Y-14949150D02*
X18200420Y-14958674D01*
X18200420Y-14958674D02*
X18209944Y-14977722D01*
X18209944Y-14977722D02*
X18209944Y-14996769D01*
X18209944Y-14996769D02*
X18114706Y-15015817D01*
X18286134Y-15072960D02*
X18305182Y-15082484D01*
X18305182Y-15082484D02*
X18343277Y-15082484D01*
X18343277Y-15082484D02*
X18362325Y-15072960D01*
X18362325Y-15072960D02*
X18371849Y-15053912D01*
X18371849Y-15053912D02*
X18371849Y-15044388D01*
X18371849Y-15044388D02*
X18362325Y-15025341D01*
X18362325Y-15025341D02*
X18343277Y-15015817D01*
X18343277Y-15015817D02*
X18314706Y-15015817D01*
X18314706Y-15015817D02*
X18295658Y-15006293D01*
X18295658Y-15006293D02*
X18286134Y-14987246D01*
X18286134Y-14987246D02*
X18286134Y-14977722D01*
X18286134Y-14977722D02*
X18295658Y-14958674D01*
X18295658Y-14958674D02*
X18314706Y-14949150D01*
X18314706Y-14949150D02*
X18343277Y-14949150D01*
X18343277Y-14949150D02*
X18362325Y-14958674D01*
X18438515Y-15158674D02*
X18448039Y-15149150D01*
X18448039Y-15149150D02*
X18467087Y-15120579D01*
X18467087Y-15120579D02*
X18476611Y-15101531D01*
X18476611Y-15101531D02*
X18486134Y-15072960D01*
X18486134Y-15072960D02*
X18495658Y-15025341D01*
X18495658Y-15025341D02*
X18495658Y-14987246D01*
X18495658Y-14987246D02*
X18486134Y-14939627D01*
X18486134Y-14939627D02*
X18476611Y-14911055D01*
X18476611Y-14911055D02*
X18467087Y-14892008D01*
X18467087Y-14892008D02*
X18448039Y-14863436D01*
X18448039Y-14863436D02*
X18438515Y-14853912D01*
D12*
X13282500Y-15255000D02*
G75*
G03*
X13262500Y-15255000I-10000J0D01*
G01*
X13262500Y-15255000D02*
G75*
G03*
X13282500Y-15255000I10000J0D01*
G01*
D11*
X13581372Y-15146484D02*
X13600420Y-15146484D01*
X13600420Y-15146484D02*
X13619467Y-15156008D01*
X13619467Y-15156008D02*
X13628991Y-15165531D01*
X13628991Y-15165531D02*
X13638515Y-15184579D01*
X13638515Y-15184579D02*
X13648039Y-15222674D01*
X13648039Y-15222674D02*
X13648039Y-15270293D01*
X13648039Y-15270293D02*
X13638515Y-15308388D01*
X13638515Y-15308388D02*
X13628991Y-15327436D01*
X13628991Y-15327436D02*
X13619467Y-15336960D01*
X13619467Y-15336960D02*
X13600420Y-15346484D01*
X13600420Y-15346484D02*
X13581372Y-15346484D01*
X13581372Y-15346484D02*
X13562324Y-15336960D01*
X13562324Y-15336960D02*
X13552801Y-15327436D01*
X13552801Y-15327436D02*
X13543277Y-15308388D01*
X13543277Y-15308388D02*
X13533753Y-15270293D01*
X13533753Y-15270293D02*
X13533753Y-15222674D01*
X13533753Y-15222674D02*
X13543277Y-15184579D01*
X13543277Y-15184579D02*
X13552801Y-15165531D01*
X13552801Y-15165531D02*
X13562324Y-15156008D01*
X13562324Y-15156008D02*
X13581372Y-15146484D01*
X13733753Y-15327436D02*
X13743277Y-15336960D01*
X13743277Y-15336960D02*
X13733753Y-15346484D01*
X13733753Y-15346484D02*
X13724229Y-15336960D01*
X13724229Y-15336960D02*
X13733753Y-15327436D01*
X13733753Y-15327436D02*
X13733753Y-15346484D01*
X13819467Y-15165531D02*
X13828991Y-15156008D01*
X13828991Y-15156008D02*
X13848039Y-15146484D01*
X13848039Y-15146484D02*
X13895658Y-15146484D01*
X13895658Y-15146484D02*
X13914705Y-15156008D01*
X13914705Y-15156008D02*
X13924229Y-15165531D01*
X13924229Y-15165531D02*
X13933753Y-15184579D01*
X13933753Y-15184579D02*
X13933753Y-15203627D01*
X13933753Y-15203627D02*
X13924229Y-15232198D01*
X13924229Y-15232198D02*
X13809943Y-15346484D01*
X13809943Y-15346484D02*
X13933753Y-15346484D01*
X14057562Y-15146484D02*
X14076610Y-15146484D01*
X14076610Y-15146484D02*
X14095658Y-15156008D01*
X14095658Y-15156008D02*
X14105182Y-15165531D01*
X14105182Y-15165531D02*
X14114705Y-15184579D01*
X14114705Y-15184579D02*
X14124229Y-15222674D01*
X14124229Y-15222674D02*
X14124229Y-15270293D01*
X14124229Y-15270293D02*
X14114705Y-15308388D01*
X14114705Y-15308388D02*
X14105182Y-15327436D01*
X14105182Y-15327436D02*
X14095658Y-15336960D01*
X14095658Y-15336960D02*
X14076610Y-15346484D01*
X14076610Y-15346484D02*
X14057562Y-15346484D01*
X14057562Y-15346484D02*
X14038515Y-15336960D01*
X14038515Y-15336960D02*
X14028991Y-15327436D01*
X14028991Y-15327436D02*
X14019467Y-15308388D01*
X14019467Y-15308388D02*
X14009943Y-15270293D01*
X14009943Y-15270293D02*
X14009943Y-15222674D01*
X14009943Y-15222674D02*
X14019467Y-15184579D01*
X14019467Y-15184579D02*
X14028991Y-15165531D01*
X14028991Y-15165531D02*
X14038515Y-15156008D01*
X14038515Y-15156008D02*
X14057562Y-15146484D01*
X14248039Y-15146484D02*
X14267086Y-15146484D01*
X14267086Y-15146484D02*
X14286134Y-15156008D01*
X14286134Y-15156008D02*
X14295658Y-15165531D01*
X14295658Y-15165531D02*
X14305182Y-15184579D01*
X14305182Y-15184579D02*
X14314705Y-15222674D01*
X14314705Y-15222674D02*
X14314705Y-15270293D01*
X14314705Y-15270293D02*
X14305182Y-15308388D01*
X14305182Y-15308388D02*
X14295658Y-15327436D01*
X14295658Y-15327436D02*
X14286134Y-15336960D01*
X14286134Y-15336960D02*
X14267086Y-15346484D01*
X14267086Y-15346484D02*
X14248039Y-15346484D01*
X14248039Y-15346484D02*
X14228991Y-15336960D01*
X14228991Y-15336960D02*
X14219467Y-15327436D01*
X14219467Y-15327436D02*
X14209943Y-15308388D01*
X14209943Y-15308388D02*
X14200420Y-15270293D01*
X14200420Y-15270293D02*
X14200420Y-15222674D01*
X14200420Y-15222674D02*
X14209943Y-15184579D01*
X14209943Y-15184579D02*
X14219467Y-15165531D01*
X14219467Y-15165531D02*
X14228991Y-15156008D01*
X14228991Y-15156008D02*
X14248039Y-15146484D01*
X14400420Y-15346484D02*
X14400420Y-15213150D01*
X14400420Y-15232198D02*
X14409943Y-15222674D01*
X14409943Y-15222674D02*
X14428991Y-15213150D01*
X14428991Y-15213150D02*
X14457563Y-15213150D01*
X14457563Y-15213150D02*
X14476610Y-15222674D01*
X14476610Y-15222674D02*
X14486134Y-15241722D01*
X14486134Y-15241722D02*
X14486134Y-15346484D01*
X14486134Y-15241722D02*
X14495658Y-15222674D01*
X14495658Y-15222674D02*
X14514705Y-15213150D01*
X14514705Y-15213150D02*
X14543277Y-15213150D01*
X14543277Y-15213150D02*
X14562324Y-15222674D01*
X14562324Y-15222674D02*
X14571848Y-15241722D01*
X14571848Y-15241722D02*
X14571848Y-15346484D01*
X14667086Y-15346484D02*
X14667086Y-15213150D01*
X14667086Y-15232198D02*
X14676610Y-15222674D01*
X14676610Y-15222674D02*
X14695658Y-15213150D01*
X14695658Y-15213150D02*
X14724229Y-15213150D01*
X14724229Y-15213150D02*
X14743277Y-15222674D01*
X14743277Y-15222674D02*
X14752801Y-15241722D01*
X14752801Y-15241722D02*
X14752801Y-15346484D01*
X14752801Y-15241722D02*
X14762324Y-15222674D01*
X14762324Y-15222674D02*
X14781372Y-15213150D01*
X14781372Y-15213150D02*
X14809943Y-15213150D01*
X14809943Y-15213150D02*
X14828991Y-15222674D01*
X14828991Y-15222674D02*
X14838515Y-15241722D01*
X14838515Y-15241722D02*
X14838515Y-15346484D01*
X15228991Y-15136960D02*
X15057563Y-15394103D01*
X15486134Y-15146484D02*
X15505182Y-15146484D01*
X15505182Y-15146484D02*
X15524229Y-15156008D01*
X15524229Y-15156008D02*
X15533753Y-15165531D01*
X15533753Y-15165531D02*
X15543277Y-15184579D01*
X15543277Y-15184579D02*
X15552801Y-15222674D01*
X15552801Y-15222674D02*
X15552801Y-15270293D01*
X15552801Y-15270293D02*
X15543277Y-15308388D01*
X15543277Y-15308388D02*
X15533753Y-15327436D01*
X15533753Y-15327436D02*
X15524229Y-15336960D01*
X15524229Y-15336960D02*
X15505182Y-15346484D01*
X15505182Y-15346484D02*
X15486134Y-15346484D01*
X15486134Y-15346484D02*
X15467086Y-15336960D01*
X15467086Y-15336960D02*
X15457563Y-15327436D01*
X15457563Y-15327436D02*
X15448039Y-15308388D01*
X15448039Y-15308388D02*
X15438515Y-15270293D01*
X15438515Y-15270293D02*
X15438515Y-15222674D01*
X15438515Y-15222674D02*
X15448039Y-15184579D01*
X15448039Y-15184579D02*
X15457563Y-15165531D01*
X15457563Y-15165531D02*
X15467086Y-15156008D01*
X15467086Y-15156008D02*
X15486134Y-15146484D01*
X15638515Y-15327436D02*
X15648039Y-15336960D01*
X15648039Y-15336960D02*
X15638515Y-15346484D01*
X15638515Y-15346484D02*
X15628991Y-15336960D01*
X15628991Y-15336960D02*
X15638515Y-15327436D01*
X15638515Y-15327436D02*
X15638515Y-15346484D01*
X15771848Y-15146484D02*
X15790896Y-15146484D01*
X15790896Y-15146484D02*
X15809944Y-15156008D01*
X15809944Y-15156008D02*
X15819467Y-15165531D01*
X15819467Y-15165531D02*
X15828991Y-15184579D01*
X15828991Y-15184579D02*
X15838515Y-15222674D01*
X15838515Y-15222674D02*
X15838515Y-15270293D01*
X15838515Y-15270293D02*
X15828991Y-15308388D01*
X15828991Y-15308388D02*
X15819467Y-15327436D01*
X15819467Y-15327436D02*
X15809944Y-15336960D01*
X15809944Y-15336960D02*
X15790896Y-15346484D01*
X15790896Y-15346484D02*
X15771848Y-15346484D01*
X15771848Y-15346484D02*
X15752801Y-15336960D01*
X15752801Y-15336960D02*
X15743277Y-15327436D01*
X15743277Y-15327436D02*
X15733753Y-15308388D01*
X15733753Y-15308388D02*
X15724229Y-15270293D01*
X15724229Y-15270293D02*
X15724229Y-15222674D01*
X15724229Y-15222674D02*
X15733753Y-15184579D01*
X15733753Y-15184579D02*
X15743277Y-15165531D01*
X15743277Y-15165531D02*
X15752801Y-15156008D01*
X15752801Y-15156008D02*
X15771848Y-15146484D01*
X15962325Y-15146484D02*
X15981372Y-15146484D01*
X15981372Y-15146484D02*
X16000420Y-15156008D01*
X16000420Y-15156008D02*
X16009944Y-15165531D01*
X16009944Y-15165531D02*
X16019467Y-15184579D01*
X16019467Y-15184579D02*
X16028991Y-15222674D01*
X16028991Y-15222674D02*
X16028991Y-15270293D01*
X16028991Y-15270293D02*
X16019467Y-15308388D01*
X16019467Y-15308388D02*
X16009944Y-15327436D01*
X16009944Y-15327436D02*
X16000420Y-15336960D01*
X16000420Y-15336960D02*
X15981372Y-15346484D01*
X15981372Y-15346484D02*
X15962325Y-15346484D01*
X15962325Y-15346484D02*
X15943277Y-15336960D01*
X15943277Y-15336960D02*
X15933753Y-15327436D01*
X15933753Y-15327436D02*
X15924229Y-15308388D01*
X15924229Y-15308388D02*
X15914706Y-15270293D01*
X15914706Y-15270293D02*
X15914706Y-15222674D01*
X15914706Y-15222674D02*
X15924229Y-15184579D01*
X15924229Y-15184579D02*
X15933753Y-15165531D01*
X15933753Y-15165531D02*
X15943277Y-15156008D01*
X15943277Y-15156008D02*
X15962325Y-15146484D01*
X16095658Y-15146484D02*
X16228991Y-15146484D01*
X16228991Y-15146484D02*
X16143277Y-15346484D01*
X16314706Y-15346484D02*
X16352801Y-15346484D01*
X16352801Y-15346484D02*
X16371848Y-15336960D01*
X16371848Y-15336960D02*
X16381372Y-15327436D01*
X16381372Y-15327436D02*
X16400420Y-15298865D01*
X16400420Y-15298865D02*
X16409944Y-15260769D01*
X16409944Y-15260769D02*
X16409944Y-15184579D01*
X16409944Y-15184579D02*
X16400420Y-15165531D01*
X16400420Y-15165531D02*
X16390896Y-15156008D01*
X16390896Y-15156008D02*
X16371848Y-15146484D01*
X16371848Y-15146484D02*
X16333753Y-15146484D01*
X16333753Y-15146484D02*
X16314706Y-15156008D01*
X16314706Y-15156008D02*
X16305182Y-15165531D01*
X16305182Y-15165531D02*
X16295658Y-15184579D01*
X16295658Y-15184579D02*
X16295658Y-15232198D01*
X16295658Y-15232198D02*
X16305182Y-15251246D01*
X16305182Y-15251246D02*
X16314706Y-15260769D01*
X16314706Y-15260769D02*
X16333753Y-15270293D01*
X16333753Y-15270293D02*
X16371848Y-15270293D01*
X16371848Y-15270293D02*
X16390896Y-15260769D01*
X16390896Y-15260769D02*
X16400420Y-15251246D01*
X16400420Y-15251246D02*
X16409944Y-15232198D01*
X16486134Y-15146484D02*
X16486134Y-15184579D01*
X16562325Y-15146484D02*
X16562325Y-15184579D01*
X16857563Y-15422674D02*
X16848039Y-15413150D01*
X16848039Y-15413150D02*
X16828991Y-15384579D01*
X16828991Y-15384579D02*
X16819468Y-15365531D01*
X16819468Y-15365531D02*
X16809944Y-15336960D01*
X16809944Y-15336960D02*
X16800420Y-15289341D01*
X16800420Y-15289341D02*
X16800420Y-15251246D01*
X16800420Y-15251246D02*
X16809944Y-15203627D01*
X16809944Y-15203627D02*
X16819468Y-15175055D01*
X16819468Y-15175055D02*
X16828991Y-15156008D01*
X16828991Y-15156008D02*
X16848039Y-15127436D01*
X16848039Y-15127436D02*
X16857563Y-15117912D01*
X17038515Y-15346484D02*
X16924230Y-15346484D01*
X16981372Y-15346484D02*
X16981372Y-15146484D01*
X16981372Y-15146484D02*
X16962325Y-15175055D01*
X16962325Y-15175055D02*
X16943277Y-15194103D01*
X16943277Y-15194103D02*
X16924230Y-15203627D01*
X17114706Y-15165531D02*
X17124230Y-15156008D01*
X17124230Y-15156008D02*
X17143277Y-15146484D01*
X17143277Y-15146484D02*
X17190896Y-15146484D01*
X17190896Y-15146484D02*
X17209944Y-15156008D01*
X17209944Y-15156008D02*
X17219468Y-15165531D01*
X17219468Y-15165531D02*
X17228991Y-15184579D01*
X17228991Y-15184579D02*
X17228991Y-15203627D01*
X17228991Y-15203627D02*
X17219468Y-15232198D01*
X17219468Y-15232198D02*
X17105182Y-15346484D01*
X17105182Y-15346484D02*
X17228991Y-15346484D01*
X17467087Y-15346484D02*
X17467087Y-15146484D01*
X17552801Y-15346484D02*
X17552801Y-15241722D01*
X17552801Y-15241722D02*
X17543277Y-15222674D01*
X17543277Y-15222674D02*
X17524230Y-15213150D01*
X17524230Y-15213150D02*
X17495658Y-15213150D01*
X17495658Y-15213150D02*
X17476611Y-15222674D01*
X17476611Y-15222674D02*
X17467087Y-15232198D01*
X17676611Y-15346484D02*
X17657563Y-15336960D01*
X17657563Y-15336960D02*
X17648039Y-15327436D01*
X17648039Y-15327436D02*
X17638515Y-15308388D01*
X17638515Y-15308388D02*
X17638515Y-15251246D01*
X17638515Y-15251246D02*
X17648039Y-15232198D01*
X17648039Y-15232198D02*
X17657563Y-15222674D01*
X17657563Y-15222674D02*
X17676611Y-15213150D01*
X17676611Y-15213150D02*
X17705182Y-15213150D01*
X17705182Y-15213150D02*
X17724230Y-15222674D01*
X17724230Y-15222674D02*
X17733753Y-15232198D01*
X17733753Y-15232198D02*
X17743277Y-15251246D01*
X17743277Y-15251246D02*
X17743277Y-15308388D01*
X17743277Y-15308388D02*
X17733753Y-15327436D01*
X17733753Y-15327436D02*
X17724230Y-15336960D01*
X17724230Y-15336960D02*
X17705182Y-15346484D01*
X17705182Y-15346484D02*
X17676611Y-15346484D01*
X17857563Y-15346484D02*
X17838515Y-15336960D01*
X17838515Y-15336960D02*
X17828992Y-15317912D01*
X17828992Y-15317912D02*
X17828992Y-15146484D01*
X18009944Y-15336960D02*
X17990896Y-15346484D01*
X17990896Y-15346484D02*
X17952801Y-15346484D01*
X17952801Y-15346484D02*
X17933753Y-15336960D01*
X17933753Y-15336960D02*
X17924230Y-15317912D01*
X17924230Y-15317912D02*
X17924230Y-15241722D01*
X17924230Y-15241722D02*
X17933753Y-15222674D01*
X17933753Y-15222674D02*
X17952801Y-15213150D01*
X17952801Y-15213150D02*
X17990896Y-15213150D01*
X17990896Y-15213150D02*
X18009944Y-15222674D01*
X18009944Y-15222674D02*
X18019468Y-15241722D01*
X18019468Y-15241722D02*
X18019468Y-15260769D01*
X18019468Y-15260769D02*
X17924230Y-15279817D01*
X18095658Y-15336960D02*
X18114706Y-15346484D01*
X18114706Y-15346484D02*
X18152801Y-15346484D01*
X18152801Y-15346484D02*
X18171849Y-15336960D01*
X18171849Y-15336960D02*
X18181373Y-15317912D01*
X18181373Y-15317912D02*
X18181373Y-15308388D01*
X18181373Y-15308388D02*
X18171849Y-15289341D01*
X18171849Y-15289341D02*
X18152801Y-15279817D01*
X18152801Y-15279817D02*
X18124230Y-15279817D01*
X18124230Y-15279817D02*
X18105182Y-15270293D01*
X18105182Y-15270293D02*
X18095658Y-15251246D01*
X18095658Y-15251246D02*
X18095658Y-15241722D01*
X18095658Y-15241722D02*
X18105182Y-15222674D01*
X18105182Y-15222674D02*
X18124230Y-15213150D01*
X18124230Y-15213150D02*
X18152801Y-15213150D01*
X18152801Y-15213150D02*
X18171849Y-15222674D01*
X18248039Y-15422674D02*
X18257563Y-15413150D01*
X18257563Y-15413150D02*
X18276611Y-15384579D01*
X18276611Y-15384579D02*
X18286134Y-15365531D01*
X18286134Y-15365531D02*
X18295658Y-15336960D01*
X18295658Y-15336960D02*
X18305182Y-15289341D01*
X18305182Y-15289341D02*
X18305182Y-15251246D01*
X18305182Y-15251246D02*
X18295658Y-15203627D01*
X18295658Y-15203627D02*
X18286134Y-15175055D01*
X18286134Y-15175055D02*
X18276611Y-15156008D01*
X18276611Y-15156008D02*
X18257563Y-15127436D01*
X18257563Y-15127436D02*
X18248039Y-15117912D01*
D12*
X13269500Y-15506000D02*
X13269500Y-15532000D01*
X13256500Y-15519000D02*
X13282500Y-15519000D01*
D11*
X13581372Y-15410484D02*
X13600420Y-15410484D01*
X13600420Y-15410484D02*
X13619467Y-15420008D01*
X13619467Y-15420008D02*
X13628991Y-15429531D01*
X13628991Y-15429531D02*
X13638515Y-15448579D01*
X13638515Y-15448579D02*
X13648039Y-15486674D01*
X13648039Y-15486674D02*
X13648039Y-15534293D01*
X13648039Y-15534293D02*
X13638515Y-15572388D01*
X13638515Y-15572388D02*
X13628991Y-15591436D01*
X13628991Y-15591436D02*
X13619467Y-15600960D01*
X13619467Y-15600960D02*
X13600420Y-15610484D01*
X13600420Y-15610484D02*
X13581372Y-15610484D01*
X13581372Y-15610484D02*
X13562324Y-15600960D01*
X13562324Y-15600960D02*
X13552801Y-15591436D01*
X13552801Y-15591436D02*
X13543277Y-15572388D01*
X13543277Y-15572388D02*
X13533753Y-15534293D01*
X13533753Y-15534293D02*
X13533753Y-15486674D01*
X13533753Y-15486674D02*
X13543277Y-15448579D01*
X13543277Y-15448579D02*
X13552801Y-15429531D01*
X13552801Y-15429531D02*
X13562324Y-15420008D01*
X13562324Y-15420008D02*
X13581372Y-15410484D01*
X13733753Y-15591436D02*
X13743277Y-15600960D01*
X13743277Y-15600960D02*
X13733753Y-15610484D01*
X13733753Y-15610484D02*
X13724229Y-15600960D01*
X13724229Y-15600960D02*
X13733753Y-15591436D01*
X13733753Y-15591436D02*
X13733753Y-15610484D01*
X13819467Y-15429531D02*
X13828991Y-15420008D01*
X13828991Y-15420008D02*
X13848039Y-15410484D01*
X13848039Y-15410484D02*
X13895658Y-15410484D01*
X13895658Y-15410484D02*
X13914705Y-15420008D01*
X13914705Y-15420008D02*
X13924229Y-15429531D01*
X13924229Y-15429531D02*
X13933753Y-15448579D01*
X13933753Y-15448579D02*
X13933753Y-15467627D01*
X13933753Y-15467627D02*
X13924229Y-15496198D01*
X13924229Y-15496198D02*
X13809943Y-15610484D01*
X13809943Y-15610484D02*
X13933753Y-15610484D01*
X14105182Y-15410484D02*
X14067086Y-15410484D01*
X14067086Y-15410484D02*
X14048039Y-15420008D01*
X14048039Y-15420008D02*
X14038515Y-15429531D01*
X14038515Y-15429531D02*
X14019467Y-15458103D01*
X14019467Y-15458103D02*
X14009943Y-15496198D01*
X14009943Y-15496198D02*
X14009943Y-15572388D01*
X14009943Y-15572388D02*
X14019467Y-15591436D01*
X14019467Y-15591436D02*
X14028991Y-15600960D01*
X14028991Y-15600960D02*
X14048039Y-15610484D01*
X14048039Y-15610484D02*
X14086134Y-15610484D01*
X14086134Y-15610484D02*
X14105182Y-15600960D01*
X14105182Y-15600960D02*
X14114705Y-15591436D01*
X14114705Y-15591436D02*
X14124229Y-15572388D01*
X14124229Y-15572388D02*
X14124229Y-15524769D01*
X14124229Y-15524769D02*
X14114705Y-15505722D01*
X14114705Y-15505722D02*
X14105182Y-15496198D01*
X14105182Y-15496198D02*
X14086134Y-15486674D01*
X14086134Y-15486674D02*
X14048039Y-15486674D01*
X14048039Y-15486674D02*
X14028991Y-15496198D01*
X14028991Y-15496198D02*
X14019467Y-15505722D01*
X14019467Y-15505722D02*
X14009943Y-15524769D01*
X14248039Y-15410484D02*
X14267086Y-15410484D01*
X14267086Y-15410484D02*
X14286134Y-15420008D01*
X14286134Y-15420008D02*
X14295658Y-15429531D01*
X14295658Y-15429531D02*
X14305182Y-15448579D01*
X14305182Y-15448579D02*
X14314705Y-15486674D01*
X14314705Y-15486674D02*
X14314705Y-15534293D01*
X14314705Y-15534293D02*
X14305182Y-15572388D01*
X14305182Y-15572388D02*
X14295658Y-15591436D01*
X14295658Y-15591436D02*
X14286134Y-15600960D01*
X14286134Y-15600960D02*
X14267086Y-15610484D01*
X14267086Y-15610484D02*
X14248039Y-15610484D01*
X14248039Y-15610484D02*
X14228991Y-15600960D01*
X14228991Y-15600960D02*
X14219467Y-15591436D01*
X14219467Y-15591436D02*
X14209943Y-15572388D01*
X14209943Y-15572388D02*
X14200420Y-15534293D01*
X14200420Y-15534293D02*
X14200420Y-15486674D01*
X14200420Y-15486674D02*
X14209943Y-15448579D01*
X14209943Y-15448579D02*
X14219467Y-15429531D01*
X14219467Y-15429531D02*
X14228991Y-15420008D01*
X14228991Y-15420008D02*
X14248039Y-15410484D01*
X14400420Y-15610484D02*
X14400420Y-15477150D01*
X14400420Y-15496198D02*
X14409943Y-15486674D01*
X14409943Y-15486674D02*
X14428991Y-15477150D01*
X14428991Y-15477150D02*
X14457563Y-15477150D01*
X14457563Y-15477150D02*
X14476610Y-15486674D01*
X14476610Y-15486674D02*
X14486134Y-15505722D01*
X14486134Y-15505722D02*
X14486134Y-15610484D01*
X14486134Y-15505722D02*
X14495658Y-15486674D01*
X14495658Y-15486674D02*
X14514705Y-15477150D01*
X14514705Y-15477150D02*
X14543277Y-15477150D01*
X14543277Y-15477150D02*
X14562324Y-15486674D01*
X14562324Y-15486674D02*
X14571848Y-15505722D01*
X14571848Y-15505722D02*
X14571848Y-15610484D01*
X14667086Y-15610484D02*
X14667086Y-15477150D01*
X14667086Y-15496198D02*
X14676610Y-15486674D01*
X14676610Y-15486674D02*
X14695658Y-15477150D01*
X14695658Y-15477150D02*
X14724229Y-15477150D01*
X14724229Y-15477150D02*
X14743277Y-15486674D01*
X14743277Y-15486674D02*
X14752801Y-15505722D01*
X14752801Y-15505722D02*
X14752801Y-15610484D01*
X14752801Y-15505722D02*
X14762324Y-15486674D01*
X14762324Y-15486674D02*
X14781372Y-15477150D01*
X14781372Y-15477150D02*
X14809943Y-15477150D01*
X14809943Y-15477150D02*
X14828991Y-15486674D01*
X14828991Y-15486674D02*
X14838515Y-15505722D01*
X14838515Y-15505722D02*
X14838515Y-15610484D01*
X15228991Y-15400960D02*
X15057563Y-15658103D01*
X15486134Y-15410484D02*
X15505182Y-15410484D01*
X15505182Y-15410484D02*
X15524229Y-15420008D01*
X15524229Y-15420008D02*
X15533753Y-15429531D01*
X15533753Y-15429531D02*
X15543277Y-15448579D01*
X15543277Y-15448579D02*
X15552801Y-15486674D01*
X15552801Y-15486674D02*
X15552801Y-15534293D01*
X15552801Y-15534293D02*
X15543277Y-15572388D01*
X15543277Y-15572388D02*
X15533753Y-15591436D01*
X15533753Y-15591436D02*
X15524229Y-15600960D01*
X15524229Y-15600960D02*
X15505182Y-15610484D01*
X15505182Y-15610484D02*
X15486134Y-15610484D01*
X15486134Y-15610484D02*
X15467086Y-15600960D01*
X15467086Y-15600960D02*
X15457563Y-15591436D01*
X15457563Y-15591436D02*
X15448039Y-15572388D01*
X15448039Y-15572388D02*
X15438515Y-15534293D01*
X15438515Y-15534293D02*
X15438515Y-15486674D01*
X15438515Y-15486674D02*
X15448039Y-15448579D01*
X15448039Y-15448579D02*
X15457563Y-15429531D01*
X15457563Y-15429531D02*
X15467086Y-15420008D01*
X15467086Y-15420008D02*
X15486134Y-15410484D01*
X15638515Y-15591436D02*
X15648039Y-15600960D01*
X15648039Y-15600960D02*
X15638515Y-15610484D01*
X15638515Y-15610484D02*
X15628991Y-15600960D01*
X15628991Y-15600960D02*
X15638515Y-15591436D01*
X15638515Y-15591436D02*
X15638515Y-15610484D01*
X15771848Y-15410484D02*
X15790896Y-15410484D01*
X15790896Y-15410484D02*
X15809944Y-15420008D01*
X15809944Y-15420008D02*
X15819467Y-15429531D01*
X15819467Y-15429531D02*
X15828991Y-15448579D01*
X15828991Y-15448579D02*
X15838515Y-15486674D01*
X15838515Y-15486674D02*
X15838515Y-15534293D01*
X15838515Y-15534293D02*
X15828991Y-15572388D01*
X15828991Y-15572388D02*
X15819467Y-15591436D01*
X15819467Y-15591436D02*
X15809944Y-15600960D01*
X15809944Y-15600960D02*
X15790896Y-15610484D01*
X15790896Y-15610484D02*
X15771848Y-15610484D01*
X15771848Y-15610484D02*
X15752801Y-15600960D01*
X15752801Y-15600960D02*
X15743277Y-15591436D01*
X15743277Y-15591436D02*
X15733753Y-15572388D01*
X15733753Y-15572388D02*
X15724229Y-15534293D01*
X15724229Y-15534293D02*
X15724229Y-15486674D01*
X15724229Y-15486674D02*
X15733753Y-15448579D01*
X15733753Y-15448579D02*
X15743277Y-15429531D01*
X15743277Y-15429531D02*
X15752801Y-15420008D01*
X15752801Y-15420008D02*
X15771848Y-15410484D01*
X16028991Y-15610484D02*
X15914706Y-15610484D01*
X15971848Y-15610484D02*
X15971848Y-15410484D01*
X15971848Y-15410484D02*
X15952801Y-15439055D01*
X15952801Y-15439055D02*
X15933753Y-15458103D01*
X15933753Y-15458103D02*
X15914706Y-15467627D01*
X16152801Y-15410484D02*
X16171848Y-15410484D01*
X16171848Y-15410484D02*
X16190896Y-15420008D01*
X16190896Y-15420008D02*
X16200420Y-15429531D01*
X16200420Y-15429531D02*
X16209944Y-15448579D01*
X16209944Y-15448579D02*
X16219467Y-15486674D01*
X16219467Y-15486674D02*
X16219467Y-15534293D01*
X16219467Y-15534293D02*
X16209944Y-15572388D01*
X16209944Y-15572388D02*
X16200420Y-15591436D01*
X16200420Y-15591436D02*
X16190896Y-15600960D01*
X16190896Y-15600960D02*
X16171848Y-15610484D01*
X16171848Y-15610484D02*
X16152801Y-15610484D01*
X16152801Y-15610484D02*
X16133753Y-15600960D01*
X16133753Y-15600960D02*
X16124229Y-15591436D01*
X16124229Y-15591436D02*
X16114706Y-15572388D01*
X16114706Y-15572388D02*
X16105182Y-15534293D01*
X16105182Y-15534293D02*
X16105182Y-15486674D01*
X16105182Y-15486674D02*
X16114706Y-15448579D01*
X16114706Y-15448579D02*
X16124229Y-15429531D01*
X16124229Y-15429531D02*
X16133753Y-15420008D01*
X16133753Y-15420008D02*
X16152801Y-15410484D01*
X16295658Y-15429531D02*
X16305182Y-15420008D01*
X16305182Y-15420008D02*
X16324229Y-15410484D01*
X16324229Y-15410484D02*
X16371848Y-15410484D01*
X16371848Y-15410484D02*
X16390896Y-15420008D01*
X16390896Y-15420008D02*
X16400420Y-15429531D01*
X16400420Y-15429531D02*
X16409944Y-15448579D01*
X16409944Y-15448579D02*
X16409944Y-15467627D01*
X16409944Y-15467627D02*
X16400420Y-15496198D01*
X16400420Y-15496198D02*
X16286134Y-15610484D01*
X16286134Y-15610484D02*
X16409944Y-15610484D01*
X16486134Y-15410484D02*
X16486134Y-15448579D01*
X16562325Y-15410484D02*
X16562325Y-15448579D01*
X16857563Y-15686674D02*
X16848039Y-15677150D01*
X16848039Y-15677150D02*
X16828991Y-15648579D01*
X16828991Y-15648579D02*
X16819468Y-15629531D01*
X16819468Y-15629531D02*
X16809944Y-15600960D01*
X16809944Y-15600960D02*
X16800420Y-15553341D01*
X16800420Y-15553341D02*
X16800420Y-15515246D01*
X16800420Y-15515246D02*
X16809944Y-15467627D01*
X16809944Y-15467627D02*
X16819468Y-15439055D01*
X16819468Y-15439055D02*
X16828991Y-15420008D01*
X16828991Y-15420008D02*
X16848039Y-15391436D01*
X16848039Y-15391436D02*
X16857563Y-15381912D01*
X16914706Y-15410484D02*
X17048039Y-15410484D01*
X17048039Y-15410484D02*
X16962325Y-15610484D01*
X17152801Y-15496198D02*
X17133753Y-15486674D01*
X17133753Y-15486674D02*
X17124230Y-15477150D01*
X17124230Y-15477150D02*
X17114706Y-15458103D01*
X17114706Y-15458103D02*
X17114706Y-15448579D01*
X17114706Y-15448579D02*
X17124230Y-15429531D01*
X17124230Y-15429531D02*
X17133753Y-15420008D01*
X17133753Y-15420008D02*
X17152801Y-15410484D01*
X17152801Y-15410484D02*
X17190896Y-15410484D01*
X17190896Y-15410484D02*
X17209944Y-15420008D01*
X17209944Y-15420008D02*
X17219468Y-15429531D01*
X17219468Y-15429531D02*
X17228991Y-15448579D01*
X17228991Y-15448579D02*
X17228991Y-15458103D01*
X17228991Y-15458103D02*
X17219468Y-15477150D01*
X17219468Y-15477150D02*
X17209944Y-15486674D01*
X17209944Y-15486674D02*
X17190896Y-15496198D01*
X17190896Y-15496198D02*
X17152801Y-15496198D01*
X17152801Y-15496198D02*
X17133753Y-15505722D01*
X17133753Y-15505722D02*
X17124230Y-15515246D01*
X17124230Y-15515246D02*
X17114706Y-15534293D01*
X17114706Y-15534293D02*
X17114706Y-15572388D01*
X17114706Y-15572388D02*
X17124230Y-15591436D01*
X17124230Y-15591436D02*
X17133753Y-15600960D01*
X17133753Y-15600960D02*
X17152801Y-15610484D01*
X17152801Y-15610484D02*
X17190896Y-15610484D01*
X17190896Y-15610484D02*
X17209944Y-15600960D01*
X17209944Y-15600960D02*
X17219468Y-15591436D01*
X17219468Y-15591436D02*
X17228991Y-15572388D01*
X17228991Y-15572388D02*
X17228991Y-15534293D01*
X17228991Y-15534293D02*
X17219468Y-15515246D01*
X17219468Y-15515246D02*
X17209944Y-15505722D01*
X17209944Y-15505722D02*
X17190896Y-15496198D01*
X17467087Y-15610484D02*
X17467087Y-15410484D01*
X17552801Y-15610484D02*
X17552801Y-15505722D01*
X17552801Y-15505722D02*
X17543277Y-15486674D01*
X17543277Y-15486674D02*
X17524230Y-15477150D01*
X17524230Y-15477150D02*
X17495658Y-15477150D01*
X17495658Y-15477150D02*
X17476611Y-15486674D01*
X17476611Y-15486674D02*
X17467087Y-15496198D01*
X17676611Y-15610484D02*
X17657563Y-15600960D01*
X17657563Y-15600960D02*
X17648039Y-15591436D01*
X17648039Y-15591436D02*
X17638515Y-15572388D01*
X17638515Y-15572388D02*
X17638515Y-15515246D01*
X17638515Y-15515246D02*
X17648039Y-15496198D01*
X17648039Y-15496198D02*
X17657563Y-15486674D01*
X17657563Y-15486674D02*
X17676611Y-15477150D01*
X17676611Y-15477150D02*
X17705182Y-15477150D01*
X17705182Y-15477150D02*
X17724230Y-15486674D01*
X17724230Y-15486674D02*
X17733753Y-15496198D01*
X17733753Y-15496198D02*
X17743277Y-15515246D01*
X17743277Y-15515246D02*
X17743277Y-15572388D01*
X17743277Y-15572388D02*
X17733753Y-15591436D01*
X17733753Y-15591436D02*
X17724230Y-15600960D01*
X17724230Y-15600960D02*
X17705182Y-15610484D01*
X17705182Y-15610484D02*
X17676611Y-15610484D01*
X17857563Y-15610484D02*
X17838515Y-15600960D01*
X17838515Y-15600960D02*
X17828992Y-15581912D01*
X17828992Y-15581912D02*
X17828992Y-15410484D01*
X18009944Y-15600960D02*
X17990896Y-15610484D01*
X17990896Y-15610484D02*
X17952801Y-15610484D01*
X17952801Y-15610484D02*
X17933753Y-15600960D01*
X17933753Y-15600960D02*
X17924230Y-15581912D01*
X17924230Y-15581912D02*
X17924230Y-15505722D01*
X17924230Y-15505722D02*
X17933753Y-15486674D01*
X17933753Y-15486674D02*
X17952801Y-15477150D01*
X17952801Y-15477150D02*
X17990896Y-15477150D01*
X17990896Y-15477150D02*
X18009944Y-15486674D01*
X18009944Y-15486674D02*
X18019468Y-15505722D01*
X18019468Y-15505722D02*
X18019468Y-15524769D01*
X18019468Y-15524769D02*
X17924230Y-15543817D01*
X18095658Y-15600960D02*
X18114706Y-15610484D01*
X18114706Y-15610484D02*
X18152801Y-15610484D01*
X18152801Y-15610484D02*
X18171849Y-15600960D01*
X18171849Y-15600960D02*
X18181373Y-15581912D01*
X18181373Y-15581912D02*
X18181373Y-15572388D01*
X18181373Y-15572388D02*
X18171849Y-15553341D01*
X18171849Y-15553341D02*
X18152801Y-15543817D01*
X18152801Y-15543817D02*
X18124230Y-15543817D01*
X18124230Y-15543817D02*
X18105182Y-15534293D01*
X18105182Y-15534293D02*
X18095658Y-15515246D01*
X18095658Y-15515246D02*
X18095658Y-15505722D01*
X18095658Y-15505722D02*
X18105182Y-15486674D01*
X18105182Y-15486674D02*
X18124230Y-15477150D01*
X18124230Y-15477150D02*
X18152801Y-15477150D01*
X18152801Y-15477150D02*
X18171849Y-15486674D01*
X18248039Y-15686674D02*
X18257563Y-15677150D01*
X18257563Y-15677150D02*
X18276611Y-15648579D01*
X18276611Y-15648579D02*
X18286134Y-15629531D01*
X18286134Y-15629531D02*
X18295658Y-15600960D01*
X18295658Y-15600960D02*
X18305182Y-15553341D01*
X18305182Y-15553341D02*
X18305182Y-15515246D01*
X18305182Y-15515246D02*
X18295658Y-15467627D01*
X18295658Y-15467627D02*
X18286134Y-15439055D01*
X18286134Y-15439055D02*
X18276611Y-15420008D01*
X18276611Y-15420008D02*
X18257563Y-15391436D01*
X18257563Y-15391436D02*
X18248039Y-15381912D01*
D12*
X13278107Y-15793607D02*
X13278107Y-15772393D01*
X13256893Y-15772393D01*
X13256893Y-15793607D01*
X13278107Y-15793607D01*
D11*
X13581372Y-15674484D02*
X13600420Y-15674484D01*
X13600420Y-15674484D02*
X13619467Y-15684008D01*
X13619467Y-15684008D02*
X13628991Y-15693531D01*
X13628991Y-15693531D02*
X13638515Y-15712579D01*
X13638515Y-15712579D02*
X13648039Y-15750674D01*
X13648039Y-15750674D02*
X13648039Y-15798293D01*
X13648039Y-15798293D02*
X13638515Y-15836388D01*
X13638515Y-15836388D02*
X13628991Y-15855436D01*
X13628991Y-15855436D02*
X13619467Y-15864960D01*
X13619467Y-15864960D02*
X13600420Y-15874484D01*
X13600420Y-15874484D02*
X13581372Y-15874484D01*
X13581372Y-15874484D02*
X13562324Y-15864960D01*
X13562324Y-15864960D02*
X13552801Y-15855436D01*
X13552801Y-15855436D02*
X13543277Y-15836388D01*
X13543277Y-15836388D02*
X13533753Y-15798293D01*
X13533753Y-15798293D02*
X13533753Y-15750674D01*
X13533753Y-15750674D02*
X13543277Y-15712579D01*
X13543277Y-15712579D02*
X13552801Y-15693531D01*
X13552801Y-15693531D02*
X13562324Y-15684008D01*
X13562324Y-15684008D02*
X13581372Y-15674484D01*
X13733753Y-15855436D02*
X13743277Y-15864960D01*
X13743277Y-15864960D02*
X13733753Y-15874484D01*
X13733753Y-15874484D02*
X13724229Y-15864960D01*
X13724229Y-15864960D02*
X13733753Y-15855436D01*
X13733753Y-15855436D02*
X13733753Y-15874484D01*
X13809943Y-15674484D02*
X13933753Y-15674484D01*
X13933753Y-15674484D02*
X13867086Y-15750674D01*
X13867086Y-15750674D02*
X13895658Y-15750674D01*
X13895658Y-15750674D02*
X13914705Y-15760198D01*
X13914705Y-15760198D02*
X13924229Y-15769722D01*
X13924229Y-15769722D02*
X13933753Y-15788769D01*
X13933753Y-15788769D02*
X13933753Y-15836388D01*
X13933753Y-15836388D02*
X13924229Y-15855436D01*
X13924229Y-15855436D02*
X13914705Y-15864960D01*
X13914705Y-15864960D02*
X13895658Y-15874484D01*
X13895658Y-15874484D02*
X13838515Y-15874484D01*
X13838515Y-15874484D02*
X13819467Y-15864960D01*
X13819467Y-15864960D02*
X13809943Y-15855436D01*
X14057562Y-15674484D02*
X14076610Y-15674484D01*
X14076610Y-15674484D02*
X14095658Y-15684008D01*
X14095658Y-15684008D02*
X14105182Y-15693531D01*
X14105182Y-15693531D02*
X14114705Y-15712579D01*
X14114705Y-15712579D02*
X14124229Y-15750674D01*
X14124229Y-15750674D02*
X14124229Y-15798293D01*
X14124229Y-15798293D02*
X14114705Y-15836388D01*
X14114705Y-15836388D02*
X14105182Y-15855436D01*
X14105182Y-15855436D02*
X14095658Y-15864960D01*
X14095658Y-15864960D02*
X14076610Y-15874484D01*
X14076610Y-15874484D02*
X14057562Y-15874484D01*
X14057562Y-15874484D02*
X14038515Y-15864960D01*
X14038515Y-15864960D02*
X14028991Y-15855436D01*
X14028991Y-15855436D02*
X14019467Y-15836388D01*
X14019467Y-15836388D02*
X14009943Y-15798293D01*
X14009943Y-15798293D02*
X14009943Y-15750674D01*
X14009943Y-15750674D02*
X14019467Y-15712579D01*
X14019467Y-15712579D02*
X14028991Y-15693531D01*
X14028991Y-15693531D02*
X14038515Y-15684008D01*
X14038515Y-15684008D02*
X14057562Y-15674484D01*
X14248039Y-15674484D02*
X14267086Y-15674484D01*
X14267086Y-15674484D02*
X14286134Y-15684008D01*
X14286134Y-15684008D02*
X14295658Y-15693531D01*
X14295658Y-15693531D02*
X14305182Y-15712579D01*
X14305182Y-15712579D02*
X14314705Y-15750674D01*
X14314705Y-15750674D02*
X14314705Y-15798293D01*
X14314705Y-15798293D02*
X14305182Y-15836388D01*
X14305182Y-15836388D02*
X14295658Y-15855436D01*
X14295658Y-15855436D02*
X14286134Y-15864960D01*
X14286134Y-15864960D02*
X14267086Y-15874484D01*
X14267086Y-15874484D02*
X14248039Y-15874484D01*
X14248039Y-15874484D02*
X14228991Y-15864960D01*
X14228991Y-15864960D02*
X14219467Y-15855436D01*
X14219467Y-15855436D02*
X14209943Y-15836388D01*
X14209943Y-15836388D02*
X14200420Y-15798293D01*
X14200420Y-15798293D02*
X14200420Y-15750674D01*
X14200420Y-15750674D02*
X14209943Y-15712579D01*
X14209943Y-15712579D02*
X14219467Y-15693531D01*
X14219467Y-15693531D02*
X14228991Y-15684008D01*
X14228991Y-15684008D02*
X14248039Y-15674484D01*
X14400420Y-15874484D02*
X14400420Y-15741150D01*
X14400420Y-15760198D02*
X14409943Y-15750674D01*
X14409943Y-15750674D02*
X14428991Y-15741150D01*
X14428991Y-15741150D02*
X14457563Y-15741150D01*
X14457563Y-15741150D02*
X14476610Y-15750674D01*
X14476610Y-15750674D02*
X14486134Y-15769722D01*
X14486134Y-15769722D02*
X14486134Y-15874484D01*
X14486134Y-15769722D02*
X14495658Y-15750674D01*
X14495658Y-15750674D02*
X14514705Y-15741150D01*
X14514705Y-15741150D02*
X14543277Y-15741150D01*
X14543277Y-15741150D02*
X14562324Y-15750674D01*
X14562324Y-15750674D02*
X14571848Y-15769722D01*
X14571848Y-15769722D02*
X14571848Y-15874484D01*
X14667086Y-15874484D02*
X14667086Y-15741150D01*
X14667086Y-15760198D02*
X14676610Y-15750674D01*
X14676610Y-15750674D02*
X14695658Y-15741150D01*
X14695658Y-15741150D02*
X14724229Y-15741150D01*
X14724229Y-15741150D02*
X14743277Y-15750674D01*
X14743277Y-15750674D02*
X14752801Y-15769722D01*
X14752801Y-15769722D02*
X14752801Y-15874484D01*
X14752801Y-15769722D02*
X14762324Y-15750674D01*
X14762324Y-15750674D02*
X14781372Y-15741150D01*
X14781372Y-15741150D02*
X14809943Y-15741150D01*
X14809943Y-15741150D02*
X14828991Y-15750674D01*
X14828991Y-15750674D02*
X14838515Y-15769722D01*
X14838515Y-15769722D02*
X14838515Y-15874484D01*
X15228991Y-15664960D02*
X15057563Y-15922103D01*
X15486134Y-15674484D02*
X15505182Y-15674484D01*
X15505182Y-15674484D02*
X15524229Y-15684008D01*
X15524229Y-15684008D02*
X15533753Y-15693531D01*
X15533753Y-15693531D02*
X15543277Y-15712579D01*
X15543277Y-15712579D02*
X15552801Y-15750674D01*
X15552801Y-15750674D02*
X15552801Y-15798293D01*
X15552801Y-15798293D02*
X15543277Y-15836388D01*
X15543277Y-15836388D02*
X15533753Y-15855436D01*
X15533753Y-15855436D02*
X15524229Y-15864960D01*
X15524229Y-15864960D02*
X15505182Y-15874484D01*
X15505182Y-15874484D02*
X15486134Y-15874484D01*
X15486134Y-15874484D02*
X15467086Y-15864960D01*
X15467086Y-15864960D02*
X15457563Y-15855436D01*
X15457563Y-15855436D02*
X15448039Y-15836388D01*
X15448039Y-15836388D02*
X15438515Y-15798293D01*
X15438515Y-15798293D02*
X15438515Y-15750674D01*
X15438515Y-15750674D02*
X15448039Y-15712579D01*
X15448039Y-15712579D02*
X15457563Y-15693531D01*
X15457563Y-15693531D02*
X15467086Y-15684008D01*
X15467086Y-15684008D02*
X15486134Y-15674484D01*
X15638515Y-15855436D02*
X15648039Y-15864960D01*
X15648039Y-15864960D02*
X15638515Y-15874484D01*
X15638515Y-15874484D02*
X15628991Y-15864960D01*
X15628991Y-15864960D02*
X15638515Y-15855436D01*
X15638515Y-15855436D02*
X15638515Y-15874484D01*
X15771848Y-15674484D02*
X15790896Y-15674484D01*
X15790896Y-15674484D02*
X15809944Y-15684008D01*
X15809944Y-15684008D02*
X15819467Y-15693531D01*
X15819467Y-15693531D02*
X15828991Y-15712579D01*
X15828991Y-15712579D02*
X15838515Y-15750674D01*
X15838515Y-15750674D02*
X15838515Y-15798293D01*
X15838515Y-15798293D02*
X15828991Y-15836388D01*
X15828991Y-15836388D02*
X15819467Y-15855436D01*
X15819467Y-15855436D02*
X15809944Y-15864960D01*
X15809944Y-15864960D02*
X15790896Y-15874484D01*
X15790896Y-15874484D02*
X15771848Y-15874484D01*
X15771848Y-15874484D02*
X15752801Y-15864960D01*
X15752801Y-15864960D02*
X15743277Y-15855436D01*
X15743277Y-15855436D02*
X15733753Y-15836388D01*
X15733753Y-15836388D02*
X15724229Y-15798293D01*
X15724229Y-15798293D02*
X15724229Y-15750674D01*
X15724229Y-15750674D02*
X15733753Y-15712579D01*
X15733753Y-15712579D02*
X15743277Y-15693531D01*
X15743277Y-15693531D02*
X15752801Y-15684008D01*
X15752801Y-15684008D02*
X15771848Y-15674484D01*
X16028991Y-15874484D02*
X15914706Y-15874484D01*
X15971848Y-15874484D02*
X15971848Y-15674484D01*
X15971848Y-15674484D02*
X15952801Y-15703055D01*
X15952801Y-15703055D02*
X15933753Y-15722103D01*
X15933753Y-15722103D02*
X15914706Y-15731627D01*
X16219467Y-15874484D02*
X16105182Y-15874484D01*
X16162325Y-15874484D02*
X16162325Y-15674484D01*
X16162325Y-15674484D02*
X16143277Y-15703055D01*
X16143277Y-15703055D02*
X16124229Y-15722103D01*
X16124229Y-15722103D02*
X16105182Y-15731627D01*
X16333753Y-15760198D02*
X16314706Y-15750674D01*
X16314706Y-15750674D02*
X16305182Y-15741150D01*
X16305182Y-15741150D02*
X16295658Y-15722103D01*
X16295658Y-15722103D02*
X16295658Y-15712579D01*
X16295658Y-15712579D02*
X16305182Y-15693531D01*
X16305182Y-15693531D02*
X16314706Y-15684008D01*
X16314706Y-15684008D02*
X16333753Y-15674484D01*
X16333753Y-15674484D02*
X16371848Y-15674484D01*
X16371848Y-15674484D02*
X16390896Y-15684008D01*
X16390896Y-15684008D02*
X16400420Y-15693531D01*
X16400420Y-15693531D02*
X16409944Y-15712579D01*
X16409944Y-15712579D02*
X16409944Y-15722103D01*
X16409944Y-15722103D02*
X16400420Y-15741150D01*
X16400420Y-15741150D02*
X16390896Y-15750674D01*
X16390896Y-15750674D02*
X16371848Y-15760198D01*
X16371848Y-15760198D02*
X16333753Y-15760198D01*
X16333753Y-15760198D02*
X16314706Y-15769722D01*
X16314706Y-15769722D02*
X16305182Y-15779246D01*
X16305182Y-15779246D02*
X16295658Y-15798293D01*
X16295658Y-15798293D02*
X16295658Y-15836388D01*
X16295658Y-15836388D02*
X16305182Y-15855436D01*
X16305182Y-15855436D02*
X16314706Y-15864960D01*
X16314706Y-15864960D02*
X16333753Y-15874484D01*
X16333753Y-15874484D02*
X16371848Y-15874484D01*
X16371848Y-15874484D02*
X16390896Y-15864960D01*
X16390896Y-15864960D02*
X16400420Y-15855436D01*
X16400420Y-15855436D02*
X16409944Y-15836388D01*
X16409944Y-15836388D02*
X16409944Y-15798293D01*
X16409944Y-15798293D02*
X16400420Y-15779246D01*
X16400420Y-15779246D02*
X16390896Y-15769722D01*
X16390896Y-15769722D02*
X16371848Y-15760198D01*
X16486134Y-15674484D02*
X16486134Y-15712579D01*
X16562325Y-15674484D02*
X16562325Y-15712579D01*
X16857563Y-15950674D02*
X16848039Y-15941150D01*
X16848039Y-15941150D02*
X16828991Y-15912579D01*
X16828991Y-15912579D02*
X16819468Y-15893531D01*
X16819468Y-15893531D02*
X16809944Y-15864960D01*
X16809944Y-15864960D02*
X16800420Y-15817341D01*
X16800420Y-15817341D02*
X16800420Y-15779246D01*
X16800420Y-15779246D02*
X16809944Y-15731627D01*
X16809944Y-15731627D02*
X16819468Y-15703055D01*
X16819468Y-15703055D02*
X16828991Y-15684008D01*
X16828991Y-15684008D02*
X16848039Y-15655436D01*
X16848039Y-15655436D02*
X16857563Y-15645912D01*
X16924230Y-15693531D02*
X16933753Y-15684008D01*
X16933753Y-15684008D02*
X16952801Y-15674484D01*
X16952801Y-15674484D02*
X17000420Y-15674484D01*
X17000420Y-15674484D02*
X17019468Y-15684008D01*
X17019468Y-15684008D02*
X17028991Y-15693531D01*
X17028991Y-15693531D02*
X17038515Y-15712579D01*
X17038515Y-15712579D02*
X17038515Y-15731627D01*
X17038515Y-15731627D02*
X17028991Y-15760198D01*
X17028991Y-15760198D02*
X16914706Y-15874484D01*
X16914706Y-15874484D02*
X17038515Y-15874484D01*
X17276611Y-15874484D02*
X17276611Y-15674484D01*
X17362325Y-15874484D02*
X17362325Y-15769722D01*
X17362325Y-15769722D02*
X17352801Y-15750674D01*
X17352801Y-15750674D02*
X17333753Y-15741150D01*
X17333753Y-15741150D02*
X17305182Y-15741150D01*
X17305182Y-15741150D02*
X17286134Y-15750674D01*
X17286134Y-15750674D02*
X17276611Y-15760198D01*
X17486134Y-15874484D02*
X17467087Y-15864960D01*
X17467087Y-15864960D02*
X17457563Y-15855436D01*
X17457563Y-15855436D02*
X17448039Y-15836388D01*
X17448039Y-15836388D02*
X17448039Y-15779246D01*
X17448039Y-15779246D02*
X17457563Y-15760198D01*
X17457563Y-15760198D02*
X17467087Y-15750674D01*
X17467087Y-15750674D02*
X17486134Y-15741150D01*
X17486134Y-15741150D02*
X17514706Y-15741150D01*
X17514706Y-15741150D02*
X17533753Y-15750674D01*
X17533753Y-15750674D02*
X17543277Y-15760198D01*
X17543277Y-15760198D02*
X17552801Y-15779246D01*
X17552801Y-15779246D02*
X17552801Y-15836388D01*
X17552801Y-15836388D02*
X17543277Y-15855436D01*
X17543277Y-15855436D02*
X17533753Y-15864960D01*
X17533753Y-15864960D02*
X17514706Y-15874484D01*
X17514706Y-15874484D02*
X17486134Y-15874484D01*
X17667087Y-15874484D02*
X17648039Y-15864960D01*
X17648039Y-15864960D02*
X17638515Y-15845912D01*
X17638515Y-15845912D02*
X17638515Y-15674484D01*
X17819468Y-15864960D02*
X17800420Y-15874484D01*
X17800420Y-15874484D02*
X17762325Y-15874484D01*
X17762325Y-15874484D02*
X17743277Y-15864960D01*
X17743277Y-15864960D02*
X17733753Y-15845912D01*
X17733753Y-15845912D02*
X17733753Y-15769722D01*
X17733753Y-15769722D02*
X17743277Y-15750674D01*
X17743277Y-15750674D02*
X17762325Y-15741150D01*
X17762325Y-15741150D02*
X17800420Y-15741150D01*
X17800420Y-15741150D02*
X17819468Y-15750674D01*
X17819468Y-15750674D02*
X17828992Y-15769722D01*
X17828992Y-15769722D02*
X17828992Y-15788769D01*
X17828992Y-15788769D02*
X17733753Y-15807817D01*
X17905182Y-15864960D02*
X17924230Y-15874484D01*
X17924230Y-15874484D02*
X17962325Y-15874484D01*
X17962325Y-15874484D02*
X17981373Y-15864960D01*
X17981373Y-15864960D02*
X17990896Y-15845912D01*
X17990896Y-15845912D02*
X17990896Y-15836388D01*
X17990896Y-15836388D02*
X17981373Y-15817341D01*
X17981373Y-15817341D02*
X17962325Y-15807817D01*
X17962325Y-15807817D02*
X17933753Y-15807817D01*
X17933753Y-15807817D02*
X17914706Y-15798293D01*
X17914706Y-15798293D02*
X17905182Y-15779246D01*
X17905182Y-15779246D02*
X17905182Y-15769722D01*
X17905182Y-15769722D02*
X17914706Y-15750674D01*
X17914706Y-15750674D02*
X17933753Y-15741150D01*
X17933753Y-15741150D02*
X17962325Y-15741150D01*
X17962325Y-15741150D02*
X17981373Y-15750674D01*
X18057563Y-15950674D02*
X18067087Y-15941150D01*
X18067087Y-15941150D02*
X18086134Y-15912579D01*
X18086134Y-15912579D02*
X18095658Y-15893531D01*
X18095658Y-15893531D02*
X18105182Y-15864960D01*
X18105182Y-15864960D02*
X18114706Y-15817341D01*
X18114706Y-15817341D02*
X18114706Y-15779246D01*
X18114706Y-15779246D02*
X18105182Y-15731627D01*
X18105182Y-15731627D02*
X18095658Y-15703055D01*
X18095658Y-15703055D02*
X18086134Y-15684008D01*
X18086134Y-15684008D02*
X18067087Y-15655436D01*
X18067087Y-15655436D02*
X18057563Y-15645912D01*
D12*
X13257500Y-16072000D02*
X13282500Y-16047000D01*
X13257500Y-16022000D01*
X13232500Y-16047000D01*
X13257500Y-16072000D01*
D11*
X13581372Y-15938484D02*
X13600420Y-15938484D01*
X13600420Y-15938484D02*
X13619467Y-15948008D01*
X13619467Y-15948008D02*
X13628991Y-15957531D01*
X13628991Y-15957531D02*
X13638515Y-15976579D01*
X13638515Y-15976579D02*
X13648039Y-16014674D01*
X13648039Y-16014674D02*
X13648039Y-16062293D01*
X13648039Y-16062293D02*
X13638515Y-16100388D01*
X13638515Y-16100388D02*
X13628991Y-16119436D01*
X13628991Y-16119436D02*
X13619467Y-16128960D01*
X13619467Y-16128960D02*
X13600420Y-16138484D01*
X13600420Y-16138484D02*
X13581372Y-16138484D01*
X13581372Y-16138484D02*
X13562324Y-16128960D01*
X13562324Y-16128960D02*
X13552801Y-16119436D01*
X13552801Y-16119436D02*
X13543277Y-16100388D01*
X13543277Y-16100388D02*
X13533753Y-16062293D01*
X13533753Y-16062293D02*
X13533753Y-16014674D01*
X13533753Y-16014674D02*
X13543277Y-15976579D01*
X13543277Y-15976579D02*
X13552801Y-15957531D01*
X13552801Y-15957531D02*
X13562324Y-15948008D01*
X13562324Y-15948008D02*
X13581372Y-15938484D01*
X13733753Y-16119436D02*
X13743277Y-16128960D01*
X13743277Y-16128960D02*
X13733753Y-16138484D01*
X13733753Y-16138484D02*
X13724229Y-16128960D01*
X13724229Y-16128960D02*
X13733753Y-16119436D01*
X13733753Y-16119436D02*
X13733753Y-16138484D01*
X13924229Y-15938484D02*
X13828991Y-15938484D01*
X13828991Y-15938484D02*
X13819467Y-16033722D01*
X13819467Y-16033722D02*
X13828991Y-16024198D01*
X13828991Y-16024198D02*
X13848039Y-16014674D01*
X13848039Y-16014674D02*
X13895658Y-16014674D01*
X13895658Y-16014674D02*
X13914705Y-16024198D01*
X13914705Y-16024198D02*
X13924229Y-16033722D01*
X13924229Y-16033722D02*
X13933753Y-16052769D01*
X13933753Y-16052769D02*
X13933753Y-16100388D01*
X13933753Y-16100388D02*
X13924229Y-16119436D01*
X13924229Y-16119436D02*
X13914705Y-16128960D01*
X13914705Y-16128960D02*
X13895658Y-16138484D01*
X13895658Y-16138484D02*
X13848039Y-16138484D01*
X13848039Y-16138484D02*
X13828991Y-16128960D01*
X13828991Y-16128960D02*
X13819467Y-16119436D01*
X14057562Y-15938484D02*
X14076610Y-15938484D01*
X14076610Y-15938484D02*
X14095658Y-15948008D01*
X14095658Y-15948008D02*
X14105182Y-15957531D01*
X14105182Y-15957531D02*
X14114705Y-15976579D01*
X14114705Y-15976579D02*
X14124229Y-16014674D01*
X14124229Y-16014674D02*
X14124229Y-16062293D01*
X14124229Y-16062293D02*
X14114705Y-16100388D01*
X14114705Y-16100388D02*
X14105182Y-16119436D01*
X14105182Y-16119436D02*
X14095658Y-16128960D01*
X14095658Y-16128960D02*
X14076610Y-16138484D01*
X14076610Y-16138484D02*
X14057562Y-16138484D01*
X14057562Y-16138484D02*
X14038515Y-16128960D01*
X14038515Y-16128960D02*
X14028991Y-16119436D01*
X14028991Y-16119436D02*
X14019467Y-16100388D01*
X14019467Y-16100388D02*
X14009943Y-16062293D01*
X14009943Y-16062293D02*
X14009943Y-16014674D01*
X14009943Y-16014674D02*
X14019467Y-15976579D01*
X14019467Y-15976579D02*
X14028991Y-15957531D01*
X14028991Y-15957531D02*
X14038515Y-15948008D01*
X14038515Y-15948008D02*
X14057562Y-15938484D01*
X14248039Y-15938484D02*
X14267086Y-15938484D01*
X14267086Y-15938484D02*
X14286134Y-15948008D01*
X14286134Y-15948008D02*
X14295658Y-15957531D01*
X14295658Y-15957531D02*
X14305182Y-15976579D01*
X14305182Y-15976579D02*
X14314705Y-16014674D01*
X14314705Y-16014674D02*
X14314705Y-16062293D01*
X14314705Y-16062293D02*
X14305182Y-16100388D01*
X14305182Y-16100388D02*
X14295658Y-16119436D01*
X14295658Y-16119436D02*
X14286134Y-16128960D01*
X14286134Y-16128960D02*
X14267086Y-16138484D01*
X14267086Y-16138484D02*
X14248039Y-16138484D01*
X14248039Y-16138484D02*
X14228991Y-16128960D01*
X14228991Y-16128960D02*
X14219467Y-16119436D01*
X14219467Y-16119436D02*
X14209943Y-16100388D01*
X14209943Y-16100388D02*
X14200420Y-16062293D01*
X14200420Y-16062293D02*
X14200420Y-16014674D01*
X14200420Y-16014674D02*
X14209943Y-15976579D01*
X14209943Y-15976579D02*
X14219467Y-15957531D01*
X14219467Y-15957531D02*
X14228991Y-15948008D01*
X14228991Y-15948008D02*
X14248039Y-15938484D01*
X14400420Y-16138484D02*
X14400420Y-16005150D01*
X14400420Y-16024198D02*
X14409943Y-16014674D01*
X14409943Y-16014674D02*
X14428991Y-16005150D01*
X14428991Y-16005150D02*
X14457563Y-16005150D01*
X14457563Y-16005150D02*
X14476610Y-16014674D01*
X14476610Y-16014674D02*
X14486134Y-16033722D01*
X14486134Y-16033722D02*
X14486134Y-16138484D01*
X14486134Y-16033722D02*
X14495658Y-16014674D01*
X14495658Y-16014674D02*
X14514705Y-16005150D01*
X14514705Y-16005150D02*
X14543277Y-16005150D01*
X14543277Y-16005150D02*
X14562324Y-16014674D01*
X14562324Y-16014674D02*
X14571848Y-16033722D01*
X14571848Y-16033722D02*
X14571848Y-16138484D01*
X14667086Y-16138484D02*
X14667086Y-16005150D01*
X14667086Y-16024198D02*
X14676610Y-16014674D01*
X14676610Y-16014674D02*
X14695658Y-16005150D01*
X14695658Y-16005150D02*
X14724229Y-16005150D01*
X14724229Y-16005150D02*
X14743277Y-16014674D01*
X14743277Y-16014674D02*
X14752801Y-16033722D01*
X14752801Y-16033722D02*
X14752801Y-16138484D01*
X14752801Y-16033722D02*
X14762324Y-16014674D01*
X14762324Y-16014674D02*
X14781372Y-16005150D01*
X14781372Y-16005150D02*
X14809943Y-16005150D01*
X14809943Y-16005150D02*
X14828991Y-16014674D01*
X14828991Y-16014674D02*
X14838515Y-16033722D01*
X14838515Y-16033722D02*
X14838515Y-16138484D01*
X15228991Y-15928960D02*
X15057563Y-16186103D01*
X15486134Y-15938484D02*
X15505182Y-15938484D01*
X15505182Y-15938484D02*
X15524229Y-15948008D01*
X15524229Y-15948008D02*
X15533753Y-15957531D01*
X15533753Y-15957531D02*
X15543277Y-15976579D01*
X15543277Y-15976579D02*
X15552801Y-16014674D01*
X15552801Y-16014674D02*
X15552801Y-16062293D01*
X15552801Y-16062293D02*
X15543277Y-16100388D01*
X15543277Y-16100388D02*
X15533753Y-16119436D01*
X15533753Y-16119436D02*
X15524229Y-16128960D01*
X15524229Y-16128960D02*
X15505182Y-16138484D01*
X15505182Y-16138484D02*
X15486134Y-16138484D01*
X15486134Y-16138484D02*
X15467086Y-16128960D01*
X15467086Y-16128960D02*
X15457563Y-16119436D01*
X15457563Y-16119436D02*
X15448039Y-16100388D01*
X15448039Y-16100388D02*
X15438515Y-16062293D01*
X15438515Y-16062293D02*
X15438515Y-16014674D01*
X15438515Y-16014674D02*
X15448039Y-15976579D01*
X15448039Y-15976579D02*
X15457563Y-15957531D01*
X15457563Y-15957531D02*
X15467086Y-15948008D01*
X15467086Y-15948008D02*
X15486134Y-15938484D01*
X15638515Y-16119436D02*
X15648039Y-16128960D01*
X15648039Y-16128960D02*
X15638515Y-16138484D01*
X15638515Y-16138484D02*
X15628991Y-16128960D01*
X15628991Y-16128960D02*
X15638515Y-16119436D01*
X15638515Y-16119436D02*
X15638515Y-16138484D01*
X15771848Y-15938484D02*
X15790896Y-15938484D01*
X15790896Y-15938484D02*
X15809944Y-15948008D01*
X15809944Y-15948008D02*
X15819467Y-15957531D01*
X15819467Y-15957531D02*
X15828991Y-15976579D01*
X15828991Y-15976579D02*
X15838515Y-16014674D01*
X15838515Y-16014674D02*
X15838515Y-16062293D01*
X15838515Y-16062293D02*
X15828991Y-16100388D01*
X15828991Y-16100388D02*
X15819467Y-16119436D01*
X15819467Y-16119436D02*
X15809944Y-16128960D01*
X15809944Y-16128960D02*
X15790896Y-16138484D01*
X15790896Y-16138484D02*
X15771848Y-16138484D01*
X15771848Y-16138484D02*
X15752801Y-16128960D01*
X15752801Y-16128960D02*
X15743277Y-16119436D01*
X15743277Y-16119436D02*
X15733753Y-16100388D01*
X15733753Y-16100388D02*
X15724229Y-16062293D01*
X15724229Y-16062293D02*
X15724229Y-16014674D01*
X15724229Y-16014674D02*
X15733753Y-15976579D01*
X15733753Y-15976579D02*
X15743277Y-15957531D01*
X15743277Y-15957531D02*
X15752801Y-15948008D01*
X15752801Y-15948008D02*
X15771848Y-15938484D01*
X16028991Y-16138484D02*
X15914706Y-16138484D01*
X15971848Y-16138484D02*
X15971848Y-15938484D01*
X15971848Y-15938484D02*
X15952801Y-15967055D01*
X15952801Y-15967055D02*
X15933753Y-15986103D01*
X15933753Y-15986103D02*
X15914706Y-15995627D01*
X16124229Y-16138484D02*
X16162325Y-16138484D01*
X16162325Y-16138484D02*
X16181372Y-16128960D01*
X16181372Y-16128960D02*
X16190896Y-16119436D01*
X16190896Y-16119436D02*
X16209944Y-16090865D01*
X16209944Y-16090865D02*
X16219467Y-16052769D01*
X16219467Y-16052769D02*
X16219467Y-15976579D01*
X16219467Y-15976579D02*
X16209944Y-15957531D01*
X16209944Y-15957531D02*
X16200420Y-15948008D01*
X16200420Y-15948008D02*
X16181372Y-15938484D01*
X16181372Y-15938484D02*
X16143277Y-15938484D01*
X16143277Y-15938484D02*
X16124229Y-15948008D01*
X16124229Y-15948008D02*
X16114706Y-15957531D01*
X16114706Y-15957531D02*
X16105182Y-15976579D01*
X16105182Y-15976579D02*
X16105182Y-16024198D01*
X16105182Y-16024198D02*
X16114706Y-16043246D01*
X16114706Y-16043246D02*
X16124229Y-16052769D01*
X16124229Y-16052769D02*
X16143277Y-16062293D01*
X16143277Y-16062293D02*
X16181372Y-16062293D01*
X16181372Y-16062293D02*
X16200420Y-16052769D01*
X16200420Y-16052769D02*
X16209944Y-16043246D01*
X16209944Y-16043246D02*
X16219467Y-16024198D01*
X16286134Y-15938484D02*
X16419467Y-15938484D01*
X16419467Y-15938484D02*
X16333753Y-16138484D01*
X16486134Y-15938484D02*
X16486134Y-15976579D01*
X16562325Y-15938484D02*
X16562325Y-15976579D01*
X16857563Y-16214674D02*
X16848039Y-16205150D01*
X16848039Y-16205150D02*
X16828991Y-16176579D01*
X16828991Y-16176579D02*
X16819468Y-16157531D01*
X16819468Y-16157531D02*
X16809944Y-16128960D01*
X16809944Y-16128960D02*
X16800420Y-16081341D01*
X16800420Y-16081341D02*
X16800420Y-16043246D01*
X16800420Y-16043246D02*
X16809944Y-15995627D01*
X16809944Y-15995627D02*
X16819468Y-15967055D01*
X16819468Y-15967055D02*
X16828991Y-15948008D01*
X16828991Y-15948008D02*
X16848039Y-15919436D01*
X16848039Y-15919436D02*
X16857563Y-15909912D01*
X16924230Y-15957531D02*
X16933753Y-15948008D01*
X16933753Y-15948008D02*
X16952801Y-15938484D01*
X16952801Y-15938484D02*
X17000420Y-15938484D01*
X17000420Y-15938484D02*
X17019468Y-15948008D01*
X17019468Y-15948008D02*
X17028991Y-15957531D01*
X17028991Y-15957531D02*
X17038515Y-15976579D01*
X17038515Y-15976579D02*
X17038515Y-15995627D01*
X17038515Y-15995627D02*
X17028991Y-16024198D01*
X17028991Y-16024198D02*
X16914706Y-16138484D01*
X16914706Y-16138484D02*
X17038515Y-16138484D01*
X17209944Y-16005150D02*
X17209944Y-16138484D01*
X17162325Y-15928960D02*
X17114706Y-16071817D01*
X17114706Y-16071817D02*
X17238515Y-16071817D01*
X17467087Y-16138484D02*
X17467087Y-15938484D01*
X17552801Y-16138484D02*
X17552801Y-16033722D01*
X17552801Y-16033722D02*
X17543277Y-16014674D01*
X17543277Y-16014674D02*
X17524230Y-16005150D01*
X17524230Y-16005150D02*
X17495658Y-16005150D01*
X17495658Y-16005150D02*
X17476611Y-16014674D01*
X17476611Y-16014674D02*
X17467087Y-16024198D01*
X17676611Y-16138484D02*
X17657563Y-16128960D01*
X17657563Y-16128960D02*
X17648039Y-16119436D01*
X17648039Y-16119436D02*
X17638515Y-16100388D01*
X17638515Y-16100388D02*
X17638515Y-16043246D01*
X17638515Y-16043246D02*
X17648039Y-16024198D01*
X17648039Y-16024198D02*
X17657563Y-16014674D01*
X17657563Y-16014674D02*
X17676611Y-16005150D01*
X17676611Y-16005150D02*
X17705182Y-16005150D01*
X17705182Y-16005150D02*
X17724230Y-16014674D01*
X17724230Y-16014674D02*
X17733753Y-16024198D01*
X17733753Y-16024198D02*
X17743277Y-16043246D01*
X17743277Y-16043246D02*
X17743277Y-16100388D01*
X17743277Y-16100388D02*
X17733753Y-16119436D01*
X17733753Y-16119436D02*
X17724230Y-16128960D01*
X17724230Y-16128960D02*
X17705182Y-16138484D01*
X17705182Y-16138484D02*
X17676611Y-16138484D01*
X17857563Y-16138484D02*
X17838515Y-16128960D01*
X17838515Y-16128960D02*
X17828992Y-16109912D01*
X17828992Y-16109912D02*
X17828992Y-15938484D01*
X18009944Y-16128960D02*
X17990896Y-16138484D01*
X17990896Y-16138484D02*
X17952801Y-16138484D01*
X17952801Y-16138484D02*
X17933753Y-16128960D01*
X17933753Y-16128960D02*
X17924230Y-16109912D01*
X17924230Y-16109912D02*
X17924230Y-16033722D01*
X17924230Y-16033722D02*
X17933753Y-16014674D01*
X17933753Y-16014674D02*
X17952801Y-16005150D01*
X17952801Y-16005150D02*
X17990896Y-16005150D01*
X17990896Y-16005150D02*
X18009944Y-16014674D01*
X18009944Y-16014674D02*
X18019468Y-16033722D01*
X18019468Y-16033722D02*
X18019468Y-16052769D01*
X18019468Y-16052769D02*
X17924230Y-16071817D01*
X18095658Y-16128960D02*
X18114706Y-16138484D01*
X18114706Y-16138484D02*
X18152801Y-16138484D01*
X18152801Y-16138484D02*
X18171849Y-16128960D01*
X18171849Y-16128960D02*
X18181373Y-16109912D01*
X18181373Y-16109912D02*
X18181373Y-16100388D01*
X18181373Y-16100388D02*
X18171849Y-16081341D01*
X18171849Y-16081341D02*
X18152801Y-16071817D01*
X18152801Y-16071817D02*
X18124230Y-16071817D01*
X18124230Y-16071817D02*
X18105182Y-16062293D01*
X18105182Y-16062293D02*
X18095658Y-16043246D01*
X18095658Y-16043246D02*
X18095658Y-16033722D01*
X18095658Y-16033722D02*
X18105182Y-16014674D01*
X18105182Y-16014674D02*
X18124230Y-16005150D01*
X18124230Y-16005150D02*
X18152801Y-16005150D01*
X18152801Y-16005150D02*
X18171849Y-16014674D01*
X18248039Y-16214674D02*
X18257563Y-16205150D01*
X18257563Y-16205150D02*
X18276611Y-16176579D01*
X18276611Y-16176579D02*
X18286134Y-16157531D01*
X18286134Y-16157531D02*
X18295658Y-16128960D01*
X18295658Y-16128960D02*
X18305182Y-16081341D01*
X18305182Y-16081341D02*
X18305182Y-16043246D01*
X18305182Y-16043246D02*
X18295658Y-15995627D01*
X18295658Y-15995627D02*
X18286134Y-15967055D01*
X18286134Y-15967055D02*
X18276611Y-15948008D01*
X18276611Y-15948008D02*
X18257563Y-15919436D01*
X18257563Y-15919436D02*
X18248039Y-15909912D01*
D12*
X13222500Y-16281000D02*
X13282500Y-16341000D01*
X13282500Y-16281000D02*
X13222500Y-16341000D01*
X13282500Y-16311000D02*
G75*
G03*
X13222500Y-16311000I-30000J0D01*
G01*
X13222500Y-16311000D02*
G75*
G03*
X13282500Y-16311000I30000J0D01*
G01*
D11*
X13581372Y-16202484D02*
X13600420Y-16202484D01*
X13600420Y-16202484D02*
X13619467Y-16212008D01*
X13619467Y-16212008D02*
X13628991Y-16221531D01*
X13628991Y-16221531D02*
X13638515Y-16240579D01*
X13638515Y-16240579D02*
X13648039Y-16278674D01*
X13648039Y-16278674D02*
X13648039Y-16326293D01*
X13648039Y-16326293D02*
X13638515Y-16364388D01*
X13638515Y-16364388D02*
X13628991Y-16383436D01*
X13628991Y-16383436D02*
X13619467Y-16392960D01*
X13619467Y-16392960D02*
X13600420Y-16402484D01*
X13600420Y-16402484D02*
X13581372Y-16402484D01*
X13581372Y-16402484D02*
X13562324Y-16392960D01*
X13562324Y-16392960D02*
X13552801Y-16383436D01*
X13552801Y-16383436D02*
X13543277Y-16364388D01*
X13543277Y-16364388D02*
X13533753Y-16326293D01*
X13533753Y-16326293D02*
X13533753Y-16278674D01*
X13533753Y-16278674D02*
X13543277Y-16240579D01*
X13543277Y-16240579D02*
X13552801Y-16221531D01*
X13552801Y-16221531D02*
X13562324Y-16212008D01*
X13562324Y-16212008D02*
X13581372Y-16202484D01*
X13733753Y-16383436D02*
X13743277Y-16392960D01*
X13743277Y-16392960D02*
X13733753Y-16402484D01*
X13733753Y-16402484D02*
X13724229Y-16392960D01*
X13724229Y-16392960D02*
X13733753Y-16383436D01*
X13733753Y-16383436D02*
X13733753Y-16402484D01*
X13914705Y-16202484D02*
X13876610Y-16202484D01*
X13876610Y-16202484D02*
X13857562Y-16212008D01*
X13857562Y-16212008D02*
X13848039Y-16221531D01*
X13848039Y-16221531D02*
X13828991Y-16250103D01*
X13828991Y-16250103D02*
X13819467Y-16288198D01*
X13819467Y-16288198D02*
X13819467Y-16364388D01*
X13819467Y-16364388D02*
X13828991Y-16383436D01*
X13828991Y-16383436D02*
X13838515Y-16392960D01*
X13838515Y-16392960D02*
X13857562Y-16402484D01*
X13857562Y-16402484D02*
X13895658Y-16402484D01*
X13895658Y-16402484D02*
X13914705Y-16392960D01*
X13914705Y-16392960D02*
X13924229Y-16383436D01*
X13924229Y-16383436D02*
X13933753Y-16364388D01*
X13933753Y-16364388D02*
X13933753Y-16316769D01*
X13933753Y-16316769D02*
X13924229Y-16297722D01*
X13924229Y-16297722D02*
X13914705Y-16288198D01*
X13914705Y-16288198D02*
X13895658Y-16278674D01*
X13895658Y-16278674D02*
X13857562Y-16278674D01*
X13857562Y-16278674D02*
X13838515Y-16288198D01*
X13838515Y-16288198D02*
X13828991Y-16297722D01*
X13828991Y-16297722D02*
X13819467Y-16316769D01*
X14057562Y-16202484D02*
X14076610Y-16202484D01*
X14076610Y-16202484D02*
X14095658Y-16212008D01*
X14095658Y-16212008D02*
X14105182Y-16221531D01*
X14105182Y-16221531D02*
X14114705Y-16240579D01*
X14114705Y-16240579D02*
X14124229Y-16278674D01*
X14124229Y-16278674D02*
X14124229Y-16326293D01*
X14124229Y-16326293D02*
X14114705Y-16364388D01*
X14114705Y-16364388D02*
X14105182Y-16383436D01*
X14105182Y-16383436D02*
X14095658Y-16392960D01*
X14095658Y-16392960D02*
X14076610Y-16402484D01*
X14076610Y-16402484D02*
X14057562Y-16402484D01*
X14057562Y-16402484D02*
X14038515Y-16392960D01*
X14038515Y-16392960D02*
X14028991Y-16383436D01*
X14028991Y-16383436D02*
X14019467Y-16364388D01*
X14019467Y-16364388D02*
X14009943Y-16326293D01*
X14009943Y-16326293D02*
X14009943Y-16278674D01*
X14009943Y-16278674D02*
X14019467Y-16240579D01*
X14019467Y-16240579D02*
X14028991Y-16221531D01*
X14028991Y-16221531D02*
X14038515Y-16212008D01*
X14038515Y-16212008D02*
X14057562Y-16202484D01*
X14248039Y-16202484D02*
X14267086Y-16202484D01*
X14267086Y-16202484D02*
X14286134Y-16212008D01*
X14286134Y-16212008D02*
X14295658Y-16221531D01*
X14295658Y-16221531D02*
X14305182Y-16240579D01*
X14305182Y-16240579D02*
X14314705Y-16278674D01*
X14314705Y-16278674D02*
X14314705Y-16326293D01*
X14314705Y-16326293D02*
X14305182Y-16364388D01*
X14305182Y-16364388D02*
X14295658Y-16383436D01*
X14295658Y-16383436D02*
X14286134Y-16392960D01*
X14286134Y-16392960D02*
X14267086Y-16402484D01*
X14267086Y-16402484D02*
X14248039Y-16402484D01*
X14248039Y-16402484D02*
X14228991Y-16392960D01*
X14228991Y-16392960D02*
X14219467Y-16383436D01*
X14219467Y-16383436D02*
X14209943Y-16364388D01*
X14209943Y-16364388D02*
X14200420Y-16326293D01*
X14200420Y-16326293D02*
X14200420Y-16278674D01*
X14200420Y-16278674D02*
X14209943Y-16240579D01*
X14209943Y-16240579D02*
X14219467Y-16221531D01*
X14219467Y-16221531D02*
X14228991Y-16212008D01*
X14228991Y-16212008D02*
X14248039Y-16202484D01*
X14400420Y-16402484D02*
X14400420Y-16269150D01*
X14400420Y-16288198D02*
X14409943Y-16278674D01*
X14409943Y-16278674D02*
X14428991Y-16269150D01*
X14428991Y-16269150D02*
X14457563Y-16269150D01*
X14457563Y-16269150D02*
X14476610Y-16278674D01*
X14476610Y-16278674D02*
X14486134Y-16297722D01*
X14486134Y-16297722D02*
X14486134Y-16402484D01*
X14486134Y-16297722D02*
X14495658Y-16278674D01*
X14495658Y-16278674D02*
X14514705Y-16269150D01*
X14514705Y-16269150D02*
X14543277Y-16269150D01*
X14543277Y-16269150D02*
X14562324Y-16278674D01*
X14562324Y-16278674D02*
X14571848Y-16297722D01*
X14571848Y-16297722D02*
X14571848Y-16402484D01*
X14667086Y-16402484D02*
X14667086Y-16269150D01*
X14667086Y-16288198D02*
X14676610Y-16278674D01*
X14676610Y-16278674D02*
X14695658Y-16269150D01*
X14695658Y-16269150D02*
X14724229Y-16269150D01*
X14724229Y-16269150D02*
X14743277Y-16278674D01*
X14743277Y-16278674D02*
X14752801Y-16297722D01*
X14752801Y-16297722D02*
X14752801Y-16402484D01*
X14752801Y-16297722D02*
X14762324Y-16278674D01*
X14762324Y-16278674D02*
X14781372Y-16269150D01*
X14781372Y-16269150D02*
X14809943Y-16269150D01*
X14809943Y-16269150D02*
X14828991Y-16278674D01*
X14828991Y-16278674D02*
X14838515Y-16297722D01*
X14838515Y-16297722D02*
X14838515Y-16402484D01*
X15228991Y-16192960D02*
X15057563Y-16450103D01*
X15486134Y-16202484D02*
X15505182Y-16202484D01*
X15505182Y-16202484D02*
X15524229Y-16212008D01*
X15524229Y-16212008D02*
X15533753Y-16221531D01*
X15533753Y-16221531D02*
X15543277Y-16240579D01*
X15543277Y-16240579D02*
X15552801Y-16278674D01*
X15552801Y-16278674D02*
X15552801Y-16326293D01*
X15552801Y-16326293D02*
X15543277Y-16364388D01*
X15543277Y-16364388D02*
X15533753Y-16383436D01*
X15533753Y-16383436D02*
X15524229Y-16392960D01*
X15524229Y-16392960D02*
X15505182Y-16402484D01*
X15505182Y-16402484D02*
X15486134Y-16402484D01*
X15486134Y-16402484D02*
X15467086Y-16392960D01*
X15467086Y-16392960D02*
X15457563Y-16383436D01*
X15457563Y-16383436D02*
X15448039Y-16364388D01*
X15448039Y-16364388D02*
X15438515Y-16326293D01*
X15438515Y-16326293D02*
X15438515Y-16278674D01*
X15438515Y-16278674D02*
X15448039Y-16240579D01*
X15448039Y-16240579D02*
X15457563Y-16221531D01*
X15457563Y-16221531D02*
X15467086Y-16212008D01*
X15467086Y-16212008D02*
X15486134Y-16202484D01*
X15638515Y-16383436D02*
X15648039Y-16392960D01*
X15648039Y-16392960D02*
X15638515Y-16402484D01*
X15638515Y-16402484D02*
X15628991Y-16392960D01*
X15628991Y-16392960D02*
X15638515Y-16383436D01*
X15638515Y-16383436D02*
X15638515Y-16402484D01*
X15771848Y-16202484D02*
X15790896Y-16202484D01*
X15790896Y-16202484D02*
X15809944Y-16212008D01*
X15809944Y-16212008D02*
X15819467Y-16221531D01*
X15819467Y-16221531D02*
X15828991Y-16240579D01*
X15828991Y-16240579D02*
X15838515Y-16278674D01*
X15838515Y-16278674D02*
X15838515Y-16326293D01*
X15838515Y-16326293D02*
X15828991Y-16364388D01*
X15828991Y-16364388D02*
X15819467Y-16383436D01*
X15819467Y-16383436D02*
X15809944Y-16392960D01*
X15809944Y-16392960D02*
X15790896Y-16402484D01*
X15790896Y-16402484D02*
X15771848Y-16402484D01*
X15771848Y-16402484D02*
X15752801Y-16392960D01*
X15752801Y-16392960D02*
X15743277Y-16383436D01*
X15743277Y-16383436D02*
X15733753Y-16364388D01*
X15733753Y-16364388D02*
X15724229Y-16326293D01*
X15724229Y-16326293D02*
X15724229Y-16278674D01*
X15724229Y-16278674D02*
X15733753Y-16240579D01*
X15733753Y-16240579D02*
X15743277Y-16221531D01*
X15743277Y-16221531D02*
X15752801Y-16212008D01*
X15752801Y-16212008D02*
X15771848Y-16202484D01*
X15914706Y-16221531D02*
X15924229Y-16212008D01*
X15924229Y-16212008D02*
X15943277Y-16202484D01*
X15943277Y-16202484D02*
X15990896Y-16202484D01*
X15990896Y-16202484D02*
X16009944Y-16212008D01*
X16009944Y-16212008D02*
X16019467Y-16221531D01*
X16019467Y-16221531D02*
X16028991Y-16240579D01*
X16028991Y-16240579D02*
X16028991Y-16259627D01*
X16028991Y-16259627D02*
X16019467Y-16288198D01*
X16019467Y-16288198D02*
X15905182Y-16402484D01*
X15905182Y-16402484D02*
X16028991Y-16402484D01*
X16095658Y-16202484D02*
X16219467Y-16202484D01*
X16219467Y-16202484D02*
X16152801Y-16278674D01*
X16152801Y-16278674D02*
X16181372Y-16278674D01*
X16181372Y-16278674D02*
X16200420Y-16288198D01*
X16200420Y-16288198D02*
X16209944Y-16297722D01*
X16209944Y-16297722D02*
X16219467Y-16316769D01*
X16219467Y-16316769D02*
X16219467Y-16364388D01*
X16219467Y-16364388D02*
X16209944Y-16383436D01*
X16209944Y-16383436D02*
X16200420Y-16392960D01*
X16200420Y-16392960D02*
X16181372Y-16402484D01*
X16181372Y-16402484D02*
X16124229Y-16402484D01*
X16124229Y-16402484D02*
X16105182Y-16392960D01*
X16105182Y-16392960D02*
X16095658Y-16383436D01*
X16390896Y-16202484D02*
X16352801Y-16202484D01*
X16352801Y-16202484D02*
X16333753Y-16212008D01*
X16333753Y-16212008D02*
X16324229Y-16221531D01*
X16324229Y-16221531D02*
X16305182Y-16250103D01*
X16305182Y-16250103D02*
X16295658Y-16288198D01*
X16295658Y-16288198D02*
X16295658Y-16364388D01*
X16295658Y-16364388D02*
X16305182Y-16383436D01*
X16305182Y-16383436D02*
X16314706Y-16392960D01*
X16314706Y-16392960D02*
X16333753Y-16402484D01*
X16333753Y-16402484D02*
X16371848Y-16402484D01*
X16371848Y-16402484D02*
X16390896Y-16392960D01*
X16390896Y-16392960D02*
X16400420Y-16383436D01*
X16400420Y-16383436D02*
X16409944Y-16364388D01*
X16409944Y-16364388D02*
X16409944Y-16316769D01*
X16409944Y-16316769D02*
X16400420Y-16297722D01*
X16400420Y-16297722D02*
X16390896Y-16288198D01*
X16390896Y-16288198D02*
X16371848Y-16278674D01*
X16371848Y-16278674D02*
X16333753Y-16278674D01*
X16333753Y-16278674D02*
X16314706Y-16288198D01*
X16314706Y-16288198D02*
X16305182Y-16297722D01*
X16305182Y-16297722D02*
X16295658Y-16316769D01*
X16486134Y-16202484D02*
X16486134Y-16240579D01*
X16562325Y-16202484D02*
X16562325Y-16240579D01*
X16857563Y-16478674D02*
X16848039Y-16469150D01*
X16848039Y-16469150D02*
X16828991Y-16440579D01*
X16828991Y-16440579D02*
X16819468Y-16421531D01*
X16819468Y-16421531D02*
X16809944Y-16392960D01*
X16809944Y-16392960D02*
X16800420Y-16345341D01*
X16800420Y-16345341D02*
X16800420Y-16307246D01*
X16800420Y-16307246D02*
X16809944Y-16259627D01*
X16809944Y-16259627D02*
X16819468Y-16231055D01*
X16819468Y-16231055D02*
X16828991Y-16212008D01*
X16828991Y-16212008D02*
X16848039Y-16183436D01*
X16848039Y-16183436D02*
X16857563Y-16173912D01*
X16971849Y-16202484D02*
X16990896Y-16202484D01*
X16990896Y-16202484D02*
X17009944Y-16212008D01*
X17009944Y-16212008D02*
X17019468Y-16221531D01*
X17019468Y-16221531D02*
X17028991Y-16240579D01*
X17028991Y-16240579D02*
X17038515Y-16278674D01*
X17038515Y-16278674D02*
X17038515Y-16326293D01*
X17038515Y-16326293D02*
X17028991Y-16364388D01*
X17028991Y-16364388D02*
X17019468Y-16383436D01*
X17019468Y-16383436D02*
X17009944Y-16392960D01*
X17009944Y-16392960D02*
X16990896Y-16402484D01*
X16990896Y-16402484D02*
X16971849Y-16402484D01*
X16971849Y-16402484D02*
X16952801Y-16392960D01*
X16952801Y-16392960D02*
X16943277Y-16383436D01*
X16943277Y-16383436D02*
X16933753Y-16364388D01*
X16933753Y-16364388D02*
X16924230Y-16326293D01*
X16924230Y-16326293D02*
X16924230Y-16278674D01*
X16924230Y-16278674D02*
X16933753Y-16240579D01*
X16933753Y-16240579D02*
X16943277Y-16221531D01*
X16943277Y-16221531D02*
X16952801Y-16212008D01*
X16952801Y-16212008D02*
X16971849Y-16202484D01*
X17276611Y-16402484D02*
X17276611Y-16202484D01*
X17362325Y-16402484D02*
X17362325Y-16297722D01*
X17362325Y-16297722D02*
X17352801Y-16278674D01*
X17352801Y-16278674D02*
X17333753Y-16269150D01*
X17333753Y-16269150D02*
X17305182Y-16269150D01*
X17305182Y-16269150D02*
X17286134Y-16278674D01*
X17286134Y-16278674D02*
X17276611Y-16288198D01*
X17486134Y-16402484D02*
X17467087Y-16392960D01*
X17467087Y-16392960D02*
X17457563Y-16383436D01*
X17457563Y-16383436D02*
X17448039Y-16364388D01*
X17448039Y-16364388D02*
X17448039Y-16307246D01*
X17448039Y-16307246D02*
X17457563Y-16288198D01*
X17457563Y-16288198D02*
X17467087Y-16278674D01*
X17467087Y-16278674D02*
X17486134Y-16269150D01*
X17486134Y-16269150D02*
X17514706Y-16269150D01*
X17514706Y-16269150D02*
X17533753Y-16278674D01*
X17533753Y-16278674D02*
X17543277Y-16288198D01*
X17543277Y-16288198D02*
X17552801Y-16307246D01*
X17552801Y-16307246D02*
X17552801Y-16364388D01*
X17552801Y-16364388D02*
X17543277Y-16383436D01*
X17543277Y-16383436D02*
X17533753Y-16392960D01*
X17533753Y-16392960D02*
X17514706Y-16402484D01*
X17514706Y-16402484D02*
X17486134Y-16402484D01*
X17667087Y-16402484D02*
X17648039Y-16392960D01*
X17648039Y-16392960D02*
X17638515Y-16373912D01*
X17638515Y-16373912D02*
X17638515Y-16202484D01*
X17819468Y-16392960D02*
X17800420Y-16402484D01*
X17800420Y-16402484D02*
X17762325Y-16402484D01*
X17762325Y-16402484D02*
X17743277Y-16392960D01*
X17743277Y-16392960D02*
X17733753Y-16373912D01*
X17733753Y-16373912D02*
X17733753Y-16297722D01*
X17733753Y-16297722D02*
X17743277Y-16278674D01*
X17743277Y-16278674D02*
X17762325Y-16269150D01*
X17762325Y-16269150D02*
X17800420Y-16269150D01*
X17800420Y-16269150D02*
X17819468Y-16278674D01*
X17819468Y-16278674D02*
X17828992Y-16297722D01*
X17828992Y-16297722D02*
X17828992Y-16316769D01*
X17828992Y-16316769D02*
X17733753Y-16335817D01*
X17905182Y-16392960D02*
X17924230Y-16402484D01*
X17924230Y-16402484D02*
X17962325Y-16402484D01*
X17962325Y-16402484D02*
X17981373Y-16392960D01*
X17981373Y-16392960D02*
X17990896Y-16373912D01*
X17990896Y-16373912D02*
X17990896Y-16364388D01*
X17990896Y-16364388D02*
X17981373Y-16345341D01*
X17981373Y-16345341D02*
X17962325Y-16335817D01*
X17962325Y-16335817D02*
X17933753Y-16335817D01*
X17933753Y-16335817D02*
X17914706Y-16326293D01*
X17914706Y-16326293D02*
X17905182Y-16307246D01*
X17905182Y-16307246D02*
X17905182Y-16297722D01*
X17905182Y-16297722D02*
X17914706Y-16278674D01*
X17914706Y-16278674D02*
X17933753Y-16269150D01*
X17933753Y-16269150D02*
X17962325Y-16269150D01*
X17962325Y-16269150D02*
X17981373Y-16278674D01*
X18228992Y-16326293D02*
X18381373Y-16326293D01*
X18305182Y-16402484D02*
X18305182Y-16250103D01*
X18714706Y-16269150D02*
X18714706Y-16402484D01*
X18667087Y-16192960D02*
X18619468Y-16335817D01*
X18619468Y-16335817D02*
X18743277Y-16335817D01*
X18962325Y-16392960D02*
X18981373Y-16402484D01*
X18981373Y-16402484D02*
X19019468Y-16402484D01*
X19019468Y-16402484D02*
X19038516Y-16392960D01*
X19038516Y-16392960D02*
X19048039Y-16373912D01*
X19048039Y-16373912D02*
X19048039Y-16364388D01*
X19048039Y-16364388D02*
X19038516Y-16345341D01*
X19038516Y-16345341D02*
X19019468Y-16335817D01*
X19019468Y-16335817D02*
X18990896Y-16335817D01*
X18990896Y-16335817D02*
X18971849Y-16326293D01*
X18971849Y-16326293D02*
X18962325Y-16307246D01*
X18962325Y-16307246D02*
X18962325Y-16297722D01*
X18962325Y-16297722D02*
X18971849Y-16278674D01*
X18971849Y-16278674D02*
X18990896Y-16269150D01*
X18990896Y-16269150D02*
X19019468Y-16269150D01*
X19019468Y-16269150D02*
X19038516Y-16278674D01*
X19162325Y-16402484D02*
X19143277Y-16392960D01*
X19143277Y-16392960D02*
X19133754Y-16373912D01*
X19133754Y-16373912D02*
X19133754Y-16202484D01*
X19267087Y-16402484D02*
X19248039Y-16392960D01*
X19248039Y-16392960D02*
X19238516Y-16383436D01*
X19238516Y-16383436D02*
X19228992Y-16364388D01*
X19228992Y-16364388D02*
X19228992Y-16307246D01*
X19228992Y-16307246D02*
X19238516Y-16288198D01*
X19238516Y-16288198D02*
X19248039Y-16278674D01*
X19248039Y-16278674D02*
X19267087Y-16269150D01*
X19267087Y-16269150D02*
X19295658Y-16269150D01*
X19295658Y-16269150D02*
X19314706Y-16278674D01*
X19314706Y-16278674D02*
X19324230Y-16288198D01*
X19324230Y-16288198D02*
X19333754Y-16307246D01*
X19333754Y-16307246D02*
X19333754Y-16364388D01*
X19333754Y-16364388D02*
X19324230Y-16383436D01*
X19324230Y-16383436D02*
X19314706Y-16392960D01*
X19314706Y-16392960D02*
X19295658Y-16402484D01*
X19295658Y-16402484D02*
X19267087Y-16402484D01*
X19390897Y-16269150D02*
X19467087Y-16269150D01*
X19419468Y-16202484D02*
X19419468Y-16373912D01*
X19419468Y-16373912D02*
X19428992Y-16392960D01*
X19428992Y-16392960D02*
X19448039Y-16402484D01*
X19448039Y-16402484D02*
X19467087Y-16402484D01*
X19524230Y-16392960D02*
X19543277Y-16402484D01*
X19543277Y-16402484D02*
X19581373Y-16402484D01*
X19581373Y-16402484D02*
X19600420Y-16392960D01*
X19600420Y-16392960D02*
X19609944Y-16373912D01*
X19609944Y-16373912D02*
X19609944Y-16364388D01*
X19609944Y-16364388D02*
X19600420Y-16345341D01*
X19600420Y-16345341D02*
X19581373Y-16335817D01*
X19581373Y-16335817D02*
X19552801Y-16335817D01*
X19552801Y-16335817D02*
X19533754Y-16326293D01*
X19533754Y-16326293D02*
X19524230Y-16307246D01*
X19524230Y-16307246D02*
X19524230Y-16297722D01*
X19524230Y-16297722D02*
X19533754Y-16278674D01*
X19533754Y-16278674D02*
X19552801Y-16269150D01*
X19552801Y-16269150D02*
X19581373Y-16269150D01*
X19581373Y-16269150D02*
X19600420Y-16278674D01*
X19676611Y-16478674D02*
X19686135Y-16469150D01*
X19686135Y-16469150D02*
X19705182Y-16440579D01*
X19705182Y-16440579D02*
X19714706Y-16421531D01*
X19714706Y-16421531D02*
X19724230Y-16392960D01*
X19724230Y-16392960D02*
X19733754Y-16345341D01*
X19733754Y-16345341D02*
X19733754Y-16307246D01*
X19733754Y-16307246D02*
X19724230Y-16259627D01*
X19724230Y-16259627D02*
X19714706Y-16231055D01*
X19714706Y-16231055D02*
X19705182Y-16212008D01*
X19705182Y-16212008D02*
X19686135Y-16183436D01*
X19686135Y-16183436D02*
X19676611Y-16173912D01*
D12*
X13182500Y-16525000D02*
X13282500Y-16625000D01*
X13282500Y-16525000D02*
X13182500Y-16625000D01*
X13232500Y-16525000D02*
X13232500Y-16625000D01*
X13182500Y-16575000D02*
X13282500Y-16575000D01*
D11*
X13648039Y-16666484D02*
X13533753Y-16666484D01*
X13590896Y-16666484D02*
X13590896Y-16466484D01*
X13590896Y-16466484D02*
X13571848Y-16495055D01*
X13571848Y-16495055D02*
X13552801Y-16514103D01*
X13552801Y-16514103D02*
X13533753Y-16523627D01*
X13733753Y-16647436D02*
X13743277Y-16656960D01*
X13743277Y-16656960D02*
X13733753Y-16666484D01*
X13733753Y-16666484D02*
X13724229Y-16656960D01*
X13724229Y-16656960D02*
X13733753Y-16647436D01*
X13733753Y-16647436D02*
X13733753Y-16666484D01*
X13867086Y-16466484D02*
X13886134Y-16466484D01*
X13886134Y-16466484D02*
X13905182Y-16476008D01*
X13905182Y-16476008D02*
X13914705Y-16485531D01*
X13914705Y-16485531D02*
X13924229Y-16504579D01*
X13924229Y-16504579D02*
X13933753Y-16542674D01*
X13933753Y-16542674D02*
X13933753Y-16590293D01*
X13933753Y-16590293D02*
X13924229Y-16628388D01*
X13924229Y-16628388D02*
X13914705Y-16647436D01*
X13914705Y-16647436D02*
X13905182Y-16656960D01*
X13905182Y-16656960D02*
X13886134Y-16666484D01*
X13886134Y-16666484D02*
X13867086Y-16666484D01*
X13867086Y-16666484D02*
X13848039Y-16656960D01*
X13848039Y-16656960D02*
X13838515Y-16647436D01*
X13838515Y-16647436D02*
X13828991Y-16628388D01*
X13828991Y-16628388D02*
X13819467Y-16590293D01*
X13819467Y-16590293D02*
X13819467Y-16542674D01*
X13819467Y-16542674D02*
X13828991Y-16504579D01*
X13828991Y-16504579D02*
X13838515Y-16485531D01*
X13838515Y-16485531D02*
X13848039Y-16476008D01*
X13848039Y-16476008D02*
X13867086Y-16466484D01*
X14057562Y-16466484D02*
X14076610Y-16466484D01*
X14076610Y-16466484D02*
X14095658Y-16476008D01*
X14095658Y-16476008D02*
X14105182Y-16485531D01*
X14105182Y-16485531D02*
X14114705Y-16504579D01*
X14114705Y-16504579D02*
X14124229Y-16542674D01*
X14124229Y-16542674D02*
X14124229Y-16590293D01*
X14124229Y-16590293D02*
X14114705Y-16628388D01*
X14114705Y-16628388D02*
X14105182Y-16647436D01*
X14105182Y-16647436D02*
X14095658Y-16656960D01*
X14095658Y-16656960D02*
X14076610Y-16666484D01*
X14076610Y-16666484D02*
X14057562Y-16666484D01*
X14057562Y-16666484D02*
X14038515Y-16656960D01*
X14038515Y-16656960D02*
X14028991Y-16647436D01*
X14028991Y-16647436D02*
X14019467Y-16628388D01*
X14019467Y-16628388D02*
X14009943Y-16590293D01*
X14009943Y-16590293D02*
X14009943Y-16542674D01*
X14009943Y-16542674D02*
X14019467Y-16504579D01*
X14019467Y-16504579D02*
X14028991Y-16485531D01*
X14028991Y-16485531D02*
X14038515Y-16476008D01*
X14038515Y-16476008D02*
X14057562Y-16466484D01*
X14248039Y-16466484D02*
X14267086Y-16466484D01*
X14267086Y-16466484D02*
X14286134Y-16476008D01*
X14286134Y-16476008D02*
X14295658Y-16485531D01*
X14295658Y-16485531D02*
X14305182Y-16504579D01*
X14305182Y-16504579D02*
X14314705Y-16542674D01*
X14314705Y-16542674D02*
X14314705Y-16590293D01*
X14314705Y-16590293D02*
X14305182Y-16628388D01*
X14305182Y-16628388D02*
X14295658Y-16647436D01*
X14295658Y-16647436D02*
X14286134Y-16656960D01*
X14286134Y-16656960D02*
X14267086Y-16666484D01*
X14267086Y-16666484D02*
X14248039Y-16666484D01*
X14248039Y-16666484D02*
X14228991Y-16656960D01*
X14228991Y-16656960D02*
X14219467Y-16647436D01*
X14219467Y-16647436D02*
X14209943Y-16628388D01*
X14209943Y-16628388D02*
X14200420Y-16590293D01*
X14200420Y-16590293D02*
X14200420Y-16542674D01*
X14200420Y-16542674D02*
X14209943Y-16504579D01*
X14209943Y-16504579D02*
X14219467Y-16485531D01*
X14219467Y-16485531D02*
X14228991Y-16476008D01*
X14228991Y-16476008D02*
X14248039Y-16466484D01*
X14400420Y-16666484D02*
X14400420Y-16533150D01*
X14400420Y-16552198D02*
X14409943Y-16542674D01*
X14409943Y-16542674D02*
X14428991Y-16533150D01*
X14428991Y-16533150D02*
X14457563Y-16533150D01*
X14457563Y-16533150D02*
X14476610Y-16542674D01*
X14476610Y-16542674D02*
X14486134Y-16561722D01*
X14486134Y-16561722D02*
X14486134Y-16666484D01*
X14486134Y-16561722D02*
X14495658Y-16542674D01*
X14495658Y-16542674D02*
X14514705Y-16533150D01*
X14514705Y-16533150D02*
X14543277Y-16533150D01*
X14543277Y-16533150D02*
X14562324Y-16542674D01*
X14562324Y-16542674D02*
X14571848Y-16561722D01*
X14571848Y-16561722D02*
X14571848Y-16666484D01*
X14667086Y-16666484D02*
X14667086Y-16533150D01*
X14667086Y-16552198D02*
X14676610Y-16542674D01*
X14676610Y-16542674D02*
X14695658Y-16533150D01*
X14695658Y-16533150D02*
X14724229Y-16533150D01*
X14724229Y-16533150D02*
X14743277Y-16542674D01*
X14743277Y-16542674D02*
X14752801Y-16561722D01*
X14752801Y-16561722D02*
X14752801Y-16666484D01*
X14752801Y-16561722D02*
X14762324Y-16542674D01*
X14762324Y-16542674D02*
X14781372Y-16533150D01*
X14781372Y-16533150D02*
X14809943Y-16533150D01*
X14809943Y-16533150D02*
X14828991Y-16542674D01*
X14828991Y-16542674D02*
X14838515Y-16561722D01*
X14838515Y-16561722D02*
X14838515Y-16666484D01*
X15228991Y-16456960D02*
X15057563Y-16714103D01*
X15486134Y-16466484D02*
X15505182Y-16466484D01*
X15505182Y-16466484D02*
X15524229Y-16476008D01*
X15524229Y-16476008D02*
X15533753Y-16485531D01*
X15533753Y-16485531D02*
X15543277Y-16504579D01*
X15543277Y-16504579D02*
X15552801Y-16542674D01*
X15552801Y-16542674D02*
X15552801Y-16590293D01*
X15552801Y-16590293D02*
X15543277Y-16628388D01*
X15543277Y-16628388D02*
X15533753Y-16647436D01*
X15533753Y-16647436D02*
X15524229Y-16656960D01*
X15524229Y-16656960D02*
X15505182Y-16666484D01*
X15505182Y-16666484D02*
X15486134Y-16666484D01*
X15486134Y-16666484D02*
X15467086Y-16656960D01*
X15467086Y-16656960D02*
X15457563Y-16647436D01*
X15457563Y-16647436D02*
X15448039Y-16628388D01*
X15448039Y-16628388D02*
X15438515Y-16590293D01*
X15438515Y-16590293D02*
X15438515Y-16542674D01*
X15438515Y-16542674D02*
X15448039Y-16504579D01*
X15448039Y-16504579D02*
X15457563Y-16485531D01*
X15457563Y-16485531D02*
X15467086Y-16476008D01*
X15467086Y-16476008D02*
X15486134Y-16466484D01*
X15638515Y-16647436D02*
X15648039Y-16656960D01*
X15648039Y-16656960D02*
X15638515Y-16666484D01*
X15638515Y-16666484D02*
X15628991Y-16656960D01*
X15628991Y-16656960D02*
X15638515Y-16647436D01*
X15638515Y-16647436D02*
X15638515Y-16666484D01*
X15771848Y-16466484D02*
X15790896Y-16466484D01*
X15790896Y-16466484D02*
X15809944Y-16476008D01*
X15809944Y-16476008D02*
X15819467Y-16485531D01*
X15819467Y-16485531D02*
X15828991Y-16504579D01*
X15828991Y-16504579D02*
X15838515Y-16542674D01*
X15838515Y-16542674D02*
X15838515Y-16590293D01*
X15838515Y-16590293D02*
X15828991Y-16628388D01*
X15828991Y-16628388D02*
X15819467Y-16647436D01*
X15819467Y-16647436D02*
X15809944Y-16656960D01*
X15809944Y-16656960D02*
X15790896Y-16666484D01*
X15790896Y-16666484D02*
X15771848Y-16666484D01*
X15771848Y-16666484D02*
X15752801Y-16656960D01*
X15752801Y-16656960D02*
X15743277Y-16647436D01*
X15743277Y-16647436D02*
X15733753Y-16628388D01*
X15733753Y-16628388D02*
X15724229Y-16590293D01*
X15724229Y-16590293D02*
X15724229Y-16542674D01*
X15724229Y-16542674D02*
X15733753Y-16504579D01*
X15733753Y-16504579D02*
X15743277Y-16485531D01*
X15743277Y-16485531D02*
X15752801Y-16476008D01*
X15752801Y-16476008D02*
X15771848Y-16466484D01*
X15905182Y-16466484D02*
X16028991Y-16466484D01*
X16028991Y-16466484D02*
X15962325Y-16542674D01*
X15962325Y-16542674D02*
X15990896Y-16542674D01*
X15990896Y-16542674D02*
X16009944Y-16552198D01*
X16009944Y-16552198D02*
X16019467Y-16561722D01*
X16019467Y-16561722D02*
X16028991Y-16580769D01*
X16028991Y-16580769D02*
X16028991Y-16628388D01*
X16028991Y-16628388D02*
X16019467Y-16647436D01*
X16019467Y-16647436D02*
X16009944Y-16656960D01*
X16009944Y-16656960D02*
X15990896Y-16666484D01*
X15990896Y-16666484D02*
X15933753Y-16666484D01*
X15933753Y-16666484D02*
X15914706Y-16656960D01*
X15914706Y-16656960D02*
X15905182Y-16647436D01*
X16124229Y-16666484D02*
X16162325Y-16666484D01*
X16162325Y-16666484D02*
X16181372Y-16656960D01*
X16181372Y-16656960D02*
X16190896Y-16647436D01*
X16190896Y-16647436D02*
X16209944Y-16618865D01*
X16209944Y-16618865D02*
X16219467Y-16580769D01*
X16219467Y-16580769D02*
X16219467Y-16504579D01*
X16219467Y-16504579D02*
X16209944Y-16485531D01*
X16209944Y-16485531D02*
X16200420Y-16476008D01*
X16200420Y-16476008D02*
X16181372Y-16466484D01*
X16181372Y-16466484D02*
X16143277Y-16466484D01*
X16143277Y-16466484D02*
X16124229Y-16476008D01*
X16124229Y-16476008D02*
X16114706Y-16485531D01*
X16114706Y-16485531D02*
X16105182Y-16504579D01*
X16105182Y-16504579D02*
X16105182Y-16552198D01*
X16105182Y-16552198D02*
X16114706Y-16571246D01*
X16114706Y-16571246D02*
X16124229Y-16580769D01*
X16124229Y-16580769D02*
X16143277Y-16590293D01*
X16143277Y-16590293D02*
X16181372Y-16590293D01*
X16181372Y-16590293D02*
X16200420Y-16580769D01*
X16200420Y-16580769D02*
X16209944Y-16571246D01*
X16209944Y-16571246D02*
X16219467Y-16552198D01*
X16390896Y-16533150D02*
X16390896Y-16666484D01*
X16343277Y-16456960D02*
X16295658Y-16599817D01*
X16295658Y-16599817D02*
X16419467Y-16599817D01*
X16486134Y-16466484D02*
X16486134Y-16504579D01*
X16562325Y-16466484D02*
X16562325Y-16504579D01*
X16857563Y-16742674D02*
X16848039Y-16733150D01*
X16848039Y-16733150D02*
X16828991Y-16704579D01*
X16828991Y-16704579D02*
X16819468Y-16685531D01*
X16819468Y-16685531D02*
X16809944Y-16656960D01*
X16809944Y-16656960D02*
X16800420Y-16609341D01*
X16800420Y-16609341D02*
X16800420Y-16571246D01*
X16800420Y-16571246D02*
X16809944Y-16523627D01*
X16809944Y-16523627D02*
X16819468Y-16495055D01*
X16819468Y-16495055D02*
X16828991Y-16476008D01*
X16828991Y-16476008D02*
X16848039Y-16447436D01*
X16848039Y-16447436D02*
X16857563Y-16437912D01*
X17019468Y-16533150D02*
X17019468Y-16666484D01*
X16971849Y-16456960D02*
X16924230Y-16599817D01*
X16924230Y-16599817D02*
X17048039Y-16599817D01*
X17276611Y-16666484D02*
X17276611Y-16466484D01*
X17362325Y-16666484D02*
X17362325Y-16561722D01*
X17362325Y-16561722D02*
X17352801Y-16542674D01*
X17352801Y-16542674D02*
X17333753Y-16533150D01*
X17333753Y-16533150D02*
X17305182Y-16533150D01*
X17305182Y-16533150D02*
X17286134Y-16542674D01*
X17286134Y-16542674D02*
X17276611Y-16552198D01*
X17486134Y-16666484D02*
X17467087Y-16656960D01*
X17467087Y-16656960D02*
X17457563Y-16647436D01*
X17457563Y-16647436D02*
X17448039Y-16628388D01*
X17448039Y-16628388D02*
X17448039Y-16571246D01*
X17448039Y-16571246D02*
X17457563Y-16552198D01*
X17457563Y-16552198D02*
X17467087Y-16542674D01*
X17467087Y-16542674D02*
X17486134Y-16533150D01*
X17486134Y-16533150D02*
X17514706Y-16533150D01*
X17514706Y-16533150D02*
X17533753Y-16542674D01*
X17533753Y-16542674D02*
X17543277Y-16552198D01*
X17543277Y-16552198D02*
X17552801Y-16571246D01*
X17552801Y-16571246D02*
X17552801Y-16628388D01*
X17552801Y-16628388D02*
X17543277Y-16647436D01*
X17543277Y-16647436D02*
X17533753Y-16656960D01*
X17533753Y-16656960D02*
X17514706Y-16666484D01*
X17514706Y-16666484D02*
X17486134Y-16666484D01*
X17667087Y-16666484D02*
X17648039Y-16656960D01*
X17648039Y-16656960D02*
X17638515Y-16637912D01*
X17638515Y-16637912D02*
X17638515Y-16466484D01*
X17819468Y-16656960D02*
X17800420Y-16666484D01*
X17800420Y-16666484D02*
X17762325Y-16666484D01*
X17762325Y-16666484D02*
X17743277Y-16656960D01*
X17743277Y-16656960D02*
X17733753Y-16637912D01*
X17733753Y-16637912D02*
X17733753Y-16561722D01*
X17733753Y-16561722D02*
X17743277Y-16542674D01*
X17743277Y-16542674D02*
X17762325Y-16533150D01*
X17762325Y-16533150D02*
X17800420Y-16533150D01*
X17800420Y-16533150D02*
X17819468Y-16542674D01*
X17819468Y-16542674D02*
X17828992Y-16561722D01*
X17828992Y-16561722D02*
X17828992Y-16580769D01*
X17828992Y-16580769D02*
X17733753Y-16599817D01*
X17905182Y-16656960D02*
X17924230Y-16666484D01*
X17924230Y-16666484D02*
X17962325Y-16666484D01*
X17962325Y-16666484D02*
X17981373Y-16656960D01*
X17981373Y-16656960D02*
X17990896Y-16637912D01*
X17990896Y-16637912D02*
X17990896Y-16628388D01*
X17990896Y-16628388D02*
X17981373Y-16609341D01*
X17981373Y-16609341D02*
X17962325Y-16599817D01*
X17962325Y-16599817D02*
X17933753Y-16599817D01*
X17933753Y-16599817D02*
X17914706Y-16590293D01*
X17914706Y-16590293D02*
X17905182Y-16571246D01*
X17905182Y-16571246D02*
X17905182Y-16561722D01*
X17905182Y-16561722D02*
X17914706Y-16542674D01*
X17914706Y-16542674D02*
X17933753Y-16533150D01*
X17933753Y-16533150D02*
X17962325Y-16533150D01*
X17962325Y-16533150D02*
X17981373Y-16542674D01*
X18057563Y-16742674D02*
X18067087Y-16733150D01*
X18067087Y-16733150D02*
X18086134Y-16704579D01*
X18086134Y-16704579D02*
X18095658Y-16685531D01*
X18095658Y-16685531D02*
X18105182Y-16656960D01*
X18105182Y-16656960D02*
X18114706Y-16609341D01*
X18114706Y-16609341D02*
X18114706Y-16571246D01*
X18114706Y-16571246D02*
X18105182Y-16523627D01*
X18105182Y-16523627D02*
X18095658Y-16495055D01*
X18095658Y-16495055D02*
X18086134Y-16476008D01*
X18086134Y-16476008D02*
X18067087Y-16447436D01*
X18067087Y-16447436D02*
X18057563Y-16437912D01*
D13*
X13092500Y-16744000D02*
X13282500Y-16934000D01*
X13282500Y-16744000D02*
X13092500Y-16934000D01*
X13254676Y-16906176D02*
X13254676Y-16771824D01*
X13120324Y-16771824D01*
X13120324Y-16906176D01*
X13254676Y-16906176D01*
D11*
X13648039Y-16930484D02*
X13533753Y-16930484D01*
X13590896Y-16930484D02*
X13590896Y-16730484D01*
X13590896Y-16730484D02*
X13571848Y-16759055D01*
X13571848Y-16759055D02*
X13552801Y-16778103D01*
X13552801Y-16778103D02*
X13533753Y-16787627D01*
X13733753Y-16911436D02*
X13743277Y-16920960D01*
X13743277Y-16920960D02*
X13733753Y-16930484D01*
X13733753Y-16930484D02*
X13724229Y-16920960D01*
X13724229Y-16920960D02*
X13733753Y-16911436D01*
X13733753Y-16911436D02*
X13733753Y-16930484D01*
X13838515Y-16930484D02*
X13876610Y-16930484D01*
X13876610Y-16930484D02*
X13895658Y-16920960D01*
X13895658Y-16920960D02*
X13905182Y-16911436D01*
X13905182Y-16911436D02*
X13924229Y-16882865D01*
X13924229Y-16882865D02*
X13933753Y-16844770D01*
X13933753Y-16844770D02*
X13933753Y-16768579D01*
X13933753Y-16768579D02*
X13924229Y-16749531D01*
X13924229Y-16749531D02*
X13914705Y-16740008D01*
X13914705Y-16740008D02*
X13895658Y-16730484D01*
X13895658Y-16730484D02*
X13857562Y-16730484D01*
X13857562Y-16730484D02*
X13838515Y-16740008D01*
X13838515Y-16740008D02*
X13828991Y-16749531D01*
X13828991Y-16749531D02*
X13819467Y-16768579D01*
X13819467Y-16768579D02*
X13819467Y-16816198D01*
X13819467Y-16816198D02*
X13828991Y-16835246D01*
X13828991Y-16835246D02*
X13838515Y-16844770D01*
X13838515Y-16844770D02*
X13857562Y-16854293D01*
X13857562Y-16854293D02*
X13895658Y-16854293D01*
X13895658Y-16854293D02*
X13914705Y-16844770D01*
X13914705Y-16844770D02*
X13924229Y-16835246D01*
X13924229Y-16835246D02*
X13933753Y-16816198D01*
X14057562Y-16730484D02*
X14076610Y-16730484D01*
X14076610Y-16730484D02*
X14095658Y-16740008D01*
X14095658Y-16740008D02*
X14105182Y-16749531D01*
X14105182Y-16749531D02*
X14114705Y-16768579D01*
X14114705Y-16768579D02*
X14124229Y-16806674D01*
X14124229Y-16806674D02*
X14124229Y-16854293D01*
X14124229Y-16854293D02*
X14114705Y-16892389D01*
X14114705Y-16892389D02*
X14105182Y-16911436D01*
X14105182Y-16911436D02*
X14095658Y-16920960D01*
X14095658Y-16920960D02*
X14076610Y-16930484D01*
X14076610Y-16930484D02*
X14057562Y-16930484D01*
X14057562Y-16930484D02*
X14038515Y-16920960D01*
X14038515Y-16920960D02*
X14028991Y-16911436D01*
X14028991Y-16911436D02*
X14019467Y-16892389D01*
X14019467Y-16892389D02*
X14009943Y-16854293D01*
X14009943Y-16854293D02*
X14009943Y-16806674D01*
X14009943Y-16806674D02*
X14019467Y-16768579D01*
X14019467Y-16768579D02*
X14028991Y-16749531D01*
X14028991Y-16749531D02*
X14038515Y-16740008D01*
X14038515Y-16740008D02*
X14057562Y-16730484D01*
X14248039Y-16730484D02*
X14267086Y-16730484D01*
X14267086Y-16730484D02*
X14286134Y-16740008D01*
X14286134Y-16740008D02*
X14295658Y-16749531D01*
X14295658Y-16749531D02*
X14305182Y-16768579D01*
X14305182Y-16768579D02*
X14314705Y-16806674D01*
X14314705Y-16806674D02*
X14314705Y-16854293D01*
X14314705Y-16854293D02*
X14305182Y-16892389D01*
X14305182Y-16892389D02*
X14295658Y-16911436D01*
X14295658Y-16911436D02*
X14286134Y-16920960D01*
X14286134Y-16920960D02*
X14267086Y-16930484D01*
X14267086Y-16930484D02*
X14248039Y-16930484D01*
X14248039Y-16930484D02*
X14228991Y-16920960D01*
X14228991Y-16920960D02*
X14219467Y-16911436D01*
X14219467Y-16911436D02*
X14209943Y-16892389D01*
X14209943Y-16892389D02*
X14200420Y-16854293D01*
X14200420Y-16854293D02*
X14200420Y-16806674D01*
X14200420Y-16806674D02*
X14209943Y-16768579D01*
X14209943Y-16768579D02*
X14219467Y-16749531D01*
X14219467Y-16749531D02*
X14228991Y-16740008D01*
X14228991Y-16740008D02*
X14248039Y-16730484D01*
X14400420Y-16930484D02*
X14400420Y-16797150D01*
X14400420Y-16816198D02*
X14409943Y-16806674D01*
X14409943Y-16806674D02*
X14428991Y-16797150D01*
X14428991Y-16797150D02*
X14457563Y-16797150D01*
X14457563Y-16797150D02*
X14476610Y-16806674D01*
X14476610Y-16806674D02*
X14486134Y-16825722D01*
X14486134Y-16825722D02*
X14486134Y-16930484D01*
X14486134Y-16825722D02*
X14495658Y-16806674D01*
X14495658Y-16806674D02*
X14514705Y-16797150D01*
X14514705Y-16797150D02*
X14543277Y-16797150D01*
X14543277Y-16797150D02*
X14562324Y-16806674D01*
X14562324Y-16806674D02*
X14571848Y-16825722D01*
X14571848Y-16825722D02*
X14571848Y-16930484D01*
X14667086Y-16930484D02*
X14667086Y-16797150D01*
X14667086Y-16816198D02*
X14676610Y-16806674D01*
X14676610Y-16806674D02*
X14695658Y-16797150D01*
X14695658Y-16797150D02*
X14724229Y-16797150D01*
X14724229Y-16797150D02*
X14743277Y-16806674D01*
X14743277Y-16806674D02*
X14752801Y-16825722D01*
X14752801Y-16825722D02*
X14752801Y-16930484D01*
X14752801Y-16825722D02*
X14762324Y-16806674D01*
X14762324Y-16806674D02*
X14781372Y-16797150D01*
X14781372Y-16797150D02*
X14809943Y-16797150D01*
X14809943Y-16797150D02*
X14828991Y-16806674D01*
X14828991Y-16806674D02*
X14838515Y-16825722D01*
X14838515Y-16825722D02*
X14838515Y-16930484D01*
X15228991Y-16720960D02*
X15057563Y-16978103D01*
X15486134Y-16730484D02*
X15505182Y-16730484D01*
X15505182Y-16730484D02*
X15524229Y-16740008D01*
X15524229Y-16740008D02*
X15533753Y-16749531D01*
X15533753Y-16749531D02*
X15543277Y-16768579D01*
X15543277Y-16768579D02*
X15552801Y-16806674D01*
X15552801Y-16806674D02*
X15552801Y-16854293D01*
X15552801Y-16854293D02*
X15543277Y-16892389D01*
X15543277Y-16892389D02*
X15533753Y-16911436D01*
X15533753Y-16911436D02*
X15524229Y-16920960D01*
X15524229Y-16920960D02*
X15505182Y-16930484D01*
X15505182Y-16930484D02*
X15486134Y-16930484D01*
X15486134Y-16930484D02*
X15467086Y-16920960D01*
X15467086Y-16920960D02*
X15457563Y-16911436D01*
X15457563Y-16911436D02*
X15448039Y-16892389D01*
X15448039Y-16892389D02*
X15438515Y-16854293D01*
X15438515Y-16854293D02*
X15438515Y-16806674D01*
X15438515Y-16806674D02*
X15448039Y-16768579D01*
X15448039Y-16768579D02*
X15457563Y-16749531D01*
X15457563Y-16749531D02*
X15467086Y-16740008D01*
X15467086Y-16740008D02*
X15486134Y-16730484D01*
X15638515Y-16911436D02*
X15648039Y-16920960D01*
X15648039Y-16920960D02*
X15638515Y-16930484D01*
X15638515Y-16930484D02*
X15628991Y-16920960D01*
X15628991Y-16920960D02*
X15638515Y-16911436D01*
X15638515Y-16911436D02*
X15638515Y-16930484D01*
X15771848Y-16730484D02*
X15790896Y-16730484D01*
X15790896Y-16730484D02*
X15809944Y-16740008D01*
X15809944Y-16740008D02*
X15819467Y-16749531D01*
X15819467Y-16749531D02*
X15828991Y-16768579D01*
X15828991Y-16768579D02*
X15838515Y-16806674D01*
X15838515Y-16806674D02*
X15838515Y-16854293D01*
X15838515Y-16854293D02*
X15828991Y-16892389D01*
X15828991Y-16892389D02*
X15819467Y-16911436D01*
X15819467Y-16911436D02*
X15809944Y-16920960D01*
X15809944Y-16920960D02*
X15790896Y-16930484D01*
X15790896Y-16930484D02*
X15771848Y-16930484D01*
X15771848Y-16930484D02*
X15752801Y-16920960D01*
X15752801Y-16920960D02*
X15743277Y-16911436D01*
X15743277Y-16911436D02*
X15733753Y-16892389D01*
X15733753Y-16892389D02*
X15724229Y-16854293D01*
X15724229Y-16854293D02*
X15724229Y-16806674D01*
X15724229Y-16806674D02*
X15733753Y-16768579D01*
X15733753Y-16768579D02*
X15743277Y-16749531D01*
X15743277Y-16749531D02*
X15752801Y-16740008D01*
X15752801Y-16740008D02*
X15771848Y-16730484D01*
X15905182Y-16730484D02*
X16038515Y-16730484D01*
X16038515Y-16730484D02*
X15952801Y-16930484D01*
X16200420Y-16797150D02*
X16200420Y-16930484D01*
X16152801Y-16720960D02*
X16105182Y-16863817D01*
X16105182Y-16863817D02*
X16228991Y-16863817D01*
X16333753Y-16816198D02*
X16314706Y-16806674D01*
X16314706Y-16806674D02*
X16305182Y-16797150D01*
X16305182Y-16797150D02*
X16295658Y-16778103D01*
X16295658Y-16778103D02*
X16295658Y-16768579D01*
X16295658Y-16768579D02*
X16305182Y-16749531D01*
X16305182Y-16749531D02*
X16314706Y-16740008D01*
X16314706Y-16740008D02*
X16333753Y-16730484D01*
X16333753Y-16730484D02*
X16371848Y-16730484D01*
X16371848Y-16730484D02*
X16390896Y-16740008D01*
X16390896Y-16740008D02*
X16400420Y-16749531D01*
X16400420Y-16749531D02*
X16409944Y-16768579D01*
X16409944Y-16768579D02*
X16409944Y-16778103D01*
X16409944Y-16778103D02*
X16400420Y-16797150D01*
X16400420Y-16797150D02*
X16390896Y-16806674D01*
X16390896Y-16806674D02*
X16371848Y-16816198D01*
X16371848Y-16816198D02*
X16333753Y-16816198D01*
X16333753Y-16816198D02*
X16314706Y-16825722D01*
X16314706Y-16825722D02*
X16305182Y-16835246D01*
X16305182Y-16835246D02*
X16295658Y-16854293D01*
X16295658Y-16854293D02*
X16295658Y-16892389D01*
X16295658Y-16892389D02*
X16305182Y-16911436D01*
X16305182Y-16911436D02*
X16314706Y-16920960D01*
X16314706Y-16920960D02*
X16333753Y-16930484D01*
X16333753Y-16930484D02*
X16371848Y-16930484D01*
X16371848Y-16930484D02*
X16390896Y-16920960D01*
X16390896Y-16920960D02*
X16400420Y-16911436D01*
X16400420Y-16911436D02*
X16409944Y-16892389D01*
X16409944Y-16892389D02*
X16409944Y-16854293D01*
X16409944Y-16854293D02*
X16400420Y-16835246D01*
X16400420Y-16835246D02*
X16390896Y-16825722D01*
X16390896Y-16825722D02*
X16371848Y-16816198D01*
X16486134Y-16730484D02*
X16486134Y-16768579D01*
X16562325Y-16730484D02*
X16562325Y-16768579D01*
X16857563Y-17006674D02*
X16848039Y-16997150D01*
X16848039Y-16997150D02*
X16828991Y-16968579D01*
X16828991Y-16968579D02*
X16819468Y-16949531D01*
X16819468Y-16949531D02*
X16809944Y-16920960D01*
X16809944Y-16920960D02*
X16800420Y-16873341D01*
X16800420Y-16873341D02*
X16800420Y-16835246D01*
X16800420Y-16835246D02*
X16809944Y-16787627D01*
X16809944Y-16787627D02*
X16819468Y-16759055D01*
X16819468Y-16759055D02*
X16828991Y-16740008D01*
X16828991Y-16740008D02*
X16848039Y-16711436D01*
X16848039Y-16711436D02*
X16857563Y-16701912D01*
X17019468Y-16797150D02*
X17019468Y-16930484D01*
X16971849Y-16720960D02*
X16924230Y-16863817D01*
X16924230Y-16863817D02*
X17048039Y-16863817D01*
X17276611Y-16930484D02*
X17276611Y-16730484D01*
X17362325Y-16930484D02*
X17362325Y-16825722D01*
X17362325Y-16825722D02*
X17352801Y-16806674D01*
X17352801Y-16806674D02*
X17333753Y-16797150D01*
X17333753Y-16797150D02*
X17305182Y-16797150D01*
X17305182Y-16797150D02*
X17286134Y-16806674D01*
X17286134Y-16806674D02*
X17276611Y-16816198D01*
X17486134Y-16930484D02*
X17467087Y-16920960D01*
X17467087Y-16920960D02*
X17457563Y-16911436D01*
X17457563Y-16911436D02*
X17448039Y-16892389D01*
X17448039Y-16892389D02*
X17448039Y-16835246D01*
X17448039Y-16835246D02*
X17457563Y-16816198D01*
X17457563Y-16816198D02*
X17467087Y-16806674D01*
X17467087Y-16806674D02*
X17486134Y-16797150D01*
X17486134Y-16797150D02*
X17514706Y-16797150D01*
X17514706Y-16797150D02*
X17533753Y-16806674D01*
X17533753Y-16806674D02*
X17543277Y-16816198D01*
X17543277Y-16816198D02*
X17552801Y-16835246D01*
X17552801Y-16835246D02*
X17552801Y-16892389D01*
X17552801Y-16892389D02*
X17543277Y-16911436D01*
X17543277Y-16911436D02*
X17533753Y-16920960D01*
X17533753Y-16920960D02*
X17514706Y-16930484D01*
X17514706Y-16930484D02*
X17486134Y-16930484D01*
X17667087Y-16930484D02*
X17648039Y-16920960D01*
X17648039Y-16920960D02*
X17638515Y-16901912D01*
X17638515Y-16901912D02*
X17638515Y-16730484D01*
X17819468Y-16920960D02*
X17800420Y-16930484D01*
X17800420Y-16930484D02*
X17762325Y-16930484D01*
X17762325Y-16930484D02*
X17743277Y-16920960D01*
X17743277Y-16920960D02*
X17733753Y-16901912D01*
X17733753Y-16901912D02*
X17733753Y-16825722D01*
X17733753Y-16825722D02*
X17743277Y-16806674D01*
X17743277Y-16806674D02*
X17762325Y-16797150D01*
X17762325Y-16797150D02*
X17800420Y-16797150D01*
X17800420Y-16797150D02*
X17819468Y-16806674D01*
X17819468Y-16806674D02*
X17828992Y-16825722D01*
X17828992Y-16825722D02*
X17828992Y-16844770D01*
X17828992Y-16844770D02*
X17733753Y-16863817D01*
X17905182Y-16920960D02*
X17924230Y-16930484D01*
X17924230Y-16930484D02*
X17962325Y-16930484D01*
X17962325Y-16930484D02*
X17981373Y-16920960D01*
X17981373Y-16920960D02*
X17990896Y-16901912D01*
X17990896Y-16901912D02*
X17990896Y-16892389D01*
X17990896Y-16892389D02*
X17981373Y-16873341D01*
X17981373Y-16873341D02*
X17962325Y-16863817D01*
X17962325Y-16863817D02*
X17933753Y-16863817D01*
X17933753Y-16863817D02*
X17914706Y-16854293D01*
X17914706Y-16854293D02*
X17905182Y-16835246D01*
X17905182Y-16835246D02*
X17905182Y-16825722D01*
X17905182Y-16825722D02*
X17914706Y-16806674D01*
X17914706Y-16806674D02*
X17933753Y-16797150D01*
X17933753Y-16797150D02*
X17962325Y-16797150D01*
X17962325Y-16797150D02*
X17981373Y-16806674D01*
X18057563Y-17006674D02*
X18067087Y-16997150D01*
X18067087Y-16997150D02*
X18086134Y-16968579D01*
X18086134Y-16968579D02*
X18095658Y-16949531D01*
X18095658Y-16949531D02*
X18105182Y-16920960D01*
X18105182Y-16920960D02*
X18114706Y-16873341D01*
X18114706Y-16873341D02*
X18114706Y-16835246D01*
X18114706Y-16835246D02*
X18105182Y-16787627D01*
X18105182Y-16787627D02*
X18095658Y-16759055D01*
X18095658Y-16759055D02*
X18086134Y-16740008D01*
X18086134Y-16740008D02*
X18067087Y-16711436D01*
X18067087Y-16711436D02*
X18057563Y-16701912D01*
X13082500Y-17049000D02*
X13282500Y-17249000D01*
X13282500Y-17049000D02*
X13082500Y-17249000D01*
X13182500Y-17249000D02*
X13282500Y-17149000D01*
X13182500Y-17049000D01*
X13082500Y-17149000D01*
X13182500Y-17249000D01*
X13533753Y-17059531D02*
X13543277Y-17050008D01*
X13543277Y-17050008D02*
X13562324Y-17040484D01*
X13562324Y-17040484D02*
X13609943Y-17040484D01*
X13609943Y-17040484D02*
X13628991Y-17050008D01*
X13628991Y-17050008D02*
X13638515Y-17059531D01*
X13638515Y-17059531D02*
X13648039Y-17078579D01*
X13648039Y-17078579D02*
X13648039Y-17097627D01*
X13648039Y-17097627D02*
X13638515Y-17126198D01*
X13638515Y-17126198D02*
X13524229Y-17240484D01*
X13524229Y-17240484D02*
X13648039Y-17240484D01*
X13733753Y-17221436D02*
X13743277Y-17230960D01*
X13743277Y-17230960D02*
X13733753Y-17240484D01*
X13733753Y-17240484D02*
X13724229Y-17230960D01*
X13724229Y-17230960D02*
X13733753Y-17221436D01*
X13733753Y-17221436D02*
X13733753Y-17240484D01*
X13924229Y-17040484D02*
X13828991Y-17040484D01*
X13828991Y-17040484D02*
X13819467Y-17135722D01*
X13819467Y-17135722D02*
X13828991Y-17126198D01*
X13828991Y-17126198D02*
X13848039Y-17116674D01*
X13848039Y-17116674D02*
X13895658Y-17116674D01*
X13895658Y-17116674D02*
X13914705Y-17126198D01*
X13914705Y-17126198D02*
X13924229Y-17135722D01*
X13924229Y-17135722D02*
X13933753Y-17154770D01*
X13933753Y-17154770D02*
X13933753Y-17202389D01*
X13933753Y-17202389D02*
X13924229Y-17221436D01*
X13924229Y-17221436D02*
X13914705Y-17230960D01*
X13914705Y-17230960D02*
X13895658Y-17240484D01*
X13895658Y-17240484D02*
X13848039Y-17240484D01*
X13848039Y-17240484D02*
X13828991Y-17230960D01*
X13828991Y-17230960D02*
X13819467Y-17221436D01*
X14057562Y-17040484D02*
X14076610Y-17040484D01*
X14076610Y-17040484D02*
X14095658Y-17050008D01*
X14095658Y-17050008D02*
X14105182Y-17059531D01*
X14105182Y-17059531D02*
X14114705Y-17078579D01*
X14114705Y-17078579D02*
X14124229Y-17116674D01*
X14124229Y-17116674D02*
X14124229Y-17164293D01*
X14124229Y-17164293D02*
X14114705Y-17202389D01*
X14114705Y-17202389D02*
X14105182Y-17221436D01*
X14105182Y-17221436D02*
X14095658Y-17230960D01*
X14095658Y-17230960D02*
X14076610Y-17240484D01*
X14076610Y-17240484D02*
X14057562Y-17240484D01*
X14057562Y-17240484D02*
X14038515Y-17230960D01*
X14038515Y-17230960D02*
X14028991Y-17221436D01*
X14028991Y-17221436D02*
X14019467Y-17202389D01*
X14019467Y-17202389D02*
X14009943Y-17164293D01*
X14009943Y-17164293D02*
X14009943Y-17116674D01*
X14009943Y-17116674D02*
X14019467Y-17078579D01*
X14019467Y-17078579D02*
X14028991Y-17059531D01*
X14028991Y-17059531D02*
X14038515Y-17050008D01*
X14038515Y-17050008D02*
X14057562Y-17040484D01*
X14248039Y-17040484D02*
X14267086Y-17040484D01*
X14267086Y-17040484D02*
X14286134Y-17050008D01*
X14286134Y-17050008D02*
X14295658Y-17059531D01*
X14295658Y-17059531D02*
X14305182Y-17078579D01*
X14305182Y-17078579D02*
X14314705Y-17116674D01*
X14314705Y-17116674D02*
X14314705Y-17164293D01*
X14314705Y-17164293D02*
X14305182Y-17202389D01*
X14305182Y-17202389D02*
X14295658Y-17221436D01*
X14295658Y-17221436D02*
X14286134Y-17230960D01*
X14286134Y-17230960D02*
X14267086Y-17240484D01*
X14267086Y-17240484D02*
X14248039Y-17240484D01*
X14248039Y-17240484D02*
X14228991Y-17230960D01*
X14228991Y-17230960D02*
X14219467Y-17221436D01*
X14219467Y-17221436D02*
X14209943Y-17202389D01*
X14209943Y-17202389D02*
X14200420Y-17164293D01*
X14200420Y-17164293D02*
X14200420Y-17116674D01*
X14200420Y-17116674D02*
X14209943Y-17078579D01*
X14209943Y-17078579D02*
X14219467Y-17059531D01*
X14219467Y-17059531D02*
X14228991Y-17050008D01*
X14228991Y-17050008D02*
X14248039Y-17040484D01*
X14400420Y-17240484D02*
X14400420Y-17107150D01*
X14400420Y-17126198D02*
X14409943Y-17116674D01*
X14409943Y-17116674D02*
X14428991Y-17107150D01*
X14428991Y-17107150D02*
X14457563Y-17107150D01*
X14457563Y-17107150D02*
X14476610Y-17116674D01*
X14476610Y-17116674D02*
X14486134Y-17135722D01*
X14486134Y-17135722D02*
X14486134Y-17240484D01*
X14486134Y-17135722D02*
X14495658Y-17116674D01*
X14495658Y-17116674D02*
X14514705Y-17107150D01*
X14514705Y-17107150D02*
X14543277Y-17107150D01*
X14543277Y-17107150D02*
X14562324Y-17116674D01*
X14562324Y-17116674D02*
X14571848Y-17135722D01*
X14571848Y-17135722D02*
X14571848Y-17240484D01*
X14667086Y-17240484D02*
X14667086Y-17107150D01*
X14667086Y-17126198D02*
X14676610Y-17116674D01*
X14676610Y-17116674D02*
X14695658Y-17107150D01*
X14695658Y-17107150D02*
X14724229Y-17107150D01*
X14724229Y-17107150D02*
X14743277Y-17116674D01*
X14743277Y-17116674D02*
X14752801Y-17135722D01*
X14752801Y-17135722D02*
X14752801Y-17240484D01*
X14752801Y-17135722D02*
X14762324Y-17116674D01*
X14762324Y-17116674D02*
X14781372Y-17107150D01*
X14781372Y-17107150D02*
X14809943Y-17107150D01*
X14809943Y-17107150D02*
X14828991Y-17116674D01*
X14828991Y-17116674D02*
X14838515Y-17135722D01*
X14838515Y-17135722D02*
X14838515Y-17240484D01*
X15228991Y-17030960D02*
X15057563Y-17288103D01*
X15486134Y-17040484D02*
X15505182Y-17040484D01*
X15505182Y-17040484D02*
X15524229Y-17050008D01*
X15524229Y-17050008D02*
X15533753Y-17059531D01*
X15533753Y-17059531D02*
X15543277Y-17078579D01*
X15543277Y-17078579D02*
X15552801Y-17116674D01*
X15552801Y-17116674D02*
X15552801Y-17164293D01*
X15552801Y-17164293D02*
X15543277Y-17202389D01*
X15543277Y-17202389D02*
X15533753Y-17221436D01*
X15533753Y-17221436D02*
X15524229Y-17230960D01*
X15524229Y-17230960D02*
X15505182Y-17240484D01*
X15505182Y-17240484D02*
X15486134Y-17240484D01*
X15486134Y-17240484D02*
X15467086Y-17230960D01*
X15467086Y-17230960D02*
X15457563Y-17221436D01*
X15457563Y-17221436D02*
X15448039Y-17202389D01*
X15448039Y-17202389D02*
X15438515Y-17164293D01*
X15438515Y-17164293D02*
X15438515Y-17116674D01*
X15438515Y-17116674D02*
X15448039Y-17078579D01*
X15448039Y-17078579D02*
X15457563Y-17059531D01*
X15457563Y-17059531D02*
X15467086Y-17050008D01*
X15467086Y-17050008D02*
X15486134Y-17040484D01*
X15638515Y-17221436D02*
X15648039Y-17230960D01*
X15648039Y-17230960D02*
X15638515Y-17240484D01*
X15638515Y-17240484D02*
X15628991Y-17230960D01*
X15628991Y-17230960D02*
X15638515Y-17221436D01*
X15638515Y-17221436D02*
X15638515Y-17240484D01*
X15771848Y-17040484D02*
X15790896Y-17040484D01*
X15790896Y-17040484D02*
X15809944Y-17050008D01*
X15809944Y-17050008D02*
X15819467Y-17059531D01*
X15819467Y-17059531D02*
X15828991Y-17078579D01*
X15828991Y-17078579D02*
X15838515Y-17116674D01*
X15838515Y-17116674D02*
X15838515Y-17164293D01*
X15838515Y-17164293D02*
X15828991Y-17202389D01*
X15828991Y-17202389D02*
X15819467Y-17221436D01*
X15819467Y-17221436D02*
X15809944Y-17230960D01*
X15809944Y-17230960D02*
X15790896Y-17240484D01*
X15790896Y-17240484D02*
X15771848Y-17240484D01*
X15771848Y-17240484D02*
X15752801Y-17230960D01*
X15752801Y-17230960D02*
X15743277Y-17221436D01*
X15743277Y-17221436D02*
X15733753Y-17202389D01*
X15733753Y-17202389D02*
X15724229Y-17164293D01*
X15724229Y-17164293D02*
X15724229Y-17116674D01*
X15724229Y-17116674D02*
X15733753Y-17078579D01*
X15733753Y-17078579D02*
X15743277Y-17059531D01*
X15743277Y-17059531D02*
X15752801Y-17050008D01*
X15752801Y-17050008D02*
X15771848Y-17040484D01*
X15933753Y-17240484D02*
X15971848Y-17240484D01*
X15971848Y-17240484D02*
X15990896Y-17230960D01*
X15990896Y-17230960D02*
X16000420Y-17221436D01*
X16000420Y-17221436D02*
X16019467Y-17192865D01*
X16019467Y-17192865D02*
X16028991Y-17154770D01*
X16028991Y-17154770D02*
X16028991Y-17078579D01*
X16028991Y-17078579D02*
X16019467Y-17059531D01*
X16019467Y-17059531D02*
X16009944Y-17050008D01*
X16009944Y-17050008D02*
X15990896Y-17040484D01*
X15990896Y-17040484D02*
X15952801Y-17040484D01*
X15952801Y-17040484D02*
X15933753Y-17050008D01*
X15933753Y-17050008D02*
X15924229Y-17059531D01*
X15924229Y-17059531D02*
X15914706Y-17078579D01*
X15914706Y-17078579D02*
X15914706Y-17126198D01*
X15914706Y-17126198D02*
X15924229Y-17145246D01*
X15924229Y-17145246D02*
X15933753Y-17154770D01*
X15933753Y-17154770D02*
X15952801Y-17164293D01*
X15952801Y-17164293D02*
X15990896Y-17164293D01*
X15990896Y-17164293D02*
X16009944Y-17154770D01*
X16009944Y-17154770D02*
X16019467Y-17145246D01*
X16019467Y-17145246D02*
X16028991Y-17126198D01*
X16143277Y-17126198D02*
X16124229Y-17116674D01*
X16124229Y-17116674D02*
X16114706Y-17107150D01*
X16114706Y-17107150D02*
X16105182Y-17088103D01*
X16105182Y-17088103D02*
X16105182Y-17078579D01*
X16105182Y-17078579D02*
X16114706Y-17059531D01*
X16114706Y-17059531D02*
X16124229Y-17050008D01*
X16124229Y-17050008D02*
X16143277Y-17040484D01*
X16143277Y-17040484D02*
X16181372Y-17040484D01*
X16181372Y-17040484D02*
X16200420Y-17050008D01*
X16200420Y-17050008D02*
X16209944Y-17059531D01*
X16209944Y-17059531D02*
X16219467Y-17078579D01*
X16219467Y-17078579D02*
X16219467Y-17088103D01*
X16219467Y-17088103D02*
X16209944Y-17107150D01*
X16209944Y-17107150D02*
X16200420Y-17116674D01*
X16200420Y-17116674D02*
X16181372Y-17126198D01*
X16181372Y-17126198D02*
X16143277Y-17126198D01*
X16143277Y-17126198D02*
X16124229Y-17135722D01*
X16124229Y-17135722D02*
X16114706Y-17145246D01*
X16114706Y-17145246D02*
X16105182Y-17164293D01*
X16105182Y-17164293D02*
X16105182Y-17202389D01*
X16105182Y-17202389D02*
X16114706Y-17221436D01*
X16114706Y-17221436D02*
X16124229Y-17230960D01*
X16124229Y-17230960D02*
X16143277Y-17240484D01*
X16143277Y-17240484D02*
X16181372Y-17240484D01*
X16181372Y-17240484D02*
X16200420Y-17230960D01*
X16200420Y-17230960D02*
X16209944Y-17221436D01*
X16209944Y-17221436D02*
X16219467Y-17202389D01*
X16219467Y-17202389D02*
X16219467Y-17164293D01*
X16219467Y-17164293D02*
X16209944Y-17145246D01*
X16209944Y-17145246D02*
X16200420Y-17135722D01*
X16200420Y-17135722D02*
X16181372Y-17126198D01*
X16390896Y-17107150D02*
X16390896Y-17240484D01*
X16343277Y-17030960D02*
X16295658Y-17173817D01*
X16295658Y-17173817D02*
X16419467Y-17173817D01*
X16486134Y-17040484D02*
X16486134Y-17078579D01*
X16562325Y-17040484D02*
X16562325Y-17078579D01*
X16857563Y-17316674D02*
X16848039Y-17307150D01*
X16848039Y-17307150D02*
X16828991Y-17278579D01*
X16828991Y-17278579D02*
X16819468Y-17259531D01*
X16819468Y-17259531D02*
X16809944Y-17230960D01*
X16809944Y-17230960D02*
X16800420Y-17183341D01*
X16800420Y-17183341D02*
X16800420Y-17145246D01*
X16800420Y-17145246D02*
X16809944Y-17097627D01*
X16809944Y-17097627D02*
X16819468Y-17069055D01*
X16819468Y-17069055D02*
X16828991Y-17050008D01*
X16828991Y-17050008D02*
X16848039Y-17021436D01*
X16848039Y-17021436D02*
X16857563Y-17011912D01*
X16914706Y-17040484D02*
X17038515Y-17040484D01*
X17038515Y-17040484D02*
X16971849Y-17116674D01*
X16971849Y-17116674D02*
X17000420Y-17116674D01*
X17000420Y-17116674D02*
X17019468Y-17126198D01*
X17019468Y-17126198D02*
X17028991Y-17135722D01*
X17028991Y-17135722D02*
X17038515Y-17154770D01*
X17038515Y-17154770D02*
X17038515Y-17202389D01*
X17038515Y-17202389D02*
X17028991Y-17221436D01*
X17028991Y-17221436D02*
X17019468Y-17230960D01*
X17019468Y-17230960D02*
X17000420Y-17240484D01*
X17000420Y-17240484D02*
X16943277Y-17240484D01*
X16943277Y-17240484D02*
X16924230Y-17230960D01*
X16924230Y-17230960D02*
X16914706Y-17221436D01*
X17276611Y-17240484D02*
X17276611Y-17040484D01*
X17362325Y-17240484D02*
X17362325Y-17135722D01*
X17362325Y-17135722D02*
X17352801Y-17116674D01*
X17352801Y-17116674D02*
X17333753Y-17107150D01*
X17333753Y-17107150D02*
X17305182Y-17107150D01*
X17305182Y-17107150D02*
X17286134Y-17116674D01*
X17286134Y-17116674D02*
X17276611Y-17126198D01*
X17486134Y-17240484D02*
X17467087Y-17230960D01*
X17467087Y-17230960D02*
X17457563Y-17221436D01*
X17457563Y-17221436D02*
X17448039Y-17202389D01*
X17448039Y-17202389D02*
X17448039Y-17145246D01*
X17448039Y-17145246D02*
X17457563Y-17126198D01*
X17457563Y-17126198D02*
X17467087Y-17116674D01*
X17467087Y-17116674D02*
X17486134Y-17107150D01*
X17486134Y-17107150D02*
X17514706Y-17107150D01*
X17514706Y-17107150D02*
X17533753Y-17116674D01*
X17533753Y-17116674D02*
X17543277Y-17126198D01*
X17543277Y-17126198D02*
X17552801Y-17145246D01*
X17552801Y-17145246D02*
X17552801Y-17202389D01*
X17552801Y-17202389D02*
X17543277Y-17221436D01*
X17543277Y-17221436D02*
X17533753Y-17230960D01*
X17533753Y-17230960D02*
X17514706Y-17240484D01*
X17514706Y-17240484D02*
X17486134Y-17240484D01*
X17667087Y-17240484D02*
X17648039Y-17230960D01*
X17648039Y-17230960D02*
X17638515Y-17211912D01*
X17638515Y-17211912D02*
X17638515Y-17040484D01*
X17819468Y-17230960D02*
X17800420Y-17240484D01*
X17800420Y-17240484D02*
X17762325Y-17240484D01*
X17762325Y-17240484D02*
X17743277Y-17230960D01*
X17743277Y-17230960D02*
X17733753Y-17211912D01*
X17733753Y-17211912D02*
X17733753Y-17135722D01*
X17733753Y-17135722D02*
X17743277Y-17116674D01*
X17743277Y-17116674D02*
X17762325Y-17107150D01*
X17762325Y-17107150D02*
X17800420Y-17107150D01*
X17800420Y-17107150D02*
X17819468Y-17116674D01*
X17819468Y-17116674D02*
X17828992Y-17135722D01*
X17828992Y-17135722D02*
X17828992Y-17154770D01*
X17828992Y-17154770D02*
X17733753Y-17173817D01*
X17905182Y-17230960D02*
X17924230Y-17240484D01*
X17924230Y-17240484D02*
X17962325Y-17240484D01*
X17962325Y-17240484D02*
X17981373Y-17230960D01*
X17981373Y-17230960D02*
X17990896Y-17211912D01*
X17990896Y-17211912D02*
X17990896Y-17202389D01*
X17990896Y-17202389D02*
X17981373Y-17183341D01*
X17981373Y-17183341D02*
X17962325Y-17173817D01*
X17962325Y-17173817D02*
X17933753Y-17173817D01*
X17933753Y-17173817D02*
X17914706Y-17164293D01*
X17914706Y-17164293D02*
X17905182Y-17145246D01*
X17905182Y-17145246D02*
X17905182Y-17135722D01*
X17905182Y-17135722D02*
X17914706Y-17116674D01*
X17914706Y-17116674D02*
X17933753Y-17107150D01*
X17933753Y-17107150D02*
X17962325Y-17107150D01*
X17962325Y-17107150D02*
X17981373Y-17116674D01*
X18057563Y-17316674D02*
X18067087Y-17307150D01*
X18067087Y-17307150D02*
X18086134Y-17278579D01*
X18086134Y-17278579D02*
X18095658Y-17259531D01*
X18095658Y-17259531D02*
X18105182Y-17230960D01*
X18105182Y-17230960D02*
X18114706Y-17183341D01*
X18114706Y-17183341D02*
X18114706Y-17145246D01*
X18114706Y-17145246D02*
X18105182Y-17097627D01*
X18105182Y-17097627D02*
X18095658Y-17069055D01*
X18095658Y-17069055D02*
X18086134Y-17050008D01*
X18086134Y-17050008D02*
X18067087Y-17021436D01*
X18067087Y-17021436D02*
X18057563Y-17011912D01*
X13182500Y-17369000D02*
X13182500Y-17569000D01*
X13082500Y-17469000D02*
X13282500Y-17469000D01*
X13282500Y-17469000D02*
G75*
G03*
X13082500Y-17469000I-100000J0D01*
G01*
X13082500Y-17469000D02*
G75*
G03*
X13282500Y-17469000I100000J0D01*
G01*
X13524229Y-17360484D02*
X13648039Y-17360484D01*
X13648039Y-17360484D02*
X13581372Y-17436674D01*
X13581372Y-17436674D02*
X13609943Y-17436674D01*
X13609943Y-17436674D02*
X13628991Y-17446198D01*
X13628991Y-17446198D02*
X13638515Y-17455722D01*
X13638515Y-17455722D02*
X13648039Y-17474770D01*
X13648039Y-17474770D02*
X13648039Y-17522389D01*
X13648039Y-17522389D02*
X13638515Y-17541436D01*
X13638515Y-17541436D02*
X13628991Y-17550960D01*
X13628991Y-17550960D02*
X13609943Y-17560484D01*
X13609943Y-17560484D02*
X13552801Y-17560484D01*
X13552801Y-17560484D02*
X13533753Y-17550960D01*
X13533753Y-17550960D02*
X13524229Y-17541436D01*
X13733753Y-17541436D02*
X13743277Y-17550960D01*
X13743277Y-17550960D02*
X13733753Y-17560484D01*
X13733753Y-17560484D02*
X13724229Y-17550960D01*
X13724229Y-17550960D02*
X13733753Y-17541436D01*
X13733753Y-17541436D02*
X13733753Y-17560484D01*
X13819467Y-17379531D02*
X13828991Y-17370008D01*
X13828991Y-17370008D02*
X13848039Y-17360484D01*
X13848039Y-17360484D02*
X13895658Y-17360484D01*
X13895658Y-17360484D02*
X13914705Y-17370008D01*
X13914705Y-17370008D02*
X13924229Y-17379531D01*
X13924229Y-17379531D02*
X13933753Y-17398579D01*
X13933753Y-17398579D02*
X13933753Y-17417627D01*
X13933753Y-17417627D02*
X13924229Y-17446198D01*
X13924229Y-17446198D02*
X13809943Y-17560484D01*
X13809943Y-17560484D02*
X13933753Y-17560484D01*
X14057562Y-17360484D02*
X14076610Y-17360484D01*
X14076610Y-17360484D02*
X14095658Y-17370008D01*
X14095658Y-17370008D02*
X14105182Y-17379531D01*
X14105182Y-17379531D02*
X14114705Y-17398579D01*
X14114705Y-17398579D02*
X14124229Y-17436674D01*
X14124229Y-17436674D02*
X14124229Y-17484293D01*
X14124229Y-17484293D02*
X14114705Y-17522389D01*
X14114705Y-17522389D02*
X14105182Y-17541436D01*
X14105182Y-17541436D02*
X14095658Y-17550960D01*
X14095658Y-17550960D02*
X14076610Y-17560484D01*
X14076610Y-17560484D02*
X14057562Y-17560484D01*
X14057562Y-17560484D02*
X14038515Y-17550960D01*
X14038515Y-17550960D02*
X14028991Y-17541436D01*
X14028991Y-17541436D02*
X14019467Y-17522389D01*
X14019467Y-17522389D02*
X14009943Y-17484293D01*
X14009943Y-17484293D02*
X14009943Y-17436674D01*
X14009943Y-17436674D02*
X14019467Y-17398579D01*
X14019467Y-17398579D02*
X14028991Y-17379531D01*
X14028991Y-17379531D02*
X14038515Y-17370008D01*
X14038515Y-17370008D02*
X14057562Y-17360484D01*
X14248039Y-17360484D02*
X14267086Y-17360484D01*
X14267086Y-17360484D02*
X14286134Y-17370008D01*
X14286134Y-17370008D02*
X14295658Y-17379531D01*
X14295658Y-17379531D02*
X14305182Y-17398579D01*
X14305182Y-17398579D02*
X14314705Y-17436674D01*
X14314705Y-17436674D02*
X14314705Y-17484293D01*
X14314705Y-17484293D02*
X14305182Y-17522389D01*
X14305182Y-17522389D02*
X14295658Y-17541436D01*
X14295658Y-17541436D02*
X14286134Y-17550960D01*
X14286134Y-17550960D02*
X14267086Y-17560484D01*
X14267086Y-17560484D02*
X14248039Y-17560484D01*
X14248039Y-17560484D02*
X14228991Y-17550960D01*
X14228991Y-17550960D02*
X14219467Y-17541436D01*
X14219467Y-17541436D02*
X14209943Y-17522389D01*
X14209943Y-17522389D02*
X14200420Y-17484293D01*
X14200420Y-17484293D02*
X14200420Y-17436674D01*
X14200420Y-17436674D02*
X14209943Y-17398579D01*
X14209943Y-17398579D02*
X14219467Y-17379531D01*
X14219467Y-17379531D02*
X14228991Y-17370008D01*
X14228991Y-17370008D02*
X14248039Y-17360484D01*
X14400420Y-17560484D02*
X14400420Y-17427150D01*
X14400420Y-17446198D02*
X14409943Y-17436674D01*
X14409943Y-17436674D02*
X14428991Y-17427150D01*
X14428991Y-17427150D02*
X14457563Y-17427150D01*
X14457563Y-17427150D02*
X14476610Y-17436674D01*
X14476610Y-17436674D02*
X14486134Y-17455722D01*
X14486134Y-17455722D02*
X14486134Y-17560484D01*
X14486134Y-17455722D02*
X14495658Y-17436674D01*
X14495658Y-17436674D02*
X14514705Y-17427150D01*
X14514705Y-17427150D02*
X14543277Y-17427150D01*
X14543277Y-17427150D02*
X14562324Y-17436674D01*
X14562324Y-17436674D02*
X14571848Y-17455722D01*
X14571848Y-17455722D02*
X14571848Y-17560484D01*
X14667086Y-17560484D02*
X14667086Y-17427150D01*
X14667086Y-17446198D02*
X14676610Y-17436674D01*
X14676610Y-17436674D02*
X14695658Y-17427150D01*
X14695658Y-17427150D02*
X14724229Y-17427150D01*
X14724229Y-17427150D02*
X14743277Y-17436674D01*
X14743277Y-17436674D02*
X14752801Y-17455722D01*
X14752801Y-17455722D02*
X14752801Y-17560484D01*
X14752801Y-17455722D02*
X14762324Y-17436674D01*
X14762324Y-17436674D02*
X14781372Y-17427150D01*
X14781372Y-17427150D02*
X14809943Y-17427150D01*
X14809943Y-17427150D02*
X14828991Y-17436674D01*
X14828991Y-17436674D02*
X14838515Y-17455722D01*
X14838515Y-17455722D02*
X14838515Y-17560484D01*
X15228991Y-17350960D02*
X15057563Y-17608103D01*
X15486134Y-17360484D02*
X15505182Y-17360484D01*
X15505182Y-17360484D02*
X15524229Y-17370008D01*
X15524229Y-17370008D02*
X15533753Y-17379531D01*
X15533753Y-17379531D02*
X15543277Y-17398579D01*
X15543277Y-17398579D02*
X15552801Y-17436674D01*
X15552801Y-17436674D02*
X15552801Y-17484293D01*
X15552801Y-17484293D02*
X15543277Y-17522389D01*
X15543277Y-17522389D02*
X15533753Y-17541436D01*
X15533753Y-17541436D02*
X15524229Y-17550960D01*
X15524229Y-17550960D02*
X15505182Y-17560484D01*
X15505182Y-17560484D02*
X15486134Y-17560484D01*
X15486134Y-17560484D02*
X15467086Y-17550960D01*
X15467086Y-17550960D02*
X15457563Y-17541436D01*
X15457563Y-17541436D02*
X15448039Y-17522389D01*
X15448039Y-17522389D02*
X15438515Y-17484293D01*
X15438515Y-17484293D02*
X15438515Y-17436674D01*
X15438515Y-17436674D02*
X15448039Y-17398579D01*
X15448039Y-17398579D02*
X15457563Y-17379531D01*
X15457563Y-17379531D02*
X15467086Y-17370008D01*
X15467086Y-17370008D02*
X15486134Y-17360484D01*
X15638515Y-17541436D02*
X15648039Y-17550960D01*
X15648039Y-17550960D02*
X15638515Y-17560484D01*
X15638515Y-17560484D02*
X15628991Y-17550960D01*
X15628991Y-17550960D02*
X15638515Y-17541436D01*
X15638515Y-17541436D02*
X15638515Y-17560484D01*
X15838515Y-17560484D02*
X15724229Y-17560484D01*
X15781372Y-17560484D02*
X15781372Y-17360484D01*
X15781372Y-17360484D02*
X15762325Y-17389055D01*
X15762325Y-17389055D02*
X15743277Y-17408103D01*
X15743277Y-17408103D02*
X15724229Y-17417627D01*
X15914706Y-17379531D02*
X15924229Y-17370008D01*
X15924229Y-17370008D02*
X15943277Y-17360484D01*
X15943277Y-17360484D02*
X15990896Y-17360484D01*
X15990896Y-17360484D02*
X16009944Y-17370008D01*
X16009944Y-17370008D02*
X16019467Y-17379531D01*
X16019467Y-17379531D02*
X16028991Y-17398579D01*
X16028991Y-17398579D02*
X16028991Y-17417627D01*
X16028991Y-17417627D02*
X16019467Y-17446198D01*
X16019467Y-17446198D02*
X15905182Y-17560484D01*
X15905182Y-17560484D02*
X16028991Y-17560484D01*
X16200420Y-17360484D02*
X16162325Y-17360484D01*
X16162325Y-17360484D02*
X16143277Y-17370008D01*
X16143277Y-17370008D02*
X16133753Y-17379531D01*
X16133753Y-17379531D02*
X16114706Y-17408103D01*
X16114706Y-17408103D02*
X16105182Y-17446198D01*
X16105182Y-17446198D02*
X16105182Y-17522389D01*
X16105182Y-17522389D02*
X16114706Y-17541436D01*
X16114706Y-17541436D02*
X16124229Y-17550960D01*
X16124229Y-17550960D02*
X16143277Y-17560484D01*
X16143277Y-17560484D02*
X16181372Y-17560484D01*
X16181372Y-17560484D02*
X16200420Y-17550960D01*
X16200420Y-17550960D02*
X16209944Y-17541436D01*
X16209944Y-17541436D02*
X16219467Y-17522389D01*
X16219467Y-17522389D02*
X16219467Y-17474770D01*
X16219467Y-17474770D02*
X16209944Y-17455722D01*
X16209944Y-17455722D02*
X16200420Y-17446198D01*
X16200420Y-17446198D02*
X16181372Y-17436674D01*
X16181372Y-17436674D02*
X16143277Y-17436674D01*
X16143277Y-17436674D02*
X16124229Y-17446198D01*
X16124229Y-17446198D02*
X16114706Y-17455722D01*
X16114706Y-17455722D02*
X16105182Y-17474770D01*
X16343277Y-17360484D02*
X16362325Y-17360484D01*
X16362325Y-17360484D02*
X16381372Y-17370008D01*
X16381372Y-17370008D02*
X16390896Y-17379531D01*
X16390896Y-17379531D02*
X16400420Y-17398579D01*
X16400420Y-17398579D02*
X16409944Y-17436674D01*
X16409944Y-17436674D02*
X16409944Y-17484293D01*
X16409944Y-17484293D02*
X16400420Y-17522389D01*
X16400420Y-17522389D02*
X16390896Y-17541436D01*
X16390896Y-17541436D02*
X16381372Y-17550960D01*
X16381372Y-17550960D02*
X16362325Y-17560484D01*
X16362325Y-17560484D02*
X16343277Y-17560484D01*
X16343277Y-17560484D02*
X16324229Y-17550960D01*
X16324229Y-17550960D02*
X16314706Y-17541436D01*
X16314706Y-17541436D02*
X16305182Y-17522389D01*
X16305182Y-17522389D02*
X16295658Y-17484293D01*
X16295658Y-17484293D02*
X16295658Y-17436674D01*
X16295658Y-17436674D02*
X16305182Y-17398579D01*
X16305182Y-17398579D02*
X16314706Y-17379531D01*
X16314706Y-17379531D02*
X16324229Y-17370008D01*
X16324229Y-17370008D02*
X16343277Y-17360484D01*
X16486134Y-17360484D02*
X16486134Y-17398579D01*
X16562325Y-17360484D02*
X16562325Y-17398579D01*
X16857563Y-17636674D02*
X16848039Y-17627150D01*
X16848039Y-17627150D02*
X16828991Y-17598579D01*
X16828991Y-17598579D02*
X16819468Y-17579531D01*
X16819468Y-17579531D02*
X16809944Y-17550960D01*
X16809944Y-17550960D02*
X16800420Y-17503341D01*
X16800420Y-17503341D02*
X16800420Y-17465246D01*
X16800420Y-17465246D02*
X16809944Y-17417627D01*
X16809944Y-17417627D02*
X16819468Y-17389055D01*
X16819468Y-17389055D02*
X16828991Y-17370008D01*
X16828991Y-17370008D02*
X16848039Y-17341436D01*
X16848039Y-17341436D02*
X16857563Y-17331912D01*
X17019468Y-17427150D02*
X17019468Y-17560484D01*
X16971849Y-17350960D02*
X16924230Y-17493817D01*
X16924230Y-17493817D02*
X17048039Y-17493817D01*
X17276611Y-17560484D02*
X17276611Y-17360484D01*
X17362325Y-17560484D02*
X17362325Y-17455722D01*
X17362325Y-17455722D02*
X17352801Y-17436674D01*
X17352801Y-17436674D02*
X17333753Y-17427150D01*
X17333753Y-17427150D02*
X17305182Y-17427150D01*
X17305182Y-17427150D02*
X17286134Y-17436674D01*
X17286134Y-17436674D02*
X17276611Y-17446198D01*
X17486134Y-17560484D02*
X17467087Y-17550960D01*
X17467087Y-17550960D02*
X17457563Y-17541436D01*
X17457563Y-17541436D02*
X17448039Y-17522389D01*
X17448039Y-17522389D02*
X17448039Y-17465246D01*
X17448039Y-17465246D02*
X17457563Y-17446198D01*
X17457563Y-17446198D02*
X17467087Y-17436674D01*
X17467087Y-17436674D02*
X17486134Y-17427150D01*
X17486134Y-17427150D02*
X17514706Y-17427150D01*
X17514706Y-17427150D02*
X17533753Y-17436674D01*
X17533753Y-17436674D02*
X17543277Y-17446198D01*
X17543277Y-17446198D02*
X17552801Y-17465246D01*
X17552801Y-17465246D02*
X17552801Y-17522389D01*
X17552801Y-17522389D02*
X17543277Y-17541436D01*
X17543277Y-17541436D02*
X17533753Y-17550960D01*
X17533753Y-17550960D02*
X17514706Y-17560484D01*
X17514706Y-17560484D02*
X17486134Y-17560484D01*
X17667087Y-17560484D02*
X17648039Y-17550960D01*
X17648039Y-17550960D02*
X17638515Y-17531912D01*
X17638515Y-17531912D02*
X17638515Y-17360484D01*
X17819468Y-17550960D02*
X17800420Y-17560484D01*
X17800420Y-17560484D02*
X17762325Y-17560484D01*
X17762325Y-17560484D02*
X17743277Y-17550960D01*
X17743277Y-17550960D02*
X17733753Y-17531912D01*
X17733753Y-17531912D02*
X17733753Y-17455722D01*
X17733753Y-17455722D02*
X17743277Y-17436674D01*
X17743277Y-17436674D02*
X17762325Y-17427150D01*
X17762325Y-17427150D02*
X17800420Y-17427150D01*
X17800420Y-17427150D02*
X17819468Y-17436674D01*
X17819468Y-17436674D02*
X17828992Y-17455722D01*
X17828992Y-17455722D02*
X17828992Y-17474770D01*
X17828992Y-17474770D02*
X17733753Y-17493817D01*
X17905182Y-17550960D02*
X17924230Y-17560484D01*
X17924230Y-17560484D02*
X17962325Y-17560484D01*
X17962325Y-17560484D02*
X17981373Y-17550960D01*
X17981373Y-17550960D02*
X17990896Y-17531912D01*
X17990896Y-17531912D02*
X17990896Y-17522389D01*
X17990896Y-17522389D02*
X17981373Y-17503341D01*
X17981373Y-17503341D02*
X17962325Y-17493817D01*
X17962325Y-17493817D02*
X17933753Y-17493817D01*
X17933753Y-17493817D02*
X17914706Y-17484293D01*
X17914706Y-17484293D02*
X17905182Y-17465246D01*
X17905182Y-17465246D02*
X17905182Y-17455722D01*
X17905182Y-17455722D02*
X17914706Y-17436674D01*
X17914706Y-17436674D02*
X17933753Y-17427150D01*
X17933753Y-17427150D02*
X17962325Y-17427150D01*
X17962325Y-17427150D02*
X17981373Y-17436674D01*
X18057563Y-17636674D02*
X18067087Y-17627150D01*
X18067087Y-17627150D02*
X18086134Y-17598579D01*
X18086134Y-17598579D02*
X18095658Y-17579531D01*
X18095658Y-17579531D02*
X18105182Y-17550960D01*
X18105182Y-17550960D02*
X18114706Y-17503341D01*
X18114706Y-17503341D02*
X18114706Y-17465246D01*
X18114706Y-17465246D02*
X18105182Y-17417627D01*
X18105182Y-17417627D02*
X18095658Y-17389055D01*
X18095658Y-17389055D02*
X18086134Y-17370008D01*
X18086134Y-17370008D02*
X18067087Y-17341436D01*
X18067087Y-17341436D02*
X18057563Y-17331912D01*
M02*
