%TF.GenerationSoftware,KiCad,Pcbnew,7.0.10*%
%TF.CreationDate,2024-01-24T13:37:03-05:00*%
%TF.ProjectId,MiniBLDC,4d696e69-424c-4444-932e-6b696361645f,rev?*%
%TF.SameCoordinates,Original*%
%TF.FileFunction,Legend,Bot*%
%TF.FilePolarity,Positive*%
%FSLAX46Y46*%
G04 Gerber Fmt 4.6, Leading zero omitted, Abs format (unit mm)*
G04 Created by KiCad (PCBNEW 7.0.10) date 2024-01-24 13:37:03*
%MOMM*%
%LPD*%
G01*
G04 APERTURE LIST*
G04 Aperture macros list*
%AMRoundRect*
0 Rectangle with rounded corners*
0 $1 Rounding radius*
0 $2 $3 $4 $5 $6 $7 $8 $9 X,Y pos of 4 corners*
0 Add a 4 corners polygon primitive as box body*
4,1,4,$2,$3,$4,$5,$6,$7,$8,$9,$2,$3,0*
0 Add four circle primitives for the rounded corners*
1,1,$1+$1,$2,$3*
1,1,$1+$1,$4,$5*
1,1,$1+$1,$6,$7*
1,1,$1+$1,$8,$9*
0 Add four rect primitives between the rounded corners*
20,1,$1+$1,$2,$3,$4,$5,0*
20,1,$1+$1,$4,$5,$6,$7,0*
20,1,$1+$1,$6,$7,$8,$9,0*
20,1,$1+$1,$8,$9,$2,$3,0*%
%AMRotRect*
0 Rectangle, with rotation*
0 The origin of the aperture is its center*
0 $1 length*
0 $2 width*
0 $3 Rotation angle, in degrees counterclockwise*
0 Add horizontal line*
21,1,$1,$2,0,0,$3*%
G04 Aperture macros list end*
%ADD10C,0.180000*%
%ADD11C,0.200000*%
%ADD12C,0.120000*%
%ADD13C,0.100000*%
%ADD14C,1.400000*%
%ADD15R,3.500000X3.500000*%
%ADD16C,3.500000*%
%ADD17RoundRect,0.250000X-0.512652X-0.159099X-0.159099X-0.512652X0.512652X0.159099X0.159099X0.512652X0*%
%ADD18RoundRect,0.250000X0.512652X0.159099X0.159099X0.512652X-0.512652X-0.159099X-0.159099X-0.512652X0*%
%ADD19RotRect,1.000000X1.500000X135.000000*%
%ADD20R,1.500000X1.000000*%
%ADD21RoundRect,0.250000X0.650000X-0.325000X0.650000X0.325000X-0.650000X0.325000X-0.650000X-0.325000X0*%
%ADD22RoundRect,0.250000X0.325000X0.650000X-0.325000X0.650000X-0.325000X-0.650000X0.325000X-0.650000X0*%
%ADD23C,0.800000*%
%ADD24C,5.000000*%
%ADD25C,5.600000*%
%ADD26C,3.600000*%
%ADD27RoundRect,0.250000X1.425000X-0.362500X1.425000X0.362500X-1.425000X0.362500X-1.425000X-0.362500X0*%
%ADD28RoundRect,0.200000X-0.200000X-0.275000X0.200000X-0.275000X0.200000X0.275000X-0.200000X0.275000X0*%
%ADD29RoundRect,0.200000X0.200000X0.275000X-0.200000X0.275000X-0.200000X-0.275000X0.200000X-0.275000X0*%
%ADD30RoundRect,0.200000X0.053033X-0.335876X0.335876X-0.053033X-0.053033X0.335876X-0.335876X0.053033X0*%
%ADD31RoundRect,0.200000X-0.053033X0.335876X-0.335876X0.053033X0.053033X-0.335876X0.335876X-0.053033X0*%
%ADD32RoundRect,0.225000X-0.225000X-0.250000X0.225000X-0.250000X0.225000X0.250000X-0.225000X0.250000X0*%
%ADD33RoundRect,0.225000X0.017678X-0.335876X0.335876X-0.017678X-0.017678X0.335876X-0.335876X0.017678X0*%
%ADD34RoundRect,0.225000X-0.017678X0.335876X-0.335876X0.017678X0.017678X-0.335876X0.335876X-0.017678X0*%
%ADD35RoundRect,0.225000X-0.335876X-0.017678X-0.017678X-0.335876X0.335876X0.017678X0.017678X0.335876X0*%
%ADD36RoundRect,0.200000X0.275000X-0.200000X0.275000X0.200000X-0.275000X0.200000X-0.275000X-0.200000X0*%
%ADD37RoundRect,0.250000X0.159099X-0.512652X0.512652X-0.159099X-0.159099X0.512652X-0.512652X0.159099X0*%
%ADD38RoundRect,0.250000X1.100000X-0.325000X1.100000X0.325000X-1.100000X0.325000X-1.100000X-0.325000X0*%
%ADD39RoundRect,0.225000X0.250000X-0.225000X0.250000X0.225000X-0.250000X0.225000X-0.250000X-0.225000X0*%
%ADD40RoundRect,0.135000X0.035355X-0.226274X0.226274X-0.035355X-0.035355X0.226274X-0.226274X0.035355X0*%
%ADD41RoundRect,0.150000X-0.825000X-0.150000X0.825000X-0.150000X0.825000X0.150000X-0.825000X0.150000X0*%
%ADD42RotRect,5.003800X5.003800X315.000000*%
%ADD43RotRect,0.279400X1.340599X315.000000*%
%ADD44RotRect,0.279400X1.340599X225.000000*%
%ADD45RoundRect,0.135000X0.226274X0.035355X0.035355X0.226274X-0.226274X-0.035355X-0.035355X-0.226274X0*%
%ADD46RoundRect,0.250000X-0.650000X0.325000X-0.650000X-0.325000X0.650000X-0.325000X0.650000X0.325000X0*%
%ADD47RoundRect,0.250000X0.475000X-0.250000X0.475000X0.250000X-0.475000X0.250000X-0.475000X-0.250000X0*%
%ADD48R,0.340000X0.700000*%
%ADD49RoundRect,0.218750X-0.218750X-0.381250X0.218750X-0.381250X0.218750X0.381250X-0.218750X0.381250X0*%
%ADD50RoundRect,0.135000X0.135000X0.185000X-0.135000X0.185000X-0.135000X-0.185000X0.135000X-0.185000X0*%
%ADD51RoundRect,0.135000X0.185000X-0.135000X0.185000X0.135000X-0.185000X0.135000X-0.185000X-0.135000X0*%
%ADD52RoundRect,0.135000X-0.226274X-0.035355X-0.035355X-0.226274X0.226274X0.035355X0.035355X0.226274X0*%
%ADD53O,1.000000X1.800000*%
%ADD54O,1.000000X2.100000*%
%ADD55C,0.650000*%
%ADD56R,2.000000X0.900000*%
%ADD57RoundRect,0.062500X0.062500X-0.300000X0.062500X0.300000X-0.062500X0.300000X-0.062500X-0.300000X0*%
%ADD58RoundRect,0.140000X0.170000X-0.140000X0.170000X0.140000X-0.170000X0.140000X-0.170000X-0.140000X0*%
%ADD59RoundRect,0.135000X-0.135000X-0.185000X0.135000X-0.185000X0.135000X0.185000X-0.135000X0.185000X0*%
%ADD60RoundRect,0.250000X-0.689429X-0.229810X-0.229810X-0.689429X0.689429X0.229810X0.229810X0.689429X0*%
%ADD61R,2.400000X1.500000*%
%ADD62RoundRect,0.112500X-0.187500X-0.112500X0.187500X-0.112500X0.187500X0.112500X-0.187500X0.112500X0*%
%ADD63RoundRect,0.150000X0.825000X0.150000X-0.825000X0.150000X-0.825000X-0.150000X0.825000X-0.150000X0*%
G04 APERTURE END LIST*
D10*
G36*
X155568278Y-113771783D02*
G01*
X155441822Y-113898239D01*
X155315367Y-113645327D01*
X155568278Y-113771783D01*
G37*
G36*
X156744507Y-112353118D02*
G01*
X156580733Y-112516891D01*
X156523833Y-112535859D01*
X156492432Y-112535859D01*
X156435530Y-112516891D01*
X156374663Y-112456025D01*
X156355696Y-112399121D01*
X156355696Y-112367723D01*
X156374663Y-112310819D01*
X156538436Y-112147047D01*
X156744507Y-112353118D01*
G37*
G36*
X159514346Y-110625757D02*
G01*
X155024175Y-115115928D01*
X154078672Y-114170426D01*
X154404045Y-113845053D01*
X154602924Y-113845053D01*
X154608289Y-113906382D01*
X154626217Y-113931987D01*
X155198973Y-114504743D01*
X154959568Y-114744149D01*
X154933550Y-114799945D01*
X154949484Y-114859411D01*
X154999915Y-114894722D01*
X155061243Y-114889357D01*
X155086848Y-114871429D01*
X155389893Y-114568383D01*
X155399776Y-114547188D01*
X155413186Y-114528037D01*
X155412478Y-114519948D01*
X155415911Y-114512587D01*
X155409858Y-114489998D01*
X155407821Y-114466708D01*
X155401011Y-114456983D01*
X155399977Y-114453121D01*
X155396702Y-114450828D01*
X155389893Y-114441103D01*
X154753497Y-113804707D01*
X154697701Y-113778689D01*
X154638235Y-113794623D01*
X154602924Y-113845053D01*
X154404045Y-113845053D01*
X154799624Y-113449474D01*
X155024284Y-113449474D01*
X155025314Y-113451850D01*
X155024712Y-113454371D01*
X155033624Y-113484331D01*
X155457888Y-114332860D01*
X155502592Y-114375187D01*
X155564046Y-114378876D01*
X155613492Y-114342200D01*
X155627796Y-114282322D01*
X155618884Y-114252362D01*
X155526676Y-114067945D01*
X155737984Y-113856637D01*
X155922401Y-113948846D01*
X155983561Y-113955884D01*
X156034937Y-113921963D01*
X156052488Y-113862955D01*
X156028004Y-113806470D01*
X156002900Y-113787849D01*
X155154371Y-113363584D01*
X155151797Y-113363287D01*
X155149916Y-113361506D01*
X155121489Y-113359799D01*
X155093211Y-113356545D01*
X155091049Y-113357972D01*
X155088462Y-113357817D01*
X155065593Y-113374779D01*
X155041835Y-113390466D01*
X155041096Y-113392950D01*
X155039016Y-113394493D01*
X155032401Y-113422183D01*
X155024284Y-113449474D01*
X154799624Y-113449474D01*
X155252573Y-112996525D01*
X155451453Y-112996525D01*
X155456818Y-113057854D01*
X155474746Y-113083459D01*
X156111142Y-113719855D01*
X156118685Y-113723372D01*
X156123489Y-113730168D01*
X156145916Y-113736070D01*
X156166938Y-113745873D01*
X156174977Y-113743718D01*
X156183026Y-113745837D01*
X156203999Y-113735942D01*
X156226404Y-113729939D01*
X156231178Y-113723120D01*
X156238704Y-113719570D01*
X156248410Y-113698509D01*
X156261715Y-113679509D01*
X156260989Y-113671217D01*
X156264473Y-113663660D01*
X156261611Y-113632535D01*
X156078041Y-112959444D01*
X156474797Y-113356200D01*
X156530593Y-113382218D01*
X156590059Y-113366284D01*
X156625370Y-113315854D01*
X156620005Y-113254525D01*
X156602077Y-113228920D01*
X155965681Y-112592524D01*
X155958137Y-112589006D01*
X155953334Y-112582211D01*
X155930906Y-112576308D01*
X155909885Y-112566506D01*
X155901845Y-112568660D01*
X155893797Y-112566542D01*
X155872823Y-112576436D01*
X155850419Y-112582440D01*
X155845644Y-112589258D01*
X155838119Y-112592809D01*
X155828412Y-112613869D01*
X155815108Y-112632870D01*
X155815833Y-112641161D01*
X155812350Y-112648719D01*
X155815212Y-112679845D01*
X155998781Y-113352934D01*
X155602026Y-112956179D01*
X155546230Y-112930161D01*
X155486764Y-112946095D01*
X155451453Y-112996525D01*
X155252573Y-112996525D01*
X155835371Y-112413727D01*
X156175696Y-112413727D01*
X156176368Y-112415574D01*
X156180314Y-112442187D01*
X156210618Y-112533101D01*
X156213964Y-112537317D01*
X156214433Y-112542677D01*
X156232361Y-112568281D01*
X156323275Y-112659194D01*
X156328150Y-112661467D01*
X156330967Y-112666052D01*
X156358453Y-112680935D01*
X156449367Y-112711240D01*
X156451329Y-112711186D01*
X156477828Y-112715859D01*
X156538437Y-112715859D01*
X156540284Y-112715186D01*
X156566898Y-112711240D01*
X156657811Y-112680935D01*
X156659716Y-112679422D01*
X156722547Y-113035459D01*
X156753337Y-113088771D01*
X156811191Y-113109819D01*
X156869038Y-113088754D01*
X156899813Y-113035435D01*
X156899808Y-113004178D01*
X156817038Y-112535145D01*
X156871786Y-112480397D01*
X157111193Y-112719804D01*
X157166989Y-112745822D01*
X157226455Y-112729888D01*
X157261766Y-112679458D01*
X157256401Y-112618129D01*
X157238473Y-112592524D01*
X156602077Y-111956128D01*
X156580882Y-111946244D01*
X156561731Y-111932835D01*
X156553642Y-111933542D01*
X156546281Y-111930110D01*
X156523692Y-111936162D01*
X156500402Y-111938200D01*
X156490677Y-111945008D01*
X156486815Y-111946044D01*
X156484521Y-111949319D01*
X156474798Y-111956128D01*
X156232361Y-112198564D01*
X156230086Y-112203441D01*
X156225502Y-112206258D01*
X156210618Y-112233744D01*
X156180314Y-112324658D01*
X156180367Y-112326624D01*
X156175696Y-112353118D01*
X156175696Y-112413727D01*
X155835371Y-112413727D01*
X156509916Y-111739182D01*
X156721520Y-111739182D01*
X156737454Y-111798648D01*
X156787884Y-111833959D01*
X156849213Y-111828594D01*
X156874818Y-111810666D01*
X157114223Y-111571259D01*
X157289990Y-111747026D01*
X157141498Y-111895518D01*
X157115480Y-111951314D01*
X157131414Y-112010780D01*
X157181844Y-112046091D01*
X157243173Y-112040726D01*
X157268778Y-112022798D01*
X157417270Y-111874306D01*
X157623340Y-112080376D01*
X157383934Y-112319782D01*
X157357916Y-112375578D01*
X157373850Y-112435044D01*
X157424280Y-112470355D01*
X157485609Y-112464990D01*
X157511214Y-112447062D01*
X157814260Y-112144015D01*
X157824142Y-112122822D01*
X157837553Y-112103670D01*
X157836845Y-112095581D01*
X157840278Y-112088220D01*
X157834225Y-112065631D01*
X157832188Y-112042341D01*
X157825378Y-112032616D01*
X157824344Y-112028754D01*
X157821069Y-112026460D01*
X157814260Y-112016736D01*
X157177864Y-111380340D01*
X157156669Y-111370456D01*
X157137518Y-111357047D01*
X157129429Y-111357754D01*
X157122068Y-111354322D01*
X157099479Y-111360374D01*
X157076189Y-111362412D01*
X157066464Y-111369220D01*
X157062602Y-111370256D01*
X157060308Y-111373531D01*
X157050585Y-111380340D01*
X156747538Y-111683386D01*
X156721520Y-111739182D01*
X156509916Y-111739182D01*
X157025093Y-111224005D01*
X157236698Y-111224005D01*
X157252632Y-111283471D01*
X157303062Y-111318782D01*
X157364391Y-111313417D01*
X157389996Y-111295489D01*
X157508183Y-111177301D01*
X158080939Y-111750057D01*
X158136735Y-111776075D01*
X158196201Y-111760141D01*
X158231512Y-111709711D01*
X158226147Y-111648382D01*
X158208219Y-111622777D01*
X157635463Y-111050021D01*
X157753651Y-110931833D01*
X157779669Y-110876038D01*
X157763735Y-110816572D01*
X157713305Y-110781261D01*
X157651976Y-110786626D01*
X157626372Y-110804554D01*
X157262716Y-111168209D01*
X157236698Y-111224005D01*
X157025093Y-111224005D01*
X157616330Y-110632768D01*
X157815210Y-110632768D01*
X157820575Y-110694097D01*
X157838503Y-110719702D01*
X158474899Y-111356098D01*
X158482442Y-111359615D01*
X158487246Y-111366411D01*
X158509673Y-111372313D01*
X158530695Y-111382116D01*
X158538734Y-111379961D01*
X158546783Y-111382080D01*
X158567756Y-111372185D01*
X158590161Y-111366182D01*
X158594935Y-111359363D01*
X158602461Y-111355813D01*
X158612167Y-111334752D01*
X158625472Y-111315752D01*
X158624746Y-111307460D01*
X158628230Y-111299903D01*
X158625368Y-111268777D01*
X158441797Y-110595686D01*
X158838555Y-110992443D01*
X158894350Y-111018461D01*
X158953817Y-111002527D01*
X158989127Y-110952097D01*
X158983762Y-110890768D01*
X158965834Y-110865164D01*
X158329437Y-110228767D01*
X158321893Y-110225249D01*
X158317090Y-110218454D01*
X158294662Y-110212551D01*
X158273641Y-110202749D01*
X158265601Y-110204903D01*
X158257553Y-110202785D01*
X158236579Y-110212679D01*
X158214175Y-110218683D01*
X158209400Y-110225501D01*
X158201875Y-110229052D01*
X158192167Y-110250114D01*
X158178864Y-110269114D01*
X158179589Y-110277404D01*
X158176106Y-110284962D01*
X158178968Y-110316088D01*
X158362538Y-110989177D01*
X157965783Y-110592422D01*
X157909987Y-110566404D01*
X157850521Y-110582338D01*
X157815210Y-110632768D01*
X157616330Y-110632768D01*
X158283030Y-109966067D01*
X158481910Y-109966067D01*
X158487275Y-110027396D01*
X158505203Y-110053001D01*
X159141599Y-110689397D01*
X159197395Y-110715415D01*
X159256861Y-110699481D01*
X159292172Y-110649051D01*
X159286807Y-110587722D01*
X159268879Y-110562117D01*
X158632483Y-109925721D01*
X158576687Y-109899703D01*
X158517221Y-109915637D01*
X158481910Y-109966067D01*
X158283030Y-109966067D01*
X158568843Y-109680254D01*
X159514346Y-110625757D01*
G37*
D11*
G36*
X158573402Y-109679372D02*
G01*
X157284055Y-110968719D01*
X156324410Y-110009074D01*
X156336006Y-109997478D01*
X156545477Y-109997478D01*
X156555608Y-110058445D01*
X156599641Y-110101814D01*
X157448169Y-110526078D01*
X157478015Y-110530573D01*
X157507783Y-110535520D01*
X157508494Y-110535164D01*
X157509283Y-110535283D01*
X157536095Y-110521363D01*
X157563062Y-110507880D01*
X157563428Y-110507173D01*
X157564135Y-110506807D01*
X157577618Y-110479840D01*
X157591538Y-110453028D01*
X157591419Y-110452239D01*
X157591775Y-110451528D01*
X157586828Y-110421760D01*
X157582333Y-110391914D01*
X157158069Y-109543386D01*
X157114700Y-109499353D01*
X157053733Y-109489222D01*
X156998454Y-109516861D01*
X156969978Y-109571714D01*
X156979183Y-109632828D01*
X157269283Y-110213028D01*
X156689083Y-109922928D01*
X156627969Y-109913723D01*
X156573116Y-109942199D01*
X156545477Y-109997478D01*
X156336006Y-109997478D01*
X156973152Y-109360332D01*
X157181989Y-109360332D01*
X157191657Y-109421374D01*
X157235359Y-109465076D01*
X157296401Y-109474744D01*
X157351469Y-109446686D01*
X157590522Y-109207632D01*
X157704121Y-109300576D01*
X157694921Y-109305264D01*
X157543398Y-109456787D01*
X157532931Y-109477328D01*
X157519241Y-109495875D01*
X157488936Y-109586789D01*
X157488812Y-109602996D01*
X157483804Y-109618412D01*
X157483804Y-109679021D01*
X157488812Y-109694436D01*
X157488936Y-109710644D01*
X157519241Y-109801558D01*
X157532933Y-109820106D01*
X157543399Y-109840646D01*
X157694921Y-109992168D01*
X157715464Y-110002635D01*
X157734009Y-110016325D01*
X157824922Y-110046630D01*
X157841129Y-110046753D01*
X157856545Y-110051762D01*
X157917154Y-110051762D01*
X157932569Y-110046753D01*
X157948777Y-110046630D01*
X158039691Y-110016325D01*
X158058238Y-110002633D01*
X158078778Y-109992168D01*
X158230301Y-109840646D01*
X158240766Y-109820106D01*
X158254459Y-109801558D01*
X158284764Y-109710644D01*
X158284887Y-109694436D01*
X158289896Y-109679021D01*
X158289896Y-109618412D01*
X158270798Y-109559633D01*
X158220798Y-109523306D01*
X158158994Y-109523306D01*
X158108994Y-109559633D01*
X158089896Y-109618412D01*
X158089896Y-109662793D01*
X158072188Y-109715915D01*
X157954049Y-109834054D01*
X157900927Y-109851762D01*
X157872772Y-109851762D01*
X157819650Y-109834054D01*
X157701511Y-109715916D01*
X157683804Y-109662793D01*
X157683804Y-109634639D01*
X157701511Y-109581517D01*
X157819651Y-109463377D01*
X157872772Y-109445670D01*
X157917154Y-109445670D01*
X157943933Y-109436969D01*
X157971194Y-109429812D01*
X157973088Y-109427496D01*
X157975933Y-109426572D01*
X157992487Y-109403787D01*
X158010331Y-109381978D01*
X158010502Y-109378990D01*
X158012260Y-109376572D01*
X158012260Y-109348413D01*
X158013877Y-109320277D01*
X158012260Y-109317759D01*
X158012260Y-109314768D01*
X157995697Y-109291971D01*
X157980478Y-109268275D01*
X157647128Y-108995533D01*
X157636936Y-108991561D01*
X157629203Y-108983828D01*
X157608794Y-108980595D01*
X157589542Y-108973093D01*
X157578963Y-108975870D01*
X157568161Y-108974159D01*
X157549750Y-108983539D01*
X157529764Y-108988787D01*
X157522837Y-108997252D01*
X157513093Y-109002218D01*
X157210047Y-109305264D01*
X157181989Y-109360332D01*
X156973152Y-109360332D01*
X157613757Y-108719727D01*
X158573402Y-109679372D01*
G37*
G36*
X175875564Y-115779457D02*
G01*
X175656314Y-115779457D01*
X175606229Y-115754415D01*
X175586321Y-115734506D01*
X175561278Y-115684420D01*
X175561278Y-115603063D01*
X175586320Y-115552978D01*
X175601011Y-115538287D01*
X175691791Y-115508028D01*
X175875564Y-115508028D01*
X175875564Y-115779457D01*
G37*
G36*
X175875564Y-115308028D02*
G01*
X175699171Y-115308028D01*
X175649085Y-115282985D01*
X175629177Y-115263077D01*
X175604135Y-115212992D01*
X175604135Y-115174492D01*
X175629177Y-115124407D01*
X175649085Y-115104500D01*
X175699171Y-115079457D01*
X175875564Y-115079457D01*
X175875564Y-115308028D01*
G37*
G36*
X176651108Y-115522314D02*
G01*
X176500021Y-115522314D01*
X176575564Y-115295683D01*
X176651108Y-115522314D01*
G37*
G36*
X178732707Y-116108028D02*
G01*
X173694744Y-116108028D01*
X173694744Y-115910359D01*
X173823315Y-115910359D01*
X173859642Y-115960359D01*
X173918421Y-115979457D01*
X174346993Y-115979457D01*
X174362056Y-115974563D01*
X174377895Y-115974563D01*
X174390708Y-115965253D01*
X174405772Y-115960359D01*
X174415081Y-115947545D01*
X174427895Y-115938236D01*
X174432789Y-115923172D01*
X174442099Y-115910359D01*
X174551886Y-115910359D01*
X174588213Y-115960359D01*
X174646992Y-115979457D01*
X175075564Y-115979457D01*
X175090627Y-115974563D01*
X175106466Y-115974563D01*
X175119279Y-115965253D01*
X175134343Y-115960359D01*
X175143652Y-115947545D01*
X175156466Y-115938236D01*
X175161360Y-115923172D01*
X175170670Y-115910359D01*
X175170670Y-115894519D01*
X175175564Y-115879457D01*
X175175564Y-115708028D01*
X175361278Y-115708028D01*
X175368401Y-115729951D01*
X175371835Y-115752749D01*
X175414692Y-115838463D01*
X175426064Y-115850009D01*
X175433423Y-115864452D01*
X175476281Y-115907310D01*
X175490721Y-115914668D01*
X175502271Y-115926043D01*
X175587986Y-115968900D01*
X175610783Y-115972333D01*
X175632707Y-115979457D01*
X175975564Y-115979457D01*
X175990627Y-115974563D01*
X176006466Y-115974563D01*
X176019279Y-115965253D01*
X176034343Y-115960359D01*
X176043652Y-115947545D01*
X176056466Y-115938236D01*
X176061360Y-115923172D01*
X176070670Y-115910359D01*
X176070670Y-115909636D01*
X176180226Y-115909636D01*
X176216173Y-115959910D01*
X176274805Y-115979455D01*
X176333727Y-115960803D01*
X176370432Y-115911080D01*
X176433354Y-115722314D01*
X176717774Y-115722314D01*
X176780696Y-115911079D01*
X176817401Y-115960803D01*
X176876323Y-115979454D01*
X176934955Y-115959910D01*
X176970902Y-115909636D01*
X176970672Y-115879457D01*
X177075564Y-115879457D01*
X177077308Y-115884825D01*
X177076159Y-115890353D01*
X177086718Y-115913789D01*
X177094662Y-115938236D01*
X177099229Y-115941554D01*
X177101548Y-115946700D01*
X177123862Y-115959451D01*
X177144662Y-115974563D01*
X177150307Y-115974563D01*
X177155209Y-115977364D01*
X177180763Y-115974563D01*
X177206466Y-115974563D01*
X177211032Y-115971245D01*
X177216644Y-115970630D01*
X177235667Y-115953347D01*
X177256466Y-115938236D01*
X177258210Y-115932866D01*
X177262388Y-115929071D01*
X177589850Y-115356012D01*
X177589850Y-115879457D01*
X177608948Y-115938236D01*
X177658948Y-115974563D01*
X177720752Y-115974563D01*
X177770752Y-115938236D01*
X177779810Y-115910359D01*
X177980458Y-115910359D01*
X178016785Y-115960359D01*
X178075564Y-115979457D01*
X178504136Y-115979457D01*
X178519199Y-115974563D01*
X178535038Y-115974563D01*
X178547851Y-115965253D01*
X178562915Y-115960359D01*
X178572224Y-115947545D01*
X178585038Y-115938236D01*
X178589932Y-115923172D01*
X178599242Y-115910359D01*
X178599242Y-115894519D01*
X178604136Y-115879457D01*
X178604136Y-114979457D01*
X178599242Y-114964394D01*
X178599242Y-114948555D01*
X178589932Y-114935741D01*
X178585038Y-114920678D01*
X178572224Y-114911368D01*
X178562915Y-114898555D01*
X178547851Y-114893660D01*
X178535038Y-114884351D01*
X178519199Y-114884351D01*
X178504136Y-114879457D01*
X178075564Y-114879457D01*
X178016785Y-114898555D01*
X177980458Y-114948555D01*
X177980458Y-115010359D01*
X178016785Y-115060359D01*
X178075564Y-115079457D01*
X178404136Y-115079457D01*
X178404136Y-115308028D01*
X178204136Y-115308028D01*
X178145357Y-115327126D01*
X178109030Y-115377126D01*
X178109030Y-115438930D01*
X178145357Y-115488930D01*
X178204136Y-115508028D01*
X178404136Y-115508028D01*
X178404136Y-115779457D01*
X178075564Y-115779457D01*
X178016785Y-115798555D01*
X177980458Y-115848555D01*
X177980458Y-115910359D01*
X177779810Y-115910359D01*
X177789850Y-115879457D01*
X177789850Y-114979457D01*
X177788105Y-114974088D01*
X177789255Y-114968561D01*
X177778695Y-114945124D01*
X177770752Y-114920678D01*
X177766184Y-114917359D01*
X177763866Y-114912214D01*
X177741551Y-114899462D01*
X177720752Y-114884351D01*
X177715107Y-114884351D01*
X177710205Y-114881550D01*
X177684651Y-114884351D01*
X177658948Y-114884351D01*
X177654381Y-114887668D01*
X177648770Y-114888284D01*
X177629746Y-114905566D01*
X177608948Y-114920678D01*
X177607203Y-114926047D01*
X177603026Y-114929843D01*
X177275564Y-115502901D01*
X177275564Y-114979457D01*
X177256466Y-114920678D01*
X177206466Y-114884351D01*
X177144662Y-114884351D01*
X177094662Y-114920678D01*
X177075564Y-114979457D01*
X177075564Y-115879457D01*
X176970672Y-115879457D01*
X176970432Y-115847834D01*
X176670432Y-114947834D01*
X176652509Y-114923555D01*
X176634955Y-114899004D01*
X176634200Y-114898752D01*
X176633727Y-114898111D01*
X176604901Y-114888986D01*
X176576323Y-114879460D01*
X176575565Y-114879699D01*
X176574805Y-114879459D01*
X176546166Y-114889005D01*
X176517401Y-114898111D01*
X176516927Y-114898752D01*
X176516173Y-114899004D01*
X176498606Y-114923571D01*
X176480696Y-114947835D01*
X176180696Y-115847834D01*
X176180226Y-115909636D01*
X176070670Y-115909636D01*
X176070670Y-115894519D01*
X176075564Y-115879457D01*
X176075564Y-114979457D01*
X176070670Y-114964394D01*
X176070670Y-114948555D01*
X176061360Y-114935741D01*
X176056466Y-114920678D01*
X176043652Y-114911368D01*
X176034343Y-114898555D01*
X176019279Y-114893660D01*
X176006466Y-114884351D01*
X175990627Y-114884351D01*
X175975564Y-114879457D01*
X175675564Y-114879457D01*
X175653640Y-114886580D01*
X175630842Y-114890014D01*
X175545129Y-114932871D01*
X175533582Y-114944243D01*
X175519140Y-114951602D01*
X175476282Y-114994459D01*
X175468922Y-115008902D01*
X175457549Y-115020450D01*
X175414692Y-115106164D01*
X175411258Y-115128961D01*
X175404135Y-115150885D01*
X175404135Y-115236600D01*
X175411258Y-115258523D01*
X175414692Y-115281321D01*
X175457549Y-115367035D01*
X175468922Y-115378582D01*
X175471943Y-115384511D01*
X175433424Y-115423031D01*
X175426065Y-115437473D01*
X175414692Y-115449021D01*
X175371835Y-115534736D01*
X175368401Y-115557533D01*
X175361278Y-115579457D01*
X175361278Y-115708028D01*
X175175564Y-115708028D01*
X175175564Y-114979457D01*
X175156466Y-114920678D01*
X175106466Y-114884351D01*
X175044662Y-114884351D01*
X174994662Y-114920678D01*
X174975564Y-114979457D01*
X174975564Y-115779457D01*
X174646992Y-115779457D01*
X174588213Y-115798555D01*
X174551886Y-115848555D01*
X174551886Y-115910359D01*
X174442099Y-115910359D01*
X174442099Y-115894519D01*
X174446993Y-115879457D01*
X174446993Y-114979457D01*
X174442099Y-114964394D01*
X174442099Y-114948555D01*
X174432789Y-114935741D01*
X174427895Y-114920678D01*
X174415081Y-114911368D01*
X174405772Y-114898555D01*
X174390708Y-114893660D01*
X174377895Y-114884351D01*
X174362056Y-114884351D01*
X174346993Y-114879457D01*
X173918421Y-114879457D01*
X173859642Y-114898555D01*
X173823315Y-114948555D01*
X173823315Y-115010359D01*
X173859642Y-115060359D01*
X173918421Y-115079457D01*
X174246993Y-115079457D01*
X174246993Y-115308028D01*
X174046993Y-115308028D01*
X173988214Y-115327126D01*
X173951887Y-115377126D01*
X173951887Y-115438930D01*
X173988214Y-115488930D01*
X174046993Y-115508028D01*
X174246993Y-115508028D01*
X174246993Y-115779457D01*
X173918421Y-115779457D01*
X173859642Y-115798555D01*
X173823315Y-115848555D01*
X173823315Y-115910359D01*
X173694744Y-115910359D01*
X173694744Y-114750886D01*
X178732707Y-114750886D01*
X178732707Y-116108028D01*
G37*
G36*
X177508743Y-116650885D02*
G01*
X177289493Y-116650885D01*
X177239407Y-116625842D01*
X177219499Y-116605934D01*
X177194457Y-116555849D01*
X177194457Y-116474492D01*
X177219499Y-116424407D01*
X177239407Y-116404499D01*
X177289493Y-116379457D01*
X177508743Y-116379457D01*
X177508743Y-116650885D01*
G37*
G36*
X178737314Y-117408028D02*
G01*
X176480172Y-117408028D01*
X176480172Y-117179457D01*
X176608743Y-117179457D01*
X176627841Y-117238236D01*
X176677841Y-117274563D01*
X176739645Y-117274563D01*
X176789645Y-117238236D01*
X176808743Y-117179457D01*
X176808743Y-116579457D01*
X176994457Y-116579457D01*
X177001580Y-116601380D01*
X177005014Y-116624178D01*
X177047871Y-116709892D01*
X177059244Y-116721439D01*
X177066603Y-116735882D01*
X177109460Y-116778739D01*
X177123902Y-116786097D01*
X177135450Y-116797471D01*
X177221165Y-116840328D01*
X177243962Y-116843761D01*
X177265886Y-116850885D01*
X177508743Y-116850885D01*
X177508743Y-117179457D01*
X177527841Y-117238236D01*
X177577841Y-117274563D01*
X177639645Y-117274563D01*
X177689645Y-117238236D01*
X177708743Y-117179457D01*
X177708743Y-117008028D01*
X177894457Y-117008028D01*
X177901580Y-117029951D01*
X177905014Y-117052749D01*
X177947871Y-117138463D01*
X177959244Y-117150010D01*
X177966603Y-117164453D01*
X178009461Y-117207310D01*
X178023902Y-117214668D01*
X178035451Y-117226043D01*
X178121164Y-117268900D01*
X178143962Y-117272333D01*
X178165886Y-117279457D01*
X178380172Y-117279457D01*
X178395587Y-117274448D01*
X178411795Y-117274325D01*
X178540366Y-117231468D01*
X178590089Y-117194763D01*
X178608741Y-117135841D01*
X178589197Y-117077209D01*
X178538922Y-117041262D01*
X178477120Y-117041732D01*
X178363945Y-117079457D01*
X178189493Y-117079457D01*
X178139407Y-117054414D01*
X178119500Y-117034506D01*
X178094457Y-116984420D01*
X178094457Y-116945921D01*
X178119500Y-116895835D01*
X178139407Y-116875927D01*
X178200790Y-116845236D01*
X178361568Y-116805042D01*
X178371014Y-116799130D01*
X178382035Y-116797471D01*
X178467750Y-116754614D01*
X178479297Y-116743240D01*
X178493740Y-116735882D01*
X178536597Y-116693025D01*
X178543955Y-116678582D01*
X178555329Y-116667035D01*
X178598186Y-116581322D01*
X178601619Y-116558523D01*
X178608743Y-116536600D01*
X178608743Y-116450885D01*
X178601619Y-116428961D01*
X178598186Y-116406163D01*
X178555329Y-116320450D01*
X178543955Y-116308902D01*
X178536597Y-116294460D01*
X178493740Y-116251603D01*
X178479297Y-116244244D01*
X178467750Y-116232871D01*
X178382035Y-116190014D01*
X178359237Y-116186580D01*
X178337314Y-116179457D01*
X178123029Y-116179457D01*
X178107615Y-116184464D01*
X178091407Y-116184588D01*
X177962834Y-116227446D01*
X177913111Y-116264151D01*
X177894459Y-116323073D01*
X177914003Y-116381705D01*
X177964278Y-116417652D01*
X178026080Y-116417182D01*
X178139256Y-116379457D01*
X178313707Y-116379457D01*
X178363792Y-116404499D01*
X178383701Y-116424408D01*
X178408743Y-116474492D01*
X178408743Y-116512993D01*
X178383701Y-116563077D01*
X178363792Y-116582985D01*
X178302410Y-116613676D01*
X178141632Y-116653871D01*
X178132185Y-116659781D01*
X178121164Y-116661442D01*
X178035451Y-116704299D01*
X178023902Y-116715673D01*
X178009461Y-116723032D01*
X177966603Y-116765889D01*
X177959244Y-116780331D01*
X177947871Y-116791879D01*
X177905014Y-116877593D01*
X177901580Y-116900390D01*
X177894457Y-116922314D01*
X177894457Y-117008028D01*
X177708743Y-117008028D01*
X177708743Y-116279457D01*
X177703849Y-116264394D01*
X177703849Y-116248555D01*
X177694539Y-116235741D01*
X177689645Y-116220678D01*
X177676831Y-116211368D01*
X177667522Y-116198555D01*
X177652458Y-116193660D01*
X177639645Y-116184351D01*
X177623806Y-116184351D01*
X177608743Y-116179457D01*
X177265886Y-116179457D01*
X177243962Y-116186580D01*
X177221165Y-116190014D01*
X177135450Y-116232871D01*
X177123902Y-116244244D01*
X177109460Y-116251603D01*
X177066603Y-116294460D01*
X177059244Y-116308902D01*
X177047871Y-116320450D01*
X177005014Y-116406164D01*
X177001580Y-116428961D01*
X176994457Y-116450885D01*
X176994457Y-116579457D01*
X176808743Y-116579457D01*
X176808743Y-116279457D01*
X176789645Y-116220678D01*
X176739645Y-116184351D01*
X176677841Y-116184351D01*
X176627841Y-116220678D01*
X176608743Y-116279457D01*
X176608743Y-117179457D01*
X176480172Y-117179457D01*
X176480172Y-116050886D01*
X178737314Y-116050886D01*
X178737314Y-117408028D01*
G37*
D12*
%TO.C,C10*%
X167284990Y-122045543D02*
X167654457Y-122415010D01*
X166245543Y-123084990D02*
X166615010Y-123454457D01*
%TO.C,C9*%
X165104457Y-119915010D02*
X164734990Y-119545543D01*
X164065010Y-120954457D02*
X163695543Y-120584990D01*
%TO.C,C8*%
X161665010Y-118504457D02*
X161295543Y-118134990D01*
X162704457Y-117465010D02*
X162334990Y-117095543D01*
%TO.C,JP2*%
X161397056Y-112782843D02*
X159417157Y-110802944D01*
X158002944Y-112217157D02*
X159982843Y-114197056D01*
X159982843Y-114197056D02*
X161397056Y-112782843D01*
X159417157Y-110802944D02*
X158002944Y-112217157D01*
%TO.C,JP1*%
X176121750Y-111950000D02*
X176121750Y-114750000D01*
X178121750Y-114750000D02*
X178121750Y-111950000D01*
X178121750Y-111950000D02*
X176121750Y-111950000D01*
X176121750Y-114750000D02*
X178121750Y-114750000D01*
%TO.C,C19*%
X154210000Y-100711252D02*
X154210000Y-99288748D01*
X152390000Y-100711252D02*
X152390000Y-99288748D01*
%TO.C,C17*%
X144904422Y-115496562D02*
X143481918Y-115496562D01*
X144904422Y-117316562D02*
X143481918Y-117316562D01*
%TO.C,R11*%
X139040000Y-137414564D02*
X139040000Y-133060436D01*
X142460000Y-137414564D02*
X142460000Y-133060436D01*
%TO.C,R7*%
X150090000Y-137014564D02*
X150090000Y-132660436D01*
X153510000Y-137014564D02*
X153510000Y-132660436D01*
%TO.C,R28*%
X172062742Y-125827500D02*
X172537258Y-125827500D01*
X172062742Y-126872500D02*
X172537258Y-126872500D01*
%TO.C,R27*%
X172537009Y-127327500D02*
X172062493Y-127327500D01*
X172537009Y-128372500D02*
X172062493Y-128372500D01*
%TO.C,R24*%
X153263753Y-125890695D02*
X153738269Y-125890695D01*
X153263753Y-126935695D02*
X153738269Y-126935695D01*
%TO.C,R23*%
X153737258Y-128447500D02*
X153262742Y-128447500D01*
X153737258Y-127402500D02*
X153262742Y-127402500D01*
%TO.C,R22*%
X168421559Y-101712339D02*
X168757092Y-101376806D01*
X167682632Y-100973412D02*
X168018165Y-100637879D01*
%TO.C,R21*%
X169073816Y-101698016D02*
X168738283Y-102033549D01*
X169812743Y-102436943D02*
X169477210Y-102772476D01*
%TO.C,R20*%
X166323940Y-103807862D02*
X166659473Y-103472329D01*
X165585013Y-103068935D02*
X165920546Y-102733402D01*
%TO.C,R19*%
X166977245Y-103794587D02*
X166641712Y-104130120D01*
X167716172Y-104533514D02*
X167380639Y-104869047D01*
%TO.C,R18*%
X163817770Y-104856541D02*
X163482237Y-105192074D01*
X164556697Y-105595468D02*
X164221164Y-105931001D01*
%TO.C,R17*%
X165269925Y-106979761D02*
X165605458Y-106644228D01*
X164530998Y-106240834D02*
X164866531Y-105905301D01*
%TO.C,C31*%
X172159420Y-124340000D02*
X172440580Y-124340000D01*
X172159420Y-125360000D02*
X172440580Y-125360000D01*
%TO.C,C29*%
X153362790Y-125447651D02*
X153643950Y-125447651D01*
X153362790Y-124427651D02*
X153643950Y-124427651D01*
%TO.C,C28*%
X167443419Y-100573677D02*
X167642230Y-100374866D01*
X166722170Y-99852428D02*
X166920981Y-99653617D01*
%TO.C,C27*%
X165332705Y-102684391D02*
X165531516Y-102485580D01*
X164611456Y-101963142D02*
X164810267Y-101764331D01*
%TO.C,C15*%
X162699831Y-103870838D02*
X162501020Y-104069649D01*
X163421080Y-104592087D02*
X163222269Y-104790898D01*
%TO.C,C11*%
X173139970Y-120936219D02*
X173338781Y-121135030D01*
X173861219Y-120214970D02*
X174060030Y-120413781D01*
%TO.C,R6*%
X159522500Y-126337258D02*
X159522500Y-125862742D01*
X158477500Y-126337258D02*
X158477500Y-125862742D01*
%TO.C,C7*%
X168233635Y-108920443D02*
X168603102Y-108550976D01*
X169273082Y-109959890D02*
X169642549Y-109590423D01*
%TO.C,C6*%
X174263239Y-112176208D02*
X174632706Y-111806741D01*
X173223792Y-111136761D02*
X173593259Y-110767294D01*
%TO.C,C33*%
X146965001Y-107541199D02*
X146965001Y-106118695D01*
X149685001Y-107541199D02*
X149685001Y-106118695D01*
%TO.C,C25*%
X164010000Y-126240580D02*
X164010000Y-125959420D01*
X162990000Y-126240580D02*
X162990000Y-125959420D01*
%TO.C,R10*%
X150752500Y-127387258D02*
X150752500Y-126912742D01*
X151797500Y-127387258D02*
X151797500Y-126912742D01*
%TO.C,C21*%
X152925002Y-107536198D02*
X152925002Y-106113694D01*
X150205002Y-107536198D02*
X150205002Y-106113694D01*
%TO.C,R29*%
X175189390Y-116819460D02*
X175406671Y-116602179D01*
X174651989Y-116282059D02*
X174869270Y-116064778D01*
%TO.C,U5*%
X175100000Y-104090000D02*
X177050000Y-104090000D01*
X175100000Y-104090000D02*
X173150000Y-104090000D01*
X175100000Y-109210000D02*
X177050000Y-109210000D01*
X175100000Y-109210000D02*
X171650000Y-109210000D01*
%TO.C,U1*%
D13*
X172958722Y-119530711D02*
X172689314Y-119800119D01*
X172509709Y-119620514D01*
X172779117Y-119351106D01*
X172958722Y-119530711D01*
G36*
X172958722Y-119530711D02*
G01*
X172689314Y-119800119D01*
X172509709Y-119620514D01*
X172779117Y-119351106D01*
X172958722Y-119530711D01*
G37*
X166274019Y-120681174D02*
X166094414Y-120860779D01*
X165825006Y-120591371D01*
X166004611Y-120411766D01*
X166274019Y-120681174D01*
G36*
X166274019Y-120681174D02*
G01*
X166094414Y-120860779D01*
X165825006Y-120591371D01*
X166004611Y-120411766D01*
X166274019Y-120681174D01*
G37*
X173312276Y-112935811D02*
X173132671Y-113115416D01*
X172863263Y-112846008D01*
X173042869Y-112666403D01*
X173312276Y-112935811D01*
G36*
X173312276Y-112935811D02*
G01*
X173132671Y-113115416D01*
X172863263Y-112846008D01*
X173042869Y-112666403D01*
X173312276Y-112935811D01*
G37*
X166627572Y-111078242D02*
X166358164Y-111347649D01*
X166178559Y-111168044D01*
X166447966Y-110898636D01*
X166627572Y-111078242D01*
G36*
X166627572Y-111078242D02*
G01*
X166358164Y-111347649D01*
X166178559Y-111168044D01*
X166447966Y-110898636D01*
X166627572Y-111078242D01*
G37*
D12*
X173998241Y-116056484D02*
X173708496Y-116346228D01*
X169151278Y-120903446D02*
X168861534Y-121193191D01*
X168861534Y-121193191D02*
X168571790Y-120903446D01*
X173708496Y-115766740D02*
X173998241Y-116056484D01*
X164014572Y-116346228D02*
X163724827Y-116056484D01*
X168861534Y-110919777D02*
X169151278Y-111209522D01*
X168571790Y-111209522D02*
X168861534Y-110919777D01*
X163724827Y-116056484D02*
X164014572Y-115766740D01*
%TO.C,R14*%
X167746047Y-107942683D02*
X167528766Y-107725402D01*
X167208646Y-108480084D02*
X166991365Y-108262803D01*
%TO.C,R3*%
X173110000Y-136614564D02*
X173110000Y-132260436D01*
X169690000Y-136614564D02*
X169690000Y-132260436D01*
%TO.C,C12*%
X171803696Y-122757200D02*
X172173163Y-122387733D01*
X170764249Y-121717753D02*
X171133716Y-121348286D01*
%TO.C,C24*%
X167560000Y-126490580D02*
X167560000Y-126209420D01*
X166540000Y-126490580D02*
X166540000Y-126209420D01*
%TO.C,R12*%
X156247500Y-126337258D02*
X156247500Y-125862742D01*
X155202500Y-126337258D02*
X155202500Y-125862742D01*
%TO.C,C38*%
X151289236Y-121613746D02*
X151289236Y-123036250D01*
X149469236Y-121613746D02*
X149469236Y-123036250D01*
%TO.C,R8*%
X162522500Y-126337258D02*
X162522500Y-125862742D01*
X161477500Y-126337258D02*
X161477500Y-125862742D01*
%TO.C,C14*%
X176721742Y-120674996D02*
X177091209Y-120305529D01*
X175682295Y-119635549D02*
X176051762Y-119266082D01*
%TO.C,C68*%
X142065000Y-99661252D02*
X142065000Y-99138748D01*
X143535000Y-99661252D02*
X143535000Y-99138748D01*
%TO.C,D8*%
X146035000Y-104175000D02*
X146035000Y-102875000D01*
X144235000Y-102625000D02*
X144235000Y-104175000D01*
%TO.C,L3*%
X145135378Y-99107500D02*
X145934622Y-99107500D01*
X145135378Y-97987500D02*
X145934622Y-97987500D01*
%TO.C,R31*%
X148288641Y-100420000D02*
X147981359Y-100420000D01*
X148288641Y-101180000D02*
X147981359Y-101180000D01*
%TO.C,R41*%
X162270000Y-133663641D02*
X162270000Y-133356359D01*
X163030000Y-133663641D02*
X163030000Y-133356359D01*
%TO.C,R15*%
X166320386Y-108926367D02*
X166537667Y-109143648D01*
X166857787Y-108388966D02*
X167075068Y-108606247D01*
%TO.C,R13*%
X167666365Y-107587803D02*
X167883646Y-107805084D01*
X168203766Y-107050402D02*
X168421047Y-107267683D01*
%TO.C,TH1*%
X161238504Y-136261201D02*
X161238504Y-135786685D01*
X162283504Y-136261201D02*
X162283504Y-135786685D01*
%TO.C,C26*%
X156690000Y-126240580D02*
X156690000Y-125959420D01*
X157710000Y-126240580D02*
X157710000Y-125959420D01*
%TO.C,IC2*%
X150410000Y-118287500D02*
X150410000Y-117287500D01*
X147190000Y-119287500D02*
X147190000Y-117287500D01*
%TO.C,R4*%
X165027500Y-126587258D02*
X165027500Y-126112742D01*
X166072500Y-126587258D02*
X166072500Y-126112742D01*
%TO.C,C23*%
X159690000Y-119632836D02*
X159690000Y-119417164D01*
X160410000Y-119632836D02*
X160410000Y-119417164D01*
%TO.C,R43*%
X142121360Y-101980000D02*
X142428642Y-101980000D01*
X142121360Y-101220000D02*
X142428642Y-101220000D01*
%TO.C,R5*%
X159977500Y-126337258D02*
X159977500Y-125862742D01*
X161022500Y-126337258D02*
X161022500Y-125862742D01*
%TO.C,C13*%
X174292498Y-118239504D02*
X174661965Y-117870037D01*
X175331945Y-119278951D02*
X175701412Y-118909484D01*
%TO.C,C16*%
X144904421Y-117796563D02*
X143481917Y-117796563D01*
X144904421Y-119616563D02*
X143481917Y-119616563D01*
%TO.C,C5*%
X161010356Y-111039707D02*
X162016218Y-112045569D01*
X162297290Y-109752773D02*
X163303152Y-110758635D01*
%TO.C,C4*%
X162650056Y-109390536D02*
X163655918Y-110396398D01*
X163936990Y-108103602D02*
X164942852Y-109109464D01*
%TO.C,C37*%
X147164999Y-121613748D02*
X147164999Y-123036252D01*
X148984999Y-121613748D02*
X148984999Y-123036252D01*
%TO.C,L1*%
X146700000Y-109600000D02*
X146700000Y-116200000D01*
X148400000Y-109600000D02*
X146700000Y-109600000D01*
X153100000Y-109600000D02*
X151400000Y-109600000D01*
X146700000Y-116200000D02*
X148400000Y-116200000D01*
X151400000Y-116200000D02*
X153100000Y-116200000D01*
X153100000Y-116200000D02*
X153100000Y-109600000D01*
%TO.C,D11*%
X143862500Y-101197500D02*
X143862500Y-99497500D01*
X143862500Y-101197500D02*
X146522500Y-101197500D01*
X143862500Y-99497500D02*
X146522500Y-99497500D01*
%TO.C,U2*%
X155850000Y-123045000D02*
X157800000Y-123045000D01*
X155850000Y-123045000D02*
X153900000Y-123045000D01*
X155850000Y-117925000D02*
X159300000Y-117925000D01*
X155850000Y-117925000D02*
X153900000Y-117925000D01*
%TD*%
%LPC*%
D14*
%TO.C,J13*%
X134450000Y-116085000D03*
X134450000Y-105085000D03*
D15*
X144450000Y-108085000D03*
D16*
X144450000Y-113085000D03*
%TD*%
D17*
%TO.C,C10*%
X166278249Y-122078249D03*
X167621751Y-123421751D03*
%TD*%
D18*
%TO.C,C9*%
X163728249Y-119578249D03*
X165071751Y-120921751D03*
%TD*%
%TO.C,C8*%
X162671751Y-118471751D03*
X161328249Y-117128249D03*
%TD*%
D16*
%TO.C,J2*%
X144450000Y-126985000D03*
D15*
X144450000Y-121985000D03*
D14*
X134450000Y-118985000D03*
X134450000Y-129985000D03*
%TD*%
D19*
%TO.C,JP2*%
X160159619Y-112959619D03*
X159240381Y-112040381D03*
%TD*%
D20*
%TO.C,JP1*%
X177121750Y-112700000D03*
X177121750Y-114000000D03*
%TD*%
D21*
%TO.C,C19*%
X153300000Y-101475000D03*
X153300000Y-98525000D03*
%TD*%
D22*
%TO.C,C17*%
X145668170Y-116406562D03*
X142718170Y-116406562D03*
%TD*%
D23*
%TO.C,J8*%
X147425000Y-140185000D03*
X146875825Y-141510825D03*
X146875825Y-138859175D03*
X145550000Y-142060000D03*
D24*
X145550000Y-140185000D03*
D23*
X145550000Y-138310000D03*
X144224175Y-141510825D03*
X144224175Y-138859175D03*
X143675000Y-140185000D03*
%TD*%
%TO.C,J7*%
X158225000Y-140185000D03*
X157675825Y-141510825D03*
X157675825Y-138859175D03*
X156350000Y-142060000D03*
D24*
X156350000Y-140185000D03*
D23*
X156350000Y-138310000D03*
X155024175Y-141510825D03*
X155024175Y-138859175D03*
X154475000Y-140185000D03*
%TD*%
%TO.C,J6*%
X169025000Y-140185000D03*
X168475825Y-141510825D03*
X168475825Y-138859175D03*
X167150000Y-142060000D03*
D24*
X167150000Y-140185000D03*
D23*
X167150000Y-138310000D03*
X165824175Y-141510825D03*
X165824175Y-138859175D03*
X165275000Y-140185000D03*
%TD*%
D25*
%TO.C,H4*%
X175850000Y-140485000D03*
D26*
X175850000Y-140485000D03*
%TD*%
%TO.C,H3*%
X135850000Y-140485000D03*
D25*
X135850000Y-140485000D03*
%TD*%
%TO.C,H2*%
X175850000Y-100485000D03*
D26*
X175850000Y-100485000D03*
%TD*%
D25*
%TO.C,H1*%
X135850000Y-100485000D03*
D26*
X135850000Y-100485000D03*
%TD*%
D27*
%TO.C,R11*%
X140750000Y-132275000D03*
X140750000Y-138200000D03*
%TD*%
%TO.C,R7*%
X151800000Y-131875000D03*
X151800000Y-137800000D03*
%TD*%
D28*
%TO.C,R28*%
X171475000Y-126350000D03*
X173125000Y-126350000D03*
%TD*%
D29*
%TO.C,R27*%
X171474751Y-127850000D03*
X173124751Y-127850000D03*
%TD*%
D28*
%TO.C,R24*%
X152676011Y-126413195D03*
X154326011Y-126413195D03*
%TD*%
D29*
%TO.C,R23*%
X154325000Y-127925000D03*
X152675000Y-127925000D03*
%TD*%
D30*
%TO.C,R22*%
X168803225Y-100591746D03*
X167636499Y-101758472D03*
%TD*%
D31*
%TO.C,R21*%
X168692150Y-102818609D03*
X169858876Y-101651883D03*
%TD*%
D30*
%TO.C,R20*%
X166705606Y-102687269D03*
X165538880Y-103853995D03*
%TD*%
D31*
%TO.C,R19*%
X166595579Y-104915180D03*
X167762305Y-103748454D03*
%TD*%
%TO.C,R18*%
X163436104Y-105977134D03*
X164602830Y-104810408D03*
%TD*%
D30*
%TO.C,R17*%
X165651591Y-105859168D03*
X164484865Y-107025894D03*
%TD*%
D32*
%TO.C,C31*%
X171525000Y-124850000D03*
X173075000Y-124850000D03*
%TD*%
%TO.C,C29*%
X154278370Y-124937651D03*
X152728370Y-124937651D03*
%TD*%
D33*
%TO.C,C28*%
X167730208Y-99565639D03*
X166634192Y-100661655D03*
%TD*%
%TO.C,C27*%
X165619494Y-101676353D03*
X164523478Y-102772369D03*
%TD*%
D34*
%TO.C,C15*%
X162413042Y-104878876D03*
X163509058Y-103782860D03*
%TD*%
D35*
%TO.C,C11*%
X174148008Y-121223008D03*
X173051992Y-120126992D03*
%TD*%
D36*
%TO.C,R6*%
X159000000Y-126925000D03*
X159000000Y-125275000D03*
%TD*%
D37*
%TO.C,C7*%
X168266341Y-109927184D03*
X169609843Y-108583682D03*
%TD*%
%TO.C,C6*%
X174600000Y-110800000D03*
X173256498Y-112143502D03*
%TD*%
D38*
%TO.C,C33*%
X148325001Y-105354947D03*
X148325001Y-108304947D03*
%TD*%
D39*
%TO.C,C25*%
X163500000Y-126875000D03*
X163500000Y-125325000D03*
%TD*%
D36*
%TO.C,R10*%
X151275000Y-126325000D03*
X151275000Y-127975000D03*
%TD*%
D38*
%TO.C,C21*%
X151565002Y-108299946D03*
X151565002Y-105349946D03*
%TD*%
D40*
%TO.C,R29*%
X174668706Y-116802743D03*
X175389954Y-116081495D03*
%TD*%
D41*
%TO.C,U5*%
X177575000Y-108555000D03*
X177575000Y-107285000D03*
X177575000Y-106015000D03*
X177575000Y-104745000D03*
X172625000Y-104745000D03*
X172625000Y-106015000D03*
X172625000Y-107285000D03*
X172625000Y-108555000D03*
%TD*%
D42*
%TO.C,U1*%
X168861534Y-116056484D03*
D43*
X163964465Y-117064465D03*
X164318018Y-117418018D03*
X164671573Y-117771573D03*
X165025125Y-118125126D03*
X165378678Y-118478678D03*
X165732232Y-118832232D03*
X166085786Y-119185786D03*
X166439340Y-119539340D03*
X166792892Y-119892893D03*
X167146445Y-120246445D03*
X167500000Y-120600000D03*
X167853553Y-120953553D03*
D44*
X169869515Y-120953553D03*
X170223068Y-120600000D03*
X170576623Y-120246445D03*
X170930176Y-119892893D03*
X171283728Y-119539340D03*
X171637282Y-119185786D03*
X171990836Y-118832232D03*
X172344390Y-118478678D03*
X172697943Y-118125126D03*
X173051495Y-117771573D03*
X173405050Y-117418018D03*
X173758603Y-117064465D03*
D43*
X173758603Y-115048503D03*
X173405050Y-114694950D03*
X173051495Y-114341395D03*
X172697943Y-113987842D03*
X172344390Y-113634290D03*
X171990836Y-113280736D03*
X171637282Y-112927182D03*
X171283728Y-112573628D03*
X170930176Y-112220075D03*
X170576623Y-111866523D03*
X170223068Y-111512968D03*
X169869515Y-111159415D03*
D44*
X167853553Y-111159415D03*
X167500000Y-111512968D03*
X167146445Y-111866523D03*
X166792892Y-112220075D03*
X166439340Y-112573628D03*
X166085786Y-112927182D03*
X165732232Y-113280736D03*
X165378678Y-113634290D03*
X165025125Y-113987842D03*
X164671573Y-114341395D03*
X164318018Y-114694950D03*
X163964465Y-115048503D03*
%TD*%
D45*
%TO.C,R14*%
X167729330Y-108463367D03*
X167008082Y-107742119D03*
%TD*%
D27*
%TO.C,R3*%
X171400000Y-137400000D03*
X171400000Y-131475000D03*
%TD*%
D37*
%TO.C,C12*%
X170796955Y-122724494D03*
X172140457Y-121380992D03*
%TD*%
D39*
%TO.C,C24*%
X167050000Y-127125000D03*
X167050000Y-125575000D03*
%TD*%
D36*
%TO.C,R12*%
X155725000Y-126925000D03*
X155725000Y-125275000D03*
%TD*%
D46*
%TO.C,C38*%
X150379236Y-123799998D03*
X150379236Y-120849998D03*
%TD*%
D36*
%TO.C,R8*%
X162000000Y-126925000D03*
X162000000Y-125275000D03*
%TD*%
D37*
%TO.C,C14*%
X175715001Y-120642290D03*
X177058503Y-119298788D03*
%TD*%
D47*
%TO.C,C68*%
X142800000Y-98450000D03*
X142800000Y-100350000D03*
%TD*%
D48*
%TO.C,D8*%
X144635000Y-104275000D03*
X145135000Y-104275000D03*
X145635000Y-104275000D03*
X145635000Y-102775000D03*
X145135000Y-102775000D03*
X144635000Y-102775000D03*
%TD*%
D49*
%TO.C,L3*%
X144472500Y-98547500D03*
X146597500Y-98547500D03*
%TD*%
D50*
%TO.C,R31*%
X148645000Y-100800000D03*
X147625000Y-100800000D03*
%TD*%
D51*
%TO.C,R41*%
X162650000Y-133000000D03*
X162650000Y-134020000D03*
%TD*%
D52*
%TO.C,R15*%
X166337103Y-108405683D03*
X167058351Y-109126931D03*
%TD*%
%TO.C,R13*%
X167683082Y-107067119D03*
X168404330Y-107788367D03*
%TD*%
D36*
%TO.C,TH1*%
X161761004Y-135198943D03*
X161761004Y-136848943D03*
%TD*%
D39*
%TO.C,C26*%
X157200000Y-125325000D03*
X157200000Y-126875000D03*
%TD*%
D53*
%TO.C,J14*%
X140835000Y-99120000D03*
D54*
X140835000Y-103300000D03*
D53*
X149475000Y-99120000D03*
D54*
X149475000Y-103300000D03*
D55*
X142265000Y-102800000D03*
X148045000Y-102800000D03*
%TD*%
D56*
%TO.C,IC2*%
X148800000Y-118287500D03*
D57*
X149800000Y-117275000D03*
X149300000Y-117275000D03*
X148800000Y-117275000D03*
X148300000Y-117275000D03*
X147800000Y-117275000D03*
X147800000Y-119300000D03*
X148300000Y-119300000D03*
X148800000Y-119300000D03*
X149300000Y-119300000D03*
X149800000Y-119300000D03*
%TD*%
D36*
%TO.C,R4*%
X165550000Y-125525000D03*
X165550000Y-127175000D03*
%TD*%
D58*
%TO.C,C23*%
X160050000Y-119045000D03*
X160050000Y-120005000D03*
%TD*%
D59*
%TO.C,R43*%
X141765001Y-101600000D03*
X142785001Y-101600000D03*
%TD*%
D36*
%TO.C,R5*%
X160500000Y-125275000D03*
X160500000Y-126925000D03*
%TD*%
D37*
%TO.C,C13*%
X175668706Y-117902743D03*
X174325204Y-119246245D03*
%TD*%
D22*
%TO.C,C16*%
X145668169Y-118706563D03*
X142718169Y-118706563D03*
%TD*%
D60*
%TO.C,C5*%
X161113771Y-109856188D03*
X163199737Y-111942154D03*
%TD*%
%TO.C,C4*%
X162753471Y-108207017D03*
X164839437Y-110292983D03*
%TD*%
D46*
%TO.C,C37*%
X148074999Y-120850000D03*
X148074999Y-123800000D03*
%TD*%
D61*
%TO.C,L1*%
X149900000Y-110150000D03*
X149900000Y-115650000D03*
%TD*%
D62*
%TO.C,D11*%
X144422500Y-100347500D03*
X146522500Y-100347500D03*
%TD*%
D63*
%TO.C,U2*%
X158325000Y-118580000D03*
X158325000Y-119850000D03*
X158325000Y-121120000D03*
X158325000Y-122390000D03*
X153375000Y-122390000D03*
X153375000Y-121120000D03*
X153375000Y-119850000D03*
X153375000Y-118580000D03*
%TD*%
%LPD*%
M02*
